<svg id="Layer_2" data-name="Layer 2" xmlns="http://www.w3.org/2000/svg" width="278.93" height="130.4" viewBox="0 0 278.93 130.4"><defs><style>.cls-1{fill:#ff73a0;}.cls-1,.cls-2,.cls-3{stroke:#000;stroke-miterlimit:10;}.cls-3{fill:#e36ea6;}</style></defs><path class="cls-1" d="M174.75,105.06s16.87,12.86,31.53,17.89L233,109.58"/><path class="cls-1" d="M206.31,123.4l-.16-.06c-14.56-5-31.49-17.82-31.66-18l.51-.66c.17.13,16.86,12.77,31.25,17.77l26.53-13.29.37.74Z"/><path class="cls-2" d="M201.93,120a119.07,119.07,0,0,1-14.81-6.84c-7.76-4.26-39-23.46-51.84-59.25-5.13-14.24-3.35-23.14-2.54-26.33.44-1.74,4.27-16.07,16.74-22.9C163.57-3.08,184,1.32,198.2,16.68l2.48,2.44,1.25,1.11,3.74-3.55c14.2-15.36,34.63-19.76,48.72-12,12.47,6.83,16.3,21.16,16.74,22.9.81,3.19,2.59,12.09-2.54,26.33-12.88,35.79-44.08,55-51.84,59.25A118.4,118.4,0,0,1,201.93,120"/><path class="cls-2" d="M201.93,120.4l-.14-.06a119.64,119.64,0,0,1-14.87-6.86c-6.37-3.49-38.83-22.78-52-59.48-3.56-9.89-4.44-19.07-2.55-26.57C133,24.74,137,11,149.28,4.27c14.62-8,35.32-2.91,49.23,12.12L201,18.82l.95.85,3.46-3.29C219.26,1.36,240-3.74,254.59,4.27c12.26,6.71,16.27,20.47,17,23.16,1.88,7.5,1,16.68-2.56,26.57-13.2,36.7-45.66,56-52,59.48a119.64,119.64,0,0,1-14.87,6.86ZM164.65,1.33a30.92,30.92,0,0,0-15,3.67c-12,6.55-15.88,20-16.54,22.63-1.85,7.34-1,16.36,2.53,26.09,13.11,36.41,45.33,55.56,51.65,59a117.65,117.65,0,0,0,14.61,6.75,117.78,117.78,0,0,0,14.62-6.75c6.32-3.47,38.54-22.61,51.65-59,3.5-9.73,4.37-18.75,2.53-26.09C270.06,25,266.15,11.55,254.19,5,239.9-2.83,219.62,2.2,206,17l-4,3.84-1.54-1.37L197.91,17C188.57,6.88,176.14,1.33,164.65,1.33Z"/><path class="cls-1" d="M207.86,123a119.07,119.07,0,0,1-14.81-6.84c-7.77-4.25-39-23.46-51.84-59.25-5.13-14.24-3.35-23.14-2.54-26.33.44-1.74,4.26-16.07,16.74-22.9,14.09-7.71,34.52-3.31,48.72,12.05l2.48,2.44,1.25,1.11,3.73-3.55c14.21-15.36,34.64-19.76,48.73-12,12.47,6.83,16.3,21.16,16.74,22.9.8,3.19,2.59,12.09-2.54,26.33-12.88,35.79-44.08,55-51.84,59.25A118.4,118.4,0,0,1,207.86,123"/><path class="cls-1" d="M207.86,123.4l-.15-.06a118.85,118.85,0,0,1-14.86-6.86C186.48,113,154,93.7,140.81,57c-3.56-9.88-4.44-19.07-2.55-26.57.68-2.69,4.68-16.44,17-23.16,14.62-8,35.32-2.91,49.23,12.13l2.46,2.42.95.85,3.46-3.29c13.88-15,34.59-20.12,49.21-12.11,12.27,6.72,16.27,20.47,16.94,23.16,1.89,7.5,1,16.68-2.55,26.57-13.21,36.71-45.66,56-52,59.48A119.64,119.64,0,0,1,208,123.34ZM170.57,4.33a30.91,30.91,0,0,0-15,3.67c-12,6.55-15.88,20-16.54,22.63-1.85,7.34-1,16.36,2.53,26.09,13.11,36.42,45.33,55.56,51.65,59a117,117,0,0,0,14.61,6.75,116.32,116.32,0,0,0,14.61-6.75c6.33-3.47,38.55-22.61,51.66-59,3.5-9.73,4.37-18.75,2.52-26.09C276,28,272.08,14.55,260.12,8,245.83.17,225.55,5.2,211.9,20l-4,3.84-1.54-1.37L203.84,20C194.5,9.88,182.07,4.33,170.57,4.33Z"/><path d="M27.19,50.42H32.6A2.6,2.6,0,0,1,35.21,53v6.82a2.59,2.59,0,0,0,2.6,2.6h6.4a2.6,2.6,0,0,0,2.6-2.6V53a2.59,2.59,0,0,1,2.6-2.6h5.46a2.59,2.59,0,0,1,2.6,2.6V82.18a2.6,2.6,0,0,1-2.6,2.6H49.41a2.6,2.6,0,0,1-2.6-2.6v-8.7a2.6,2.6,0,0,0-2.6-2.6h-6.4a2.59,2.59,0,0,0-2.6,2.6v8.7a2.61,2.61,0,0,1-2.61,2.6H27.19a2.6,2.6,0,0,1-2.6-2.6V53A2.59,2.59,0,0,1,27.19,50.42Z"/><path d="M67.55,50.42H73a2.6,2.6,0,0,1,2.6,2.6V82.18a2.61,2.61,0,0,1-2.6,2.6H67.55a2.6,2.6,0,0,1-2.6-2.6V53A2.59,2.59,0,0,1,67.55,50.42Z"/><path d="M83.35,53a2.59,2.59,0,0,1,2.6-2.6H99.12a18.92,18.92,0,0,1,7.53,1.26,12.28,12.28,0,0,1,4.75,3.64,14.93,14.93,0,0,1,2.72,5.5,25.75,25.75,0,0,1,.84,6.66A23,23,0,0,1,113.71,76a14.23,14.23,0,0,1-3.48,5.09,11.34,11.34,0,0,1-4.78,2.73,24.89,24.89,0,0,1-6.33.94H86a2.6,2.6,0,0,1-2.6-2.6ZM94,60.8V74.37A2.6,2.6,0,0,0,96.57,77h0a10.83,10.83,0,0,0,4.73-.74,5,5,0,0,0,2.2-2.57,16.24,16.24,0,0,0,.8-6q0-5.46-1.78-7.48t-5.91-2h0A2.6,2.6,0,0,0,94,60.8Z"/><path d="M123.12,50.42h23.25A2.59,2.59,0,0,1,149,53v2.13a2.59,2.59,0,0,1-2.6,2.6H133.76a2.6,2.6,0,0,0-2.6,2.6v.26a2.59,2.59,0,0,0,2.6,2.6h11.32a2.6,2.6,0,0,1,2.6,2.61v1.8a2.59,2.59,0,0,1-2.6,2.6H133.76a2.6,2.6,0,0,0-2.6,2.6v1.57a2.6,2.6,0,0,0,2.6,2.61h13.13a2.6,2.6,0,0,1,2.6,2.6v2.58a2.61,2.61,0,0,1-2.6,2.6H123.12a2.6,2.6,0,0,1-2.6-2.6V53A2.59,2.59,0,0,1,123.12,50.42Z"/><path d="M21.49,122H13.31a2.6,2.6,0,0,0-2.5,1.87l-.57,1.94a2.6,2.6,0,0,1-2.5,1.86H2.6a2.6,2.6,0,0,1-2.43-3.51L11.13,95a2.61,2.61,0,0,1,2.43-1.69h8A2.63,2.63,0,0,1,24,95l11,29.16a2.6,2.6,0,0,1-2.43,3.51H27.06a2.6,2.6,0,0,1-2.48-1.84l-.6-2A2.61,2.61,0,0,0,21.49,122ZM20.18,111.2l-.26-.85a2.6,2.6,0,0,0-5,0l-.25.84a2.6,2.6,0,0,0,2.49,3.36h.51A2.6,2.6,0,0,0,20.18,111.2Z"/><path d="M42.3,93.3h5.94a2.62,2.62,0,0,1,2.15,1.14l7.41,10.89a2.6,2.6,0,0,0,4.75-1.46v-8a2.6,2.6,0,0,1,2.6-2.61H70a2.61,2.61,0,0,1,2.6,2.61v29.15a2.6,2.6,0,0,1-2.6,2.6h-6a2.58,2.58,0,0,1-2.14-1.13l-7.35-10.77a2.6,2.6,0,0,0-4.75,1.47v7.83a2.59,2.59,0,0,1-2.6,2.6H42.3a2.59,2.59,0,0,1-2.6-2.6V95.91A2.6,2.6,0,0,1,42.3,93.3Z"/><path d="M79.75,95.91a2.61,2.61,0,0,1,2.6-2.61H95.53a18.91,18.91,0,0,1,7.53,1.27,12.26,12.26,0,0,1,4.75,3.63,15.22,15.22,0,0,1,2.72,5.51,25.64,25.64,0,0,1,.84,6.66,23.22,23.22,0,0,1-1.25,8.54,14.32,14.32,0,0,1-3.48,5.09,11.53,11.53,0,0,1-4.79,2.73,24.71,24.71,0,0,1-6.32.93H82.35a2.6,2.6,0,0,1-2.6-2.6Zm10.62,7.78v13.57a2.61,2.61,0,0,0,2.6,2.6h0a11,11,0,0,0,4.74-.74,5,5,0,0,0,2.2-2.58,16.15,16.15,0,0,0,.8-6q0-5.46-1.79-7.48t-5.9-2h0A2.6,2.6,0,0,0,90.37,103.69Z"/><path d="M136.67,116.06l5-.31a2.61,2.61,0,0,1,2.64,1.83,5.94,5.94,0,0,0,.91,1.78,5.62,5.62,0,0,0,4.69,2.09,5.19,5.19,0,0,0,3.5-1.07,3.2,3.2,0,0,0,1.23-2.47,3.15,3.15,0,0,0-1.17-2.39c-.78-.71-2.59-1.37-5.44-2q-7-1.56-10-4.17a8.37,8.37,0,0,1-3-6.63,8.94,8.94,0,0,1,1.54-5A10.13,10.13,0,0,1,141.18,94a21.54,21.54,0,0,1,8.45-1.35q6.59,0,10.05,2.45a9.33,9.33,0,0,1,3.37,4.57,2.59,2.59,0,0,1-2.33,3.41l-4.91.28a2.6,2.6,0,0,1-2.53-1.63,4.35,4.35,0,0,0-1.17-1.62,5.37,5.37,0,0,0-3.53-1.06,4.2,4.2,0,0,0-2.79.79,2.39,2.39,0,0,0-.94,1.91,1.88,1.88,0,0,0,.78,1.47,8.53,8.53,0,0,0,3.56,1.27,44.19,44.19,0,0,1,10,3,10.44,10.44,0,0,1,4.38,3.8,9.64,9.64,0,0,1,1.37,5.09,11,11,0,0,1-1.82,6.09,11.48,11.48,0,0,1-5.11,4.23,20.51,20.51,0,0,1-8.28,1.45q-8.76,0-12.14-3.38a12.73,12.73,0,0,1-3.21-5.36A2.61,2.61,0,0,1,136.67,116.06Z"/><path d="M172.84,93.25h23.25a2.61,2.61,0,0,1,2.6,2.6V98a2.61,2.61,0,0,1-2.6,2.61H183.48a2.59,2.59,0,0,0-2.6,2.6v.26a2.6,2.6,0,0,0,2.6,2.6H194.8a2.6,2.6,0,0,1,2.6,2.6v1.8a2.61,2.61,0,0,1-2.6,2.61H183.48a2.59,2.59,0,0,0-2.6,2.6v1.57a2.6,2.6,0,0,0,2.6,2.6H196.6a2.59,2.59,0,0,1,2.6,2.6V125a2.59,2.59,0,0,1-2.6,2.6H172.84a2.6,2.6,0,0,1-2.61-2.6V95.85A2.61,2.61,0,0,1,172.84,93.25Z"/><path d="M207.5,93.25h23.25a2.6,2.6,0,0,1,2.6,2.6V98a2.6,2.6,0,0,1-2.6,2.61H218.14a2.59,2.59,0,0,0-2.6,2.6v.26a2.6,2.6,0,0,0,2.6,2.6h11.32a2.59,2.59,0,0,1,2.6,2.6v1.8a2.6,2.6,0,0,1-2.6,2.61H218.14a2.59,2.59,0,0,0-2.6,2.6v1.57a2.6,2.6,0,0,0,2.6,2.6h13.13a2.6,2.6,0,0,1,2.6,2.6V125a2.6,2.6,0,0,1-2.6,2.6H207.5a2.59,2.59,0,0,1-2.6-2.6V95.85A2.6,2.6,0,0,1,207.5,93.25Z"/><path d="M242.23,93.25h5.42a2.6,2.6,0,0,1,2.6,2.6V99.2a2.6,2.6,0,0,0,4.58,1.69l5.76-6.73a2.61,2.61,0,0,1,2-.91h6.79a2.6,2.6,0,0,1,1.87,4.41l-6.88,7.11a2.61,2.61,0,0,0-.34,3.17l9.62,15.71a2.6,2.6,0,0,1-2.22,4h-6.84a2.62,2.62,0,0,1-2.32-1.41l-4.84-9.46a2.6,2.6,0,0,0-4.2-.61L251,118.47a2.61,2.61,0,0,0-.72,1.8V125a2.59,2.59,0,0,1-2.6,2.6h-5.42a2.6,2.6,0,0,1-2.6-2.6V95.85A2.61,2.61,0,0,1,242.23,93.25Z"/><path class="cls-3" d="M29.19,52.67H34.6a2.61,2.61,0,0,1,2.61,2.6v6.82a2.59,2.59,0,0,0,2.6,2.6h6.4a2.6,2.6,0,0,0,2.6-2.6V55.27a2.6,2.6,0,0,1,2.6-2.6h5.46a2.6,2.6,0,0,1,2.6,2.6V84.43a2.59,2.59,0,0,1-2.6,2.6H51.41a2.59,2.59,0,0,1-2.6-2.6v-8.7a2.61,2.61,0,0,0-2.6-2.6h-6.4a2.6,2.6,0,0,0-2.6,2.6v8.7A2.6,2.6,0,0,1,34.6,87H29.19a2.59,2.59,0,0,1-2.6-2.6V55.27A2.6,2.6,0,0,1,29.19,52.67Z"/><path class="cls-3" d="M69.55,52.67H75a2.61,2.61,0,0,1,2.6,2.6V84.43A2.6,2.6,0,0,1,75,87H69.55a2.59,2.59,0,0,1-2.6-2.6V55.27A2.6,2.6,0,0,1,69.55,52.67Z"/><path class="cls-3" d="M85.35,55.27a2.6,2.6,0,0,1,2.6-2.6h13.17a18.73,18.73,0,0,1,7.53,1.27,12.16,12.16,0,0,1,4.75,3.63,15,15,0,0,1,2.72,5.51,25.62,25.62,0,0,1,.84,6.65,23.07,23.07,0,0,1-1.25,8.55,14.19,14.19,0,0,1-3.48,5.08,11.34,11.34,0,0,1-4.78,2.73,24.45,24.45,0,0,1-6.33.94H88a2.59,2.59,0,0,1-2.6-2.6ZM96,63.05V76.62a2.61,2.61,0,0,0,2.61,2.61h0a11,11,0,0,0,4.73-.74,5,5,0,0,0,2.2-2.58,16.24,16.24,0,0,0,.8-6q0-5.46-1.78-7.47t-5.91-2h0A2.61,2.61,0,0,0,96,63.05Z"/><path class="cls-3" d="M125.12,52.67h23.25a2.6,2.6,0,0,1,2.6,2.6v2.14a2.6,2.6,0,0,1-2.6,2.6H135.76a2.59,2.59,0,0,0-2.6,2.6v.26a2.6,2.6,0,0,0,2.6,2.6h11.32a2.59,2.59,0,0,1,2.6,2.6v1.8a2.6,2.6,0,0,1-2.6,2.61H135.76a2.59,2.59,0,0,0-2.6,2.6v1.57a2.6,2.6,0,0,0,2.6,2.6h13.13a2.6,2.6,0,0,1,2.6,2.6v2.58a2.6,2.6,0,0,1-2.6,2.6H125.12a2.59,2.59,0,0,1-2.6-2.6V55.27A2.6,2.6,0,0,1,125.12,52.67Z"/><path class="cls-3" d="M23.69,123.64H15.51A2.6,2.6,0,0,0,13,125.51l-.57,1.94a2.61,2.61,0,0,1-2.5,1.87H4.81a2.6,2.6,0,0,1-2.43-3.52l11-29.16A2.6,2.6,0,0,1,15.77,95h8a2.6,2.6,0,0,1,2.43,1.68l11,29.16a2.61,2.61,0,0,1-2.44,3.52H29.27a2.61,2.61,0,0,1-2.49-1.85l-.6-2A2.6,2.6,0,0,0,23.69,123.64Zm-1.3-10.79-.26-.84a2.6,2.6,0,0,0-5,0l-.25.85a2.59,2.59,0,0,0,2.49,3.35h.51A2.6,2.6,0,0,0,22.39,112.85Z"/><path class="cls-3" d="M44.51,95h5.93a2.61,2.61,0,0,1,2.16,1.13L60,107a2.6,2.6,0,0,0,4.75-1.46v-8a2.59,2.59,0,0,1,2.6-2.6h4.8a2.6,2.6,0,0,1,2.61,2.6v29.15a2.61,2.61,0,0,1-2.61,2.61h-6A2.62,2.62,0,0,1,64,128.18l-7.34-10.76a2.6,2.6,0,0,0-4.75,1.46v7.83a2.6,2.6,0,0,1-2.6,2.61H44.51a2.6,2.6,0,0,1-2.6-2.61V97.56A2.59,2.59,0,0,1,44.51,95Z"/><path class="cls-3" d="M82,97.56a2.6,2.6,0,0,1,2.6-2.6H97.73a19,19,0,0,1,7.54,1.26A12.35,12.35,0,0,1,110,99.86a14.92,14.92,0,0,1,2.71,5.5,25.32,25.32,0,0,1,.85,6.66,23,23,0,0,1-1.26,8.54,14,14,0,0,1-3.48,5.09,11.22,11.22,0,0,1-4.78,2.73,24.83,24.83,0,0,1-6.33.94H84.56a2.61,2.61,0,0,1-2.6-2.61Zm10.62,7.78v13.57a2.59,2.59,0,0,0,2.6,2.6h0a10.77,10.77,0,0,0,4.73-.74,5,5,0,0,0,2.21-2.57,16.29,16.29,0,0,0,.79-6q0-5.46-1.78-7.48t-5.9-2h0A2.59,2.59,0,0,0,92.58,105.34Z"/><path class="cls-3" d="M138.46,117.77l5-.31a2.63,2.63,0,0,1,2.65,1.83,5.82,5.82,0,0,0,.9,1.78,5.63,5.63,0,0,0,4.69,2.08,5.19,5.19,0,0,0,3.5-1.06,3.2,3.2,0,0,0,1.23-2.48,3.17,3.17,0,0,0-1.17-2.39q-1.17-1.05-5.44-2-7-1.58-10-4.17a8.4,8.4,0,0,1-3-6.63,9,9,0,0,1,1.54-5,10.15,10.15,0,0,1,4.62-3.7,21.48,21.48,0,0,1,8.44-1.35c4.4,0,7.74.82,10.05,2.45a9.29,9.29,0,0,1,3.37,4.57,2.58,2.58,0,0,1-2.32,3.4l-4.92.29a2.62,2.62,0,0,1-2.53-1.64,4.51,4.51,0,0,0-1.17-1.62,5.4,5.4,0,0,0-3.53-1,4.3,4.3,0,0,0-2.79.78,2.43,2.43,0,0,0-.94,1.91,1.91,1.91,0,0,0,.78,1.48,8.68,8.68,0,0,0,3.56,1.27,44.82,44.82,0,0,1,10,3,10.52,10.52,0,0,1,4.38,3.81,9.62,9.62,0,0,1,1.38,5.09,10.88,10.88,0,0,1-1.83,6.09,11.42,11.42,0,0,1-5.11,4.23,20.68,20.68,0,0,1-8.27,1.44q-8.77,0-12.15-3.37a12.71,12.71,0,0,1-3.21-5.37A2.61,2.61,0,0,1,138.46,117.77Z"/><path class="cls-3" d="M174.63,95h23.25a2.6,2.6,0,0,1,2.6,2.6v2.13a2.6,2.6,0,0,1-2.6,2.6H185.27a2.6,2.6,0,0,0-2.6,2.6v.26a2.59,2.59,0,0,0,2.6,2.6h11.32a2.6,2.6,0,0,1,2.6,2.61v1.8a2.59,2.59,0,0,1-2.6,2.6H185.27a2.6,2.6,0,0,0-2.6,2.6v1.57a2.6,2.6,0,0,0,2.6,2.61h13.12a2.6,2.6,0,0,1,2.61,2.6v2.57a2.61,2.61,0,0,1-2.61,2.61H174.63a2.6,2.6,0,0,1-2.6-2.61V97.56A2.59,2.59,0,0,1,174.63,95Z"/><path class="cls-3" d="M209.29,95h23.25a2.59,2.59,0,0,1,2.6,2.6v2.13a2.59,2.59,0,0,1-2.6,2.6H219.93a2.61,2.61,0,0,0-2.6,2.6v.26a2.6,2.6,0,0,0,2.6,2.6h11.32a2.6,2.6,0,0,1,2.6,2.61v1.8a2.59,2.59,0,0,1-2.6,2.6H219.93a2.61,2.61,0,0,0-2.6,2.6v1.57a2.61,2.61,0,0,0,2.6,2.61h13.13a2.6,2.6,0,0,1,2.6,2.6v2.57a2.61,2.61,0,0,1-2.6,2.61H209.29a2.61,2.61,0,0,1-2.6-2.61V97.56A2.6,2.6,0,0,1,209.29,95Z"/><path class="cls-3" d="M244,95h5.41a2.59,2.59,0,0,1,2.6,2.6v3.35a2.6,2.6,0,0,0,4.58,1.69l5.76-6.73a2.61,2.61,0,0,1,2-.91h6.79A2.6,2.6,0,0,1,273,99.37l-6.87,7.11a2.58,2.58,0,0,0-.35,3.16l9.62,15.72a2.6,2.6,0,0,1-2.22,4h-6.84a2.6,2.6,0,0,1-2.31-1.42l-4.85-9.46a2.61,2.61,0,0,0-4.2-.61l-2.24,2.35A2.6,2.6,0,0,0,252,122v4.74a2.6,2.6,0,0,1-2.6,2.61H244a2.61,2.61,0,0,1-2.61-2.61V97.56A2.6,2.6,0,0,1,244,95Z"/></svg>