<svg xmlns="http://www.w3.org/2000/svg" xmlns:xlink="http://www.w3.org/1999/xlink" width="1920" height="1080" viewBox="0 0 1920 1080"><defs><style>.cls-1{fill:url(#radial-gradient);}.cls-2{fill:#231f20;}.cls-3{fill:#f5db12;}.cls-4{fill:#fff;}.cls-5,.cls-6{fill:#f5e0cd;}.cls-6{stroke:#000;stroke-miterlimit:10;}.cls-7{fill:#9b74d0;}.cls-8{fill:none;}</style><radialGradient id="radial-gradient" cx="960" cy="540" r="778.85" gradientUnits="userSpaceOnUse"><stop offset="0" stop-color="#e36ea6"/><stop offset="0.36" stop-color="#ffaaf8"/><stop offset="1" stop-color="#e36ea6"/></radialGradient></defs><g id="Layer_2" data-name="Layer 2"><rect class="cls-1" width="1920" height="1080"/><path class="cls-2" d="M1193,429.86c-.33-1.48-.64-3-1-4.44-.26-1.11-.53-2.22-.85-3.32a11.33,11.33,0,0,1-.46-1.33c0-.11-.1-.21-.16-.32-1.4-2.67-3.43-4.92-5.07-7.43-2.42-2.65-5.25-5.42-8.4-8.37-57.88-54.3-276.33-91.4-276.33-91.4-68.17-172.87-116.7-225-145.74-238A51.11,51.11,0,0,0,738.49,73c-.73,0-1.46.07-2.19.12A38.8,38.8,0,0,0,727,75.06c-.64.26-1.25.58-1.91.81l-.93.45a11.88,11.88,0,0,0-1.55,1.38c-59,30.14-151.26,250.43-151.26,250.43s-252.94,8.5-272.07,89.27S488.41,634.21,488.41,634.21s-51.66,274.95,2.13,300.9c65.61,31.65,234-87.82,245.85-96.33a21.33,21.33,0,0,1,15.9-8.16,6.19,6.19,0,0,1,5.74,1.31c5.09,4.24,10.55,8,15.91,11.87.48.23.92.53,1.41.74a3.56,3.56,0,0,1,1,.69c175.51,101.4,209.5,97.15,256.17,75.93s2.13-286.95,2.13-286.95C1177.94,483.61,1190,478.67,1193,429.86Z"/><path class="cls-3" d="M1228.76,429.86c-.32-1.48-.64-3-1-4.43-.27-1.11-.54-2.23-.85-3.32a9.36,9.36,0,0,1-.46-1.33l-.17-.33c-1.4-2.66-3.43-4.91-5.07-7.43-2.42-2.65-5.25-5.41-8.4-8.37-57.88-54.29-276.32-91.4-276.32-91.4C868.33,140.39,819.8,88.28,790.76,75.3A51,51,0,0,0,774.22,73l-2.19.11a38.62,38.62,0,0,0-9.33,1.93c-.65.27-1.26.58-1.92.82l-.93.44a13.31,13.31,0,0,0-1.55,1.39C699.27,107.84,607,328.13,607,328.13S354.1,336.63,335,417.41s189.18,216.8,189.18,216.8-51.67,275,2.12,300.91c65.61,31.65,234-87.83,245.85-96.34a21.33,21.33,0,0,1,15.9-8.16,6.22,6.22,0,0,1,5.74,1.31c5.09,4.24,10.55,8,15.91,11.88.48.23.92.52,1.41.73a3.56,3.56,0,0,1,1,.69c175.51,101.41,209.5,97.15,256.17,75.94s2.13-287,2.13-287C1213.67,483.62,1225.71,478.68,1228.76,429.86Z"/><path d="M553,943.26c-10.47,0-19.92-1.71-28-5.59-53.35-25.73-8.86-275.86-4-302.12-20.76-13.73-207.5-139.88-188.8-218.8C351,337.56,580.4,326.34,605.13,325.37c9.26-21.91,94.25-220,151.46-250a17.9,17.9,0,0,1,1.53-1.32l1.47-.77c.57-.22.89-.36,1.2-.51l.82-.36a41.47,41.47,0,0,1,10.18-2.13l2.28-.12a53.92,53.92,0,0,1,17.52,2.39c29.47,13.16,78.55,65.07,147,238.15,21.4,3.72,220.32,39.42,276.21,91.85,3.75,3.52,6.39,6.15,8.56,8.53.87,1.28,1.53,2.15,2.17,3a37.73,37.73,0,0,1,3.32,5l.82,2.14c.34,1.18.63,2.34.9,3.5l1.07,4.86,0,.4c-2.68,42.87-12.4,53-105.39,149.94-15.23,15.87-32.69,34.08-52.75,55.16,3.82,23.15,42.92,267.29-4,288.61-50.57,23-88.13,22.53-258.75-76.06l-.54-.4-1.29-.69-.88-.5-3.61-2.61c-4.14-3-8.42-6-12.44-9.38a3.4,3.4,0,0,0-3.12-.78l-.81.13h0a18.51,18.51,0,0,0-13.58,7l-.63.64C757.55,852.74,629,943.26,553,943.26ZM775.83,75.83c-.51,0-1,0-1.51,0l-2.13.11a36.34,36.34,0,0,0-8.58,1.78l-.48.23c-.46.2-.91.41-1.39.58l-.38.19a7.48,7.48,0,0,0-1,.86l-.82.63c-57.44,29.32-149,246.8-149.93,249L609,330.9l-1.81.06c-2.51.09-251,9.35-269.41,87.1-18.45,77.92,185.9,212.43,188,213.78l1.58,1-.35,1.87c-.13.69-13,69.45-19.07,140.47C497.77,892.56,513,925.56,527.5,932.57c63.74,30.69,231.41-87.82,242.62-95.84a24.26,24.26,0,0,1,17.51-8.94,9.13,9.13,0,0,1,8,2c3.86,3.21,8,6.22,12.11,9.13l4,2.76a5.77,5.77,0,0,0,.55.29,6.26,6.26,0,0,1,1.59,1c176.61,102,208.33,96.1,253.33,75.67,36.73-16.7,12.82-210.6.5-283.91l-.23-1.39,1-1c20.48-21.52,38.27-40.07,53.74-56.2,91.4-95.27,101.22-105.51,103.8-146l-.89-4c-.25-1.06-.5-2.13-.81-3.18-.17-.42-.31-.77-.41-1.11a34.28,34.28,0,0,0-2.84-4.26c-.72-1-1.43-1.94-2.09-2.95-1.79-1.91-4.33-4.44-8-7.85-56.59-53.09-272.68-90.3-274.86-90.67l-1.57-.27-.59-1.48c-68-172.51-116-223.78-144.26-236.41A48.28,48.28,0,0,0,775.83,75.83Z"/></g><g id="Layer_3" data-name="Layer 3"><path d="M495.64,462.23h16.57a2.39,2.39,0,0,1,2,1.16l10.41,17.43a2.39,2.39,0,0,0,4.11,0l10.43-17.44a2.39,2.39,0,0,1,2-1.16h16.46a2.39,2.39,0,0,1,2,3.72l-22.49,33.63a2.32,2.32,0,0,0-.41,1.33v24.23a2.39,2.39,0,0,1-2.39,2.39H519a2.39,2.39,0,0,1-2.39-2.39V500.91a2.38,2.38,0,0,0-.41-1.34L493.65,466A2.39,2.39,0,0,1,495.64,462.23Z"/><path d="M560.69,494.92q0-16,8.9-24.9t24.81-8.9q16.3,0,25.13,8.75t8.82,24.52q0,11.44-3.86,18.77a27.5,27.5,0,0,1-11.13,11.41q-7.29,4.06-18.15,4.07-11.06,0-18.29-3.52A27.49,27.49,0,0,1,565.19,514Q560.69,506.37,560.69,494.92Zm20.17.09q0,9.89,3.68,14.21a12.44,12.44,0,0,0,10,4.32q6.5,0,10.06-4.23t3.57-15.19q0-9.22-3.72-13.47a12.7,12.7,0,0,0-10.09-4.26,12.26,12.26,0,0,0-9.8,4.32Q580.87,485,580.86,495Z"/><path d="M684.1,462.23h15.35a2.39,2.39,0,0,1,2.39,2.39v36.51a33.17,33.17,0,0,1-1.09,8.6,25.58,25.58,0,0,1-8.6,13.33,20.56,20.56,0,0,1-5.86,3.4,40.7,40.7,0,0,1-14.11,2.18,88,88,0,0,1-10.41-.67,27,27,0,0,1-9.42-2.65,23.3,23.3,0,0,1-6.92-5.63,20.54,20.54,0,0,1-4.3-7.52,38.84,38.84,0,0,1-1.87-11V464.62a2.39,2.39,0,0,1,2.39-2.39H657a2.39,2.39,0,0,1,2.39,2.39v37.44q0,5.34,3,8.34t8.22,3c3.48,0,6.2-1,8.18-3s3-4.77,3-8.39V464.62A2.39,2.39,0,0,1,684.1,462.23Z"/><path d="M745.89,464.62a2.39,2.39,0,0,1,2.39-2.39h27.59q8.86,0,14.32,2.4a23.37,23.37,0,0,1,9,6.91A28.7,28.7,0,0,1,804.38,482a48.88,48.88,0,0,1,1.6,12.65q0,10.45-2.38,16.23a26.91,26.91,0,0,1-6.62,9.67,21.67,21.67,0,0,1-9.08,5.19,47.22,47.22,0,0,1-12,1.78H748.28a2.39,2.39,0,0,1-2.39-2.39Zm20.18,14.79V510.3a2.4,2.4,0,0,0,2.39,2.4H771q6.33,0,9-1.41a9.51,9.51,0,0,0,4.19-4.9q1.51-3.5,1.51-11.33,0-10.38-3.38-14.21T771.1,477h-2.64A2.39,2.39,0,0,0,766.07,479.41Z"/><path d="M819.77,462.23h15.44a2.39,2.39,0,0,1,2.39,2.39v60.52a2.39,2.39,0,0,1-2.39,2.39H819.77a2.39,2.39,0,0,1-2.39-2.39V464.62A2.39,2.39,0,0,1,819.77,462.23Z"/><path d="M852.35,464.62a2.39,2.39,0,0,1,2.39-2.39h27.58q8.86,0,14.32,2.4a23.29,23.29,0,0,1,9,6.91A28.55,28.55,0,0,1,910.83,482a48.45,48.45,0,0,1,1.6,12.65q0,10.45-2.38,16.23a26.89,26.89,0,0,1-6.61,9.67,21.64,21.64,0,0,1-9.09,5.19,47.1,47.1,0,0,1-12,1.78H854.74a2.39,2.39,0,0,1-2.39-2.39Zm20.18,14.79V510.3a2.4,2.4,0,0,0,2.39,2.4h2.55q6.33,0,9-1.41a9.5,9.5,0,0,0,4.18-4.9q1.51-3.5,1.52-11.33,0-10.38-3.39-14.21c-2.25-2.56-6-3.83-11.22-3.83h-2.64A2.39,2.39,0,0,0,872.53,479.41Z"/><path d="M956.65,462.23h15.44a2.39,2.39,0,0,1,2.39,2.39v60.52a2.39,2.39,0,0,1-2.39,2.39H956.65a2.39,2.39,0,0,1-2.39-2.39V464.62A2.39,2.39,0,0,1,956.65,462.23Z"/><path d="M986.76,462.23h56.55a2.39,2.39,0,0,1,2.39,2.39V476a2.39,2.39,0,0,1-2.39,2.39h-15.79a2.39,2.39,0,0,0-2.39,2.4v44.39a2.39,2.39,0,0,1-2.4,2.39h-15.39a2.39,2.39,0,0,1-2.39-2.39V480.75a2.39,2.39,0,0,0-2.39-2.4h-15.8a2.39,2.39,0,0,1-2.39-2.39V464.62A2.39,2.39,0,0,1,986.76,462.23Z"/><path d="M1056.07,462.23h14.59a2.39,2.39,0,0,1,2.39,2.39V477a2.71,2.71,0,0,1,0,.29l-3.47,27.65a2.38,2.38,0,0,1-2.37,2.09h-7.75a2.4,2.4,0,0,1-2.38-2.1l-3.37-27.64a1.42,1.42,0,0,1,0-.29V464.62A2.39,2.39,0,0,1,1056.07,462.23Zm.67,49.31H1070a2.39,2.39,0,0,1,2.39,2.39v11.21a2.39,2.39,0,0,1-2.39,2.39h-13.3a2.39,2.39,0,0,1-2.39-2.39V513.93A2.39,2.39,0,0,1,1056.74,511.54Z"/><path class="cls-4" d="M499.64,464.23h16.57a2.39,2.39,0,0,1,2,1.16l10.41,17.43a2.39,2.39,0,0,0,4.11,0l10.43-17.44a2.39,2.39,0,0,1,2-1.16h16.46a2.39,2.39,0,0,1,2,3.72l-22.49,33.63a2.32,2.32,0,0,0-.41,1.33v24.23a2.39,2.39,0,0,1-2.39,2.39H523a2.39,2.39,0,0,1-2.39-2.39V502.91a2.38,2.38,0,0,0-.41-1.34L497.65,468A2.39,2.39,0,0,1,499.64,464.23Z"/><path class="cls-4" d="M564.69,496.92q0-16,8.9-24.9t24.81-8.9q16.3,0,25.13,8.75t8.82,24.52q0,11.44-3.86,18.77a27.5,27.5,0,0,1-11.13,11.41q-7.29,4.06-18.15,4.07-11.06,0-18.29-3.52A27.49,27.49,0,0,1,569.19,516Q564.69,508.37,564.69,496.92Zm20.17.09q0,9.89,3.68,14.21a12.44,12.44,0,0,0,10,4.32q6.5,0,10.06-4.23t3.57-15.19q0-9.22-3.72-13.47a12.7,12.7,0,0,0-10.09-4.26,12.26,12.26,0,0,0-9.8,4.32Q584.87,487,584.86,497Z"/><path class="cls-4" d="M688.1,464.23h15.35a2.39,2.39,0,0,1,2.39,2.39v36.51a33.17,33.17,0,0,1-1.09,8.6,25.58,25.58,0,0,1-8.6,13.33,20.56,20.56,0,0,1-5.86,3.4,40.7,40.7,0,0,1-14.11,2.18,88,88,0,0,1-10.41-.67,27,27,0,0,1-9.42-2.65,23.3,23.3,0,0,1-6.92-5.63,20.54,20.54,0,0,1-4.3-7.52,38.84,38.84,0,0,1-1.87-11V466.62a2.39,2.39,0,0,1,2.39-2.39H661a2.39,2.39,0,0,1,2.39,2.39v37.44q0,5.34,3,8.34t8.22,3c3.48,0,6.2-1,8.18-3s3-4.77,3-8.39V466.62A2.39,2.39,0,0,1,688.1,464.23Z"/><path class="cls-4" d="M749.89,466.62a2.39,2.39,0,0,1,2.39-2.39h27.59q8.86,0,14.32,2.4a23.37,23.37,0,0,1,9,6.91A28.7,28.7,0,0,1,808.38,484a48.88,48.88,0,0,1,1.6,12.65q0,10.45-2.38,16.23a26.91,26.91,0,0,1-6.62,9.67,21.67,21.67,0,0,1-9.08,5.19,47.22,47.22,0,0,1-12,1.78H752.28a2.39,2.39,0,0,1-2.39-2.39Zm20.18,14.79V512.3a2.4,2.4,0,0,0,2.39,2.4H775q6.33,0,9-1.41a9.51,9.51,0,0,0,4.19-4.9q1.51-3.5,1.51-11.33,0-10.38-3.38-14.21T775.1,479h-2.64A2.39,2.39,0,0,0,770.07,481.41Z"/><path class="cls-4" d="M823.77,464.23h15.44a2.39,2.39,0,0,1,2.39,2.39v60.52a2.39,2.39,0,0,1-2.39,2.39H823.77a2.39,2.39,0,0,1-2.39-2.39V466.62A2.39,2.39,0,0,1,823.77,464.23Z"/><path class="cls-4" d="M856.35,466.62a2.39,2.39,0,0,1,2.39-2.39h27.58q8.86,0,14.32,2.4a23.29,23.29,0,0,1,9,6.91A28.55,28.55,0,0,1,914.83,484a48.45,48.45,0,0,1,1.6,12.65q0,10.45-2.38,16.23a26.89,26.89,0,0,1-6.61,9.67,21.64,21.64,0,0,1-9.09,5.19,47.1,47.1,0,0,1-12,1.78H858.74a2.39,2.39,0,0,1-2.39-2.39Zm20.18,14.79V512.3a2.4,2.4,0,0,0,2.39,2.4h2.55q6.33,0,9-1.41a9.5,9.5,0,0,0,4.18-4.9q1.51-3.5,1.52-11.33,0-10.38-3.39-14.21c-2.25-2.56-6-3.83-11.22-3.83h-2.64A2.39,2.39,0,0,0,876.53,481.41Z"/><path class="cls-4" d="M960.65,464.23h15.44a2.39,2.39,0,0,1,2.39,2.39v60.52a2.39,2.39,0,0,1-2.39,2.39H960.65a2.39,2.39,0,0,1-2.39-2.39V466.62A2.39,2.39,0,0,1,960.65,464.23Z"/><path class="cls-4" d="M990.76,464.23h56.55a2.39,2.39,0,0,1,2.39,2.39V478a2.39,2.39,0,0,1-2.39,2.39h-15.79a2.39,2.39,0,0,0-2.39,2.4v44.39a2.39,2.39,0,0,1-2.4,2.39h-15.39a2.39,2.39,0,0,1-2.39-2.39V482.75a2.39,2.39,0,0,0-2.39-2.4h-15.8a2.39,2.39,0,0,1-2.39-2.39V466.62A2.39,2.39,0,0,1,990.76,464.23Z"/><path class="cls-4" d="M1060.07,464.23h14.59a2.39,2.39,0,0,1,2.39,2.39V479a2.71,2.71,0,0,1,0,.29l-3.47,27.65a2.38,2.38,0,0,1-2.37,2.09h-7.75a2.4,2.4,0,0,1-2.38-2.1l-3.37-27.64a1.42,1.42,0,0,1,0-.29V466.62A2.39,2.39,0,0,1,1060.07,464.23Zm.67,49.31H1074a2.39,2.39,0,0,1,2.39,2.39v11.21a2.39,2.39,0,0,1-2.39,2.39h-13.3a2.39,2.39,0,0,1-2.39-2.39V515.93A2.39,2.39,0,0,1,1060.74,513.54Z"/><path class="cls-5" d="M1112,850s-8.78,37.51-9.18,42.7-6,18.36-8,54.28S1112,984.13,1112,984.13s21.15,1.2,21.55-20.75,0-55.08,0-55.08h14l5.18,31.13s11.18,53.48,29.94,57.07,33.52,1.6,30.73-20-21.56-61.06-21.56-61.06L1174.26,866l-3.59-21.55-59.06,2.79Z"/><path d="M1195.61,998.45a70.51,70.51,0,0,1-13.06-1.44c-18.88-3.62-29.88-55.27-30.34-57.47l-5.12-30.72h-13c0,4.3.36,34.35,0,54.57-.12,6.75-2.19,12-6.16,15.72-6.46,6-15.54,5.56-15.93,5.53-.2,0-19.65-1.64-17.64-37.65,1.47-26.5,4.91-40.7,6.75-48.34a46.7,46.7,0,0,0,1.23-5.95c.39-5.09,8.57-40.15,9.17-42.68l-.47-3.26,60.08-2.84,3.67,22,17.54,49.4c.17.35,18.8,39.78,21.57,61.16,1,8.11-.34,14-4.14,17.61C1206.64,997,1202,998.45,1195.61,998.45ZM1133,907.79H1148l5.26,31.56c.11.51,11.31,53.16,29.52,56.65,13.31,2.55,21.66,1.7,26.29-2.66,3.6-3.38,4.86-8.86,3.84-16.73-2.75-21.22-21.32-60.51-21.51-60.9l-17.58-49.54L1170.24,845l-58,2.75.34,2.33,0,.1c-.09.37-8.78,37.53-9.17,42.62a46.37,46.37,0,0,1-1.25,6.12c-1.84,7.6-5.26,21.74-6.73,48.15-1.94,34.93,16.49,36.56,16.68,36.57s9,.43,15.18-5.27c3.75-3.48,5.71-8.52,5.83-15,.39-21.69,0-54.73,0-55.06Z"/><ellipse class="cls-6" cx="1142.66" cy="733.16" rx="153" ry="122.66"/><circle class="cls-4" cx="1225.91" cy="726.38" r="69.19"/><path d="M1225.91,796.14a69.76,69.76,0,1,1,69.76-69.76A69.83,69.83,0,0,1,1225.91,796.14Zm0-138.38a68.63,68.63,0,1,0,68.63,68.62A68.7,68.7,0,0,0,1225.91,657.76Z"/><circle class="cls-7" cx="1222.4" cy="728.65" r="64.34"/><circle cx="1211.5" cy="735.59" r="52.01"/><circle class="cls-4" cx="1186.76" cy="745.48" r="19.1"/><circle class="cls-4" cx="1059.42" cy="728.65" r="69.19"/><path d="M990.79,728.65a68.49,68.49,0,0,1,24.25-52.3c-.12-.39-.23-.79-.35-1.18a69.62,69.62,0,0,0-3.17,104.12l.83-.77A68.42,68.42,0,0,1,990.79,728.65Z"/><path d="M1126.42,709.29l-1.22-.16a65.33,65.33,0,0,1,1.73,7.18,68.58,68.58,0,0,1-114.58,62.21l-.83.77a69.7,69.7,0,0,0,114.9-70Z"/><path d="M1021.81,671.27a68.58,68.58,0,0,1,103.39,37.86l1.22.16a69.69,69.69,0,0,0-111.73-34.12c.12.39.23.79.35,1.18A68.29,68.29,0,0,1,1021.81,671.27Z"/><circle class="cls-7" cx="1062.93" cy="730.91" r="64.34"/><circle cx="1073.83" cy="737.86" r="52.01"/><circle class="cls-4" cx="1095.21" cy="747.75" r="19.1"/><path d="M1281.09,778.6s-20-10.55-57.46-13.84-58.79,30.43-58.79,30.43l55.7,22.59Z"/><path class="cls-5" d="M1281.09,780s-20-10.56-57.46-13.84-58.79,30.43-58.79,30.43l55.7,22.59Z"/><line class="cls-8" x1="1123.57" y1="701.26" x2="1132.49" y2="706.2"/><path d="M1000.53,772.69s21.27-8.09,59.17-6.87,55.23,37.24,55.23,37.24l-58.43,15.77Z"/><path class="cls-5" d="M1000.53,773.71s21.23-8.09,59.06-6.89,55.12,37.24,55.12,37.24l-58.33,15.78Z"/><path class="cls-5" d="M1106.43,873.47s-39.51-40.09-44.09-54.8c-4.68-15-7.74-22.67-1.61-35.49s24.09,3.19,24.09,3.19,14.88,21,17.1,31.59,12.31,39.9,12.31,39.9Z"/><path d="M1106.61,874.63l-.67-.68c-1.61-1.65-39.67-40.37-44.25-55.08l-.84-2.67c-4.26-13.56-6.61-21-.73-33.31a8.64,8.64,0,0,1,6.16-5.18c8-1.6,18.55,7.75,19,8.15l.1.11c.61.87,15,21.24,17.21,31.85,2.2,10.43,12.19,39.53,12.29,39.82l.09.27Zm-38.4-95.74a8.27,8.27,0,0,0-1.66.16,7.37,7.37,0,0,0-5.2,4.43c-5.64,11.79-3.35,19.08.81,32.31l.83,2.67c4.16,13.35,38,48.49,43.26,53.84l7.24-14.49c-1-3-10.14-29.74-12.24-39.71s-16-30-16.94-31.27C1083.53,786.15,1075,778.89,1068.21,778.89Z"/><path class="cls-5" d="M1172.58,853.63s28.78-31.63,33.59-37.89c0,0,11.29-23.64,16.4-33.32s15.85-7.25,15.85-7.25,9.14,2.41,7,16.93a78.31,78.31,0,0,1-9.41,26.33s-13.43,17.74-24.72,22-34.13,19.08-36.82,18.81S1172.58,853.63,1172.58,853.63Z"/><path d="M1174.52,860h-.12a2.39,2.39,0,0,1-1.7-.94c-1.31-1.69-.85-5.1-.79-5.48l0-.2.14-.16c.29-.31,28.64-31.49,33.51-37.79.66-1.39,11.45-24,16.37-33.28,5.29-10,16.5-7.63,16.61-7.6s9.73,2.75,7.51,17.7a79.53,79.53,0,0,1-9.5,26.59c-.59.78-13.72,18-25.06,22.31-5.79,2.21-14.58,7.16-22.33,11.53C1180.69,857.41,1176.09,860,1174.52,860Zm-1.29-6c-.12,1-.21,3.27.55,4.24a1.06,1.06,0,0,0,.75.43h0c1.23,0,8-3.81,13.94-7.16,7.8-4.39,16.63-9.37,22.53-11.61,11-4.18,24.28-21.64,24.42-21.81a78.61,78.61,0,0,0,9.27-26c2-13.74-6.4-16.14-6.49-16.16-.39-.09-10.28-2.17-15.07,6.91-5,9.55-16.27,33.06-16.38,33.3l-.07.12C1202.06,822.21,1175.68,851.24,1173.23,853.93Z"/><path d="M1127.78,782.77a49.39,49.39,0,0,0,2.09,4.78c.85,1.71,1.49,3.48,2.47,5.12,1.56,2.59,2.92,5.63,5.27,7.16s6.17,1,8.85.19c3.49-1.1,5.66-4.5,7.41-7.71s3.2-6.2,4.62-9.39a.57.57,0,0,1,1.09.34,38.71,38.71,0,0,1-4,12.38c-2.88,5.11-7.93,9.33-13.78,9.77a9.47,9.47,0,0,1-5.63-1.15c-2.15-1.3-3.44-3.62-4.63-5.83a62.61,62.61,0,0,1-5.25-11.67c-.52-1.75-.36.07-.52-1.75-.06-.69,1.07-2.46,2.39-1.36"/><path class="cls-7" d="M1112.34,863.17h60.81l-.6-4.38s-.85-.68-.77-4.58c0,0-23.75,2.5-27.13,2.41s-28-1-30.94-2.41l1.17,3.43Z"/><polygon points="1106.27 877.69 1177.87 877.69 1173.78 866.17 1173.15 863.17 1112.34 863.17 1107.2 873.47 1106.27 877.69"/><polygon class="cls-7" points="1097.65 923.83 1195.1 923.81 1191.44 915.61 1177.79 877.69 1106.19 877.69 1104.54 885.51 1103.67 890.41 1103.26 892.77 1098.96 913.24 1097.35 923.83 1097.65 923.83"/><polygon points="1164.41 974.48 1212.68 975.31 1213.21 979.07 1177.46 978.21 1166.17 978.21 1164.41 974.48"/><polygon points="1095.37 960.24 1133.28 961.25 1133.18 965.02 1105.6 964.36 1096.11 964.63 1095.37 960.24"/><path d="M1096.1,964.16l36.92.37s.43,17.88-18.64,19.37C1114.38,983.9,1101,985.53,1096.1,964.16Z"/><path d="M1166,977.73l47.26,1.34s3.94,16.79-15.13,18.28a32.38,32.38,0,0,1-17.14-1.86C1174.65,992.81,1168.5,986.56,1166,977.73Z"/><path class="cls-5" d="M1108.3,964.16s1.75,6.83,6.14,6.3,4.9-6.3,4.9-6.3Z"/><path class="cls-5" d="M1184.49,977.26s3.4,7.5,7.81,7.27,6.67-7.27,6.67-7.27Z"/><polygon points="1097.32 923.62 1195.1 923.81 1195.32 924.3 1097.32 924.3 1097.32 923.62"/><path d="M1076.12,622.69c6.07-3.86,17.55-7.87,23.1-8.66,9.68-1.37,17.48-2.39,27.24,1.25.77,2.41,3.15,1.72,3.46,4.45,4,35.13-32.4,83.17-81.26,107.32-30.74,15.19-59.1,17.29-76.89,8,12.53-10.53,17.65-32.13,28.29-51.28,6-10.82,15.27-21.64,24-28.19,7.59-5.7,12.38-9.7,17.47-14,7.07-5.94,9.63-6.45,21.4-13.15C1064.57,627.53,1074.72,623.9,1076.12,622.69Z"/><path d="M1164.33,612.18c-20.79-5.86-43.58,1.69-57.45,12.32,0,2.73-2.67,2.74-2.06,5.67,7.84,37.6,61.66,76.2,120.2,86.23,36.85,6.31,66.78-.2,82-15.27-16.49-7.07-23.47-30.72-40.94-47.29-9.88-9.37-18.93-18.82-30.16-22.93-9.75-3.57-17.35-7.82-24.05-10.69-9.3-4-12.26-3.56-26.65-6.89C1183.17,612.86,1142.76,607.15,1164.33,612.18Z"/><path d="M1130.39,634.19c7.16-1.43,14.2-6.65,18.12-11.41-.17-.72,7.28-6.46,6.9-7.14-4.78-8.73-31.27-5.82-51.07-.1-12.46,3.59-28.69,6.4-32.78,12.51,5.83-.49,16.3,7.87,23,9.72,3.79,1.05,7.32,2.23,11.24,1.71,3.41-.45,6.16-.43,8.52-.63,3.29-.28,4.23-.81,9.15-2C1124.17,636.7,1137.76,632.43,1130.39,634.19Z"/><ellipse cx="1268.36" cy="628.78" rx="39.16" ry="46.01" transform="translate(530.56 1836.98) rotate(-84.96)"/><ellipse cx="1002.35" cy="643.04" rx="39.16" ry="46.01" transform="translate(273.72 1585) rotate(-84.96)"/><path class="cls-7" d="M1001,684.93s46.18-16,48.72-48.5c1.34-17.28-15.85,26.27-37.48,35.14C995,678.64,991.76,687.44,1001,684.93Z"/><path class="cls-7" d="M1275.53,671.58s-47.7-10.6-53.93-42.64c-3.3-17,18.75,24.3,41.25,30.64C1280.79,664.64,1285,673,1275.53,671.58Z"/></g></svg>