<svg xmlns="http://www.w3.org/2000/svg" xmlns:xlink="http://www.w3.org/1999/xlink" width="1920" height="1080" viewBox="0 0 1920 1080"><defs><style>.cls-1{fill:url(#radial-gradient);}.cls-2{fill:#231f20;}.cls-3{fill:#e36ea6;}.cls-4{fill:#fff;}.cls-5{fill:#72bd59;}.cls-5,.cls-7{stroke:#000;stroke-miterlimit:10;}.cls-6,.cls-7{fill:#f5e0cd;}.cls-8{fill:#7ec479;}.cls-9{fill:none;}</style><radialGradient id="radial-gradient" cx="956.61" cy="540" r="778.85" gradientUnits="userSpaceOnUse"><stop offset="0" stop-color="#85b4e8"/><stop offset="0.36" stop-color="#aae3ff"/><stop offset="1" stop-color="#85b4e8"/></radialGradient></defs><g id="Layer_2" data-name="Layer 2"><rect class="cls-1" x="-3.39" width="1920" height="1080"/><path class="cls-2" d="M519.88,525.67c9.21-29.07,22.89-65.64,8.17-88.66-8.42-13.15-60.77,6.44-60.24-21.71.24-47.54-15.95-76.17-43-91.49a90.21,90.21,0,0,0-12-4.51,28.32,28.32,0,0,0-2.87-.45,7.21,7.21,0,0,1-.93-.15,10.65,10.65,0,0,1-3.4-.54c-1.26-.23-2.51-.48-3.76-.74a23.12,23.12,0,0,1-6-1.23c-1.58-.22-3.15-.49-4.71-.84-1.2-.26-2.39-.54-3.58-.83l-.85-.19-.42-.1-.18,0-1.68-.36-.43-.11a6.33,6.33,0,0,1-.87,0l-2.72,11.09-7.76-1.23-15.89-3.37c-94.63-24.69-186.18,9.44-222.22,75.31-31.91,58.33-10.9,124.39-8.24,132.36,4.87,14.59,20.26,54.11,76.33,97.28C343.48,733.69,514.72,730.72,556,727.91a552.53,552.53,0,0,0,75.55-10.39c6.2-8.35,14.43-19.94,23.51-34.33,0-18.66-1.12-37.19-5-55.43-76.3,25.64-40-62.49-63.12-98.66C580.65,519.23,542.63,525,519.88,525.67Z"/><path class="cls-2" d="M814.24,199.2c-4.53-7.06-42.78-64.88-108.22-76.64-73.9-13.28-157.93,36.58-198.09,125.75l-4.56,8.62c47.72,19.05,73,55.63,56.09,121.7-7.37,27.17,48.18,20.91,53.14,35.72,8.68,25.92-13.49,58-29.5,84,22.23,4.9,60.51,8.55,64.23,19.66,13.64,40.72-43,117.35,37.2,111.06-.66,18.64-4.07,36.89-8.63,55,7.64-7.28,15.84-15.52,24.35-24.73,28.11-30.4,137.88-161.86,141.83-339.63C843.65,248.94,822.55,212.16,814.24,199.2Z"/><path d="M630.46,715.76A551.44,551.44,0,0,1,555.9,726c-33.65,2.28-208.76,8.07-352.11-102.31-38.31-29.5-64.48-62.82-75.68-96.36-4-12-22.51-74.85,8.1-130.8,11.57-21.15,28.74-38.73,49.7-52.14,45.27-29,108.18-38.44,170.4-22.2l16,3.39,9.52,1.51L385,314l-.65-.14-.43-.11a6.35,6.35,0,0,1-2.42-.2,2.4,2.4,0,0,1-.37-.14l-2.27,9.26-5.88-.93-15.81-3.35c-92.64-24.17-187,7.9-224.42,76.26C101.4,452,120.3,516.24,124.41,528.53c11.44,34.29,38.07,68.25,77,98.22C345.87,738,522.27,732.16,556.16,729.86A553.67,553.67,0,0,0,632,719.43l.73-.15.44-.6c7.65-10.3,15-20.95,21.94-31.85,0-2.48,0-5,0-7.45C647.33,691.85,639.13,704,630.46,715.76Z"/><path class="cls-3" d="M519.88,525.67c9.21-29.07,22.89-65.64,8.17-88.66-8.42-13.15-60.77,6.44-60.24-21.71.24-47.45-15.88-76.07-42.85-91.41A89.32,89.32,0,0,0,413,319.34c-.38-.07-.75-.11-1.12-.17l-.63,2.56-7.75-1.23-15.9-3.37c-94.62-24.69-186.18,9.44-222.21,75.31-31.91,58.33-10.9,124.39-8.24,132.36,4.87,14.6,20.26,54.11,76.33,97.28C374.39,730.57,545.63,727.6,586.94,724.79a550.32,550.32,0,0,0,67.24-8.73c1.42-29.73,2.07-59.38-4.1-88.3-76.3,25.64-40-62.49-63.12-98.66C580.65,519.23,542.63,525,519.88,525.67Z"/><path class="cls-3" d="M820.23,193.59c-4.86-6.85-45.79-62.79-111.71-71.45-74.45-9.78-156,44-191.94,135L508,275.32c31.27,19.78,46.3,53.08,35.27,106.47-6.08,27.49,49.11,18.62,54.76,33.18,9.9,25.47-10.74,58.62-25.5,85.29,22.43,3.85,60.84,5.69,65.08,16.61,15.55,40-37.45,119.25,42.4,109.18.35,29.57-6.14,58.51-13.41,87.37,3,0,5.91,0,8.48,0a553.47,553.47,0,0,0,53-54.86c26.64-31.69,130.09-168.18,125.65-345.94C852,241.88,829.14,206.14,820.23,193.59Z"/><path d="M410,318.86l-.16.66-5.88-.93-15.81-3.35c-92.64-24.17-187,7.91-224.43,76.26-31.38,57.37-12.48,121.62-8.37,133.92,11.44,34.28,38.07,68.24,77,98.21C376.79,734.88,553.18,729,587.07,726.74a554.56,554.56,0,0,0,67-8.75c.07-1.34.13-2.67.2-4a552.27,552.27,0,0,1-67.48,8.87c-33.64,2.28-208.74,8.08-352.11-102.31-38.3-29.5-64.47-62.82-75.67-96.36-4-12-22.51-74.85,8.1-130.8,11.57-21.15,28.74-38.73,49.7-52.14,45.26-29,108.19-38.43,170.4-22.2l16,3.39,9.52,1.51,1.08-4.4-.52-.15A30.54,30.54,0,0,0,410,318.86Z"/><path d="M826.72,194.94c-7.32-10.69-47.12-64.55-111.8-74.17-77.08-11.47-159.64,44.41-196.25,132.74l-8.78,17.89c1.12.71,2.22,1.42,3.29,2.16l9.05-18.44c36-86.81,116.77-141.7,192.11-130.49,63.08,9.38,102,62.06,109.16,72.52,20,29.17,30.74,70.15,31.12,118.5,1.44,180.94-108.9,317-131,342.46a551,551,0,0,1-53.15,53.27c-2.4,0-4.81-.14-7.22-.2-.34,1.29-.69,2.58-1,3.87,3,.08,6,.22,9,.25h.74l.56-.48a555.28,555.28,0,0,0,54.1-54.15c22.29-25.62,133.45-162.7,132-345C858.14,266.49,847.14,224.76,826.72,194.94Z"/><path d="M994,357.5q0-16.54,9.21-25.75t25.65-9.21q16.85,0,26,9t9.12,25.35q0,11.83-4,19.41a28.45,28.45,0,0,1-11.52,11.79q-7.53,4.22-18.76,4.22-11.43,0-18.91-3.64a28.46,28.46,0,0,1-12.13-11.51Q994,369.34,994,357.5Zm20.86.09q0,10.21,3.8,14.69a12.86,12.86,0,0,0,10.34,4.47q6.72,0,10.4-4.38t3.69-15.7q0-9.54-3.85-13.93a13.12,13.12,0,0,0-10.43-4.4,12.7,12.7,0,0,0-10.13,4.46Q1014.84,347.27,1014.84,357.59Z"/><path d="M1079.5,323.69h12.38a4.24,4.24,0,0,1,4.24,4.24v15.15a4.24,4.24,0,0,0,4.24,4.24h14.32a4.24,4.24,0,0,0,4.24-4.24V327.93a4.24,4.24,0,0,1,4.24-4.24h12.47a4.24,4.24,0,0,1,4.24,4.24v59a4.24,4.24,0,0,1-4.24,4.25h-12.47a4.24,4.24,0,0,1-4.24-4.25V368.14a4.24,4.24,0,0,0-4.24-4.24h-14.32a4.24,4.24,0,0,0-4.24,4.24V387a4.24,4.24,0,0,1-4.24,4.25H1079.5a4.24,4.24,0,0,1-4.24-4.25v-59A4.24,4.24,0,0,1,1079.5,323.69Z"/><path d="M1189.57,323.69h13a4.25,4.25,0,0,1,3.51,1.86l17.55,25.79a3.62,3.62,0,0,0,6.61-2V327.93a4.24,4.24,0,0,1,4.24-4.24h11.18a4.24,4.24,0,0,1,4.24,4.24v59a4.24,4.24,0,0,1-4.24,4.25h-13.18a4.24,4.24,0,0,1-3.5-1.86l-16.28-23.86a4.24,4.24,0,0,0-7.74,2.39V387a4.25,4.25,0,0,1-4.25,4.25h-11.13a4.24,4.24,0,0,1-4.24-4.25v-59A4.24,4.24,0,0,1,1189.57,323.69Z"/><path d="M1261.13,357.5q0-16.54,9.21-25.75t25.65-9.21q16.86,0,26,9t9.11,25.35q0,11.83-4,19.41a28.36,28.36,0,0,1-11.51,11.79q-7.53,4.22-18.77,4.22-11.41,0-18.9-3.64a28.48,28.48,0,0,1-12.14-11.51Q1261.13,369.34,1261.13,357.5Zm20.86.09q0,10.21,3.8,14.69a12.86,12.86,0,0,0,10.34,4.47q6.72,0,10.41-4.38t3.68-15.7q0-9.54-3.84-13.93a13.13,13.13,0,0,0-10.43-4.4,12.71,12.71,0,0,0-10.14,4.46Q1282,347.27,1282,357.59Z"/><path d="M1342.93,372.42h11.55a4.24,4.24,0,0,1,4.24,4.24V387a4.24,4.24,0,0,1-4.24,4.25h-11.55a4.25,4.25,0,0,1-4.25-4.25v-10.3A4.24,4.24,0,0,1,1342.93,372.42Z"/><path d="M1374.33,372.42h11.55a4.24,4.24,0,0,1,4.25,4.24V387a4.25,4.25,0,0,1-4.25,4.25h-11.55a4.24,4.24,0,0,1-4.24-4.25v-10.3A4.24,4.24,0,0,1,1374.33,372.42Z"/><path d="M1405.74,372.42h11.55a4.24,4.24,0,0,1,4.24,4.24V387a4.24,4.24,0,0,1-4.24,4.25h-11.55a4.24,4.24,0,0,1-4.24-4.25v-10.3A4.24,4.24,0,0,1,1405.74,372.42Z"/><path class="cls-4" d="M998,359.5q0-16.54,9.21-25.75t25.65-9.21q16.85,0,26,9t9.12,25.35q0,11.83-4,19.41a28.45,28.45,0,0,1-11.52,11.79q-7.53,4.22-18.76,4.22-11.43,0-18.91-3.64a28.46,28.46,0,0,1-12.13-11.51Q998,371.34,998,359.5Zm20.86.09q0,10.21,3.8,14.69a12.86,12.86,0,0,0,10.34,4.47q6.72,0,10.4-4.38t3.69-15.7q0-9.54-3.85-13.93a13.12,13.12,0,0,0-10.43-4.4,12.7,12.7,0,0,0-10.13,4.46Q1018.84,349.27,1018.84,359.59Z"/><path class="cls-4" d="M1083.5,325.69h12.38a4.24,4.24,0,0,1,4.24,4.24v15.15a4.24,4.24,0,0,0,4.24,4.24h14.32a4.24,4.24,0,0,0,4.24-4.24V329.93a4.24,4.24,0,0,1,4.24-4.24h12.47a4.24,4.24,0,0,1,4.24,4.24v59a4.24,4.24,0,0,1-4.24,4.25h-12.47a4.24,4.24,0,0,1-4.24-4.25V370.14a4.24,4.24,0,0,0-4.24-4.24h-14.32a4.24,4.24,0,0,0-4.24,4.24V389a4.24,4.24,0,0,1-4.24,4.25H1083.5a4.24,4.24,0,0,1-4.24-4.25v-59A4.24,4.24,0,0,1,1083.5,325.69Z"/><path class="cls-4" d="M1193.57,325.69h13a4.25,4.25,0,0,1,3.51,1.86l17.55,25.79a3.62,3.62,0,0,0,6.61-2V329.93a4.24,4.24,0,0,1,4.24-4.24h11.18a4.24,4.24,0,0,1,4.24,4.24v59a4.24,4.24,0,0,1-4.24,4.25h-13.18a4.24,4.24,0,0,1-3.5-1.86l-16.28-23.86a4.24,4.24,0,0,0-7.74,2.39V389a4.25,4.25,0,0,1-4.25,4.25h-11.13a4.24,4.24,0,0,1-4.24-4.25v-59A4.24,4.24,0,0,1,1193.57,325.69Z"/><path class="cls-4" d="M1265.13,359.5q0-16.54,9.21-25.75t25.65-9.21q16.86,0,26,9t9.11,25.35q0,11.83-4,19.41a28.36,28.36,0,0,1-11.51,11.79q-7.53,4.22-18.77,4.22-11.41,0-18.9-3.64a28.48,28.48,0,0,1-12.14-11.51Q1265.13,371.34,1265.13,359.5Zm20.86.09q0,10.21,3.8,14.69a12.86,12.86,0,0,0,10.34,4.47q6.72,0,10.41-4.38t3.68-15.7q0-9.54-3.84-13.93a13.13,13.13,0,0,0-10.43-4.4,12.71,12.71,0,0,0-10.14,4.46Q1286,349.27,1286,359.59Z"/><path class="cls-4" d="M1346.93,374.42h11.55a4.24,4.24,0,0,1,4.24,4.24V389a4.24,4.24,0,0,1-4.24,4.25h-11.55a4.25,4.25,0,0,1-4.25-4.25v-10.3A4.24,4.24,0,0,1,1346.93,374.42Z"/><path class="cls-4" d="M1378.33,374.42h11.55a4.24,4.24,0,0,1,4.25,4.24V389a4.25,4.25,0,0,1-4.25,4.25h-11.55a4.24,4.24,0,0,1-4.24-4.25v-10.3A4.24,4.24,0,0,1,1378.33,374.42Z"/><path class="cls-4" d="M1409.74,374.42h11.55a4.24,4.24,0,0,1,4.24,4.24V389a4.24,4.24,0,0,1-4.24,4.25h-11.55a4.24,4.24,0,0,1-4.24-4.25v-10.3A4.24,4.24,0,0,1,1409.74,374.42Z"/></g><g id="Layer_3" data-name="Layer 3"><path class="cls-5" d="M849.24,916.67H818L796.22,908l-21.53,8.65L758.39,908l-19.85,8.65a4.26,4.26,0,0,1-4.25-4.24V775.5a4.26,4.26,0,0,1,4.25-4.25h110.7a4.26,4.26,0,0,1,4.25,4.25V912.43A4.26,4.26,0,0,1,849.24,916.67Z"/><path class="cls-5" d="M922.64,911.43h31.2l21.82-8.65,21.53,8.65,16.3-8.65,19.85,8.65a4.26,4.26,0,0,0,4.25-4.24V770.26a4.26,4.26,0,0,0-4.25-4.25H922.64a4.26,4.26,0,0,0-4.25,4.25V907.19A4.26,4.26,0,0,0,922.64,911.43Z"/><path class="cls-6" d="M849.33,837.77S839.41,880.14,839,886s-6.76,20.74-9,61.31,19.38,41.93,19.38,41.93,23.89,1.35,24.34-23.45,0-62.21,0-62.21h15.78l5.86,35.17s12.62,60.4,33.81,64.46,37.87,1.8,34.71-22.54-24.34-69-24.34-69l-19.84-55.9-4-24.35-66.72,3.16Z"/><path d="M943.77,1005.41a80.07,80.07,0,0,1-14.76-1.63c-21.32-4.08-33.75-62.43-34.26-64.91L889,904.16h-14.7c0,4.87.41,38.81,0,61.64-.14,7.63-2.48,13.61-7,17.76-7.3,6.78-17.56,6.28-18,6.25-.23,0-22.19-1.86-19.93-42.53,1.66-29.93,5.55-46,7.63-54.6a49.17,49.17,0,0,0,1.38-6.72c.44-5.75,9.69-45.36,10.36-48.22l-.52-3.68,67.86-3.21,4.15,24.85L940,911.5c.19.4,21.24,44.94,24.37,69.1,1.18,9.15-.39,15.84-4.69,19.89C956.22,1003.78,951,1005.41,943.77,1005.41ZM873.09,903h16.85l5.94,35.65c.12.58,12.78,60.05,33.35,64,15,2.88,24.47,1.93,29.7-3,4.06-3.83,5.48-10,4.33-18.9-3.11-24-24.08-68.35-24.29-68.79l-19.86-56-4-23.93-65.57,3.1.38,2.63,0,.11c-.1.42-9.91,42.4-10.35,48.15a50.79,50.79,0,0,1-1.41,6.91c-2.08,8.58-6,24.55-7.61,54.38-2.19,39.46,18.64,41.3,18.85,41.32s10.22.48,17.15-6c4.23-3.93,6.44-9.62,6.57-16.92.45-24.5,0-61.81,0-62.19Z"/><ellipse class="cls-7" cx="883.96" cy="705.75" rx="172.83" ry="138.55"/><circle class="cls-4" cx="977.99" cy="698.09" r="78.16"/><path d="M978,776.89a78.8,78.8,0,1,1,78.8-78.8A78.89,78.89,0,0,1,978,776.89Zm0-156.32a77.52,77.52,0,1,0,77.52,77.52A77.61,77.61,0,0,0,978,620.57Z"/><circle class="cls-8" cx="974.03" cy="700.65" r="72.68"/><circle cx="961.72" cy="708.49" r="58.75"/><circle class="cls-4" cx="924.54" cy="711.05" r="21.57"/><circle class="cls-4" cx="789.93" cy="700.65" r="78.16"/><path d="M712.41,700.65a77.38,77.38,0,0,1,27.38-59.08l-.39-1.33a78.64,78.64,0,0,0-3.58,117.61c.32-.28.63-.58.93-.87A77.32,77.32,0,0,1,712.41,700.65Z"/><path d="M865.61,678.77l-1.38-.17a75.46,75.46,0,0,1,2,8.11,77.54,77.54,0,0,1-76.26,91.46A77.26,77.26,0,0,1,736.75,757c-.3.29-.61.59-.93.87a78.75,78.75,0,0,0,129.79-79.08Z"/><path d="M747.45,635.83A77.47,77.47,0,0,1,864.23,678.6l1.38.17A78.72,78.72,0,0,0,739.4,640.24l.39,1.33A79.61,79.61,0,0,1,747.45,635.83Z"/><circle class="cls-8" cx="793.89" cy="703.21" r="72.68"/><circle cx="806.2" cy="711.05" r="58.75"/><circle class="cls-4" cx="769.02" cy="711.05" r="21.57"/><polygon class="cls-7" points="743.7 641.3 868.14 678.33 879.07 659.26 868.14 678.33 743.7 641.3"/><path class="cls-6" d="M867.71,677.49l12.51-21.89s-27-38.09-74.44-34.38-70.64,17.1-70.64,17.1"/><path class="cls-6" d="M900.61,677.49,888.1,655.6s27-38.09,74.45-34.38,68.6,16.88,68.6,16.88"/><polygon class="cls-7" points="1024.29 641.3 899.85 678.33 888.92 659.26 899.85 678.33 1024.29 641.3"/><line class="cls-9" x1="862.39" y1="669.71" x2="872.47" y2="675.3"/><path d="M922.18,804.21c0-15.31-11.57-37-40.78-37s-43.14,22.17-43.14,37.48,13.93,3.08,43.14,3.08S922.18,819.52,922.18,804.21Z"/><path class="cls-4" d="M920.29,803.4c0-14.45-11-34.88-38.94-34.88s-41.2,20.91-41.2,35.36,13.31,2.91,41.2,2.91S920.29,817.84,920.29,803.4Z"/><path class="cls-8" d="M846.47,852.78h72.24l-.68-4.95s-.1-1,0-5.35c0,0-27.78,2.48-31.6,2.38s-34.17-1.2-37.49-2.8l-1.24,5.36Z"/><polygon points="842.81 869.18 924.04 869.18 919.42 856.17 918.71 852.78 846.47 852.78 843.86 864.41 842.81 869.18"/><polygon class="cls-8" points="833.85 921.3 943.3 921.52 939.28 912.13 924.04 869.18 842.81 869.18 840.81 878.71 840.07 882.57 839.54 886.05 834.64 909.37 832.85 921.3 833.85 921.3"/><polygon points="908.84 978.51 963.36 979.45 963.96 983.69 923.57 982.72 910.82 982.72 908.84 978.51"/><polygon points="830.85 962.43 873.68 963.57 873.55 967.83 842.4 967.08 831.68 967.39 830.85 962.43"/><path d="M831.68,966.86l41.7.41s.49,20.2-21.06,21.89C852.32,989.16,837.17,991,831.68,966.86Z"/><path d="M910.57,982.19l53.39,1.5s4.45,19-17.1,20.66a36.49,36.49,0,0,1-19.35-2.1C920.41,999.22,913.46,992.16,910.57,982.19Z"/><path class="cls-6" d="M845.46,966.86s2,7.71,6.93,7.12,5.54-7.12,5.54-7.12Z"/><path class="cls-6" d="M931.52,981.65s3.84,8.48,8.82,8.22,7.54-8.22,7.54-8.22Z"/><polygon points="832.85 921.3 943.3 921.52 943.54 922.07 832.85 922.07 832.85 921.3"/><path class="cls-6" d="M919,841.7s35.57,29.11,40.42,40.54c5,11.66,8,17.55,3.87,28.25s-20.16-.76-20.16-.76-13.81-15.68-16.42-24-7.42-30.31-7.42-30.31Z"/><path d="M918.72,840.78l.6.5c1.46,1.19,35.73,29.33,40.57,40.75l.89,2.07c4.49,10.53,7,16.33,3,26.58a7.12,7.12,0,0,1-4.74,4.6c-6.46,1.87-15.9-4.82-16.3-5.1l-.09-.09c-.57-.64-13.92-15.87-16.53-24.18s-7.43-26.06-7.54-26.29l-.19-2.11Zm38.65,73.7a7.59,7.59,0,0,0,1.36-.25,6,6,0,0,0,4-3.93c3.82-9.85,1.4-15.51-3-25.78l-.89-2.07c-4.39-10.36-35-35.94-39.65-39.83l.47,17.5c1.06,2.32,5.1,17.65,7.55,25.46s15.41,22.78,16.26,23.75C944.17,909.81,951.74,915,957.37,914.48Z"/><path class="cls-6" d="M848,842.37s-46,.76-56.85,6.72c-11.11,6.08-17.18,8.78-20.56,19.75s16.28,11.92,16.28,11.92,20.56-3.74,27.76-8.63S844,855.74,844,855.74Z"/><path d="M844.27,857.21h0c-.22.11-22.29,10.56-29.37,15.38s-27.12,8.56-28,8.72h-.13c-.49,0-12-.64-15.95-6.11a7.13,7.13,0,0,1-.86-6.54c3.24-10.51,8.78-13.52,18.84-19l2-1.07c10.88-6,55.22-6.76,57.1-6.79l.78,0Zm-57.51,23c1.27-.24,20.67-3.9,27.49-8.54S841.74,856.9,844,855.74l3.18-12.8c-6.1.14-45.94,1.24-55.82,6.64l-2,1.08c-9.81,5.33-15.22,8.27-18.33,18.36a6,6,0,0,0,.69,5.55,6.85,6.85,0,0,0,.91,1C776.77,879.5,785.92,880.14,786.76,880.2Z"/><path class="cls-5" d="M717.61,671l50.29-30.72,10.23,5.53,20.18-10.22,35.26,25.3,34.51-18.07L905.38,655l25.49-10.45,9.61,13,24.17-11.78,25.5,14,24.17-12.57,32.39,10.46s-38.44-97.77-165-90.85C745.21,574.31,725.75,654.84,717.61,671Z"/></g></svg>