<svg id="Layer_2" data-name="Layer 2" xmlns="http://www.w3.org/2000/svg" width="280" height="175" viewBox="0 0 280 175"><defs><style>.cls-1{fill:#231f20;}.cls-2{fill:#f5db12;}.cls-3{fill:#e36ea6;stroke:#000;stroke-miterlimit:10;}</style></defs><path class="cls-1" d="M272.07,72.23l-.18-.88c-.05-.22-.11-.44-.17-.66a1.34,1.34,0,0,1-.08-.26l0-.06c-.27-.53-.66-1-1-1.48s-1-1.08-1.6-1.66c-11-10.79-52.59-18.16-52.59-18.16-13-34.33-22.21-44.68-27.73-47.26a9.14,9.14,0,0,0-3.15-.45l-.42,0a6.74,6.74,0,0,0-1.77.38c-.13.05-.24.12-.37.16l-.17.09a2.26,2.26,0,0,0-.3.28C171.3,8.27,153.75,52,153.75,52S105.62,53.72,102,69.76s36,43.07,36,43.07-9.84,54.61.4,59.76c12.49,6.29,44.53-17.44,46.79-19.13a3.83,3.83,0,0,1,1.38-1.18,3.66,3.66,0,0,1,1.65-.44,1.12,1.12,0,0,1,1.09.26c1,.84,2,1.58,3,2.36l.26.14a.6.6,0,0,1,.2.14c33.4,20.14,39.87,19.3,48.75,15.08s.41-57,.41-57C269.2,82.91,271.49,81.93,272.07,72.23Z"/><path class="cls-2" d="M278.87,72.24l-.18-.89c-.05-.22-.11-.44-.17-.65a1.73,1.73,0,0,1-.08-.27l0-.06c-.27-.53-.66-1-1-1.48s-1-1.07-1.6-1.66c-11-10.79-52.59-18.16-52.59-18.16C210.28,14.74,201,4.39,195.52,1.81a9.14,9.14,0,0,0-3.15-.45l-.42,0a7.17,7.17,0,0,0-1.77.38c-.13.05-.24.12-.37.16l-.17.09a2.26,2.26,0,0,0-.3.28C178.1,8.27,160.55,52,160.55,52s-48.13,1.69-51.78,17.73,36,43.07,36,43.07-9.84,54.61.4,59.76c12.49,6.29,44.53-17.44,46.79-19.13a3.83,3.83,0,0,1,1.38-1.18,3.66,3.66,0,0,1,1.65-.44,1.12,1.12,0,0,1,1.09.26c1,.84,2,1.58,3,2.36l.26.14a.6.6,0,0,1,.2.14c33.4,20.14,39.87,19.3,48.75,15.08s.41-57,.41-57C276,82.91,278.29,81.93,278.87,72.24Z"/><path d="M150.27,174.21A11.75,11.75,0,0,1,145,173.1c-10.15-5.11-1.69-54.79-.77-60-4-2.73-39.49-27.78-35.93-43.46s47.23-18,51.94-18.15C162,47.13,178.13,7.78,189,1.83a2.31,2.31,0,0,1,.3-.26l.27-.16.23-.1.16-.07a8,8,0,0,1,1.94-.42l.43,0a10,10,0,0,1,3.34.48c5.6,2.61,14.94,12.92,28,47.3,4.08.74,41.93,7.83,52.57,18.25.71.7,1.22,1.22,1.63,1.69l.41.6a7.08,7.08,0,0,1,.63,1l.16.42c.07.24.12.47.17.7l.21,1v.08c-.51,8.52-2.36,10.53-20.06,29.78-2.89,3.16-6.22,6.77-10,11,.72,4.6,8.16,53.09-.76,57.33-9.63,4.56-16.77,4.47-49.25-15.11l-.1-.08L199,155l-.17-.1-.69-.51c-.79-.59-1.6-1.2-2.37-1.87a.64.64,0,0,0-.59-.15l-.16,0h0a3.28,3.28,0,0,0-1.4.38,3.35,3.35,0,0,0-1.18,1l-.12.13C189.2,156.23,164.73,174.21,150.27,174.21ZM192.68,1.91h-.29l-.41,0a6.86,6.86,0,0,0-1.63.35l-.09,0a2.18,2.18,0,0,1-.27.11l-.07,0-.18.17-.16.13c-10.93,5.82-28.35,49-28.53,49.46l-.13.33h-.35c-.48,0-47.77,1.86-51.27,17.3s35.38,42.2,35.77,42.46l.3.21-.06.37c0,.14-2.47,13.8-3.63,27.9-1.92,23.31,1,29.86,3.74,31.26,12.13,6.09,44-17.45,46.17-19a4.42,4.42,0,0,1,1.52-1.27,4.09,4.09,0,0,1,1.81-.5,1.67,1.67,0,0,1,1.51.39c.74.64,1.54,1.23,2.31,1.81l.75.55.11.06a1.08,1.08,0,0,1,.3.19c33.61,20.26,39.65,19.09,48.21,15,7-3.32,2.44-41.83.1-56.39l-.05-.28.19-.2c3.89-4.28,7.28-8,10.23-11.17,17.39-18.92,19.26-21,19.75-29l-.17-.8-.15-.63a1.19,1.19,0,0,1-.08-.22,7.74,7.74,0,0,0-.54-.85c-.14-.19-.28-.38-.4-.58-.34-.38-.83-.88-1.52-1.56-10.77-10.55-51.89-17.94-52.31-18l-.3-.05-.11-.3C209.81,15,200.68,4.83,195.3,2.32A9.07,9.07,0,0,0,192.68,1.91Z"/><path d="M27.77,68.07h5.42a2.6,2.6,0,0,1,2.6,2.6v6.82a2.59,2.59,0,0,0,2.6,2.6h6.4a2.59,2.59,0,0,0,2.6-2.6V70.67a2.6,2.6,0,0,1,2.6-2.6h5.46a2.6,2.6,0,0,1,2.61,2.6V99.82a2.61,2.61,0,0,1-2.61,2.61H50a2.61,2.61,0,0,1-2.6-2.61V91.13a2.59,2.59,0,0,0-2.6-2.6h-6.4a2.59,2.59,0,0,0-2.6,2.6v8.69a2.61,2.61,0,0,1-2.6,2.61H27.77a2.61,2.61,0,0,1-2.6-2.61V70.67A2.6,2.6,0,0,1,27.77,68.07Z"/><path d="M68.13,68.07h5.44a2.59,2.59,0,0,1,2.6,2.6V99.82a2.6,2.6,0,0,1-2.6,2.61H68.13a2.61,2.61,0,0,1-2.6-2.61V70.67A2.6,2.6,0,0,1,68.13,68.07Z"/><path d="M83.93,70.67a2.59,2.59,0,0,1,2.6-2.6H99.7a19,19,0,0,1,7.54,1.26A12.39,12.39,0,0,1,112,73a15.06,15.06,0,0,1,2.72,5.51,25.32,25.32,0,0,1,.85,6.66,23,23,0,0,1-1.26,8.54,14,14,0,0,1-3.48,5.09,11.39,11.39,0,0,1-4.78,2.73,24.89,24.89,0,0,1-6.33.94H86.53a2.6,2.6,0,0,1-2.6-2.61Zm10.62,7.78V92a2.59,2.59,0,0,0,2.6,2.6h0a10.92,10.92,0,0,0,4.73-.74,5,5,0,0,0,2.21-2.58,16.19,16.19,0,0,0,.79-6q0-5.46-1.78-7.48c-1.19-1.34-3.15-2-5.9-2h0A2.59,2.59,0,0,0,94.55,78.45Z"/><path d="M123.7,68.07H147a2.6,2.6,0,0,1,2.61,2.6V72.8A2.6,2.6,0,0,1,147,75.4H134.34a2.61,2.61,0,0,0-2.6,2.6v.26a2.6,2.6,0,0,0,2.6,2.6h11.32a2.61,2.61,0,0,1,2.61,2.6v1.81a2.6,2.6,0,0,1-2.61,2.6H134.34a2.61,2.61,0,0,0-2.6,2.6V92a2.6,2.6,0,0,0,2.6,2.6h13.13a2.6,2.6,0,0,1,2.6,2.61v2.57a2.6,2.6,0,0,1-2.6,2.61H123.7a2.61,2.61,0,0,1-2.6-2.61V70.67A2.6,2.6,0,0,1,123.7,68.07Z"/><path d="M22.07,139.64H13.89a2.59,2.59,0,0,0-2.49,1.87l-.58,1.94a2.6,2.6,0,0,1-2.49,1.86H3.19A2.6,2.6,0,0,1,.75,141.8l11-29.16A2.61,2.61,0,0,1,14.15,111h8a2.61,2.61,0,0,1,2.44,1.69l11,29.16a2.6,2.6,0,0,1-2.44,3.51H27.65a2.6,2.6,0,0,1-2.49-1.84l-.6-2A2.6,2.6,0,0,0,22.07,139.64Zm-1.31-10.79L20.5,128a2.6,2.6,0,0,0-5,0l-.26.84a2.6,2.6,0,0,0,2.49,3.36h.52A2.59,2.59,0,0,0,20.76,128.85Z"/><path d="M42.88,111h5.94A2.6,2.6,0,0,1,51,112.09L58.38,123a2.6,2.6,0,0,0,4.75-1.46v-8A2.61,2.61,0,0,1,65.74,111h4.8a2.6,2.6,0,0,1,2.6,2.61v29.15a2.59,2.59,0,0,1-2.6,2.6h-6a2.59,2.59,0,0,1-2.15-1.13L55,133.41a2.6,2.6,0,0,0-4.75,1.47v7.83a2.6,2.6,0,0,1-2.61,2.6H42.88a2.6,2.6,0,0,1-2.6-2.6V113.56A2.61,2.61,0,0,1,42.88,111Z"/><path d="M80.34,113.56a2.6,2.6,0,0,1,2.6-2.61H96.11a19,19,0,0,1,7.54,1.27,12.2,12.2,0,0,1,4.74,3.63,15.06,15.06,0,0,1,2.72,5.51A25.64,25.64,0,0,1,112,128a23,23,0,0,1-1.25,8.54,14.32,14.32,0,0,1-3.48,5.09,11.49,11.49,0,0,1-4.78,2.73,24.84,24.84,0,0,1-6.33.93H82.94a2.59,2.59,0,0,1-2.6-2.6ZM91,121.34v13.57a2.61,2.61,0,0,0,2.61,2.6h0a11,11,0,0,0,4.73-.74,5,5,0,0,0,2.2-2.58,16.15,16.15,0,0,0,.8-6c0-3.64-.59-6.14-1.78-7.48s-3.16-2-5.91-2h0A2.6,2.6,0,0,0,91,121.34Z"/><path d="M137.25,133.71l5-.31a2.62,2.62,0,0,1,2.64,1.83,5.71,5.71,0,0,0,.9,1.78,5.63,5.63,0,0,0,4.69,2.08A5.17,5.17,0,0,0,154,138a3,3,0,0,0,.06-4.86c-.78-.71-2.59-1.37-5.43-2q-7-1.56-10-4.17a8.37,8.37,0,0,1-3-6.63,9,9,0,0,1,1.53-5,10.15,10.15,0,0,1,4.62-3.7,21.51,21.51,0,0,1,8.45-1.35q6.59,0,10,2.45a9.33,9.33,0,0,1,3.37,4.57,2.59,2.59,0,0,1-2.32,3.41l-4.92.28a2.61,2.61,0,0,1-2.53-1.63,4.14,4.14,0,0,0-1.17-1.62,5.35,5.35,0,0,0-3.53-1.06,4.24,4.24,0,0,0-2.79.79,2.41,2.41,0,0,0-.93,1.91,1.88,1.88,0,0,0,.77,1.47,8.59,8.59,0,0,0,3.56,1.27,44.65,44.65,0,0,1,10,3,10.62,10.62,0,0,1,4.39,3.81,9.71,9.71,0,0,1,1.37,5.09,10.88,10.88,0,0,1-1.83,6.09,11.42,11.42,0,0,1-5.11,4.23,20.65,20.65,0,0,1-8.27,1.44q-8.78,0-12.14-3.37a12.65,12.65,0,0,1-3.22-5.36A2.62,2.62,0,0,1,137.25,133.71Z"/><path d="M173.42,110.9h23.25a2.59,2.59,0,0,1,2.6,2.6v2.13a2.6,2.6,0,0,1-2.6,2.61H184.06a2.59,2.59,0,0,0-2.6,2.6v.25a2.6,2.6,0,0,0,2.6,2.61h11.32a2.59,2.59,0,0,1,2.6,2.6v1.8a2.59,2.59,0,0,1-2.6,2.6H184.06a2.6,2.6,0,0,0-2.6,2.61v1.57a2.6,2.6,0,0,0,2.6,2.6h13.13a2.6,2.6,0,0,1,2.6,2.6v2.58a2.61,2.61,0,0,1-2.6,2.6H173.42a2.6,2.6,0,0,1-2.6-2.6V113.5A2.59,2.59,0,0,1,173.42,110.9Z"/><path d="M208.08,110.9h23.25a2.6,2.6,0,0,1,2.61,2.6v2.13a2.61,2.61,0,0,1-2.61,2.61H218.72a2.6,2.6,0,0,0-2.6,2.6v.25a2.61,2.61,0,0,0,2.6,2.61H230a2.6,2.6,0,0,1,2.61,2.6v1.8a2.6,2.6,0,0,1-2.61,2.6H218.72a2.61,2.61,0,0,0-2.6,2.61v1.57a2.61,2.61,0,0,0,2.6,2.6h13.13a2.59,2.59,0,0,1,2.6,2.6v2.58a2.6,2.6,0,0,1-2.6,2.6H208.08a2.61,2.61,0,0,1-2.6-2.6V113.5A2.6,2.6,0,0,1,208.08,110.9Z"/><path d="M242.82,110.9h5.41a2.59,2.59,0,0,1,2.6,2.6v3.35a2.6,2.6,0,0,0,4.58,1.69l5.77-6.73a2.57,2.57,0,0,1,2-.91h6.79a2.6,2.6,0,0,1,1.87,4.41l-6.87,7.11a2.6,2.6,0,0,0-.35,3.17l9.62,15.71a2.6,2.6,0,0,1-2.22,4h-6.84a2.6,2.6,0,0,1-2.31-1.42L258,134.39a2.6,2.6,0,0,0-4.2-.61l-2.24,2.34a2.61,2.61,0,0,0-.72,1.8v4.74a2.6,2.6,0,0,1-2.6,2.6h-5.41a2.6,2.6,0,0,1-2.6-2.6V113.5A2.59,2.59,0,0,1,242.82,110.9Z"/><path class="cls-3" d="M29.77,70.32h5.42a2.61,2.61,0,0,1,2.6,2.6v6.82a2.59,2.59,0,0,0,2.6,2.6h6.4a2.59,2.59,0,0,0,2.6-2.6V72.92a2.61,2.61,0,0,1,2.6-2.6h5.46a2.61,2.61,0,0,1,2.61,2.6v29.16a2.61,2.61,0,0,1-2.61,2.6H52a2.61,2.61,0,0,1-2.6-2.6v-8.7a2.6,2.6,0,0,0-2.6-2.6h-6.4a2.6,2.6,0,0,0-2.6,2.6v8.7a2.61,2.61,0,0,1-2.6,2.6H29.77a2.61,2.61,0,0,1-2.6-2.6V72.92A2.61,2.61,0,0,1,29.77,70.32Z"/><path class="cls-3" d="M70.13,70.32h5.44a2.6,2.6,0,0,1,2.6,2.6v29.16a2.6,2.6,0,0,1-2.6,2.6H70.13a2.61,2.61,0,0,1-2.6-2.6V72.92A2.61,2.61,0,0,1,70.13,70.32Z"/><path class="cls-3" d="M85.93,72.92a2.6,2.6,0,0,1,2.6-2.6H101.7a18.82,18.82,0,0,1,7.54,1.27A12.2,12.2,0,0,1,114,75.22a15,15,0,0,1,2.72,5.51,25.19,25.19,0,0,1,.85,6.65,23.08,23.08,0,0,1-1.26,8.55,14,14,0,0,1-3.48,5.08,11.28,11.28,0,0,1-4.78,2.73,24.45,24.45,0,0,1-6.33.94H88.53a2.6,2.6,0,0,1-2.6-2.6ZM96.55,80.7V94.27a2.59,2.59,0,0,0,2.6,2.6h0a11,11,0,0,0,4.73-.73,5,5,0,0,0,2.21-2.58,16.29,16.29,0,0,0,.79-6q0-5.46-1.78-7.47c-1.19-1.35-3.15-2-5.9-2h0A2.6,2.6,0,0,0,96.55,80.7Z"/><path class="cls-3" d="M125.7,70.32H149a2.61,2.61,0,0,1,2.61,2.6v2.13A2.61,2.61,0,0,1,149,77.66H136.34a2.6,2.6,0,0,0-2.6,2.6v.26a2.61,2.61,0,0,0,2.6,2.6h11.32a2.6,2.6,0,0,1,2.61,2.6v1.8a2.6,2.6,0,0,1-2.61,2.6H136.34a2.61,2.61,0,0,0-2.6,2.61V94.3a2.61,2.61,0,0,0,2.6,2.6h13.13a2.59,2.59,0,0,1,2.6,2.6v2.58a2.6,2.6,0,0,1-2.6,2.6H125.7a2.61,2.61,0,0,1-2.6-2.6V72.92A2.61,2.61,0,0,1,125.7,70.32Z"/><path class="cls-3" d="M24.28,141.29H16.1a2.61,2.61,0,0,0-2.5,1.87L13,145.1A2.6,2.6,0,0,1,10.54,147H5.4A2.61,2.61,0,0,1,3,143.45l11-29.16a2.6,2.6,0,0,1,2.43-1.68h8a2.6,2.6,0,0,1,2.44,1.68l11,29.16A2.6,2.6,0,0,1,35.29,147H29.86a2.6,2.6,0,0,1-2.49-1.85l-.6-2A2.6,2.6,0,0,0,24.28,141.29ZM23,130.5l-.26-.85a2.6,2.6,0,0,0-5,0l-.26.85A2.59,2.59,0,0,0,20,133.86h.52A2.59,2.59,0,0,0,23,130.5Z"/><path class="cls-3" d="M45.09,112.61H51a2.61,2.61,0,0,1,2.15,1.13l7.41,10.89a2.6,2.6,0,0,0,4.75-1.46v-8a2.6,2.6,0,0,1,2.6-2.6h4.81a2.59,2.59,0,0,1,2.6,2.6v29.15a2.6,2.6,0,0,1-2.6,2.61h-6a2.6,2.6,0,0,1-2.15-1.14l-7.34-10.76a2.61,2.61,0,0,0-4.76,1.46v7.83a2.6,2.6,0,0,1-2.6,2.61H45.09a2.61,2.61,0,0,1-2.6-2.61V115.21A2.6,2.6,0,0,1,45.09,112.61Z"/><path class="cls-3" d="M82.55,115.21a2.59,2.59,0,0,1,2.6-2.6H98.32a18.92,18.92,0,0,1,7.53,1.26,12.35,12.35,0,0,1,4.75,3.63,15.06,15.06,0,0,1,2.72,5.51,25.69,25.69,0,0,1,.84,6.66,23.22,23.22,0,0,1-1.25,8.54,14.23,14.23,0,0,1-3.48,5.09,11.56,11.56,0,0,1-4.78,2.73,24.89,24.89,0,0,1-6.33.94H85.15a2.6,2.6,0,0,1-2.6-2.61ZM93.16,123v13.57a2.6,2.6,0,0,0,2.6,2.6h0a11,11,0,0,0,4.74-.74,5,5,0,0,0,2.2-2.58,16.15,16.15,0,0,0,.8-6c0-3.64-.6-6.13-1.78-7.48s-3.16-2-5.91-2h0A2.6,2.6,0,0,0,93.16,123Z"/><path class="cls-3" d="M139,135.42l5-.32a2.63,2.63,0,0,1,2.64,1.84,5.4,5.4,0,0,0,5.59,3.86,5.2,5.2,0,0,0,3.51-1.06,3.22,3.22,0,0,0,1.23-2.48,3.15,3.15,0,0,0-1.17-2.39c-.79-.7-2.6-1.37-5.44-2q-7-1.57-10-4.17a8.41,8.41,0,0,1-3-6.64,9,9,0,0,1,1.53-5,10.2,10.2,0,0,1,4.62-3.7A21.51,21.51,0,0,1,152,112q6.59,0,10,2.45a9.31,9.31,0,0,1,3.37,4.56,2.59,2.59,0,0,1-2.32,3.41l-4.91.29a2.65,2.65,0,0,1-2.54-1.64,4.21,4.21,0,0,0-1.17-1.62,5.4,5.4,0,0,0-3.53-1,4.3,4.3,0,0,0-2.79.78,2.42,2.42,0,0,0-.93,1.91,1.93,1.93,0,0,0,.77,1.48,8.74,8.74,0,0,0,3.56,1.27,45,45,0,0,1,10,3,10.51,10.51,0,0,1,4.38,3.81,9.71,9.71,0,0,1,1.37,5.09,10.88,10.88,0,0,1-1.83,6.09,11.42,11.42,0,0,1-5.11,4.23,20.65,20.65,0,0,1-8.27,1.44q-8.76,0-12.14-3.37a12.79,12.79,0,0,1-3.22-5.37A2.61,2.61,0,0,1,139,135.42Z"/><path class="cls-3" d="M175.21,112.61h23.25a2.59,2.59,0,0,1,2.6,2.6v2.13a2.59,2.59,0,0,1-2.6,2.6H185.85a2.61,2.61,0,0,0-2.6,2.6v.26a2.6,2.6,0,0,0,2.6,2.6h11.32a2.6,2.6,0,0,1,2.6,2.6v1.81a2.59,2.59,0,0,1-2.6,2.6H185.85a2.61,2.61,0,0,0-2.6,2.6v1.57a2.6,2.6,0,0,0,2.6,2.6H199a2.61,2.61,0,0,1,2.6,2.61v2.57A2.61,2.61,0,0,1,199,147H175.21a2.6,2.6,0,0,1-2.6-2.61V115.21A2.59,2.59,0,0,1,175.21,112.61Z"/><path class="cls-3" d="M209.88,112.61h23.25a2.6,2.6,0,0,1,2.6,2.6v2.13a2.6,2.6,0,0,1-2.6,2.6H220.52a2.61,2.61,0,0,0-2.61,2.6v.26a2.6,2.6,0,0,0,2.61,2.6h11.32a2.61,2.61,0,0,1,2.6,2.6v1.81a2.6,2.6,0,0,1-2.6,2.6H220.52a2.61,2.61,0,0,0-2.61,2.6v1.57a2.6,2.6,0,0,0,2.61,2.6h13.12a2.6,2.6,0,0,1,2.6,2.61v2.57a2.6,2.6,0,0,1-2.6,2.61H209.88a2.61,2.61,0,0,1-2.61-2.61V115.21A2.6,2.6,0,0,1,209.88,112.61Z"/><path class="cls-3" d="M244.61,112.61H250a2.6,2.6,0,0,1,2.61,2.6v3.34a2.6,2.6,0,0,0,4.57,1.7l5.77-6.73a2.57,2.57,0,0,1,2-.91h6.79A2.6,2.6,0,0,1,273.6,117l-6.87,7.11a2.6,2.6,0,0,0-.35,3.16L276,143a2.6,2.6,0,0,1-2.21,4H267a2.61,2.61,0,0,1-2.32-1.42l-4.85-9.46a2.61,2.61,0,0,0-4.2-.61l-2.23,2.35a2.54,2.54,0,0,0-.72,1.79v4.74A2.61,2.61,0,0,1,250,147h-5.41a2.6,2.6,0,0,1-2.6-2.61V115.21A2.59,2.59,0,0,1,244.61,112.61Z"/></svg>