<svg id="Layer_2" data-name="Layer 2" xmlns="http://www.w3.org/2000/svg" width="315" height="300" viewBox="0 0 315 300"><defs><style>.cls-1{fill:#231f20;}.cls-2{fill:#e36ea6;}.cls-3{fill:#fff;}</style></defs><path class="cls-1" d="M300.06,121.21l-.33-1.48c-.09-.37-.18-.74-.29-1.11,0-.06-.14-.34-.15-.44a.54.54,0,0,1-.05-.11c-.47-.89-1.15-1.64-1.7-2.48-.81-.89-1.75-1.81-2.8-2.8-19.34-18.13-92.3-30.53-92.3-30.53-22.77-57.74-39-75.14-48.68-79.48A17.29,17.29,0,0,0,148.24,2l-.74,0a12.84,12.84,0,0,0-3.12.65c-.21.08-.41.19-.63.27l-.31.15a3.38,3.38,0,0,0-.52.46C123.2,13.65,92.4,87.23,92.4,87.23S7.91,90.07,1.52,117.05s63.19,72.42,63.19,72.42-17.26,91.84.71,100.5c21.91,10.58,78.15-29.33,82.11-32.17a6.71,6.71,0,0,1,2.43-2,6.59,6.59,0,0,1,2.88-.75,2.09,2.09,0,0,1,1.92.44c1.7,1.42,3.53,2.67,5.31,4,.16.07.31.17.48.24a1.36,1.36,0,0,1,.34.23c58.63,33.87,70,32.45,85.57,25.36s.71-95.84.71-95.84C295,139.17,299,137.52,300.06,121.21Z"/><path class="cls-2" d="M312,125.56c-.11-.5-.21-1-.33-1.48s-.18-.75-.28-1.11a3.33,3.33,0,0,1-.16-.45l-.05-.11c-.47-.89-1.15-1.64-1.69-2.48-.81-.88-1.76-1.81-2.81-2.79-19.33-18.14-92.3-30.53-92.3-30.53-22.77-57.74-39-75.15-48.68-79.48a16.71,16.71,0,0,0-5.52-.76l-.73,0a12.84,12.84,0,0,0-3.12.65c-.21.09-.42.19-.64.27l-.31.15a4.19,4.19,0,0,0-.52.46C135.13,18,104.33,91.58,104.33,91.58S19.84,94.42,13.45,121.4s63.19,72.41,63.19,72.41-17.26,91.84.71,100.51c21.91,10.57,78.16-29.34,82.12-32.18a7.08,7.08,0,0,1,5.31-2.72,2.07,2.07,0,0,1,1.92.43c1.7,1.42,3.52,2.67,5.31,4,.16.08.31.17.47.24a1.21,1.21,0,0,1,.35.24c58.62,33.87,70,32.44,85.56,25.36s.71-95.85.71-95.85C307,143.51,311,141.86,312,125.56Z"/><path d="M86.28,297a21.3,21.3,0,0,1-9.34-1.87C59.12,286.58,74,203,75.6,194.26c-6.94-4.59-69.31-46.72-63.07-73.08S95.43,91,103.69,90.65c3.09-7.31,31.48-73.49,50.59-83.49.11-.1.28-.26.51-.44l.49-.25.42-.18.25-.11a13.73,13.73,0,0,1,3.41-.72l.76,0a18.24,18.24,0,0,1,5.85.8c9.84,4.4,26.24,21.73,49.09,79.54,7.15,1.25,73.59,13.17,92.26,30.69,1.25,1.17,2.13,2,2.86,2.84.29.43.51.73.73,1A13.27,13.27,0,0,1,312,122l.27.72c.12.4.21.78.3,1.17s.22,1,.33,1.46l0,.3c-.89,14.32-4.14,17.7-35.2,50.08-5.08,5.3-10.92,11.38-17.62,18.42,1.28,7.73,14.34,89.28-1.33,96.4-16.89,7.68-29.43,7.53-86.43-25.4l-.17-.14a4.86,4.86,0,0,1-.43-.23l-.3-.16-1.21-.88c-1.38-1-2.81-2-4.15-3.13a1.15,1.15,0,0,0-1-.26l-.27,0h0a5.68,5.68,0,0,0-2.45.65,5.76,5.76,0,0,0-2.08,1.69l-.21.21C154.6,266.8,111.65,297,86.28,297ZM160.7,7.3h-.5l-.71,0a12.21,12.21,0,0,0-2.86.59l-.15.07a4,4,0,0,1-.48.2l-.09,0a3.36,3.36,0,0,0-.36.31l-.27.21c-19.18,9.79-49.77,82.43-50.08,83.16l-.23.56-.61,0c-.84,0-83.83,3.12-90,29.09s62.09,71,62.78,71.41l.53.35-.12.62c0,.23-4.33,23.2-6.37,46.92-3.37,39.19,1.71,50.21,6.56,52.56,21.31,10.27,77.29-29.34,81-32a7.62,7.62,0,0,1,2.67-2.15,7.83,7.83,0,0,1,3.18-.84,3,3,0,0,1,2.65.66c1.29,1.07,2.69,2.07,4,3l1.33.93.18.09a3,3,0,0,1,.54.33c59,34.08,69.59,32.1,84.61,25.28,12.27-5.58,4.28-70.35.17-94.83l-.08-.47.33-.34c6.83-7.19,12.78-13.38,17.95-18.77,30.52-31.82,33.8-35.24,34.67-48.76l-.3-1.34c-.09-.35-.17-.71-.27-1.06a3,3,0,0,1-.14-.37,11.65,11.65,0,0,0-.94-1.42c-.24-.33-.48-.65-.71-1-.6-.64-1.45-1.49-2.66-2.62-18.9-17.74-91.08-30.17-91.8-30.29l-.53-.09-.2-.49c-22.72-57.62-38.74-74.75-48.18-79A16.45,16.45,0,0,0,160.7,7.3Z"/><path class="cls-2" d="M86.28,297a21.3,21.3,0,0,1-9.34-1.87C59.12,286.58,74,203,75.6,194.26c-6.94-4.59-69.31-46.72-63.07-73.08S95.43,91,103.69,90.65c3.09-7.31,31.48-73.48,50.59-83.49.11-.1.28-.26.51-.44l.49-.26a3.66,3.66,0,0,0,.4-.17l.28-.12a14,14,0,0,1,3.4-.71l.76,0a18,18,0,0,1,5.85.8c9.85,4.4,26.24,21.73,49.09,79.55,7.15,1.24,73.59,13.16,92.26,30.68,1.25,1.17,2.13,2,2.86,2.84.29.43.51.72.72,1A11.26,11.26,0,0,1,312,122l.27.71c.12.4.21.78.3,1.17l.36,1.62v.14c-.9,14.32-4.15,17.7-35.21,50.08-5.08,5.3-10.92,11.38-17.62,18.42,1.28,7.74,14.34,89.28-1.33,96.4-16.89,7.68-29.43,7.52-86.42-25.4l-.18-.14a4.86,4.86,0,0,1-.43-.23l-.3-.17-1.2-.86c-1.39-1-2.82-2-4.16-3.14a1.14,1.14,0,0,0-1-.26l-.27,0h0a6.21,6.21,0,0,0-4.54,2.34l-.21.21C154.6,266.8,111.65,297,86.28,297ZM160.71,7.3h-.51l-.71,0a12.21,12.21,0,0,0-2.86.59l-.17.08a3.71,3.71,0,0,1-.46.19l-.13.07a1.85,1.85,0,0,0-.31.29l-.28.21c-19.18,9.79-49.77,82.43-50.08,83.16l-.23.56-.61,0c-.84,0-83.83,3.12-90,29.09s62.09,71,62.78,71.41l.53.34-.12.63c0,.23-4.33,23.2-6.37,46.92-3.37,39.19,1.71,50.21,6.56,52.56,21.29,10.25,77.29-29.34,81-32a7.71,7.71,0,0,1,2.67-2.15,7.83,7.83,0,0,1,3.18-.84,3,3,0,0,1,2.65.66c1.29,1.07,2.69,2.08,4,3.05l1.32.92.18.1a2.14,2.14,0,0,1,.54.32c59,34.08,69.58,32.1,84.61,25.28,12.27-5.58,4.28-70.35.17-94.83l-.08-.47.33-.34c6.84-7.19,12.78-13.38,17.95-18.77,30.52-31.82,33.8-35.24,34.67-48.76l-.3-1.34c-.08-.35-.17-.71-.27-1.06a3,3,0,0,1-.14-.37,11.45,11.45,0,0,0-.95-1.43c-.24-.32-.48-.64-.7-1-.59-.64-1.44-1.48-2.66-2.62-18.9-17.74-91.08-30.16-91.8-30.29l-.53-.09-.2-.49c-22.72-57.62-38.74-74.75-48.18-79A16.43,16.43,0,0,0,160.71,7.3Z"/><path d="M86.26,298a22.16,22.16,0,0,1-9.73-2c-7.85-3.78-10.71-21-8.49-51.31,1.62-22.22,5.49-44.38,6.51-50C65.31,188.54,5.36,147.36,11.61,121,17.9,94.4,91.88,90.21,103.05,89.73c4.13-9.72,31.69-73.2,50.67-83.34a6.34,6.34,0,0,1,.49-.42l.63-.35c.27-.1.36-.15.45-.19l.29-.12a14.58,14.58,0,0,1,3.69-.79l.8,0a18.93,18.93,0,0,1,6.18.84c10,4.46,26.61,21.86,49.49,79.6,9.64,1.7,73.76,13.51,92.22,30.84,1.28,1.19,2.18,2.09,2.92,2.9.33.47.53.74.72,1a13.64,13.64,0,0,1,1.25,1.88l.32.81c.14.49.24.89.34,1.3l.38,1.76v.13c-.93,14.8-4.2,18.21-35.47,50.81-5,5.22-10.73,11.19-17.3,18.08,2.63,16,13.79,89.8-1.94,96.95-17.21,7.82-29.92,7.71-87.3-25.44l-2.19-1.46c-1.39-1-2.83-2-4.21-3.17l-.07,0-.22-.07-.28,0a5.11,5.11,0,0,0-2.18.56,4.7,4.7,0,0,0-1.73,1.4l-.31.32c-5,3.61-48.64,34.4-74.41,34.41h0ZM156.31,9.11s0,.08-.06.1l-.39.32c-19,9.7-49.48,82.05-49.79,82.78l-.46,1.12-1.22,0c-.83,0-83.12,3.13-89.09,28.36-5,21.15,43.33,58,62.37,70.4l1.06.69-.23,1.24c-.18,1-4.36,23.59-6.36,46.83-3.5,40.7,2.28,49.81,6,51.62,20.67,9.95,76.31-29.24,80-31.84a8.57,8.57,0,0,1,2.91-2.31,8.78,8.78,0,0,1,3.48-.93,4,4,0,0,1,3.38.87c1.26,1.05,2.65,2.05,4,3l1.31.91a3,3,0,0,1,.79.48c58.44,33.74,68.87,31.83,83.61,25.13,10.41-4.73,5.29-60.05-.38-93.8l-.15-.94.65-.68c6.66-7,12.47-13.06,17.54-18.35l.41-.43c30.29-31.57,33.55-35,34.4-48l-.27-1.2c-.07-.33-.15-.67-.25-1a1.79,1.79,0,0,1-.1-.26,12.57,12.57,0,0,0-.83-1.23c-.26-.34-.51-.68-.74-1-.48-.5-1.32-1.33-2.52-2.45-18.75-17.6-90.59-29.92-91.31-30L213,88.3l-.4-1C190,30,174.2,13,164.92,8.86a15.47,15.47,0,0,0-4.21-.61l-1.17.05a10.91,10.91,0,0,0-2.61.54c-.25.12-.43.2-.62.27Zm3,253.17c-4.79,3.42-35.42,24.85-59.77,31.71C123.91,287.14,154.48,265.71,159.27,262.28ZM172.35,264l.57.35c27.35,15.81,44.37,24,56.52,27.4-11.93-3.41-29-11.51-56.53-27.41a2,2,0,0,0-.42-.27Zm86.75-70.19h0c.11.65,7.9,47.64,6.11,75.73,1.39-21-2.43-53.46-6-75.26l-.08-.47.33-.34,2.68-2.81-3,3.15Zm-90.35,67.65c.68.51,1.37,1,2.05,1.49l1.44,1-1.43-1C170.12,262.46,169.43,262,168.75,261.46Zm-9,.34-.19.23-.09.11h0l.09-.11Zm4.72-2.37a6.58,6.58,0,0,0-2.15.54A6.6,6.6,0,0,1,164.46,259.43Zm.31,0h0Zm.17-.05-.07,0-.1,0,.14,0Zm-88.4-65v.09a464,464,0,0,0-7,57.15q.27-5.09.76-10.75C72.12,219.13,75.88,198,76.54,194.34ZM17.82,139.67c4.38,7.56,11.74,16.14,21.94,25.52a319.85,319.85,0,0,0,36.36,28.28l.52.34h0C76.09,193.45,32.51,164.84,17.82,139.67Zm264.86,29.5L277.05,175l-.41.44-.33.33c.25-.26.5-.51.74-.77Zm28.67-46.27c.14.45.23.81.31,1.17l.33,1.49v.13c-.06.9-.12,1.75-.21,2.57.09-.86.16-1.76.22-2.7l-.33-1.49c-.09-.37-.18-.74-.29-1.12Zm-1-1.72a10.54,10.54,0,0,1,.78,1.21l0-.07A9.25,9.25,0,0,0,310.37,121.18Zm-1-1.36c.24.35.43.62.62.87-.21-.28-.39-.53-.61-.86Zm-95-33.21c.74.12,71.34,12.24,91.56,29.86-19.4-16.94-83.68-28.49-91-29.77l-.53-.09Zm-110,5-.6,0a315.29,315.29,0,0,0-46.18,5.45A156.84,156.84,0,0,0,40,101.6a171,171,0,0,1,21.19-5.19,328.9,328.9,0,0,1,43.14-4.83Zm50.23-83.5c-18.8,10.13-46.85,75.5-50,82.94l-.07.18C106.91,85.51,135.84,18.18,154.56,8.08ZM163.5,6.6a16.53,16.53,0,0,1,2.08.49c.63.28,1.29.62,2,1a21.87,21.87,0,0,0-2-1A16.13,16.13,0,0,0,163.5,6.6Zm-8.93,1.48Zm.74-.57-.08,0-.29.28-.2.15.11-.06.13-.12a3.26,3.26,0,0,1,.32-.28Zm.58-.27-.27.11h0Zm.4-.18h0l-.21.09h0Zm3.86-.69Zm.51,0h0Z"/><path class="cls-3" d="M137.7,127.51V178.1a9.66,9.66,0,0,0,14.51,8.35l40.42-23.54a9.64,9.64,0,0,0,0-16.66l-43.48-25.32A7.61,7.61,0,0,0,137.7,127.51Z"/></svg>