<svg xmlns="http://www.w3.org/2000/svg" width="65" height="25" viewBox="0 0 65 25"><defs><style>.cls-1{fill:#fff;}</style></defs><g id="Layer_3" data-name="Layer 3"><path d="M25,6.28l31.45-.39c1.89,0,2.13.27,2.33,2.07l0,2.61c0,1.92.83,4.07-2.36,5.13-1.78.58-34.94-2.35-33.36,1.74-.07,2,.25,7.14-3.25,5.52C-4.95,8.18-8.47,12.16,20.53.17c5.13-1.36.28,6,4.48,6.11"/><path class="cls-1" d="M26,7.28l31.45-.39c1.89,0,2.13.27,2.33,2.07l0,2.61c0,1.92.83,4.07-2.36,5.13-1.78.58-31.59-3.85-33.43,1.11-.55,1.48.7,5.76-1.52,6.29A2.27,2.27,0,0,1,20.85,24c-24.8-14.78-28.32-10.8.68-22.79,5.13-1.36.28,6,4.48,6.11"/><path d="M21.82,24.44a2.53,2.53,0,0,1-1.08-.25c-4.36-2.6-8-4.62-11-6.24-6-3.29-9.07-4.94-9-6.7.12-2,4-3.54,13.4-7.34,2.15-.87,4.58-1.85,7.29-3a2.53,2.53,0,0,1,2.28.14c.71.56.68,1.68.64,2.86s-.07,2.12.46,2.67A1.62,1.62,0,0,0,26,7l31.45-.39c2,0,2.36.34,2.58,2.3l0,2.63c0,.32,0,.65,0,1,.11,1.62.25,3.45-2.58,4.38-.52.17-2.67,0-6.75-.34C42,15.85,25.53,14.47,24.26,17.9A7.25,7.25,0,0,0,24.14,20c0,1.75.1,3.93-1.58,4.33A2.94,2.94,0,0,1,21.82,24.44Zm.8-23.19a3.8,3.8,0,0,0-1,.16c-2.68,1.11-5.11,2.09-7.26,3-8.65,3.5-13,5.25-13.09,6.91-.08,1.44,3.23,3.24,8.71,6.24,3,1.62,6.67,3.63,11,6.22a1.94,1.94,0,0,0,1.47.11c1.28-.3,1.23-2.18,1.19-3.83a7,7,0,0,1,.16-2.3c1.28-3.48,14.06-2.72,27-1.63a49.5,49.5,0,0,0,6.55.37c2.46-.81,2.36-2.23,2.24-3.88,0-.34,0-.68,0-1l0-2.6c-.19-1.68-.34-1.81-2.08-1.83L26,7.53A2.08,2.08,0,0,1,24.46,7c-.67-.7-.63-1.89-.6-3s.07-2-.45-2.45A1.22,1.22,0,0,0,22.62,1.25Z"/></g></svg>
