<svg id="Layer_2" data-name="Layer 2" xmlns="http://www.w3.org/2000/svg" width="150" height="150" viewBox="0 0 150 150"><defs><style>.cls-1{fill:#231f20;}.cls-2{fill:#e36ea6;}</style></defs><path class="cls-1" d="M65.75,83.75c4.09-2.89,9.52-6.33,9.72-10.79.12-2.55-9-5.15-6.19-8.78C73.92,58,74.47,52.64,72.22,48A13.93,13.93,0,0,0,71,46.2a3.85,3.85,0,0,0-.35-.35.57.57,0,0,1-.11-.11,2,2,0,0,1-.42-.4c-.15-.16-.3-.31-.44-.47a3.88,3.88,0,0,1-.71-.75c-.2-.19-.39-.38-.57-.58s-.28-.3-.41-.46l-.1-.11,0,0,0,0a2.09,2.09,0,0,0-.2-.22l-.05,0a.94.94,0,0,1-.12-.09L66,43.73l-1-.93-1.86-2C52.55,28.23,36.63,23.67,25.27,28.73c-10,4.48-13.56,15.19-14,16.5-.75,2.39-2.46,9.07,1.08,20.25,8.89,28.08,32.77,44.58,38.73,48.28a98.58,98.58,0,0,0,11.42,6.1c1.66-.48,3.92-1.19,6.57-2.18a40.69,40.69,0,0,0,4.68-7.74c-13-4.17.55-12.11.87-19.13C74.75,88.9,69,85.91,65.75,83.75Z"/><path class="cls-1" d="M138,70.08c.07-1.37.4-12.71-7.47-20.7-8.9-9-25.31-10.79-39.48-3.08L89.53,47c4.73,7.2,4.67,14.48-4.07,21.45-3.65,2.83,4.61,7.49,3.86,9.91C88,82.58,81.83,84.6,77.11,86.41c2.59,2.83,7.51,7.09,6.94,8.91-2.07,6.67-17.3,11.1-5.64,18.19a42.07,42.07,0,0,1-6.52,6.34c1.76-.2,3.69-.47,5.75-.83,6.82-1.21,34.69-7.58,52.47-30.44C137.19,79.48,137.84,72.59,138,70.08Z"/><path d="M62.56,119.51a97.28,97.28,0,0,1-11.26-6c-4.86-3-29.55-19.53-38.59-48.1-2.42-7.64-2.8-14.58-1.09-20.07.61-2,4.16-12,13.8-16.31a24.67,24.67,0,0,1,11.9-1.92C46.36,27.78,56,32.74,63,41l1.87,2L66,44.16l1.71-1.39-.08-.09-.05,0a1.34,1.34,0,0,1-.31-.27l0,0-1.21,1-.72-.7-1.85-2C53,28.3,36.91,23.19,25.13,28.44,15.24,32.85,11.62,43.11,11,45.13c-1.74,5.61-1.37,12.68,1.09,20.43C21.2,94.36,46.06,111,51,114a99.22,99.22,0,0,0,11.46,6.12l.12,0,.11,0q3.09-.89,6.11-2c.25-.32.49-.65.73-1C67.2,118.05,64.89,118.84,62.56,119.51Z"/><path class="cls-2" d="M65.75,83.75c4.09-2.89,9.52-6.33,9.72-10.79.12-2.55-9-5.15-6.19-8.78,4.63-6.18,5.19-11.52,3-16.18A13.85,13.85,0,0,0,71,46.23l-.13-.14-.34.28-1-.93-1.86-2C57.11,30.87,41.19,26.31,29.83,31.37c-10,4.48-13.56,15.19-14,16.5-.75,2.39-2.46,9.07,1.08,20.25C25.84,96.2,49.72,112.7,55.69,116.4a94.43,94.43,0,0,0,10.11,5.49c3.07-3.74,6-7.56,8-12-13-4.17.55-12.11.87-19.13C74.75,88.9,69,85.91,65.75,83.75Z"/><path class="cls-2" d="M139.32,69.94c0-1.38-.22-12.73-8.46-20.37C121.55,41,105.1,39.94,91.34,48.3l-3,1.54c2.39,5.67,1.23,11.51-5.46,17.4-3.51,3,5,7.28,4.32,9.74-1.1,4.31-7.16,6.61-11.78,8.64,2.72,2.72,7.83,6.74,7.36,8.59-1.74,6.77-16.72,11.9-4.75,18.46-2.82,3.9-6.52,7-10.31,10.11l1.16.83a94.19,94.19,0,0,0,12.62-2c6.74-1.52,34.23-9.17,50.85-32.85C139,79.38,139.34,72.46,139.32,69.94Z"/><path d="M70.66,45.86l-.09.07-.72-.7-1.85-2C57.58,30.94,41.47,25.83,29.69,31.08,19.8,35.49,16.18,45.75,15.55,47.77c-1.74,5.61-1.37,12.68,1.09,20.43,9.12,28.8,34,45.43,38.87,48.47a99.21,99.21,0,0,0,10.09,5.47l.41-.51a97.32,97.32,0,0,1-10.15-5.49C51,113.12,26.31,96.61,17.27,68,14.85,60.4,14.47,53.46,16.18,48c.62-2,4.16-12,13.8-16.31a24.67,24.67,0,0,1,11.9-1.92c9,.68,18.63,5.65,25.63,13.9l1.87,2,1.17,1.14.57-.47-.05-.07C70.93,46.12,70.8,46,70.66,45.86Z"/><path d="M140.09,70.75c0-2.12-.24-13.09-8.21-20.72-9.51-9.1-26.3-9.94-39.91-2L89,49.51l.24.61,3-1.52c13.37-7.81,29.82-7,39.11,1.88,7.78,7.44,8,18.17,8,20.24-.08,5.79-2.57,12.21-7.2,18.57C114.88,113.1,86.49,120,81,121.16a94,94,0,0,1-12.49,1.72l-1-.73-.52.4c.41.3.81.62,1.21.92l.11.07h.12a93.46,93.46,0,0,0,12.7-1.75c5.56-1.15,34.16-8.12,51.64-32.11C137.48,83.21,140,76.67,140.09,70.75Z"/></svg>
