<svg id="Layer_2" data-name="Layer 2" xmlns="http://www.w3.org/2000/svg" width="150" height="150" viewBox="0 0 150 150"><defs><style>.cls-1{fill:#231f20;}.cls-2{fill:#e36ea6;}</style></defs><path class="cls-1" d="M81.37,94.36c1.77-5.59,4.4-12.62,1.57-17-1.62-2.53-11.69,1.24-11.59-4.18.05-9.14-3.07-14.65-8.27-17.6a17,17,0,0,0-2.32-.86,3.5,3.5,0,0,0-.55-.09l-.18,0a1.81,1.81,0,0,1-.65-.11l-.72-.14a4.5,4.5,0,0,1-1.16-.23l-.9-.16-.69-.16-.17,0-.08,0h0l-.33-.07-.08,0h-.17l-.52,2.13L53,55.5,50,54.85C31.78,50.1,14.17,56.66,7.24,69.33,1.1,80.55,5.14,93.26,5.65,94.79c.94,2.81,3.9,10.41,14.68,18.72,27.11,20.87,60.05,20.29,68,19.76a107.2,107.2,0,0,0,14.53-2c1.2-1.61,2.78-3.84,4.53-6.61a50.78,50.78,0,0,0-1-10.66c-14.67,4.93-7.69-12-12.14-19C93.06,93.12,85.74,94.24,81.37,94.36Z"/><path class="cls-1" d="M138,31.56c-.87-1.36-8.23-12.48-20.82-14.74C103,14.27,86.79,23.86,79.07,41l-.88,1.66c9.18,3.66,14,10.7,10.79,23.41-1.42,5.22,9.27,4,10.22,6.87,1.67,5-2.59,11.16-5.67,16.16,4.27.94,11.64,1.64,12.35,3.78,2.63,7.83-8.28,22.57,7.16,21.36a50.58,50.58,0,0,1-1.66,10.58c1.47-1.4,3.05-3,4.68-4.76,5.41-5.85,26.53-31.13,27.29-65.33C143.65,41.13,139.59,34.06,138,31.56Z"/><path d="M102.64,130.93a107.71,107.71,0,0,1-14.34,2c-6.48.44-40.16,1.55-67.74-19.68C13.2,107.54,8.16,101.13,6,94.67c-.78-2.31-4.33-14.39,1.56-25.16a27.8,27.8,0,0,1,9.56-10c8.7-5.57,20.81-7.39,32.77-4.27l3.08.66,1.83.29.62-2.52-.13,0-.08,0a1.18,1.18,0,0,1-.46,0l-.08,0-.43,1.78-1.13-.18-3-.65C32.26,49.83,14.1,56,6.91,69.15c-6,11-2.41,23.4-1.62,25.76,2.21,6.6,7.33,13.13,14.82,18.9,27.79,21.39,61.72,20.27,68.24,19.83a106.51,106.51,0,0,0,14.58-2l.14,0,.09-.11c1.47-2,2.88-4,4.22-6.13v-1.43C105.88,126.33,104.31,128.67,102.64,130.93Z"/><path class="cls-2" d="M81.37,94.36c1.77-5.59,4.4-12.62,1.57-17-1.62-2.53-11.69,1.24-11.59-4.18.05-9.13-3-14.63-8.24-17.58a18.19,18.19,0,0,0-2.3-.88l-.21,0-.12.49L59,54.9l-3.06-.65c-18.2-4.75-35.82,1.81-42.75,14.48C7,80,11.08,92.66,11.6,94.19c.93,2.81,3.89,10.41,14.68,18.72,27.1,20.87,60,20.29,68,19.76A105.9,105.9,0,0,0,107.2,131c.27-5.71.4-11.42-.79-17-14.67,4.93-7.69-12-12.14-19C93.06,93.12,85.74,94.24,81.37,94.36Z"/><path class="cls-2" d="M139.14,30.48c-.93-1.31-8.81-12.08-21.49-13.74-14.32-1.88-30,8.46-36.92,26l-1.64,3.5c6,3.81,8.9,10.22,6.78,20.49C84.7,72,95.32,70.27,96.41,73.07c1.9,4.9-2.07,11.27-4.91,16.4,4.31.75,11.7,1.1,12.52,3.2,3,7.7-7.21,22.94,8.15,21,.07,5.69-1.18,11.26-2.58,16.81h1.64a108.25,108.25,0,0,0,10.19-10.55c5.12-6.1,25-32.35,24.17-66.55C145.25,39.77,140.86,32.9,139.14,30.48Z"/><path d="M60.22,54.58l0,.13-1.13-.18-3-.65c-17.82-4.65-36,1.52-43.17,14.67-6,11-2.4,23.4-1.61,25.76,2.2,6.6,7.32,13.13,14.81,18.89C53.84,134.6,87.77,133.48,94.29,133a107.18,107.18,0,0,0,12.89-1.68c0-.26,0-.52,0-.77a106.69,106.69,0,0,1-13,1.7c-6.47.44-40.15,1.55-67.73-19.68-7.37-5.67-12.4-12.08-14.56-18.54-.77-2.31-4.33-14.39,1.56-25.16a27.86,27.86,0,0,1,9.56-10c8.71-5.58,20.81-7.4,32.78-4.28l3.08.66,1.83.29.21-.85-.11,0C60.64,54.64,60.43,54.6,60.22,54.58Z"/><path d="M140.39,30.74c-1.41-2-9.06-12.41-21.51-14.26C104.06,14.27,88.18,25,81.13,42l-1.68,3.44c.21.14.42.27.63.42l1.74-3.55c6.92-16.7,22.46-27.26,37-25.1,12.14,1.8,19.62,11.94,21,14,3.84,5.61,5.91,13.49,6,22.79.27,34.81-20.95,61-25.21,65.88a106.32,106.32,0,0,1-10.22,10.25l-1.39,0c-.07.24-.13.49-.2.74l1.72.05h.14l.11-.09a106.66,106.66,0,0,0,10.41-10.42C125.41,115.4,146.79,89,146.51,54,146.43,44.51,144.32,36.48,140.39,30.74Z"/></svg>
