<svg xmlns="http://www.w3.org/2000/svg" width="225" height="285" viewBox="0 0 225 285"><defs><style>.cls-1{fill:#72bd59;stroke:#000;stroke-miterlimit:10;}.cls-2{fill:#f5e0cd;}.cls-3{fill:none;}.cls-4{fill:#fff;}.cls-5{fill:#7ec479;}</style></defs><g id="Layer_3" data-name="Layer 3"><path class="cls-1" d="M90.52,225.53H70.76l-13.82-5.48L43.3,225.53,33,220.05l-12.58,5.48a2.7,2.7,0,0,1-2.69-2.69V136.13a2.7,2.7,0,0,1,2.69-2.69H90.52a2.69,2.69,0,0,1,2.68,2.69v86.71A2.69,2.69,0,0,1,90.52,225.53Z"/><path class="cls-1" d="M43.27,226.08,33,220.6,20.41,226a3.19,3.19,0,0,1-3.19-3.19V136.13a3.19,3.19,0,0,1,3.19-3.19H90.52a3.2,3.2,0,0,1,3.19,3.19v86.71A3.2,3.2,0,0,1,90.52,226l-20,0-13.63-5.41ZM70.85,225H90.52a2.2,2.2,0,0,0,2.19-2.19V136.13a2.2,2.2,0,0,0-2.19-2.19H20.41a2.2,2.2,0,0,0-2.19,2.19v86.71A2.2,2.2,0,0,0,20.31,225L33,219.49,43.33,225l13.61-5.47Z"/><path class="cls-1" d="M137,222.21h19.76l13.82-5.48,13.64,5.48,10.32-5.48,12.57,5.48a2.7,2.7,0,0,0,2.69-2.69V132.81a2.7,2.7,0,0,0-2.69-2.69H137a2.7,2.7,0,0,0-2.68,2.69v86.71A2.7,2.7,0,0,0,137,222.21Z"/><path class="cls-1" d="M184.24,222.76l-13.67-5.49-13.82,5.44H137a3.19,3.19,0,0,1-3.18-3.19V132.81a3.19,3.19,0,0,1,3.18-3.19H207.1a3.19,3.19,0,0,1,3.19,3.19v86.71a3.19,3.19,0,0,1-3.19,3.19l-.2,0-12.35-5.39ZM137,130.62a2.19,2.19,0,0,0-2.18,2.19v86.71a2.19,2.19,0,0,0,2.18,2.19h19.67l13.91-5.52,13.61,5.47,10.32-5.49,12.7,5.54a2.2,2.2,0,0,0,2.09-2.19V132.81a2.19,2.19,0,0,0-2.19-2.19Z"/><path class="cls-2" d="M90.57,175.56S84.29,202.39,84,206.11s-4.29,13.13-5.71,38.82,12.27,26.55,12.27,26.55,15.13.86,15.42-14.85,0-39.39,0-39.39h10l3.71,22.27s8,38.25,21.41,40.82,24,1.14,22-14.28-15.41-43.67-15.41-43.67L135.1,187l-2.56-15.42-42.25,2Z"/><path d="M150.37,281.72a51,51,0,0,1-9.34-1c-13.5-2.59-21.37-39.54-21.7-41.11l-3.66-22h-9.31c0,3.08.26,24.57,0,39-.08,4.83-1.57,8.61-4.4,11.25-4.62,4.29-11.12,4-11.4,3.95s-14-1.17-12.62-26.93c1-19,3.51-29.12,4.84-34.57a32.83,32.83,0,0,0,.87-4.26c.28-3.64,6.13-28.72,6.56-30.54l-.33-2.33,43-2,2.63,15.74L148,222.26c.12.24,13.45,28.45,15.44,43.75.75,5.79-.25,10-3,12.59C158.26,280.69,155,281.72,150.37,281.72Zm-44.75-64.85h10.67l3.76,22.58c.08.36,8.09,38,21.12,40.52,9.52,1.82,15.49,1.22,18.8-1.9,2.58-2.43,3.48-6.34,2.75-12-2-15.18-15.25-43.28-15.39-43.56L134.76,187.1,132.23,172l-41.52,2,.23,1.67v.06c-.06.27-6.28,26.85-6.56,30.49a33.55,33.55,0,0,1-.89,4.38c-1.32,5.43-3.77,15.55-4.82,34.44-1.39,25,11.8,26.15,11.93,26.16s6.48.31,10.86-3.77c2.68-2.49,4.09-6.09,4.17-10.71.28-15.52,0-39.15,0-39.39Z"/><ellipse class="cls-2" cx="112.5" cy="91.96" rx="109.45" ry="87.74"/><path d="M112.5,180.2C51.88,180.2,2.55,140.61,2.55,92S51.88,3.72,112.5,3.72s110,39.58,110,88.24S173.12,180.2,112.5,180.2Zm0-175.48C52.43,4.72,3.55,43.86,3.55,92s48.88,87.24,109,87.24,109-39.14,109-87.24S172.57,4.72,112.5,4.72Z"/><line class="cls-3" x1="98.84" y1="69.14" x2="105.22" y2="72.67"/><path d="M136.71,154.31c0-9.7-7.33-23.41-25.83-23.41s-27.32,14-27.32,23.74,8.82,2,27.32,2S136.71,164,136.71,154.31Z"/><path class="cls-4" d="M135.51,153.79c0-9.14-7-22.08-24.66-22.08S84.76,145,84.76,154.1s8.42,1.84,26.09,1.84S135.51,162.94,135.51,153.79Z"/><polyline class="cls-5" points="85.17 201.49 84.7 203.93 84.37 206.13 81.27 220.9 80.13 228.46 80.77 228.46 150.08 228.6 147.53 222.65 137.88 195.46 86.44 195.46"/><path class="cls-5" d="M80.71,228h.06l68.55.13-2.25-5.24L137.53,196H86.85L85.2,204l-.34,2.18L81.76,221Z"/><path class="cls-5" d="M88.76,185.07h45.75l-.44-3.14s-.06-.6,0-3.39c0,0-17.59,1.58-20,1.51s-21.64-.76-23.74-1.77l-.79,3.39Z"/><path class="cls-5" d="M135.08,185.57h-47l1.84-8,.56.28c1.82.87,18.88,1.6,23.54,1.72,2.38.08,19.78-1.49,20-1.51l.55,0v.56c-.06,2.68,0,3.31,0,3.33Zm-45.69-1h44.54l-.35-2.57s-.06-.59,0-2.91c-3.06.27-17.31,1.51-19.51,1.46-.21,0-19.21-.6-23.37-1.63Z"/><polygon points="85.93 195.46 137.88 195.46 134.96 187.22 134.51 185.07 88.13 185.07 86.66 192.47 85.93 195.46"/><polygon points="128.26 264.69 162.78 265.28 163.16 267.97 137.59 267.36 129.51 267.36 128.26 264.69"/><circle class="cls-4" cx="53.56" cy="91.88" r="49.97"/><path d="M53.56,142.25a50.37,50.37,0,1,1,50.38-50.37A50.43,50.43,0,0,1,53.56,142.25Zm0-99.93a49.56,49.56,0,1,0,49.56,49.56A49.62,49.62,0,0,0,53.56,42.32Z"/><circle class="cls-5" cx="53.69" cy="93.35" r="46.46"/><path class="cls-5" d="M53.69,140.31a47,47,0,1,1,47-47A47,47,0,0,1,53.69,140.31Zm0-92.93a46,46,0,1,0,46,46A46,46,0,0,0,53.69,47.38Z"/><circle cx="53.56" cy="91.88" r="37.56"/><circle class="cls-4" cx="35.14" cy="102.73" r="13.79"/><path class="cls-2" d="M4.06,85.44s18-4.46,46.55-3.22c15,.64,33.6,5.27,52.53,7.75a58.29,58.29,0,0,0-3.26-16.12,45,45,0,0,0-8.74-14.33c-.7-.8-1.37-1.63-2.1-2.42a13.72,13.72,0,0,0-1.87-1.69c-.64-.46-1.28-1.11-2.11-1.83a47.06,47.06,0,0,0-8.28-5.76,49.53,49.53,0,0,0-20-5.41,54.3,54.3,0,0,0-22.92,4A51.51,51.51,0,0,0,18,57.4,48.62,48.62,0,0,0,9,70.41,62.64,62.64,0,0,0,4.06,85.44Z"/><path d="M103.6,90.48l-.52-.07c-6.67-.92-31.65-5.52-45.93-7.52-9.28-1.29-10-.46-12.06-.32-4.61.32-40.72,3.3-41,3.32l-.56,0,.09-.55A63.84,63.84,0,0,1,8.55,70.21a48.55,48.55,0,0,1,9.18-13.13l.34-.33A51,51,0,0,1,33.73,46a54.84,54.84,0,0,1,23.11-4A50,50,0,0,1,77,47.42a47.81,47.81,0,0,1,8.36,5.83l.82.73a13.38,13.38,0,0,0,1.26,1.07,13.11,13.11,0,0,1,1.93,1.75c.47.49.91,1,1.34,1.53l.78.9A45.18,45.18,0,0,1,100.3,73.7,59,59,0,0,1,103.58,90ZM47.06,81.2c18.09,0,24.33,4.19,55.61,8.26A59.3,59.3,0,0,0,99.46,74a44.3,44.3,0,0,0-8.65-14.17L90,58.9c-.43-.5-.86-1-1.32-1.5a12.49,12.49,0,0,0-1.81-1.63,13.84,13.84,0,0,1-1.33-1.14l-.8-.71a46.32,46.32,0,0,0-8.2-5.71A49.67,49.67,0,0,0,56.8,42.85,53.87,53.87,0,0,0,34.08,46.8a50.63,50.63,0,0,0-15.4,10.6l-.34.32a48.36,48.36,0,0,0-9,12.88A63.05,63.05,0,0,0,4.6,85C6.65,84.86,35.81,81.2,47.06,81.2Z"/><path class="cls-2" d="M101.78,103.19s-41,7-96.16,3c0,0-1.17-1.57,2.38,6.86a44.69,44.69,0,0,0,9.55,13.79c.75.76,1.46,1.56,2.24,2.3a12.63,12.63,0,0,0,2,1.58c.66.42,1.34,1,2.21,1.71a47.58,47.58,0,0,0,8.59,5.28A49.74,49.74,0,0,0,52.8,142a55.23,55.23,0,0,0,14.44-2,48.44,48.44,0,0,0,8.21-3.34,48.06,48.06,0,0,0,12-8.27c.87-.84,1.83-1.73,2.46-2.49.35-.43.57-.66.87-1a44.18,44.18,0,0,0,5.57-7.79,42.87,42.87,0,0,0,2.53-5c.11-.28.22-.51.34-.8.19-.46.4-1,.56-1.43C102.38,103.5,101.78,103.19,101.78,103.19Z"/><path d="M52.28,142.41a50.08,50.08,0,0,1-19.91-4.29,48.37,48.37,0,0,1-8.68-5.33l-.85-.68a14.66,14.66,0,0,0-1.32-1,12.59,12.59,0,0,1-2-1.63c-.5-.46-1-1-1.43-1.44-.27-.29-.55-.58-.83-.86A45.05,45.05,0,0,1,7.6,113.23c-3-7.15-2.79-7.28-2.36-7.53a.51.51,0,0,1,.58.07c54.4,3.94,95.48-2.94,95.89-3l.14,0,.14.07c.31.17,1,.5-1.79,7.25-.08.18-.16.38-.24.59s-.22.58-.33.84l-.15.36a4.48,4.48,0,0,0-.19.44,43.59,43.59,0,0,1-2.56,5.07,44,44,0,0,1-5.62,7.87l-.09.09c-.25.27-.45.49-.77.87a27.49,27.49,0,0,1-2.09,2.14l-.4.39a49,49,0,0,1-12.11,8.35,49.68,49.68,0,0,1-8.28,3.37,56.13,56.13,0,0,1-14.56,2ZM6,106.67c.21.71.8,2.36,2.43,6.22a44.19,44.19,0,0,0,9.45,13.65l.84.87c.45.48.91,1,1.39,1.42a12.49,12.49,0,0,0,1.9,1.52,15.45,15.45,0,0,1,1.4,1.07l.84.67a47,47,0,0,0,8.51,5.22,49.85,49.85,0,0,0,20,4.21,54.71,54.71,0,0,0,14.32-2,48.57,48.57,0,0,0,8.14-3.31,47.33,47.33,0,0,0,11.88-8.19l.41-.39c.73-.71,1.5-1.44,2-2.07.33-.4.54-.62.8-.91l.09-.08a44,44,0,0,0,5.5-7.71,43.32,43.32,0,0,0,2.51-5c.06-.17.13-.31.19-.46l.15-.35c.11-.26.22-.54.32-.82l.24-.6a28.11,28.11,0,0,0,2-6C96.65,104.47,57.24,110.36,6,106.67Z"/><path d="M70.66,111.27c0-.3.13.3-3.9.64-.85.07-1.54.2-3.19.24l-1,.06-1,.08c-.63,0-1.24,0-1.9.08-.92,0-2.21.09-3.19.13-1.28,0-4,.08-5.62,0a42.36,42.36,0,0,1-4.93-.45c-.84-.15-1.85-.25-2.63-.39a19.6,19.6,0,0,1-2.68-.59c-.91-.33-.75-.24-.77-.13-.06.39,7.37,1.9,14.2,1.76,6.53-.14,14.72-.8,15.6-1.12.15-.06.88-.23,1.07-.3Z"/><circle class="cls-4" cx="172.05" cy="89.38" r="49.97"/><path d="M172.05,139.76a50.38,50.38,0,1,1,50.37-50.38A50.44,50.44,0,0,1,172.05,139.76Zm0-99.93A49.56,49.56,0,1,0,221.6,89.38,49.61,49.61,0,0,0,172.05,39.83Z"/><circle class="cls-5" cx="172.17" cy="90.85" r="46.46"/><path class="cls-5" d="M172.17,137.82a47,47,0,1,1,47-47A47,47,0,0,1,172.17,137.82Zm0-92.93a46,46,0,1,0,46,46A46,46,0,0,0,172.17,44.89Z"/><circle cx="172.05" cy="89.38" r="37.56"/><circle class="cls-4" cx="152.48" cy="103.19" r="13.79"/><path class="cls-2" d="M122.55,82.94s22.23-8.16,51.93-6.78c14.54.68,29.11,9,47.14,11.31a57.85,57.85,0,0,0-3.26-16.12A44.79,44.79,0,0,0,209.63,57c-.7-.8-1.37-1.64-2.11-2.43a13.65,13.65,0,0,0-1.87-1.68c-.64-.46-1.28-1.12-2.11-1.84a47,47,0,0,0-8.27-5.76,49.77,49.77,0,0,0-20-5.41,54.3,54.3,0,0,0-22.92,4,51.28,51.28,0,0,0-15.86,11,48.41,48.41,0,0,0-9.09,13A62.35,62.35,0,0,0,122.55,82.94Z"/><path d="M222.08,88l-.52-.07c-18.25-2.39-33.14-9.78-47.86-10.45-.69,0-3,.31-3.68.28-27.84-1.17-47.16,5.63-47.45,5.65l-.56,0,.1-.55A63.7,63.7,0,0,1,127,67.71a48.77,48.77,0,0,1,9.18-13.13l.34-.32a51.3,51.3,0,0,1,15.66-10.77,54.73,54.73,0,0,1,23.11-4,49.74,49.74,0,0,1,20.16,5.46,47.59,47.59,0,0,1,8.36,5.82c.29.25.56.5.81.73a15.06,15.06,0,0,0,1.26,1.08,13.55,13.55,0,0,1,1.94,1.74c.46.5.9,1,1.34,1.53.25.3.51.61.77.9a45,45,0,0,1,8.82,14.47,59.8,59.8,0,0,1,3.29,16.26ZM144.66,77.75c9.25-1.12,15.84-2.19,26.51-1.7,14.59.66,31.91,8.56,50,10.91a59.25,59.25,0,0,0-3.21-15.46,43.88,43.88,0,0,0-8.65-14.18l-.78-.91c-.43-.51-.86-1-1.31-1.5a13,13,0,0,0-1.81-1.63,15.74,15.74,0,0,1-1.34-1.14c-.25-.23-.51-.47-.8-.72a46.61,46.61,0,0,0-8.19-5.71,49.67,49.67,0,0,0-19.78-5.36,53.9,53.9,0,0,0-22.72,4A50.26,50.26,0,0,0,137.17,54.9l-.35.32a48.82,48.82,0,0,0-9,12.88,62.34,62.34,0,0,0-4.74,14.37C125.13,82.37,131.82,79.49,144.66,77.75Z"/><path class="cls-2" d="M220.26,100.69s-41,7-96.16,3c0,0-1.17-1.58,2.39,6.85a45,45,0,0,0,9.54,13.8c.75.75,1.46,1.55,2.24,2.29a13.12,13.12,0,0,0,2,1.58c.66.42,1.34,1,2.21,1.71a47,47,0,0,0,8.59,5.28,50,50,0,0,0,20.25,4.25,55.71,55.71,0,0,0,14.44-2,48.29,48.29,0,0,0,8.21-3.34,47.53,47.53,0,0,0,12-8.27c.87-.84,1.83-1.73,2.46-2.49.36-.43.57-.66.87-1a42.82,42.82,0,0,0,5.57-7.79,43.53,43.53,0,0,0,2.53-5l.34-.8c.19-.46.4-1,.57-1.43C220.86,101,220.26,100.69,220.26,100.69Z"/><path d="M170.76,139.91a50,50,0,0,1-19.9-4.29,47.46,47.46,0,0,1-8.68-5.33l-.85-.68c-.49-.4-.92-.74-1.33-1a13.54,13.54,0,0,1-2-1.62c-.49-.47-1-1-1.43-1.45-.27-.29-.54-.58-.82-.86a45.06,45.06,0,0,1-9.64-13.93c-3-7.15-2.78-7.29-2.36-7.53a.5.5,0,0,1,.58.06c54.4,4,95.48-2.94,95.89-3l.15,0,.13.07c.31.16,1,.5-1.79,7.24l-.23.59c-.11.29-.23.58-.34.85l-.15.35c-.06.15-.12.29-.19.44a44.37,44.37,0,0,1-2.55,5.07,45,45,0,0,1-5.63,7.88l-.08.08c-.26.27-.46.49-.78.87a27.51,27.51,0,0,1-2.09,2.15l-.4.38a48.64,48.64,0,0,1-12.1,8.35,49.32,49.32,0,0,1-8.29,3.37,56.13,56.13,0,0,1-14.56,2Zm-46.29-35.73c.21.7.8,2.36,2.43,6.21a44.23,44.23,0,0,0,9.45,13.66q.42.42.84.87c.45.47.91,1,1.39,1.41a12.61,12.61,0,0,0,1.9,1.53,15.25,15.25,0,0,1,1.41,1.06c.26.21.53.44.83.67a47.08,47.08,0,0,0,8.51,5.23,49.82,49.82,0,0,0,20.05,4.2,55.29,55.29,0,0,0,14.33-1.94,49.3,49.3,0,0,0,8.13-3.31,47.6,47.6,0,0,0,11.89-8.2l.4-.38c.74-.71,1.5-1.45,2-2.07.33-.4.54-.63.81-.91l.08-.09a43.71,43.71,0,0,0,5.5-7.7,44.32,44.32,0,0,0,2.51-5l.19-.46.15-.35c.11-.25.22-.54.33-.82l.23-.6a28.11,28.11,0,0,0,2-6C215.13,102,175.73,107.86,124.47,104.18Z"/><path d="M189.14,108.77c0-.3.13.3-3.9.64-.85.07-1.53.2-3.19.24l-1,.06-1.05.09c-.63,0-1.24,0-1.9.08l-3.18.12c-1.29,0-4.06.08-5.63,0a42.61,42.61,0,0,1-4.93-.46c-.83-.14-1.84-.25-2.63-.39a18.21,18.21,0,0,1-2.68-.59c-.9-.32-.75-.23-.76-.13-.07.39,7.36,1.91,14.19,1.76,6.53-.14,14.72-.8,15.6-1.12.15,0,.88-.23,1.07-.3C189.15,108.76,189.14,108.78,189.14,108.77Z"/><polygon points="78.87 254.5 105.99 255.23 105.91 257.92 86.18 257.45 79.4 257.64 78.87 254.5"/><path d="M79.39,257.31l26.41.26s.31,12.79-13.33,13.86C92.47,271.43,82.87,272.6,79.39,257.31Z"/><path d="M129.35,267l33.81,1s2.82,12-10.83,13.08a23.07,23.07,0,0,1-12.25-1.33A19.73,19.73,0,0,1,129.35,267Z"/><path class="cls-2" d="M88.12,257.31s1.25,4.88,4.39,4.51S96,257.31,96,257.31Z"/><path class="cls-2" d="M142.62,266.68s2.43,5.36,5.58,5.2,4.78-5.2,4.78-5.2Z"/><polygon points="80.13 228.46 150.08 228.6 150.23 228.95 80.13 228.95 80.13 228.46"/><path class="cls-2" d="M134.66,178.05s22.52,18.44,25.59,25.67c3.14,7.39,5.09,11.12,2.46,17.89s-12.77-.48-12.77-.48-8.75-9.93-10.4-15.19-4.7-19.19-4.7-19.19Z"/><path d="M134.51,177.47l.38.32c.93.75,22.63,18.57,25.7,25.8l.56,1.31c2.84,6.67,4.41,10.34,1.89,16.83a4.53,4.53,0,0,1-3,2.92c-4.09,1.18-10.07-3.06-10.33-3.24l-.05,0c-.36-.41-8.82-10.05-10.47-15.31s-4.71-16.51-4.77-16.65l-.12-1.34ZM159,224.14a5,5,0,0,0,.86-.16,3.83,3.83,0,0,0,2.52-2.49c2.42-6.23.89-9.82-1.89-16.32l-.56-1.31c-2.78-6.57-22.14-22.76-25.11-25.23l.3,11.09c.67,1.47,3.23,11.17,4.78,16.12s9.76,14.42,10.3,15C150.63,221.18,155.42,224.46,159,224.14Z"/><path class="cls-2" d="M89.7,178.47s-29.11.49-36,4.26c-7,3.85-10.88,5.56-13,12.51S51,202.78,51,202.78s13-2.36,17.58-5.46,18.65-10.38,18.65-10.38Z"/><path d="M87.37,187.87h0c-.14.07-14.12,6.69-18.6,9.74S51.59,203,51.06,203.13H51c-.31,0-7.63-.41-10.1-3.87a4.49,4.49,0,0,1-.54-4.15c2-6.65,5.56-8.56,11.93-12l1.25-.68c6.89-3.77,35-4.28,36.16-4.3h.49ZM51,202.43c.8-.15,13.09-2.47,17.41-5.41s17.41-9.34,18.85-10.08l2-8.1c-3.86.08-29.09.78-35.34,4.2l-1.26.68C46.41,187.1,43,189,41,195.35a3.84,3.84,0,0,0,.44,3.52,5.08,5.08,0,0,0,.58.66C44.63,202,50.41,202.4,51,202.43Z"/><path class="cls-2" d="M101.28,72.65l7.41-14.54S92.1,34.66,62.05,37,19.64,48.69,19.64,48.69"/><path class="cls-2" d="M125.85,74.81l-7.41-14.54S135,36.82,165.07,39.18s42.42,11.67,42.42,11.67"/><polygon points="23.14 46.64 105.01 79.15 107.1 62.89 101.95 70.08 23.14 46.64"/><polygon points="199.4 47.91 119.83 79.49 117.11 65.3 120.6 71.36 199.4 47.91"/><path class="cls-1" d="M7.16,69.93,39,50.48,45.48,54l12.78-6.47,22.33,16,21.86-11.44,23.61,7.72,16.15-6.63,6.08,8.26L163.6,54l16.15,8.89,15.3-8,20.51,6.62S191.22-.38,111.08,4C24.64,8.73,12.32,59.72,7.16,69.93Z"/><path d="M75.23,110.91c-.08-.29.14.27-1.71,1.22a10.37,10.37,0,0,1-1.47.73c-.08,0-.41.18-.48.21s-.32.18-.48.25-.59.23-.89.37-1,.43-1.5.62a21.1,21.1,0,0,1-2.71.86c-.62.13-1.34.29-2.27.41a8.31,8.31,0,0,1-1.39.09c-.55,0-1.75.17-2.18.15a27.57,27.57,0,0,0-3.29-.18c0,.39,7.48.42,10.72-.77s6.86-3.05,7.2-3.5c.06-.08.37-.36.44-.46Z"/><path d="M166.4,114.07c0-.08,0,.08-1.34-.21-.29-.06-.53-.09-1.08-.23l-.35-.08-.35-.08-.64-.16-1.07-.26c-.43-.11-1.35-.36-1.87-.52l-1.51-.5c-.29-.1-.62-.22-.87-.33s-1.13-.41-1.39-.53c-.48-.2-2-.88-2-.86a47.77,47.77,0,0,0,6.81,2.56c2.18.57,4.95,1.17,5.26,1.17l.38,0Z"/></g></svg>
