<svg xmlns="http://www.w3.org/2000/svg" width="225" height="350" viewBox="0 0 225 350"><defs><style>.cls-1,.cls-2{fill:#f5e0cd;}.cls-2,.cls-8{stroke:#000;stroke-miterlimit:10;}.cls-3{fill:#fff;}.cls-4{fill:#74f1ff;}.cls-5{fill:none;}.cls-6{fill:#9fe8ff;}.cls-7{fill:#ff74c2;}.cls-8{fill:#008ab2;}</style></defs><g id="Layer_3" data-name="Layer 3"><polygon points="128.16 331.54 163.46 332.15 163.85 334.9 137.7 334.27 129.44 334.27 128.16 331.54"/><polygon points="77.66 321.13 105.39 321.87 105.31 324.63 85.14 324.14 78.2 324.34 77.66 321.13"/><path d="M78.2,324l27,.27s.31,13.08-13.64,14.17C91.56,338.44,81.75,339.63,78.2,324Z"/><path d="M129.28,333.93l34.57,1s2.88,12.28-11.07,13.37a23.58,23.58,0,0,1-12.53-1.36A20.13,20.13,0,0,1,129.28,333.93Z"/><path class="cls-1" d="M87.12,324s1.28,5,4.49,4.61S95.19,324,95.19,324Z"/><path class="cls-1" d="M142.84,333.58s2.49,5.49,5.71,5.32,4.89-5.32,4.89-5.32Z"/><polygon points="79.08 294.35 150.6 294.49 150.76 294.84 79.08 294.84 79.08 294.35"/><path class="cls-1" d="M89.83,240.53S83.41,268,83.11,271.76s-4.37,13.43-5.83,39.7,12.55,27.15,12.55,27.15,15.47.87,15.76-15.18,0-40.28,0-40.28h10.22l3.79,22.76s8.17,39.12,21.89,41.74S166,348.82,164,333.06s-15.76-44.66-15.76-44.66l-12.85-36.19-2.62-15.77-43.2,2.05Z"/><path d="M151,349.08a51.77,51.77,0,0,1-9.55-1.06c-13.8-2.64-21.85-40.42-22.19-42l-3.74-22.47H106c0,3.15.26,25.13,0,39.91-.09,4.94-1.61,8.81-4.51,11.5C96.73,339.32,90.09,339,89.81,339s-14.37-1.2-12.91-27.54c1.08-19.38,3.59-29.77,4.95-35.35a33.6,33.6,0,0,0,.89-4.35C83,268,89,242.37,89.45,240.51l-.34-2.38,43.94-2.08,2.68,16.09,12.83,36.14c.12.25,13.75,29.09,15.78,44.73.77,5.93-.25,10.26-3,12.88C159,348,155.67,349.08,151,349.08Zm-45.76-66.31h10.91L120,305.85c.08.38,8.28,38.89,21.59,41.44,9.74,1.86,15.85,1.24,19.23-2,2.64-2.47,3.55-6.48,2.81-12.23-2-15.52-15.6-44.26-15.73-44.55L135,252.33l-2.59-15.5-42.45,2,.24,1.71,0,.07c-.06.27-6.42,27.45-6.7,31.17a32.84,32.84,0,0,1-.92,4.48c-1.34,5.55-3.85,15.9-4.92,35.21-1.42,25.55,12.07,26.74,12.2,26.75s6.62.32,11.11-3.85c2.74-2.55,4.17-6.23,4.26-11,.28-15.86,0-40,0-40.27Z"/><ellipse class="cls-2" cx="112.25" cy="155.05" rx="111.91" ry="89.71"/><circle class="cls-3" cx="173.14" cy="150.09" r="50.61"/><path d="M173.14,201.11a51,51,0,1,1,51-51A51.08,51.08,0,0,1,173.14,201.11Zm0-101.21a50.19,50.19,0,1,0,50.19,50.19A50.25,50.25,0,0,0,173.14,99.9Z"/><circle class="cls-4" cx="170.57" cy="151.75" r="47.06"/><circle cx="162.6" cy="156.82" r="38.04"/><circle class="cls-3" cx="151.97" cy="142.86" r="13.97"/><circle class="cls-3" cx="51.36" cy="151.75" r="50.61"/><path d="M1.17,151.75A50.09,50.09,0,0,1,18.9,113.5c-.08-.29-.16-.58-.25-.86a50.91,50.91,0,0,0-2.32,76.15l.61-.57A50,50,0,0,1,1.17,151.75Z"/><path d="M100.37,137.58l-.89-.11a48.36,48.36,0,0,1,1.26,5.25,50.16,50.16,0,0,1-83.8,45.5l-.61.57a51,51,0,0,0,84-51.21Z"/><path d="M23.86,109.78a50.15,50.15,0,0,1,75.62,27.69l.89.11a51,51,0,0,0-81.72-24.94c.09.28.17.57.25.86A51.3,51.3,0,0,1,23.86,109.78Z"/><circle class="cls-4" cx="53.93" cy="153.4" r="47.06"/><circle cx="61.9" cy="158.48" r="38.04"/><circle class="cls-3" cx="75.87" cy="141.08" r="13.97"/><line class="cls-5" x1="98.29" y1="131.71" x2="104.81" y2="135.33"/><path class="cls-6" d="M90.07,250.14h44.48l-.44-3.21s-.62-.5-.56-3.35c0,0-17.38,1.83-19.85,1.77s-20.48-.73-22.62-1.77l.85,2.51Z"/><polygon points="85.63 260.76 138 260.76 135.01 252.33 134.55 250.14 90.07 250.14 86.31 257.67 85.63 260.76"/><polygon class="cls-6" points="79.33 294.5 150.6 294.49 147.93 288.49 137.94 260.75 85.57 260.75 84.36 266.48 83.73 270.06 83.43 271.79 80.28 286.76 79.11 294.5 79.33 294.5"/><path class="cls-1" d="M94.7,244.05s-6.59,23.6-10.82,27.72-6.39,6.64-11.92,5.58-3.29-11.49-3.29-11.49,4.52-9.7,7.75-12.16,11.49-11.1,11.49-11.1Z"/><path d="M95.07,243.8l-.12.41c-.27,1-6.66,23.72-10.88,27.83l-.77.74c-3.89,3.81-6,5.91-11.33,4.89a4.18,4.18,0,0,1-2.9-2.12c-2-3.43-.71-9.57-.66-9.83l0-.06c.19-.4,4.58-9.78,7.82-12.25s11.38-11,11.47-11.08l.07-.08ZM69.12,274.5a7.26,7.26,0,0,0,.36.74A3.51,3.51,0,0,0,72,277c5.09,1,7.18-1.06,11-4.78l.77-.75c3.83-3.73,9.75-24.08,10.64-27.2L88,242.94c-.85.88-8.39,8.72-11.44,11s-7.39,11.45-7.67,12C68.83,266.48,67.88,271.38,69.12,274.5Z"/><path class="cls-1" d="M132,244.05s6.6,23.6,10.82,27.72,6.39,6.64,11.92,5.58,3.29-11.49,3.29-11.49-4.51-9.7-7.75-12.16-11.49-11.1-11.49-11.1Z"/><path d="M139,242.25l.08.08c.08.09,8.27,8.65,11.46,11.08s7.64,11.85,7.82,12.25l0,.06c.06.26,1.34,6.4-.66,9.83a4.16,4.16,0,0,1-2.9,2.12c-5.3,1-7.44-1.08-11.33-4.89l-.76-.74c-4.23-4.11-10.62-26.87-10.89-27.83l-.11-.41ZM157.82,266c-.28-.6-4.6-9.71-7.67-12s-10.59-10.16-11.44-11l-6.3,1.35c.89,3.12,6.81,23.47,10.64,27.2l.77.75c3.79,3.72,5.89,5.76,11,4.78a3.51,3.51,0,0,0,2.47-1.78,5.64,5.64,0,0,0,.36-.74C158.86,271.38,157.91,266.48,157.82,266Z"/><path d="M99.23,197.63c6.16,1.43,19.08,3.56,31.13.09a1.6,1.6,0,0,1,2.07,2c-2.32,5.86-8.12,18.05-16,17.66-7.76-.38-15.55-11.74-19-17.48A1.58,1.58,0,0,1,99.23,197.63Z"/><path class="cls-7" d="M106.56,212c1.57,1.5,6.16,6.14,11.18,5.41s7.82-5.27,9.57-7.63a11,11,0,0,0,.93-1.47c.52-1.81-5.14,1.41-9.61,2.06-.38.05-2.14.2-2.59.22-4.37.15-11.18-2.8-11.38-1C104.61,210.08,105.54,211,106.56,212Z"/><path class="cls-6" d="M4,132.33l57.47-19.45s2.06-8.12,6.35-10.72l2.6,9.69,17.15-4.48S87.41,95,95.35,91.56l2.76,16.25,23.45-.89s8-12.2,10.83-16.74,13.25,16.48,13.25,16.48l19.62,2.78s1.12-6.29,2.28-10.11,12.83,13.59,12.83,13.59l35.06,7.33s-7.6-16.68-30-33.06c-18-13.19-48.65-23.1-75.75-21.83C53.76,68,36.5,89,36.5,89A103.2,103.2,0,0,0,4,132.33Z"/><path d="M3.11,133.14l.39-1A104.8,104.8,0,0,1,36.16,88.65c1-1.2,19.38-21.24,73.51-23.78,25.51-1.2,56.8,7.81,76.08,21.92C208,103.05,215.81,119.87,215.89,120l.41.9-36.23-7.57-.12-.17c-4.69-7-10.37-14.13-11.81-13.92-.06,0-.1.11-.13.19-1.13,3.75-2.25,10-2.26,10.06l-.09.47-20.36-2.88-.11-.24C142,100.44,136,90.18,133.47,90a.7.7,0,0,0-.66.41C130,94.94,122.06,107.07,122,107.19l-.14.22-24.15.91L95,92.29c-7,3.58-6.94,15-6.93,15.08v.39l-18,4.7L67.49,103c-3.7,2.8-5.55,10-5.57,10l-.06.26ZM114.3,65.76c-1.54,0-3.07,0-4.58.1-55,2.59-72.66,23.27-72.84,23.48l-.09.09a103.56,103.56,0,0,0-32,42.08l56.19-19c.41-1.46,2.49-8.32,6.51-10.76l.57-.35,2.64,9.86L87,107c0-2.21.67-12.71,8.11-15.89l.59-.25,2.79,16.44,22.75-.86c1.09-1.66,8.07-12.37,10.69-16.51a1.66,1.66,0,0,1,1.55-.88c3.82.2,11.15,14.57,12.45,17.16l18.88,2.68c.29-1.54,1.24-6.5,2.21-9.7a1.14,1.14,0,0,1,.93-.89c2.61-.39,10.22,10.53,12.68,14.19l33.85,7.07c-2-3.69-10.31-18-29.36-31.95C167.19,74.45,138.68,65.76,114.3,65.76Z"/><path class="cls-8" d="M93,68h0c-2.38.5-19.23,5.36-19.12,1.88C74,66,82.26,55.61,94.82,56.15c1.46.07,2.54,0,3.79,0a16.65,16.65,0,0,0,4.29-.55l.55-.19a2.36,2.36,0,0,1,.28-.12c4-.93,5.06-.74,10.37.5l.26.08,2.17.77.25.1a16,16,0,0,1,4,2.27c.47.33,8.11,6.18,7.65,6.74-3.61,4.3-10.27,1.41-14,1.34-5.16-.1-9.12.27-21.37.9"/><path class="cls-6" d="M90.24,56.29S85.5,27.76,108.59,19.44a22.2,22.2,0,0,1,19.17,2.17c9.79,6.05,30.18,44.84,20.11,38.39-34.21-21.91-43.66-4.78-43.66-4.78Z"/><path d="M149.67,61.22a4.12,4.12,0,0,1-2.07-.79C129.84,49.05,119,48.46,113,50s-8.33,5.46-8.36,5.5l-.13.24-.26,0-14.43,1.1-.07-.45c0-.29-4.55-29,18.67-37.4A22.54,22.54,0,0,1,128,21.18c8,4.93,23.3,31.66,23.07,38.3a1.7,1.7,0,0,1-.78,1.59A1.37,1.37,0,0,1,149.67,61.22ZM118.15,48.36c6.59,0,16.31,2.46,30,11.22,1,.61,1.5.72,1.7.61s.23-.35.25-.74c.2-5.57-14.39-32.34-22.6-37.42a21.57,21.57,0,0,0-18.74-2.12C87.91,27.42,90.21,52.1,90.67,55.75l13.24-1c.61-.93,3.12-4.3,8.81-5.74A22,22,0,0,1,118.15,48.36Z"/><polygon points="128.54 332.74 163.84 333.34 164.23 336.09 138.08 335.46 129.82 335.46 128.54 332.74"/><path d="M129.66,335.12l34.57,1s2.88,12.28-11.07,13.38a23.64,23.64,0,0,1-12.53-1.37A20.11,20.11,0,0,1,129.66,335.12Z"/><path class="cls-1" d="M143.22,334.77s2.49,5.49,5.71,5.32,4.89-5.32,4.89-5.32Z"/><polygon points="77.66 321.67 105.39 322.41 105.31 325.16 85.14 324.67 78.2 324.88 77.66 321.67"/><path d="M78.2,324.53l27,.27s.31,13.08-13.64,14.17C91.56,339,81.75,340.16,78.2,324.53Z"/><path class="cls-1" d="M87.12,324.53s1.28,5,4.49,4.61,3.58-4.61,3.58-4.61Z"/></g></svg>
