<svg xmlns="http://www.w3.org/2000/svg" width="225" height="285" viewBox="0 0 225 285"><defs><style>.cls-1{fill:#72bd59;}.cls-1,.cls-3{stroke:#000;stroke-miterlimit:10;}.cls-2,.cls-3{fill:#f5e0cd;}.cls-4{fill:#fff;}.cls-5{fill:#7ec479;}.cls-6{fill:none;}</style></defs><g id="Layer_3" data-name="Layer 3"><path class="cls-1" d="M90,227.39H69.82l-14.13-5.6-13.94,5.6-10.55-5.6-12.86,5.6a2.76,2.76,0,0,1-2.75-2.75V136a2.76,2.76,0,0,1,2.75-2.75H90A2.76,2.76,0,0,1,92.77,136v88.66A2.76,2.76,0,0,1,90,227.39Z"/><path class="cls-1" d="M137.54,224h20.21l14.13-5.61L185.82,224l10.55-5.61L209.23,224a2.75,2.75,0,0,0,2.74-2.75V132.59a2.75,2.75,0,0,0-2.74-2.75H137.54a2.75,2.75,0,0,0-2.74,2.75v88.66A2.75,2.75,0,0,0,137.54,224Z"/><path class="cls-2" d="M90.08,176.3s-6.42,27.44-6.72,31.23S79,221,77.53,247.23s12.55,27.14,12.55,27.14,15.47.88,15.76-15.17,0-40.28,0-40.28h10.22l3.79,22.76s8.17,39.12,21.89,41.74,24.52,1.17,22.48-14.59-15.76-44.66-15.76-44.66L135.61,188,133,172.21l-43.2,2Z"/><path d="M151.22,284.85a51.77,51.77,0,0,1-9.55-1.06c-13.8-2.64-21.85-40.42-22.19-42l-3.74-22.47h-9.52c0,3.15.26,25.13,0,39.91-.09,4.94-1.61,8.81-4.51,11.5-4.73,4.39-11.37,4.07-11.65,4.05s-14.37-1.21-12.91-27.54c1.08-19.38,3.59-29.77,4.95-35.35A33.33,33.33,0,0,0,83,207.5c.29-3.72,6.27-29.36,6.71-31.22l-.34-2.38,43.94-2.08L136,187.91,148.81,224c.12.26,13.75,29.1,15.78,44.74.77,5.93-.25,10.26-3,12.88C159.29,283.79,155.92,284.85,151.22,284.85Zm-45.76-66.31h10.91l3.85,23.08c.08.37,8.28,38.89,21.59,41.44,9.74,1.86,15.85,1.24,19.23-1.95,2.64-2.48,3.55-6.48,2.81-12.23-2-15.53-15.6-44.26-15.73-44.55L135.26,188.1l-2.59-15.5-42.45,2,.24,1.71,0,.07c-.06.27-6.42,27.45-6.7,31.17a32.77,32.77,0,0,1-.92,4.47c-1.34,5.56-3.85,15.91-4.92,35.22C76.48,272.8,90,274,90.1,274s6.62.32,11.11-3.85c2.74-2.55,4.17-6.24,4.26-11,.28-15.86,0-40,0-40.27Z"/><ellipse class="cls-3" cx="112.5" cy="90.82" rx="111.91" ry="89.71"/><circle class="cls-4" cx="173.39" cy="85.86" r="50.61"/><path d="M173.39,136.88a51,51,0,1,1,51-51A51.08,51.08,0,0,1,173.39,136.88Zm0-101.21a50.19,50.19,0,1,0,50.19,50.19A50.25,50.25,0,0,0,173.39,35.67Z"/><circle class="cls-5" cx="170.82" cy="87.52" r="47.06"/><circle cx="162.85" cy="92.59" r="38.04"/><circle class="cls-4" cx="138.78" cy="94.25" r="13.97"/><circle class="cls-4" cx="51.61" cy="87.52" r="50.61"/><path d="M1.42,87.52A50.13,50.13,0,0,1,19.15,49.26c-.08-.28-.16-.57-.25-.86a50.91,50.91,0,0,0-2.32,76.15c.21-.18.41-.37.61-.56A50,50,0,0,1,1.42,87.52Z"/><path d="M100.62,73.35l-.89-.11A47.8,47.8,0,0,1,101,78.49a49.72,49.72,0,0,1,.82,9A50.15,50.15,0,0,1,17.19,124c-.2.19-.4.38-.61.56a51,51,0,0,0,84-51.2Z"/><path d="M24.11,45.55A50.15,50.15,0,0,1,99.73,73.24l.89.11A51,51,0,0,0,18.9,48.4c.09.29.17.58.25.86A51.2,51.2,0,0,1,24.11,45.55Z"/><circle class="cls-5" cx="54.18" cy="89.17" r="47.06"/><circle cx="62.15" cy="94.25" r="38.04"/><circle class="cls-4" cx="38.08" cy="94.25" r="13.97"/><polygon class="cls-3" points="21.68 49.09 102.26 73.06 109.33 60.72 102.26 73.06 21.68 49.09"/><path class="cls-2" d="M102,72.52l8.1-14.17S92.6,33.68,61.88,36.09,16.14,47.16,16.14,47.16"/><path class="cls-2" d="M123.28,72.52l-8.1-14.17s17.48-24.67,48.21-22.26S207.8,47,207.8,47"/><polygon class="cls-3" points="203.36 49.09 122.79 73.06 115.71 60.72 122.79 73.06 203.36 49.09"/><line class="cls-6" x1="98.54" y1="67.48" x2="105.06" y2="71.1"/><path d="M137.25,154.57c0-9.91-7.49-23.94-26.4-23.94S82.91,145,82.91,154.9s9,2,27.94,2S137.25,164.49,137.25,154.57Z"/><path class="cls-4" d="M136,154c0-9.35-7.16-22.58-25.22-22.58S84.13,145,84.13,154.36s8.62,1.88,26.68,1.88S136,163.4,136,154Z"/><path class="cls-5" d="M88.22,186H135l-.44-3.2s-.06-.62,0-3.47c0,0-18,1.61-20.47,1.54s-22.12-.77-24.27-1.81l-.8,3.47Z"/><polygon points="85.86 196.64 138.45 196.64 135.46 188.22 135 186.02 88.22 186.02 86.53 193.55 85.86 196.64"/><polygon class="cls-5" points="80.06 230.39 150.92 230.53 148.32 224.45 138.45 196.64 85.86 196.64 84.56 202.81 84.08 205.31 83.74 207.56 80.57 222.66 79.4 230.39 80.06 230.39"/><polygon points="128.61 267.43 163.91 268.04 164.3 270.79 138.15 270.16 129.9 270.16 128.61 267.43"/><polygon points="78.11 257.02 105.84 257.76 105.76 260.51 85.59 260.03 78.65 260.23 78.11 257.02"/><path d="M78.65,259.89l27,.26S106,273.23,92,274.32C92,274.32,82.21,275.52,78.65,259.89Z"/><path d="M129.73,269.81l34.57,1s2.88,12.28-11.07,13.37a23.7,23.7,0,0,1-12.53-1.36A20.15,20.15,0,0,1,129.73,269.81Z"/><path class="cls-2" d="M87.57,259.89s1.28,5,4.49,4.6,3.59-4.6,3.59-4.6Z"/><path class="cls-2" d="M143.29,269.47s2.49,5.48,5.71,5.31,4.89-5.31,4.89-5.31Z"/><polygon points="79.4 230.39 150.92 230.53 151.08 230.89 79.4 230.89 79.4 230.39"/><path class="cls-2" d="M135.16,178.85s23,18.85,26.17,26.25c3.2,7.55,5.2,11.36,2.51,18.29s-13.06-.49-13.06-.49-8.94-10.16-10.63-15.53-4.81-19.63-4.81-19.63Z"/><path d="M135,178.25l.39.32c.94.78,23.13,19,26.27,26.39l.57,1.34c2.91,6.82,4.52,10.57,1.94,17.21a4.61,4.61,0,0,1-3.06,3c-4.19,1.21-10.3-3.12-10.56-3.31l-.06-.05c-.37-.42-9-10.28-10.7-15.66s-4.81-16.87-4.88-17l-.12-1.37ZM160,226a4.9,4.9,0,0,0,.88-.16,3.93,3.93,0,0,0,2.58-2.54c2.48-6.38.91-10.05-1.93-16.7l-.57-1.34c-2.85-6.71-22.64-23.27-25.68-25.79l.31,11.34c.68,1.5,3.3,11.42,4.88,16.48s10,14.75,10.53,15.38C151.49,223,156.38,226.3,160,226Z"/><path class="cls-2" d="M89.18,179.28s-29.75.49-36.8,4.35c-7.2,3.94-11.13,5.69-13.32,12.79s10.54,7.72,10.54,7.72,13.32-2.42,18-5.59,19.07-10.61,19.07-10.61Z"/><path d="M86.8,188.89h0c-.14.07-14.43,6.84-19,10s-17.57,5.54-18.11,5.64H49.6c-.32,0-7.8-.42-10.33-4a4.61,4.61,0,0,1-.56-4.24c2.1-6.8,5.69-8.75,12.2-12.29l1.28-.7c7.05-3.85,35.76-4.37,37-4.39h.5ZM49.57,203.77c.82-.15,13.38-2.52,17.79-5.52s17.81-9.56,19.28-10.31l2.06-8.29c-4,.09-29.75.8-36.14,4.3l-1.28.7c-6.36,3.45-9.86,5.35-11.87,11.89a3.89,3.89,0,0,0,.44,3.59,4.17,4.17,0,0,0,.59.67C43.1,203.32,49,203.74,49.57,203.77Z"/><path class="cls-1" d="M4.79,68.29,37.36,48.4,44,52,57,45.37,79.88,61.75l22.34-11.7,24.15,7.89,16.5-6.77,6.23,8.44L164.75,52l16.51,9.08,15.65-8.13,21,6.77S193-3.6,111.05.88C22.66,5.71,10.06,57.85,4.79,68.29Z"/></g></svg>
