<svg id="Layer_2" data-name="Layer 2" xmlns="http://www.w3.org/2000/svg" width="265" height="300" viewBox="0 0 265 300"><defs><style>.cls-1,.cls-2{fill:#f5e0cd;}.cls-2{stroke:#000;stroke-miterlimit:10;}.cls-3{fill:#fff;}.cls-4{fill:#9b74d0;}.cls-5{fill:none;}</style></defs><path class="cls-1" d="M115.42,191s-6.42,27.44-6.71,31.23-4.38,13.43-5.84,39.7,12.55,27.15,12.55,27.15,15.47.87,15.77-15.18,0-40.28,0-40.28H141.4l3.8,22.77s8.17,39.11,21.89,41.74,24.52,1.16,22.47-14.6-15.76-44.66-15.76-44.66L161,202.66l-2.63-15.76-43.2,2Z"/><path d="M176.57,299.53a50.92,50.92,0,0,1-9.55-1.06c-13.81-2.64-21.85-40.42-22.19-42L141.08,234h-9.51c0,3.15.26,25.13,0,39.92-.09,4.93-1.6,8.8-4.5,11.49-4.73,4.39-11.37,4.07-11.66,4.05s-14.37-1.2-12.9-27.54c1.07-19.38,3.59-29.77,4.94-35.35a33.71,33.71,0,0,0,.9-4.35c.28-3.73,6.27-29.37,6.7-31.22l-.34-2.39,44-2.08,2.68,16.1,12.83,36.13c.12.25,13.75,29.09,15.78,44.73.76,5.93-.26,10.26-3,12.88C184.64,298.47,181.27,299.53,176.57,299.53Zm-45.76-66.31h10.91l3.85,23.08c.08.38,8.27,38.89,21.59,41.44,9.73,1.86,15.84,1.24,19.23-1.94,2.63-2.48,3.55-6.49,2.8-12.24-2-15.52-15.59-44.26-15.73-44.55l-12.85-36.23L158,187.29l-42.46,2,.24,1.71v.07c-.07.27-6.42,27.45-6.71,31.17a32.46,32.46,0,0,1-.91,4.48c-1.35,5.55-3.85,15.9-4.92,35.21-1.42,25.55,12.06,26.74,12.2,26.75s6.61.32,11.1-3.85c2.74-2.55,4.18-6.23,4.26-11,.29-15.86,0-40,0-40.27Z"/><ellipse class="cls-2" cx="137.85" cy="105.5" rx="111.91" ry="89.71"/><circle class="cls-3" cx="198.73" cy="100.54" r="50.61"/><path d="M198.73,151.56a51,51,0,1,1,51-51A51.08,51.08,0,0,1,198.73,151.56Zm0-101.21a50.19,50.19,0,1,0,50.19,50.19A50.25,50.25,0,0,0,198.73,50.35Z"/><circle class="cls-4" cx="196.16" cy="102.2" r="47.06"/><circle cx="188.19" cy="107.28" r="38.04"/><circle class="cls-3" cx="170.1" cy="114.51" r="13.97"/><circle class="cls-3" cx="76.96" cy="102.2" r="50.61"/><path d="M26.77,102.2A50.09,50.09,0,0,1,44.5,64c-.09-.29-.17-.58-.26-.86a50.92,50.92,0,0,0-2.31,76.15l.6-.57A50.06,50.06,0,0,1,26.77,102.2Z"/><path d="M126,88l-.9-.12a51.47,51.47,0,0,1,1.27,5.25A50.24,50.24,0,0,1,77,152.39a50,50,0,0,1-34.43-13.72l-.6.57A51,51,0,0,0,126,88Z"/><path d="M49.46,60.23a50.16,50.16,0,0,1,75.61,27.69l.9.12a51,51,0,0,0-81.73-25c.09.28.17.57.26.86A50.1,50.1,0,0,1,49.46,60.23Z"/><circle class="cls-4" cx="79.53" cy="103.85" r="47.06"/><circle cx="87.5" cy="108.93" r="38.04"/><circle class="cls-3" cx="103.14" cy="116.17" r="13.97"/><path d="M239.09,138.73s-14.62-7.72-42-10.12-43,22.26-43,22.26l40.73,16.52Z"/><path class="cls-1" d="M239.09,139.73s-14.62-7.72-42-10.12-43,22.26-43,22.26l40.73,16.52Z"/><line class="cls-5" x1="123.88" y1="82.16" x2="130.4" y2="85.78"/><path d="M33.89,134.41s15.56-5.91,43.27-5,40.4,27.24,40.4,27.24L74.83,168.16Z"/><path class="cls-1" d="M33.89,135.15s15.53-5.91,43.19-5,40.32,27.23,40.32,27.23L74.74,168.89Z"/><path class="cls-1" d="M111.35,208.12S82.45,178.8,79.1,168c-3.42-11-5.66-16.58-1.18-25.95s17.62,2.32,17.62,2.32,10.88,15.37,12.51,23.11,9,29.18,9,29.18Z"/><path d="M111.48,209l-.49-.5c-1.18-1.2-29-29.53-32.37-40.28L78,166.24c-3.12-9.92-4.83-15.39-.54-24.37A6.31,6.31,0,0,1,82,138.08c5.81-1.17,13.57,5.67,13.9,6l.07.08c.45.64,11,15.54,12.59,23.3s8.91,28.91,9,29.12l.07.2ZM83.39,139a6,6,0,0,0-1.21.11,5.4,5.4,0,0,0-3.81,3.24c-4.12,8.63-2.45,14,.59,23.64l.61,1.95c3,9.76,27.83,35.46,31.64,39.38l5.3-10.6c-.75-2.19-7.42-21.76-9-29S95.84,145.7,95.17,144.75C94.6,144.25,88.37,139,83.39,139Z"/><path class="cls-1" d="M159.73,193.61s21.05-23.14,24.57-27.71c0,0,8.25-17.3,12-24.37s11.59-5.31,11.59-5.31S214.56,138,213,148.6a57.19,57.19,0,0,1-6.88,19.26s-9.82,13-18.08,16.12-25,14-26.92,13.76S159.73,193.61,159.73,193.61Z"/><path d="M161.14,198.24h-.08a1.69,1.69,0,0,1-1.24-.69c-1-1.23-.63-3.72-.58-4l0-.15.1-.12c.21-.23,20.95-23,24.51-27.64.48-1,8.37-17.52,12-24.34,3.87-7.33,12.07-5.58,12.15-5.56s7.11,2,5.5,13a58.53,58.53,0,0,1-7,19.45c-.43.57-10,13.16-18.33,16.32-4.24,1.61-10.67,5.23-16.34,8.43C165.66,196.37,162.29,198.24,161.14,198.24Zm-.94-4.41c-.08.74-.15,2.39.41,3.1a.73.73,0,0,0,.54.31h0c.9,0,5.84-2.78,10.2-5.24,5.7-3.21,12.16-6.85,16.47-8.49,8-3,17.77-15.82,17.86-15.95a57.22,57.22,0,0,0,6.79-19c1.49-10.06-4.68-11.81-4.75-11.83-.28-.06-7.52-1.58-11,5.06-3.69,7-11.9,24.18-12,24.35l-.06.09C181.29,170.63,162,191.86,160.2,193.83Z"/><path d="M127,141.78a37.44,37.44,0,0,0,1.53,3.5c.62,1.25,1.09,2.54,1.81,3.74,1.13,1.9,2.13,4.12,3.85,5.24s4.52.75,6.47.14c2.55-.81,4.14-3.29,5.42-5.64s2.35-4.54,3.38-6.87a.42.42,0,0,1,.8.25,28,28,0,0,1-2.95,9.05c-2.11,3.74-5.8,6.83-10.08,7.15a6.87,6.87,0,0,1-4.11-.84,10.34,10.34,0,0,1-3.39-4.26,46.33,46.33,0,0,1-3.84-8.54c-.38-1.28-.27.05-.38-1.28,0-.51.78-1.8,1.74-1"/><path class="cls-4" d="M115.67,200.59h44.48l-.45-3.21s-.62-.5-.56-3.35c0,0-17.37,1.83-19.84,1.77s-20.48-.73-22.63-1.77l.85,2.51Z"/><polygon points="111.23 211.21 163.6 211.21 160.6 202.78 160.15 200.59 115.67 200.59 111.91 208.12 111.23 211.21"/><polygon class="cls-4" points="104.92 244.95 176.2 244.94 173.52 238.94 163.54 211.21 111.17 211.21 109.96 216.93 109.33 220.51 109.03 222.24 105.88 237.21 104.71 244.95 104.92 244.95"/><polygon points="153.75 281.99 189.06 282.6 189.44 285.35 163.29 284.72 155.04 284.72 153.75 281.99"/><polygon points="103.26 271.58 130.99 272.32 130.91 275.08 110.73 274.59 103.8 274.79 103.26 271.58"/><path d="M103.79,274.45l27,.27s.31,13.08-13.64,14.17C117.16,288.89,107.35,290.08,103.79,274.45Z"/><path d="M154.88,284.38l34.56,1s2.88,12.28-11.07,13.38a23.64,23.64,0,0,1-12.53-1.37A20.07,20.07,0,0,1,154.88,284.38Z"/><path class="cls-1" d="M112.71,274.45s1.28,5,4.49,4.61,3.59-4.61,3.59-4.61Z"/><path class="cls-1" d="M168.44,284s2.48,5.49,5.71,5.32S179,284,179,284Z"/><polygon points="104.68 244.8 176.2 244.94 176.36 245.29 104.68 245.29 104.68 244.8"/><path d="M89.17,24.7a55.44,55.44,0,0,1,16.9-6.33c7.08-1,12.79-1.75,19.92.91.56,1.77,2.31,1.26,2.54,3.26,2.91,25.69-23.7,60.83-59.44,78.49-22.48,11.11-43.22,12.65-56.23,5.86C22,99.18,25.77,83.39,33.55,69.38A69.81,69.81,0,0,1,51.1,48.76c5.55-4.16,9.06-7.09,12.78-10.22,5.17-4.35,7-4.72,15.65-9.62C80.73,28.24,88.15,25.58,89.17,24.7Z"/><path d="M153.69,17c-15.2-4.28-31.87,1.24-42,9,0,2-2,2-1.5,4.15,5.73,27.5,45.09,55.74,87.91,63.07C225,97.86,246.92,93.09,258,82.07,246,76.9,240.86,59.6,228.08,47.48c-7.22-6.85-13.84-13.76-22.05-16.77-7.14-2.61-12.7-5.71-17.6-7.82-6.8-2.91-9-2.6-19.49-5C167.47,17.51,137.91,13.34,153.69,17Z"/><path d="M128.87,33.11c5.24-1,10.38-4.86,13.25-8.35-.12-.52,5.32-4.72,5-5.21-3.5-6.39-22.87-4.26-37.35-.08-9.12,2.63-21,4.69-24,9.15,4.26-.36,11.92,5.76,16.83,7.11,2.77.77,5.35,1.63,8.22,1.25,2.5-.33,4.5-.31,6.23-.46,2.41-.2,3.1-.59,6.7-1.46C124.32,34.94,134.26,31.83,128.87,33.11Z"/><ellipse cx="229.78" cy="29.15" rx="28.64" ry="33.65" transform="translate(180.55 255.48) rotate(-84.96)"/><ellipse cx="35.22" cy="39.58" rx="28.64" ry="33.65" transform="translate(-7.3 71.19) rotate(-84.96)"/><path class="cls-4" d="M34.24,70.22S68,58.55,69.87,34.75c1-12.64-11.59,19.22-27.41,25.7C29.84,65.62,27.48,72.06,34.24,70.22Z"/><path class="cls-4" d="M235,60.46s-34.88-7.75-39.44-31.18c-2.42-12.45,13.71,17.76,30.17,22.4C238.87,55.38,242,61.51,235,60.46Z"/></svg>
