<svg xmlns="http://www.w3.org/2000/svg" width="225" height="285" viewBox="0 0 225 285"><defs><style>.cls-1{fill:#c91c00;}.cls-2{fill:#f5e0cd;}.cls-3{fill:none;}.cls-4{fill:red;}.cls-5{fill:#fff;}</style></defs><g id="Layer_3" data-name="Layer 3"><path class="cls-1" d="M90.28,225.28H70.52L56.7,219.8l-13.63,5.48L32.75,219.8l-12.58,5.48a2.7,2.7,0,0,1-2.68-2.69V135.88a2.7,2.7,0,0,1,2.68-2.69H90.28A2.7,2.7,0,0,1,93,135.88v86.71A2.7,2.7,0,0,1,90.28,225.28Z"/><path d="M43,225.83l-10.31-5.48-12.56,5.43A3.19,3.19,0,0,1,17,222.59V135.88a3.19,3.19,0,0,1,3.18-3.19H90.28a3.19,3.19,0,0,1,3.19,3.19v86.71a3.19,3.19,0,0,1-3.19,3.19l-19.94,0-13.64-5.4Zm27.58-1.05H90.28a2.19,2.19,0,0,0,2.19-2.19V135.88a2.19,2.19,0,0,0-2.19-2.19H20.17A2.19,2.19,0,0,0,18,135.88v86.71a2.19,2.19,0,0,0,2.08,2.19l12.7-5.54,10.33,5.49,13.6-5.47Z"/><path class="cls-1" d="M136.76,222h19.76l13.81-5.48L184,222l10.32-5.48L206.86,222a2.7,2.7,0,0,0,2.69-2.69V132.56a2.7,2.7,0,0,0-2.69-2.69h-70.1a2.7,2.7,0,0,0-2.69,2.69v86.71A2.7,2.7,0,0,0,136.76,222Z"/><path d="M184,222.51,170.33,217l-13.81,5.44H136.76a3.19,3.19,0,0,1-3.19-3.19V132.56a3.19,3.19,0,0,1,3.19-3.19h70.1a3.19,3.19,0,0,1,3.19,3.19v86.71a3.19,3.19,0,0,1-3.19,3.19l-.2,0L194.31,217Zm-47.24-92.14a2.2,2.2,0,0,0-2.19,2.19v86.71a2.19,2.19,0,0,0,2.19,2.19h19.66l13.92-5.52,13.6,5.47,10.33-5.49L207,221.46a2.19,2.19,0,0,0,2.09-2.19V132.56a2.2,2.2,0,0,0-2.19-2.19Z"/><path class="cls-2" d="M90.33,175.31s-6.28,26.84-6.56,30.55S79.49,219,78.06,244.68s12.27,26.55,12.27,26.55,15.13.86,15.42-14.84,0-39.4,0-39.4h10l3.71,22.27s8,38.25,21.41,40.82,24,1.14,22-14.27-15.41-43.68-15.41-43.68l-12.56-35.4-2.57-15.42-42.25,2Z"/><path d="M150.14,281.47a50.12,50.12,0,0,1-9.35-1c-13.5-2.59-21.37-39.54-21.7-41.11l-3.66-22h-9.31c0,3.08.26,24.57,0,39-.09,4.83-1.57,8.62-4.41,11.25-4.62,4.29-11.12,4-11.4,4s-14-1.18-12.62-26.94c1.06-18.95,3.52-29.11,4.84-34.57a32.5,32.5,0,0,0,.87-4.26c.28-3.64,6.14-28.72,6.56-30.53L89.63,173l43-2,2.62,15.74L147.77,222c.12.25,13.45,28.45,15.44,43.75.75,5.8-.25,10-3,12.59C158,280.44,154.73,281.47,150.14,281.47Zm-44.76-64.85h10.67l3.76,22.58c.08.36,8.1,38,21.12,40.52,9.52,1.82,15.49,1.22,18.81-1.9,2.57-2.42,3.47-6.34,2.74-12-2-15.18-15.25-43.28-15.38-43.56l-12.58-35.44L132,171.7l-41.52,2,.24,1.67,0,.07c-.06.26-6.28,26.84-6.56,30.49a31.85,31.85,0,0,1-.89,4.37c-1.32,5.44-3.77,15.55-4.82,34.44-1.38,25,11.8,26.16,11.94,26.16s6.47.31,10.86-3.77c2.68-2.49,4.08-6.09,4.16-10.71.28-15.52,0-39.15,0-39.38Z"/><ellipse class="cls-2" cx="112.26" cy="91.71" rx="109.45" ry="87.74"/><path d="M112.26,180C51.64,180,2.32,140.36,2.32,91.71S51.64,3.47,112.26,3.47s110,39.59,110,88.24S172.89,180,112.26,180Zm0-175.48C52.19,4.47,3.32,43.61,3.32,91.71S52.19,179,112.26,179s109-39.14,109-87.24S172.34,4.47,112.26,4.47Z"/><line class="cls-3" x1="98.61" y1="68.89" x2="104.98" y2="72.43"/><path d="M125.47,146.49c-1.06-.13-1.06-.13-14.33-.18-18.5-.08-17.57.85-17.57.85-1.17.63-3.36,4.87,3.74,2.93,5.25-1.43,11.89-1.15,15-1.28.62,0,7.55-.52,12.71,1.28C130.94,152.18,130.56,147.1,125.47,146.49Z"/><path class="cls-4" d="M88.52,184.82h45.75l-.43-3.14s-.07-.6,0-3.39c0,0-17.59,1.58-20,1.51S92.18,179,90.08,178l-.78,3.39Z"/><path d="M134.84,185.32H87.89l1.84-8,.57.27c1.81.88,18.87,1.6,23.54,1.72,2.37.08,19.77-1.49,19.95-1.5l.55-.05v.55c-.05,2.68,0,3.31,0,3.34Zm-45.69-1H133.7l-.36-2.57s-.06-.59,0-2.91c-3.06.27-17.31,1.52-19.51,1.46-.2,0-19.2-.59-23.37-1.63Z"/><polygon points="86.21 195.21 137.65 195.21 134.72 186.97 134.27 184.82 88.52 184.82 86.87 192.18 86.21 195.21"/><polygon class="cls-4" points="80.53 228.21 149.84 228.35 147.29 222.4 137.65 195.21 86.21 195.21 84.94 201.24 84.47 203.68 84.13 205.88 81.03 220.66 79.89 228.21 80.53 228.21"/><path d="M150.6,228.85l-71.29-.14,1.23-8.13,3.1-14.8.33-2.17.48-2.47,1.35-6.43H138l9.77,27.52Zm-70.12-1.14h0l68.55.14-2.24-5.25-9.55-26.89H86.61L85,203.78,84.63,206l-3.11,14.8Z"/><polygon points="128.02 264.44 162.54 265.03 162.92 267.72 137.35 267.11 129.28 267.11 128.02 264.44"/><circle class="cls-5" cx="53.33" cy="91.63" r="49.97"/><path d="M53.33,142A50.38,50.38,0,1,1,103.7,91.63,50.44,50.44,0,0,1,53.33,142Zm0-99.93a49.56,49.56,0,1,0,49.55,49.55A49.61,49.61,0,0,0,53.33,42.08Z"/><circle class="cls-1" cx="53.45" cy="93.1" r="46.46"/><path d="M53.45,140.06a47,47,0,1,1,47-47A47,47,0,0,1,53.45,140.06Zm0-92.92a46,46,0,1,0,46,46A46,46,0,0,0,53.45,47.14Z"/><circle cx="53.33" cy="91.63" r="37.56"/><circle class="cls-5" cx="34.9" cy="102.48" r="13.79"/><path class="cls-2" d="M3.82,85.19S21.87,80.73,50.37,82c15,.65,33.61,5.27,52.53,7.75A57.85,57.85,0,0,0,99.64,73.6a44.94,44.94,0,0,0-8.73-14.33c-.71-.79-1.37-1.63-2.11-2.42a13.72,13.72,0,0,0-1.87-1.69c-.64-.45-1.28-1.11-2.11-1.83a47,47,0,0,0-8.27-5.76,49.61,49.61,0,0,0-20-5.41,54.14,54.14,0,0,0-22.92,4,51.28,51.28,0,0,0-15.86,11,48.41,48.41,0,0,0-9.09,13A62.64,62.64,0,0,0,3.82,85.19Z"/><path d="M103.36,90.23l-.52-.07c-6.67-.92-31.65-5.52-45.93-7.51-9.28-1.3-10-.47-12.06-.32-4.61.31-40.72,3.29-41,3.31l-.56,0,.1-.55A63.7,63.7,0,0,1,8.31,70a48.77,48.77,0,0,1,9.18-13.13l.34-.33A51.32,51.32,0,0,1,33.49,45.74a54.89,54.89,0,0,1,23.11-4,49.94,49.94,0,0,1,20.16,5.47A47.52,47.52,0,0,1,85.11,53c.3.25.57.5.82.73a13.38,13.38,0,0,0,1.26,1.07,13.11,13.11,0,0,1,1.93,1.75c.47.49.91,1,1.35,1.53l.77.9a45,45,0,0,1,8.82,14.47,59,59,0,0,1,3.28,16.26ZM46.82,81c18.09,0,24.33,4.19,55.61,8.26a59.18,59.18,0,0,0-3.21-15.46,43.88,43.88,0,0,0-8.65-14.18l-.78-.92c-.43-.5-.86-1-1.31-1.49a12.36,12.36,0,0,0-1.81-1.63,14.3,14.3,0,0,1-1.34-1.15l-.8-.71A46.61,46.61,0,0,0,76.34,48,49.71,49.71,0,0,0,56.56,42.6a53.89,53.89,0,0,0-22.72,3.95,50.43,50.43,0,0,0-15.39,10.6l-.35.32a48.82,48.82,0,0,0-9,12.88A63.05,63.05,0,0,0,4.36,84.72C6.41,84.61,35.58,81,46.82,81Z"/><path class="cls-2" d="M101.54,102.94s-41,7-96.16,3c0,0-1.17-1.57,2.39,6.86a45,45,0,0,0,9.54,13.8c.75.75,1.46,1.55,2.24,2.29a13.12,13.12,0,0,0,2,1.58c.66.42,1.34,1,2.21,1.71a47.58,47.58,0,0,0,8.59,5.28,50,50,0,0,0,20.24,4.25,55.79,55.79,0,0,0,14.45-2,48.29,48.29,0,0,0,8.21-3.34,47.79,47.79,0,0,0,12-8.27c.87-.84,1.83-1.73,2.46-2.49.36-.43.57-.66.87-1a42.82,42.82,0,0,0,5.57-7.79,43.53,43.53,0,0,0,2.53-5l.34-.81c.19-.46.4-1,.56-1.42C102.14,103.25,101.54,102.94,101.54,102.94Z"/><path d="M52,142.16a50,50,0,0,1-19.9-4.29,47.46,47.46,0,0,1-8.68-5.33l-.86-.68a15.12,15.12,0,0,0-1.32-1,13.06,13.06,0,0,1-2-1.62c-.49-.47-1-1-1.43-1.45-.27-.29-.54-.58-.82-.86A45.09,45.09,0,0,1,7.36,113c-3-7.15-2.78-7.28-2.36-7.52a.49.49,0,0,1,.58.06c54.4,3.94,95.48-2.94,95.89-3l.15,0,.13.07c.31.17,1,.5-1.79,7.25l-.23.59c-.11.29-.23.58-.34.84l-.15.36c-.06.14-.12.29-.19.44a42.81,42.81,0,0,1-2.56,5.07A44.48,44.48,0,0,1,90.87,125l-.08.08c-.26.27-.46.49-.78.87a27.51,27.51,0,0,1-2.09,2.15l-.4.38a48.78,48.78,0,0,1-12.11,8.35,48.84,48.84,0,0,1-8.28,3.37,56.13,56.13,0,0,1-14.56,2ZM5.75,106.43c.21.7.8,2.35,2.43,6.21a44.08,44.08,0,0,0,9.45,13.65l.84.87c.45.48.91,1,1.39,1.42a11.9,11.9,0,0,0,1.9,1.52,17,17,0,0,1,1.41,1.07l.83.67a47,47,0,0,0,8.51,5.22,49.68,49.68,0,0,0,20.05,4.21,55.29,55.29,0,0,0,14.33-1.94A49.3,49.3,0,0,0,75,136a47.6,47.6,0,0,0,11.89-8.2l.4-.39a27.39,27.39,0,0,0,2-2.07c.33-.39.54-.62.81-.9l.08-.09a43.44,43.44,0,0,0,5.5-7.71,43.32,43.32,0,0,0,2.51-5l.19-.46.15-.35c.11-.25.22-.54.33-.82l.23-.6a28.11,28.11,0,0,0,2-6C96.41,104.22,57,110.11,5.75,106.43Z"/><path d="M70.42,111c0-.3.13.3-3.9.64-.85.07-1.53.2-3.19.24l-1,.06c-.37,0-.71.07-1,.08-.63,0-1.24,0-1.9.08-.91,0-2.21.09-3.19.13-1.28,0-4,.08-5.62,0a40.27,40.27,0,0,1-4.93-.45c-.83-.14-1.85-.25-2.63-.39a18.21,18.21,0,0,1-2.68-.59c-.9-.33-.75-.24-.76-.13-.07.39,7.36,1.9,14.19,1.76,6.53-.14,14.72-.8,15.6-1.12.15,0,.88-.23,1.07-.3Z"/><circle class="cls-5" cx="171.81" cy="89.13" r="49.97"/><path d="M171.81,139.51a50.38,50.38,0,1,1,50.37-50.38A50.44,50.44,0,0,1,171.81,139.51Zm0-99.93a49.56,49.56,0,1,0,49.56,49.55A49.61,49.61,0,0,0,171.81,39.58Z"/><circle class="cls-1" cx="171.93" cy="90.6" r="46.46"/><path d="M171.93,137.57a47,47,0,1,1,47-47A47,47,0,0,1,171.93,137.57Zm0-92.93a46,46,0,1,0,46,46A46,46,0,0,0,171.93,44.64Z"/><circle cx="171.81" cy="89.13" r="37.56"/><circle class="cls-5" cx="152.25" cy="102.94" r="13.79"/><path class="cls-2" d="M122.31,82.7s22.23-8.17,51.93-6.78c14.54.68,29.11,8.94,47.14,11.3a57.85,57.85,0,0,0-3.26-16.12,44.79,44.79,0,0,0-8.73-14.32c-.7-.8-1.37-1.64-2.11-2.43a12.57,12.57,0,0,0-1.87-1.68c-.63-.46-1.28-1.11-2.1-1.84A47.43,47.43,0,0,0,195,45.07a49.73,49.73,0,0,0-20-5.41,54.24,54.24,0,0,0-22.92,4,51.4,51.4,0,0,0-15.87,11,48.8,48.8,0,0,0-9.09,13A62.88,62.88,0,0,0,122.31,82.7Z"/><path d="M221.84,87.73l-.51-.06c-18.26-2.4-33.14-9.79-47.87-10.46-.69,0-3,.31-3.68.28-27.84-1.17-47.16,5.63-47.45,5.65l-.55,0,.09-.55a63.69,63.69,0,0,1,4.92-15.15A48.9,48.9,0,0,1,136,54.33l.35-.32A51.1,51.1,0,0,1,152,43.24a54.75,54.75,0,0,1,23.12-4,49.74,49.74,0,0,1,20.15,5.46,47.59,47.59,0,0,1,8.36,5.82c.29.25.56.5.81.73.47.43.87.79,1.26,1.08a13.55,13.55,0,0,1,1.94,1.74c.46.5.9,1,1.34,1.53.26.3.51.61.77.9A45,45,0,0,1,218.54,71a58.91,58.91,0,0,1,3.29,16.26ZM144.42,77.5c9.25-1.12,15.84-2.18,26.51-1.7,14.6.66,31.91,8.56,50,10.92a59.3,59.3,0,0,0-3.21-15.47,43.88,43.88,0,0,0-8.65-14.18l-.78-.91c-.43-.51-.86-1-1.31-1.5A12.42,12.42,0,0,0,205.15,53c-.43-.32-.85-.7-1.34-1.14-.25-.23-.51-.47-.8-.72a46.61,46.61,0,0,0-8.19-5.71,49.64,49.64,0,0,0-19.77-5.35,53.76,53.76,0,0,0-22.73,4,50.26,50.26,0,0,0-15.39,10.59l-.34.33a48.54,48.54,0,0,0-9,12.87,63.54,63.54,0,0,0-4.74,14.37C124.89,82.12,131.58,79.24,144.42,77.5Z"/><path class="cls-2" d="M220,100.44s-41,7-96.16,3c0,0-1.17-1.58,2.39,6.85a44.85,44.85,0,0,0,9.55,13.8c.74.76,1.46,1.55,2.24,2.3a13.1,13.1,0,0,0,2,1.57c.67.42,1.34,1,2.21,1.71a47.13,47.13,0,0,0,8.6,5.28,49.9,49.9,0,0,0,20.24,4.25,56.15,56.15,0,0,0,14.44-2,50,50,0,0,0,8.21-3.34,48.33,48.33,0,0,0,12-8.27c.87-.85,1.82-1.74,2.45-2.5.36-.43.58-.66.88-1a43.56,43.56,0,0,0,5.56-7.78,42.88,42.88,0,0,0,2.53-5l.34-.8c.19-.46.4-1,.57-1.43C220.62,100.75,220,100.44,220,100.44Z"/><path d="M170.52,139.67a49.89,49.89,0,0,1-19.9-4.3,47.46,47.46,0,0,1-8.68-5.33c-.31-.23-.59-.46-.85-.68a14.39,14.39,0,0,0-1.32-1,13.84,13.84,0,0,1-2-1.63c-.49-.47-1-1-1.42-1.45-.28-.29-.55-.58-.83-.86a45.23,45.23,0,0,1-9.64-13.93c-3-7.15-2.78-7.29-2.35-7.53a.5.5,0,0,1,.57.06c54.41,4,95.48-2.94,95.89-3l.15,0,.13.07c.31.16,1,.5-1.79,7.25l-.23.59-.34.84-.15.35c-.06.15-.12.29-.18.45a46.1,46.1,0,0,1-2.56,5.07,44.76,44.76,0,0,1-5.63,7.87l-.08.09c-.26.27-.46.48-.77.86a29.46,29.46,0,0,1-2.09,2.15l-.4.38a54.5,54.5,0,0,1-20.4,11.72,55.68,55.68,0,0,1-14.55,2Zm-46.29-35.74c.21.7.8,2.36,2.43,6.21a44.23,44.23,0,0,0,9.45,13.66l.84.87c.46.48.91,1,1.39,1.41a13.13,13.13,0,0,0,1.9,1.53,15.72,15.72,0,0,1,1.41,1.06l.83.67a47.43,47.43,0,0,0,8.51,5.23,49.85,49.85,0,0,0,20,4.2,55.29,55.29,0,0,0,14.33-1.94,49.3,49.3,0,0,0,8.13-3.31,47.69,47.69,0,0,0,11.89-8.19l.4-.39c.74-.71,1.5-1.45,2-2.07.33-.4.54-.63.81-.91l.08-.09a48.53,48.53,0,0,0,8-12.67c.07-.16.13-.31.2-.46l.14-.34c.11-.26.22-.55.33-.83s.16-.42.24-.6a29.81,29.81,0,0,0,2-6C214.89,101.72,175.49,107.62,124.23,103.93Z"/><path d="M188.9,108.52c0-.3.13.3-3.9.64-.84.07-1.53.2-3.19.24l-1,.06-1.06.09c-.63,0-1.24,0-1.89.08-.92.05-2.21.09-3.19.12-1.29,0-4.06.08-5.63,0a42.61,42.61,0,0,1-4.93-.46c-.83-.14-1.84-.25-2.63-.39a18.21,18.21,0,0,1-2.68-.59c-.9-.32-.74-.23-.76-.12-.07.38,7.37,1.9,14.19,1.75,6.54-.14,14.72-.8,15.6-1.12.15,0,.88-.23,1.08-.3C188.92,108.51,188.9,108.53,188.9,108.52Z"/><polygon points="78.63 254.26 105.75 254.98 105.67 257.67 85.94 257.2 79.16 257.39 78.63 254.26"/><path d="M79.15,257.06l26.42.26s.3,12.79-13.34,13.86C92.23,271.18,82.64,272.35,79.15,257.06Z"/><path d="M129.12,266.77l33.8,1s2.82,12-10.82,13.08a23.1,23.1,0,0,1-12.26-1.33A19.69,19.69,0,0,1,129.12,266.77Z"/><path class="cls-2" d="M87.88,257.06s1.25,4.88,4.39,4.51,3.51-4.51,3.51-4.51Z"/><path class="cls-2" d="M142.38,266.43s2.43,5.36,5.58,5.2,4.78-5.2,4.78-5.2Z"/><polygon points="79.89 228.21 149.84 228.35 150 228.7 79.89 228.7 79.89 228.21"/><path class="cls-2" d="M134.42,177.8S157,196.24,160,203.47c3.13,7.39,5.08,11.12,2.45,17.89s-12.77-.47-12.77-.47S141,211,139.31,205.69s-4.71-19.18-4.71-19.18Z"/><path d="M134.27,177.22l.39.32c.92.75,22.62,18.57,25.69,25.8l.56,1.31c2.85,6.67,4.42,10.34,1.9,16.84a4.55,4.55,0,0,1-3,2.91c-4.09,1.18-10.07-3.05-10.32-3.23l-.06-.06c-.36-.41-8.82-10.05-10.47-15.31s-4.71-16.51-4.77-16.65l-.12-1.34Zm24.48,46.67a4.84,4.84,0,0,0,.86-.16,3.83,3.83,0,0,0,2.52-2.49c2.42-6.23.89-9.82-1.89-16.32l-.56-1.31c-2.78-6.56-22.13-22.76-25.11-25.23l.3,11.09c.67,1.47,3.23,11.18,4.78,16.12s9.76,14.42,10.3,15C150.39,220.94,155.18,224.21,158.75,223.89Z"/><path class="cls-2" d="M89.46,178.22s-29.1.49-36,4.26S42.58,188,40.44,195s10.31,7.55,10.31,7.55,13-2.37,17.58-5.47S87,186.69,87,186.69Z"/><path d="M87.13,187.62h0c-.14.08-14.11,6.69-18.6,9.74s-17.17,5.43-17.71,5.52h-.08c-.31,0-7.62-.41-10.1-3.87a4.5,4.5,0,0,1-.54-4.14c2-6.66,5.56-8.57,11.93-12l1.25-.68c6.89-3.77,35-4.28,36.16-4.3h.5ZM50.71,202.18c.81-.15,13.09-2.46,17.41-5.4S85.53,187.43,87,186.69l2-8.1c-3.86.08-29.09.78-35.34,4.2l-1.26.69c-6.21,3.37-9.63,5.23-11.61,11.62a3.87,3.87,0,0,0,.44,3.52,5.08,5.08,0,0,0,.58.66C44.39,201.74,50.18,202.15,50.71,202.18Z"/><path class="cls-2" d="M101,72.4l7.41-14.54S91.86,34.41,61.82,36.77,19.4,48.44,19.4,48.44"/><path class="cls-2" d="M125.62,74.56,118.2,60s16.59-23.45,46.64-21.09S207.25,50.6,207.25,50.6"/><polygon points="22.91 46.39 104.77 78.9 106.86 62.65 101.71 69.84 22.91 46.39"/><polygon points="199.16 47.66 119.59 79.24 116.87 65.05 120.36 71.11 199.16 47.66"/><path class="cls-1" d="M6.92,69.68,38.77,50.23l6.47,3.5L58,47.26l22.33,16,21.85-11.44,23.61,7.72L142,52.94l6.08,8.25,15.31-7.46,16.15,8.89,15.3-8,20.51,6.62S191-.63,110.84,3.75C24.4,8.48,12.08,59.47,6.92,69.68Z"/><path d="M5.68,71l.79-1.57c.48-1,1-2.24,1.7-3.89,6.59-15.86,24.08-58,102.65-62.31C152.39,1,178.71,16.82,193.48,30.51c16,14.83,22.25,30.43,22.31,30.59l.39,1L194.86,55.2l-15.36,8L163.35,54.3,147.9,61.82l-6.1-8.27-16,6.54-.17-.06-23.42-7.65L80.32,63.86,58,47.84,45.24,54.3l-6.45-3.49ZM118.74,4q-3.84,0-7.87.22C32.93,8.51,15.61,50.24,9.1,66c-.39.92-.72,1.73-1,2.44L38.76,49.65l6.49,3.52,12.82-6.49,22.33,16L102.16,51.3,125.8,59l16.34-6.69,6.07,8.23,15.17-7.39,16.14,8.88,15.25-7.93,19.66,6.35a95.76,95.76,0,0,0-21.67-29.26C179.1,18.55,155.42,4,118.74,4Z"/><path d="M75,110.66c-.07-.29.14.27-1.71,1.22a9.84,9.84,0,0,1-1.47.73l-.48.22c-.17.08-.32.17-.48.24l-.89.37c-.43.19-1,.43-1.5.62a19.49,19.49,0,0,1-2.7.86c-.63.13-1.35.3-2.28.41a9.54,9.54,0,0,1-1.38.1c-.55,0-1.75.17-2.19.14a27.43,27.43,0,0,0-3.28-.18c0,.39,7.47.42,10.71-.77s6.87-3.05,7.2-3.5c.06-.08.37-.36.44-.46S75,110.67,75,110.66Z"/><path d="M166.16,113.82c0-.08,0,.08-1.34-.21-.29-.06-.52-.09-1.08-.23l-.34-.08-.36-.08-.64-.16-1.07-.26c-.43-.1-1.35-.35-1.87-.52s-.9-.28-1.5-.5c-.3-.1-.63-.22-.88-.33s-1.12-.41-1.39-.52c-.48-.21-2-.89-2-.87a47.77,47.77,0,0,0,6.81,2.56c2.19.57,5,1.17,5.26,1.17l.38,0Z"/></g></svg>
