<svg xmlns="http://www.w3.org/2000/svg" width="250" height="310" viewBox="0 0 250 310"><defs><style>.cls-1,.cls-3{fill:#f5e0cd;}.cls-2{fill:#fcda33;}.cls-3,.cls-6,.cls-8{stroke:#000;stroke-miterlimit:10;}.cls-4{fill:#fff;}.cls-5{fill:#b08874;}.cls-6{fill:#9c7761;}.cls-7{fill:#ff74c2;}.cls-8{fill:#ff8d0a;}.cls-9{fill:#ffab5f;}</style></defs><g id="Layer_3" data-name="Layer 3"><path class="cls-1" d="M98.71,200S92.29,227.43,92,231.22s-4.38,13.43-5.84,39.7,12.55,27.14,12.55,27.14,15.47.88,15.77-15.17,0-40.29,0-40.29h10.21l3.8,22.77s8.17,39.12,21.89,41.74,24.52,1.17,22.47-14.59-15.76-44.66-15.76-44.66l-12.84-36.2-2.63-15.76-43.2,2Z"/><path d="M159.86,308.54a51.77,51.77,0,0,1-9.55-1.06c-13.81-2.64-21.85-40.42-22.19-42L124.38,243h-9.52c0,3.15.26,25.13,0,39.91-.09,4.94-1.6,8.81-4.5,11.5-4.73,4.39-11.37,4.07-11.66,4.05-.14,0-14.36-1.21-12.9-27.54,1.08-19.38,3.59-29.77,4.94-35.35a33.77,33.77,0,0,0,.9-4.36c.28-3.72,6.27-29.37,6.7-31.22L98,197.59l44-2.08,2.68,16.09,12.83,36.13c.12.26,13.75,29.1,15.78,44.74.76,5.93-.26,10.26-3,12.88C167.93,307.48,164.56,308.54,159.86,308.54ZM114.1,242.23H125l3.85,23.08c.08.37,8.27,38.88,21.59,41.43,9.73,1.87,15.84,1.25,19.23-1.94,2.63-2.48,3.55-6.48,2.8-12.23-2-15.53-15.59-44.26-15.73-44.55L143.9,211.79l-2.59-15.5-42.46,2,.24,1.71v.06c-.07.28-6.42,27.46-6.71,31.18a30.93,30.93,0,0,1-.91,4.47c-1.34,5.56-3.85,15.91-4.92,35.22-1.42,25.55,12.06,26.74,12.2,26.75s6.61.32,11.1-3.85c2.74-2.55,4.18-6.24,4.26-11,.29-15.87,0-40,0-40.27Z"/><polygon class="cls-2" points="88.21 253.96 159.49 253.94 156.81 247.95 146.83 220.21 94.46 220.21 93.25 225.94 92.62 229.52 92.32 231.25 89.17 246.22 88 253.96 88.21 253.96"/><polygon points="137.04 291 172.35 291.61 172.73 294.36 146.58 293.73 138.33 293.73 137.04 291"/><polygon points="86.55 280.59 114.28 281.33 114.2 284.08 94.03 283.6 87.09 283.8 86.55 280.59"/><path d="M87.08,283.46l27,.27s.31,13.07-13.64,14.17C100.45,297.9,90.64,299.09,87.08,283.46Z"/><path d="M138.17,293.38l34.56,1s2.88,12.28-11.07,13.37a23.58,23.58,0,0,1-12.53-1.36A20.14,20.14,0,0,1,138.17,293.38Z"/><path class="cls-1" d="M96,283.46s1.29,5,4.49,4.61,3.59-4.61,3.59-4.61Z"/><path class="cls-1" d="M151.73,293s2.48,5.48,5.71,5.32,4.88-5.32,4.88-5.32Z"/><polygon points="87.97 253.81 159.49 253.94 159.65 254.3 87.97 254.3 87.97 253.81"/><polygon points="94.5 220.32 147.09 220.32 144.1 211.89 143.64 209.7 96.86 209.7 95.17 217.23 94.5 220.32"/><path class="cls-2" d="M96.86,209.7h46.69l-.78-4.12s-.17-1.74-.53-3.73a28.48,28.48,0,0,1-.8-4.78s-20.06,3.85-22.53,3.78c-2,0-11.94.51-17.13.29a10.51,10.51,0,0,1-2.88-.29l-1,4.47-.17.72-.32,1.41Z"/><ellipse class="cls-3" cx="124.4" cy="107.92" rx="111.91" ry="89.71" transform="translate(-30.5 52) rotate(-21.09)"/><circle class="cls-4" cx="170.95" cy="89.05" r="61.11"/><path d="M171,150.65a61.61,61.61,0,1,1,61.6-61.6A61.67,61.67,0,0,1,171,150.65Zm0-122.21a60.61,60.61,0,1,0,60.6,60.61A60.68,60.68,0,0,0,171,28.44Z"/><ellipse class="cls-4" cx="52.81" cy="132.56" rx="35.03" ry="54.35" transform="translate(-39.81 24.01) rotate(-18.75)"/><path d="M62.8,185.75c-16.83,0-35.21-17-43.64-41.77-9.72-28.64-2.53-57.06,16-63.36S76.74,92.5,86.46,121.14h0c9.72,28.64,2.54,57.06-16,63.36A23.71,23.71,0,0,1,62.8,185.75ZM42.86,80.37a22.79,22.79,0,0,0-7.36,1.2c-18,6.12-24.93,34-15.39,62.09s32,46,50,39.89,24.94-34,15.39-62.09h0C77.23,97.07,59.25,80.37,42.86,80.37Z"/><circle class="cls-2" cx="174.57" cy="86.86" r="56.82"/><circle cx="174.22" cy="87.18" r="45.93"/><circle class="cls-4" cx="177.49" cy="89.01" r="16.87"/><path class="cls-2" d="M84.33,119.5c2.73,8.06,4.76,15.87,4.86,23.23,0,1.62,1.09.93.62,6.1-.24,2.58-.58,5.42-.83,7-.72,4.74-.93,5.83-2.82,9.44A22.71,22.71,0,0,1,83,169.7c-2.38,2.8-7.56,5.3-10.91,6.44-15.61,5.3-35.41-11.47-44.23-37.45S24.49,87.35,40.1,82.05,75.51,93.52,84.33,119.5Z"/><path d="M84.47,118.58c.27.8,3.29,6.14,3,11.87a18.07,18.07,0,0,1-.1-2.89c.24.6,1,4.5,1.28,6,1.1,5.15,1.94,8.54,1.63,10.39A30.69,30.69,0,0,1,88,152.13a52.55,52.55,0,0,1-4,6.27,31.8,31.8,0,0,1-2.75,3.85c-2,2.44-6.5,4.61-9.4,5.59-13.45,4.56-30.62-10.2-38.36-33S30.41,89.92,43.86,85.35C53.73,82,65.6,89.05,74.28,102,77.43,106.75,82.41,112.51,84.47,118.58Z"/><ellipse class="cls-4" cx="68.39" cy="129.13" rx="13.63" ry="14.78"/><path class="cls-5" d="M232.48,88.65c0,16.18-25.48-4.76-55-4.13-31.92.69-68.07,21.63-68.07,4.13,0-33.69,27.55-61,61.53-61S232.48,55,232.48,88.65Z"/><path d="M117.74,96.11c-2.73,0-4.91-.49-6.43-1.67s-2.39-3.17-2.39-5.79c0-33.92,27.83-61.51,62-61.51s62,27.59,62,61.51c0,2.72-.7,4.56-2.14,5.61-3.27,2.38-9.71.32-18.63-2.54-9.7-3.11-21.76-7-34.71-6.7-12.63.27-25.79,3.7-37.41,6.72C131,94.09,123.27,96.11,117.74,96.11Zm53.21-68c-33.65,0-61,27.14-61,60.51,0,2.32.65,4,2,5,4.24,3.28,15.21.42,27.92-2.88,11.67-3,24.9-6.47,37.64-6.75,13.09-.28,25.26,3.62,35,6.75,8.32,2.66,14.88,4.77,17.74,2.68,1.16-.85,1.73-2.42,1.73-4.8C232,55.28,204.6,28.14,171,28.14Z"/><path class="cls-6" d="M84.92,117c2.41,7.1-18.37.67-32.11,5.33-13.3,4.52-31.79,28.79-34.43,21-9.65-28.42-2.62-56.51,15.7-62.73S75.27,88.56,84.92,117Z"/><path d="M142.72,152.93c3.92,9.11,2.58,25-14.79,32.43s-31.34-2.14-35.26-11.24,7.5-5.4,24.87-12.88S138.8,143.83,142.72,152.93Z"/><path class="cls-7" d="M138.25,176.78c1,2.25-4.95,6.27-10.21,8.54s-11.69,3.55-12.66,1.3,3.89-7.18,9.15-9.45S137.28,174.53,138.25,176.78Z"/><path class="cls-8" d="M16,107.61s-2.26,13.32-.55,23.73c.68,4.16,3,9.39,4.13,13.31.3,1,.84,2.26,1.06,2.88s.5,1.22.91,2.24c4.87,11.94,13.65,28.4,36.17,39.8a95.47,95.47,0,0,0,8.91,4,105.11,105.11,0,0,0,12.69,4.06s3.75,1.06,9,2c3,.51,6.27.93,10.25,1.25l-4.64,19.5L91.52,232.8l-3.34,16.07a169.34,169.34,0,0,0-2,19.77,80.47,80.47,0,0,0,1.16,17.82S71.58,288,62.89,281.57s2-15.07,2-15.07-17.88,2.29-26.06-2.3-10-9.27-9.19-13.28c2-9.86,14.92-12.27,19.36-15.63.51-.39,2.08-1.85,2.7-2.47,2-2.08,5.26-7.53,3.1-17.15-2.46-11-1.7-11-7.29-21.23a25.72,25.72,0,0,0-4-5.41L20.81,165.34a64.19,64.19,0,0,1-10.73-16.73c-4-9.11-6.58-21.78-7.57-34.25,0,0-2-28.91,14.15-52.45,14.4-21,34.23-40.86,63.86-49.8S120.11,2.4,120.11,2.4,151.78.1,166.34,4.19,208,19.45,216.4,27.43c7.49,7.08,23.49,17.37,30.13,44.19s-4.85,60.15-4.85,60.15-8.71,33-12,39.63a42.66,42.66,0,0,0-3.9,21.53l.53,27.39S225.39,233,220,238.15c-6.32,5.95-5.54,10.92-15.76,12.19,0,0-.33,8.24-12.59,10.79s-17.25-.83-17.25-.83l-10.2,3.3-6.93-15.74-6.86-20.43-5.62-15.83-2.41-14.9c2.93-1.19,3.46-.86,5.4-1.49,3.24-1.06,6.64-2.81,9.08-3.59,4.84-1.55,6.91-3.45,10.46-4.53a30.18,30.18,0,0,0,8-3.81c3.23-2.08,6.63-3.81,10.56-7,2.74-2.22,5.79-4.33,9.93-7.62a33.53,33.53,0,0,0,4.92-4.09c22.55-26.55,21-26.72,21-26.72s16.64-28.61,11.55-53.34c0,0-.7-14.23-16.3-24s-88.5,40.53-78.44,0c0,0-36.83,17.89-52.93-.74,0,0-5.08-6.89,1.82-23.22s15.84-15.68,15.84-15.68S69.14,29.77,51.31,69.11C38.85,96.6,24.68,105,15.61,107.92"/><path class="cls-3" d="M98.22,200.89c-2.4-.65-22.7-6.19-26.57-8,0,0-10.59-8.44-15.27-11.81s-12.16-.47-12.16-.47-6.31,2.63-3.25,8.63,9.52,9.94,9.52,9.94,11.52,5.48,20.08,5.43,23.76,1.21,25.66.63c1.63-.49,1.83-3,1.83-3.92C98.06,201.19,98.36,200.92,98.22,200.89Z"/><path class="cls-9" d="M114.69,282.34s3.06.45,8.58-5.06c0,0,5.2.84,7.35-2.44l-2.5-9.89-1.8-10.77-11.4-.05Z"/><path d="M114.87,282.72h-.23l-.33,0,.38-28.8,12,.19,1.81,10.84,2.54,10-.09.14c-2.05,3.11-6.54,2.75-7.54,2.62C118.68,282.35,115.7,282.72,114.87,282.72Zm.42-28.54L115.07,282c.9-.07,3.66-.68,7.93-4.95l.14-.13.19,0s4.84.74,6.89-2.14l-2.46-9.72-1.82-10.87Z"/><path class="cls-1" d="M141.59,198.4c.06,4.06.27,18.47.06,22.24a2.34,2.34,0,0,1-.12.63c-.62,1.88-3.86,11.84-5.1,16.3s2.68,6.89,3.59,7.42a3.17,3.17,0,0,0,.42.19c1,.33,4.85,1.21,8.53-3.67a33.36,33.36,0,0,0,5.49-11.8c0-.13,0-.25,0-.39.1-1.43.63-10.55-2.12-15.2-3-5.05-6.91-17.36-8.08-18.12a1.94,1.94,0,0,0-2,.15A2.61,2.61,0,0,0,141.59,198.4Z"/><path d="M147.85,203a92.5,92.5,0,0,0,4.86,11c2.83,4.78,2.27,14,2.16,15.42a2.38,2.38,0,0,1-.06.37,33.65,33.65,0,0,1-5.54,11.92c-4.38,5.82-9.18,3.7-9.24,3.67s-5.38-2.76-4-7.87c1.23-4.41,4.46-14.32,5.1-16.28a2.34,2.34,0,0,0,.12-.64c.24-4.41-.08-23-.08-23.24v-.1l.41-.8a3.17,3.17,0,0,1,1.9-.9,1.48,1.48,0,0,1,1,.21l.05,0C145.21,196.28,146.14,198.61,147.85,203ZM142,221v.07c0,.11-3.84,11.72-5.2,16.59-1.29,4.63,3.4,7.06,3.59,7.15,0,0,4.26,1.88,8.29-3.47a33.29,33.29,0,0,0,5.43-11.65,2.57,2.57,0,0,0,.06-.4c.1-1.48.6-10.49-2.08-15a90.79,90.79,0,0,1-4.91-11.13c-1.2-3-2.55-6.49-3-6.88h0a.58.58,0,0,0-.45-.09,1.52,1.52,0,0,0-.5.18,2.48,2.48,0,0,0-1.19,2.23C142,203,142.24,217.84,142,221Z"/></g></svg>
