<svg xmlns="http://www.w3.org/2000/svg" width="225" height="350" viewBox="0 0 225 350"><defs><style>.cls-1,.cls-2{fill:#f5e0cd;}.cls-2,.cls-6{stroke:#000;stroke-miterlimit:10;}.cls-3{fill:#fff;}.cls-4{fill:#008ab2;}.cls-5{fill:none;}.cls-6{fill:#b1deff;}.cls-7{fill:#ff74c2;}</style></defs><g id="Layer_3" data-name="Layer 3"><polygon points="128.16 331.54 163.46 332.15 163.85 334.9 137.7 334.27 129.44 334.27 128.16 331.54"/><polygon points="77.66 321.13 105.39 321.87 105.31 324.63 85.14 324.14 78.2 324.34 77.66 321.13"/><path d="M78.2,324l27,.27s.31,13.08-13.64,14.17C91.56,338.44,81.75,339.63,78.2,324Z"/><path d="M129.28,333.93l34.57,1s2.88,12.28-11.07,13.37a23.58,23.58,0,0,1-12.53-1.36A20.13,20.13,0,0,1,129.28,333.93Z"/><path class="cls-1" d="M87.12,324s1.28,5,4.49,4.61S95.19,324,95.19,324Z"/><path class="cls-1" d="M142.84,333.58s2.49,5.49,5.71,5.32,4.89-5.32,4.89-5.32Z"/><polygon points="79.08 294.35 150.6 294.49 150.76 294.84 79.08 294.84 79.08 294.35"/><path class="cls-1" d="M89.83,240.53S83.41,268,83.11,271.76s-4.37,13.43-5.83,39.7,12.55,27.15,12.55,27.15,15.47.87,15.76-15.18,0-40.28,0-40.28h10.22l3.79,22.76s8.17,39.12,21.89,41.74S166,348.82,164,333.06s-15.76-44.66-15.76-44.66l-12.85-36.19-2.62-15.77-43.2,2.05Z"/><path d="M151,349.08a51.77,51.77,0,0,1-9.55-1.06c-13.8-2.64-21.85-40.42-22.19-42l-3.74-22.47H106c0,3.15.26,25.13,0,39.91-.09,4.94-1.61,8.81-4.51,11.5C96.73,339.32,90.09,339,89.81,339s-14.37-1.2-12.91-27.54c1.08-19.38,3.59-29.77,4.95-35.35a33.6,33.6,0,0,0,.89-4.35C83,268,89,242.37,89.45,240.51l-.34-2.38,43.94-2.08,2.68,16.09,12.83,36.14c.12.25,13.75,29.09,15.78,44.73.77,5.93-.25,10.26-3,12.88C159,348,155.67,349.08,151,349.08Zm-45.76-66.31h10.91L120,305.85c.08.38,8.28,38.89,21.59,41.44,9.74,1.86,15.85,1.24,19.23-2,2.64-2.47,3.55-6.48,2.81-12.23-2-15.52-15.6-44.26-15.73-44.55L135,252.33l-2.59-15.5-42.45,2,.24,1.71,0,.07c-.06.27-6.42,27.45-6.7,31.17a32.84,32.84,0,0,1-.92,4.48c-1.34,5.55-3.85,15.9-4.92,35.21-1.42,25.55,12.07,26.74,12.2,26.75s6.62.32,11.11-3.85c2.74-2.55,4.17-6.23,4.26-11,.28-15.86,0-40,0-40.27Z"/><ellipse class="cls-2" cx="112.25" cy="155.05" rx="111.91" ry="89.71"/><circle class="cls-3" cx="173.14" cy="150.09" r="50.61"/><path d="M173.14,201.11a51,51,0,1,1,51-51A51.08,51.08,0,0,1,173.14,201.11Zm0-101.21a50.19,50.19,0,1,0,50.19,50.19A50.25,50.25,0,0,0,173.14,99.9Z"/><circle class="cls-4" cx="170.57" cy="151.75" r="47.06"/><circle cx="162.6" cy="156.82" r="38.04"/><circle class="cls-3" cx="180.48" cy="150.71" r="13.97"/><circle class="cls-3" cx="51.36" cy="151.75" r="50.61"/><path d="M1.17,151.75A50.09,50.09,0,0,1,18.9,113.5c-.08-.29-.16-.58-.25-.86a50.91,50.91,0,0,0-2.32,76.15l.61-.57A50,50,0,0,1,1.17,151.75Z"/><path d="M100.37,137.58l-.89-.11a48.36,48.36,0,0,1,1.26,5.25,50.16,50.16,0,0,1-83.8,45.5l-.61.57a51,51,0,0,0,84-51.21Z"/><path d="M23.86,109.78a50.15,50.15,0,0,1,75.62,27.69l.89.11a51,51,0,0,0-81.72-24.94c.09.28.17.57.25.86A51.3,51.3,0,0,1,23.86,109.78Z"/><circle class="cls-4" cx="53.93" cy="153.4" r="47.06"/><circle cx="61.9" cy="158.48" r="38.04"/><circle class="cls-3" cx="81.51" cy="152.25" r="13.97"/><line class="cls-5" x1="98.29" y1="131.71" x2="104.81" y2="135.33"/><path class="cls-4" d="M90.07,250.14h44.48l-.44-3.21s-.62-.5-.56-3.35c0,0-17.38,1.83-19.85,1.77s-20.48-.73-22.62-1.77l.85,2.51Z"/><polygon points="85.63 260.76 138 260.76 135.01 252.33 134.55 250.14 90.07 250.14 86.31 257.67 85.63 260.76"/><polygon class="cls-4" points="79.33 294.35 150.6 294.33 147.93 288.36 137.94 260.75 85.57 260.75 84.36 266.45 83.73 270.02 83.43 271.74 80.28 286.64 79.11 294.35 79.33 294.35"/><path class="cls-1" d="M94.7,244.05s-6.59,23.6-10.82,27.72-6.39,6.64-11.92,5.58-3.29-11.49-3.29-11.49,4.52-9.7,7.75-12.16,11.49-11.1,11.49-11.1Z"/><path d="M95.07,243.8l-.12.41c-.27,1-6.66,23.72-10.88,27.83l-.77.74c-3.89,3.81-6,5.91-11.33,4.89a4.18,4.18,0,0,1-2.9-2.12c-2-3.43-.71-9.57-.66-9.83l0-.06c.19-.4,4.58-9.78,7.82-12.25s11.38-11,11.47-11.08l.07-.08ZM69.12,274.5a7.26,7.26,0,0,0,.36.74A3.51,3.51,0,0,0,72,277c5.09,1,7.18-1.06,11-4.78l.77-.75c3.83-3.73,9.75-24.08,10.64-27.2L88,242.94c-.85.88-8.39,8.72-11.44,11s-7.39,11.45-7.67,12C68.83,266.48,67.88,271.38,69.12,274.5Z"/><path class="cls-1" d="M132,244.05s6.6,23.6,10.82,27.72,6.39,6.64,11.92,5.58,3.29-11.49,3.29-11.49-4.51-9.7-7.75-12.16-11.49-11.1-11.49-11.1Z"/><path d="M139,242.25l.08.08c.08.09,8.27,8.65,11.46,11.08s7.64,11.85,7.82,12.25l0,.06c.06.26,1.34,6.4-.66,9.83a4.16,4.16,0,0,1-2.9,2.12c-5.3,1-7.44-1.08-11.33-4.89l-.76-.74c-4.23-4.11-10.62-26.87-10.89-27.83l-.11-.41ZM157.82,266c-.28-.6-4.6-9.71-7.67-12s-10.59-10.16-11.44-11l-6.3,1.35c.89,3.12,6.81,23.47,10.64,27.2l.77.75c3.79,3.72,5.89,5.76,11,4.78a3.51,3.51,0,0,0,2.47-1.78,5.64,5.64,0,0,0,.36-.74C158.86,271.38,157.91,266.48,157.82,266Z"/><polygon points="128.54 332.74 163.84 333.34 164.23 336.09 138.08 335.46 129.82 335.46 128.54 332.74"/><path d="M129.66,335.12l34.57,1s2.88,12.28-11.07,13.38a23.64,23.64,0,0,1-12.53-1.37A20.11,20.11,0,0,1,129.66,335.12Z"/><path class="cls-1" d="M143.22,334.77s2.49,5.49,5.71,5.32,4.89-5.32,4.89-5.32Z"/><polygon points="77.66 321.67 105.39 322.41 105.31 325.16 85.14 324.67 78.2 324.88 77.66 321.67"/><path d="M78.2,324.53l27,.27s.31,13.08-13.64,14.17C91.56,339,81.75,340.16,78.2,324.53Z"/><path class="cls-1" d="M87.12,324.53s1.28,5,4.49,4.61,3.58-4.61,3.58-4.61Z"/><path class="cls-4" d="M3.62,132.25,61.09,112.8s2-8.12,6.35-10.72l2.6,9.69,17.15-4.47S87.05,94.88,95,91.48l2.76,16.25,23.45-.89s8-12.2,10.83-16.73,13.25,16.48,13.25,16.48l19.62,2.77s1.12-6.29,2.28-10.11S180,112.85,180,112.85l35.06,7.32s-7.61-16.68-30-33c-18-13.2-48.65-23.1-75.75-21.83C53.41,67.92,36.15,89,36.15,89A103.12,103.12,0,0,0,3.62,132.25Z"/><path d="M2.93,132.56l.39-1A104.8,104.8,0,0,1,36,88.07c1-1.2,19.38-21.24,73.51-23.78,25.52-1.2,56.8,7.81,76.08,21.92,22.22,16.26,30.06,33.08,30.13,33.25l.41.9-36.22-7.57-.12-.17c-4.7-7-10.4-14.13-11.82-13.92,0,0-.09.11-.12.19-1.13,3.75-2.25,10-2.26,10.06l-.09.47-20.36-2.88-.11-.24c-3.18-6.44-9.18-16.7-11.73-16.84-.17,0-.41,0-.65.41-2.83,4.49-10.75,16.62-10.83,16.74l-.14.22-24.15.91-2.73-16c-7,3.58-6.93,15-6.92,15.08v.39l-18,4.7-2.54-9.49c-3.7,2.8-5.55,10-5.57,10l-.07.27-.25.08ZM114.12,65.18c-1.55,0-3.07,0-4.58.1-55,2.59-72.67,23.27-72.84,23.48l-.1.09A103.68,103.68,0,0,0,4.65,130.93l56.19-19c.41-1.46,2.48-8.32,6.51-10.76l.57-.35,2.64,9.86,16.3-4.25c0-2.21.67-12.71,8.11-15.89l.58-.25,2.8,16.44,22.75-.86c1.09-1.66,8.07-12.37,10.69-16.51a1.69,1.69,0,0,1,1.55-.88c3.82.2,11.15,14.57,12.45,17.16l18.88,2.68c.29-1.55,1.24-6.5,2.21-9.7a1.14,1.14,0,0,1,.93-.89H168c2.76,0,10.13,10.61,12.54,14.19L214.34,119C212.39,115.28,204,101,185,87,167,73.87,138.5,65.18,114.12,65.18Z"/><path class="cls-4" d="M3.15,132.07h0a104.87,104.87,0,0,1,32.66-43.5c1-1.19,19.38-21.24,73.51-23.78,25.51-1.2,56.8,7.82,76.08,21.93C207.62,103,215.46,119.8,215.53,120l.41.9-36.22-7.57-.12-.16c-4.7-7-10.37-14.13-11.82-13.93-.05,0-.09.11-.12.19-1.13,3.76-2.25,10-2.26,10.06l-.09.48L145,107l-.11-.23c-3.18-6.44-9.18-16.71-11.73-16.84-.18,0-.41,0-.65.4-2.83,4.49-10.75,16.63-10.83,16.75l-.14.21-24.15.92-2.73-16c-7,3.58-6.93,15-6.92,15.08v.39l-18,4.7-2.54-9.49c-3.7,2.81-5.55,10-5.57,10l-.42-.38ZM114,65.68c-1.55,0-3.07,0-4.58.11-55,2.58-72.67,23.26-72.84,23.47l-.1.09A103.77,103.77,0,0,0,4.48,131.43l56.19-19c.41-1.46,2.49-8.32,6.51-10.76l.57-.34,2.64,9.85,16.3-4.25c0-2.21.67-12.7,8.11-15.89l.58-.25,2.8,16.44,22.75-.85C122,104.7,129,94,131.62,89.84a1.67,1.67,0,0,1,1.55-.87c3.82.2,11.15,14.56,12.45,17.16l18.88,2.67c.29-1.54,1.24-6.5,2.21-9.69a1.14,1.14,0,0,1,.93-.9c2.61-.39,10.22,10.54,12.68,14.19l33.85,7.07c-1.95-3.69-10.31-18-29.36-31.95C166.83,74.37,138.33,65.68,114,65.68Z"/><path d="M3.62,132.07H3.15A107.17,107.17,0,0,1,35.93,88.2c1.21-1.35,19.92-21.38,73.84-23.91,25.62-1.2,57,7.86,76.39,22C208.47,102.64,215.92,119.8,216,120l.41.89-36.49-7.61h0c-5.09-7.59-10.31-13-11.7-13.6-1.1,3.76-2.35,9.74-2.36,9.8l.23.32-20.67-2.72-.48-.46c-3.89-7.89-9.41-16-11.39-16.12,0,0-.09,0-.2.17-2.7,4.27-10.43,15.22-11.26,16.48l-.14.22-24.15.91L94.71,93c-6.08,3.77-6.06,14.18-6.06,14.29v.78L69.79,113l-2.46-9.21c-3.18,3-4.79,9.2-5.29,9.14l-1-.24Zm.46.18,3-1ZM114.42,66.18c-1.54,0-3.07,0-4.56.11-54.59,2.56-72.3,23.09-72.48,23.29l-.14.14A102.84,102.84,0,0,0,5.83,130.6L60.73,112c.54-1.86,2.67-8.39,6.66-10.8l1.14-.69,2.68,10,15.46-4c.11-2.82,1-12.81,8.4-16l1.17-.5,2.82,16.64,22.06-.83c2-3.13,8.13-12.49,10.54-16.3a2.2,2.2,0,0,1,2-1.1c3.91.2,10.61,12.91,12.76,17.2l18.15,2.57c.36-1.88,1.24-6.33,2.13-9.28A1.65,1.65,0,0,1,168,97.72c2.71-.42,9.3,8.66,13.06,14.23l32.59,6.81c-2.76-4.93-11.16-18-28.7-30.83C167.2,74.92,138.85,66.18,114.42,66.18Zm66.06,46.67h0l-.11-.17a107.89,107.89,0,0,0-7.67-10.26,124.82,124.82,0,0,1,7.78,10.43ZM67.36,102.45c-3.52,2.61-5.39,8.83-5.74,10.1l-.07.25h0c0-.1,1.89-7.37,5.75-10.31Zm.55-.37,2.59,9.69,17.15-4.47c0-.12-.06-11.8,7.2-15.53l.11-.06c-6.71,3.33-7.26,13.22-7.31,15.21v.38L70.5,111.77Zm92,6.51,5.44.77s.59-3.27,1.34-6.48c-.59,2.52-1.07,5.05-1.25,6l-.09.47Zm-14.18-2-.12-.24a91.84,91.84,0,0,0-7.74-13.1A107.39,107.39,0,0,1,145.75,106.59Zm-22.08-2.81h0Zm0,0h0Zm9-13.86a1.91,1.91,0,0,0-.15.21c-1.9,3-6.13,9.52-8.81,13.65,2.58-4,6.88-10.59,8.81-13.65A1.91,1.91,0,0,1,132.65,89.9Zm35.62,8.8h0ZM95.46,91.48l.66,3.88-.66-3.88Zm38.08-2h.06l.23,0-.22,0a.85.85,0,0,0-.16,0Zm-96.73-.75-.16.18-.08.07,0,0,0,0A1.14,1.14,0,0,1,36.81,88.72ZM154.4,71.83a114.08,114.08,0,0,1,29.83,14.33A114.05,114.05,0,0,0,154.4,71.83Zm-44.22-6.56-.37,0c-2.09.1-4.14.22-6.13.37q3-.22,6.13-.37Z"/><path class="cls-4" d="M167,68.85s9.7-27.25,33.92-23.32a22.2,22.2,0,0,1,15.71,11.2c5.63,10,4.63,53.86-1,43.33C196.28,64.3,179.7,74.69,179.7,74.69Z"/><path d="M217.2,102.18h0c-.71,0-1.38-.63-2-1.88-10-18.56-19.22-24.35-25.18-25.94s-9.94.73-10,.75l-.22.15-13.39-6.15.15-.43c.1-.28,10.12-27.6,34.47-23.65A22.6,22.6,0,0,1,217,56.48c4.58,8.18,5,39,1.58,44.69A1.71,1.71,0,0,1,217.2,102.18Zm-31.49-29.4a17.65,17.65,0,0,1,4.45.6C196.32,75,205.8,80.92,216,99.82c.53,1,1,1.36,1.19,1.36s.37-.19.58-.53c2.87-4.77,3.11-35.26-1.6-43.68A21.6,21.6,0,0,0,200.81,46c-21.87-3.54-31.84,19.15-33.2,22.57l12.07,5.54A13,13,0,0,1,185.71,72.78Z"/><path class="cls-4" d="M216.53,102a4.06,4.06,0,0,1-1.41-1.7c-10-18.56-19.22-24.35-25.18-25.94s-9.94.73-10,.75l-.22.15-.25-.11-13.14-6,.15-.43c.1-.28,10.12-27.6,34.47-23.65A22.6,22.6,0,0,1,217,56.48c4.58,8.18,5,39,1.58,44.69a1.71,1.71,0,0,1-1.45,1A1.27,1.27,0,0,1,216.53,102ZM195.22,75.46C201,78.66,208.29,85.53,216,99.82c.54,1,1,1.36,1.2,1.36s.37-.19.58-.53c2.87-4.77,3.11-35.26-1.6-43.68A21.6,21.6,0,0,0,200.81,46c-21.87-3.55-31.84,19.15-33.2,22.57l12.07,5.54c1-.52,4.81-2.25,10.48-.75A22.33,22.33,0,0,1,195.22,75.46Z"/><path d="M217.2,102.68h0a2,2,0,0,1-.87-.24,4.59,4.59,0,0,1-1.62-1.9c-9.91-18.4-19-24.13-24.85-25.7s-9.44.61-9.6.7l-.45.28-14.05-6.45.31-.86c.1-.28,10.24-28,35-24a23.08,23.08,0,0,1,16.43,11.7c2.5,4.47,3.63,15.07,3.85,23.5.22,7.91-.26,18.33-2.28,21.68A2.15,2.15,0,0,1,217.2,102.68Zm-.06-1h.06c.35,0,.69-.26,1-.77,2.31-3.84,2.83-19.24,1.49-31.21.34,3.15.55,6.68.62,10.47.15,8-.45,18-2.11,20.74-.32.52-.66.78-1,.77ZM185.7,72.28a17.86,17.86,0,0,1,4.59.62A22.67,22.67,0,0,1,195.46,75h0c7.32,4.07,14.38,12.33,21,24.57a3.9,3.9,0,0,0,.74,1,1.54,1.54,0,0,0,.17-.24c2.84-4.71,3.06-34.84-1.61-43.17a21.09,21.09,0,0,0-15-10.71C180,43.15,170,64.22,168.25,68.33l11.41,5.24A13.88,13.88,0,0,1,185.7,72.28ZM196.78,77c5.08,3.34,11.18,9.58,17.64,21C208.8,88.05,202.88,81,196.78,77ZM167,68.85l12.73,5.84c.17-.1,4-2.34,9.92-.93a13.87,13.87,0,0,0-9.71.81l-.22.12Zm29.28-23.71c-18.6,0-27.41,19.13-29,23C168.74,64.52,179,42,200.89,45.53A22.05,22.05,0,0,1,216.4,56.37a22,22,0,0,0-15.51-10.84A29.05,29.05,0,0,0,196.25,45.14Z"/><path class="cls-6" d="M162.78,78.63h0c-2.33-.72-19.42-4.65-17.63-7.64,2-3.34,14.2-8.4,24.92-1.83,1.25.77,2.22,1.25,3.33,1.82a15.88,15.88,0,0,0,4,1.6l.57.1c.1,0,.21,0,.31,0,3.95,1.12,4.78,1.81,8.82,5.46a1.8,1.8,0,0,1,.19.2l1.52,1.72.17.22a15.44,15.44,0,0,1,2.38,3.91c.25.53,4.1,9.35,3.42,9.61-5.24,2-9.65-3.75-12.91-5.63-4.45-2.59-8.1-4.19-19.11-9.58"/><path class="cls-4" d="M57.77,68.85S48.07,41.6,23.85,45.53A22.23,22.23,0,0,0,8.14,56.73c-5.62,10-4.62,53.86,1,43.33C28.47,64.31,45,74.69,45,74.69Z"/><path d="M7.54,102.18a1.74,1.74,0,0,1-1.42-1c-3.43-5.7-3-36.51,1.58-44.68A22.54,22.54,0,0,1,23.77,45c24.34-4,34.38,23.36,34.47,23.64l.16.43L45,75.26l-.23-.14s-3.92-2.37-10-.76S19.64,81.74,9.63,100.3c-.67,1.25-1.35,1.87-2.06,1.88ZM28.48,45.65a29,29,0,0,0-4.55.37A21.57,21.57,0,0,0,8.58,57C3.86,65.39,4.1,95.88,7,100.65c.2.34.39.51.57.53s.66-.36,1.2-1.35C18.94,80.92,28.43,75,34.59,73.38c5.67-1.49,9.5.23,10.48.75l12.07-5.54C55.87,65.41,47.2,45.65,28.48,45.65Z"/><path class="cls-4" d="M7.58,102.18a1.68,1.68,0,0,1-1.46-1c-3.43-5.7-3-36.51,1.58-44.68A22.56,22.56,0,0,1,23.77,45C48.12,41.09,58.15,68.4,58.24,68.68l.16.43-13.15,6-.24.11-.23-.14s-3.92-2.37-10-.76S19.64,81.74,9.63,100.3A4.08,4.08,0,0,1,8.21,102,1.26,1.26,0,0,1,7.58,102.18Zm27-28.8c5.67-1.49,9.5.23,10.48.75l12.07-5.54C55.77,65.17,45.8,42.48,23.93,46A21.58,21.58,0,0,0,8.58,57C3.86,65.39,4.1,95.88,7,100.65c.2.34.41.54.57.53s.66-.36,1.2-1.35c7.71-14.3,15-21.17,20.78-24.37A22.14,22.14,0,0,1,34.59,73.38Z"/><path d="M7.54,102.68a2.16,2.16,0,0,1-1.85-1.25c-2-3.36-2.49-13.78-2.28-21.69.23-8.43,1.36-19,3.86-23.5a23,23,0,0,1,16.42-11.7c24.79-4,34.93,23.69,35,24l.3.87L45,75.82l-.45-.28s-3.81-2.24-9.59-.69S20,82.14,10.07,100.54a4.59,4.59,0,0,1-1.62,1.9,1.83,1.83,0,0,1-.86.24h0Zm0-1h0a.8.8,0,0,0,.36-.09.8.8,0,0,1-.36.09ZM5.89,64c-2.3,12.14-2,32.42.66,36.9a2.45,2.45,0,0,0,.4.51,2.45,2.45,0,0,1-.4-.51C4.21,97,3.58,76.4,5.89,64ZM28.41,46.15a27.21,27.21,0,0,0-4.4.37A21.1,21.1,0,0,0,9,57.22c-4.66,8.33-4.44,38.46-1.6,43.17a2,2,0,0,0,.17.25,4.14,4.14,0,0,0,.73-1C14.9,87.35,22,79.09,29.28,75a23,23,0,0,1,5.18-2.13,15.24,15.24,0,0,1,10.62.68l11.41-5.24C54.89,64.53,46.2,46.15,28.41,46.15ZM28,77c-6.09,4-12,11-17.62,21C16.8,86.56,22.89,80.33,28,77Zm11-3.7a12.23,12.23,0,0,1,6,1.4h0l-.22-.12a13.76,13.76,0,0,0-9.5-.85A16.26,16.26,0,0,1,39,73.29Zm18.77-4.44L45.08,74.68l12.69-5.83ZM28.44,45.15c18.68,0,27.61,19.5,29.05,23C55.72,63.84,45.58,42,23.85,45.53A22,22,0,0,0,8.48,56.15,22,22,0,0,1,23.85,45.53,28.4,28.4,0,0,1,28.44,45.15Z"/><path class="cls-6" d="M63.67,78.63h0C66,77.91,83.08,74,81.29,71c-2-3.34-14.2-8.4-24.92-1.83-1.24.77-2.22,1.25-3.33,1.82a16,16,0,0,1-4,1.6l-.57.1c-.1,0-.21,0-.31,0-3.95,1.12-4.78,1.81-8.82,5.46a1.89,1.89,0,0,0-.2.2L37.61,80.1l-.17.22a15.74,15.74,0,0,0-2.38,3.91c-.25.53-4.09,9.35-3.42,9.61,5.24,2,9.66-3.75,12.91-5.63C49,85.62,52.66,84,63.67,78.63"/><path d="M132.19,201.13c0,7.51-5.67,18.11-20,18.11s-21.13-10.86-21.13-18.36,6.82-1.51,21.13-1.51S132.19,193.63,132.19,201.13Z"/><path class="cls-7" d="M122,216.37c0,1.85-5.31,2.87-9.65,2.87s-9.18-1-9.18-2.87,4.84-3.83,9.18-3.83S122,214.52,122,216.37Z"/></g></svg>
