<svg id="Layer_2" data-name="Layer 2" xmlns="http://www.w3.org/2000/svg" width="265" height="300" viewBox="0 0 265 300"><defs><style>.cls-1{fill:#f5e0cd;}.cls-2{fill:#fff;}.cls-3{fill:#9b74d0;}</style></defs><path class="cls-1" d="M237.9,122.94c0,49.55-50.1,94.72-111.9,94.72S14.09,172.49,14.09,122.94,64.19,33.23,126,33.23,237.9,73.4,237.9,122.94Z"/><path d="M126,218.16c-29.66,0-57.88-10.26-79.46-28.9C25.6,171.18,13.59,147,13.59,122.94,13.59,73.2,64,32.73,126,32.73S238.4,73.2,238.4,122.94c0,24.07-12,48.24-33,66.32C183.87,207.9,155.65,218.16,126,218.16Zm0-184.43c-61.43,0-111.41,40-111.41,89.21,0,23.78,11.88,47.67,32.6,65.56C68.6,207,96.58,217.16,126,217.16S183.4,207,204.8,188.5c20.72-17.89,32.6-41.78,32.6-65.56C237.4,73.75,187.43,33.73,126,33.73Z"/><circle class="cls-2" cx="173.97" cy="118.2" r="56.22"/><path d="M174,174.88a56.68,56.68,0,1,1,56.68-56.68A56.74,56.74,0,0,1,174,174.88Zm0-112.44a55.76,55.76,0,1,0,55.76,55.76A55.82,55.82,0,0,0,174,62.44Z"/><circle class="cls-3" cx="171.12" cy="120.04" r="52.28"/><circle cx="160.47" cy="118.2" r="42.26"/><circle class="cls-2" cx="150.93" cy="118.2" r="15.52"/><path d="M101.63,183.67a20.18,20.18,0,0,1,.52-2.57,23.54,23.54,0,0,1,.5-2.66c.52-2.16.84-4.63,2.09-6.14s3.81-1.78,5.71-1.6c2.47.23,4.52,2.37,6.25,4.45s3.24,4,4.76,6.16c.3.41.84,0,.64-.44a32.14,32.14,0,0,0-4.93-8.45c-2.83-3.28-6.9-5.56-10.78-4.92a5.75,5.75,0,0,0-3.44,1.77c-1.15,1.32-1.56,3.24-1.92,5.06-.61,3.11-.16,1.3-.66,4.7a36.42,36.42,0,0,0-.35,3.79c.09.52.71,2.71,1.37,1.69"/><ellipse cx="204.73" cy="38.53" rx="28.64" ry="33.65" transform="translate(100.93 219.15) rotate(-70.77)"/><path class="cls-2" d="M104.19,114.49c0,31.05-24.33,55.18-56.23,56.22-7.12.24-9-.21-12-1-2.65-.76-6.56-1.65-9.14-5.57-7-10.69-15-33.44-12-50.7C18.33,92.94,23,82.71,34.07,73.6a32.92,32.92,0,0,1,21.33-8C86.46,65.63,104.19,83.44,104.19,114.49Z"/><path d="M44.6,171.28a26.66,26.66,0,0,1-8.72-1.13l-.47-.13c-2.71-.76-6.42-1.79-9-5.64-6.86-10.44-15.15-33.18-12.11-51.06A110.24,110.24,0,0,1,19.28,93.5,45.19,45.19,0,0,1,33.75,73.22,33.36,33.36,0,0,1,55.4,65.13c31.32,0,49.29,18,49.29,49.36S80.31,170.15,48,171.21C46.7,171.26,45.58,171.28,44.6,171.28ZM55.4,66.13a32.4,32.4,0,0,0-21,7.86c-10.71,8.85-15.52,18.82-19.05,39.5-3,17.41,5.38,40.33,12,50.34,2.33,3.54,5.83,4.51,8.39,5.22l.47.13c3,.84,4.82,1.27,11.8,1,31.77-1,55.74-25,55.74-55.72S86.09,66.13,55.4,66.13Z"/><path class="cls-3" d="M103,115.66a52.28,52.28,0,0,1-52.28,52.28,39.08,39.08,0,0,1-22.51-7.59c-3.75-2.87-6.23-8.41-8.12-12.69a62.72,62.72,0,0,1-5.3-23.23,57,57,0,0,1,.08-7.37c0-.48.13-1,.16-1.55a67.87,67.87,0,0,1,3.3-15.87c3.44-11.21,9.25-18.35,18.09-24.41,5-3.39,12.51-5.59,20.76-5.59C86.06,69.64,103,86.78,103,115.66Z"/><path d="M89.58,115.55a44.33,44.33,0,0,1-44.33,44.33,33.08,33.08,0,0,1-19.08-6.44c-3.19-2.44-6.39-7.06-8-10.69-2.53-5.7-3.05-12.12-3.38-19.77a46.7,46.7,0,0,1,.07-6.24c0-.41.1-.89.13-1.32a63.89,63.89,0,0,1,2.68-14.16c2.92-9.5,8-14.85,15.46-20,4.21-2.88,10.61-4.74,17.6-4.74C75.21,76.53,89.58,91.06,89.58,115.55Z"/><circle class="cls-2" cx="62.24" cy="109.93" r="15.52"/><path class="cls-1" d="M15,115.51s26.92-11.06,88.65-3a59.89,59.89,0,0,0-3.31-18.78c-2.63-7.39-7.45-15-15.34-19.87a51.36,51.36,0,0,0-25.68-7.65c-22.34-1-31,12.94-34.93,19C18.54,94.27,15,115.51,15,115.51Z"/><path d="M14.4,116.32l.14-.89C14.69,114.56,18.13,94,24,85l.21-.32c4.19-6.45,12.92-19.86,35.16-18.91A51.83,51.83,0,0,1,85.3,73.46c8.87,5.43,13.35,13.94,15.55,20.12a61.09,61.09,0,0,1,3.34,19v.56l-.56-.07c-31.79-4.17-54.13-3.14-67.28-1.55C22.1,113.2,15.29,116,15.23,116ZM57.18,66.68C37.09,66.68,29,79.11,25.06,85.19l-.21.31c-5.1,7.84-8.45,25.22-9.17,29.25,5-1.72,32.59-9.9,87.5-2.79a60.73,60.73,0,0,0-3.27-18c-2.15-6-6.51-14.32-15.13-19.6a51,51,0,0,0-25.44-7.58C58.61,66.69,57.89,66.68,57.18,66.68Z"/><path class="cls-1" d="M118.21,111s49.76-3,111.48,5.1A65.37,65.37,0,0,0,226,97.93a50.29,50.29,0,0,0-9.83-16.11c-.79-.9-1.54-1.84-2.37-2.73a14.7,14.7,0,0,0-2.1-1.9c-.72-.51-1.44-1.25-2.37-2.06A53.78,53.78,0,0,0,200,68.64a55.89,55.89,0,0,0-22.47-6.08,61,61,0,0,0-25.79,4.49,57.54,57.54,0,0,0-17.85,12.38,54.49,54.49,0,0,0-10.22,14.63A70.52,70.52,0,0,0,118.21,111Z"/><path d="M230.21,116.65l-.58-.08a658.76,658.76,0,0,0-111.39-5.09l-.63,0,.1-.62a71.88,71.88,0,0,1,5.55-17.06,54.72,54.72,0,0,1,10.33-14.77l.38-.37a57.77,57.77,0,0,1,17.62-12.12,61.77,61.77,0,0,1,26-4.52,56.14,56.14,0,0,1,22.68,6.14,54.13,54.13,0,0,1,9.41,6.55c.33.29.63.57.91.83A18.22,18.22,0,0,0,212,76.79a15.15,15.15,0,0,1,2.18,2c.52.56,1,1.14,1.51,1.72l.87,1a50.68,50.68,0,0,1,9.92,16.27,66.38,66.38,0,0,1,3.7,18.31ZM142.13,110a689.54,689.54,0,0,1,87,5.54,66.55,66.55,0,0,0-3.61-17.4,49.54,49.54,0,0,0-9.73-15.95c-.3-.34-.59-.69-.88-1-.48-.57-1-1.14-1.48-1.69a13.76,13.76,0,0,0-2-1.83c-.48-.36-1-.79-1.5-1.28l-.9-.81a52.58,52.58,0,0,0-9.22-6.43,55.8,55.8,0,0,0-22.25-6A60.61,60.61,0,0,0,152,67.5a57.1,57.1,0,0,0-17.32,11.92l-.39.37a54.52,54.52,0,0,0-10.11,14.49,70.3,70.3,0,0,0-5.34,16.17C121.11,110.33,129.48,110,142.13,110Z"/><path class="cls-1" d="M228.4,130.34s-46.12,7.9-108.21,3.38c0,0-1.31-1.77,2.69,7.71A50.55,50.55,0,0,0,133.62,157c.84.85,1.65,1.75,2.53,2.58a13.78,13.78,0,0,0,2.21,1.78c.74.47,1.51,1.16,2.48,1.92a53.64,53.64,0,0,0,9.67,5.94A56.19,56.19,0,0,0,173.29,174a63.09,63.09,0,0,0,16.25-2.21,61,61,0,0,0,22.74-13.06c1-.95,2.05-1.95,2.76-2.81.4-.48.65-.74,1-1.1a48.81,48.81,0,0,0,6.26-8.76,47.44,47.44,0,0,0,2.85-5.65c.13-.32.25-.58.39-.9.21-.52.45-1.15.63-1.61C229.07,130.69,228.4,130.34,228.4,130.34Z"/><path d="M172.7,174.46a56.28,56.28,0,0,1-22.4-4.83,53.65,53.65,0,0,1-9.76-6c-.35-.26-.66-.52-1-.76a15.89,15.89,0,0,0-1.49-1.13,15.78,15.78,0,0,1-2.29-1.83c-.55-.53-1.08-1.09-1.6-1.64l-.93-1a50.75,50.75,0,0,1-10.85-15.68c-3.39-8-3.13-8.2-2.65-8.47a.57.57,0,0,1,.65.07c61.22,4.44,107.44-3.31,107.9-3.39l.16,0,.15.07c.35.19,1.08.57-2,8.16-.08.2-.17.43-.27.66s-.25.65-.37.95l-.17.4c-.07.16-.14.32-.21.5a56.7,56.7,0,0,1-9.21,14.56l-.1.1c-.28.31-.51.55-.86,1a32.56,32.56,0,0,1-2.35,2.41l-.46.43a54.91,54.91,0,0,1-13.62,9.4,56.25,56.25,0,0,1-9.32,3.79,62.9,62.9,0,0,1-16.38,2.23Zm-52.09-40.21c.24.79.9,2.65,2.73,7A49.69,49.69,0,0,0,134,156.61c.32.32.63.65.94,1,.51.54,1,1.08,1.57,1.6a13.21,13.21,0,0,0,2.14,1.71,18.93,18.93,0,0,1,1.58,1.2c.29.24.6.49.94.75a52.11,52.11,0,0,0,9.57,5.88,56,56,0,0,0,22.56,4.74,62.19,62.19,0,0,0,16.12-2.19,54.38,54.38,0,0,0,9.15-3.73,53.58,53.58,0,0,0,13.38-9.21l.45-.44a32.55,32.55,0,0,0,2.28-2.33c.37-.45.61-.7.91-1l.09-.1a49,49,0,0,0,6.19-8.67,47.79,47.79,0,0,0,2.82-5.59l.22-.51.17-.39c.12-.29.24-.62.36-.93s.19-.47.27-.68c1.77-4.35,2.18-6.09,2.26-6.75C222.63,131.76,178.28,138.4,120.61,134.25Z"/><path class="cls-1" d="M101.29,130.63s-47.77-5-85.82,1.57c0,0,.07,2.29,1.73,8.62,1.85,7,1.56,6.73,4.47,12.86.73,1.55,2.42,4.53,3,5.6s2.83,5.26,3.57,5.87A15.77,15.77,0,0,0,30.51,167c2.57,1.67,5.3,2.41,9.3,3.1,1.07.19.64.28,7.1.18a62.8,62.8,0,0,0,16.26-2.2,56,56,0,0,0,9.23-3.76c6-3,9.66-5.42,12.73-8.39a25.67,25.67,0,0,0,2.14-2c.4-.49,2-2,2.31-2.4a45.93,45.93,0,0,0,6.28-8.44,21.62,21.62,0,0,0,2-3.64c.13-.32,1.08-2.27,1.21-2.59.21-.52.49-1.24.7-1.69A20.58,20.58,0,0,0,101.29,130.63Z"/><path d="M43,170.81a12.33,12.33,0,0,1-2.93-.17l-.31-.06c-4-.69-6.8-1.43-9.49-3.17A12.17,12.17,0,0,1,28.45,166a6.93,6.93,0,0,0-.54-.49c-1-.8-3.68-6-3.71-6-.19-.37-.51-1-.89-1.65-.72-1.31-1.61-2.94-2.09-4a41.4,41.4,0,0,1-3.84-10.39c-.19-.73-.4-1.57-.66-2.56-1.66-6.31-1.75-8.63-1.75-8.72l0-.44.43-.07c37.69-6.49,85.48-1.62,86-1.57l.54.05-.1.54a20.81,20.81,0,0,1-1.55,4.67c-.14.29-.31.71-.47,1.11l-.22.55c-.06.16-.32.7-.59,1.26s-.56,1.16-.62,1.33a11.13,11.13,0,0,1-1.2,2.33c-.22.33-.47.73-.83,1.36A46.58,46.58,0,0,1,90,151.88l-.65.67c-.59.59-1.39,1.4-1.64,1.71a8.36,8.36,0,0,1-1.2,1.15c-.27.23-.58.48-1,.87-3.14,3-6.86,5.49-12.86,8.47a55.36,55.36,0,0,1-9.32,3.8,63.35,63.35,0,0,1-16.38,2.22C45.15,170.8,43.89,170.81,43,170.81ZM16,132.62a57.72,57.72,0,0,0,1.69,8.07c.26,1,.47,1.83.66,2.56a40,40,0,0,0,3.77,10.21c.47,1,1.36,2.62,2.07,3.92.38.69.71,1.3.9,1.67a38.28,38.28,0,0,0,3.45,5.71c.24.2.42.37.6.54a10.57,10.57,0,0,0,1.64,1.27c2.55,1.65,5.27,2.36,9.12,3l.33.06c.69.14,1,.2,6.68.11A61.83,61.83,0,0,0,63,167.58a54.63,54.63,0,0,0,9.15-3.72c5.89-2.94,9.55-5.34,12.61-8.3.42-.41.74-.68,1-.92a7.16,7.16,0,0,0,1.07-1c.28-.34,1.06-1.14,1.7-1.78l.63-.64a45.67,45.67,0,0,0,6.21-8.35c.37-.66.64-1.07.86-1.41a10.72,10.72,0,0,0,1.11-2.17c.07-.17.36-.78.65-1.38l.57-1.21.22-.54c.16-.42.34-.87.49-1.18a19.68,19.68,0,0,0,1.35-3.88C95.24,130.55,51.28,126.64,16,132.62Z"/><path d="M51.51,133.44c0,.34-.17-.34,4.68-.88,1-.11,1.83-.28,3.83-.39l1.24-.11,1.26-.14,2.29-.16c1.1-.09,2.65-.19,3.83-.27,1.55-.11,4.89-.25,6.78-.22a55,55,0,0,1,6,.32c1,.13,2.23.2,3.18.34a22.4,22.4,0,0,1,3.26.55c1.1.33.91.23.92.11.07-.44-9-1.84-17.18-1.41-7.87.41-17.71,1.48-18.75,1.87-.19.07-1.06.3-1.29.39Z"/><path d="M164.18,137.89c0-.34.14.34-4.39.72-.95.08-1.72.23-3.59.27l-1.15.07-1.19.1-2.13.09-3.59.14c-1.45.06-4.56.09-6.33,0a47.9,47.9,0,0,1-5.55-.51c-.94-.16-2.07-.28-3-.44a21.64,21.64,0,0,1-3-.66c-1-.37-.84-.27-.86-.15-.08.44,8.29,2.14,16,2,7.35-.15,16.56-.9,17.55-1.26.17-.06,1-.26,1.21-.34C164.19,137.88,164.18,137.9,164.18,137.89Z"/><path d="M63.52,48c4.79-2.2,15.23-7.47,20.68-9,6.87-2,13.32-3.62,27.28-5.69,0,0,21.67-.87,21.63,1.15-.61,25.84-43.7,55.71-81.5,68.35-23.78,8-36.7,15.11-48.67,6.62-5.07-4.12-1,.18,10-11.49,5.78-6.14,4-3.94,6.15-7,3.23-4.59,4.36-6.53,7.55-10.21,4-4.65,7.9-12.14,16.71-18.14C44.44,61.73,62.38,48.7,63.52,48Z"/><ellipse cx="41.56" cy="36.21" rx="33.65" ry="28.64" transform="translate(-13.44 32.45) rotate(-37.16)"/><path class="cls-3" d="M46.61,68.39a8.78,8.78,0,0,0,4.25-1.33c1.8-1.13,4.59-2.93,7.39-4.94,4.2-3,8.5-6,13.78-16C78,34.92,55.89,61.9,39.34,66.18,28.16,69.07,40.87,68.63,46.61,68.39Z"/><path d="M184.84,46.63c-5.73-2.36-15.84-6.13-21.29-7.71-6.86-2-13.31-3.62-27.28-5.69,0,0-32.63-.23-32.58,1.79.6,25.84,54.51,55.52,92.45,67.71,36.44,11.72,45,10.15,49.15,8.41a.57.57,0,0,0,.11-1,32.94,32.94,0,0,1-6.53-7c-2.54-5-7.07-11.17-7.38-11.85a34.88,34.88,0,0,0-6.65-10.48c-4-4.66-10.16-13.1-17.29-19.34-.51-.44-5.45-4.17-10.7-7.59C191.3,50.32,185.43,47,184.84,46.63Z"/><path class="cls-3" d="M215.13,67.76s-38.71-1.49-43.26-24.92c-2.42-12.45,13.4,15,29.86,19.66C205.05,63.44,206.6,63.23,215.13,67.76Z"/><path class="cls-1" d="M202.73,190.89s14.53,1,20.67,15.42,5.07,34.6,5.07,34.6v15.86s.9,26-3.87,30.77-11.4,4.31-13.8,1.91-7.54-18.91-8.6-30.44l.53,27.07s-2,5.56-7.31,4.94-8.9-3.5-11.66-11.19-6.2-31.72-6.2-31.72l-7.08-38.51S178.76,251,174,256.16s-8.5,4.47-8.5,4.47-4.93,1.05-8.79-7.32-2.12-38.74-2.12-38.74S184.1,209.05,202.73,190.89Z"/><path d="M216.05,291.72a8.09,8.09,0,0,1-5.61-1.92c-2-2-5.64-13-7.59-23l.38,19.37,0,.09c0,.06-2.22,5.92-7.84,5.27-5.8-.68-9.41-4.12-12.07-11.52-2.74-7.64-6.09-30.84-6.23-31.82l-1.54-8.39c.69,7.88.65,14.73-1.18,16.71-4.55,4.9-8.21,4.72-8.86,4.64-.76.12-5.52.48-9.25-7.62-3.88-8.39-2.24-37.73-2.16-39l0-.4.38-.07c.3-.05,29.6-5.71,47.91-23.55l.16-.15h.22c.15,0,14.91,1.19,21.1,15.72C230,220.47,229,240.73,229,240.94v15.83c0,1.05.85,26.22-4,31.12a12.5,12.5,0,0,1-8.89,3.83ZM202.69,259c1.07,11.6,6.27,27.94,8.46,30.13a7.06,7.06,0,0,0,4.9,1.63h0a11.5,11.5,0,0,0,8.18-3.54c4.56-4.59,3.73-30.14,3.72-30.39V240.91c0-.23,1-20.26-5-34.4-5.54-13-18.22-14.89-20-15.1-9.53,9.22-21.94,15.2-31.79,18.84.26,1.33.81,4.24,1.46,8L178.05,248c0,.26,3.47,24.09,6.18,31.65,2.54,7.07,5.8,10.22,11.25,10.86,4.54.53,6.47-3.85,6.75-4.54l-.53-27ZM155,215c-.18,3.54-1.44,30.45,2.09,38.11,3.63,7.86,8.05,7.08,8.24,7l.09,0h.1s3.53.53,8-4.32c3-3.26.37-23.46-2-37.28l-1.46-7.94A116.77,116.77,0,0,1,155,215Z"/><path class="cls-1" d="M186.46,202.75l1.8,40.76s.85,11.67,9.85,14.8,10.25-5.15,10.25-5.15,2.45-6.48.88-23.7l-1.56-17"/><path d="M201.85,259.52a11.94,11.94,0,0,1-3.9-.73c-9.21-3.21-10.18-15.12-10.19-15.24L186,202.77l1-.05,1.8,40.77c0,.1.94,11.37,9.52,14.35,2.71.94,4.94.91,6.62-.11a7.15,7.15,0,0,0,3-4.64l0-.1c0-.07,2.39-6.63.85-23.49l-1.56-17,1-.1,1.56,17c1.5,16.56-.65,23.2-.9,23.88a8.08,8.08,0,0,1-3.42,5.29A6.75,6.75,0,0,1,201.85,259.52Z"/><path class="cls-3" d="M180,263.2l48.43,2.41V238.19H209.76S209,252,206.55,255.62s-6.52,3-10.59,1.45a11.58,11.58,0,0,1-5.28-6.2,52.14,52.14,0,0,1-2.63-12.23l-12.12-.45Z"/><path d="M228.84,266l-49.12-2.45-4.24-25.77,12.91.49,0,.33A52.15,52.15,0,0,0,191,250.73a11.17,11.17,0,0,0,5.07,6c5,2,8.16,1.56,10.14-1.31,2.4-3.47,3.14-17.11,3.15-17.24l0-.36h19.43Zm-48.48-3.17,47.73,2.38V238.56h-18c-.14,2.24-.94,13.92-3.26,17.27-2.87,4.16-7.67,2.9-11,1.59-1.47-.57-4.14-2.94-5.5-6.42a51.43,51.43,0,0,1-2.62-12l-11.34-.43Z"/><path d="M173,223.07c2.26,0,14,0,14,0l1.06,15.57-12.12-.45Z"/><path d="M209,222.41c2.26,0,18.58,0,18.58,0l.93,15.57H210.14Z"/><polygon class="cls-3" points="170.48 209.6 172.96 223.07 186.99 223.07 186.05 203.38 170.48 209.6"/><path d="M187.38,223.45H172.64l-2.58-14.09,16.34-6.53Zm-14.11-.75h13.32l-.89-18.78-14.79,5.91Z"/><path class="cls-3" d="M203,191.39a24.33,24.33,0,0,1,10.27,3.12,39,39,0,0,1,3.41,2.46,31.4,31.4,0,0,1,4.83,5.63c4.28,5.67,5.85,14.85,5.55,19.78l-18.06,0-1.21-9.19-20.34.76L187,203Z"/><path d="M208.64,222.78l-1.22-9.17-20.37.75-.44-11.55L202.84,191H203a24.38,24.38,0,0,1,10.45,3.17,41.18,41.18,0,0,1,3.46,2.49,26.76,26.76,0,0,1,4.36,5l.53.71c4.36,5.78,5.92,15.2,5.63,20l0,.35Zm-.56-9.94,1.21,9.19,17.37,0c.2-4.82-1.34-13.69-5.49-19.19l-.53-.71a26.05,26.05,0,0,0-4.23-4.84,38.93,38.93,0,0,0-3.37-2.44,24.16,24.16,0,0,0-10-3.06l-15.7,11.41.4,10.41Z"/><path d="M184.11,279.63l18.48-.47s3.6,10.82-6.11,11.69C196.48,290.85,186.59,292.16,184.11,279.63Z"/><path d="M206.81,279.16H227.1s0,11.1-9.7,12a7.37,7.37,0,0,1-6-1.64C209.44,287.83,207.84,284.35,206.81,279.16Z"/><path class="cls-1" d="M211.66,281.15s2.48,5.48,5.71,5.32,4.88-5.32,4.88-5.32Z"/><path class="cls-1" d="M189.64,281.49s1.28,5,4.49,4.61,3.58-4.61,3.58-4.61Z"/></svg>
