<svg xmlns="http://www.w3.org/2000/svg" width="230" height="310" viewBox="0 0 230 310"><defs><style>.cls-1,.cls-2{fill:#f5e0cd;}.cls-2,.cls-6,.cls-7{stroke:#000;stroke-miterlimit:10;}.cls-3{fill:#fff;}.cls-4,.cls-6{fill:#008ab2;}.cls-5{fill:none;}.cls-7{fill:#b1deff;}.cls-8{fill:#ff74c2;}</style></defs><g id="Layer_3" data-name="Layer 3"><path class="cls-1" d="M89.87,199.36s-6.42,27.43-6.71,31.23-4.38,13.42-5.84,39.7,12.55,27.14,12.55,27.14,15.47.88,15.76-15.18,0-40.28,0-40.28h10.22l3.79,22.77s8.18,39.11,21.89,41.74,24.52,1.17,22.48-14.59-15.76-44.66-15.76-44.66L135.4,211l-2.62-15.76-43.2,2Z"/><path d="M151,307.9a51.77,51.77,0,0,1-9.56-1c-13.8-2.65-21.85-40.43-22.18-42l-3.75-22.47H106c0,3.15.26,25.12,0,39.91-.09,4.94-1.61,8.81-4.51,11.5-4.72,4.38-11.37,4.07-11.65,4.05s-14.37-1.21-12.91-27.55c1.08-19.38,3.6-29.77,5-35.35a32.94,32.94,0,0,0,.89-4.35c.29-3.72,6.27-29.37,6.71-31.22L89.15,197l43.94-2.08L135.77,211,148.6,247.1c.12.25,13.75,29.1,15.78,44.74.77,5.92-.25,10.26-3,12.88C159.08,306.85,155.72,307.9,151,307.9Zm-45.77-66.3h10.92L120,264.68c.08.37,8.28,38.88,21.59,41.43,9.74,1.87,15.85,1.25,19.23-1.94,2.64-2.48,3.55-6.48,2.81-12.24-2-15.52-15.59-44.25-15.73-44.54l-12.86-36.23-2.59-15.5-42.45,2,.24,1.7,0,.07c-.06.28-6.41,27.45-6.7,31.18a34,34,0,0,1-.91,4.47c-1.35,5.56-3.85,15.9-4.93,35.22-1.42,25.54,12.07,26.74,12.2,26.75s6.62.31,11.11-3.86c2.74-2.54,4.17-6.23,4.26-10.95.28-15.87,0-40,0-40.27Z"/><ellipse class="cls-2" cx="112.29" cy="113.87" rx="111.91" ry="89.71"/><circle class="cls-3" cx="173.18" cy="108.92" r="50.61"/><path d="M173.18,159.94a51,51,0,1,1,51-51A51.07,51.07,0,0,1,173.18,159.94Zm0-101.22a50.2,50.2,0,1,0,50.19,50.2A50.26,50.26,0,0,0,173.18,58.72Z"/><circle class="cls-4" cx="170.61" cy="110.57" r="47.06"/><circle cx="162.64" cy="115.65" r="38.04"/><circle class="cls-3" cx="152.01" cy="101.68" r="13.97"/><circle class="cls-3" cx="51.41" cy="110.57" r="50.61"/><path d="M1.21,110.57A50.07,50.07,0,0,1,19,72.32l-.26-.86a50.91,50.91,0,0,0-2.32,76.15c.21-.18.41-.37.61-.56A50,50,0,0,1,1.21,110.57Z"/><path d="M100.41,96.41l-.89-.11A50.16,50.16,0,0,1,17,147.05c-.2.19-.4.38-.61.56a51,51,0,0,0,84-51.2Z"/><path d="M23.9,68.6A50.17,50.17,0,0,1,99.52,96.3l.89.11a51,51,0,0,0-81.72-25l.26.86A50,50,0,0,1,23.9,68.6Z"/><circle class="cls-4" cx="53.97" cy="112.23" r="47.06"/><circle cx="61.94" cy="117.31" r="38.04"/><circle class="cls-3" cx="75.91" cy="99.91" r="13.97"/><line class="cls-5" x1="98.33" y1="90.54" x2="104.85" y2="94.16"/><path class="cls-6" d="M88.4,209h46.19l-.44-3.2s-.62-.5-.56-3.36c0,0-17.37,1.84-19.85,1.77s-22-.73-24.19-1.77L89,204.8Z"/><polygon points="85.67 219.58 138.04 219.58 135.05 211.16 134.59 208.96 88.04 208.96 86.35 216.49 85.67 219.58"/><polygon class="cls-6" points="79.37 253.33 150.65 253.31 147.97 247.31 137.98 219.58 85.62 219.58 84.41 225.3 83.78 228.88 83.47 230.61 80.33 245.58 79.15 253.33 79.37 253.33"/><polygon points="128.2 290.37 163.5 290.98 163.89 293.73 137.74 293.1 129.48 293.1 128.2 290.37"/><polygon points="77.7 279.96 105.43 280.7 105.35 283.45 85.18 282.97 78.24 283.17 77.7 279.96"/><path d="M78.24,282.83l27,.26s.31,13.08-13.64,14.17C91.6,297.26,81.8,298.46,78.24,282.83Z"/><path d="M129.32,292.75l34.57,1s2.88,12.28-11.07,13.37a23.7,23.7,0,0,1-12.53-1.36A20.15,20.15,0,0,1,129.32,292.75Z"/><path class="cls-1" d="M87.16,282.83s1.28,5,4.49,4.6,3.59-4.6,3.59-4.6Z"/><path class="cls-1" d="M142.88,292.4s2.49,5.49,5.71,5.32,4.89-5.32,4.89-5.32Z"/><polygon points="79.13 253.17 150.65 253.31 150.8 253.67 79.13 253.67 79.13 253.17"/><path class="cls-4" d="M4,91.15,61.48,71.7S63.54,63.58,67.83,61l2.6,9.69L87.58,66.2s-.13-12.42,7.81-15.82l2.76,16.25,23.45-.88s8-12.21,10.83-16.74,13.25,16.48,13.25,16.48l19.62,2.77s1.13-6.29,2.28-10.11,12.83,13.6,12.83,13.6l35.06,7.32s-7.6-16.68-30-33c-18-13.2-48.65-23.1-75.75-21.83-55.94,2.63-73.2,23.66-73.2,23.66A103.21,103.21,0,0,0,4,91.15Z"/><path d="M3.32,91.47l.39-1A104.89,104.89,0,0,1,36.37,47c1-1.2,19.39-21.24,73.52-23.78C135.4,22,166.68,31,186,45.11,208.18,61.37,216,78.19,216.1,78.36l.41.9-36.23-7.57-.12-.17c-4.69-7-10.4-14.13-11.81-13.92-.06,0-.1.11-.12.19-1.13,3.75-2.26,10-2.27,10.06l-.09.47-20.35-2.88-.12-.23c-3.18-6.45-9.18-16.71-11.72-16.85a.69.69,0,0,0-.66.41c-2.83,4.49-10.75,16.62-10.83,16.75l-.14.21-24.15.91-2.72-16c-7,3.58-6.93,15-6.93,15.08v.39l-18,4.7L67.7,61.29c-3.69,2.8-5.55,10-5.57,10l-.06.27-.26.08ZM114.51,24.08c-1.54,0-3.07,0-4.58.1-55,2.59-72.66,23.27-72.83,23.48l-.1.09A103.66,103.66,0,0,0,5,89.83l56.19-19c.41-1.46,2.49-8.32,6.51-10.76l.57-.34L71,69.56l16.3-4.25c0-2.21.67-12.71,8.11-15.89l.59-.25,2.79,16.44,22.76-.86c1.08-1.66,8.06-12.36,10.68-16.51a1.69,1.69,0,0,1,1.55-.88c3.82.2,11.15,14.57,12.45,17.17l18.88,2.67c.29-1.54,1.25-6.5,2.21-9.7a1.15,1.15,0,0,1,.93-.89h.14c2.76,0,10.13,10.61,12.54,14.2l33.85,7.07c-1.95-3.69-10.31-18-29.36-31.95C167.4,32.77,138.89,24.08,114.51,24.08Z"/><path class="cls-4" d="M3.54,91h0A105,105,0,0,1,36.2,47.47c1-1.19,19.38-21.24,73.52-23.78,25.5-1.19,56.79,7.82,76.07,21.93C208,61.88,215.85,78.7,215.93,78.87l.41.89L180.11,72.2,180,72c-4.7-7-10.38-14.13-11.82-13.93-.06,0-.1.11-.12.2-1.13,3.75-2.26,10-2.27,10l-.09.48L145.35,66l-.12-.24c-3.18-6.44-9.18-16.71-11.72-16.84a.7.7,0,0,0-.66.4C130,53.76,122.1,65.9,122,66l-.14.22-24.15.91L95,51.11c-7,3.59-6.93,15-6.93,15.08v.39l-18,4.7-2.55-9.49c-3.7,2.81-5.55,10-5.57,10l-.41-.38Zm110.8-66.39c-1.54,0-3.07,0-4.58.11C54.75,27.27,37.1,48,36.93,48.16l-.1.1a103.58,103.58,0,0,0-32,42.07l56.19-19c.41-1.47,2.49-8.33,6.51-10.77l.57-.34,2.64,9.85,16.3-4.25c0-2.21.67-12.7,8.11-15.89l.59-.25,2.79,16.45,22.76-.86c1.08-1.66,8.06-12.37,10.68-16.52a1.68,1.68,0,0,1,1.55-.87c3.82.2,11.15,14.56,12.45,17.16l18.88,2.67c.29-1.54,1.25-6.5,2.21-9.69a1.12,1.12,0,0,1,.93-.89c2.61-.4,10.23,10.53,12.68,14.18l33.85,7.07c-1.95-3.69-10.31-18-29.36-31.95C167.23,33.27,138.72,24.58,114.34,24.58Z"/><path d="M4,91H3.54A107.15,107.15,0,0,1,36.33,47.1c1.2-1.35,19.91-21.38,73.83-23.91,25.62-1.2,57,7.86,76.39,22,22.31,16.33,29.76,33.49,29.84,33.66l.41.89-36.49-7.61h0c-5.09-7.59-10.31-13-11.7-13.59-1.1,3.75-2.34,9.73-2.36,9.79l.23.32L145.81,66l-.48-.46c-3.89-7.89-9.41-16-11.38-16.12,0,0-.09,0-.21.17C131,53.81,123.31,64.76,122.49,66l-.15.22-24.15.91L95.1,51.9C89,55.67,89,66.08,89,66.19V67L70.19,71.89l-2.47-9.21c-3.18,3-4.79,9.2-5.29,9.15l-1-.25Zm.46.18,3-1ZM114.81,25.08c-1.54,0-3.07,0-4.56.11C55.66,27.75,38,48.28,37.78,48.48l-.15.14A103,103,0,0,0,6.22,89.5l54.9-18.57c.54-1.86,2.67-8.39,6.66-10.8l1.14-.69,2.68,10,15.46-4c.11-2.82,1-12.81,8.4-16l1.17-.5L99.45,65.6l22.06-.83c2-3.13,8.14-12.49,10.54-16.3a2.21,2.21,0,0,1,2-1.1c3.91.2,10.6,12.91,12.75,17.2L165,67.14c.35-1.88,1.24-6.32,2.13-9.28a1.64,1.64,0,0,1,1.33-1.24c2.71-.42,9.3,8.66,13.06,14.23l32.59,6.81c-2.76-4.93-11.16-18-28.7-30.83C167.59,33.82,139.24,25.08,114.81,25.08Zm66.07,46.67h0l-.12-.17a104.57,104.57,0,0,0-7.67-10.26c3.5,4.06,7.53,10,7.79,10.43ZM67.76,61.35C64.23,64,62.36,70.18,62,71.45l-.07.25h0c0-.1,1.89-7.37,5.75-10.31ZM68.3,61l2.6,9.69L88,66.2c0-.12-.06-11.8,7.2-15.53l.11-.06c-6.7,3.33-7.26,13.22-7.3,15.21v.38L70.9,70.67Zm92,6.51,5.44.78s.59-3.28,1.34-6.49c-.59,2.52-1.07,5-1.25,6l-.09.48Zm-14.18-2-.11-.24a92.76,92.76,0,0,0-7.75-13.1A108.16,108.16,0,0,1,146.14,65.49Zm-22.07-2.81h0Zm0,0h0Zm9-13.86a.8.8,0,0,0-.15.21c-1.91,3-6.13,9.52-8.82,13.65,2.59-4,6.89-10.59,8.82-13.65A.8.8,0,0,1,133.05,48.8Zm35.61,8.8h0ZM95.85,50.38l.66,3.88-.66-3.88Zm38.09-2H134a.91.91,0,0,1,.23,0l-.22,0h-.06ZM37.2,47.62,37,47.8l-.07.07,0,0,0-.05ZM154.79,30.73a114.08,114.08,0,0,1,29.83,14.33A114.05,114.05,0,0,0,154.79,30.73Zm-44.22-6.56-.36,0q-3.15.15-6.14.37,3-.22,6.14-.37Z"/><path class="cls-4" d="M166.26,26.63S176-.62,200.18,3.31a22.23,22.23,0,0,1,15.71,11.2c5.63,10,4.63,53.86-1,43.34C195.57,22.09,179,32.47,179,32.47Z"/><path d="M216.49,60h0c-.71,0-1.38-.63-2.06-1.88-10-18.56-19.21-24.35-25.17-25.94s-9.94.73-10,.76L179,33l-13.4-6.15.16-.43c.1-.27,10.12-27.6,34.47-23.64a22.57,22.57,0,0,1,16.07,11.45c4.58,8.17,5,39,1.58,44.68A1.73,1.73,0,0,1,216.49,60ZM185,30.57a17.2,17.2,0,0,1,4.45.6c6.16,1.62,15.64,7.53,25.83,26.44.54,1,1,1.35,1.2,1.36s.37-.19.58-.54c2.87-4.77,3.11-35.25-1.6-43.67a21.59,21.59,0,0,0-15.36-11C178.23.27,168.26,23,166.89,26.37L179,31.91A13,13,0,0,1,185,30.57Z"/><path class="cls-4" d="M215.82,59.78a4.08,4.08,0,0,1-1.42-1.7c-10-18.56-19.21-24.35-25.17-25.94s-9.94.73-10,.76L179,33l-.25-.11-13.15-6,.16-.43c.1-.27,10.12-27.59,34.47-23.64a22.54,22.54,0,0,1,16.07,11.45c4.58,8.17,5,39,1.58,44.68a1.67,1.67,0,0,1-1.45,1A1.27,1.27,0,0,1,215.82,59.78ZM194.51,33.24c5.76,3.21,13.06,10.07,20.77,24.37.54,1,1,1.35,1.2,1.36s.37-.19.58-.54c2.87-4.77,3.11-35.26-1.6-43.67a21.61,21.61,0,0,0-15.36-11C178.23.26,168.26,23,166.89,26.37L179,31.91c1-.52,4.82-2.24,10.49-.74A21.8,21.8,0,0,1,194.51,33.24Z"/><path d="M216.49,60.46h0a1.73,1.73,0,0,1-.87-.24,4.52,4.52,0,0,1-1.62-1.9C204,39.92,195,34.19,189.1,32.63s-9.44.6-9.59.7l-.45.28L165,27.16l.31-.87c.1-.28,10.23-28,35-24A23.08,23.08,0,0,1,216.77,14c2.5,4.47,3.63,15.07,3.85,23.51.21,7.9-.26,18.32-2.28,21.68A2.16,2.16,0,0,1,216.49,60.46Zm-.06-1h.06c.35,0,.68-.26,1-.77,2.32-3.84,2.84-19.24,1.5-31.21.34,3.15.55,6.68.62,10.47.15,8-.45,18-2.12,20.74-.31.53-.65.79-1,.77ZM185,30.07a18.19,18.19,0,0,1,4.58.61,22.6,22.6,0,0,1,5.18,2.13h0c7.32,4.06,14.38,12.33,21,24.56a3.9,3.9,0,0,0,.74,1l.17-.23c2.84-4.72,3.05-34.85-1.61-43.18A21.08,21.08,0,0,0,200,4.3C179.25.93,169.28,22,167.54,26.12L179,31.36A13.73,13.73,0,0,1,185,30.07Zm11.08,4.7c5.07,3.34,11.18,9.58,17.64,21C208.09,45.83,202.17,38.78,196.07,34.77Zm-29.81-8.14L179,32.47c.17-.1,4-2.34,9.92-.93a14,14,0,0,0-9.71.81l-.22.12Zm29.28-23.7c-18.6,0-27.41,19.12-29,23C168,22.3,178.29-.24,200.18,3.31a22.05,22.05,0,0,1,15.51,10.84A22.05,22.05,0,0,0,200.18,3.31,29,29,0,0,0,195.54,2.93Z"/><path class="cls-7" d="M162.07,36.41h0c-2.33-.72-19.42-4.65-17.63-7.64,2-3.33,14.2-8.4,24.92-1.82,1.25.76,2.22,1.25,3.33,1.81a16,16,0,0,0,4,1.6l.58.11a2.77,2.77,0,0,1,.3,0c4,1.13,4.78,1.81,8.83,5.47l.19.19,1.52,1.73a1.73,1.73,0,0,1,.17.21A15.48,15.48,0,0,1,190.67,42c.25.52,4.1,9.34,3.42,9.6-5.24,2-9.66-3.74-12.91-5.63-4.46-2.58-8.1-4.19-19.11-9.58"/><path class="cls-4" d="M57.06,26.63S47.36-.62,23.14,3.31A22.23,22.23,0,0,0,7.43,14.51c-5.62,10-4.63,53.86,1.05,43.34C27.76,22.09,44.33,32.48,44.33,32.48Z"/><path d="M6.83,60a1.71,1.71,0,0,1-1.42-1C2,53.26,2.42,22.44,7,14.27A22.57,22.57,0,0,1,23.06,2.82c24.34-4,34.38,23.37,34.47,23.64l.16.44L44.3,33l-.23-.14s-3.92-2.37-10-.75S18.92,39.53,8.92,58.08C8.24,59.33,7.57,60,6.86,60ZM27.77,3.43a27.93,27.93,0,0,0-4.55.38,21.57,21.57,0,0,0-15.36,11c-4.71,8.42-4.47,38.9-1.59,43.68.2.34.39.5.57.53S7.5,58.6,8,57.61C18.23,38.7,27.71,32.8,33.87,31.17c5.68-1.5,9.51.22,10.49.74l12.07-5.54C55.16,23.2,46.48,3.43,27.77,3.43Z"/><path class="cls-4" d="M6.86,60a1.71,1.71,0,0,1-1.45-1C2,53.26,2.42,22.44,7,14.27A22.57,22.57,0,0,1,23.06,2.82C47.41-1.13,57.44,26.19,57.53,26.46l.16.43-13.15,6L44.3,33l-.23-.14s-3.92-2.37-10-.75S18.92,39.52,8.92,58.08A4.12,4.12,0,0,1,7.5,59.79,1.51,1.51,0,0,1,6.86,60Zm27-28.8c5.68-1.5,9.51.22,10.49.74l12.07-5.54C55.06,23,45.09.26,23.22,3.81a21.57,21.57,0,0,0-15.36,11c-4.71,8.42-4.47,38.9-1.59,43.68.2.34.41.53.57.53S7.5,58.6,8,57.61c7.71-14.3,15-21.16,20.78-24.36A21.64,21.64,0,0,1,33.87,31.17Z"/><path d="M6.83,60.47A2.17,2.17,0,0,1,5,59.21C3,55.85,2.49,45.43,2.7,37.53c.22-8.44,1.36-19,3.86-23.5A23,23,0,0,1,23,2.33c24.79-4,34.92,23.69,35,24l.31.86L44.26,33.61l-.46-.29s-3.8-2.23-9.58-.69S19.28,39.92,9.36,58.32a4.52,4.52,0,0,1-1.62,1.9,1.85,1.85,0,0,1-.86.25h0Zm0-1h0a1,1,0,0,0,.36-.1,1,1,0,0,1-.36.1ZM5.18,21.79c-2.31,12.14-2,32.42.66,36.9a2,2,0,0,0,.4.51,2,2,0,0,1-.4-.51C3.5,54.81,2.87,34.19,5.18,21.79ZM27.7,3.94a27.08,27.08,0,0,0-4.4.36A21.08,21.08,0,0,0,8.3,15C3.64,23.33,3.86,53.46,6.69,58.18a2.88,2.88,0,0,0,.18.24,4.14,4.14,0,0,0,.73-1.05c6.59-12.23,13.65-20.5,21-24.56a22.78,22.78,0,0,1,5.18-2.13,15.24,15.24,0,0,1,10.62.68l11.41-5.24C54.17,22.31,45.49,3.94,27.7,3.94Zm-.44,30.83c-6.1,4-12,11-17.63,21C16.08,44.34,22.18,38.11,27.26,34.77Zm11-3.69a12.47,12.47,0,0,1,6,1.39h0l-.22-.11a13.82,13.82,0,0,0-9.51-.86A16.35,16.35,0,0,1,38.29,31.08Zm18.77-4.45L44.37,32.46l12.69-5.83ZM27.72,2.93c18.69,0,27.61,19.5,29.06,23C55,21.62,44.86-.2,23.14,3.31A22,22,0,0,0,7.77,13.93,22,22,0,0,1,23.14,3.31,29.56,29.56,0,0,1,27.72,2.93Z"/><path class="cls-7" d="M63,36.41h0c2.32-.72,19.41-4.65,17.62-7.64-2-3.33-14.2-8.4-24.92-1.82-1.24.76-2.22,1.25-3.33,1.81a16,16,0,0,1-4,1.6l-.57.11c-.1,0-.21,0-.31,0-4,1.13-4.78,1.81-8.83,5.47l-.19.19L36.9,37.89a1.73,1.73,0,0,0-.17.21A15.78,15.78,0,0,0,34.35,42c-.25.52-4.1,9.34-3.42,9.6,5.24,2,9.66-3.74,12.91-5.63C48.3,43.41,52,41.8,63,36.41"/><path d="M6.09,136.7c-.93-1.37-4.68-10.78-3.69-10.82,5.17-.21,38.76,4.28,52.34,6.9,8.23,1.59,14.25,3.74,19.7,8.58,5.6,5,5.89,10.22,6.38,18.16.82,13.22-15.16,22.57-30.89,21S15.81,151.13,6.09,136.7Z"/><path class="cls-1" d="M5.18,137.81c-.68-1.61-3.77-11.89-2.78-11.93,5.17-.21,37.85,5.39,51.44,8,8.22,1.58,14.25,3.74,19.7,8.58s5.89,10.21,6.38,18.15c.82,13.22-15.16,22.57-30.9,21S12,153.81,5.18,137.81Z"/><path d="M218,135.82c.93-1.37,4.68-10.79,3.69-10.83-5.17-.21-38.76,4.29-52.34,6.91-8.23,1.59-14.25,3.74-19.7,8.58s-5.89,10.22-6.38,18.15c-.82,13.22,15.16,22.57,30.89,21S208.31,150.24,218,135.82Z"/><path class="cls-1" d="M218.94,136.92c.68-1.61,3.77-11.89,2.78-11.93-5.17-.21-37.85,5.39-51.44,8-8.22,1.59-14.25,3.74-19.69,8.58-5.6,5-5.89,10.22-6.39,18.16-.81,13.21,15.17,22.57,30.9,21S212.12,152.92,218.94,136.92Z"/><path class="cls-2" d="M134.18,202.29s14-15.44,16.4-18.5c0,0,5.51-11.55,8-16.27s7.75-3.54,7.75-3.54,4.46,1.18,3.41,8.26a38.28,38.28,0,0,1-4.59,12.86s-6.57,8.66-12.08,10.76-16.66,9.32-18,9.19S134.18,202.29,134.18,202.29Z"/><path class="cls-2" d="M89.2,203.27s-11.15-17.66-12.93-21.08c0,0-3.42-12.33-5-17.42s-7-4.83-7-4.83-4.6.39-4.8,7.55A38.18,38.18,0,0,0,61.7,181s5,9.67,10,12.7,14.79,12.07,16.11,12.17S89.2,203.27,89.2,203.27Z"/><path d="M132.85,157.3c0,7.5-5.67,18.11-20,18.11s-21.13-10.86-21.13-18.36,6.82-1.51,21.13-1.51S132.85,149.8,132.85,157.3Z"/><path class="cls-8" d="M122.61,172.53c0,1.86-5.32,2.88-9.65,2.88s-9.18-1-9.18-2.88,4.84-3.83,9.18-3.83S122.61,170.68,122.61,172.53Z"/></g></svg>
