<svg xmlns="http://www.w3.org/2000/svg" width="250" height="310" viewBox="0 0 250 310"><defs><style>.cls-1,.cls-3{fill:#f5e0cd;}.cls-2{fill:#fcda33;}.cls-3,.cls-6,.cls-8{stroke:#000;stroke-miterlimit:10;}.cls-4{fill:#fff;}.cls-5{fill:#b08874;}.cls-6{fill:#9c7761;}.cls-7{fill:#ff74c2;}.cls-8{fill:#ff8d0a;}.cls-9{fill:#ffab5f;}</style></defs><g id="Layer_3" data-name="Layer 3"><path class="cls-1" d="M98.45,200.09S92,227.53,91.74,231.32,87.36,244.75,85.9,271s12.55,27.15,12.55,27.15,15.47.87,15.76-15.18,0-40.28,0-40.28h10.22l3.79,22.77s8.18,39.11,21.89,41.74,24.52,1.16,22.48-14.6S156.83,248,156.83,248L144,211.77,141.36,196l-43.2,2Z"/><path d="M159.6,308.64a51.77,51.77,0,0,1-9.56-1.05c-13.8-2.65-21.85-40.43-22.18-42l-3.75-22.47h-9.52c0,3.15.27,25.13,0,39.92-.09,4.94-1.61,8.8-4.51,11.49-4.72,4.39-11.37,4.07-11.65,4.05s-14.37-1.2-12.9-27.54c1.07-19.38,3.59-29.77,4.94-35.35a32.94,32.94,0,0,0,.89-4.35c.29-3.73,6.28-29.37,6.71-31.22l-.34-2.39,43.94-2.07,2.69,16.09,12.82,36.13c.13.25,13.76,29.09,15.78,44.73.77,5.93-.25,10.26-3,12.88C167.66,307.59,164.3,308.64,159.6,308.64Zm-45.77-66.31h10.92l3.84,23.09c.08.37,8.28,38.88,21.6,41.43,9.73,1.86,15.84,1.24,19.22-1.94,2.64-2.48,3.55-6.48,2.81-12.24-2-15.52-15.59-44.26-15.73-44.55l-12.86-36.23L141,196.4l-42.45,2,.24,1.71v.07c-.07.27-6.42,27.45-6.71,31.17a34.06,34.06,0,0,1-.91,4.48c-1.35,5.55-3.85,15.9-4.93,35.21-1.42,25.55,12.07,26.75,12.2,26.75s6.62.32,11.11-3.85c2.74-2.55,4.17-6.23,4.26-11,.29-15.86,0-40,0-40.27Z"/><polygon class="cls-2" points="87.95 254.06 159.22 254.05 156.55 248.05 146.56 220.32 94.2 220.32 92.99 226.04 92.36 229.62 92.05 231.35 88.91 246.32 87.73 254.06 87.95 254.06"/><polygon points="136.78 291.11 172.08 291.71 172.47 294.46 146.32 293.83 138.06 293.83 136.78 291.11"/><polygon points="86.28 280.7 114.01 281.44 113.93 284.19 93.76 283.7 86.82 283.9 86.28 280.7"/><path d="M86.82,283.56l27,.27s.31,13.08-13.64,14.17C100.18,298,90.38,299.19,86.82,283.56Z"/><path d="M137.9,293.49l34.57,1s2.88,12.28-11.07,13.38a23.7,23.7,0,0,1-12.53-1.36A20.15,20.15,0,0,1,137.9,293.49Z"/><path class="cls-1" d="M95.74,283.56s1.28,5,4.49,4.61,3.59-4.61,3.59-4.61Z"/><path class="cls-1" d="M151.46,293.14s2.49,5.49,5.71,5.32,4.89-5.32,4.89-5.32Z"/><polygon points="87.7 253.91 159.22 254.05 159.38 254.41 87.7 254.41 87.7 253.91"/><polygon points="94.23 220.42 146.83 220.42 143.84 212 143.38 209.8 96.6 209.8 94.91 217.33 94.23 220.42"/><path class="cls-2" d="M96.6,209.8h46.68l-.77-4.12s-.17-1.74-.54-3.72a28.58,28.58,0,0,1-.8-4.79S121.11,201,118.64,201c-2,0-11.94.51-17.12.29a10.65,10.65,0,0,1-2.89-.29l-1,4.47-.16.72-.33,1.41Z"/><ellipse class="cls-3" cx="124.14" cy="108.02" rx="111.91" ry="89.71" transform="translate(-30.56 51.91) rotate(-21.09)"/><circle class="cls-4" cx="170.68" cy="89.15" r="61.11"/><path d="M170.68,150.76a61.61,61.61,0,1,1,61.61-61.61A61.67,61.67,0,0,1,170.68,150.76Zm0-122.21a60.61,60.61,0,1,0,60.61,60.6A60.67,60.67,0,0,0,170.68,28.55Z"/><ellipse class="cls-4" cx="52.55" cy="132.67" rx="35.03" ry="54.35" transform="translate(-39.86 23.93) rotate(-18.75)"/><path d="M62.54,185.85c-16.83,0-35.22-16.95-43.64-41.76-9.72-28.64-2.54-57.07,16-63.37S76.47,92.6,86.2,121.24h0c9.72,28.64,2.53,57.07-16,63.36A23.44,23.44,0,0,1,62.54,185.85ZM42.59,80.47a22.78,22.78,0,0,0-7.35,1.2c-18,6.12-24.94,34-15.39,62.1s32,46,50,39.89,24.93-34,15.39-62.1h0C77,97.17,59,80.47,42.59,80.47Z"/><circle class="cls-2" cx="174.31" cy="86.96" r="56.82"/><circle cx="173.96" cy="87.28" r="45.93"/><circle class="cls-4" cx="177.23" cy="89.12" r="16.87"/><path class="cls-2" d="M84.06,119.61c2.74,8.06,4.76,15.87,4.87,23.23,0,1.61,1.09.93.61,6.1-.23,2.57-.58,5.42-.82,7-.73,4.73-.93,5.83-2.83,9.43a22.37,22.37,0,0,1-3.2,4.41c-2.38,2.8-7.56,5.31-10.92,6.44-15.6,5.3-35.41-11.47-44.23-37.45S24.22,87.45,39.83,82.15,75.24,93.62,84.06,119.61Z"/><path d="M84.21,118.69c.27.79,3.29,6.13,3,11.87a20.9,20.9,0,0,1-.1-2.89c.25.59,1,4.49,1.28,6,1.11,5.14,2,8.54,1.64,10.39a31,31,0,0,1-2.25,8.21,56.4,56.4,0,0,1-4,6.28A33.67,33.67,0,0,1,81,162.35c-2,2.44-6.51,4.61-9.4,5.59C58.15,172.51,41,157.75,33.24,135S30.15,90,43.6,85.46c9.87-3.35,21.73,3.69,30.41,16.67C77.17,106.85,82.15,112.61,84.21,118.69Z"/><ellipse class="cls-4" cx="68.12" cy="129.24" rx="13.63" ry="14.78"/><path class="cls-5" d="M232.22,88.75c0,16.19-25.48-4.76-55-4.12-31.93.68-68.08,21.63-68.08,4.12,0-33.69,27.55-61,61.53-61S232.22,55.06,232.22,88.75Z"/><path d="M117.48,96.22c-2.73,0-4.91-.49-6.44-1.67s-2.39-3.18-2.39-5.8c0-33.91,27.83-61.5,62-61.5s62,27.59,62,61.5c0,2.73-.71,4.56-2.15,5.62-3.26,2.38-9.71.31-18.63-2.55-9.7-3.1-21.75-7-34.7-6.69-12.63.27-25.8,3.69-37.41,6.71C130.78,94.19,123,96.22,117.48,96.22Zm53.2-68c-33.65,0-61,27.14-61,60.5,0,2.33.66,4,2,5,4.24,3.27,15.22.42,27.92-2.88,11.67-3,24.9-6.48,37.65-6.75,13.09-.29,25.26,3.61,35,6.74,8.31,2.67,14.88,4.77,17.73,2.69,1.17-.85,1.74-2.42,1.74-4.81C231.72,55.39,204.34,28.25,170.68,28.25Z"/><path class="cls-6" d="M84.65,117.09c2.42,7.11-18.36.67-32.1,5.33-13.31,4.52-31.8,28.8-34.44,21C8.46,115,15.49,86.93,33.81,80.71S75,88.67,84.65,117.09Z"/><path d="M142.45,153c3.92,9.11,2.59,25-14.78,32.43s-31.34-2.14-35.26-11.25,7.5-5.4,24.87-12.88S138.53,143.93,142.45,153Z"/><path class="cls-7" d="M138,176.88c1,2.25-4.95,6.28-10.21,8.54s-11.68,3.56-12.65,1.31,3.88-7.19,9.15-9.45S137,174.64,138,176.88Z"/><path class="cls-8" d="M15.7,107.72s-2.26,13.32-.55,23.72c.68,4.16,3,9.4,4.13,13.32.3,1,.83,2.26,1.06,2.87s.49,1.23.91,2.24c4.87,11.95,13.64,28.41,36.17,39.8a95.48,95.48,0,0,0,8.91,4A108.61,108.61,0,0,0,79,197.72s3.75,1.05,9,1.95c3,.52,6.26.94,10.25,1.25l-4.64,19.5L91.25,232.9,87.91,249a167.81,167.81,0,0,0-2,19.77,80.85,80.85,0,0,0,1.15,17.81s-15.78,1.49-24.46-4.89,2-15.07,2-15.07-17.88,2.3-26.05-2.3S28.63,255,29.43,251c2-9.86,14.92-12.26,19.36-15.63.51-.39,2.08-1.85,2.69-2.46,2.06-2.08,5.26-7.53,3.11-17.16-2.47-11-1.7-11-7.29-21.22a25.42,25.42,0,0,0-4-5.41l-22.78-23.7A64.15,64.15,0,0,1,9.82,148.71c-4-9.1-6.58-21.77-7.58-34.25,0,0-2-28.9,14.16-52.44C30.8,41,50.62,21.15,80.25,12.21S119.84,2.5,119.84,2.5,151.51.21,166.07,4.29s41.62,15.27,50.06,23.24c7.5,7.09,23.5,17.37,30.14,44.19s-4.85,60.15-4.85,60.15-8.72,33-12,39.63a42.67,42.67,0,0,0-3.9,21.53l.52,27.39s-.91,12.72-6.32,17.83c-6.32,6-5.55,10.92-15.76,12.2,0,0-.33,8.23-12.59,10.79s-17.26-.84-17.26-.84l-10.2,3.3L157,248l-6.85-20.43-5.62-15.82-2.42-14.91c2.93-1.18,3.46-.85,5.41-1.49,3.24-1.06,6.64-2.8,9.08-3.59,4.83-1.55,6.9-3.45,10.46-4.53a29.88,29.88,0,0,0,8-3.81c3.23-2.08,6.63-3.81,10.55-7,2.75-2.22,5.79-4.33,9.93-7.62a34.12,34.12,0,0,0,4.93-4.09c22.54-26.55,21-26.72,21-26.72S238.07,109.35,233,84.63c0,0-.69-14.24-16.29-24s-88.51,40.53-78.45,0c0,0-36.83,17.89-52.92-.73,0,0-5.08-6.9,1.81-23.23S103,21,103,21,68.88,29.88,51.05,69.21C38.58,96.71,24.42,105.07,15.35,108"/><path class="cls-3" d="M98,201c-2.39-.65-22.69-6.18-26.56-8,0,0-10.59-8.44-15.28-11.81S44,180.73,44,180.73s-6.31,2.63-3.25,8.63,9.52,9.94,9.52,9.94,11.51,5.48,20.08,5.43,23.76,1.2,25.66.62c1.63-.49,1.83-3,1.83-3.92C97.8,201.29,98.09,201,98,201Z"/><path class="cls-9" d="M114.43,282.44s3.06.46,8.57-5.06c0,0,5.21.84,7.36-2.44l-2.5-9.88-1.8-10.77-11.41-.06Z"/><path d="M114.61,282.83a.84.84,0,0,1-.24,0l-.32,0,.38-28.81,12,.2L128.23,265l2.53,10-.09.14c-2,3.12-6.53,2.75-7.53,2.63C118.41,282.45,115.44,282.83,114.61,282.83Zm.42-28.54-.23,27.78c.91-.08,3.67-.68,7.94-5l.13-.13.19,0s4.85.74,6.89-2.14l-2.46-9.72-1.81-10.86Z"/><path class="cls-1" d="M141.32,198.5c.07,4.06.28,18.48.07,22.24a2.78,2.78,0,0,1-.12.64c-.62,1.88-3.87,11.84-5.11,16.29s2.68,6.9,3.59,7.42a2.35,2.35,0,0,0,.43.19c1,.33,4.84,1.22,8.52-3.66a33.18,33.18,0,0,0,5.49-11.81,2.5,2.5,0,0,0,.06-.38c.1-1.43.63-10.55-2.12-15.2-3-5.06-6.91-17.37-8.08-18.13a2,2,0,0,0-2,.15A2.61,2.61,0,0,0,141.32,198.5Z"/><path d="M147.59,203.05a89.58,89.58,0,0,0,4.86,11c2.83,4.77,2.27,14,2.16,15.41a2.2,2.2,0,0,1-.06.37A34.06,34.06,0,0,1,149,241.8c-4.39,5.81-9.18,3.69-9.24,3.67s-5.38-2.77-4-7.88c1.23-4.41,4.45-14.31,5.09-16.28a2.8,2.8,0,0,0,.13-.64c.23-4.4-.08-23-.09-23.24v-.09l.41-.81a3.24,3.24,0,0,1,1.9-.9,1.41,1.41,0,0,1,1,.22l.05,0C144.94,196.38,145.88,198.72,147.59,203.05Zm-5.86,18v.06c0,.12-3.85,11.73-5.2,16.6-1.29,4.63,3.4,7.05,3.58,7.15s4.26,1.88,8.3-3.47a33.27,33.27,0,0,0,5.42-11.65,1.45,1.45,0,0,0,.06-.41c.11-1.47.6-10.48-2.08-15a92.94,92.94,0,0,1-4.9-11.12c-1.2-3.05-2.56-6.49-3.05-6.88h0a.64.64,0,0,0-.45-.1,1.55,1.55,0,0,0-.5.19,2.49,2.49,0,0,0-1.2,2.23C141.76,203.12,142,217.94,141.73,221.1Z"/></g></svg>
