<svg id="Layer_1" data-name="Layer 1" xmlns="http://www.w3.org/2000/svg" xmlns:xlink="http://www.w3.org/1999/xlink" width="1920" height="1080" viewBox="0 0 1920 1080"><defs><style>.cls-1{stroke:#90bc79;fill:url(#radial-gradient);}.cls-1,.cls-10,.cls-7,.cls-8,.cls-9{stroke-miterlimit:10;}.cls-2{fill:#221f20;}.cls-3{fill:#d27ca8;}.cls-4{fill:#f1dfcd;}.cls-10,.cls-5,.cls-7{fill:#fff;}.cls-6{fill:#907fce;}.cls-10,.cls-7,.cls-8,.cls-9{stroke:#000;}.cls-7{stroke-width:0.5px;}.cls-9{fill:#396294;}</style><radialGradient id="radial-gradient" cx="960" cy="540" r="778.85" gradientTransform="translate(0 -655.8) scale(1 2.21)" gradientUnits="userSpaceOnUse"><stop offset="0" stop-color="#325f97"/><stop offset="0.54" stop-color="#8bb5e5"/><stop offset="1" stop-color="#325f97"/></radialGradient></defs><rect class="cls-1" width="1920" height="1080"/><path class="cls-2" d="M301.3,188.74c6.45-11.18,15.47-25.08,11.13-35.75-2.48-6.09-26.62-2.36-24-13.88,4.19-19.51-.3-32.6-10.59-41.12a38,38,0,0,0-4.77-2.84c-.4-.16-.81-.32-1.19-.43-.14,0-.26-.09-.39-.13a4.77,4.77,0,0,1-1.41-.51c-.52-.19-1-.4-1.55-.61a10.4,10.4,0,0,1-2.47-1c-.66-.22-1.31-.46-1.95-.73l-1.46-.64-.35-.15-.17-.07-.07,0-.69-.29-.18-.08a2.5,2.5,0,0,1-.38-.06l-2.12,4.34-3.22-1.15L249,90.92C210.51,73,168.3,79.47,147.18,103.56c-18.7,21.34-15.37,50.21-14.91,53.7.83,6.4,4,23.9,24.38,46.25,51.11,56.17,124.82,69.05,142.77,71.3a252,252,0,0,0,33.31,1.94c3.37-2.91,7.9-7,13-12.16a106.12,106.12,0,0,0,2.62-23.19c-34.93,4.25-11.78-29-18.6-45.73C327.92,191.1,311.12,190.35,301.3,188.74Z"/><path class="cls-2" d="M455.63,78.86c-1.33-3.28-12.77-30.18-39.83-40.4-30.56-11.54-70.89,2-95.78,35.36L317.33,77c18.83,11.76,26.54,28.87,13.59,54.61-5.49,10.56,18.87,12.56,19.73,19.06,1.49,11.36-10.78,22.73-19.88,32.07,9.12,3.85,25.22,8.5,25.86,13.37,2.35,17.85-28.55,44.67,6.41,48.69a106.83,106.83,0,0,1-8.42,21.87c3.9-2.36,8.13-5.07,12.57-8.15,14.67-10.18,73.05-55.14,90-127.85C464,101.71,458.08,84.87,455.63,78.86Z"/><path d="M332.4,275.94A251,251,0,0,1,299.54,274c-14.63-1.83-90.25-13.87-142.25-71C143.4,187.7,135,171.86,133.11,157.16c-.69-5.27-3.22-32.61,14.72-53.07a63.35,63.35,0,0,1,25.8-17.33c21.91-8.17,49.71-6.88,75,4.91l6.57,2.71,4,1.41,2.5-5.12-.26-.11-.18-.08a3,3,0,0,1-1-.28l-.15-.09-1.77,3.62-2.44-.87-6.49-2.68C211.69,72.63,168.45,78,146.53,103c-18.4,21-15.81,48.93-15.11,54.32,2,15,10.46,31.17,24.58,46.69,52.41,57.59,128.58,69.72,143.31,71.57a254.58,254.58,0,0,0,33.43,1.95h.32l.24-.21c4.17-3.6,8.23-7.37,12.15-11.27.22-1,.44-2,.64-3.07C341.69,267.51,337.13,271.84,332.4,275.94Z"/><path class="cls-3" d="M301.3,188.74c6.45-11.18,15.47-25.08,11.13-35.75-2.48-6.09-26.62-2.36-24-13.88,4.18-19.47-.28-32.55-10.53-41.08a39.29,39.29,0,0,0-4.73-2.85l-.46-.16-.49,1L269,94.88l-6.53-2.7C224,74.25,181.83,80.73,160.71,104.83,142,126.16,145.34,155,145.79,158.52c.84,6.4,4,23.9,24.38,46.26,51.11,56.16,124.82,69,142.78,71.29a252.14,252.14,0,0,0,29.6,1.95c3.16-12.1,6-24.23,5.83-36.62-34.93,4.25-11.78-29-18.6-45.73C327.92,191.1,311.12,190.35,301.3,188.74Z"/><path class="cls-3" d="M458.69,77.05c-1.5-3.22-14.25-29.57-41.78-38.55C385.82,28.35,346.2,43.72,323,78.14l-5.24,6.78c11.71,10.7,15.3,25.62,6,46.64-5,10.8,19.47,11.7,20.64,18.14,2.06,11.28-9.64,23.2-18.27,32.94,9.29,3.43,25.61,7.35,26.49,12.18,3.23,17.73-26.32,45.91,8.8,48.35C359,255.34,353.71,266.7,348.11,278c1.3.26,2.53.5,3.64.7a242.8,242.8,0,0,0,27.44-18.18c14.15-10.82,70.26-58.38,83.63-131.77C468.15,99.5,461.43,82.94,458.69,77.05Z"/><path d="M271.94,94.73l-.13.26-2.44-.87-6.5-2.67C225.22,73.89,182,79.3,160.05,104.3c-18.39,21-15.81,48.94-15.1,54.32,2,15,10.46,31.17,24.58,46.69,52.41,57.6,128.58,69.72,143.31,71.57a255.42,255.42,0,0,0,29.5,1.92l.43-1.63a252.29,252.29,0,0,1-29.71-1.91c-14.63-1.83-90.23-13.87-142.24-71-13.9-15.27-22.26-31.12-24.18-45.82-.69-5.27-3.22-32.6,14.72-53.07A63.43,63.43,0,0,1,187.16,88c21.91-8.17,49.71-6.89,75,4.9l6.57,2.71,4,1.41.84-1.72-.21-.11C272.84,95,272.38,94.86,271.94,94.73Z"/><path d="M461.36,78.14c-2.23-5-14.67-30.4-41.59-39.68-32.08-11.06-72.29,5.1-95.59,38.38l-5.3,6.62c.42.38.83.77,1.22,1.16l5.47-6.83c22.9-32.7,62.27-48.6,93.62-37.79,26.26,9,38.42,33.89,40.59,38.78,6.07,13.63,7.16,31.35,3.17,51.24C448,204.48,389,251.29,377.3,259.92a242.52,242.52,0,0,1-27.38,17.51c-1-.21-2.05-.45-3.08-.67l-.78,1.5c1.27.28,2.55.58,3.82.84l.32.06.28-.15a243.93,243.93,0,0,0,27.86-17.79c11.77-8.69,71.23-55.85,86.28-130.89C468.68,110.12,467.55,92.07,461.36,78.14Z"/><path class="cls-2" d="M198.57,459.46c1.05-9,3-20.57-2.8-26.26-3.31-3.26-17.9,5.92-19.41-2.28-2.74-13.81-9.31-21-18.36-23.67a27.83,27.83,0,0,0-3.88-.51,8.3,8.3,0,0,0-.89.06,1.46,1.46,0,0,1-.29,0,3.43,3.43,0,0,1-1.06.07l-1.17,0a7.4,7.4,0,0,1-1.88,0c-.49,0-1,.07-1.47.07h-2.24a2,2,0,0,1-.26.06l-.16,3.4-2.41.16-5,.09c-29.93-.86-55.44,15.15-62.38,36.66-6.14,19.05,4.09,36.81,5.37,38.95,2.33,3.91,9.3,14.34,28.73,23.13,48.81,22.07,100.14,9.79,112.4,6.22a177,177,0,0,0,22.11-8.06c1.37-2.83,3.16-6.74,5-11.52a74.66,74.66,0,0,0-4.79-15.75C222.35,492.92,228.06,464.93,219,456,216.47,453.54,205.37,457.75,198.57,459.46Z"/><path class="cls-2" d="M267.76,345.13c-1.78-1.75-16.71-16-37.09-15-23,1.08-45.34,21.15-52.13,49.69l-.86,2.81c15.48,2.34,25.26,11.26,24.08,31.56-.61,8.37,15.73,2.85,18.1,6.82,4.15,6.93-.62,17.73-3.89,26.33,7-.06,18.71-1.56,20.48,1.42,6.52,10.9-6,36.91,17.78,29.73a76.05,76.05,0,0,1,.66,16.53c1.86-2.62,3.85-5.56,5.86-8.8,6.65-10.69,31.88-56.15,22.53-108C279.56,357.59,271,348.33,267.76,345.13Z"/><path d="M243.1,507.23a178.1,178.1,0,0,1-21.82,7.93c-10,2.91-62.32,16.27-112-6.19C96,503,86.17,495.05,80.82,486.06c-1.92-3.22-11.21-20.21-5.32-38.48a44.82,44.82,0,0,1,11.86-18.44c11.9-11.42,30.27-18.36,49.94-17.8l5-.09,3-.19.19-4h-.34a2.32,2.32,0,0,1-.74.1l-.12,0-.13,2.84-1.83.12-5,.08c-29.3-.83-55.79,14.77-63,37.1-6,18.73,3.45,36.11,5.42,39.4,5.47,9.18,15.49,17.26,29,23.36,50.05,22.63,102.77,9.17,112.83,6.25a178.74,178.74,0,0,0,22.19-8.09l.21-.09.09-.2c1.69-3.5,3.27-7.08,4.71-10.71-.14-.72-.28-1.44-.43-2.16C246.76,499.17,245,503.25,243.1,507.23Z"/><path class="cls-3" d="M198.57,459.46c1.05-9,3-20.57-2.8-26.26-3.31-3.26-17.9,5.92-19.41-2.28-2.74-13.78-9.28-21-18.31-23.66a27.22,27.22,0,0,0-3.85-.52l-.35,0,0,.79-2.4.16-5,.08C116.5,406.94,91,422.94,84,444.46c-6.14,19.05,4.1,36.81,5.37,38.94,2.33,3.91,9.3,14.35,28.73,23.13,48.81,22.07,100.14,9.79,112.4,6.22a177.14,177.14,0,0,0,19.71-7c-1.33-8.72-2.89-17.36-6.46-25.34C222.35,492.92,228.06,464.93,219,456,216.47,453.54,205.37,457.75,198.57,459.46Z"/><path class="cls-3" d="M269.23,343.1c-1.86-1.67-17.49-15.16-37.84-13.28-23,2.13-44.32,23.17-49.73,51.95l-1.5,5.86c10.58,3.65,17.08,12.31,16.92,28.53-.2,8.38,15.88,2.13,18.44,6,4.49,6.73.25,17.73-2.61,26.45,7-.38,18.64-2.41,20.56.47,7.05,10.58-4.2,37.1,19.22,28.85,1.86,8.55,1.62,17.38,1.15,26.24l2.55-.56a173.11,173.11,0,0,0,12.69-19.45c6.13-11,29.16-57.47,17.29-108.74C281.64,355,272.66,346.14,269.23,343.1Z"/><path d="M153.25,406.8v.2l-1.82.12-5,.09c-29.3-.83-55.79,14.77-63,37.09-6,18.74,3.46,36.11,5.42,39.4,5.47,9.19,15.5,17.26,29,23.36,50.06,22.63,102.77,9.18,112.83,6.25a179.88,179.88,0,0,0,19.64-7l-.18-1.18a179.56,179.56,0,0,1-19.77,7.08c-10,2.9-62.32,16.26-112-6.2-13.28-6-23.12-13.92-28.48-22.9-1.92-3.22-11.21-20.21-5.32-38.49a44.72,44.72,0,0,1,11.86-18.43c11.9-11.42,30.27-18.37,49.95-17.81l5-.08,2.95-.2.07-1.35h-.17C153.92,406.74,153.57,406.76,153.25,406.8Z"/><path d="M271.27,343.06c-2.84-2.62-18-15.59-38-14.06-23.87,1.81-45.39,23.53-51.17,51.59l-1.58,5.78c.38.13.75.26,1.12.41l1.63-6c5.68-27.58,26.73-48.89,50-50.66,19.54-1.49,34.36,11.19,37.14,13.75,7.74,7.13,13.4,18.3,16.38,32.3,11.16,52.39-14,99.23-19.11,108.08a170.1,170.1,0,0,1-12.84,19c-.72.16-1.45.28-2.18.42,0,.4-.06.8-.08,1.2.9-.18,1.81-.34,2.71-.53l.22-.05.14-.17a172.21,172.21,0,0,0,13.06-19.32c5.19-8.92,30.5-56.1,19.26-108.9C285,361.72,279.18,350.34,271.27,343.06Z"/><path class="cls-2" d="M627.13,137.15c5.18-2.19,12-4.64,13.26-9.48.75-2.77-8.61-7.82-4.66-11.12,6.58-5.67,8.47-11.39,7.14-17.06a17.82,17.82,0,0,0-.91-2.24c-.1-.16-.2-.32-.3-.46l-.1-.15a2,2,0,0,1-.36-.54l-.37-.62a4.66,4.66,0,0,1-.6-1c-.17-.25-.33-.5-.48-.77s-.23-.4-.34-.6l-.08-.14,0-.08,0,0c0-.09-.11-.18-.16-.28s0,0,0-.07a1.36,1.36,0,0,1-.12-.12l-1.88,1-.81-1.25-1.56-2.65c-8.63-16.34-25-25.19-38.65-22.38-12.1,2.48-18.53,13.38-19.29,14.71-1.39,2.44-4.88,9.35-3.7,22.46,3,32.93,25.15,56.78,30.79,62.28a109.7,109.7,0,0,0,11,9.44c1.94-.13,4.59-.35,7.73-.79a46.42,46.42,0,0,0,7-7.36c-13.24-7.71,3.53-13.15,5.57-20.76C635.75,145,630.12,140.28,627.13,137.15Z"/><path class="cls-2" d="M709.58,139.6c.4-1.49,3.51-13.83-3.2-24.49-7.57-12-25.13-17.94-42.53-12.92l-1.77.39c3.45,9,1.62,17-9.64,22.53-4.68,2.21,3.24,9.32,1.83,11.79-2.46,4.34-9.71,5.06-15.33,5.91,2.15,3.73,6.52,9.58,5.46,11.43-3.88,6.82-21.65,8-10.58,18.59a46.75,46.75,0,0,1-8.68,5.37c2,.21,4.16.38,6.51.48,7.77.32,39.85.07,64.86-20.69C706.47,149.73,708.85,142.33,709.58,139.6Z"/><path d="M615,175.58a109.54,109.54,0,0,1-10.89-9.32c-4.59-4.48-27.66-28.54-30.68-62-.81-8.95.46-16.65,3.66-22.25,1.15-2,7.46-12.16,19.06-14.55a27.55,27.55,0,0,1,13.51.78c9.75,2.92,19.06,10.68,24.74,21.42L636,92.28l1,1.53,2.21-1.12-.06-.11s0,0,0-.07a1.25,1.25,0,0,1-.28-.37.15.15,0,0,1,0-.07l-1.57.79-.62-.94L635,89.28c-8.45-16-24.87-25.49-39-22.58-11.91,2.45-18.36,12.83-19.53,14.88-3.27,5.73-4.57,13.57-3.75,22.67,3,33.76,26.28,58,30.91,62.52a111,111,0,0,0,11.08,9.47l.11.08h.14q3.6-.23,7.18-.72c.35-.29.69-.59,1-.89C620.43,175.1,617.71,175.4,615,175.58Z"/><path class="cls-3" d="M627.13,137.15c5.18-2.19,12-4.64,13.26-9.48.75-2.77-8.61-7.82-4.66-11.12,6.57-5.66,8.46-11.37,7.15-17a19.18,19.18,0,0,0-.89-2.23l-.12-.18-.43.22-.82-1.24-1.56-2.65c-8.63-16.34-25-25.19-38.64-22.39-12.1,2.49-18.54,13.38-19.3,14.71-1.39,2.44-4.88,9.36-3.7,22.47,3,32.92,25.15,56.78,30.79,62.28A110.55,110.55,0,0,0,618,179c4.28-3.37,8.45-6.83,11.65-11.17-13.24-7.71,3.53-13.15,5.57-20.76C635.75,145,630.12,140.28,627.13,137.15Z"/><path class="cls-3" d="M711.12,139.78c.32-1.51,2.83-14-4.36-24.37-8.12-11.69-25.91-16.78-43-10.94l-3.6,1c1.25,6.8-1.43,12.92-10.19,17.76-4.57,2.44,3.68,9.17,2.39,11.72-2.25,4.45-9.45,5.51-15,6.62,2.33,3.64,7,9.29,6,11.2-3.54,7-21.2,9-9.66,19.09-4,3.59-8.84,6.15-13.75,8.58l1.08,1.2a104.55,104.55,0,0,0,14.3.91c7.76,0,39.73-1.78,63.68-23.73C708.5,150.05,710.52,142.54,711.12,139.78Z"/><path d="M641.67,96.8l-.12.06-.62-.94-1.54-2.64c-8.45-16-24.88-25.49-39.06-22.58C588.43,73.14,582,83.52,580.8,85.58c-3.27,5.73-4.57,13.56-3.75,22.66,3,33.77,26.28,58,30.91,62.52a111.31,111.31,0,0,0,9.73,8.43l.58-.46a109.7,109.7,0,0,1-9.81-8.47c-4.59-4.48-27.66-28.54-30.68-62-.8-9,.46-16.65,3.66-22.26,1.15-2,7.46-12.16,19.06-14.54a27.67,27.67,0,0,1,13.51.77c9.75,2.93,19.06,10.69,24.74,21.43l1.57,2.67,1,1.52.74-.37,0-.09C641.9,97.15,641.79,97,641.67,96.8Z"/><path d="M711.76,140.86c.54-2.32,2.9-14.41-4-24.71-8.22-12.27-26.42-17.24-43.26-11.82l-3.58.91.12.72,3.69-.93c16.55-5.33,34.39-.49,42.43,11.51,6.73,10,4.41,21.86,3.88,24.13-1.48,6.32-5.76,12.76-12.38,18.61-24.76,21.91-57.55,22.63-63.88,22.55a105.79,105.79,0,0,1-14.1-1.13c-.3-.34-.59-.69-.89-1l-.67.32c.37.43.73.87,1.11,1.29l.09.11.14,0a104.5,104.5,0,0,0,14.35,1.15c6.36.08,39.4-.65,64.36-22.72C705.89,153.88,710.24,147.32,711.76,140.86Z"/><path class="cls-2" d="M549.39,411.17c2.6-6.45,6.37-14.55,3.24-19.92-1.78-3.07-14.39.74-13.84-5.61.76-10.73-2.62-17.39-8.76-21.16a21.72,21.72,0,0,0-2.76-1.16,5.64,5.64,0,0,0-.67-.13l-.21-.05a2.42,2.42,0,0,1-.8-.16l-.87-.21a5.45,5.45,0,0,1-1.39-.35c-.37-.07-.74-.15-1.1-.24l-.83-.23-.19-.06-.1,0h0l-.39-.1-.1,0h-.21l-.81,2.48-1.8-.37-3.69-.95c-21.89-6.67-43.94,0-53.4,14.43-8.38,12.8-4.43,28-3.92,29.8.93,3.35,4,12.46,16.51,22.86,31.52,26.14,71.85,27.46,81.61,27.3a135.45,135.45,0,0,0,17.94-1.47c1.58-1.81,3.69-4.33,6-7.48a57.4,57.4,0,0,0-.35-12.57c-18.34,4.9-8.48-14.58-13.38-23C563.78,410.43,554.75,411.29,549.39,411.17Z"/><path class="cls-2" d="M623.51,340.86c-1-1.65-9.09-15.15-24.31-18.57-17.19-3.85-37.7,6.43-48.48,26.1l-1.2,1.9c10.94,4.85,16.35,13.41,11.38,28.14-2.14,6.05,11,5.28,12,8.68,1.65,5.95-4,12.95-8.2,18.63,5.16,1.37,14.11,2.63,14.82,5.19,2.6,9.35-11.88,26,7.09,25.51a57.8,57.8,0,0,1-2.85,12.32c1.91-1.56,4-3.32,6.1-5.3,7.06-6.54,34.85-35,38.44-75.06C629.69,352.44,625.28,343.88,623.51,340.86Z"/><path d="M572.57,455.39a134.11,134.11,0,0,1-17.7,1.44c-8,.13-49.23-.6-81.31-27.2C465,422.53,459.33,414.7,457.2,407c-.77-2.76-4.18-17.17,3.85-29.45a34.29,34.29,0,0,1,12.47-11.2c11.09-6,26-7.42,40.42-3l3.72.95,2.22.45,1-2.92-.15,0-.1,0a1.58,1.58,0,0,1-.57-.08l-.09,0-.67,2.06-1.37-.28-3.67-.94c-21.43-6.53-44.11-.39-53.93,14.62-8.24,12.59-4.76,27.32-4,30.15,2.18,7.87,7.93,15.85,16.64,23.07,32.33,26.81,73.92,27.54,81.93,27.41a136.8,136.8,0,0,0,18-1.47l.17,0,.12-.13c2-2.23,3.83-4.55,5.63-6.93.05-.56.08-1.13.12-1.69C576.89,450.19,574.78,452.85,572.57,455.39Z"/><path class="cls-3" d="M549.39,411.17c2.6-6.45,6.37-14.55,3.24-19.92-1.78-3.07-14.39.74-13.84-5.61.76-10.71-2.6-17.36-8.72-21.14a21.49,21.49,0,0,0-2.74-1.17l-.26-.05-.19.57-1.8-.37-3.69-.94c-21.9-6.68-43.95,0-53.41,14.43-8.37,12.8-4.42,28-3.91,29.79.93,3.36,4,12.46,16.51,22.86,31.52,26.14,71.85,27.46,81.61,27.31a136.83,136.83,0,0,0,15.95-1.19c.78-6.7,1.38-13.39.36-20-18.34,4.9-8.48-14.58-13.38-23C563.78,410.43,554.75,411.29,549.39,411.17Z"/><path class="cls-3" d="M625,339.66c-1-1.6-9.84-14.71-25.22-17.43-17.37-3.08-37.36,8.12-47.17,28.25l-2.28,4c7.06,4.84,10.1,12.53,6.7,24.46-1.84,6.14,11.28,4.78,12.39,8.13,2,5.87-3.4,13.12-7.27,19,5.22,1.13,14.23,2,15.06,4.51,3.06,9.22-10.59,26.49,8.35,25.15-.36,6.68-2.32,13.14-4.46,19.58l2,.1a131.56,131.56,0,0,0,13.29-11.78c6.74-6.85,33.11-36.47,34.72-76.67C631.75,350.94,626.92,342.6,625,339.66Z"/><path d="M526.62,363.19l0,.15-1.37-.28-3.67-.94c-21.43-6.54-44.12-.39-53.94,14.61-8.24,12.6-4.75,27.33-4,30.15,2.19,7.88,7.94,15.86,16.65,23.08,32.33,26.8,73.92,27.53,81.92,27.41a136.21,136.21,0,0,0,15.9-1.2c0-.3.07-.6.11-.9a138.28,138.28,0,0,1-16,1.22c-8,.12-49.23-.6-81.31-27.2-8.57-7.11-14.23-14.94-16.37-22.64-.76-2.77-4.17-17.17,3.86-29.45A34.2,34.2,0,0,1,480.84,366c11.08-6,26-7.42,40.42-3l3.72.95,2.21.45.32-1-.12,0A5.56,5.56,0,0,0,526.62,363.19Z"/><path d="M626.52,340c-1.57-2.5-10.13-15.12-25.2-18.05-18-3.48-38.22,8.18-48.15,27.7l-2.34,3.94c.26.17.5.35.75.53l2.4-4.06c9.76-19.19,29.59-30.65,47.15-27.24,14.7,2.85,23.07,15.2,24.59,17.65,4.27,6.82,6.19,16.2,5.56,27.12-2.37,40.88-30.36,70.34-35.94,75.82A130.23,130.23,0,0,1,582,454.87c-.57,0-1.13-.09-1.7-.13l-.3.86c.7,0,1.4.12,2.1.16h.18l.14-.1A132.41,132.41,0,0,0,596,444.07c5.63-5.53,33.83-35.2,36.21-76.4C632.84,356.57,630.87,347,626.52,340Z"/><path class="cls-2" d="M186.66,752.14c2.6-6.45,6.36-14.55,3.24-19.92-1.78-3.07-14.39.74-13.85-5.61.77-10.73-2.61-17.39-8.75-21.16a20.36,20.36,0,0,0-2.76-1.16,6.06,6.06,0,0,0-.67-.13l-.22,0a2.37,2.37,0,0,1-.79-.16l-.87-.21a5.45,5.45,0,0,1-1.39-.35c-.37-.07-.74-.15-1.1-.24l-.83-.23-.2-.06-.09,0h0l-.4-.11-.1,0h-.2l-.81,2.48-1.8-.37-3.69-.95c-21.9-6.67-43.94,0-53.41,14.43-8.37,12.8-4.42,28-3.91,29.8.93,3.35,4,12.46,16.51,22.86,31.52,26.14,71.85,27.46,81.61,27.3a135.11,135.11,0,0,0,17.93-1.47c1.59-1.81,3.7-4.33,6.05-7.48a57.4,57.4,0,0,0-.35-12.57c-18.34,4.9-8.48-14.58-13.38-23C201.05,751.4,192,752.26,186.66,752.14Z"/><path class="cls-2" d="M260.78,681.83c-1-1.65-9.09-15.15-24.31-18.57-17.19-3.86-37.7,6.43-48.48,26.1l-1.2,1.9c10.94,4.85,16.35,13.41,11.38,28.13-2.14,6.06,11,5.29,12,8.69,1.66,5.95-4,12.95-8.19,18.63,5.16,1.37,14.11,2.63,14.82,5.19,2.6,9.35-11.88,26,7.09,25.51A57.8,57.8,0,0,1,221,789.73c1.91-1.56,4-3.32,6.1-5.3,7.06-6.54,34.85-35,38.44-75.06C267,693.41,262.54,684.85,260.78,681.83Z"/><path d="M209.84,796.36a134.11,134.11,0,0,1-17.7,1.44c-7.95.13-49.23-.6-81.31-27.2-8.57-7.1-14.23-14.93-16.37-22.64-.76-2.76-4.17-17.17,3.86-29.45a34.29,34.29,0,0,1,12.47-11.2c11.09-6,26-7.42,40.42-3l3.72,1,2.22.45.95-2.92-.16,0-.1,0a1.49,1.49,0,0,1-.56-.08l-.09,0-.67,2.06-1.37-.28-3.67-.94c-21.43-6.53-44.11-.39-53.94,14.62-8.24,12.59-4.75,27.32-4,30.15,2.19,7.87,7.94,15.85,16.65,23.07,32.33,26.81,73.92,27.54,81.93,27.41a136.94,136.94,0,0,0,18-1.47l.17,0,.12-.13c1.95-2.23,3.83-4.55,5.63-6.93l.12-1.69C214.16,791.16,212.05,793.82,209.84,796.36Z"/><path class="cls-3" d="M186.66,752.14c2.6-6.45,6.36-14.55,3.24-19.92-1.78-3.07-14.39.74-13.85-5.61.77-10.71-2.6-17.36-8.71-21.14a22.12,22.12,0,0,0-2.74-1.17l-.26,0-.19.57-1.8-.37-3.69-.94c-21.9-6.68-43.95,0-53.41,14.43-8.38,12.8-4.42,28-3.91,29.79.93,3.36,4,12.46,16.5,22.86,31.53,26.14,71.86,27.46,81.62,27.31a137,137,0,0,0,15.95-1.19c.78-6.7,1.38-13.39.36-20-18.34,4.9-8.48-14.58-13.38-23C201.05,751.4,192,752.26,186.66,752.14Z"/><path class="cls-3" d="M262.28,680.63c-1-1.6-9.84-14.71-25.22-17.43-17.37-3.08-37.36,8.12-47.17,28.25l-2.28,4c7.06,4.84,10.1,12.53,6.7,24.46-1.84,6.14,11.28,4.78,12.39,8.13,2,5.87-3.4,13.12-7.27,19,5.22,1.13,14.23,2,15.06,4.51,3.06,9.22-10.59,26.49,8.35,25.15-.36,6.68-2.32,13.14-4.46,19.57.71,0,1.39.08,2,.11a131.56,131.56,0,0,0,13.29-11.78c6.74-6.85,33.11-36.47,34.72-76.67C269,691.91,264.19,683.57,262.28,680.63Z"/><path d="M163.89,704.16l0,.15-1.37-.28-3.67-.94c-21.43-6.54-44.12-.39-53.94,14.61-8.24,12.6-4.75,27.33-4,30.15,2.18,7.88,7.94,15.86,16.65,23.08,32.33,26.8,73.92,27.53,81.92,27.41a136.37,136.37,0,0,0,15.9-1.2c0-.3.07-.6.11-.9a138.28,138.28,0,0,1-16,1.22c-8,.12-49.23-.6-81.31-27.2-8.57-7.11-14.23-14.94-16.37-22.65-.76-2.76-4.17-17.16,3.86-29.44A34.2,34.2,0,0,1,118.11,707c11.08-6,26-7.42,40.42-3l3.72,1,2.21.45.32-1-.12,0A5.56,5.56,0,0,0,163.89,704.16Z"/><path d="M263.78,681c-1.56-2.5-10.12-15.12-25.19-18-18-3.48-38.22,8.18-48.15,27.7l-2.34,3.94c.26.17.5.35.75.53l2.4-4.06c9.76-19.19,29.59-30.65,47.14-27.24,14.7,2.85,23.07,15.2,24.6,17.64,4.27,6.83,6.19,16.21,5.56,27.13-2.37,40.88-30.36,70.34-36,75.82a128.12,128.12,0,0,1-13.3,11.42l-1.69-.13-.3.86c.7,0,1.4.12,2.1.16h.18l.13-.1A132.53,132.53,0,0,0,233.26,785c5.63-5.53,33.82-35.2,36.2-76.4C270.11,697.54,268.14,688,263.78,681Z"/><path class="cls-2" d="M860.43,991.2c5.68-4,13.23-8.79,13.51-15,.16-3.54-12.51-7.16-8.61-12.2,6.46-8.61,7.21-16,4.09-22.54a20.26,20.26,0,0,0-1.69-2.46c-.16-.17-.33-.34-.49-.48a1.21,1.21,0,0,1-.16-.16,2.37,2.37,0,0,1-.58-.56c-.21-.21-.41-.43-.62-.65a5.41,5.41,0,0,1-1-1c-.27-.25-.54-.52-.79-.79l-.57-.65-.14-.15-.07-.07,0,0-.27-.29L863,934l-.17-.11-2,1.64-1.32-1.29-2.59-2.79c-14.79-17.46-36.93-23.81-52.71-16.77-14,6.23-18.86,21.12-19.42,22.94-1,3.32-3.41,12.61,1.51,28.15,12.36,39.05,45.56,62,53.85,67.14a138.72,138.72,0,0,0,15.87,8.47c2.31-.67,5.45-1.65,9.13-3a56.87,56.87,0,0,0,6.51-10.77c-18.06-5.8.77-16.84,1.21-26.6C872.93,998.37,864.87,994.2,860.43,991.2Z"/><path class="cls-2" d="M960.81,972.2c.09-1.91.55-17.66-10.39-28.78-12.37-12.54-35.19-15-54.9-4.29l-2,1c6.57,10,6.49,20.12-5.66,29.81-5.08,3.94,6.41,10.41,5.36,13.79-1.83,5.9-10.41,8.7-17,11.22,3.6,3.94,10.44,9.86,9.65,12.39-2.87,9.27-24.06,15.43-7.84,25.29a58.24,58.24,0,0,1-9.07,8.82c2.45-.28,5.13-.66,8-1.16,9.48-1.68,48.23-10.53,72.95-42.31C959.74,985.27,960.66,975.69,960.81,972.2Z"/><path d="M856,1040.93a135.17,135.17,0,0,1-15.65-8.37c-6.76-4.19-41.08-27.15-53.66-66.87-3.36-10.62-3.88-20.27-1.5-27.9.85-2.74,5.78-16.7,19.18-22.68a34.27,34.27,0,0,1,16.55-2.66c12.57.94,25.9,7.84,35.63,19.32l2.61,2.81,1.62,1.58,2.38-1.94-.11-.11L863,934a1.58,1.58,0,0,1-.44-.37l0-.07L860.79,935l-1-1-2.58-2.77C842.73,914.11,820.33,907,804,914.3c-13.75,6.13-18.79,20.41-19.66,23.21-2.43,7.8-1.9,17.62,1.51,28.41,12.68,40,47.25,63.16,54.05,67.39a137.5,137.5,0,0,0,15.93,8.5l.16.07.17-.05c2.85-.82,5.69-1.75,8.49-2.78.34-.45.68-.9,1-1.36C862.44,1038.9,859.23,1040,856,1040.93Z"/><path class="cls-3" d="M860.43,991.2c5.68-4,13.23-8.79,13.51-15,.16-3.54-12.51-7.16-8.61-12.2,6.44-8.6,7.21-16,4.11-22.5a20.09,20.09,0,0,0-1.67-2.46l-.19-.19-.47.38-1.31-1.29-2.6-2.79c-14.79-17.46-36.93-23.81-52.71-16.77-14,6.23-18.85,21.12-19.42,22.94-1,3.32-3.41,12.61,1.51,28.15,12.36,39,45.56,62,53.85,67.14a137.61,137.61,0,0,0,14.06,7.63c4.28-5.21,8.4-10.51,11.11-16.62-18.06-5.8.77-16.84,1.21-26.6C872.93,998.37,864.87,994.2,860.43,991.2Z"/><path class="cls-3" d="M962.72,972c0-1.91-.31-17.7-11.77-28.31-12.94-12-35.81-13.39-55-1.77l-4.1,2.14c3.32,7.88,1.71,16-7.6,24.19-4.87,4.17,6.9,10.12,6,13.54-1.54,6-10,9.19-16.38,12,3.78,3.77,10.89,9.37,10.23,11.94-2.42,9.41-23.25,16.55-6.6,25.67-3.92,5.42-9.06,9.79-14.34,14,.57.42,1.12.82,1.62,1.17a131.79,131.79,0,0,0,17.54-2.71c9.38-2.11,47.59-12.75,70.7-45.68C962.29,985.13,962.73,975.5,962.72,972Z"/><path d="M867.25,938.53l-.12.1-1-1-2.58-2.77c-14.48-17.1-36.88-24.21-53.26-16.9-13.75,6.12-18.79,20.4-19.66,23.2-2.43,7.8-1.9,17.63,1.51,28.41,12.68,40,47.25,63.16,54.05,67.39a138.42,138.42,0,0,0,14,7.6l.58-.71a133.51,133.51,0,0,1-14.12-7.64c-6.75-4.19-41.07-27.14-53.65-66.87-3.37-10.62-3.89-20.27-1.51-27.9.85-2.74,5.78-16.7,19.18-22.67a34.15,34.15,0,0,1,16.55-2.67c12.57.94,25.9,7.84,35.63,19.32l2.61,2.81,1.62,1.58.8-.65a.39.39,0,0,1-.08-.1A7.27,7.27,0,0,0,867.25,938.53Z"/><path d="M963.78,973.14c0-2.95-.33-18.2-11.42-28.82-13.22-12.65-36.56-13.81-55.48-2.77l-4.09,2.05c.12.28.23.56.34.84l4.21-2.11c18.6-10.85,41.47-9.76,54.39,2.61,10.82,10.36,11.17,25.27,11.13,28.15-.1,8-3.56,17-10,25.82-24.11,33.1-63.59,42.71-71.26,44.31a129.87,129.87,0,0,1-17.36,2.39c-.46-.33-.9-.68-1.35-1l-.73.56c.57.42,1.12.86,1.69,1.27l.14.11.17,0a131.09,131.09,0,0,0,17.66-2.42c7.73-1.61,47.49-11.29,71.79-44.65C960.15,990.45,963.67,981.36,963.78,973.14Z"/><path class="cls-2" d="M1122.42,1031.58c.88-3.69,2.25-8.35.14-11-1.21-1.5-7.69,1.57-7.91-1.89-.45-5.84-2.81-9.15-6.41-10.68a11.79,11.79,0,0,0-1.58-.4l-.37,0h-.12a1.6,1.6,0,0,1-.44,0l-.49,0a2.56,2.56,0,0,1-.78-.08c-.2,0-.4,0-.61,0l-.46,0-.11,0h-.08l-.22,0h0l-.11,0-.24,1.39-1-.05-2.06-.21c-12.32-1.82-23.64,3.53-27.56,12.08-3.48,7.56-.12,15.4.3,16.34.77,1.73,3.13,6.38,10.72,11,19.07,11.51,40.88,9,46.11,8.09a72.63,72.63,0,0,0,9.53-2.24c.71-1.1,1.64-2.63,2.65-4.51a30.76,30.76,0,0,0-1.21-6.74c-9.46,4.12-5.73-7.15-9-11.3C1130.1,1030,1125.31,1031.21,1122.42,1031.58Z"/><path class="cls-2" d="M1156.62,987.77c-.65-.81-6.12-7.42-14.58-8-9.56-.69-19.77,6.5-24,18l-.5,1.11c6.28,1.73,9.88,5.9,8.4,14.22-.67,3.43,6.35,2,7.14,3.71,1.37,3.06-1.13,7.29-2.91,10.68,2.89.32,7.8.28,8.39,1.59,2.16,4.82-4.29,15,5.88,13.15a31.66,31.66,0,0,1-.54,6.86c.9-1,1.86-2.11,2.85-3.34,3.27-4.09,15.93-21.62,14.62-43.49C1160.88,993.49,1157.81,989.25,1156.62,987.77Z"/><path d="M1138.46,1053.49a72,72,0,0,1-9.4,2.2c-4.27.71-26.54,3.66-45.94-8.06-5.19-3.13-8.86-6.89-10.63-10.86-.64-1.42-3.64-8.9-.31-16.15a18.58,18.58,0,0,1,5.81-7c5.47-4.13,13.4-6.1,21.5-4.9l2.07.21,1.23.07.28-1.65h-.14a.81.81,0,0,1-.31,0h0l-.2,1.16-.76,0-2-.21c-12-1.78-23.76,3.36-27.83,12.22-3.42,7.44-.35,15.08.3,16.54,1.81,4.06,5.55,7.89,10.82,11.07,19.55,11.81,42,8.84,46.28,8.13a73.77,73.77,0,0,0,9.56-2.25l.09,0,0-.07c.87-1.37,1.7-2.77,2.47-4.19,0-.31,0-.61-.07-.92C1140.37,1050.34,1139.45,1051.94,1138.46,1053.49Z"/><path class="cls-3" d="M1122.42,1031.58c.88-3.69,2.25-8.35.14-11-1.21-1.5-7.69,1.57-7.91-1.89-.45-5.83-2.8-9.13-6.39-10.67a12.07,12.07,0,0,0-1.57-.41h-.14l-.06.33-1-.05-2.06-.22c-12.32-1.82-23.64,3.54-27.56,12.08-3.48,7.56-.12,15.4.3,16.34.77,1.73,3.13,6.39,10.72,11,19.07,11.51,40.88,9,46.11,8.1a75.76,75.76,0,0,0,8.49-1.93,40.16,40.16,0,0,0-1.43-10.79c-9.46,4.12-5.73-7.15-9-11.3C1130.1,1030,1125.31,1031.21,1122.42,1031.58Z"/><path class="cls-3" d="M1157.32,987c-.69-.78-6.48-7.12-15-7.34-9.59-.25-19.44,7.38-23.09,19l-.91,2.35c4.19,2,6.45,5.92,5.59,12.61-.5,3.45,6.45,1.66,7.32,3.38,1.52,3-.77,7.33-2.38,10.79,2.9.18,7.81-.08,8.46,1.21,2.39,4.71-3.55,15.11,6.52,12.85a40.85,40.85,0,0,1-.81,10.89l1.08-.1a71.47,71.47,0,0,0,6.19-7.41c3.07-4.23,14.87-22.3,12.49-44.05C1161.86,992.52,1158.59,988.43,1157.32,987Z"/><path d="M1106.3,1007.6l0,.08-.76,0-2-.21c-12.06-1.79-23.76,3.35-27.83,12.22-3.42,7.44-.35,15.08.3,16.53,1.81,4.06,5.55,7.89,10.82,11.07,19.55,11.81,42,8.85,46.28,8.13a71.76,71.76,0,0,0,8.45-1.93c0-.16,0-.33,0-.49a75.39,75.39,0,0,1-8.51,2c-4.27.71-26.54,3.65-45.94-8.07-5.19-3.13-8.86-6.88-10.63-10.86-.64-1.42-3.64-8.89-.31-16.15a18.58,18.58,0,0,1,5.81-7c5.47-4.13,13.4-6.09,21.5-4.9l2.07.22,1.23.06.09-.55-.06,0Z"/><path d="M1158.17,987.08c-1.05-1.22-6.67-7.32-15-7.67-9.94-.43-19.9,7.48-23.66,18.79l-.94,2.3.44.23,1-2.38c3.7-11.11,13.44-18.88,23.16-18.46,8.14.35,13.64,6.31,14.66,7.51,2.84,3.32,4.63,8.21,5.18,14.14,2,22.18-10.65,40.29-13.22,43.69a71.2,71.2,0,0,1-6.23,7.22l-.92.06-.09.49,1.14-.08h.1l.06-.07a72.52,72.52,0,0,0,6.35-7.33c2.58-3.43,15.35-21.67,13.3-44C1162.9,995.46,1161.07,990.48,1158.17,987.08Z"/><path class="cls-2" d="M875.05,817.9c3.55,1.33,8,3.27,10.88,1.5,1.65-1-.6-7.82,2.86-7.61,5.85.28,9.43-1.65,11.4-5a12.45,12.45,0,0,0,.59-1.51c0-.13.05-.25.07-.37a.5.5,0,0,1,0-.12,1.31,1.31,0,0,1,.08-.43c0-.16.06-.32.1-.48a2.8,2.8,0,0,1,.17-.76q0-.3.12-.6c0-.15.07-.3.11-.45l0-.11v-.08a1.6,1.6,0,0,1,0-.21.13.13,0,0,1,0,0v-.12l-1.36-.4.18-1,.46-2c3.35-12-.56-23.89-8.55-28.85-7.07-4.39-15.26-2-16.25-1.73-1.81.55-6.72,2.31-12.22,9.28-13.79,17.48-14,39.43-13.77,44.74a74.43,74.43,0,0,0,1,9.73c1,.84,2.41,1.95,4.15,3.19a30.59,30.59,0,0,0,6.83-.36c-2.91-9.9,7.82-4.8,12.34-7.58C875.65,825.71,875.06,820.82,875.05,817.9Z"/><path class="cls-2" d="M914.27,857.28c.88-.54,8.12-5.15,9.77-13.47,1.87-9.4-4-20.42-14.83-26l-1.05-.63c-2.49,6-7.07,9.07-15.15,6.56-3.32-1.08-2.73,6.07-4.56,6.63-3.22,1-7.1-2-10.24-4.21-.68,2.82-1.25,7.7-2.63,8.12-5.05,1.54-14.3-6.11-13.78,4.2a31.43,31.43,0,0,1-6.74-1.39c.88,1,1.86,2.11,3,3.25,3.65,3.75,19.47,18.49,41.32,19.91C908.05,860.79,912.65,858.28,914.27,857.28Z"/><path d="M851.31,831.09a73.5,73.5,0,0,1-1-9.61c-.17-4.32-.32-26.78,13.72-44.57,3.75-4.76,7.94-7.94,12.1-9.2,1.49-.46,9.28-2.5,16.06,1.71a18.56,18.56,0,0,1,6.26,6.63c3.41,6,4.38,14.06,2.18,21.94l-.47,2-.21,1.22,1.6.47a.31.31,0,0,1,0-.08.13.13,0,0,1,0,0,1,1,0,0,1,0-.31l0,0-1.13-.34.13-.75.47-2c3.27-11.75-.38-24-8.67-29.14-6.95-4.32-14.92-2.23-16.44-1.76-4.26,1.29-8.52,4.52-12.33,9.35-14.15,17.94-14,40.56-13.83,44.92a74.09,74.09,0,0,0,1,9.76l0,.1.07.06c1.24,1,2.53,2,3.85,3l.92,0C854.2,833.37,852.72,832.26,851.31,831.09Z"/><path class="cls-3" d="M875.05,817.9c3.55,1.33,8,3.27,10.88,1.5,1.65-1-.6-7.82,2.86-7.61,5.84.28,9.41-1.64,11.39-5a13.18,13.18,0,0,0,.6-1.51s0-.1,0-.14l-.31-.1.17-1,.47-2c3.34-12-.56-23.9-8.55-28.85-7.08-4.39-15.27-2-16.26-1.74-1.81.55-6.72,2.32-12.21,9.28-13.8,17.49-14,39.44-13.77,44.75a73,73,0,0,0,.86,8.65,40.36,40.36,0,0,0,10.87-.07c-2.91-9.9,7.82-4.8,12.34-7.58C875.65,825.71,875.06,820.82,875.05,817.9Z"/><path class="cls-3" d="M914.94,858.08c.86-.59,7.87-5.55,9.15-14,1.44-9.48-4.91-20.21-16-25.28l-2.21-1.19c-2.54,3.91-6.68,5.66-13.22,4-3.36-.92-2.44,6.19-4.25,6.84-3.17,1.14-7.18-1.68-10.41-3.71-.55,2.86-.9,7.77-2.26,8.26-5,1.78-14.55-5.41-13.56,4.87a41.11,41.11,0,0,1-10.71-2.17c0,.39,0,.76,0,1.09a70.44,70.44,0,0,0,6.58,7.06c3.81,3.58,20.27,17.53,42.16,17.88C908.9,861.89,913.36,859.15,914.94,858.08Z"/><path d="M900.84,804.88l-.08,0,.14-.75.46-2c3.27-11.74-.37-24-8.66-29.14-7-4.31-14.92-2.22-16.45-1.76-4.25,1.29-8.52,4.53-12.33,9.36-14.15,17.94-14,40.56-13.82,44.91a73.31,73.31,0,0,0,.86,8.63l.49,0a72.45,72.45,0,0,1-.87-8.69c-.17-4.32-.33-26.78,13.72-44.58,3.75-4.75,7.93-7.94,12.09-9.2,1.49-.45,9.28-2.5,16.07,1.71a18.57,18.57,0,0,1,6.25,6.64c3.42,5.94,4.38,14.05,2.19,21.94l-.47,2-.22,1.21.54.16a.64.64,0,0,0,0-.07A3.07,3.07,0,0,0,900.84,804.88Z"/><path d="M914.75,858.9c1.34-.88,8.09-5.7,9.48-13.94,1.66-9.81-5-20.68-15.7-25.82l-2.17-1.22-.27.41,2.24,1.26c10.56,5,17,15.68,15.43,25.28-1.36,8-8,12.74-9.27,13.61-3.65,2.41-8.73,3.57-14.68,3.37-22.26-.74-38.65-15.57-41.71-18.54a71.42,71.42,0,0,1-6.38-7.08c0-.31,0-.62,0-.92l-.48-.16c0,.38,0,.77,0,1.15v.09l.06.08a71.49,71.49,0,0,0,6.49,7.21c3.08,3,19.58,17.92,42,18.67C905.85,862.56,911,861.36,914.75,858.9Z"/><path class="cls-2" d="M640.52,1033.13c1.16-3.61,2.88-8.15,1-10.94-1.09-1.6-7.78,1-7.74-2.49,0-5.86-2.11-9.33-5.59-11.13a10,10,0,0,0-1.54-.52l-.37,0h-.12a1.67,1.67,0,0,1-.44-.06l-.48-.08a2.89,2.89,0,0,1-.77-.13l-.6-.09-.46-.09-.11,0h-.08l-.21,0h-.17l-.34,1.37-1-.13-2-.36c-12.14-2.75-23.84,1.73-28.4,9.95-4,7.28-1.28,15.35-.94,16.32.64,1.78,2.65,6.6,9.87,11.75,18.15,12.92,40.08,12,45.37,11.56a76.39,76.39,0,0,0,9.67-1.51c.78-1.05,1.83-2.5,3-4.3a31.06,31.06,0,0,0-.7-6.81c-9.75,3.39-5.17-7.57-8.17-12C648.3,1032.15,643.44,1033,640.52,1033.13Z"/><path class="cls-2" d="M677.94,992c-.59-.86-5.54-7.86-13.93-9.11-9.48-1.4-20.2,5-25.27,16.09l-.57,1.08c6.13,2.2,9.4,6.62,7.29,14.81-.92,3.37,6.19,2.43,6.84,4.24,1.14,3.16-1.67,7.19-3.7,10.43,2.85.54,7.76.87,8.24,2.22,1.79,5-5.4,14.58,4.87,13.56a31.46,31.46,0,0,1-1.06,6.8c1-.92,2-2,3.1-3.12,3.57-3.83,17.52-20.35,17.86-42.25C681.75,998.06,679,993.6,677.94,992Z"/><path d="M654.86,1056.19a74.8,74.8,0,0,1-9.54,1.49c-4.31.38-26.74,1.63-45.2-11.52-4.93-3.51-8.31-7.53-9.78-11.63-.52-1.47-3-9.15.92-16.13a18.55,18.55,0,0,1,6.32-6.57c5.77-3.71,13.82-5.07,21.81-3.26l2.05.37,1.22.16.4-1.62-.08,0h-.06a1.08,1.08,0,0,1-.31,0h-.05l-.28,1.14-.75-.09-2-.37c-11.89-2.69-24,1.55-28.68,10.08-4,7.16-1.49,15-1,16.51,1.5,4.19,4.94,8.29,10,11.86,18.6,13.25,41.2,12,45.53,11.61a73.73,73.73,0,0,0,9.71-1.52l.09,0,.06-.08q1.45-1.93,2.78-4c0-.31,0-.62,0-.92Q656.51,1054,654.86,1056.19Z"/><path class="cls-3" d="M640.52,1033.13c1.16-3.61,2.88-8.15,1-10.94-1.09-1.6-7.78,1-7.74-2.49,0-5.84-2.1-9.32-5.57-11.13a12.5,12.5,0,0,0-1.53-.52l-.14,0-.08.32-1-.13-2-.36c-12.15-2.75-23.85,1.73-28.4,9.95-4,7.28-1.29,15.35-.94,16.32.64,1.79,2.64,6.6,9.87,11.75,18.14,12.92,40.07,12,45.36,11.56a75.37,75.37,0,0,0,8.61-1.28,40.6,40.6,0,0,0-.61-10.86c-9.75,3.39-5.17-7.57-8.17-12C648.3,1032.15,643.44,1033,640.52,1033.13Z"/><path class="cls-3" d="M678.7,991.32c-.63-.83-5.92-7.59-14.37-8.46-9.55-1-20,5.9-24.47,17.21l-1.08,2.27c4,2.34,6,6.39,4.61,13-.75,3.4,6.31,2.14,7.05,3.92,1.29,3.1-1.32,7.25-3.19,10.58,2.87.4,7.8.51,8.35,1.84,2,4.88-4.69,14.8,5.53,13.32a41.13,41.13,0,0,1-1.64,10.79l1.09,0a71.43,71.43,0,0,0,6.73-6.92c3.39-4,16.52-21.1,15.79-43C682.81,997.17,679.85,992.84,678.7,991.32Z"/><path d="M626.26,1008l0,.08-.76-.09-2-.37c-11.89-2.69-24,1.55-28.68,10.08-4,7.16-1.49,15-1,16.51,1.5,4.19,4.94,8.29,10,11.86,18.6,13.26,41.19,12,45.53,11.61a77.51,77.51,0,0,0,8.58-1.28c0-.17,0-.33,0-.5a73.79,73.79,0,0,1-8.64,1.3c-4.3.38-26.73,1.63-45.19-11.52-4.94-3.51-8.32-7.53-9.78-11.63-.53-1.47-2.95-9.15.92-16.13a18.54,18.54,0,0,1,6.32-6.57c5.77-3.7,13.82-5.06,21.81-3.26l2,.37,1.22.16.13-.55h-.06Z"/><path d="M679.53,991.47c-.95-1.3-6.09-7.81-14.39-8.79-9.88-1.18-20.4,6-25,16.94l-1.1,2.23.42.26,1.14-2.3c4.53-10.8,14.83-17.81,24.49-16.66,8.09,1,13.12,7.33,14,8.6,2.59,3.53,4,8.54,4.09,14.49.35,22.28-13.66,39.37-16.47,42.57a71.46,71.46,0,0,1-6.76,6.72h-.93c0,.16-.09.32-.13.48h1.24l.08-.06a72.71,72.71,0,0,0,6.88-6.83c2.83-3.23,16.94-20.45,16.59-42.89C683.62,1000.18,682.17,995.07,679.53,991.47Z"/><path class="cls-2" d="M258.76,1016.32c4.19-1.78,9.67-3.78,10.71-7.71.6-2.25-7-6.31-3.81-9,5.32-4.61,6.83-9.25,5.74-13.83a15.77,15.77,0,0,0-.74-1.82c-.08-.12-.16-.26-.25-.37l-.08-.12A1.6,1.6,0,0,1,270,983l-.31-.5a3.68,3.68,0,0,1-.48-.81,6.49,6.49,0,0,1-.39-.62c-.1-.16-.19-.32-.28-.48l-.07-.12,0-.06v0l-.14-.23a.28.28,0,0,0,0-.06.43.43,0,0,1-.09-.1l-1.52.78-.67-1-1.26-2.14c-7-13.22-20.31-20.34-31.38-18-9.79,2-15,10.89-15.59,12-1.12,2-3.93,7.59-2.93,18.21,2.49,26.67,20.53,45.93,25.11,50.37a87.6,87.6,0,0,0,9,7.61c1.57-.1,3.71-.29,6.25-.66a37.16,37.16,0,0,0,5.65-6c-10.74-6.21,2.83-10.66,4.46-16.83C265.76,1022.64,261.18,1018.86,258.76,1016.32Z"/><path class="cls-2" d="M325.56,1018.09c.32-1.21,2.8-11.22-2.66-19.84-6.17-9.73-20.41-14.46-34.49-10.35l-1.43.32c2.81,7.31,1.36,13.77-7.76,18.28-3.78,1.81,2.66,7.54,1.52,9.55-2,3.52-7.86,4.12-12.4,4.83,1.75,3,5.3,7.74,4.45,9.25-3.12,5.53-17.52,6.53-8.52,15.08a37.81,37.81,0,0,1-7,4.38c1.6.16,3.36.29,5.27.37,6.29.24,32.28,0,52.49-16.94C323.06,1026.3,325,1020.3,325.56,1018.09Z"/><path d="M249,1047.49a86.71,86.71,0,0,1-8.85-7.51c-3.74-3.62-22.49-23.05-25-50.19-.68-7.25.33-13.49,2.9-18,.93-1.63,6-9.87,15.41-11.83a22.19,22.19,0,0,1,10.94.59c7.91,2.34,15.47,8.6,20.1,17.29l1.28,2.15.82,1.24,1.78-.91a.41.41,0,0,0-.05-.09.28.28,0,0,0,0-.06,1.14,1.14,0,0,1-.23-.3l0-.05-1.27.64-.5-.76L265,977.53c-6.89-12.94-20.23-20.59-31.71-18.19-9.63,2-14.83,10.44-15.78,12.11-2.63,4.65-3.66,11-3,18.37,2.56,27.35,21.45,46.92,25.21,50.57a90.62,90.62,0,0,0,9,7.64l.1.06H249c1.94-.13,3.88-.34,5.81-.61l.84-.72C253.43,1047.09,251.23,1047.34,249,1047.49Z"/><path class="cls-3" d="M258.76,1016.32c4.19-1.78,9.67-3.78,10.71-7.71.6-2.25-7-6.31-3.81-9,5.31-4.6,6.83-9.23,5.75-13.81a13.85,13.85,0,0,0-.73-1.8,1.3,1.3,0,0,0-.1-.15l-.35.18-.66-1-1.27-2.14c-7-13.21-20.31-20.34-31.37-18-9.8,2-15,10.89-15.59,12-1.12,2-3.93,7.59-2.94,18.2,2.49,26.67,20.53,45.93,25.12,50.38a89.28,89.28,0,0,0,7.93,6.82,48.77,48.77,0,0,0,9.4-9.08c-10.74-6.21,2.83-10.66,4.46-16.83C265.76,1022.64,261.18,1018.86,258.76,1016.32Z"/><path class="cls-3" d="M326.8,1018.22c.26-1.22,2.26-11.35-3.6-19.72-6.61-9.46-21-13.53-34.88-8.75l-2.91.8c1,5.5-1.12,10.46-8.21,14.41-3.69,2,3,7.43,2,9.49-1.81,3.62-7.64,4.49-12.14,5.41,1.89,2.94,5.66,7.5,4.89,9.05-2.85,5.68-17.16,7.36-7.78,15.49a49.19,49.19,0,0,1-11.11,7l.87,1a85.24,85.24,0,0,0,11.59.7c6.29,0,32.18-1.55,51.52-19.4C324.71,1026.56,326.33,1020.47,326.8,1018.22Z"/><path d="M270.42,983.6l-.09,0-.51-.77-1.26-2.13c-6.89-12.93-20.22-20.58-31.7-18.18-9.64,2-14.84,10.44-15.78,12.1-2.64,4.66-3.66,11-3,18.38,2.56,27.35,21.45,46.92,25.22,50.56a89.6,89.6,0,0,0,7.9,6.8l.47-.37a89.52,89.52,0,0,1-8-6.84c-3.73-3.62-22.49-23-25-50.18-.68-7.25.32-13.49,2.9-18,.92-1.64,6-9.88,15.4-11.84a22.46,22.46,0,0,1,10.95.59c7.9,2.34,15.47,8.6,20.1,17.29l1.27,2.16.82,1.23.6-.3a.3.3,0,0,0,0-.08A4.55,4.55,0,0,0,270.42,983.6Z"/><path d="M327.32,1019.1c.44-1.88,2.32-11.68-3.3-20-6.7-9.92-21.46-13.9-35.08-9.46l-2.9.74c0,.2.07.39.1.59l3-.77c13.39-4.36,27.86-.49,34.4,9.21,5.48,8.11,3.64,17.7,3.21,19.53-1.18,5.13-4.63,10.36-10,15.12-20,17.81-46.57,18.49-51.69,18.44a84.08,84.08,0,0,1-11.43-.87l-.73-.84-.54.26.9,1,.08.09h.11a85.43,85.43,0,0,0,11.63.9c5.16.05,31.92-.63,52.07-18.59C322.61,1029.66,326.11,1024.34,327.32,1019.1Z"/><path class="cls-2" d="M64.86,936c1.7-4.23,4.17-9.52,2.13-13-1.17-2-9.42.49-9.06-3.66.5-7-1.71-11.38-5.73-13.84a13.68,13.68,0,0,0-1.8-.76L50,904.6l-.14,0a1.78,1.78,0,0,1-.52-.1l-.57-.14a3.58,3.58,0,0,1-.91-.23c-.24,0-.48-.1-.72-.16l-.54-.15-.13,0-.06,0h0l-.26-.07h-.2l-.52,1.62L44.18,905l-2.42-.62c-14.32-4.36-28.74,0-34.93,9.44-5.48,8.37-2.89,18.29-2.56,19.49.61,2.19,2.59,8.15,10.8,14.95,20.62,17.1,47,18,53.38,17.86a90,90,0,0,0,11.73-1c1-1.19,2.41-2.84,3.95-4.9a37,37,0,0,0-.23-8.22c-12,3.21-5.54-9.54-8.75-15.06C74.28,935.5,68.37,936.06,64.86,936Z"/><path class="cls-2" d="M113.34,890c-.62-1.08-5.94-9.91-15.9-12.15-11.24-2.52-24.66,4.21-31.71,17.08L65,896.16c7.15,3.18,10.69,8.78,7.44,18.41-1.4,4,7.21,3.45,7.83,5.68,1.08,3.89-2.65,8.47-5.36,12.18,3.37.9,9.22,1.73,9.69,3.39,1.7,6.12-7.77,17,4.64,16.69a37.56,37.56,0,0,1-1.87,8.06c1.25-1,2.59-2.17,4-3.47,4.62-4.28,22.8-22.86,25.14-49.09C117.39,897.57,114.5,892,113.34,890Z"/><path d="M80,964.91a89.35,89.35,0,0,1-11.57.94c-5.2.08-32.2-.39-53.18-17.79C9.66,943.41,6,938.29,4.56,933.25,4.06,931.44,1.83,922,7.09,914a22.28,22.28,0,0,1,8.15-7.32c7.25-3.94,17-4.86,26.44-2l2.43.62,1.45.3.62-1.91-.1,0H46a1.11,1.11,0,0,1-.37,0l-.06,0-.44,1.35-.89-.18-2.4-.61c-14-4.28-28.86-.26-35.28,9.56-5.39,8.23-3.11,17.87-2.6,19.72,1.43,5.15,5.19,10.37,10.89,15.09C36,966,63.21,966.51,68.45,966.43a88.82,88.82,0,0,0,11.77-1h.11l.08-.09c1.28-1.46,2.51-3,3.68-4.54,0-.36.06-.73.08-1.1C82.85,961.5,81.47,963.24,80,964.91Z"/><path class="cls-3" d="M64.86,936c1.7-4.23,4.17-9.52,2.13-13-1.17-2-9.42.49-9.06-3.66.5-7-1.7-11.36-5.7-13.83a13.68,13.68,0,0,0-1.8-.76l-.17,0-.12.38L49,904.8l-2.41-.62c-14.32-4.37-28.74,0-34.93,9.43C6.14,922,8.73,931.91,9.06,933.1c.61,2.2,2.59,8.15,10.8,14.95,20.62,17.1,47,18,53.38,17.86a86.14,86.14,0,0,0,10.43-.78,48.54,48.54,0,0,0,.23-13.07c-12,3.21-5.54-9.54-8.75-15.06C74.28,935.5,68.37,936.06,64.86,936Z"/><path class="cls-3" d="M114.32,889.22c-.68-1.05-6.43-9.63-16.49-11.41-11.36-2-24.44,5.31-30.85,18.48l-1.5,2.63c4.62,3.16,6.61,8.19,4.39,16-1.2,4,7.38,3.13,8.1,5.32,1.28,3.84-2.22,8.58-4.75,12.41,3.41.73,9.3,1.3,9.85,2.94,2,6-6.93,17.33,5.46,16.45a49.54,49.54,0,0,1-2.92,12.81l1.3.06a84.39,84.39,0,0,0,8.69-7.7c4.41-4.48,21.66-23.85,22.71-50.15C118.73,896.59,115.57,891.14,114.32,889.22Z"/><path d="M50,904.6l0,.1-.9-.18-2.4-.62c-14-4.27-28.85-.25-35.27,9.56C6,921.7,8.26,931.33,8.77,933.18c1.43,5.15,5.19,10.37,10.89,15.09,21.14,17.54,48.34,18,53.58,17.93a88.27,88.27,0,0,0,10.4-.78l.06-.59a89.3,89.3,0,0,1-10.46.79c-5.2.09-32.2-.39-53.19-17.79-5.6-4.64-9.3-9.76-10.7-14.8-.5-1.81-2.73-11.23,2.52-19.27A22.4,22.4,0,0,1,20,906.44c7.25-3.93,17-4.85,26.44-2l2.43.62,1.45.29.21-.64-.08,0A3.61,3.61,0,0,0,50,904.6Z"/><path d="M115.31,889.46c-1-1.63-6.62-9.89-16.48-11.8-11.75-2.28-25,5.35-31.5,18.11l-1.52,2.58c.16.11.33.23.48.35L67.87,896c6.38-12.55,19.35-20,30.83-17.82,9.62,1.87,15.09,9.95,16.09,11.55,2.79,4.46,4,10.59,3.63,17.74-1.54,26.74-19.85,46-23.51,49.59a86,86,0,0,1-8.69,7.47l-1.11-.09-.2.57,1.38.1h.11l.09-.07a85.35,85.35,0,0,0,8.85-7.59c3.68-3.62,22.13-23,23.68-50C119.44,900.27,118.16,894,115.31,889.46Z"/><path class="cls-2" d="M366.4,546.44c1-2.43,2.4-5.48,1.22-7.5-.67-1.16-5.42.28-5.21-2.11.29-4-1-6.55-3.3-8a8.77,8.77,0,0,0-1-.44l-.25,0h-.08a1.59,1.59,0,0,1-.3-.06l-.33-.08a3,3,0,0,1-.52-.13l-.41-.1-.32-.08-.07,0h-.05l-.15,0h-.11l-.31.93-.68-.13-1.39-.36c-8.24-2.51-16.54,0-20.11,5.43-3.15,4.82-1.66,10.53-1.47,11.22.35,1.27,1.49,4.69,6.22,8.61,11.87,9.84,27.05,10.34,30.73,10.28a50.53,50.53,0,0,0,6.75-.55c.6-.68,1.39-1.63,2.28-2.82a21.37,21.37,0,0,0-.14-4.73c-6.9,1.84-3.19-5.49-5-8.67C371.82,546.16,368.42,546.49,366.4,546.44Z"/><path class="cls-2" d="M394.31,520c-.36-.62-3.42-5.71-9.15-7-6.47-1.46-14.2,2.42-18.26,9.82l-.45.72c4.12,1.82,6.16,5.05,4.29,10.59-.81,2.28,4.15,2,4.5,3.27.63,2.24-1.52,4.88-3.08,7,1.94.51,5.31,1,5.58,2,1,3.52-4.48,9.79,2.67,9.61a22,22,0,0,1-1.08,4.64c.72-.59,1.5-1.26,2.3-2,2.66-2.46,13.12-13.16,14.47-28.26C396.64,524.33,395,521.11,394.31,520Z"/><path d="M375.13,563.09a51.12,51.12,0,0,1-6.66.55c-3,0-18.54-.23-30.62-10.25-3.23-2.67-5.36-5.62-6.16-8.52-.29-1-1.58-6.47,1.45-11.09a12.8,12.8,0,0,1,4.7-4.22,20.16,20.16,0,0,1,15.22-1.14l1.39.36.84.17.36-1.1-.06,0h0a.5.5,0,0,1-.21,0l0,0-.26.78-.51-.11-1.38-.35c-8.07-2.46-16.61-.15-20.31,5.5-3.11,4.75-1.79,10.29-1.5,11.36.82,3,3,6,6.27,8.69C349.79,563.74,365.45,564,368.47,564a51.37,51.37,0,0,0,6.78-.56h.06l0,0q1.11-1.26,2.13-2.61c0-.21,0-.42,0-.63C376.76,561.13,376,562.13,375.13,563.09Z"/><path class="cls-3" d="M366.4,546.44c1-2.43,2.4-5.48,1.22-7.5-.67-1.16-5.42.28-5.21-2.11.29-4-1-6.54-3.28-8a7.78,7.78,0,0,0-1-.44l-.1,0-.07.21-.68-.13-1.39-.36c-8.24-2.51-16.55,0-20.11,5.43-3.16,4.82-1.67,10.53-1.47,11.22.35,1.27,1.49,4.69,6.21,8.61,11.87,9.84,27.06,10.34,30.73,10.28a51.14,51.14,0,0,0,6-.45,27.89,27.89,0,0,0,.13-7.52c-6.9,1.84-3.19-5.49-5-8.67C371.82,546.16,368.42,546.49,366.4,546.44Z"/><path class="cls-3" d="M394.88,519.52c-.39-.61-3.71-5.55-9.5-6.57-6.54-1.16-14.07,3.06-17.76,10.64l-.86,1.51c2.66,1.82,3.8,4.72,2.53,9.21-.7,2.31,4.24,1.8,4.66,3.06.73,2.21-1.28,4.94-2.74,7.14,2,.43,5.36.75,5.67,1.7,1.16,3.47-4,10,3.15,9.47a28.73,28.73,0,0,1-1.68,7.37l.75,0a49.06,49.06,0,0,0,5-4.43c2.54-2.58,12.47-13.74,13.08-28.87C397.42,523.76,395.6,520.62,394.88,519.52Z"/><path d="M357.83,528.37l0,.06-.52-.11-1.38-.35c-8.07-2.46-16.61-.15-20.31,5.5-3.1,4.75-1.79,10.29-1.49,11.36.82,3,3,6,6.27,8.69,12.17,10.09,27.83,10.37,30.84,10.32a52.14,52.14,0,0,0,6-.45c0-.12,0-.23,0-.34a52.68,52.68,0,0,1-6,.46c-3,0-18.53-.23-30.61-10.25-3.23-2.67-5.36-5.62-6.17-8.52-.29-1-1.57-6.47,1.46-11.09a12.85,12.85,0,0,1,4.69-4.22,20.16,20.16,0,0,1,15.22-1.14l1.4.36.84.17.12-.37-.05,0Z"/><path d="M395.44,519.66c-.58-.94-3.81-5.7-9.48-6.8-6.77-1.31-14.39,3.08-18.13,10.43l-.88,1.49.28.19.9-1.53c3.68-7.22,11.14-11.54,17.75-10.25,5.54,1.07,8.69,5.72,9.27,6.64,1.6,2.57,2.33,6.1,2.09,10.22-.89,15.39-11.43,26.48-13.54,28.55a48.83,48.83,0,0,1-5,4.3l-.64,0-.12.32c.27,0,.53.05.8.06h.06l.05,0a49.56,49.56,0,0,0,5.1-4.37c2.12-2.08,12.74-13.25,13.63-28.77C397.83,525.88,397.09,522.28,395.44,519.66Z"/><path class="cls-2" d="M415.89,807.63c1.77-5.59,4.41-12.62,1.57-17-1.62-2.53-11.69,1.24-11.58-4.18,0-9.14-3.07-14.65-8.28-17.6a16.82,16.82,0,0,0-2.31-.86,3.93,3.93,0,0,0-.55-.09l-.18,0a1.87,1.87,0,0,1-.66-.11l-.72-.14a4.51,4.51,0,0,1-1.15-.23l-.91-.16-.69-.16-.16,0-.08,0h0l-.32-.07-.08,0h-.17l-.52,2.13-1.5-.23-3.05-.65c-18.21-4.75-35.82,1.81-42.75,14.48-6.14,11.22-2.1,23.93-1.58,25.46.93,2.81,3.89,10.41,14.68,18.72,27.1,20.87,60,20.29,68,19.76a107.44,107.44,0,0,0,14.53-2c1.19-1.61,2.77-3.84,4.52-6.61a50.78,50.78,0,0,0-1-10.66c-14.68,4.93-7.69-12-12.14-19C427.58,806.39,420.27,807.51,415.89,807.63Z"/><path class="cls-2" d="M472.51,744.83c-.87-1.36-8.22-12.48-20.81-14.74-14.22-2.55-30.38,7-38.11,24.19l-.87,1.66c9.18,3.66,14,10.7,10.79,23.41-1.42,5.22,9.26,4,10.22,6.87,1.67,5-2.6,11.16-5.68,16.16,4.28.94,11.64,1.64,12.36,3.78,2.62,7.83-8.28,22.57,7.15,21.36a49.93,49.93,0,0,1-1.66,10.58c1.47-1.4,3.05-3,4.69-4.76,5.4-5.85,26.52-31.13,27.28-65.33C478.17,754.4,474.11,747.33,472.51,744.83Z"/><path d="M437.16,844.2a107.71,107.71,0,0,1-14.34,2c-6.47.44-40.16,1.55-67.73-19.68-7.37-5.67-12.4-12.08-14.56-18.54-.77-2.31-4.33-14.39,1.56-25.16a27.86,27.86,0,0,1,9.56-10c8.71-5.58,20.81-7.4,32.78-4.28l3.08.66,1.83.29.62-2.52-.13,0-.08,0a1.23,1.23,0,0,1-.47,0l-.07,0-.44,1.78-1.13-.18-3-.65c-17.82-4.65-36,1.52-43.17,14.67-6,11-2.4,23.4-1.61,25.76,2.2,6.6,7.32,13.13,14.81,18.9,27.79,21.39,61.72,20.27,68.24,19.83a106.65,106.65,0,0,0,14.59-2l.14,0,.08-.11c1.47-2,2.88-4,4.22-6.13,0-.47,0-1,0-1.43C440.41,839.6,438.83,841.94,437.16,844.2Z"/><path class="cls-3" d="M415.89,807.63c1.77-5.59,4.41-12.62,1.57-17-1.62-2.53-11.69,1.24-11.58-4.18,0-9.13-3.06-14.63-8.25-17.58a18,18,0,0,0-2.29-.88l-.22,0-.12.49-1.49-.23-3.06-.65c-18.2-4.75-35.81,1.81-42.74,14.48-6.14,11.22-2.1,23.93-1.59,25.46.94,2.81,3.9,10.41,14.69,18.72,27.1,20.87,60,20.29,68,19.76a106.11,106.11,0,0,0,12.94-1.69c.27-5.71.4-11.42-.79-17-14.68,4.93-7.69-12-12.14-19C427.58,806.39,420.27,807.51,415.89,807.63Z"/><path class="cls-3" d="M473.67,743.75c-.94-1.31-8.81-12.08-21.49-13.74-14.32-1.88-30,8.46-36.92,26l-1.65,3.5c6,3.81,8.91,10.22,6.78,20.49-1.16,5.28,9.45,3.58,10.54,6.38,1.9,4.9-2.07,11.27-4.91,16.4,4.32.75,11.71,1.1,12.52,3.2,3,7.7-7.2,22.94,8.16,21,.07,5.69-1.18,11.26-2.58,16.81h1.63a105.92,105.92,0,0,0,10.19-10.55c5.13-6.1,25-32.35,24.17-66.55C479.77,753,475.38,746.17,473.67,743.75Z"/><path d="M394.75,767.85l0,.13-1.13-.18-3-.65c-17.82-4.65-36,1.52-43.17,14.67-6,11-2.4,23.4-1.61,25.76,2.2,6.6,7.32,13.13,14.81,18.9,27.79,21.4,61.72,20.27,68.24,19.83a107.45,107.45,0,0,0,12.89-1.68l0-.77a106.53,106.53,0,0,1-13,1.7c-6.48.44-40.16,1.56-67.74-19.68-7.36-5.67-12.4-12.08-14.55-18.54C345.7,805,342.15,793,348,782.18a27.77,27.77,0,0,1,9.56-10c8.7-5.57,20.81-7.4,32.77-4.28l3.08.66,1.83.29.21-.85-.1,0C395.17,767.91,395,767.87,394.75,767.85Z"/><path d="M474.92,744c-1.41-2-9.07-12.41-21.51-14.26-14.83-2.21-30.71,8.54-37.75,25.53L414,758.72c.22.14.43.27.63.42l1.74-3.55c6.93-16.7,22.47-27.26,37-25.1,12.13,1.8,19.62,11.94,21,14,3.84,5.61,5.91,13.49,6,22.79.28,34.81-20.95,61-25.2,65.88a107.58,107.58,0,0,1-10.23,10.25l-1.39,0c-.06.24-.13.49-.2.74l1.73.05h.14l.11-.09a107.68,107.68,0,0,0,10.4-10.42c4.29-4.93,25.67-31.3,25.39-66.37C481,757.78,478.84,749.75,474.92,744Z"/><path class="cls-4" d="M439.3,724.13c0,75.4,76.25,144.15,170.31,144.15s170.31-68.75,170.31-144.15S703.67,587.6,609.61,587.6,439.3,648.72,439.3,724.13Z"/><path d="M488.69,825.05c-31.87-27.51-50.15-64.3-50.15-100.92,0-75.7,76.74-137.29,171.07-137.29s171.07,61.59,171.07,137.29c0,36.62-18.28,73.41-50.15,100.92-32.84,28.37-75.79,44-120.92,44S521.54,853.42,488.69,825.05ZM440.06,724.13c0,36.18,18.09,72.54,49.62,99.77,32.57,28.13,75.17,43.62,119.93,43.62S697,852,729.54,823.9c31.53-27.23,49.62-63.59,49.62-99.77,0-74.87-76.06-135.77-169.55-135.77S440.06,649.26,440.06,724.13Z"/><circle class="cls-5" cx="536.6" cy="716.91" r="85.56"/><path d="M450.34,716.91a86.26,86.26,0,1,1,86.26,86.26A86.35,86.35,0,0,1,450.34,716.91Zm1.4,0a84.86,84.86,0,1,0,84.86-84.86A85,85,0,0,0,451.74,716.91Z"/><circle class="cls-6" cx="540.94" cy="719.71" r="79.57"/><circle cx="557.15" cy="716.91" r="64.32"/><circle class="cls-5" cx="571.66" cy="716.91" r="23.62"/><path d="M646.69,816.54c-.14-2-.47-1.9-.79-3.91a34.41,34.41,0,0,0-.76-4c-.8-3.29-1.28-7-3.17-9.34s-5.81-2.71-8.7-2.44c-3.76.36-6.87,3.62-9.51,6.79q-3.78,4.53-7.25,9.36c-.45.62-1.28.06-1-.66a48.38,48.38,0,0,1,7.5-12.86c4.31-5,10.5-8.47,16.41-7.5a8.71,8.71,0,0,1,5.23,2.71c1.76,2,2.38,4.91,2.93,7.7.93,4.72.24,2,1,7.15a49.86,49.86,0,0,1,.53,5.76c-.14.8-1.08,4.13-2.08,2.57"/><ellipse cx="489.78" cy="595.66" rx="51.21" ry="43.58" transform="translate(-168.84 194.52) rotate(-19.23)"/><path class="cls-5" d="M642.8,711.26c0,47.26,37,84,85.57,85.57,10.83.35,13.7-.33,18.18-1.6,4.05-1.14,10-2.5,13.92-8.46,10.69-16.27,22.79-50.9,18.31-77.16-5.31-31.14-12.48-46.71-29.26-60.57C742.15,643,731.46,636.9,717,636.9,669.79,636.9,642.8,664,642.8,711.26Z"/><path d="M728.34,797.59C679.14,796,642,758.86,642,711.26s27.34-75.13,75-75.13c12,0,23.07,4.15,33,12.32a68.86,68.86,0,0,1,22,30.87c3.06,8.2,5.43,18,7.51,30.16,4.64,27.21-8,61.82-18.43,77.7-3.85,5.87-9.5,7.44-13.63,8.59l-.71.19c-3.81,1.08-6.46,1.72-13.27,1.72C732,797.68,730.29,797.65,728.34,797.59Zm-84.78-86.33c0,46.76,36.47,83.22,84.83,84.81,10.62.35,13.46-.3,18-1.57l.71-.2c3.9-1.08,9.23-2.57,12.77-7.95,10-15.23,22.72-50.11,18.2-76.61-5.37-31.48-12.69-46.65-29-60.12-9.61-7.94-20.38-12-32-12C670.35,637.66,643.56,664.49,643.56,711.26Z"/><path class="cls-6" d="M644.59,713a79.58,79.58,0,0,0,79.57,79.57,59.49,59.49,0,0,0,34.26-11.56c5.71-4.37,9.47-12.8,12.35-19.3a95.61,95.61,0,0,0,8.07-35.36,84.4,84.4,0,0,0-.13-11.21c-.06-.74-.19-1.6-.23-2.36-.54-9-2.92-17.26-5-24.15-5.24-17.06-14.07-27.93-27.53-37.15-7.56-5.17-19-8.51-31.59-8.51C670.38,643,644.59,669.1,644.59,713Z"/><path d="M665,712.87a67.46,67.46,0,0,0,67.46,67.46,50.41,50.41,0,0,0,29-9.8c4.84-3.7,9.73-10.73,12.17-16.25,3.84-8.68,4.64-18.46,5.14-30.09a70.57,70.57,0,0,0-.1-9.51c0-.62-.16-1.36-.2-2a97.15,97.15,0,0,0-4.08-21.55c-4.44-14.47-12.12-22.61-23.53-30.43-6.4-4.38-16.14-7.22-26.78-7.22C686.9,653.48,665,675.61,665,712.87Z"/><circle class="cls-5" cx="706.63" cy="704.32" r="23.62"/><path class="cls-4" d="M778.48,712.82s-41-16.85-134.92-4.53a91.32,91.32,0,0,1,5-28.6c4-11.24,11.33-22.87,23.34-30.23,10.23-6.26,22.36-10.94,39.08-11.65,34-1.45,47.15,19.7,53.16,28.92C773.14,680.49,778.48,712.82,778.48,712.82Z"/><path d="M778.19,713.53c-.11,0-10.47-4.22-32.14-6.85-20-2.42-54-4-102.39,2.36l-.84.11,0-.85a93.12,93.12,0,0,1,5.08-28.86c3.35-9.41,10.17-22.36,23.67-30.63,12.06-7.39,24.59-11.12,39.44-11.76,33.85-1.44,47.13,19,53.51,28.78l.31.48c9,13.74,14.2,45.06,14.42,46.39l.22,1.34Zm-67.14-75c-14.57.62-26.87,4.29-38.71,11.54-13.12,8-19.76,20.66-23,29.84a92,92,0,0,0-5,27.47c83.58-10.83,125.57,1.62,133.17,4.24-1.1-6.14-6.19-32.59-14-44.51l-.31-.49c-6-9.25-18.32-28.16-48.9-28.16C713.26,638.5,712.17,638.52,711.05,638.57Z"/><path class="cls-4" d="M621.46,705.92s-75.72-4.55-169.66,7.76a99.42,99.42,0,0,1,5.58-27.62,76.75,76.75,0,0,1,15-24.52c1.2-1.37,2.35-2.81,3.61-4.15a22.1,22.1,0,0,1,3.2-2.89c1.09-.79,2.19-1.9,3.61-3.14a80.68,80.68,0,0,1,14.17-9.87,85.23,85.23,0,0,1,34.19-9.26,92.65,92.65,0,0,1,39.25,6.83c14,6,22.61,14.51,27.17,18.84,5.3,5,11.35,13.61,15.55,22.27A107.35,107.35,0,0,1,621.46,705.92Z"/><path d="M451,713.66a101.11,101.11,0,0,1,5.63-27.85A77.19,77.19,0,0,1,471.77,661c.45-.5.88-1,1.32-1.54.75-.88,1.5-1.77,2.3-2.62a23.18,23.18,0,0,1,3.32-3,23.77,23.77,0,0,0,2.15-1.84c.44-.4.9-.82,1.4-1.25a81.12,81.12,0,0,1,14.31-10,85.36,85.36,0,0,1,34.51-9.35,93.8,93.8,0,0,1,39.58,6.89,87.84,87.84,0,0,1,26.82,18.43l.58.56c5.49,5.22,11.52,13.84,15.72,22.49a109.51,109.51,0,0,1,8.44,25.95l.15,1-1-.06c-.76,0-76.74-4.41-169.52,7.75l-.88.12Zm169.5-8.55a107.7,107.7,0,0,0-8.13-24.6c-4.06-8.37-10.11-17-15.4-22.06l-.58-.56c-4.57-4.35-13.06-12.44-26.36-18.13A92.09,92.09,0,0,0,531.15,633c-8.43.36-22.35,3-33.86,9.17a80.25,80.25,0,0,0-14,9.77l-1.37,1.23a27.83,27.83,0,0,1-2.29,2,21.23,21.23,0,0,0-3.1,2.79c-.78.83-1.51,1.7-2.25,2.56-.44.53-.88,1-1.34,1.57a75.72,75.72,0,0,0-14.81,24.28,101.29,101.29,0,0,0-5.49,26.49,1047,1047,0,0,1,132.45-8.45C604.31,704.36,617,704.93,620.54,705.11Z"/><path class="cls-4" d="M453.77,735.38s70.18,12,164.67,5.14c0,0,2-2.69-4.09,11.75A76.68,76.68,0,0,1,598,775.89c-1.27,1.3-2.5,2.66-3.83,3.94a22.73,22.73,0,0,1-3.37,2.69c-1.14.73-2.3,1.78-3.78,2.93a80.5,80.5,0,0,1-14.72,9,85.15,85.15,0,0,1-34.66,7.27,95.26,95.26,0,0,1-24.74-3.36,92.79,92.79,0,0,1-34.6-19.88c-1.49-1.44-3.13-3-4.21-4.27-.6-.74-1-1.12-1.49-1.67a74.87,74.87,0,0,1-9.53-13.34,73.47,73.47,0,0,1-4.33-8.59c-.2-.49-.38-.88-.59-1.37-.32-.79-.68-1.75-1-2.45C452.74,735.91,453.77,735.38,453.77,735.38Z"/><path d="M537.63,802.52a95.73,95.73,0,0,1-24.94-3.38,85.64,85.64,0,0,1-14.18-5.77,84.14,84.14,0,0,1-20.74-14.3l-.68-.66a48.37,48.37,0,0,1-3.58-3.68c-.54-.65-.89-1-1.32-1.48l-.15-.15a75.84,75.84,0,0,1-9.63-13.48,77.21,77.21,0,0,1-4.38-8.68c-.11-.27-.21-.52-.32-.76l-.26-.61c-.19-.45-.38-1-.57-1.44l-.4-1c-4.7-11.56-3.6-12.14-3.07-12.42l.23-.12.25,0c.7.12,71.05,11.91,164.21,5.16a.87.87,0,0,1,1-.12c.73.42,1.13.65-4,12.89a77.21,77.21,0,0,1-16.5,23.87c-.48.48-.95,1-1.42,1.47-.8.83-1.6,1.67-2.44,2.48a23,23,0,0,1-3.48,2.78,27.27,27.27,0,0,0-2.27,1.72c-.45.37-.93.77-1.46,1.17a81.62,81.62,0,0,1-14.86,9.13c-11.66,5.43-25.06,7.35-34.08,7.35Zm-83.18-66.26c.12,1,.74,3.66,3.44,10.28.13.31.26.67.41,1s.37,1,.55,1.4l.26.6c.11.25.22.5.33.78a83.82,83.82,0,0,0,13.72,21.7l.14.15c.45.48.82.87,1.38,1.56.89,1.07,2.2,2.32,3.46,3.54l.69.66a81.14,81.14,0,0,0,20.36,14,82.56,82.56,0,0,0,13.92,5.67A94.05,94.05,0,0,0,537.65,801c8.43.12,22.48-1.68,34.33-7.2a80.23,80.23,0,0,0,14.57-8.95c.51-.4,1-.78,1.43-1.15a28.27,28.27,0,0,1,2.41-1.82,20.62,20.62,0,0,0,3.25-2.61c.83-.78,1.61-1.6,2.39-2.42.47-.5,1-1,1.43-1.49A75.54,75.54,0,0,0,613.65,752c2.78-6.6,3.79-9.43,4.15-10.64C530,747.65,462.55,737.55,454.45,736.26Z"/><path class="cls-4" d="M647.21,735.83s72.7-7.59,130.61,2.39c0,0-.1,3.47-2.64,13.11-2.81,10.67-2.37,10.25-6.79,19.57-1.12,2.36-3.69,6.89-4.54,8.53s-4.31,8-5.44,8.93a24.38,24.38,0,0,1-3.48,2.8c-3.91,2.54-8.07,3.66-14.16,4.72-1.62.28-1,.42-10.81.28a95.62,95.62,0,0,1-24.73-3.36,84.09,84.09,0,0,1-14.06-5.72c-9.1-4.54-14.69-8.24-19.37-12.77a37.16,37.16,0,0,1-3.25-3c-.61-.74-3-3.11-3.52-3.66a68.75,68.75,0,0,1-9.56-12.85c-1.58-2.76-1.86-2.6-3.05-5.53-.2-.49-1.64-3.45-1.85-3.94-.32-.79-.74-1.89-1.07-2.57A31.52,31.52,0,0,1,647.21,735.83Z"/><path d="M730,796.92A96.12,96.12,0,0,1,705,793.53a84.78,84.78,0,0,1-14.18-5.77c-9.12-4.54-14.79-8.28-19.57-12.91-.61-.58-1.07-1-1.49-1.31a11.76,11.76,0,0,1-1.82-1.76c-.39-.47-1.61-1.7-2.5-2.6-.45-.46-.82-.83-1-1a70.46,70.46,0,0,1-9.66-13c-.55-1-.94-1.57-1.26-2.07a16.59,16.59,0,0,1-1.83-3.55c-.1-.25-.53-1.15-1-2s-.8-1.68-.9-1.92l-.34-.84c-.24-.6-.5-1.24-.71-1.69a31.11,31.11,0,0,1-2.35-7.11l-.16-.81.82-.09c.73-.07,73.47-7.49,130.82,2.4l.66.11,0,.66c0,.15-.13,3.67-2.66,13.28-.4,1.5-.73,2.78-1,3.9-1.76,6.85-2,7.73-5.83,15.81-.74,1.56-2.09,4-3.18,6-.57,1-1.07,2-1.36,2.51,0,.08-4.16,8-5.64,9.17-.33.27-.58.51-.83.74a16.15,16.15,0,0,1-2.72,2.11c-4.09,2.65-8.39,3.78-14.44,4.83l-.47.09A19.33,19.33,0,0,1,736,797C734.57,797,732.66,797,730,796.92ZM648.14,736.5a29.73,29.73,0,0,0,2.05,5.92c.23.47.5,1.15.75,1.79l.34.82c.09.23.47,1,.87,1.84s.87,1.85,1,2.1a15.83,15.83,0,0,0,1.69,3.3c.34.53.74,1.15,1.31,2.15a68.79,68.79,0,0,0,9.45,12.7l1,1c1,1,2.16,2.18,2.59,2.7a10.64,10.64,0,0,0,1.62,1.56c.44.36.94.77,1.58,1.39,4.66,4.51,10.21,8.17,19.18,12.64a83.43,83.43,0,0,0,13.93,5.66A94,94,0,0,0,730,795.39c8.63.13,9.11,0,10.16-.17l.5-.09c5.86-1,10-2.09,13.87-4.61a14.15,14.15,0,0,0,2.5-1.94c.28-.25.55-.51.92-.81.87-.71,3.83-6,5.25-8.69.29-.57.79-1.49,1.37-2.54,1.08-2,2.43-4.44,3.15-6,3.77-7.94,4-8.66,5.73-15.53.29-1.12.62-2.41,1-3.91A89.45,89.45,0,0,0,777,738.85C723.33,729.75,656.42,735.71,648.14,736.5Z"/><path d="M723,740.1c0,.51.25-.51-7.12-1.33-1.54-.18-2.8-.44-5.84-.6l-1.87-.17c-.68-.07-1.3-.16-1.93-.21-1.15-.1-2.27-.15-3.47-.25-1.68-.14-4-.29-5.84-.41-2.35-.16-7.44-.38-10.32-.33a83.46,83.46,0,0,0-9.08.48c-1.54.2-3.4.32-4.84.52a35.46,35.46,0,0,0-5,.84c-1.68.5-1.38.36-1.41.17-.09-.67,13.64-2.81,26.15-2.15,12,.63,27,2.25,28.54,2.85.28.11,1.61.46,2,.58Z"/><path d="M551.5,746.88c0-.52-.22.51,6.68,1.09,1.45.12,2.62.34,5.47.41l1.75.11c.64,0,1.22.11,1.81.14,1.07.06,2.12.08,3.24.14,1.57.08,3.78.15,5.46.22,2.2.08,7,.13,9.64,0a70.73,70.73,0,0,0,8.44-.77c1.43-.25,3.16-.43,4.5-.68a30,30,0,0,0,4.59-1c1.55-.56,1.28-.41,1.31-.22.11.66-12.62,3.26-24.3,3-11.2-.24-25.22-1.37-26.72-1.92-.26-.09-1.51-.4-1.84-.51C551.48,746.86,551.5,746.89,551.5,746.88Z"/><path d="M704.69,610c-7.28-3.34-23.18-11.36-31.48-13.77-10.45-3-20.26-5.51-41.51-8.65,0,0-33-1.32-32.91,1.74.93,39.33,66.49,84.79,124,104,36.2,12.11,55.86,23,74.08,10.07,7.72-6.26,1.57.27-15.15-17.48-8.8-9.34-6.07-6-9.36-10.68-4.91-7-6.64-9.94-11.49-15.53-6.14-7.08-12-18.48-25.42-27.61C733.73,631,706.42,611.14,704.69,610Z"/><ellipse cx="738.12" cy="592.13" rx="43.58" ry="51.21" transform="translate(-179.63 822.74) rotate(-52.84)"/><path class="cls-6" d="M730.43,641.1a13.27,13.27,0,0,1-6.47-2c-2.74-1.71-7-4.46-11.24-7.52-6.39-4.6-13-9.18-21-24.33-9-17.06,24.55,24,49.75,30.51C758.51,642.13,739.17,641.48,730.43,641.1Z"/><path d="M520.05,608c8.73-3.58,24.11-9.32,32.4-11.73,10.45-3,20.27-5.51,41.52-8.65,0,0,49.67-.35,49.59,2.71-.92,39.34-83,84.5-140.7,103.06-55.46,17.83-68.46,15.44-74.8,12.79a.86.86,0,0,1-.17-1.5c3.46-2.43,9.11-8.95,9.94-10.6,3.87-7.65,10.75-17,11.23-18,3.58-7.77,5.27-10.36,10.12-15.95,6.14-7.09,15.46-19.94,26.32-29.43.77-.68,8.29-6.35,16.28-11.55C510.23,613.6,519.16,608.56,520.05,608Z"/><path class="cls-6" d="M474,640.14s58.9-2.26,65.83-37.92c3.68-18.94-20.39,22.87-45.44,29.92C489.3,633.57,487,633.26,474,640.14Z"/><path class="cls-4" d="M492.83,827.54s-22.12,1.52-31.46,23.46-7.71,52.66-7.71,52.66v24.13s-1.37,39.51,5.89,46.83,17.35,6.56,21,2.9S492,948.75,493.64,931.2l-.81,41.2s3.08,8.46,11.13,7.52,13.54-5.32,17.74-17,9.44-48.29,9.44-48.29L541.91,856s-12.6,63-5.31,70.86,12.94,6.82,12.94,6.82,7.49,1.59,13.37-11.15,3.22-58.95,3.22-58.95S521.19,855.17,492.83,827.54Z"/><path d="M472.52,981A19,19,0,0,1,459,975.15c-7.4-7.46-6.15-45.76-6.1-47.36V903.7c0-.31-1.53-31.15,7.77-53,9.42-22.11,31.89-23.91,32.11-23.92l.34,0,.25.24c27.85,27.15,72.46,35.75,72.9,35.84l.59.11,0,.59c.11,1.9,2.61,46.55-3.29,59.32-5.68,12.32-12.92,11.77-14.07,11.6-1,.12-6.56.38-13.49-7.07-2.79-3-2.85-13.43-1.8-25.43l-2.34,12.77c-.22,1.5-5.31,36.79-9.49,48.43-4,11.26-9.53,16.5-18.36,17.53-8.55,1-11.9-7.93-11.93-8l-.05-.13.58-29.48c-3,15.28-8.47,31.93-11.56,35-1.83,1.83-5,2.92-8.53,2.92Zm21.88-49.77-.8,41.06c.42,1.05,3.36,7.71,10.27,6.9,8.29-1,13.25-5.76,17.11-16.53,4.13-11.5,9.36-47.77,9.41-48.17l8.33-45.33c1-5.69,1.82-10.11,2.22-12.15-15-5.54-33.88-14.63-48.38-28.66-2.76.31-22.06,3.18-30.49,23-9.16,21.52-7.66,52-7.65,52.36v24.16c0,.39-1.28,39.26,5.67,46.26a17.47,17.47,0,0,0,12.44,5.38h0c3.12,0,5.9-.92,7.46-2.48,3.33-3.33,11.24-28.2,12.87-45.85Zm48-73.68-2.22,12.08c-3.58,21-7.62,51.78-3,56.74,6.86,7.38,12.19,6.59,12.24,6.58l.15,0,.14,0c.29.05,7,1.25,12.53-10.72,5.38-11.66,3.46-52.61,3.19-58A180.08,180.08,0,0,1,542.4,857.53Z"/><path class="cls-4" d="M517.59,845.58l-2.74,62s-1.29,17.76-15,22.52-15.6-7.84-15.6-7.84-3.72-9.86-1.34-36.07l2.38-25.85"/><path d="M494.17,932a18.13,18.13,0,0,0,5.94-1.12c14-4.87,15.48-23,15.5-23.19l2.74-62.06-1.52-.07-2.74,62c0,.16-1.43,17.3-14.48,21.84-4.13,1.44-7.52,1.38-10.08-.17-3.75-2.27-4.51-7-4.51-7.06l0-.15c0-.1-3.63-10.09-1.3-35.74l2.38-25.85-1.52-.14-2.38,25.85c-2.29,25.19,1,35.3,1.37,36.34.12.71,1.09,5.56,5.21,8A10.24,10.24,0,0,0,494.17,932Z"/><path class="cls-6" d="M527.37,937.58l-73.71,3.67V899.51h28.47s1.11,21.06,4.88,26.54,9.93,4.61,16.12,2.2c1.86-.72,5.92-4,8.05-9.44,3.08-7.88,4-18.6,4-18.6l18.44-.7Z"/><path d="M453.09,898.94h29.58l0,.54c0,.21,1.14,21,4.78,26.24,3,4.37,7.78,5,15.44,2,1.6-.62,5.59-3.67,7.72-9.12,3-7.71,4-18.33,4-18.44l0-.5,19.65-.75-6.44,39.22-74.77,3.72ZM533,900.11l-17.25.65c-.23,2.22-1.29,11.37-4,18.26-2.07,5.29-6.14,8.89-8.37,9.76-5.12,2-12.43,3.92-16.8-2.41-3.52-5.11-4.75-22.88-5-26.29H454.23v40.57L526.88,937Z"/><path d="M538.14,876.51c-3.44-.08-21.35,0-21.35,0l-1.61,23.7,18.44-.7Z"/><path d="M483.34,875.5c-3.43-.08-28.27,0-28.27,0l-1.41,23.7h27.9Z"/><polygon class="cls-6" points="541.91 856 538.14 876.51 516.79 876.51 518.22 846.54 541.91 856"/><path d="M517.68,845.71l24.88,9.94-3.94,21.43H516.19Zm23.58,10.65-22.51-9-1.36,28.58h20.28Z"/><path class="cls-6" d="M492.49,828.3A37,37,0,0,0,476.85,833a62.74,62.74,0,0,0-5.19,3.75c-2.54,2-4.87,5.27-7.35,8.56-6.51,8.63-8.9,22.61-8.45,30.11l27.48,0,1.85-14,31,1.15.64-16.72Z"/><path d="M455.33,876l0-.53c-.44-7.37,1.92-21.69,8.57-30.49l.81-1.08c2.22-3,4.32-5.77,6.63-7.59.8-.63,3.53-2.75,5.26-3.79a37.14,37.14,0,0,1,15.9-4.82h.2l24.71,17.95-.67,17.59-31-1.15-1.85,14Zm60.27-13.95.61-15.85-23.89-17.35a36.7,36.7,0,0,0-15.18,4.65,60.82,60.82,0,0,0-5.13,3.71c-2.2,1.73-4.25,4.47-6.43,7.37l-.81,1.08c-6.31,8.36-8.65,21.87-8.36,29.2l26.43,0,1.85-14Z"/><path d="M521.17,962.58,493,961.87s-5.47,16.46,9.31,17.8C502.35,979.67,517.4,981.66,521.17,962.58Z"/><path d="M486.62,961.87H455.74s0,16.89,14.77,18.23a11.21,11.21,0,0,0,9.09-2.5C482.62,975.06,485.06,969.77,486.62,961.87Z"/><path class="cls-4" d="M479.24,964.89s-3.78,8.35-8.69,8.1-7.43-8.1-7.43-8.1Z"/><path class="cls-4" d="M512.75,965.42s-1.94,7.6-6.82,7-5.47-7-5.47-7Z"/><path d="M996.6,406h4.95a2,2,0,0,1,1.72,1l3.47,5.82a2,2,0,0,0,3.43,0l3.48-5.82a2,2,0,0,1,1.72-1h4.9a2,2,0,0,1,1.66,3.1l-8.72,13a2,2,0,0,0-.33,1.11v9.39a2,2,0,0,1-2,2H1006a2,2,0,0,1-2-2v-9.39a2,2,0,0,0-.34-1.11l-8.73-13A2,2,0,0,1,996.6,406Z"/><path d="M1023.35,420.32q0-7,3.9-10.91t10.88-3.91q7.15,0,11,3.84t3.86,10.75a17.56,17.56,0,0,1-1.69,8.23,12,12,0,0,1-4.88,5,16.13,16.13,0,0,1-8,1.79,18.32,18.32,0,0,1-8-1.54,12.07,12.07,0,0,1-5.14-4.89A16.14,16.14,0,0,1,1023.35,420.32Zm8.84,0q0,4.33,1.61,6.23a6.09,6.09,0,0,0,8.8,0c1-1.23,1.57-3.45,1.57-6.66q0-4-1.64-5.91a5.57,5.57,0,0,0-4.42-1.86,5.39,5.39,0,0,0-4.3,1.89Q1032.19,416,1032.19,420.36Z"/><path d="M1078.51,406h4.63a2.1,2.1,0,0,1,2.1,2.1v15a14.54,14.54,0,0,1-.63,4.31,10.9,10.9,0,0,1-3,4.76,9.29,9.29,0,0,1-3.19,2,17.77,17.77,0,0,1-6.19,1,40.15,40.15,0,0,1-4.56-.29,12.24,12.24,0,0,1-4.13-1.16,10.47,10.47,0,0,1-3-2.47,9.24,9.24,0,0,1-1.88-3.3,17,17,0,0,1-.82-4.84v-15a2.1,2.1,0,0,1,2.1-2.1h4.63a2.1,2.1,0,0,1,2.1,2.1v15.36a5,5,0,0,0,1.3,3.66,5.57,5.57,0,0,0,7.18,0,5,5,0,0,0,1.3-3.68V408.09A2.1,2.1,0,0,1,1078.51,406Z"/><path d="M1103.33,420.32q0-7,3.9-10.91t10.88-3.91q7.16,0,11,3.84t3.86,10.75a17.56,17.56,0,0,1-1.69,8.23,12,12,0,0,1-4.88,5,16.13,16.13,0,0,1-8,1.79,18.32,18.32,0,0,1-8-1.54,12.07,12.07,0,0,1-5.14-4.89A16.14,16.14,0,0,1,1103.33,420.32Zm8.84,0q0,4.33,1.61,6.23a6.09,6.09,0,0,0,8.8,0q1.58-1.85,1.57-6.66,0-4-1.64-5.91a5.57,5.57,0,0,0-4.42-1.86,5.41,5.41,0,0,0-4.3,1.89Q1112.17,416,1112.17,420.36Z"/><path d="M1139.73,406h5.34a1.91,1.91,0,0,1,1.58.84l6.71,9.85a1.92,1.92,0,0,0,3.5-1.07v-7.7a1.92,1.92,0,0,1,1.92-1.92h4.5a1.92,1.92,0,0,1,1.92,1.92V432.7a1.92,1.92,0,0,1-1.92,1.92h-5.41a1.91,1.91,0,0,1-1.58-.84l-6.65-9.75a1.92,1.92,0,0,0-3.5,1.08v7.59a1.92,1.92,0,0,1-1.92,1.92h-4.49a1.92,1.92,0,0,1-1.91-1.92V407.91A1.92,1.92,0,0,1,1139.73,406Z"/><path d="M1173.47,406h4.07a2.39,2.39,0,0,1,2.39,2.39v16.8a2.39,2.39,0,0,0,2.39,2.39h9a2.39,2.39,0,0,1,2.39,2.39v2.27a2.39,2.39,0,0,1-2.39,2.39h-17.88a2.39,2.39,0,0,1-2.39-2.39V408.38A2.39,2.39,0,0,1,1173.47,406Z"/><path d="M1195.67,406h4.76a2.06,2.06,0,0,1,1.78,1l3.39,5.67a2.07,2.07,0,0,0,3.56,0l3.4-5.67a2.06,2.06,0,0,1,1.78-1h4.71a2.08,2.08,0,0,1,1.73,3.23l-8.63,12.89a2,2,0,0,0-.35,1.15v9.29a2.07,2.07,0,0,1-2.07,2.07H1205a2.08,2.08,0,0,1-2.08-2.07v-9.29a2,2,0,0,0-.35-1.15L1194,409.22A2.07,2.07,0,0,1,1195.67,406Z"/><path d="M1253.52,422.55V420a1.7,1.7,0,0,1,1.7-1.7h10.27a1.7,1.7,0,0,1,1.7,1.7v9.6a1.71,1.71,0,0,1-.76,1.42,26.38,26.38,0,0,1-6.18,3.13,23.4,23.4,0,0,1-7.16,1,17.37,17.37,0,0,1-8.31-1.74,11.92,11.92,0,0,1-5-5.17,17.05,17.05,0,0,1-1.77-7.9,16.46,16.46,0,0,1,1.94-8.15,12.51,12.51,0,0,1,5.66-5.26,18.33,18.33,0,0,1,7.83-1.39,22.06,22.06,0,0,1,7.1.86,9.18,9.18,0,0,1,3.91,2.67,10.36,10.36,0,0,1,1.59,2.53,1.71,1.71,0,0,1-1.25,2.4l-5.24.94a1.65,1.65,0,0,1-1.74-.77,4.36,4.36,0,0,0-1.35-1.48,5.6,5.6,0,0,0-3.21-.86,5.78,5.78,0,0,0-4.64,2q-1.73,2-1.73,6.4,0,4.65,1.75,6.64a6.13,6.13,0,0,0,4.87,2,9.15,9.15,0,0,0,2.83-.43,12.9,12.9,0,0,0,2.18-1,1.74,1.74,0,0,0,.91-1.51h0a1.7,1.7,0,0,0-1.7-1.7h-2.52A1.7,1.7,0,0,1,1253.52,422.55Z"/><path d="M1271.33,420.32q0-7,3.91-10.91t10.88-3.91c4.76,0,8.44,1.28,11,3.84s3.87,6.14,3.87,10.75a17.56,17.56,0,0,1-1.69,8.23,12,12,0,0,1-4.88,5,16.13,16.13,0,0,1-8,1.79,18.32,18.32,0,0,1-8-1.54,12.07,12.07,0,0,1-5.14-4.89A16.14,16.14,0,0,1,1271.33,420.32Zm8.85,0q0,4.33,1.61,6.23a6.09,6.09,0,0,0,8.8,0q1.56-1.85,1.56-6.66,0-4-1.63-5.91a5.57,5.57,0,0,0-4.42-1.86,5.38,5.38,0,0,0-4.3,1.89Q1280.18,416,1280.18,420.36Z"/><path d="M1304.67,406h23a1.94,1.94,0,0,1,1.94,1.94v3.18a1.94,1.94,0,0,1-1.94,1.95h-5.13a1.94,1.94,0,0,0-2,1.94v17.68a1.94,1.94,0,0,1-1.94,1.94h-5a1.94,1.94,0,0,1-2-1.94V415a1.94,1.94,0,0,0-1.94-1.94h-5.13a2,2,0,0,1-2-1.95v-3.18A1.94,1.94,0,0,1,1304.67,406Z"/><path d="M1467,408.16a2.17,2.17,0,0,1,2.17-2.17h12.53q4.82,0,7.2,2.28a8.58,8.58,0,0,1,2.39,6.51,8.79,8.79,0,0,1-2.6,6.77q-2.61,2.44-8,2.45H1478a2.17,2.17,0,0,0-2.17,2.16v6.29a2.17,2.17,0,0,1-2.16,2.17h-4.55a2.17,2.17,0,0,1-2.17-2.17Zm8.88,7.87a2.18,2.18,0,0,0,2.17,2.17h0a5.6,5.6,0,0,0,3.6-.89,2.87,2.87,0,0,0,1-2.28,3.15,3.15,0,0,0-.9-2.28c-.6-.63-1.72-.94-3.38-.94H1478a2.17,2.17,0,0,0-2.17,2.17Z"/><path d="M1494.79,420.32q0-7,3.91-10.91t10.88-3.91q7.14,0,11,3.84t3.87,10.75a17.68,17.68,0,0,1-1.69,8.23,12.12,12.12,0,0,1-4.88,5,16.16,16.16,0,0,1-8,1.79,18.32,18.32,0,0,1-8-1.54,12.09,12.09,0,0,1-5.15-4.89A16.24,16.24,0,0,1,1494.79,420.32Zm8.85,0q0,4.33,1.61,6.23a6.09,6.09,0,0,0,8.8,0q1.56-1.85,1.56-6.66,0-4-1.63-5.91a5.58,5.58,0,0,0-4.42-1.86,5.38,5.38,0,0,0-4.3,1.89Q1503.64,416,1503.64,420.36Z"/><path d="M1531.61,406h4.8a2,2,0,0,1,2,2v24.57a2,2,0,0,1-2,2h-4.8a2,2,0,0,1-2-2V408A2,2,0,0,1,1531.61,406Z"/><path d="M1546.62,406h5.55a1.78,1.78,0,0,1,1.47.77l7,10.31a1.77,1.77,0,0,0,3.24-1v-8.31a1.78,1.78,0,0,1,1.78-1.77h4.79a1.77,1.77,0,0,1,1.77,1.77v25.09a1.77,1.77,0,0,1-1.77,1.77h-5.63a1.78,1.78,0,0,1-1.47-.77l-6.95-10.2a1.77,1.77,0,0,0-3.24,1v8.2a1.77,1.77,0,0,1-1.77,1.77h-4.78a1.77,1.77,0,0,1-1.77-1.77V407.76A1.77,1.77,0,0,1,1546.62,406Z"/><path d="M1578.62,406h21.85a2.52,2.52,0,0,1,2.52,2.52v2a2.52,2.52,0,0,1-2.52,2.52h-4a2.52,2.52,0,0,0-2.52,2.52V432.1a2.52,2.52,0,0,1-2.52,2.52h-3.8a2.52,2.52,0,0,1-2.53-2.52V415.58a2.52,2.52,0,0,0-2.52-2.52h-4a2.52,2.52,0,0,1-2.52-2.52v-2A2.52,2.52,0,0,1,1578.62,406Z"/><path d="M1609.2,424.91l2.12-.13a3.13,3.13,0,0,1,3.08,2,4.55,4.55,0,0,0,.59,1,4.66,4.66,0,0,0,3.9,1.73,4.34,4.34,0,0,0,2.92-.88,2.55,2.55,0,0,0,0-4.06c-.65-.58-2.16-1.14-4.53-1.66q-5.82-1.31-8.3-3.47a7,7,0,0,1-2.5-5.53,7.54,7.54,0,0,1,1.28-4.17,8.44,8.44,0,0,1,3.85-3.09,17.94,17.94,0,0,1,7-1.12c3.66,0,6.44.68,8.37,2a7.33,7.33,0,0,1,1.93,2,3.1,3.1,0,0,1-2.51,4.7l-2,.12a3,3,0,0,1-2.89-1.57,3.58,3.58,0,0,0-.86-1.11,4.52,4.52,0,0,0-2.94-.88,3.54,3.54,0,0,0-2.33.66,2,2,0,0,0-.78,1.59,1.62,1.62,0,0,0,.65,1.23,7.07,7.07,0,0,0,3,1.05,37.89,37.89,0,0,1,8.31,2.53,8.75,8.75,0,0,1,3.65,3.18,8,8,0,0,1,1.14,4.23,9.12,9.12,0,0,1-1.52,5.08,9.58,9.58,0,0,1-4.26,3.53,17.2,17.2,0,0,1-6.89,1.2q-7.3,0-10.12-2.81a10.68,10.68,0,0,1-2.11-3A3.12,3.12,0,0,1,1609.2,424.91Z"/><path d="M1636.94,426.73h5.37a1.56,1.56,0,0,1,1.56,1.56v5a9.65,9.65,0,0,1-1.5,5.71,10.72,10.72,0,0,1-3.74,3,1.57,1.57,0,0,1-2.11-.65l-.41-.77a1.56,1.56,0,0,1,.62-2.08,6.42,6.42,0,0,0,1.76-1.4l0,0a1.54,1.54,0,0,0-1.26-2.45h-.31a1.56,1.56,0,0,1-1.56-1.56v-4.77A1.56,1.56,0,0,1,1636.94,426.73Z"/><path d="M994.84,550.48H999a2.3,2.3,0,0,1,2,1.13l3.12,5.22a2.3,2.3,0,0,0,4,0l3.13-5.22a2.3,2.3,0,0,1,2-1.13h4.14a2.31,2.31,0,0,1,1.92,3.59l-8.34,12.47a2.35,2.35,0,0,0-.39,1.28v9a2.31,2.31,0,0,1-2.31,2.31H1004a2.31,2.31,0,0,1-2.3-2.31v-9a2.29,2.29,0,0,0-.4-1.29l-8.35-12.46A2.31,2.31,0,0,1,994.84,550.48Z"/><path d="M1021,564.82c0-4.68,1.3-8.31,3.91-10.92s6.23-3.91,10.88-3.91,8.43,1.28,11,3.84,3.87,6.14,3.87,10.75a17.6,17.6,0,0,1-1.69,8.24,12.06,12.06,0,0,1-4.88,5,16.16,16.16,0,0,1-8,1.78,18.32,18.32,0,0,1-8-1.54,12.12,12.12,0,0,1-5.15-4.88A16.27,16.27,0,0,1,1021,564.82Zm8.85,0q0,4.33,1.61,6.23a6.11,6.11,0,0,0,8.8,0q1.56-1.86,1.56-6.66,0-4.05-1.63-5.91a5.59,5.59,0,0,0-4.42-1.87,5.39,5.39,0,0,0-4.3,1.9Q1029.85,560.48,1029.85,564.86Z"/><path d="M1076.17,550.48h4.63a2.1,2.1,0,0,1,2.1,2.1v15a14.56,14.56,0,0,1-.64,4.32,10.94,10.94,0,0,1-3,4.76,9.7,9.7,0,0,1-3.19,2,18,18,0,0,1-6.19,1,37.72,37.72,0,0,1-4.56-.29,11.74,11.74,0,0,1-4.13-1.16,10.31,10.31,0,0,1-3-2.47,9.12,9.12,0,0,1-1.89-3.3,17.3,17.3,0,0,1-.82-4.84v-15a2.1,2.1,0,0,1,2.11-2.1h4.62a2.1,2.1,0,0,1,2.1,2.1V568a5,5,0,0,0,1.3,3.66,5.62,5.62,0,0,0,7.19,0,5,5,0,0,0,1.3-3.68V552.58A2.1,2.1,0,0,1,1076.17,550.48Z"/><path d="M1104.17,550.48h5.18a2,2,0,0,1,1.67.88l6.5,9.56a2,2,0,0,0,3.68-1.14V552.5a2,2,0,0,1,2-2h4.31a2,2,0,0,1,2,2v24.6a2,2,0,0,1-2,2h-5.26a2,2,0,0,1-1.66-.88l-6.45-9.45a2,2,0,0,0-3.68,1.13v7.18a2,2,0,0,1-2,2h-4.29a2,2,0,0,1-2-2V552.5A2,2,0,0,1,1104.17,550.48Z"/><path d="M1137.67,550.48h19.16a2.28,2.28,0,0,1,2.28,2.28v1.56a2.28,2.28,0,0,1-2.28,2.28h-10.29a2.27,2.27,0,0,0-2.28,2.27h0a2.28,2.28,0,0,0,2.28,2.28h9.22a2.27,2.27,0,0,1,2.27,2.27v1.29a2.28,2.28,0,0,1-2.27,2.28h-9.22a2.28,2.28,0,0,0-2.28,2.27v1.1a2.28,2.28,0,0,0,2.28,2.27h10.72a2.28,2.28,0,0,1,2.28,2.28v1.93a2.28,2.28,0,0,1-2.28,2.28h-19.59a2.27,2.27,0,0,1-2.27-2.28V552.76A2.27,2.27,0,0,1,1137.67,550.48Z"/><path d="M1166.56,550.48h19.16a2.28,2.28,0,0,1,2.27,2.28v1.56a2.28,2.28,0,0,1-2.27,2.28h-10.29a2.27,2.27,0,0,0-2.28,2.27h0a2.28,2.28,0,0,0,2.28,2.28h9.21a2.28,2.28,0,0,1,2.28,2.27v1.29a2.28,2.28,0,0,1-2.28,2.28h-9.21a2.28,2.28,0,0,0-2.28,2.27v1.1a2.28,2.28,0,0,0,2.28,2.27h10.72a2.28,2.28,0,0,1,2.27,2.28v1.93a2.28,2.28,0,0,1-2.27,2.28h-19.59a2.28,2.28,0,0,1-2.28-2.28V552.76A2.28,2.28,0,0,1,1166.56,550.48Z"/><path d="M1193.31,552.65a2.17,2.17,0,0,1,2.16-2.17h11a15.61,15.61,0,0,1,6.28,1.06,10.22,10.22,0,0,1,4,3,12.51,12.51,0,0,1,2.27,4.59,21.31,21.31,0,0,1,.7,5.55,19.22,19.22,0,0,1-1,7.12,11.77,11.77,0,0,1-2.9,4.24,9.39,9.39,0,0,1-4,2.27,20.55,20.55,0,0,1-5.27.79h-11a2.17,2.17,0,0,1-2.16-2.17Zm8.84,6.49v11.3a2.17,2.17,0,0,0,2.17,2.17h0a9.15,9.15,0,0,0,4-.61,4.17,4.17,0,0,0,1.83-2.15,13.3,13.3,0,0,0,.67-5c0-3-.5-5.11-1.49-6.23s-2.63-1.68-4.92-1.68h0A2.17,2.17,0,0,0,1202.15,559.14Z"/><path d="M1344.32,552.65a2.17,2.17,0,0,1,2.17-2.17H1359q4.8,0,7.2,2.29a8.58,8.58,0,0,1,2.39,6.5,8.84,8.84,0,0,1-2.61,6.78q-2.61,2.44-8,2.44h-2.67a2.17,2.17,0,0,0-2.17,2.17V577a2.17,2.17,0,0,1-2.17,2.17h-4.55a2.17,2.17,0,0,1-2.17-2.17Zm8.89,7.87a2.17,2.17,0,0,0,2.17,2.17h0a5.59,5.59,0,0,0,3.59-.89,2.86,2.86,0,0,0,1-2.27,3.19,3.19,0,0,0-.9-2.29c-.6-.62-1.73-.94-3.38-.94h-.35a2.17,2.17,0,0,0-2.17,2.17Z"/><path d="M1372.13,564.82c0-4.68,1.31-8.31,3.91-10.92s6.23-3.91,10.88-3.91,8.44,1.28,11,3.84,3.87,6.14,3.87,10.75a17.6,17.6,0,0,1-1.69,8.24,12,12,0,0,1-4.88,5,16.13,16.13,0,0,1-8,1.78,18.32,18.32,0,0,1-8-1.54,12.1,12.1,0,0,1-5.14-4.88A16.17,16.17,0,0,1,1372.13,564.82Zm8.85,0q0,4.33,1.61,6.23a6.11,6.11,0,0,0,8.8,0q1.56-1.86,1.56-6.66,0-4.05-1.63-5.91a5.57,5.57,0,0,0-4.42-1.87,5.4,5.4,0,0,0-4.3,1.9Q1381,560.48,1381,564.86Z"/><path d="M1409.49,550.48h3.73a2.57,2.57,0,0,1,2.57,2.57v23.5a2.57,2.57,0,0,1-2.57,2.57h-3.73a2.57,2.57,0,0,1-2.57-2.57v-23.5A2.57,2.57,0,0,1,1409.49,550.48Z"/><path d="M1423.84,550.48h5.75a1.63,1.63,0,0,1,1.35.72l7.29,10.71a1.65,1.65,0,0,0,3-.92v-8.86a1.64,1.64,0,0,1,1.64-1.65h5a1.65,1.65,0,0,1,1.65,1.65v25.34a1.65,1.65,0,0,1-1.65,1.65h-5.83a1.63,1.63,0,0,1-1.35-.72l-7.24-10.61a1.64,1.64,0,0,0-3,.93v8.75a1.64,1.64,0,0,1-1.64,1.65h-5a1.65,1.65,0,0,1-1.65-1.65V552.13A1.65,1.65,0,0,1,1423.84,550.48Z"/><path d="M1455.31,550.48h23.16a1.87,1.87,0,0,1,1.87,1.87v3.34a1.87,1.87,0,0,1-1.87,1.86h-5.29a1.87,1.87,0,0,0-1.87,1.87v17.83a1.87,1.87,0,0,1-1.86,1.87h-5.12a1.87,1.87,0,0,1-1.86-1.87V559.42a1.87,1.87,0,0,0-1.87-1.87h-5.29a1.87,1.87,0,0,1-1.87-1.86v-3.34A1.87,1.87,0,0,1,1455.31,550.48Z"/><path d="M1485.57,569.47l3.63-.23a2.44,2.44,0,0,1,2.43,1.68,4.83,4.83,0,0,0,.7,1.32,4.67,4.67,0,0,0,3.91,1.74,4.36,4.36,0,0,0,2.92-.89,2.66,2.66,0,0,0,1-2.06,2.59,2.59,0,0,0-1-2q-1-.88-4.53-1.66c-3.88-.87-6.64-2-8.3-3.48a7,7,0,0,1-2.5-5.53,7.54,7.54,0,0,1,1.28-4.17,8.48,8.48,0,0,1,3.85-3.08,17.92,17.92,0,0,1,7-1.13c3.66,0,6.45.69,8.37,2a7.52,7.52,0,0,1,2.64,3.38,2.41,2.41,0,0,1-2.13,3.28l-3.52.21a2.49,2.49,0,0,1-2.38-1.48,3.39,3.39,0,0,0-.92-1.22,4.47,4.47,0,0,0-2.94-.88,3.51,3.51,0,0,0-2.32.65,2,2,0,0,0-.78,1.59,1.57,1.57,0,0,0,.64,1.23,7.31,7.31,0,0,0,3,1.06,36.47,36.47,0,0,1,8.31,2.53,8.73,8.73,0,0,1,3.65,3.17,8.07,8.07,0,0,1,1.14,4.24,9,9,0,0,1-1.52,5.08,9.45,9.45,0,0,1-4.26,3.52,17.2,17.2,0,0,1-6.89,1.2q-7.3,0-10.12-2.81a10.55,10.55,0,0,1-2.55-4.08A2.44,2.44,0,0,1,1485.57,569.47Z"/><path d="M1527,550.48h22.09a2.4,2.4,0,0,1,2.4,2.4v2.27a2.39,2.39,0,0,1-2.4,2.4h-4.22a2.4,2.4,0,0,0-2.4,2.41v16.75a2.41,2.41,0,0,1-2.41,2.41h-4a2.4,2.4,0,0,1-2.4-2.41V560a2.41,2.41,0,0,0-2.4-2.41H1527a2.39,2.39,0,0,1-2.4-2.4v-2.27A2.4,2.4,0,0,1,1527,550.48Z"/><path d="M1553,564.82c0-4.68,1.31-8.31,3.91-10.92s6.23-3.91,10.88-3.91,8.44,1.28,11,3.84,3.87,6.14,3.87,10.75a17.6,17.6,0,0,1-1.69,8.24,12,12,0,0,1-4.88,5,16.13,16.13,0,0,1-8,1.78,18.32,18.32,0,0,1-8-1.54,12.1,12.1,0,0,1-5.14-4.88A16.17,16.17,0,0,1,1553,564.82Zm8.85,0q0,4.33,1.61,6.23a6.11,6.11,0,0,0,8.8,0q1.56-1.86,1.56-6.66,0-4.05-1.63-5.91a5.57,5.57,0,0,0-4.42-1.87,5.4,5.4,0,0,0-4.3,1.9Q1561.82,560.48,1561.82,564.86Z"/><path d="M1601.72,550.48h9.74a1.07,1.07,0,0,1,1,.81l3.24,12.57a1.07,1.07,0,0,0,2.08,0l3.21-12.57a1.07,1.07,0,0,1,1-.81h9.73a1.07,1.07,0,0,1,1.07,1.07V578a1.07,1.07,0,0,1-1.07,1.08h-5.11a1.07,1.07,0,0,1-1.07-1.08V565.79a1.07,1.07,0,0,0-2.11-.26l-3.27,12.78a1.07,1.07,0,0,1-1,.81h-4.9a1.08,1.08,0,0,1-1-.81L1610,565.54a1.07,1.07,0,0,0-2.1.27V578a1.07,1.07,0,0,1-1.07,1.08h-5.11a1.07,1.07,0,0,1-1.07-1.08V551.55A1.07,1.07,0,0,1,1601.72,550.48Z"/><path d="M1637.39,564.82c0-4.68,1.3-8.31,3.9-10.92s6.23-3.91,10.88-3.91,8.44,1.28,11,3.84,3.87,6.14,3.87,10.75a17.72,17.72,0,0,1-1.69,8.24,12.08,12.08,0,0,1-4.89,5,16.13,16.13,0,0,1-8,1.78,18.27,18.27,0,0,1-8-1.54,12.12,12.12,0,0,1-5.15-4.88A16.27,16.27,0,0,1,1637.39,564.82Zm8.85,0c0,2.89.53,5,1.61,6.23a6.11,6.11,0,0,0,8.8,0q1.56-1.86,1.56-6.66c0-2.7-.55-4.67-1.63-5.91a5.6,5.6,0,0,0-4.43-1.87,5.38,5.38,0,0,0-4.29,1.9Q1646.24,560.48,1646.24,564.86Z"/><path d="M1669.59,550.48h5.78a1.59,1.59,0,0,1,1.52,1.12l4.57,14.61a1.59,1.59,0,0,0,3,0l4.51-14.6a1.6,1.6,0,0,1,1.52-1.12H1696a1.59,1.59,0,0,1,1.49,2.15l-9.45,25.45a1.6,1.6,0,0,1-1.49,1h-7.39a1.58,1.58,0,0,1-1.48-1l-9.62-25.46A1.59,1.59,0,0,1,1669.59,550.48Z"/><path d="M1703.43,550.48h19.24a2.24,2.24,0,0,1,2.24,2.24v1.64a2.24,2.24,0,0,1-2.24,2.24H1712.3a2.24,2.24,0,0,0-2.24,2.23v.08a2.24,2.24,0,0,0,2.24,2.24h9.3a2.23,2.23,0,0,1,2.23,2.23v1.37a2.24,2.24,0,0,1-2.23,2.24h-9.3a2.24,2.24,0,0,0-2.24,2.23v1.17a2.24,2.24,0,0,0,2.24,2.24h10.8a2.24,2.24,0,0,1,2.24,2.24v2a2.24,2.24,0,0,1-2.24,2.24h-19.67a2.24,2.24,0,0,1-2.23-2.24V552.72A2.23,2.23,0,0,1,1703.43,550.48Z"/><path d="M1022.37,632.8q0,7-3.93,10.91t-10.89,3.88q-7.14,0-11-3.86T992.71,633a17.55,17.55,0,0,1,1.7-8.23,12.14,12.14,0,0,1,4.9-5,16.05,16.05,0,0,1,8-1.77,18.45,18.45,0,0,1,8,1.56,12.13,12.13,0,0,1,5.13,4.9A16.19,16.19,0,0,1,1022.37,632.8Zm-8.84-.06q0-4.34-1.6-6.23a6.09,6.09,0,0,0-8.8-.06q-1.56,1.84-1.58,6.66,0,4,1.62,5.91a5.57,5.57,0,0,0,4.42,1.87,5.35,5.35,0,0,0,4.3-1.88Q1013.51,637.12,1013.53,632.74Z"/><path d="M1029.11,618.47h5.34a1.91,1.91,0,0,1,1.58.84l6.71,9.86a1.92,1.92,0,0,0,3.5-1.07v-7.71a1.92,1.92,0,0,1,1.92-1.92h4.51a1.92,1.92,0,0,1,1.91,1.92v24.8a1.91,1.91,0,0,1-1.91,1.91h-5.42a1.92,1.92,0,0,1-1.58-.83l-6.66-9.76a1.91,1.91,0,0,0-3.49,1.08v7.6a1.91,1.91,0,0,1-1.92,1.91h-4.49a1.9,1.9,0,0,1-1.91-1.91v-24.8A1.91,1.91,0,0,1,1029.11,618.47Z"/><path d="M1074.32,618.47h21.83a2.53,2.53,0,0,1,2.53,2.53v2a2.53,2.53,0,0,1-2.53,2.53h-4a2.53,2.53,0,0,0-2.53,2.53v16.51a2.52,2.52,0,0,1-2.53,2.52h-3.79a2.52,2.52,0,0,1-2.53-2.52V628.07a2.53,2.53,0,0,0-2.53-2.53h-4a2.53,2.53,0,0,1-2.53-2.53v-2A2.53,2.53,0,0,1,1074.32,618.47Z"/><path d="M1100.21,632.81q0-7,3.9-10.92T1115,618q7.15,0,11,3.84t3.86,10.75a17.63,17.63,0,0,1-1.69,8.24,12.05,12.05,0,0,1-4.88,5,16.13,16.13,0,0,1-8,1.78,18.32,18.32,0,0,1-8-1.54,12.1,12.1,0,0,1-5.14-4.88A16.19,16.19,0,0,1,1100.21,632.81Zm8.84,0c0,2.89.54,5,1.61,6.23a6.11,6.11,0,0,0,8.8,0q1.57-1.86,1.57-6.66c0-2.7-.55-4.67-1.63-5.91a5.58,5.58,0,0,0-4.43-1.87,5.38,5.38,0,0,0-4.3,1.9Q1109,628.47,1109.05,632.85Z"/><path d="M1150.18,618.47h5a2.13,2.13,0,0,1,1.77.94l6.23,9.16a2.14,2.14,0,0,0,3.91-1.21v-6.75a2.14,2.14,0,0,1,2.14-2.14h4.06a2.14,2.14,0,0,1,2.14,2.14V645a2.14,2.14,0,0,1-2.14,2.14h-5.07a2.15,2.15,0,0,1-1.77-.93l-6.17-9.06a2.14,2.14,0,0,0-3.91,1.21V645a2.14,2.14,0,0,1-2.14,2.14h-4A2.14,2.14,0,0,1,1148,645V620.61A2.14,2.14,0,0,1,1150.18,618.47Z"/><path d="M1183.18,618.47h19.91a1.9,1.9,0,0,1,1.9,1.9v2.32a1.89,1.89,0,0,1-1.9,1.89h-11a1.9,1.9,0,0,0-1.89,1.9v.76a1.9,1.9,0,0,0,1.89,1.9h10a1.89,1.89,0,0,1,1.9,1.89v2.05a1.9,1.9,0,0,1-1.9,1.9h-10a1.89,1.89,0,0,0-1.89,1.89v1.85a1.9,1.9,0,0,0,1.89,1.9h11.48a1.9,1.9,0,0,1,1.9,1.9v2.69a1.9,1.9,0,0,1-1.9,1.89h-20.34a1.9,1.9,0,0,1-1.9-1.89V620.37A1.9,1.9,0,0,1,1183.18,618.47Z"/><path d="M1211.8,618.47h5.06a2,2,0,0,1,1.68,1l2.81,4.9a1.94,1.94,0,0,0,3.36,0l2.72-4.86a1.92,1.92,0,0,1,1.68-1h5a1.93,1.93,0,0,1,1.62,3l-6.33,9.84a1.94,1.94,0,0,0,0,2.11l7.08,10.72a1.92,1.92,0,0,1-1.61,3h-5.28a1.92,1.92,0,0,1-1.64-.91l-3.45-5.61a1.92,1.92,0,0,0-3.28,0l-3.45,5.61a1.92,1.92,0,0,1-1.64.91h-5.22a1.93,1.93,0,0,1-1.6-3l7.19-10.87a1.92,1.92,0,0,0,0-2.12l-6.33-9.66A1.93,1.93,0,0,1,1211.8,618.47Z"/><path d="M1241.62,618.47h22.23a2.33,2.33,0,0,1,2.33,2.34v2.4a2.33,2.33,0,0,1-2.33,2.33h-4.35a2.34,2.34,0,0,0-2.34,2.34v16.89a2.33,2.33,0,0,1-2.34,2.33h-4.17a2.33,2.33,0,0,1-2.34-2.33V627.88a2.34,2.34,0,0,0-2.34-2.34h-4.35a2.33,2.33,0,0,1-2.33-2.33v-2.4A2.33,2.33,0,0,1,1241.62,618.47Z"/><path d="M1285.83,618.47h4.24a2.3,2.3,0,0,1,2.3,2.31v17a2.31,2.31,0,0,0,2.31,2.3h9.2a2.3,2.3,0,0,1,2.3,2.31v2.44a2.3,2.3,0,0,1-2.3,2.3h-18.05a2.3,2.3,0,0,1-2.3-2.3v-24A2.3,2.3,0,0,1,1285.83,618.47Z"/><path d="M1311.64,618.47h20.81a1.45,1.45,0,0,1,1.45,1.45v3.21a1.44,1.44,0,0,1-1.45,1.45h-12a1.45,1.45,0,0,0-1.45,1.45v1.66a1.45,1.45,0,0,0,1.45,1.45h10.87a1.44,1.44,0,0,1,1.45,1.45v2.94a1.45,1.45,0,0,1-1.45,1.45H1320.5a1.44,1.44,0,0,0-1.45,1.45v2.74a1.45,1.45,0,0,0,1.45,1.45h12.38a1.45,1.45,0,0,1,1.45,1.45v3.58a1.44,1.44,0,0,1-1.45,1.45h-21.24a1.44,1.44,0,0,1-1.45-1.45V619.92A1.45,1.45,0,0,1,1311.64,618.47Z"/><path d="M1339.07,618.47h5a1.93,1.93,0,0,1,1.84,1.35l4.17,13.34a1.93,1.93,0,0,0,3.68,0l4.12-13.32a1.92,1.92,0,0,1,1.84-1.36h4.78a1.93,1.93,0,0,1,1.81,2.6l-9.2,24.78a1.93,1.93,0,0,1-1.81,1.25h-6.91a1.93,1.93,0,0,1-1.81-1.24l-9.35-24.78A1.92,1.92,0,0,1,1339.07,618.47Z"/><path d="M1371.74,618.47h20.61a1.56,1.56,0,0,1,1.55,1.55v3a1.55,1.55,0,0,1-1.55,1.54H1380.6a1.56,1.56,0,0,0-1.55,1.55v1.46a1.56,1.56,0,0,0,1.55,1.55h10.67a1.54,1.54,0,0,1,1.55,1.54v2.75a1.55,1.55,0,0,1-1.55,1.55H1380.6a1.55,1.55,0,0,0-1.55,1.54v2.55a1.55,1.55,0,0,0,1.55,1.55h12.18a1.55,1.55,0,0,1,1.55,1.55v3.38a1.55,1.55,0,0,1-1.55,1.55h-21a1.54,1.54,0,0,1-1.55-1.55V620A1.55,1.55,0,0,1,1371.74,618.47Z"/><path d="M1401.55,618.47h3.93a2.46,2.46,0,0,1,2.46,2.46V637.6a2.46,2.46,0,0,0,2.46,2.45h8.89a2.46,2.46,0,0,1,2.46,2.46v2.14a2.46,2.46,0,0,1-2.46,2.45h-17.74a2.46,2.46,0,0,1-2.46-2.45V620.93A2.46,2.46,0,0,1,1401.55,618.47Z"/><path class="cls-7" d="M1000.2,407.25h5a2,2,0,0,1,1.71,1l3.47,5.82a2,2,0,0,0,3.43,0l3.49-5.82a2,2,0,0,1,1.71-1h4.91a2,2,0,0,1,1.65,3.11l-8.71,13a2,2,0,0,0-.34,1.11v9.39a2,2,0,0,1-2,2h-4.87a2,2,0,0,1-2-2V424.5a2,2,0,0,0-.34-1.11l-8.73-13A2,2,0,0,1,1000.2,407.25Z"/><path class="cls-7" d="M1027,421.59q0-7,3.9-10.92t10.88-3.9q7.15,0,11,3.83t3.87,10.76a17.71,17.71,0,0,1-1.69,8.23,12.08,12.08,0,0,1-4.89,5,16.11,16.11,0,0,1-8,1.79,18.26,18.26,0,0,1-8-1.55,12.06,12.06,0,0,1-5.15-4.88A16.27,16.27,0,0,1,1027,421.59Zm8.85,0c0,2.89.53,5,1.61,6.23a6.11,6.11,0,0,0,8.8,0q1.56-1.86,1.56-6.66c0-2.7-.55-4.67-1.63-5.91a5.59,5.59,0,0,0-4.43-1.86,5.37,5.37,0,0,0-4.29,1.89Q1035.8,417.25,1035.8,421.63Z"/><path class="cls-7" d="M1082.12,407.25h4.62a2.1,2.1,0,0,1,2.1,2.1v15a14.56,14.56,0,0,1-.63,4.32,10.94,10.94,0,0,1-3,4.76,9.8,9.8,0,0,1-3.19,2,17.83,17.83,0,0,1-6.2,1,38.1,38.1,0,0,1-4.56-.3,11.86,11.86,0,0,1-4.13-1.16,10.27,10.27,0,0,1-3-2.47,9,9,0,0,1-1.89-3.3,17,17,0,0,1-.82-4.84v-15a2.1,2.1,0,0,1,2.1-2.1h4.63a2.1,2.1,0,0,1,2.1,2.1v15.37a5,5,0,0,0,1.3,3.66,4.82,4.82,0,0,0,3.6,1.32,4.88,4.88,0,0,0,3.59-1.3,5,5,0,0,0,1.29-3.68V409.35A2.11,2.11,0,0,1,1082.12,407.25Z"/><path class="cls-7" d="M1106.93,421.59q0-7,3.9-10.92t10.88-3.9q7.15,0,11,3.83t3.87,10.76a17.71,17.71,0,0,1-1.69,8.23,12.08,12.08,0,0,1-4.89,5,16.09,16.09,0,0,1-8,1.79,18.28,18.28,0,0,1-8-1.55,12.06,12.06,0,0,1-5.15-4.88A16.27,16.27,0,0,1,1106.93,421.59Zm8.85,0c0,2.89.53,5,1.61,6.23a6.11,6.11,0,0,0,8.8,0q1.56-1.86,1.56-6.66,0-4-1.63-5.91a5.59,5.59,0,0,0-4.43-1.86,5.37,5.37,0,0,0-4.29,1.89Q1115.78,417.25,1115.78,421.63Z"/><path class="cls-7" d="M1143.34,407.25h5.33a1.92,1.92,0,0,1,1.58.84L1157,418a1.92,1.92,0,0,0,3.5-1.08v-7.7a1.92,1.92,0,0,1,1.92-1.92h4.51a1.91,1.91,0,0,1,1.91,1.92V434a1.91,1.91,0,0,1-1.91,1.92h-5.41a1.94,1.94,0,0,1-1.59-.84l-6.65-9.75a1.92,1.92,0,0,0-3.5,1.08V434a1.92,1.92,0,0,1-1.92,1.92h-4.48a1.92,1.92,0,0,1-1.92-1.92v-24.8A1.92,1.92,0,0,1,1143.34,407.25Z"/><path class="cls-7" d="M1177.07,407.25h4.07a2.39,2.39,0,0,1,2.39,2.39v16.81a2.39,2.39,0,0,0,2.39,2.39h9a2.39,2.39,0,0,1,2.39,2.39v2.27a2.39,2.39,0,0,1-2.39,2.39h-17.88a2.39,2.39,0,0,1-2.39-2.39V409.64A2.39,2.39,0,0,1,1177.07,407.25Z"/><path class="cls-7" d="M1199.27,407.25H1204a2.09,2.09,0,0,1,1.78,1l3.38,5.68a2.08,2.08,0,0,0,3.56,0l3.4-5.68a2.08,2.08,0,0,1,1.78-1h4.72a2.08,2.08,0,0,1,1.72,3.23l-8.62,12.89a2,2,0,0,0-.35,1.15v9.29a2.08,2.08,0,0,1-2.08,2.08h-4.72a2.08,2.08,0,0,1-2.07-2.08v-9.28a2.06,2.06,0,0,0-.35-1.16l-8.64-12.89A2.07,2.07,0,0,1,1199.27,407.25Z"/><path class="cls-7" d="M1257.12,423.82v-2.56a1.7,1.7,0,0,1,1.7-1.7h10.28a1.7,1.7,0,0,1,1.7,1.7v9.59a1.71,1.71,0,0,1-.77,1.43,26.58,26.58,0,0,1-6.18,3.13,23.66,23.66,0,0,1-7.16,1,17.43,17.43,0,0,1-8.31-1.74,11.94,11.94,0,0,1-5-5.18,17,17,0,0,1-1.76-7.89,16.46,16.46,0,0,1,1.93-8.15,12.53,12.53,0,0,1,5.66-5.27,18.52,18.52,0,0,1,7.84-1.38,21.82,21.82,0,0,1,7.1.86,9.22,9.22,0,0,1,3.9,2.66,10.45,10.45,0,0,1,1.6,2.54,1.72,1.72,0,0,1-1.25,2.4l-5.24.93a1.66,1.66,0,0,1-1.74-.76,4.53,4.53,0,0,0-1.36-1.49,5.6,5.6,0,0,0-3.21-.85,5.78,5.78,0,0,0-4.64,2c-1.15,1.34-1.73,3.48-1.73,6.39,0,3.1.59,5.32,1.75,6.64a6.15,6.15,0,0,0,4.87,2,9.53,9.53,0,0,0,2.84-.43,13.69,13.69,0,0,0,2.17-.95,1.72,1.72,0,0,0,.91-1.51h0a1.7,1.7,0,0,0-1.7-1.7h-2.52A1.71,1.71,0,0,1,1257.12,423.82Z"/><path class="cls-7" d="M1274.94,421.59q0-7,3.9-10.92t10.88-3.9q7.15,0,11,3.83t3.86,10.76a17.71,17.71,0,0,1-1.68,8.23,12.08,12.08,0,0,1-4.89,5,16.13,16.13,0,0,1-8,1.79,18.23,18.23,0,0,1-8-1.55,12,12,0,0,1-5.15-4.88A16.17,16.17,0,0,1,1274.94,421.59Zm8.84,0q0,4.33,1.62,6.23a6.1,6.1,0,0,0,8.79,0q1.57-1.86,1.57-6.66c0-2.7-.55-4.67-1.63-5.91a5.6,5.6,0,0,0-4.43-1.86,5.37,5.37,0,0,0-4.29,1.89Q1283.77,417.25,1283.78,421.63Z"/><path class="cls-7" d="M1308.27,407.25h23a2,2,0,0,1,2,1.95v3.18a1.94,1.94,0,0,1-2,1.94h-5.13a2,2,0,0,0-2,1.95v17.67a1.94,1.94,0,0,1-1.94,1.95h-5a1.94,1.94,0,0,1-1.94-1.95V416.27a2,2,0,0,0-1.95-1.95h-5.13a1.94,1.94,0,0,1-2-1.94V409.2A2,2,0,0,1,1308.27,407.25Z"/><path class="cls-7" d="M1470.58,409.42a2.17,2.17,0,0,1,2.17-2.17h12.54c3.2,0,5.6.77,7.2,2.29a8.58,8.58,0,0,1,2.39,6.5,8.84,8.84,0,0,1-2.61,6.78q-2.61,2.44-8,2.44h-2.67a2.17,2.17,0,0,0-2.17,2.17v6.29a2.17,2.17,0,0,1-2.17,2.17h-4.55a2.17,2.17,0,0,1-2.17-2.17Zm8.89,7.87a2.17,2.17,0,0,0,2.17,2.17h0a5.53,5.53,0,0,0,3.59-.89,2.85,2.85,0,0,0,1-2.27,3.23,3.23,0,0,0-.89-2.29c-.6-.62-1.73-.94-3.38-.94h-.35a2.17,2.17,0,0,0-2.17,2.17Z"/><path class="cls-7" d="M1498.39,421.59q0-7,3.91-10.92t10.88-3.9c4.76,0,8.44,1.28,11,3.83s3.87,6.15,3.87,10.76a17.58,17.58,0,0,1-1.69,8.23,12,12,0,0,1-4.88,5,16.13,16.13,0,0,1-8,1.79,18.31,18.31,0,0,1-8-1.55,12,12,0,0,1-5.14-4.88A16.17,16.17,0,0,1,1498.39,421.59Zm8.85,0q0,4.33,1.61,6.23a6.11,6.11,0,0,0,8.8,0q1.56-1.86,1.56-6.66,0-4-1.63-5.91a5.57,5.57,0,0,0-4.42-1.86,5.39,5.39,0,0,0-4.3,1.89Q1507.24,417.25,1507.24,421.63Z"/><path class="cls-7" d="M1535.21,407.25H1540a2,2,0,0,1,2,2v24.57a2,2,0,0,1-2,2h-4.81a2,2,0,0,1-2-2V409.29A2,2,0,0,1,1535.21,407.25Z"/><path class="cls-7" d="M1550.23,407.25h5.55a1.76,1.76,0,0,1,1.46.78l7,10.31a1.78,1.78,0,0,0,3.24-1V409a1.78,1.78,0,0,1,1.77-1.78h4.79a1.78,1.78,0,0,1,1.77,1.78v25.08a1.78,1.78,0,0,1-1.77,1.78h-5.63a1.76,1.76,0,0,1-1.46-.78l-7-10.2a1.78,1.78,0,0,0-3.24,1v8.2a1.78,1.78,0,0,1-1.77,1.78h-4.77a1.78,1.78,0,0,1-1.78-1.78V409A1.78,1.78,0,0,1,1550.23,407.25Z"/><path class="cls-7" d="M1582.23,407.25h21.84a2.53,2.53,0,0,1,2.53,2.53v2a2.52,2.52,0,0,1-2.53,2.52h-4a2.53,2.53,0,0,0-2.53,2.53v16.51a2.52,2.52,0,0,1-2.52,2.53h-3.8a2.52,2.52,0,0,1-2.52-2.53V416.85a2.53,2.53,0,0,0-2.53-2.53h-4a2.52,2.52,0,0,1-2.53-2.52v-2A2.53,2.53,0,0,1,1582.23,407.25Z"/><path class="cls-7" d="M1612.8,426.18l2.12-.13A3.15,3.15,0,0,1,1618,428a3.83,3.83,0,0,0,.58,1,4.67,4.67,0,0,0,3.91,1.74,4.36,4.36,0,0,0,2.92-.89,2.66,2.66,0,0,0,1-2.06,2.59,2.59,0,0,0-1-2q-1-.88-4.53-1.66c-3.88-.87-6.64-2-8.3-3.48a7,7,0,0,1-2.5-5.53,7.54,7.54,0,0,1,1.28-4.17,8.54,8.54,0,0,1,3.85-3.08,17.94,17.94,0,0,1,7-1.12q5.49,0,8.37,2a7.32,7.32,0,0,1,1.94,2,3.12,3.12,0,0,1-2.52,4.71l-2,.11a3,3,0,0,1-2.89-1.56,3.26,3.26,0,0,0-.87-1.11,4.47,4.47,0,0,0-2.94-.88,3.57,3.57,0,0,0-2.32.65,2,2,0,0,0-.78,1.59,1.57,1.57,0,0,0,.64,1.23,7.31,7.31,0,0,0,3,1.06,37,37,0,0,1,8.31,2.53,8.73,8.73,0,0,1,3.65,3.17,8.09,8.09,0,0,1,1.14,4.24,9,9,0,0,1-1.52,5.08,9.45,9.45,0,0,1-4.26,3.52,17.19,17.19,0,0,1-6.89,1.21q-7.3,0-10.12-2.82a10.7,10.7,0,0,1-2.11-3A3.12,3.12,0,0,1,1612.8,426.18Z"/><path class="cls-7" d="M1640.54,428h5.37a1.56,1.56,0,0,1,1.57,1.56v5a9.59,9.59,0,0,1-1.51,5.7,10.78,10.78,0,0,1-3.73,3,1.57,1.57,0,0,1-2.11-.65l-.41-.77a1.55,1.55,0,0,1,.61-2.08,6.45,6.45,0,0,0,1.76-1.4l0,0a1.54,1.54,0,0,0-1.26-2.45h-.31a1.56,1.56,0,0,1-1.56-1.56v-4.77A1.56,1.56,0,0,1,1640.54,428Z"/><path class="cls-7" d="M997.6,550.48h4.2a2.31,2.31,0,0,1,2,1.13l3.12,5.22a2.3,2.3,0,0,0,4,0l3.12-5.22a2.32,2.32,0,0,1,2-1.13h4.14a2.31,2.31,0,0,1,1.92,3.59l-8.34,12.47a2.27,2.27,0,0,0-.39,1.28v9a2.31,2.31,0,0,1-2.31,2.31h-4.25a2.32,2.32,0,0,1-2.31-2.31v-9a2.28,2.28,0,0,0-.39-1.29l-8.35-12.46A2.31,2.31,0,0,1,997.6,550.48Z"/><path class="cls-7" d="M1023.77,564.82c0-4.68,1.3-8.31,3.9-10.92s6.23-3.91,10.88-3.91,8.44,1.28,11,3.84,3.87,6.14,3.87,10.75a17.72,17.72,0,0,1-1.69,8.24,12.08,12.08,0,0,1-4.89,5,16.13,16.13,0,0,1-8,1.78,18.27,18.27,0,0,1-8-1.54,12.12,12.12,0,0,1-5.15-4.88A16.27,16.27,0,0,1,1023.77,564.82Zm8.85,0c0,2.89.53,5,1.61,6.23a6.11,6.11,0,0,0,8.8,0q1.56-1.86,1.56-6.66c0-2.7-.55-4.67-1.63-5.91a5.6,5.6,0,0,0-4.43-1.87,5.38,5.38,0,0,0-4.29,1.9Q1032.62,560.48,1032.62,564.86Z"/><path class="cls-7" d="M1078.93,550.48h4.63a2.1,2.1,0,0,1,2.1,2.1v15a14.56,14.56,0,0,1-.63,4.32,10.94,10.94,0,0,1-3,4.76,9.8,9.8,0,0,1-3.19,2,18.08,18.08,0,0,1-6.2,1,38,38,0,0,1-4.56-.29,11.86,11.86,0,0,1-4.13-1.16,10.27,10.27,0,0,1-3-2.47,9.12,9.12,0,0,1-1.89-3.3,17,17,0,0,1-.82-4.84v-15a2.1,2.1,0,0,1,2.1-2.1H1065a2.1,2.1,0,0,1,2.1,2.1V568a5,5,0,0,0,1.3,3.66,4.81,4.81,0,0,0,3.6,1.31,4.89,4.89,0,0,0,3.59-1.29,5,5,0,0,0,1.29-3.68V552.58A2.1,2.1,0,0,1,1078.93,550.48Z"/><path class="cls-7" d="M1106.93,550.48h5.19a2,2,0,0,1,1.66.88l6.5,9.56a2,2,0,0,0,3.68-1.14V552.5a2,2,0,0,1,2-2h4.31a2,2,0,0,1,2,2v24.6a2,2,0,0,1-2,2H1125a2,2,0,0,1-1.67-.88l-6.44-9.45a2,2,0,0,0-3.68,1.13v7.18a2,2,0,0,1-2,2h-4.3a2,2,0,0,1-2-2V552.5A2,2,0,0,1,1106.93,550.48Z"/><path class="cls-7" d="M1140.44,550.48h19.16a2.28,2.28,0,0,1,2.27,2.28v1.56a2.28,2.28,0,0,1-2.27,2.28h-10.3a2.27,2.27,0,0,0-2.27,2.27h0a2.28,2.28,0,0,0,2.27,2.28h9.22a2.28,2.28,0,0,1,2.28,2.27v1.29a2.28,2.28,0,0,1-2.28,2.28h-9.22a2.27,2.27,0,0,0-2.27,2.27v1.1a2.27,2.27,0,0,0,2.27,2.27H1160a2.28,2.28,0,0,1,2.27,2.28v1.93a2.28,2.28,0,0,1-2.27,2.28h-19.59a2.28,2.28,0,0,1-2.28-2.28V552.76A2.28,2.28,0,0,1,1140.44,550.48Z"/><path class="cls-7" d="M1169.32,550.48h19.16a2.28,2.28,0,0,1,2.28,2.28v1.56a2.28,2.28,0,0,1-2.28,2.28h-10.29a2.27,2.27,0,0,0-2.27,2.27h0a2.28,2.28,0,0,0,2.27,2.28h9.22a2.28,2.28,0,0,1,2.28,2.27v1.29a2.28,2.28,0,0,1-2.28,2.28h-9.22a2.27,2.27,0,0,0-2.27,2.27v1.1a2.27,2.27,0,0,0,2.27,2.27h10.72a2.28,2.28,0,0,1,2.28,2.28v1.93a2.28,2.28,0,0,1-2.28,2.28h-19.59a2.28,2.28,0,0,1-2.27-2.28V552.76A2.28,2.28,0,0,1,1169.32,550.48Z"/><path class="cls-7" d="M1196.07,552.65a2.17,2.17,0,0,1,2.17-2.17h11a15.64,15.64,0,0,1,6.28,1.06,10.22,10.22,0,0,1,4,3,12.66,12.66,0,0,1,2.27,4.59,21.31,21.31,0,0,1,.7,5.55,19.43,19.43,0,0,1-1,7.12,11.79,11.79,0,0,1-2.91,4.24,9.3,9.3,0,0,1-4,2.27,20.61,20.61,0,0,1-5.27.79h-11a2.17,2.17,0,0,1-2.17-2.17Zm8.85,6.49v11.3a2.17,2.17,0,0,0,2.17,2.17h0A9.1,9.1,0,0,0,1211,572a4.18,4.18,0,0,0,1.84-2.15,13.56,13.56,0,0,0,.66-5c0-3-.49-5.11-1.48-6.23s-2.63-1.68-4.92-1.68h0A2.17,2.17,0,0,0,1204.92,559.14Z"/><path class="cls-7" d="M1347.09,552.65a2.17,2.17,0,0,1,2.17-2.17h12.54q4.8,0,7.19,2.29a8.54,8.54,0,0,1,2.4,6.5,8.84,8.84,0,0,1-2.61,6.78q-2.61,2.44-8,2.44h-2.68a2.17,2.17,0,0,0-2.17,2.17V577a2.17,2.17,0,0,1-2.16,2.17h-4.55a2.17,2.17,0,0,1-2.17-2.17Zm8.88,7.87a2.17,2.17,0,0,0,2.17,2.17h0a5.6,5.6,0,0,0,3.6-.89,2.85,2.85,0,0,0,1-2.27,3.19,3.19,0,0,0-.9-2.29c-.6-.62-1.72-.94-3.38-.94h-.35a2.17,2.17,0,0,0-2.17,2.17Z"/><path class="cls-7" d="M1374.9,564.82c0-4.68,1.3-8.31,3.91-10.92S1385,550,1389.69,550s8.43,1.28,11,3.84,3.87,6.14,3.87,10.75a17.6,17.6,0,0,1-1.69,8.24,12.06,12.06,0,0,1-4.88,5,16.16,16.16,0,0,1-8,1.78,18.32,18.32,0,0,1-8-1.54,12.12,12.12,0,0,1-5.15-4.88A16.27,16.27,0,0,1,1374.9,564.82Zm8.85,0q0,4.33,1.61,6.23a6.11,6.11,0,0,0,8.8,0q1.56-1.86,1.56-6.66,0-4.05-1.63-5.91a5.59,5.59,0,0,0-4.42-1.87,5.39,5.39,0,0,0-4.3,1.9Q1383.75,560.48,1383.75,564.86Z"/><path class="cls-7" d="M1412.25,550.48H1416a2.57,2.57,0,0,1,2.56,2.57v23.5a2.57,2.57,0,0,1-2.56,2.57h-3.74a2.57,2.57,0,0,1-2.56-2.57v-23.5A2.57,2.57,0,0,1,1412.25,550.48Z"/><path class="cls-7" d="M1426.6,550.48h5.75a1.64,1.64,0,0,1,1.36.72l7.29,10.71a1.64,1.64,0,0,0,3-.92v-8.86a1.65,1.65,0,0,1,1.65-1.65h5a1.64,1.64,0,0,1,1.64,1.65v25.34a1.64,1.64,0,0,1-1.64,1.65h-5.83a1.66,1.66,0,0,1-1.36-.72l-7.23-10.61a1.64,1.64,0,0,0-3,.93v8.75a1.65,1.65,0,0,1-1.64,1.65h-5a1.64,1.64,0,0,1-1.64-1.65V552.13A1.64,1.64,0,0,1,1426.6,550.48Z"/><path class="cls-7" d="M1458.08,550.48h23.16a1.87,1.87,0,0,1,1.86,1.87v3.34a1.86,1.86,0,0,1-1.86,1.86H1476a1.87,1.87,0,0,0-1.87,1.87v17.83a1.87,1.87,0,0,1-1.87,1.87h-5.11a1.87,1.87,0,0,1-1.87-1.87V559.42a1.87,1.87,0,0,0-1.86-1.87h-5.29a1.86,1.86,0,0,1-1.87-1.86v-3.34A1.87,1.87,0,0,1,1458.08,550.48Z"/><path class="cls-7" d="M1488.34,569.47l3.62-.23a2.45,2.45,0,0,1,2.44,1.68,4.58,4.58,0,0,0,.7,1.32A4.67,4.67,0,0,0,1499,574a4.34,4.34,0,0,0,2.92-.89,2.54,2.54,0,0,0,0-4.05q-1-.88-4.53-1.66-5.82-1.3-8.3-3.48a7,7,0,0,1-2.5-5.53,7.54,7.54,0,0,1,1.28-4.17,8.43,8.43,0,0,1,3.85-3.08,17.92,17.92,0,0,1,7-1.13c3.66,0,6.45.69,8.37,2a7.52,7.52,0,0,1,2.64,3.38,2.41,2.41,0,0,1-2.13,3.28l-3.53.21a2.48,2.48,0,0,1-2.37-1.48,3.51,3.51,0,0,0-.92-1.22,4.47,4.47,0,0,0-2.94-.88,3.54,3.54,0,0,0-2.33.65,2,2,0,0,0-.78,1.59,1.59,1.59,0,0,0,.65,1.23,7.18,7.18,0,0,0,3,1.06,36.82,36.82,0,0,1,8.31,2.53,8.73,8.73,0,0,1,3.65,3.17,8.07,8.07,0,0,1,1.14,4.24,9.12,9.12,0,0,1-1.52,5.08,9.56,9.56,0,0,1-4.26,3.52,17.2,17.2,0,0,1-6.89,1.2q-7.3,0-10.12-2.81a10.58,10.58,0,0,1-2.56-4.08A2.45,2.45,0,0,1,1488.34,569.47Z"/><path class="cls-7" d="M1529.72,550.48h22.09a2.41,2.41,0,0,1,2.41,2.4v2.27a2.4,2.4,0,0,1-2.41,2.4h-4.21a2.41,2.41,0,0,0-2.41,2.41v16.75a2.4,2.4,0,0,1-2.4,2.41h-4a2.4,2.4,0,0,1-2.4-2.41V560a2.41,2.41,0,0,0-2.41-2.41h-4.22a2.4,2.4,0,0,1-2.4-2.4v-2.27A2.41,2.41,0,0,1,1529.72,550.48Z"/><path class="cls-7" d="M1555.74,564.82c0-4.68,1.3-8.31,3.91-10.92s6.23-3.91,10.88-3.91,8.43,1.28,11,3.84,3.87,6.14,3.87,10.75a17.6,17.6,0,0,1-1.69,8.24,12.06,12.06,0,0,1-4.88,5,16.16,16.16,0,0,1-8,1.78,18.32,18.32,0,0,1-8-1.54,12.12,12.12,0,0,1-5.15-4.88A16.27,16.27,0,0,1,1555.74,564.82Zm8.85,0q0,4.33,1.61,6.23a6.11,6.11,0,0,0,8.8,0q1.56-1.86,1.56-6.66,0-4.05-1.63-5.91a5.59,5.59,0,0,0-4.42-1.87,5.39,5.39,0,0,0-4.3,1.9Q1564.59,560.48,1564.59,564.86Z"/><path class="cls-7" d="M1604.49,550.48h9.73a1.07,1.07,0,0,1,1,.81l3.24,12.57a1.07,1.07,0,0,0,2.07,0l3.22-12.57a1.07,1.07,0,0,1,1-.81h9.72a1.07,1.07,0,0,1,1.07,1.07V578a1.07,1.07,0,0,1-1.07,1.08h-5.1a1.07,1.07,0,0,1-1.07-1.08V565.79a1.07,1.07,0,0,0-2.11-.26L1623,578.31a1.08,1.08,0,0,1-1,.81h-4.89a1.08,1.08,0,0,1-1-.81l-3.26-12.77a1.07,1.07,0,0,0-2.11.27V578a1.07,1.07,0,0,1-1.07,1.08h-5.1a1.07,1.07,0,0,1-1.07-1.08V551.55A1.07,1.07,0,0,1,1604.49,550.48Z"/><path class="cls-7" d="M1640.15,564.82c0-4.68,1.31-8.31,3.91-10.92s6.23-3.91,10.88-3.91,8.44,1.28,11,3.84,3.86,6.14,3.86,10.75a17.6,17.6,0,0,1-1.69,8.24,12,12,0,0,1-4.88,5,16.13,16.13,0,0,1-8,1.78,18.32,18.32,0,0,1-8-1.54,12.1,12.1,0,0,1-5.14-4.88A16.17,16.17,0,0,1,1640.15,564.82Zm8.85,0q0,4.33,1.61,6.23a6.11,6.11,0,0,0,8.8,0q1.56-1.86,1.56-6.66,0-4.05-1.63-5.91a5.57,5.57,0,0,0-4.42-1.87,5.4,5.4,0,0,0-4.3,1.9Q1649,560.48,1649,564.86Z"/><path class="cls-7" d="M1672.36,550.48h5.78a1.58,1.58,0,0,1,1.51,1.12l4.57,14.61a1.59,1.59,0,0,0,3,0l4.51-14.6a1.59,1.59,0,0,1,1.52-1.12h5.52a1.6,1.6,0,0,1,1.49,2.15l-9.46,25.45a1.59,1.59,0,0,1-1.49,1H1682a1.6,1.6,0,0,1-1.49-1l-9.61-25.46A1.59,1.59,0,0,1,1672.36,550.48Z"/><path class="cls-7" d="M1706.2,550.48h19.24a2.23,2.23,0,0,1,2.23,2.24v1.64a2.24,2.24,0,0,1-2.23,2.24h-10.37a2.23,2.23,0,0,0-2.24,2.23v.08a2.24,2.24,0,0,0,2.24,2.24h9.29a2.23,2.23,0,0,1,2.24,2.23v1.37a2.24,2.24,0,0,1-2.24,2.24h-9.29a2.23,2.23,0,0,0-2.24,2.23v1.17a2.24,2.24,0,0,0,2.24,2.24h10.8a2.23,2.23,0,0,1,2.23,2.24v2a2.24,2.24,0,0,1-2.23,2.24H1706.2a2.25,2.25,0,0,1-2.24-2.24V552.72A2.24,2.24,0,0,1,1706.2,550.48Z"/><path class="cls-7" d="M995.4,633.7q0-7,3.9-10.92t10.88-3.9q7.16,0,11,3.84t3.87,10.75a17.71,17.71,0,0,1-1.69,8.23,12.08,12.08,0,0,1-4.89,5,16.09,16.09,0,0,1-8,1.79,18.28,18.28,0,0,1-8-1.55,12,12,0,0,1-5.15-4.88A16.27,16.27,0,0,1,995.4,633.7Zm8.85,0c0,2.89.53,5,1.61,6.23a6.09,6.09,0,0,0,8.8,0q1.56-1.86,1.56-6.66,0-4.05-1.63-5.91a5.59,5.59,0,0,0-4.43-1.86,5.37,5.37,0,0,0-4.29,1.89Q1004.25,629.36,1004.25,633.74Z"/><path class="cls-7" d="M1031.81,619.37h5.33a1.91,1.91,0,0,1,1.58.83l6.72,9.87a1.91,1.91,0,0,0,3.49-1.08v-7.71a1.91,1.91,0,0,1,1.92-1.91h4.51a1.9,1.9,0,0,1,1.91,1.91v24.8a1.91,1.91,0,0,1-1.91,1.92H1050a1.91,1.91,0,0,1-1.59-.84l-6.65-9.76a1.92,1.92,0,0,0-3.5,1.08v7.6a1.92,1.92,0,0,1-1.91,1.92h-4.49a1.92,1.92,0,0,1-1.92-1.92v-24.8A1.91,1.91,0,0,1,1031.81,619.37Z"/><path class="cls-7" d="M1077,619.37h21.84a2.53,2.53,0,0,1,2.53,2.52v2a2.54,2.54,0,0,1-2.53,2.53h-4a2.52,2.52,0,0,0-2.53,2.52v16.51a2.53,2.53,0,0,1-2.53,2.53H1086a2.53,2.53,0,0,1-2.53-2.53V629a2.52,2.52,0,0,0-2.52-2.52h-4a2.53,2.53,0,0,1-2.53-2.53v-2A2.52,2.52,0,0,1,1077,619.37Z"/><path class="cls-7" d="M1102.9,633.7q0-7,3.9-10.92t10.88-3.9q7.15,0,11,3.84t3.87,10.75a17.71,17.71,0,0,1-1.69,8.23,12.08,12.08,0,0,1-4.89,5,16.09,16.09,0,0,1-8,1.79,18.28,18.28,0,0,1-8-1.55,12,12,0,0,1-5.15-4.88A16.27,16.27,0,0,1,1102.9,633.7Zm8.85,0c0,2.89.53,5,1.61,6.23a6.09,6.09,0,0,0,8.8,0q1.56-1.86,1.56-6.66,0-4.05-1.63-5.91a5.59,5.59,0,0,0-4.43-1.86,5.37,5.37,0,0,0-4.29,1.89Q1111.75,629.36,1111.75,633.74Z"/><path class="cls-7" d="M1152.87,619.37h5a2.15,2.15,0,0,1,1.77.93l6.23,9.16a2.14,2.14,0,0,0,3.91-1.2v-6.75a2.14,2.14,0,0,1,2.14-2.14H1176a2.13,2.13,0,0,1,2.14,2.14v24.35A2.14,2.14,0,0,1,1176,648h-5.07a2.13,2.13,0,0,1-1.76-.94l-6.18-9a2.14,2.14,0,0,0-3.91,1.2v6.65a2.14,2.14,0,0,1-2.14,2.14h-4a2.14,2.14,0,0,1-2.14-2.14V621.51A2.14,2.14,0,0,1,1152.87,619.37Z"/><path class="cls-7" d="M1185.87,619.37h19.92a1.89,1.89,0,0,1,1.89,1.89v2.32a1.9,1.9,0,0,1-1.89,1.9h-11a1.9,1.9,0,0,0-1.9,1.9v.75a1.9,1.9,0,0,0,1.9,1.9h10a1.9,1.9,0,0,1,1.9,1.9v2a1.9,1.9,0,0,1-1.9,1.9h-10a1.9,1.9,0,0,0-1.9,1.9v1.85a1.9,1.9,0,0,0,1.9,1.89h11.48a1.9,1.9,0,0,1,1.89,1.9v2.69a1.9,1.9,0,0,1-1.89,1.9h-20.35a1.9,1.9,0,0,1-1.9-1.9V621.26A1.89,1.89,0,0,1,1185.87,619.37Z"/><path class="cls-7" d="M1214.49,619.37h5.07a1.92,1.92,0,0,1,1.67,1l2.82,4.9a1.92,1.92,0,0,0,3.35,0l2.72-4.86a1.91,1.91,0,0,1,1.68-1h5a1.93,1.93,0,0,1,1.62,3l-6.32,9.84a1.91,1.91,0,0,0,0,2.1l7.09,10.73a1.93,1.93,0,0,1-1.61,3h-5.28a2,2,0,0,1-1.65-.92l-3.44-5.61a1.94,1.94,0,0,0-3.29,0l-3.45,5.61a1.93,1.93,0,0,1-1.64.92h-5.21a1.93,1.93,0,0,1-1.61-3l7.19-10.87a1.94,1.94,0,0,0,0-2.13l-6.33-9.66A1.92,1.92,0,0,1,1214.49,619.37Z"/><path class="cls-7" d="M1244.32,619.37h22.22a2.33,2.33,0,0,1,2.34,2.33v2.4a2.34,2.34,0,0,1-2.34,2.34h-4.35a2.33,2.33,0,0,0-2.34,2.33v16.89a2.33,2.33,0,0,1-2.33,2.34h-4.18a2.34,2.34,0,0,1-2.34-2.34V628.77a2.33,2.33,0,0,0-2.33-2.33h-4.35a2.34,2.34,0,0,1-2.34-2.34v-2.4A2.33,2.33,0,0,1,1244.32,619.37Z"/><path class="cls-7" d="M1288.52,619.37h4.24a2.3,2.3,0,0,1,2.31,2.3v17a2.3,2.3,0,0,0,2.3,2.31h9.2a2.31,2.31,0,0,1,2.31,2.3v2.44a2.31,2.31,0,0,1-2.31,2.31h-18a2.3,2.3,0,0,1-2.3-2.31v-24A2.3,2.3,0,0,1,1288.52,619.37Z"/><path class="cls-7" d="M1314.33,619.37h20.81a1.44,1.44,0,0,1,1.45,1.45V624a1.45,1.45,0,0,1-1.45,1.45H1323.2a1.45,1.45,0,0,0-1.45,1.45v1.65a1.45,1.45,0,0,0,1.45,1.45h10.87a1.45,1.45,0,0,1,1.45,1.45v2.94a1.45,1.45,0,0,1-1.45,1.45H1323.2a1.45,1.45,0,0,0-1.45,1.45v2.74a1.45,1.45,0,0,0,1.45,1.45h12.37A1.45,1.45,0,0,1,1337,643v3.59a1.45,1.45,0,0,1-1.45,1.45h-21.24a1.45,1.45,0,0,1-1.45-1.45V620.82A1.44,1.44,0,0,1,1314.33,619.37Z"/><path class="cls-7" d="M1341.76,619.37h5a1.91,1.91,0,0,1,1.83,1.35l4.17,13.33a1.93,1.93,0,0,0,3.69,0l4.11-13.32a1.93,1.93,0,0,1,1.84-1.35h4.79A1.92,1.92,0,0,1,1369,622l-9.2,24.78A1.92,1.92,0,0,1,1358,648h-6.92a1.93,1.93,0,0,1-1.8-1.25L1340,622A1.92,1.92,0,0,1,1341.76,619.37Z"/><path class="cls-7" d="M1374.43,619.37H1395a1.54,1.54,0,0,1,1.55,1.54v3a1.54,1.54,0,0,1-1.55,1.55H1383.3a1.54,1.54,0,0,0-1.55,1.55v1.45a1.54,1.54,0,0,0,1.55,1.55H1394a1.55,1.55,0,0,1,1.55,1.55v2.74a1.55,1.55,0,0,1-1.55,1.55H1383.3a1.54,1.54,0,0,0-1.55,1.55V640a1.54,1.54,0,0,0,1.55,1.55h12.17a1.55,1.55,0,0,1,1.55,1.55v3.39a1.55,1.55,0,0,1-1.55,1.55h-21a1.55,1.55,0,0,1-1.55-1.55V620.91A1.54,1.54,0,0,1,1374.43,619.37Z"/><path class="cls-7" d="M1404.24,619.37h3.94a2.45,2.45,0,0,1,2.45,2.45v16.67a2.46,2.46,0,0,0,2.46,2.46h8.9a2.45,2.45,0,0,1,2.45,2.45v2.14A2.46,2.46,0,0,1,1422,648h-17.75a2.46,2.46,0,0,1-2.45-2.46V621.82A2.45,2.45,0,0,1,1404.24,619.37Z"/><path class="cls-8" d="M990,318.23q0-16.53,9.21-25.74t25.65-9.21q16.86,0,26,9.05t9.11,25.35q0,11.83-4,19.41a28.42,28.42,0,0,1-11.51,11.79q-7.53,4.22-18.77,4.22-11.41,0-18.9-3.64a28.51,28.51,0,0,1-12.14-11.52Q990,330.07,990,318.23Zm20.86.1q0,10.21,3.8,14.69a12.85,12.85,0,0,0,10.34,4.46q6.72,0,10.41-4.37t3.68-15.71q0-9.52-3.84-13.93a13.15,13.15,0,0,0-10.43-4.39,12.68,12.68,0,0,0-10.14,4.46Q1010.91,308,1010.9,318.33Z"/><path class="cls-8" d="M1075.56,284.43h12.38a4.24,4.24,0,0,1,4.25,4.24v15.14a4.24,4.24,0,0,0,4.24,4.25h14.31a4.24,4.24,0,0,0,4.24-4.25V288.67a4.24,4.24,0,0,1,4.24-4.24h12.47a4.24,4.24,0,0,1,4.25,4.24v59a4.24,4.24,0,0,1-4.25,4.24h-12.47a4.24,4.24,0,0,1-4.24-4.24V328.88a4.24,4.24,0,0,0-4.24-4.25h-14.31a4.24,4.24,0,0,0-4.24,4.25V347.7a4.24,4.24,0,0,1-4.25,4.24h-12.38a4.24,4.24,0,0,1-4.24-4.24v-59A4.24,4.24,0,0,1,1075.56,284.43Z"/><path class="cls-8" d="M1185.63,284.43h13a4.24,4.24,0,0,1,3.5,1.86l17.55,25.78a3.62,3.62,0,0,0,6.61-2V288.67a4.24,4.24,0,0,1,4.24-4.24h11.18a4.24,4.24,0,0,1,4.25,4.24v59a4.24,4.24,0,0,1-4.25,4.24h-13.18a4.23,4.23,0,0,1-3.5-1.85l-16.27-23.86a4.24,4.24,0,0,0-7.75,2.39V347.7a4.24,4.24,0,0,1-4.24,4.24h-11.14a4.24,4.24,0,0,1-4.24-4.24v-59A4.24,4.24,0,0,1,1185.63,284.43Z"/><path class="cls-8" d="M1257.19,318.23q0-16.53,9.21-25.74t25.66-9.21q16.85,0,26,9.05t9.12,25.35q0,11.83-4,19.41a28.36,28.36,0,0,1-11.51,11.79q-7.53,4.22-18.76,4.22-11.43,0-18.91-3.64a28.49,28.49,0,0,1-12.13-11.52Q1257.19,330.07,1257.19,318.23Zm20.87.1q0,10.21,3.79,14.69a12.86,12.86,0,0,0,10.34,4.46c4.49,0,8-1.45,10.41-4.37s3.69-8.15,3.69-15.71q0-9.52-3.85-13.93a13.14,13.14,0,0,0-10.43-4.39,12.66,12.66,0,0,0-10.13,4.46Q1278.05,308,1278.06,318.33Z"/><path class="cls-8" d="M1339,333.15h11.55a4.24,4.24,0,0,1,4.24,4.25v10.3a4.24,4.24,0,0,1-4.24,4.24H1339a4.24,4.24,0,0,1-4.24-4.24V337.4A4.24,4.24,0,0,1,1339,333.15Z"/><path class="cls-8" d="M1370.4,333.15H1382a4.24,4.24,0,0,1,4.24,4.25v10.3a4.24,4.24,0,0,1-4.24,4.24H1370.4a4.23,4.23,0,0,1-4.24-4.24V337.4A4.24,4.24,0,0,1,1370.4,333.15Z"/><path class="cls-8" d="M1401.81,333.15h11.55a4.24,4.24,0,0,1,4.24,4.25v10.3a4.24,4.24,0,0,1-4.24,4.24h-11.55a4.24,4.24,0,0,1-4.25-4.24V337.4A4.25,4.25,0,0,1,1401.81,333.15Z"/><path class="cls-9" d="M994,320.23q0-16.53,9.21-25.74t25.65-9.21q16.86,0,26,9.05t9.11,25.35q0,11.83-4,19.41a28.42,28.42,0,0,1-11.51,11.79q-7.53,4.22-18.77,4.22-11.41,0-18.9-3.64a28.51,28.51,0,0,1-12.14-11.52Q994,332.07,994,320.23Zm20.86.1q0,10.21,3.8,14.69a12.85,12.85,0,0,0,10.34,4.46q6.72,0,10.41-4.37t3.68-15.71q0-9.52-3.84-13.93a13.15,13.15,0,0,0-10.43-4.39,12.68,12.68,0,0,0-10.14,4.46Q1014.91,310,1014.9,320.33Z"/><path class="cls-9" d="M1079.56,286.43h12.38a4.24,4.24,0,0,1,4.25,4.24v15.14a4.24,4.24,0,0,0,4.24,4.25h14.31a4.24,4.24,0,0,0,4.24-4.25V290.67a4.24,4.24,0,0,1,4.24-4.24h12.47a4.24,4.24,0,0,1,4.25,4.24v59a4.24,4.24,0,0,1-4.25,4.24h-12.47a4.24,4.24,0,0,1-4.24-4.24V330.88a4.24,4.24,0,0,0-4.24-4.25h-14.31a4.24,4.24,0,0,0-4.24,4.25V349.7a4.24,4.24,0,0,1-4.25,4.24h-12.38a4.24,4.24,0,0,1-4.24-4.24v-59A4.24,4.24,0,0,1,1079.56,286.43Z"/><path class="cls-9" d="M1189.63,286.43h13a4.24,4.24,0,0,1,3.5,1.86l17.55,25.78a3.62,3.62,0,0,0,6.61-2V290.67a4.24,4.24,0,0,1,4.24-4.24h11.18a4.24,4.24,0,0,1,4.25,4.24v59a4.24,4.24,0,0,1-4.25,4.24h-13.18a4.23,4.23,0,0,1-3.5-1.85l-16.27-23.86a4.24,4.24,0,0,0-7.75,2.39V349.7a4.24,4.24,0,0,1-4.24,4.24h-11.14a4.24,4.24,0,0,1-4.24-4.24v-59A4.24,4.24,0,0,1,1189.63,286.43Z"/><path class="cls-9" d="M1261.19,320.23q0-16.53,9.21-25.74t25.66-9.21q16.85,0,26,9.05t9.12,25.35q0,11.83-4,19.41a28.36,28.36,0,0,1-11.51,11.79q-7.53,4.22-18.76,4.22-11.43,0-18.91-3.64a28.49,28.49,0,0,1-12.13-11.52Q1261.19,332.07,1261.19,320.23Zm20.87.1q0,10.21,3.79,14.69a12.86,12.86,0,0,0,10.34,4.46c4.49,0,8-1.45,10.41-4.37s3.69-8.15,3.69-15.71q0-9.52-3.85-13.93a13.14,13.14,0,0,0-10.43-4.39,12.66,12.66,0,0,0-10.13,4.46Q1282.05,310,1282.06,320.33Z"/><path class="cls-9" d="M1343,335.15h11.55a4.24,4.24,0,0,1,4.24,4.25v10.3a4.24,4.24,0,0,1-4.24,4.24H1343a4.24,4.24,0,0,1-4.24-4.24V339.4A4.24,4.24,0,0,1,1343,335.15Z"/><path class="cls-8" d="M1364.63,433.22h2.58a.93.93,0,0,1,1,.9v2.2a.93.93,0,0,1-1,.9h-2.58a.92.92,0,0,1-1-.9v-2.2A.93.93,0,0,1,1364.63,433.22Z"/><path class="cls-9" d="M1374.4,335.15H1386a4.24,4.24,0,0,1,4.24,4.25v10.3a4.24,4.24,0,0,1-4.24,4.24H1374.4a4.23,4.23,0,0,1-4.24-4.24V339.4A4.24,4.24,0,0,1,1374.4,335.15Z"/><path class="cls-9" d="M1405.81,335.15h11.55a4.24,4.24,0,0,1,4.24,4.25v10.3a4.24,4.24,0,0,1-4.24,4.24h-11.55a4.24,4.24,0,0,1-4.25-4.24V339.4A4.25,4.25,0,0,1,1405.81,335.15Z"/><path class="cls-10" d="M1365.57,434.15h2.58a.93.93,0,0,1,.95.9v2.19a.94.94,0,0,1-.95.91h-2.58a.93.93,0,0,1-1-.91v-2.19A.92.92,0,0,1,1365.57,434.15Z"/></svg>
