<svg id="Layer_2" data-name="Layer 2" xmlns="http://www.w3.org/2000/svg" width="180" height="150" viewBox="0 0 180 150"><defs><style>.cls-1{fill:#231f20;}.cls-2{fill:#e36ea6;}</style></defs><path class="cls-1" d="M53.89,126.62S74.1,142,91.66,148l32-16"/><path d="M91.69,148.58l-.2-.07c-17.43-6-37.7-21.34-37.9-21.49l.61-.8c.2.16,20.19,15.3,37.42,21.28l31.76-15.92.45.9Z"/><path class="cls-1" d="M86.45,144.45a142.22,142.22,0,0,1-17.74-8.19c-9.3-5.1-46.65-28.09-62.08-70.95-6.13-17.05-4-27.7-3-31.52C4.12,31.7,8.7,14.55,23.64,6.37,40.51-2.87,65,2.4,82,20.79l3,2.92,1.5,1.34,4.47-4.26c17-18.39,41.47-23.66,58.34-14.42,14.94,8.18,19.52,25.33,20.05,27.42,1,3.82,3.09,14.47-3,31.52-15.43,42.86-52.78,65.85-62.08,70.95a142.22,142.22,0,0,1-17.74,8.19"/><path d="M86.45,145l-.18-.06a144,144,0,0,1-17.8-8.22C60.84,132.52,22,109.43,6.16,65.48,1.9,53.64.85,42.64,3.11,33.66,3.92,30.44,8.71,14,23.4,5.93c17.51-9.59,42.3-3.48,59,14.52l3,2.91,1.14,1,4.13-3.94C107.2,2.45,132-3.66,149.5,5.93c14.69,8,19.48,24.51,20.29,27.73,2.26,9,1.21,20-3,31.82-15.82,44-54.68,67-62.31,71.22a143.16,143.16,0,0,1-17.8,8.22ZM41.8,2.42A37.16,37.16,0,0,0,23.88,6.8c-14.33,7.85-19,24-19.8,27.11-2.22,8.78-1.17,19.58,3,31.23C22.8,108.75,61.38,131.67,69,135.82a141.29,141.29,0,0,0,17.5,8.09,142,142,0,0,0,17.5-8.09c7.57-4.15,46.15-27.07,61.85-70.68,4.19-11.65,5.24-22.45,3-31.23C168,30.76,163.34,14.65,149,6.8c-17.11-9.37-41.39-3.34-57.73,14.33l-4.83,4.6-1.84-1.64-3-2.94C70.45,9.06,55.57,2.42,41.8,2.42Z"/><path class="cls-2" d="M93.55,148a140.76,140.76,0,0,1-17.74-8.19c-9.3-5.09-46.65-28.09-62.08-70.94-6.13-17.06-4-27.71-3-31.53.53-2.09,5.11-19.24,20-27.42C47.61.72,72.07,6,89.08,24.38l3,2.93,1.5,1.33L98,24.38C115,6,139.49.72,156.36,10c14.93,8.18,19.52,25.33,20,27.42,1,3.82,3.09,14.47-3,31.53-15.43,42.85-52.78,65.85-62.08,70.94A140.76,140.76,0,0,1,93.55,148"/><path d="M93.55,148.58l-.18-.07a142.5,142.5,0,0,1-17.8-8.22C67.94,136.11,29.08,113,13.26,69.08,9,57.24,8,46.23,10.21,37.26,11,34,15.81,17.57,30.5,9.52,48-.07,72.8,6,89.45,24l3,2.91,1.14,1L97.67,24C114.3,6,139.09-.07,156.6,9.52c14.69,8.05,19.48,24.52,20.29,27.74,2.26,9,1.21,20-3,31.82-15.82,43.94-54.68,67-62.31,71.21a142.5,142.5,0,0,1-17.8,8.22ZM48.9,6A37.06,37.06,0,0,0,31,10.4c-14.33,7.84-19,24-19.8,27.1C9,46.28,10,57.09,14.2,68.74c15.7,43.6,54.28,66.52,61.85,70.68a143.57,143.57,0,0,0,17.5,8.09,144.27,144.27,0,0,0,17.5-8.09c7.57-4.16,46.15-27.07,61.84-70.68,4.2-11.66,5.25-22.46,3-31.24-.79-3.15-5.48-19.26-19.8-27.1C139,1,114.73,7.05,98.38,24.72l-4.82,4.6-1.84-1.64-3-2.94C77.55,12.65,62.66,6,48.9,6Z"/></svg>
