<svg id="Layer_1" data-name="Layer 1" xmlns="http://www.w3.org/2000/svg" xmlns:xlink="http://www.w3.org/1999/xlink" width="1920" height="1080" viewBox="0 0 1920 1080"><defs><style>.cls-1{fill:url(#radial-gradient);}.cls-2{fill:#221f20;}.cls-3{fill:#f2d535;}.cls-4,.cls-5,.cls-7{stroke:#000;}.cls-5,.cls-8{fill:#fff;}.cls-5,.cls-7{stroke-miterlimit:10;}.cls-6,.cls-7{fill:#f1dfcd;}.cls-9{fill:#907fce;}.cls-10{fill:none;}</style><radialGradient id="radial-gradient" cx="961.85" cy="540" r="778.85" gradientUnits="userSpaceOnUse"><stop offset="0" stop-color="#d27ca8"/><stop offset="0.36" stop-color="#efb5f7"/><stop offset="1" stop-color="#d27ca8"/></radialGradient></defs><rect class="cls-1" x="1.85" width="1920" height="1080"/><path class="cls-2" d="M243.71,156.5l0-.54c0-.13,0-.27,0-.41a.86.86,0,0,1,0-.17v0a9.22,9.22,0,0,0-.34-1c-.2-.39-.43-.8-.7-1.24-4.9-8.1-28.81-19.39-28.81-19.39-2.27-22.06-6.17-29.61-9.09-32a6.08,6.08,0,0,0-1.83-.79l-.25-.06a4.87,4.87,0,0,0-1.14-.08l-.24,0-.12,0a1.59,1.59,0,0,0-.23.11c-7.75,1.56-25.44,23.91-25.44,23.91s-29.34-7.17-34.13,1.5,14.76,31,14.76,31-14.79,29.93-9.44,34.64c6.52,5.75,29.71-2.56,31.35-3.15a2.35,2.35,0,0,1,1-.45,2.28,2.28,0,0,1,1.07,0,.75.75,0,0,1,.62.34c.44.65,1,1.25,1.44,1.87l.14.13a.4.4,0,0,1,.1.12c16.9,17.3,20.94,17.9,27,17s9.48-32.9,9.48-32.9C240.25,162.19,241.79,162,243.71,156.5Z"/><path class="cls-3" d="M247.82,157.65l0-.54c0-.13,0-.27,0-.41a.42.42,0,0,1,0-.16v0c-.08-.35-.24-.67-.35-1s-.43-.8-.69-1.24c-4.91-8.1-28.81-19.39-28.81-19.39-2.27-22.06-6.18-29.61-9.09-32a6.31,6.31,0,0,0-1.83-.79l-.26-.06a4.74,4.74,0,0,0-1.13-.08l-.25,0-.12,0a1.77,1.77,0,0,0-.22.11c-7.76,1.56-25.44,23.91-25.44,23.91s-29.34-7.17-34.14,1.5,14.76,31,14.76,31-14.78,29.93-9.44,34.65c6.52,5.74,29.72-2.57,31.35-3.16a2.44,2.44,0,0,1,1-.45,2.24,2.24,0,0,1,1.06,0,.72.72,0,0,1,.62.34c.45.65,1,1.25,1.45,1.87l.14.13a.27.27,0,0,1,.09.12c16.91,17.3,21,17.9,27,17S223,176,223,176C244.35,163.34,245.89,163.16,247.82,157.65Z"/><path d="M153.64,194.9a7.62,7.62,0,0,1-3-1.54c-5.3-4.67,7.86-32,9.26-34.85-1.94-2.24-19.34-22.75-14.65-31.22s31.42-2.4,34.3-1.71c1.77-2.22,17.91-22.25,25.45-23.85l.21-.11.2,0,.15,0h.11a4.74,4.74,0,0,1,1.24.08l.26.06a6.25,6.25,0,0,1,1.94.84c3,2.46,6.93,10,9.22,32.09,2.34,1.12,24,11.62,28.79,19.45.31.52.53.91.71,1.25.06.18.1.3.15.42a4.91,4.91,0,0,1,.22.68l0,.28c0,.14,0,.28,0,.43l0,.59v0c-1.69,4.84-3.14,5.7-16.94,13.84l-7.84,4.64c-.3,2.79-3.67,32.1-9.74,33-6.55,1-10.85-.25-27.29-17.07l-.05-.06-.12-.12-.09-.09-.33-.41c-.38-.48-.77-1-1.13-1.48a.4.4,0,0,0-.33-.19h-.1a2,2,0,0,0-.91,0,2.2,2.2,0,0,0-.88.38l-.09.06C180.06,191.08,162.37,197.35,153.64,194.9Zm53.52-92.51-.17,0-.25-.06a4.59,4.59,0,0,0-1-.07h-.07l-.17,0h-.05l-.14.07-.11,0c-7.55,1.52-25.07,23.56-25.25,23.79l-.13.17-.21-.06c-.29-.07-29.14-7-33.76,1.34s14.52,30.4,14.72,30.62l.15.17-.1.2c0,.07-3.73,7.56-6.72,15.53-4.93,13.16-4.25,17.44-2.8,18.71,6.33,5.58,29.41-2.64,31-3.2a2.62,2.62,0,0,1,1.13-.48,2.71,2.71,0,0,1,1.17,0,1.12,1.12,0,0,1,.85.48c.34.5.73,1,1.1,1.44l.36.45.06,0a.75.75,0,0,1,.15.16c17,17.41,20.85,17.75,26.67,16.85,4.76-.74,8.25-23.79,9.2-32.61l0-.16.14-.09c3-1.82,5.69-3.37,8-4.73,13.56-8,15-8.87,16.62-13.43l0-.49c0-.13,0-.26,0-.39a.81.81,0,0,1,0-.15,4.92,4.92,0,0,0-.19-.58,3.25,3.25,0,0,1-.15-.4c-.14-.28-.35-.65-.66-1.16-4.8-7.92-28.43-19.15-28.67-19.27l-.17-.08,0-.19c-2.27-22-6.13-29.44-9-31.81A6.1,6.1,0,0,0,207.16,102.39Z"/><path class="cls-2" d="M93.21,74.55c0-.12,0-.23-.08-.34L93.07,74l0-.1v0c-.11-.2-.26-.37-.38-.56s-.4-.42-.64-.64c-4.4-4.13-21-6.94-21-6.94-5.18-13.14-8.87-17.1-11.07-18.09a4.16,4.16,0,0,0-1.26-.17H58.5a2.9,2.9,0,0,0-.71.15l-.14.06-.07,0a.71.71,0,0,0-.12.11C53,50.08,46,66.82,46,66.82s-19.22.64-20.68,6.78S39.67,90.07,39.67,90.07s-3.93,20.9.16,22.87c5,2.4,17.78-6.68,18.68-7.32a1.62,1.62,0,0,1,1.21-.62.43.43,0,0,1,.43.1c.39.32.81.6,1.21.9l.11.06.08,0c13.34,7.7,15.92,7.38,19.46,5.77s.17-21.81.17-21.81C92.06,78.63,93,78.26,93.21,74.55Z"/><path class="cls-3" d="M95.92,74.55c0-.12,0-.23-.07-.34a1.82,1.82,0,0,0-.07-.25s0-.08,0-.1v0c-.11-.2-.26-.37-.39-.56s-.4-.41-.64-.64c-4.4-4.13-21-6.94-21-6.94-5.18-13.14-8.87-17.1-11.08-18.09a4.12,4.12,0,0,0-1.26-.17h-.16a2.9,2.9,0,0,0-.71.15l-.15.06-.07,0a.71.71,0,0,0-.12.11c-4.48,2.29-11.49,19-11.49,19S29.46,67.46,28,73.6,42.38,90.07,42.38,90.07s-3.92,20.9.16,22.87c5,2.4,17.78-6.68,18.69-7.32a1.35,1.35,0,0,1,.55-.45,1.46,1.46,0,0,1,.65-.17.45.45,0,0,1,.44.1c.39.32.8.6,1.21.9l.11.06a.18.18,0,0,1,.07,0c13.34,7.7,15.92,7.38,19.47,5.77s.16-21.81.16-21.81C94.78,78.63,95.69,78.26,95.92,74.55Z"/><path d="M44.58,113.56a4.8,4.8,0,0,1-2.13-.43c-4.05-1.95-.67-21-.31-22.95C40.57,89.13,26.38,79.55,27.8,73.55s18.86-6.87,20.74-6.94c.7-1.67,7.16-16.72,11.5-19l.12-.1.11-.06a.15.15,0,0,0,.09,0l.07,0a2.85,2.85,0,0,1,.77-.16h.17a3.82,3.82,0,0,1,1.33.18c2.24,1,6,4.94,11.17,18.09,1.63.29,16.74,3,21,7,.28.27.49.47.65.65l.17.23c.08.12.17.24.25.38l.06.16a2.68,2.68,0,0,1,.07.27l.08.37v0c-.21,3.26-.94,4-8,11.39l-4,4.19c.29,1.76,3.26,20.31-.3,21.93-3.84,1.75-6.7,1.72-19.66-5.78l0,0a.3.3,0,0,1-.1-.05l-.07,0-.27-.19c-.32-.23-.64-.46-1-.72a.27.27,0,0,0-.24-.06h-.06a1.38,1.38,0,0,0-.56.15,1.3,1.3,0,0,0-.47.39l0,0C60.12,106.68,50.35,113.56,44.58,113.56ZM61.51,47.64h-.28a2.79,2.79,0,0,0-.65.14l0,0-.1,0,0,0a.23.23,0,0,0-.07.06l-.07,0C55.91,50.21,49,66.73,48.88,66.9l-.05.13h-.14c-.19,0-19.07.71-20.47,6.62S42.34,89.79,42.5,89.89l.12.08,0,.14c0,.06-1,5.28-1.45,10.68-.76,8.91.39,11.42,1.5,11.95,4.84,2.34,17.58-6.67,18.43-7.28a1.76,1.76,0,0,1,.61-.49,1.88,1.88,0,0,1,.72-.19.72.72,0,0,1,.61.15c.29.25.61.48.92.7l.3.21,0,0,.12.07c13.42,7.75,15.83,7.3,19.25,5.75,2.79-1.27,1-16,0-21.57l0-.11.07-.07,4.09-4.28c6.94-7.23,7.69-8,7.89-11.09l-.07-.3L95.58,74a.19.19,0,0,1,0-.09,2.57,2.57,0,0,0-.22-.32l-.16-.23-.6-.59c-4.31-4-20.72-6.86-20.89-6.89l-.12,0,0-.12c-5.17-13.1-8.82-17-11-18A3.7,3.7,0,0,0,61.51,47.64Z"/><path class="cls-2" d="M98,362.34c0-.27,0-.53,0-.8s0-.4,0-.6a1.77,1.77,0,0,1,0-.24s0,0,0-.06a15.4,15.4,0,0,0-.48-1.5c-.28-.57-.62-1.17-1-1.83-7-12-41.87-29.08-41.87-29.08-2.87-32.42-8.43-43.58-12.66-47.2a9.07,9.07,0,0,0-2.67-1.21l-.37-.09a7.12,7.12,0,0,0-1.66-.14l-.37.05-.17,0a2.29,2.29,0,0,0-.33.16C25.06,282-1.37,314.37-1.37,314.37s-42.91-11.14-50.13,1.48,21,45.81,21,45.81-22.33,43.62-14.59,50.65c9.45,8.57,43.67-3.13,46.08-4a3.47,3.47,0,0,1,1.52-.63,3.43,3.43,0,0,1,1.56.05,1.09,1.09,0,0,1,.9.51c.64,1,1.37,1.86,2.08,2.78l.2.19a.55.55,0,0,1,.14.17c24.44,25.75,30.37,26.73,39.26,25.48S61.26,388.8,61.26,388.8C92.8,370.62,95.07,370.39,98,362.34Z"/><path class="cls-3" d="M104,364.11c0-.26,0-.53,0-.79s0-.4,0-.6a1.93,1.93,0,0,1,0-.25.13.13,0,0,0,0-.06,15.4,15.4,0,0,0-.48-1.5c-.28-.56-.61-1.17-1-1.82-7-12-41.87-29.08-41.87-29.08-2.86-32.42-8.43-43.59-12.66-47.21a8.85,8.85,0,0,0-2.66-1.2l-.38-.09a6.62,6.62,0,0,0-1.66-.14l-.36,0-.18,0a1.85,1.85,0,0,0-.33.15c-11.41,2.13-37.85,34.55-37.85,34.55S-38.28,305-45.5,317.63s21,45.81,21,45.81-22.33,43.61-14.58,50.65c9.44,8.57,43.66-3.13,46.08-4a3.52,3.52,0,0,1,1.51-.64,3.43,3.43,0,0,1,1.56.06,1.07,1.07,0,0,1,.9.5c.64,1,1.38,1.87,2.08,2.79l.2.19a.46.46,0,0,1,.14.17c24.45,25.75,30.37,26.72,39.26,25.48s14.61-48.1,14.61-48.1C98.8,372.39,101.07,372.16,104,364.11Z"/><path d="M-35,416.78a11.24,11.24,0,0,1-4.42-2.33c-7.68-7,12.22-46.77,14.33-50.94-2.8-3.34-27.9-33.8-20.84-46.13s46.18-2.86,50.38-1.79c2.64-3.22,26.76-32.28,37.85-34.47a3.24,3.24,0,0,1,.33-.14l.28-.06.23,0,.16,0a7.86,7.86,0,0,1,1.81.15l.39.1a9.36,9.36,0,0,1,2.82,1.27c4.3,3.67,10,14.83,12.86,47.3,3.41,1.69,35.05,17.56,41.83,29.15.46.77.77,1.35,1,1.85.08.26.15.44.21.62a6.26,6.26,0,0,1,.31,1l0,.4c0,.21,0,.42,0,.63l-.06.87,0,.06c-2.58,7.07-4.71,8.29-25.15,20-3.34,1.91-7.18,4.1-11.6,6.65-.51,4.08-6.06,47-15,48.28-9.64,1.35-15.92-.6-39.69-25.63l-.07-.09-.18-.19-.12-.12-.48-.62c-.55-.7-1.11-1.43-1.62-2.19a.6.6,0,0,0-.49-.29l-.14,0h0a3.13,3.13,0,0,0-1.34,0,3,3,0,0,0-1.29.54l-.14.08C3.85,411.74-22.24,420.55-35,416.78ZM45.52,282.15l-.26-.07L44.9,282a6.64,6.64,0,0,0-1.53-.13l-.09,0-.27,0h-.07l-.2.1-.17.06C31.46,284.15,5.28,316.14,5,316.46l-.2.24-.31-.08c-.43-.11-42.62-10.89-49.58,1.25s20.67,44.92,21,45.25l.22.25-.15.29c-.06.11-5.63,11-10.18,22.65-7.53,19.21-6.61,25.51-4.52,27.41,9.18,8.32,43.23-3.26,45.51-4.05a4.25,4.25,0,0,1,3.39-.63,1.6,1.6,0,0,1,1.23.73c.49.73,1,1.44,1.58,2.13l.53.66.08.08a1.26,1.26,0,0,1,.22.24c24.6,25.91,30.22,26.49,38.79,25.29,7-1,12.61-34.73,14.19-47.66l0-.24.21-.13c4.51-2.6,8.42-4.83,11.82-6.77,20.08-11.46,22.24-12.69,24.69-19.36l0-.72c0-.19,0-.38,0-.57a1.83,1.83,0,0,1,0-.21,5.4,5.4,0,0,0-.26-.86c-.07-.2-.15-.39-.21-.6-.2-.41-.5-1-.94-1.71-6.87-11.73-41.32-28.71-41.67-28.88l-.25-.13,0-.28c-2.86-32.35-8.37-43.34-12.49-46.87A8.54,8.54,0,0,0,45.52,282.15Z"/><path class="cls-2" d="M343.29,192.17a1.84,1.84,0,0,0-.05-.25c0-.06,0-.12-.05-.18s0-.06,0-.07v0c-.08-.15-.19-.27-.28-.41s-.29-.3-.46-.46c-3.19-3-15.21-5-15.21-5-3.75-9.51-6.42-12.38-8-13.09a2.79,2.79,0,0,0-.91-.13h-.12a2.3,2.3,0,0,0-.51.1l-.11.05-.05,0-.08.08c-3.25,1.66-8.33,13.78-8.33,13.78s-13.91.47-15,4.91,10.41,11.93,10.41,11.93-2.84,15.13.12,16.56c3.61,1.74,12.88-4.84,13.53-5.3a1.08,1.08,0,0,1,.4-.33,1.09,1.09,0,0,1,.47-.12.34.34,0,0,1,.32.07c.28.23.58.44.87.65l.08,0,.06,0c9.66,5.58,11.53,5.35,14.09,4.18s.12-15.79.12-15.79C342.46,195.12,343.13,194.85,343.29,192.17Z"/><path class="cls-3" d="M345.26,192.17c0-.09,0-.17-.05-.25s0-.12,0-.18,0-.06,0-.07v0a3.62,3.62,0,0,0-.27-.41c-.14-.15-.29-.3-.47-.46-3.18-3-15.2-5-15.2-5-3.75-9.51-6.42-12.38-8-13.09a2.82,2.82,0,0,0-.91-.13h-.12a2.28,2.28,0,0,0-.52.1.31.31,0,0,1-.1.05l-.05,0-.09.08c-3.25,1.66-8.32,13.78-8.32,13.78s-13.92.47-15,4.91,10.41,11.93,10.41,11.93-2.84,15.13.12,16.56c3.61,1.74,12.87-4.84,13.52-5.3a1.15,1.15,0,0,1,.88-.45.32.32,0,0,1,.31.07c.28.23.59.44.88.65l.08,0,.05,0c9.66,5.58,11.53,5.35,14.1,4.18s.12-15.79.12-15.79C344.43,195.12,345.09,194.85,345.26,192.17Z"/><path d="M308.08,220.42a3.56,3.56,0,0,1-1.54-.31c-2.94-1.42-.49-15.18-.22-16.63-1.14-.75-11.42-7.69-10.39-12s13.65-5,15-5c.5-1.21,5.18-12.11,8.33-13.76l.08-.07.08,0,.07,0,.05,0a2.53,2.53,0,0,1,.56-.12h.12a2.89,2.89,0,0,1,1,.13c1.63.72,4.33,3.58,8.09,13.1,1.18.21,12.12,2.17,15.2,5.06.21.19.35.33.47.46l.12.17a1.92,1.92,0,0,1,.18.28l.05.11c0,.07,0,.13.05.2l.06.26v0c-.15,2.36-.69,2.91-5.8,8.25l-2.91,3c.21,1.28,2.37,14.71-.22,15.88-2.78,1.27-4.84,1.24-14.23-4.18l0,0-.07,0-.05,0-.2-.14-.69-.52a.18.18,0,0,0-.17,0h0a.93.93,0,0,0-.41.11,1,1,0,0,0-.34.28l0,0C319.33,215.43,312.26,220.42,308.08,220.42Zm12.26-47.73h-.2a2.17,2.17,0,0,0-.47.1h0l-.08,0h0l-.05,0-.05,0c-3.16,1.61-8.2,13.58-8.25,13.7l0,.09h-.1c-.14,0-13.81.52-14.83,4.8s10.23,11.69,10.34,11.76l.09.06,0,.1s-.71,3.82-1.05,7.73c-.55,6.46.28,8.27,1.08,8.66,3.51,1.69,12.74-4.84,13.35-5.28a1.29,1.29,0,0,1,.44-.35,1.46,1.46,0,0,1,.53-.14.49.49,0,0,1,.43.11c.22.18.45.34.67.5l.22.15,0,0,.09,0c9.71,5.62,11.46,5.29,13.94,4.17,2-.92.7-11.59,0-15.62v-.08l.05-.06,3-3.09c5-5.24,5.57-5.8,5.71-8l-.05-.22a1.16,1.16,0,0,0,0-.18.14.14,0,0,1,0-.06,1.34,1.34,0,0,0-.16-.23l-.12-.16a5.4,5.4,0,0,0-.43-.44c-3.12-2.92-15-5-15.13-5h-.08l0-.08c-3.74-9.49-6.38-12.32-7.93-13A2.85,2.85,0,0,0,320.34,172.69Z"/><path class="cls-2" d="M426.7-21.11l-.42-.56a4.23,4.23,0,0,0-.33-.41l-.15-.16,0,0c-.37-.29-.79-.47-1.18-.72s-1.08-.42-1.71-.64c-11.55-3.93-44.49,4.75-44.49,4.75C357.85-38.76,347.75-43,342.86-42.95a8.14,8.14,0,0,0-2.46.74l-.3.15a6.33,6.33,0,0,0-1.19.86c-.07.08-.13.16-.21.24l-.1.12a1.47,1.47,0,0,0-.13.29c-6.36,8-5.28,44.67-5.28,44.67S298.31,21.37,300.76,33.9,341,52.24,341,52.24s10.22,41.78,19.4,42c11.2.27,27.19-27.15,28.31-29.1a3,3,0,0,1,.64-1.29,3,3,0,0,1,1.07-.86,1,1,0,0,1,.88-.18c1,.27,2,.45,3,.65a2.09,2.09,0,0,0,.25,0,.43.43,0,0,1,.19,0c31,3.05,35.5.3,40.69-5.64s-17.92-40.31-17.92-40.31C428-12.63,429.37-14.08,426.7-21.11Z"/><path class="cls-3" d="M431.7-23.38l-.41-.56-.33-.41a1.06,1.06,0,0,1-.15-.15l-.05,0c-.36-.28-.79-.47-1.18-.72s-1.08-.42-1.71-.64c-11.55-3.92-44.49,4.75-44.49,4.75C362.86-41,352.75-45.24,347.86-45.21a7.85,7.85,0,0,0-2.46.73l-.3.15a6,6,0,0,0-1.18.86c-.08.08-.14.17-.22.24l-.1.12a3.07,3.07,0,0,0-.13.29c-6.35,8-5.28,44.67-5.28,44.67S303.31,19.1,305.76,31.63,346,50,346,50s10.22,41.78,19.4,42c11.2.27,27.19-27.15,28.31-29.1a3.27,3.27,0,0,1,1.71-2.15,1,1,0,0,1,.89-.18c1,.27,2,.45,3,.65l.24,0a.58.58,0,0,1,.19,0c31,3.05,35.5.3,40.69-5.64s-17.92-40.31-17.92-40.31C433-14.89,434.38-16.35,431.7-23.38Z"/><path d="M369.68,91.42a9.93,9.93,0,0,1-4.27,1c-9.1-.22-18.75-38.07-19.74-42-3.78-.6-37.94-6.41-40.33-18.65s29-28.42,32.41-30.12c-.1-3.66-.77-36.79,5.33-44.62l.13-.28.16-.2.14-.15.09-.1a6.71,6.71,0,0,1,1.29-1l.31-.16a8.6,8.6,0,0,1,2.61-.78c5,0,15.13,4.13,35.7,24,3.23-.84,33.35-8.47,44.5-4.68.75.25,1.29.46,1.74.65l.5.29a5,5,0,0,1,.78.49l.25.24c.13.15.24.29.35.44l.46.61,0,.06c2.35,6.17,1.63,8.21-5.23,27.68C425.75,7.34,424.46,11,423,15.23c2,3,23,34.7,17.77,40.66-5.62,6.43-10.91,8.75-41.06,5.78l-.1,0-.23,0h-.15l-.67-.14c-.77-.15-1.56-.3-2.34-.52a.53.53,0,0,0-.49.09l-.1.07h0a2.54,2.54,0,0,0-.9.74,2.6,2.6,0,0,0-.55,1.1l-.05.13C392.58,65.75,380.32,86.59,369.68,91.42ZM345.81-44.19a1,1,0,0,0-.21.1l-.3.15a5.66,5.66,0,0,0-1.08.79l-.06.06a1.29,1.29,0,0,1-.16.17l0,.06a.74.74,0,0,0-.07.18l-.08.14c-6.18,7.75-5.19,44-5.18,44.38v.28l-.26.12c-.34.18-34.55,17.25-32.19,29.31s39.52,17.94,39.9,18l.28.05.07.28c0,.11,2.6,10.55,6.25,20.88,6,17.07,10.26,20.73,12.74,20.79,10.88.25,26.83-27,27.89-28.83a3.45,3.45,0,0,1,.71-1.4,3.65,3.65,0,0,1,1.17-1,1.43,1.43,0,0,1,1.24-.23c.75.21,1.52.36,2.28.51l.73.14h.09a1,1,0,0,1,.29,0c31.2,3.07,35.27.23,40.27-5.49,4.09-4.67-11.57-30.31-18-39.79l-.12-.18.07-.2c1.5-4.32,2.81-8,3.95-11.29,6.75-19.14,7.48-21.19,5.27-27l-.38-.5-.32-.4a.68.68,0,0,1-.12-.12,6.15,6.15,0,0,0-.67-.42c-.16-.09-.33-.18-.48-.28-.37-.15-.89-.35-1.62-.59-11.29-3.84-43.91,4.67-44.24,4.75l-.24.06-.17-.17c-20.48-19.83-30.46-24-35.21-23.94A7.62,7.62,0,0,0,345.81-44.19Z"/><path class="cls-2" d="M298.63,705.26c0-.16-.07-.31-.1-.47l-.09-.35a.58.58,0,0,1-.05-.14l0,0a8.23,8.23,0,0,0-.53-.78c-.26-.28-.55-.58-.89-.89-6.1-5.72-29.12-9.63-29.12-9.63-7.18-18.22-12.29-23.71-15.35-25.07a5.22,5.22,0,0,0-1.75-.24h-.23a4.16,4.16,0,0,0-1,.2l-.2.09-.1,0-.17.15c-6.22,3.18-15.93,26.39-15.93,26.39s-26.66.9-28.68,9.41,19.94,22.84,19.94,22.84-5.44,29,.22,31.71c6.92,3.34,24.66-9.25,25.91-10.15a2.13,2.13,0,0,1,.77-.62,2.06,2.06,0,0,1,.91-.24.64.64,0,0,1,.6.14c.54.45,1.11.84,1.68,1.25a.71.71,0,0,0,.15.08.41.41,0,0,1,.11.07c18.49,10.69,22.07,10.24,27,8s.23-30.24.23-30.24C297,710.92,298.31,710.4,298.63,705.26Z"/><path class="cls-3" d="M302.4,705.26c0-.16-.07-.31-.11-.47a2.58,2.58,0,0,0-.09-.35s0-.11,0-.14l0,0a8.33,8.33,0,0,0-.54-.78c-.25-.28-.55-.57-.88-.89-6.1-5.72-29.12-9.63-29.12-9.63-7.18-18.21-12.3-23.71-15.36-25.07a5.16,5.16,0,0,0-1.74-.24h-.23a4.14,4.14,0,0,0-1,.2l-.2.09-.1,0a1.28,1.28,0,0,0-.16.15c-6.22,3.18-15.94,26.39-15.94,26.39s-26.65.9-28.67,9.41,19.94,22.84,19.94,22.84-5.45,29,.22,31.71c6.91,3.34,24.66-9.25,25.91-10.15a2.27,2.27,0,0,1,1.67-.86.69.69,0,0,1,.61.14c.53.45,1.11.84,1.67,1.25l.15.08a.41.41,0,0,1,.11.07c18.5,10.69,22.08,10.24,27,8s.22-30.24.22-30.24C300.81,710.92,302.08,710.4,302.4,705.26Z"/><path d="M231.19,759.36a6.73,6.73,0,0,1-2.95-.59c-5.62-2.71-.93-29.07-.42-31.83-2.19-1.45-21.87-14.74-19.9-23.06s26.15-9.53,28.76-9.63c1-2.31,9.93-23.18,16-26.34a.79.79,0,0,1,.16-.14l.16-.08.12-.06.09,0a4.35,4.35,0,0,1,1.07-.23h.24a5.66,5.66,0,0,1,1.85.25c3.1,1.39,8.28,6.86,15.49,25.1,2.25.39,23.21,4.15,29.1,9.68.4.37.68.64.91.89l.22.32a3.74,3.74,0,0,1,.35.53l.09.23a2.22,2.22,0,0,1,.09.37l.12.51v0c-.29,4.52-1.31,5.58-11.11,15.8-1.6,1.67-3.45,3.59-5.56,5.81.4,2.44,4.52,28.17-.42,30.42-5.33,2.42-9.29,2.37-27.27-8l0,0-.14-.07-.09-.06-.38-.27c-.44-.31-.89-.64-1.31-1a.38.38,0,0,0-.33-.08H256a1.88,1.88,0,0,0-1.43.74l-.07.07C252.74,749.82,239.19,759.36,231.19,759.36ZM254.67,668h-.16l-.23,0a3.88,3.88,0,0,0-.9.18l0,0-.15.06,0,0-.1.09-.08.07c-6.06,3.09-15.71,26-15.8,26.24l-.08.17h-.19c-.26,0-26.45,1-28.39,9.18s19.59,22.38,19.81,22.52l.17.11,0,.2c0,.07-1.37,7.32-2,14.8-1.06,12.37.54,15.85,2.07,16.59,6.72,3.23,24.38-9.26,25.57-10.1a2.36,2.36,0,0,1,.84-.68,2.43,2.43,0,0,1,1-.27,1,1,0,0,1,.84.21c.41.34.85.66,1.28,1l.41.29.06,0,.17.11c18.61,10.75,21.95,10.13,26.69,8,3.87-1.76,1.35-22.19.06-29.92l0-.14.1-.11c2.16-2.27,4-4.22,5.67-5.92,9.63-10,10.66-11.12,10.94-15.39l-.1-.42c0-.11-.05-.22-.08-.33l-.05-.12a2.93,2.93,0,0,0-.3-.45c-.07-.1-.15-.2-.22-.31s-.45-.47-.84-.83c-6-5.59-28.73-9.51-29-9.55l-.17,0-.06-.16c-7.17-18.18-12.22-23.58-15.2-24.91A5.15,5.15,0,0,0,254.67,668Z"/><path class="cls-2" d="M1201.69,1035.41l-.18-.78c0-.19-.09-.39-.14-.58a1.23,1.23,0,0,1-.08-.23l0-.06c-.25-.47-.6-.86-.89-1.3s-.92-1-1.47-1.47c-10.14-9.5-48.38-16-48.38-16-11.94-30.26-20.43-39.39-25.52-41.66a8.9,8.9,0,0,0-2.89-.4l-.39,0a7.06,7.06,0,0,0-1.63.34l-.34.14-.16.08a2.27,2.27,0,0,0-.27.24c-10.34,5.28-26.48,43.85-26.48,43.85s-44.29,1.49-47.64,15.63,33.12,38,33.12,38-9,48.14.37,52.68c11.49,5.54,41-15.38,43-16.87a3.49,3.49,0,0,1,1.27-1,3.56,3.56,0,0,1,1.51-.39,1.11,1.11,0,0,1,1,.23c.89.75,1.84,1.4,2.78,2.08l.25.13a.57.57,0,0,1,.18.12c30.73,17.76,36.68,17,44.85,13.3s.37-50.24.37-50.24C1199.05,1044.82,1201.15,1044,1201.69,1035.41Z"/><path class="cls-3" d="M1207.94,1035.41c0-.26-.11-.52-.17-.78s-.09-.39-.15-.58c0,0-.07-.18-.08-.23l0-.06c-.24-.47-.6-.86-.88-1.3-.43-.46-.92-1-1.48-1.46-10.13-9.51-48.38-16-48.38-16-11.93-30.26-20.43-39.39-25.51-41.66a9.2,9.2,0,0,0-2.9-.4l-.38,0a7,7,0,0,0-1.64.34l-.33.14-.16.08a2,2,0,0,0-.28.24c-10.33,5.28-26.48,43.85-26.48,43.85s-44.28,1.49-47.63,15.63,33.12,38,33.12,38-9,48.14.37,52.68c11.49,5.54,41-15.38,43-16.87a3.52,3.52,0,0,1,1.28-1,3.56,3.56,0,0,1,1.51-.39,1.09,1.09,0,0,1,1,.23c.89.75,1.85,1.4,2.79,2.08.08,0,.16.1.24.13a.76.76,0,0,1,.19.12c30.73,17.76,36.68,17,44.85,13.3s.37-50.24.37-50.24C1205.3,1044.82,1207.41,1044,1207.94,1035.41Z"/><path d="M1089.63,1125.3a11.23,11.23,0,0,1-4.9-1c-9.34-4.51-1.55-48.3-.7-52.9-3.63-2.4-36.33-24.49-33.06-38.31s43.46-15.83,47.79-16c1.62-3.83,16.5-38.51,26.51-43.76a2.56,2.56,0,0,1,.27-.23l.26-.14.21-.09.14-.06a7.21,7.21,0,0,1,1.79-.37l.4,0a9.08,9.08,0,0,1,3.06.42c5.16,2.3,13.75,11.39,25.73,41.69,3.75.65,38.58,6.9,48.36,16.08.66.62,1.12,1.08,1.5,1.5l.38.53a6.92,6.92,0,0,1,.58.87l.15.38c.06.2.11.41.15.61l.19.85v.07c-.47,7.51-2.17,9.28-18.45,26.25-2.67,2.78-5.73,6-9.24,9.66.67,4.05,7.52,46.8-.7,50.53-8.85,4-15.43,3.94-45.3-13.32l-.09-.07-.23-.12-.15-.09-.64-.45c-.72-.52-1.47-1.06-2.18-1.64a.58.58,0,0,0-.54-.14l-.14,0h0a3.28,3.28,0,0,0-2.38,1.23l-.11.11C1125.44,1109.45,1102.93,1125.3,1089.63,1125.3Zm39-151.88h-.26l-.37,0a6.33,6.33,0,0,0-1.51.31l-.08,0-.24.1-.07,0-.17.15-.14.11c-10.06,5.14-26.09,43.22-26.25,43.6l-.12.29h-.32c-.44,0-43.95,1.64-47.17,15.25s32.55,37.2,32.91,37.43l.28.18-.06.33c0,.12-2.28,12.16-3.34,24.59-1.77,20.55.89,26.33,3.43,27.55,11.16,5.38,40.52-15.37,42.48-16.78a4.11,4.11,0,0,1,1.4-1.12,4,4,0,0,1,1.67-.44,1.62,1.62,0,0,1,1.39.34c.68.57,1.41,1.09,2.12,1.6l.69.49.1,0a1.17,1.17,0,0,1,.28.17c30.92,17.86,36.47,16.82,44.35,13.25,6.43-2.93,2.25-36.88.09-49.71l0-.24.17-.19c3.59-3.76,6.7-7,9.41-9.83,16-16.69,17.72-18.48,18.17-25.56l-.15-.7c0-.19-.09-.38-.14-.56l-.08-.2a6.78,6.78,0,0,0-.49-.74c-.13-.17-.25-.34-.37-.52-.31-.33-.76-.78-1.4-1.37-9.9-9.3-47.74-15.81-48.12-15.88l-.27,0-.11-.26C1144.4,985,1136,976,1131.06,973.78A8.7,8.7,0,0,0,1128.64,973.42Z"/><path class="cls-2" d="M1300.56,931.22l-.09-.4c0-.1,0-.2-.07-.3a.42.42,0,0,1,0-.12l0,0a7.66,7.66,0,0,0-.45-.66c-.22-.24-.47-.49-.76-.75-5.19-4.87-24.78-8.2-24.78-8.2-6.11-15.5-10.46-20.18-13.06-21.34a4.47,4.47,0,0,0-1.49-.2h-.19a3.39,3.39,0,0,0-.84.17l-.17.07-.09,0a1,1,0,0,0-.14.13c-5.29,2.7-13.56,22.45-13.56,22.45s-22.68.77-24.4,8,17,19.44,17,19.44-4.64,24.66.19,27c5.88,2.84,21-7.87,22-8.63a1.88,1.88,0,0,1,.65-.54,1.92,1.92,0,0,1,.78-.2.56.56,0,0,1,.51.12c.46.38,1,.72,1.43,1.07l.13.06.09.06c15.74,9.1,18.79,8.72,23,6.81s.19-25.73.19-25.73C1299.21,936,1300.29,935.59,1300.56,931.22Z"/><path class="cls-3" d="M1303.77,931.22l-.09-.4c0-.1,0-.2-.08-.3s0-.09,0-.12v0a7.75,7.75,0,0,0-.46-.66q-.33-.36-.75-.75c-5.19-4.87-24.78-8.2-24.78-8.2-6.11-15.5-10.47-20.18-13.07-21.34a4.38,4.38,0,0,0-1.48-.2h-.2a3.39,3.39,0,0,0-.84.17l-.17.07-.08,0a.57.57,0,0,0-.14.13c-5.3,2.7-13.57,22.45-13.57,22.45s-22.68.77-24.39,8,17,19.44,17,19.44-4.63,24.66.19,27c5.88,2.84,21-7.87,22-8.63a1.72,1.72,0,0,1,.65-.54,1.87,1.87,0,0,1,.77-.2.58.58,0,0,1,.52.12c.45.38.94.72,1.42,1.07l.13.06.09.06c15.74,9.1,18.79,8.72,23,6.81s.19-25.73.19-25.73C1302.41,936,1303.49,935.59,1303.77,931.22Z"/><path d="M1243.17,977.26a5.72,5.72,0,0,1-2.51-.51c-4.78-2.3-.79-24.73-.36-27.09-1.86-1.23-18.61-12.54-16.93-19.62s22.26-8.11,24.47-8.19c.83-2,8.45-19.73,13.58-22.42l.14-.12.13-.07.11,0,.08,0a3.87,3.87,0,0,1,.91-.19h.2a5,5,0,0,1,1.57.22c2.65,1.18,7,5.83,13.18,21.35,1.92.34,19.76,3.54,24.77,8.24.34.32.57.55.77.76l.19.28a3.41,3.41,0,0,1,.3.44l.08.2c0,.1.05.21.08.31l.09.44v0c-.24,3.85-1.11,4.76-9.45,13.45-1.37,1.42-2.93,3.05-4.73,4.94.34,2.08,3.85,24-.36,25.88-4.53,2.07-7.9,2-23.2-6.82l0,0a.45.45,0,0,0-.12-.06l-.07-.05-.33-.23c-.37-.27-.75-.54-1.11-.84a.3.3,0,0,0-.28-.07h-.08a1.58,1.58,0,0,0-.66.17,1.59,1.59,0,0,0-.56.46l0,.05C1261.51,969.14,1250,977.25,1243.17,977.26Zm20-77.79h-.33a3.4,3.4,0,0,0-.77.16l0,0-.12.05,0,0-.08.08-.08.05c-5.15,2.63-13.36,22.14-13.44,22.33l-.06.15H1248c-.22,0-22.5.84-24.16,7.81s16.67,19.05,16.86,19.17l.14.09,0,.17c0,.06-1.16,6.23-1.71,12.6-.9,10.52.46,13.48,1.76,14.11,5.72,2.75,20.75-7.88,21.76-8.6a2,2,0,0,1,.72-.57,2.1,2.1,0,0,1,.85-.23.81.81,0,0,1,.71.18c.35.28.72.55,1.09.82l.35.24.05,0a.42.42,0,0,1,.14.09c15.84,9.14,18.69,8.61,22.72,6.78,3.3-1.5,1.15-18.88,0-25.46l0-.12.08-.09,4.82-5c8.2-8.55,9.08-9.46,9.31-13.09l-.08-.36c0-.1,0-.19-.07-.29l0-.1a3.57,3.57,0,0,0-.25-.38l-.19-.26c-.16-.18-.39-.4-.72-.71-5.07-4.76-24.45-8.1-24.64-8.13l-.14,0-.06-.14c-6.1-15.47-10.4-20.06-12.93-21.2A4.38,4.38,0,0,0,1263.15,899.47Z"/><path class="cls-2" d="M244.09,469.94c-.11-.25-.21-.49-.32-.73s-.17-.37-.26-.55a2,2,0,0,1-.12-.21l0-.05c-.33-.41-.75-.73-1.12-1.11s-1.08-.76-1.72-1.16c-11.76-7.41-50.56-6.54-50.56-6.54-17.47-27.46-27.54-34.81-33-36.08a9,9,0,0,0-2.92.16l-.37.09a6.51,6.51,0,0,0-1.54.64l-.3.21-.15.1a3.17,3.17,0,0,0-.22.29c-9.15,7.15-17.69,48.1-17.69,48.1S90.57,483,90,497.49s39.74,31,39.74,31,.25,49,10.36,51.68c12.33,3.26,37.32-22.88,39.08-24.74a3.73,3.73,0,0,1,2.46-1.93,1.08,1.08,0,0,1,1,0c1,.56,2.08,1,3.13,1.51l.27.08a.44.44,0,0,1,.2.08c33.56,11.61,39.26,9.75,46.58,4.55s-9.17-49.42-9.17-49.42C243.28,479.68,245.18,478.43,244.09,469.94Z"/><path class="cls-3" d="M250.23,468.75l-.31-.73-.26-.54a1.14,1.14,0,0,1-.12-.22.1.1,0,0,1,0-.05c-.33-.41-.76-.73-1.12-1.1s-1.09-.76-1.72-1.17c-11.76-7.41-50.56-6.53-50.56-6.53-17.47-27.47-27.55-34.82-33-36.09a8.94,8.94,0,0,0-2.92.16l-.38.09a7.41,7.41,0,0,0-1.54.65c-.1.06-.19.14-.3.2l-.14.11a1.81,1.81,0,0,0-.23.29c-9.15,7.14-17.69,48.09-17.69,48.09s-43.22,9.87-43.82,24.39,39.73,31,39.73,31,.25,49,10.36,51.68c12.34,3.26,37.33-22.88,39.09-24.73a3.38,3.38,0,0,1,1.05-1.27,3.61,3.61,0,0,1,1.41-.67,1.11,1.11,0,0,1,1,0c1,.56,2.08,1,3.13,1.51l.27.08a.72.72,0,0,1,.2.09c33.55,11.61,39.26,9.74,46.58,4.55s-9.17-49.42-9.17-49.42C249.42,478.5,251.33,477.25,250.23,468.75Z"/><path d="M151.07,579.49a11.16,11.16,0,0,1-5,0c-10-2.65-10.69-47.15-10.73-51.82-4-1.68-40.33-17.17-39.74-31.36s39.68-23.79,43.9-24.78c.86-4.08,8.9-41,17.74-48l.22-.28.23-.18.19-.13.13-.09a7.28,7.28,0,0,1,1.68-.7l.39-.1a9.61,9.61,0,0,1,3.09-.17c5.51,1.28,15.67,8.58,33.19,36.07,3.8-.07,39.2-.54,50.55,6.62.76.48,1.3.85,1.76,1.19l.47.45a5.84,5.84,0,0,1,.74.75l.21.34c.1.19.18.38.27.57l.35.8v.07c1,7.46-.37,9.53-13.14,29.29-2.09,3.23-4.49,6.94-7.24,11.23,1.43,3.86,16.26,44.55,8.9,49.77-7.93,5.63-14.4,6.8-47-4.48l-.11,0-.24-.08-.17-.06L191,554c-.81-.37-1.65-.75-2.45-1.2a.62.62,0,0,0-.56,0l-.14,0h0a3,3,0,0,0-1.2.58,3,3,0,0,0-.91,1.08l-.08.13C183.24,557.13,164.14,577,151.07,579.49Zm9.51-156.58-.26.06-.36.09a6,6,0,0,0-1.42.59l-.08.05-.22.15-.05,0a1.27,1.27,0,0,0-.14.18l-.12.14c-8.9,7-17.43,47.39-17.51,47.8l-.07.31-.31.07c-.43.1-42.85,9.95-43.44,23.93s39,30.36,39.43,30.52l.31.13v.33c0,.12.08,12.38,1.39,24.79,2.16,20.52,5.87,25.69,8.6,26.41,12,3.16,36.88-22.79,38.54-24.54a4.08,4.08,0,0,1,1.17-1.37,4,4,0,0,1,1.55-.75,1.58,1.58,0,0,1,1.43.08c.77.42,1.59.8,2.39,1.16l.77.35.1,0a1.15,1.15,0,0,1,.31.11c33.76,11.68,39,9.61,46.08,4.6,5.76-4.09-4.79-36.64-9.35-48.84l-.08-.23.13-.21c2.81-4.38,5.25-8.17,7.38-11.45,12.55-19.42,13.9-21.51,13-28.56l-.29-.66-.24-.52a1.2,1.2,0,0,1-.11-.17,5.46,5.46,0,0,0-.63-.64c-.16-.14-.31-.29-.46-.44-.37-.27-.89-.62-1.63-1.09-11.5-7.25-49.9-6.47-50.28-6.46h-.28l-.15-.24C178.25,431.27,168.29,424,163,422.81A8.59,8.59,0,0,0,160.58,422.91Z"/><path class="cls-2" d="M417.06,855.94c-.1-.25-.2-.49-.31-.73s-.17-.37-.26-.55a2,2,0,0,1-.12-.21l0-.05c-.33-.41-.75-.73-1.12-1.11s-1.08-.76-1.72-1.16c-11.76-7.41-50.56-6.54-50.56-6.54-17.47-27.46-27.55-34.81-33-36.08a8.94,8.94,0,0,0-2.92.16l-.37.09a6.76,6.76,0,0,0-1.55.64l-.3.21-.14.1a3.17,3.17,0,0,0-.22.29c-9.15,7.15-17.7,48.1-17.7,48.1s-43.21,9.86-43.82,24.39,39.74,31,39.74,31,.24,49,10.36,51.68c12.33,3.26,37.32-22.88,39.08-24.74a3.53,3.53,0,0,1,1.05-1.26,3.47,3.47,0,0,1,1.41-.67,1.08,1.08,0,0,1,1,0c1,.56,2.08,1,3.13,1.51l.27.08a.5.5,0,0,1,.2.08c33.55,11.61,39.26,9.75,46.58,4.55s-9.17-49.42-9.17-49.42C416.26,865.68,418.16,864.43,417.06,855.94Z"/><path class="cls-3" d="M423.21,854.75c-.11-.24-.21-.49-.32-.73s-.16-.36-.25-.54a2.14,2.14,0,0,1-.13-.22l0,0a14.4,14.4,0,0,0-1.11-1.1c-.51-.38-1.09-.76-1.73-1.17-11.76-7.41-50.56-6.53-50.56-6.53-17.46-27.47-27.54-34.82-33-36.09a9,9,0,0,0-2.93.16l-.37.09a7.19,7.19,0,0,0-1.54.65l-.3.2-.15.11a2.07,2.07,0,0,0-.22.29c-9.15,7.14-17.69,48.09-17.69,48.09s-43.22,9.87-43.83,24.39,39.74,31,39.74,31,.25,49,10.36,51.68c12.34,3.26,37.33-22.88,39.08-24.73a3.48,3.48,0,0,1,1.05-1.27,3.72,3.72,0,0,1,1.42-.67,1.11,1.11,0,0,1,1,0c1,.56,2.08,1,3.13,1.51l.26.08a.67.67,0,0,1,.21.09c33.55,11.61,39.25,9.74,46.57,4.55s-9.16-49.42-9.16-49.42C422.4,864.5,424.31,863.25,423.21,854.75Z"/><path d="M324.05,965.49a11.16,11.16,0,0,1-5,0c-10-2.65-10.69-47.15-10.73-51.82-4-1.68-40.33-17.17-39.74-31.36s39.68-23.79,43.9-24.78c.86-4.08,8.9-41,17.74-48l.22-.28.23-.18.19-.13.13-.09a7.1,7.1,0,0,1,1.68-.7l.38-.1a9.68,9.68,0,0,1,3.1-.17c5.5,1.28,15.67,8.58,33.18,36.07,3.81-.07,39.2-.54,50.56,6.62.76.48,1.3.85,1.75,1.19l.48.45a5.2,5.2,0,0,1,.73.75l.22.34.27.57.34.8v.07c1,7.46-.37,9.53-13.14,29.29-2.09,3.23-4.49,6.94-7.24,11.23,1.42,3.86,16.26,44.55,8.9,49.77-7.93,5.63-14.41,6.8-47-4.48l-.1,0-.25-.08-.16-.06L364,940c-.81-.37-1.65-.75-2.45-1.2a.62.62,0,0,0-.56,0l-.14,0h0a3.12,3.12,0,0,0-1.21.58,3,3,0,0,0-.9,1.08l-.09.13C356.22,943.13,337.11,963,324.05,965.49Zm9.5-156.58-.25.06-.37.09a6.08,6.08,0,0,0-1.41.59l-.08.05-.22.15-.06,0a1.94,1.94,0,0,0-.13.18l-.12.14c-8.91,6.95-17.43,47.39-17.52,47.8l-.06.31-.31.07c-.43.1-42.86,10-43.44,23.93s39,30.36,39.43,30.52l.3.13v.33c0,.12.07,12.38,1.38,24.79,2.17,20.52,5.88,25.69,8.61,26.41,12,3.16,36.88-22.79,38.54-24.54a4.17,4.17,0,0,1,1.16-1.37,4,4,0,0,1,1.56-.75,1.58,1.58,0,0,1,1.43.08c.77.42,1.59.8,2.38,1.16l.78.35.1,0a1.15,1.15,0,0,1,.31.11c33.76,11.68,39,9.61,46.08,4.6,5.76-4.09-4.8-36.64-9.35-48.84l-.08-.23.13-.21c2.81-4.38,5.25-8.17,7.37-11.45,12.56-19.42,13.91-21.51,13-28.56l-.29-.66c-.08-.17-.16-.35-.25-.52a1.06,1.06,0,0,1-.1-.17,6.37,6.37,0,0,0-.63-.64c-.16-.14-.31-.29-.46-.44-.37-.27-.89-.62-1.63-1.09-11.5-7.25-49.9-6.47-50.28-6.46h-.28l-.15-.24C351.23,817.27,341.27,810,336,808.81A8.68,8.68,0,0,0,333.55,808.91Z"/><path class="cls-2" d="M215.46,982.34c-.07-.12-.14-.24-.22-.35a2.27,2.27,0,0,0-.18-.25l-.08-.1,0,0a7.24,7.24,0,0,0-.66-.47c-.29-.15-.62-.3-1-.45-6.6-2.79-26.26.92-26.26.92-11.19-12.51-16.93-15.4-19.8-15.59a4.68,4.68,0,0,0-1.47.33l-.18.08a3.42,3.42,0,0,0-.73.45l-.14.13-.06.07-.09.16c-4.05,4.41-5,26-5,26s-21.15,8.64-20.24,16.08,22.81,12.43,22.81,12.43,4.24,24.91,9.61,25.42c6.54.62,17.06-14.77,17.8-15.86a1.71,1.71,0,0,1,.43-.73,1.79,1.79,0,0,1,.66-.46.56.56,0,0,1,.52-.07c.57.2,1.15.35,1.72.51l.15,0,.11,0c18,3.09,20.78,1.66,24.07-1.59s-8.81-24.37-8.81-24.37C215.87,987.36,216.73,986.56,215.46,982.34Z"/><path class="cls-3" d="M218.49,981.22l-.22-.35-.18-.25-.08-.1,0,0a7.37,7.37,0,0,0-.67-.47c-.29-.15-.61-.3-1-.45-6.6-2.78-26.26.92-26.26.92-11.19-12.5-16.93-15.4-19.8-15.59a4.62,4.62,0,0,0-1.47.33l-.18.08a3.42,3.42,0,0,0-.73.45l-.14.13-.06.07a.64.64,0,0,0-.09.17c-4.06,4.4-5,25.94-5,25.94s-21.15,8.64-20.24,16.08,22.81,12.44,22.81,12.44,4.24,24.9,9.61,25.41c6.55.62,17.06-14.77,17.8-15.86a1.81,1.81,0,0,1,.43-.73,1.79,1.79,0,0,1,.66-.46.58.58,0,0,1,.53-.07c.56.2,1.14.35,1.72.51l.14,0,.11,0c18,3.09,20.79,1.66,24.07-1.59s-8.81-24.37-8.81-24.37C218.89,986.24,219.76,985.45,218.49,981.22Z"/><path d="M177.35,1045.86a5.7,5.7,0,0,1-2.54.4c-5.33-.5-9.4-23.08-9.81-25.45-2.19-.52-21.95-5.35-22.84-12.62s18.18-15.43,20.25-16.28c.09-2.15,1.08-21.59,5-25.92l.09-.16.1-.11.08-.08.06,0a3.7,3.7,0,0,1,.8-.5l.19-.09a4.93,4.93,0,0,1,1.56-.34c2.9.19,8.69,3.05,19.9,15.56,1.93-.36,19.89-3.56,26.27-.88.43.18.73.32,1,.46l.28.19a2.59,2.59,0,0,1,.44.32l.13.15.19.27.24.38v0c1.12,3.72.61,4.88-4.22,16-.8,1.82-1.7,3.91-2.74,6.32,1,1.85,12,21.29,8.7,24.57-3.56,3.53-6.75,4.67-24.29,1.66h-.06l-.13,0-.09,0-.39-.1c-.44-.12-.9-.25-1.35-.41a.33.33,0,0,0-.28,0l-.07,0h0a1.54,1.54,0,0,0-.56.39,1.58,1.58,0,0,0-.37.63l0,.07C191.84,1031.79,183.78,1043.48,177.35,1045.86ZM169,965.43l-.12.05-.18.07a3.79,3.79,0,0,0-.67.42l0,0-.1.09,0,0a.29.29,0,0,0,0,.1l-.05.08c-3.95,4.28-4.89,25.57-4.9,25.78v.16l-.15.07c-.21.08-21,8.65-20.08,15.81s22.39,12.17,22.61,12.22l.17,0,0,.17c0,.06,1.07,6.29,2.78,12.5,2.83,10.25,5.15,12.57,6.6,12.7,6.36.61,16.84-14.68,17.54-15.71a2.19,2.19,0,0,1,.47-.8,2.28,2.28,0,0,1,.73-.51.83.83,0,0,1,.74-.08c.42.15.87.27,1.31.39l.42.11h.05a.47.47,0,0,1,.17,0c18.15,3.11,20.65,1.61,23.82-1.53,2.59-2.56-5.51-18.23-8.85-24.05l-.06-.11.05-.12c1.06-2.46,2-4.59,2.79-6.44,4.75-10.93,5.26-12.11,4.21-15.62l-.2-.31-.17-.24-.07-.08a2.33,2.33,0,0,0-.37-.27l-.27-.19c-.21-.1-.51-.24-.92-.41-6.46-2.73-25.92.89-26.12.93l-.14,0-.09-.11c-11.17-12.48-16.84-15.32-19.63-15.5A4.29,4.29,0,0,0,169,965.43Z"/><path class="cls-2" d="M153.15,839.85l-.12-.55c0-.14-.07-.28-.11-.41s0-.13,0-.17l0,0c-.18-.33-.43-.61-.63-.92s-.65-.67-1-1C144,830,117,825.42,117,825.42,108.56,804,102.55,797.59,99,796a6.2,6.2,0,0,0-2-.28h-.27a4.53,4.53,0,0,0-1.15.24l-.24.1-.12.06-.19.17c-7.3,3.73-18.71,31-18.71,31s-31.3,1-33.66,11S66,865.13,66,865.13s-6.39,34,.27,37.23c8.11,3.91,29-10.87,30.41-11.92a2.68,2.68,0,0,1,2-1,.77.77,0,0,1,.71.16c.63.53,1.31,1,2,1.47a1.4,1.4,0,0,0,.17.09.38.38,0,0,1,.13.09c21.72,12.54,25.92,12,31.7,9.39s.26-35.5.26-35.5C151.28,846.5,152.77,845.89,153.15,839.85Z"/><path class="cls-3" d="M157.57,839.85l-.12-.55c0-.14-.07-.28-.11-.41s-.05-.13-.05-.17l0,0c-.18-.33-.43-.61-.63-.92s-.65-.67-1-1c-7.16-6.72-34.19-11.31-34.19-11.31C113,804,107,797.59,103.38,796a6.2,6.2,0,0,0-2-.28h-.27a5,5,0,0,0-1.15.24l-.24.1-.11.06a2.24,2.24,0,0,0-.2.17c-7.3,3.73-18.71,31-18.71,31s-31.3,1-33.66,11,23.4,26.82,23.4,26.82-6.39,34,.27,37.23c8.11,3.91,29-10.87,30.41-11.92a2.68,2.68,0,0,1,2-1,.77.77,0,0,1,.71.16c.63.53,1.31,1,2,1.47a1.4,1.4,0,0,0,.17.09.3.3,0,0,1,.13.09c21.72,12.54,25.92,12,31.7,9.39s.26-35.5.26-35.5C155.7,846.5,157.19,845.89,157.57,839.85Z"/><path d="M74,903.37a8,8,0,0,1-3.46-.7c-6.6-3.18-1.09-34.13-.49-37.37-2.57-1.7-25.68-17.31-23.36-27.07S77.35,827,80.41,826.92c1.15-2.71,11.66-27.22,18.74-30.93l.19-.16.18-.1.15-.06.1,0a5.45,5.45,0,0,1,1.26-.27h.28a6.53,6.53,0,0,1,2.17.29c3.65,1.63,9.72,8.05,18.19,29.47,2.64.46,27.25,4.88,34.17,11.36.46.44.79.76,1.06,1.06l.27.37a4.76,4.76,0,0,1,.41.62l.1.27c0,.14.08.29.11.43l.13.6v0c-.33,5.3-1.53,6.56-13,18.55l-6.53,6.83c.48,2.86,5.31,33.06-.49,35.7-6.26,2.85-10.9,2.79-32-9.41l-.07,0-.16-.08-.11-.07-.44-.32a18.79,18.79,0,0,1-1.54-1.16.44.44,0,0,0-.39-.09H103a2.17,2.17,0,0,0-.91.24,2.11,2.11,0,0,0-.77.63l-.08.07C99.27,892.17,83.36,903.37,74,903.37Zm27.57-107.32h-.45a4.76,4.76,0,0,0-1.06.22l-.06,0-.17.07-.05,0-.12.1-.1.08c-7.1,3.63-18.43,30.54-18.55,30.81l-.08.2h-.23c-.31,0-31,1.16-33.33,10.78s23,26.28,23.26,26.45l.19.12,0,.24c0,.08-1.61,8.59-2.36,17.38-1.25,14.51.63,18.6,2.43,19.46,7.88,3.8,28.63-10.86,30-11.85a2.73,2.73,0,0,1,1-.8,2.77,2.77,0,0,1,1.17-.31,1.16,1.16,0,0,1,1,.24c.47.4,1,.77,1.49,1.13l.49.34.07,0a.82.82,0,0,1,.2.12c21.85,12.62,25.77,11.89,31.34,9.36,4.55-2.06,1.59-26,.06-35.12l0-.17.13-.13c2.53-2.66,4.73-5,6.64-6.95,11.31-11.79,12.53-13.06,12.85-18.07l-.11-.49-.1-.4a.43.43,0,0,1,0-.13,4.1,4.1,0,0,0-.36-.53l-.26-.36c-.22-.24-.53-.55-1-1-7-6.56-33.74-11.17-34-11.21l-.19,0-.07-.18c-8.42-21.34-14.36-27.69-17.85-29.25A5.9,5.9,0,0,0,101.53,796.05Z"/><path class="cls-2" d="M200.13,33c0-.06,0-.12,0-.19l0-.15v-.06h0a2.63,2.63,0,0,0-.06-.39q-.07-.22-.18-.48c-1.31-3.19-9.27-8.58-9.27-8.58.42-8.06-.56-11-1.47-12a2.15,2.15,0,0,0-.61-.38l-.09,0a1.44,1.44,0,0,0-.4-.09H188l-.09,0c-2.87.13-10.48,7.17-10.48,7.17s-10.14-4.22-12.35-1.38,3.56,12,3.56,12-7,9.93-5.33,11.92c2,2.44,10.82.75,11.44.63a.92.92,0,0,1,.4-.11,1,1,0,0,1,.38.07.27.27,0,0,1,.2.16c.13.26.27.5.42.75l0,.06,0,0c5.1,7.17,6.52,7.61,8.74,7.62s5.26-11.3,5.26-11.3C198.57,34.82,199.13,34.85,200.13,33Z"/><path class="cls-3" d="M201.54,33.62a1.42,1.42,0,0,0,0-.2l0-.14V33.2a2.5,2.5,0,0,0-.06-.38q-.08-.23-.18-.48c-1.31-3.19-9.27-8.59-9.27-8.59.42-8.06-.56-11-1.47-12a2.19,2.19,0,0,0-.61-.39l-.09,0a2.59,2.59,0,0,0-.4-.09h-.14l-.08,0c-2.88.12-10.49,7.16-10.49,7.16S168.68,14.18,166.47,17,170,29,170,29s-7,9.92-5.34,11.92c2,2.43,10.82.74,11.44.62a.91.91,0,0,1,.4-.1.74.74,0,0,1,.38.07.26.26,0,0,1,.2.15c.13.26.27.51.42.76l0,0,0,.05c5.1,7.16,6.52,7.61,8.75,7.61s5.25-11.29,5.25-11.29C200,35.47,200.54,35.49,201.54,33.62Z"/><path d="M165.61,41.72a2.83,2.83,0,0,1-1-.72c-1.65-2,4.61-11.06,5.28-12-.57-.91-5.68-9.26-3.52-12s11.43.9,12.43,1.31c.76-.7,7.68-7,10.48-7.14l.08,0h.17a1.65,1.65,0,0,1,.44.1l.09,0a2.46,2.46,0,0,1,.65.41c.93,1,1.93,4,1.52,12.06.78.53,8,5.52,9.25,8.6.09.2.14.36.19.49s0,.11,0,.16,0,.16,0,.26v.09l0,.16,0,.21v0c-.88,1.64-1.44,1.87-6.86,4l-3.08,1.23c-.26,1-3.12,11.33-5.35,11.32-2.42,0-3.89-.7-8.85-7.66l0,0,0-.05,0,0-.1-.17c-.11-.19-.22-.39-.32-.6a.13.13,0,0,0-.11-.08h0a.84.84,0,0,0-.33-.06,1,1,0,0,0-.34.09h0C175.32,41.83,168.61,43.09,165.61,41.72ZM190,11.48l-.06,0-.08,0-.37-.09h-.11l0,0h-.05c-2.8.12-10.33,7.06-10.4,7.13l-.06.06-.08,0c-.1-.05-10.08-4.16-12.2-1.42s3.51,11.74,3.57,11.83l0,.07,0,.07s-1.77,2.51-3.29,5.2c-2.51,4.45-2.5,6-2.06,6.57,2,2.36,10.72.7,11.31.58a1.24,1.24,0,0,1,.43-.11,1,1,0,0,1,.42.08.37.37,0,0,1,.28.22l.32.58.1.18,0,0a.16.16,0,0,1,0,.07c5.14,7.2,6.5,7.54,8.65,7.55,1.75,0,4.3-8.09,5.13-11.21l0-.06.05,0,3.14-1.25c5.32-2.12,5.89-2.34,6.73-3.9l0-.17,0-.14v0a1.46,1.46,0,0,0,0-.22.4.4,0,0,1,0-.15c0-.11-.09-.26-.18-.46-1.28-3.11-9.14-8.48-9.22-8.53l-.06,0v-.07c.42-8-.55-10.92-1.44-11.93A1.86,1.86,0,0,0,190,11.48Z"/><path class="cls-2" d="M629.39-8.91c0-.17-.07-.34-.11-.51s-.06-.26-.1-.38a.75.75,0,0,1,0-.16l0,0c-.16-.3-.4-.57-.59-.86s-.61-.62-1-1c-6.71-6.29-32-10.59-32-10.59-7.9-20-13.53-26.07-16.89-27.57a5.68,5.68,0,0,0-1.92-.26h-.25a4.41,4.41,0,0,0-1.08.22l-.22.1-.11.05a1.22,1.22,0,0,0-.18.16c-6.84,3.49-17.53,29-17.53,29s-29.31,1-31.52,10.34,21.92,25.12,21.92,25.12-6,31.86.24,34.87c7.61,3.67,27.12-10.18,28.49-11.16a2.26,2.26,0,0,1,.84-.69,2.32,2.32,0,0,1,1-.26.72.72,0,0,1,.67.15c.59.5,1.22.93,1.84,1.38l.16.08a.38.38,0,0,1,.13.09C601.45,51,605.39,50.48,610.8,48s.25-33.25.25-33.25C627.64-2.68,629-3.25,629.39-8.91Z"/><path class="cls-3" d="M633.53-8.9c0-.18-.07-.35-.11-.52s-.06-.26-.1-.38a.6.6,0,0,1-.05-.16l0,0c-.16-.31-.4-.57-.59-.87s-.61-.62-1-1c-6.71-6.29-32-10.59-32-10.59-7.9-20-13.52-26.07-16.89-27.57a5.68,5.68,0,0,0-1.92-.26h-.25a4.41,4.41,0,0,0-1.08.22l-.22.1-.11.05a1.22,1.22,0,0,0-.18.16c-6.84,3.49-17.53,29-17.53,29s-29.31,1-31.52,10.34,21.92,25.12,21.92,25.12-6,31.86.24,34.87c7.61,3.67,27.12-10.18,28.49-11.16a2.26,2.26,0,0,1,.84-.69,2.32,2.32,0,0,1,1-.26.75.75,0,0,1,.67.15c.59.5,1.22.93,1.84,1.38l.16.09a.35.35,0,0,1,.13.08C605.59,51,609.53,50.48,614.94,48s.25-33.25.25-33.25C631.78-2.68,633.18-3.25,633.53-8.9Z"/><path d="M555.23,50.58a7.27,7.27,0,0,1-3.24-.64c-6.18-3-1-32-.47-35-2.4-1.59-24-16.21-21.87-25.35S558.41-20.9,561.27-21c1.07-2.54,10.92-25.49,17.55-29l.18-.15.17-.09.14-.06.09,0a5.4,5.4,0,0,1,1.18-.25h.27a6.29,6.29,0,0,1,2,.28c3.41,1.52,9.1,7.54,17,27.59,2.48.43,25.53,4.57,32,10.64.44.41.74.72,1,1s.18.25.26.35a4.84,4.84,0,0,1,.38.58l.1.25c0,.14.07.27.1.41l.12.56v0c-.31,5-1.44,6.14-12.21,17.37-1.77,1.84-3.79,3.95-6.11,6.39.44,2.68,5,31-.47,33.44-5.86,2.67-10.21,2.61-30-8.81l-.06,0-.15-.08-.1-.05-.42-.31c-.48-.34-1-.69-1.44-1.08a.39.39,0,0,0-.36-.09h-.1a2.1,2.1,0,0,0-1.57.81l-.08.08C578.93,40.1,564,50.58,555.23,50.58ZM581.05-49.93h-.17l-.25,0a4.57,4.57,0,0,0-1,.2l-.06,0-.16.07,0,0-.11.1-.09.07c-6.66,3.4-17.27,28.6-17.37,28.85l-.09.2h-.21c-.29,0-29.08,1.08-31.21,10.09s21.54,24.61,21.78,24.77l.18.12,0,.21c0,.08-1.5,8-2.21,16.28-1.17,13.6.59,17.42,2.28,18.24,7.38,3.55,26.81-10.18,28.11-11.11a2.55,2.55,0,0,1,.93-.74,2.66,2.66,0,0,1,1.1-.3,1.08,1.08,0,0,1,.92.23c.45.38.93.72,1.4,1.06l.46.32.06,0a.76.76,0,0,1,.19.12c20.46,11.82,24.14,11.13,29.35,8.77,4.26-1.94,1.49-24.41.06-32.9l0-.16.12-.12c2.37-2.5,4.43-4.65,6.22-6.51,10.59-11,11.73-12.23,12-16.92l-.1-.46c0-.13-.06-.25-.1-.37s0-.09,0-.13a3.61,3.61,0,0,0-.33-.5,2.62,2.62,0,0,1-.24-.34c-.21-.22-.51-.51-.93-.91-6.55-6.15-31.59-10.46-31.85-10.5l-.18,0-.07-.18c-7.88-20-13.44-25.93-16.71-27.39A5.85,5.85,0,0,0,581.05-49.93Z"/><path class="cls-2" d="M222.37,304.38l-.21-.19-.17-.14-.08-.05,0,0c-.17-.08-.36-.12-.54-.19s-.47-.08-.75-.12c-5-.64-17.74,5.64-17.74,5.64-10-6.39-14.48-7.27-16.48-6.85a3.16,3.16,0,0,0-.94.5l-.11.09a2.52,2.52,0,0,0-.41.45.41.41,0,0,1-.07.11l0,.06,0,.13c-1.92,3.78,1.57,18.65,1.57,18.65s-12.78,9.93-10.74,14.83,17.93,4.13,17.93,4.13,7.65,16.18,11.41,15.5c4.58-.82,8.82-13.33,9.11-14.21a1.33,1.33,0,0,1,.16-.58,1.19,1.19,0,0,1,.36-.44.39.39,0,0,1,.35-.15c.42,0,.84,0,1.27,0l.1,0h.08c12.89-1.34,14.49-2.83,16.11-5.68s-10.66-14.94-10.66-14.94C223.61,307.73,224.05,307,222.37,304.38Z"/><path class="cls-3" d="M224.22,303l-.21-.19-.17-.14s-.06,0-.07-.06h0c-.17-.08-.36-.12-.54-.19s-.47-.08-.75-.12c-5-.64-17.74,5.64-17.74,5.64-10-6.39-14.48-7.27-16.48-6.85a3.16,3.16,0,0,0-.94.5l-.11.09a2.52,2.52,0,0,0-.41.45.41.41,0,0,1-.07.11l0,.06,0,.13c-1.92,3.78,1.57,18.65,1.57,18.65s-12.78,9.93-10.74,14.83,17.94,4.13,17.94,4.13,7.64,16.18,11.4,15.5c4.58-.82,8.82-13.33,9.12-14.22a1.22,1.22,0,0,1,.15-.58,1.36,1.36,0,0,1,.36-.43.39.39,0,0,1,.35-.15c.42,0,.85,0,1.27,0l.1,0h.08c12.89-1.34,14.49-2.83,16.12-5.69s-10.66-14.94-10.66-14.94C225.46,306.39,225.9,305.68,224.22,303Z"/><path d="M208.5,355a4.13,4.13,0,0,1-1.66.76c-3.73.67-10.81-13.95-11.55-15.5-1.59.07-16,.55-18-4.24s9.46-14,10.71-15c-.35-1.48-3.38-14.93-1.54-18.63a.41.41,0,0,1,0-.12l.05-.1,0-.07,0-.05a2.91,2.91,0,0,1,.44-.49l.12-.09a3.09,3.09,0,0,1,1-.53c2-.43,6.51.42,16.55,6.81,1.24-.61,12.88-6.23,17.75-5.61.32,0,.56.08.76.12l.23.08a2,2,0,0,1,.36.13l.12.08.18.15.23.21,0,0c1.47,2.32,1.35,3.21.17,11.72-.19,1.4-.42,3-.66,4.84,1.06,1.05,12.25,12.23,10.62,15.09-1.75,3.09-3.72,4.48-16.25,5.78h-.49c-.32,0-.66,0-1,0a.19.19,0,0,0-.19.08l0,0h0a1.08,1.08,0,0,0-.31.38,1,1,0,0,0-.13.5v.05C215.69,342.62,212.43,352.14,208.5,355Zm-21-53.29-.08.06-.1.09a2.1,2.1,0,0,0-.38.41l0,0a.22.22,0,0,1-.05.08v0s0,.07,0,.08v.06c-1.88,3.68,1.54,18.38,1.58,18.52l0,.12-.09.07c-.13.1-12.65,9.9-10.68,14.62s17.6,4,17.76,4h.12l0,.11s1.93,4.08,4.28,8c3.89,6.46,5.91,7.59,6.93,7.41,4.45-.8,8.68-13.23,9-14.07a1.5,1.5,0,0,1,.18-.63,1.42,1.42,0,0,1,.4-.49.56.56,0,0,1,.48-.19c.32,0,.65,0,1,0h.47c13-1.35,14.39-2.85,16-5.59,1.27-2.25-7.24-11.39-10.63-14.73l-.07-.06,0-.09c.25-1.88.47-3.51.67-4.93,1.16-8.36,1.28-9.26-.1-11.45l-.2-.18-.16-.13-.07,0-.3-.12-.22-.07-.71-.11c-4.92-.62-17.51,5.56-17.64,5.62l-.09.05-.08-.06c-10-6.38-14.41-7.23-16.35-6.83A3.29,3.29,0,0,0,187.48,301.7Z"/><path class="cls-2" d="M1545,1030.1l-.15-.14-.12-.09,0,0h0c-.12-.06-.25-.09-.37-.14l-.51-.08c-3.43-.43-12.08,3.84-12.08,3.84-6.83-4.35-9.87-5-11.23-4.66a2.19,2.19,0,0,0-.64.34l-.07.06a1.38,1.38,0,0,0-.28.31l0,.07,0,0a.32.32,0,0,0,0,.09c-1.31,2.57,1.07,12.7,1.07,12.7s-8.71,6.77-7.32,10.1,12.22,2.82,12.22,2.82,5.2,11,7.76,10.55c3.13-.56,6-9.07,6.21-9.68a.79.79,0,0,1,.11-.39.81.81,0,0,1,.25-.3.25.25,0,0,1,.23-.1c.29,0,.58,0,.87,0h.12c8.78-.91,9.87-1.93,11-3.87s-7.27-10.18-7.27-10.18C1545.79,1032.38,1546.09,1031.9,1545,1030.1Z"/><path class="cls-3" d="M1546.21,1029.18l-.15-.13-.12-.09,0,0h0l-.37-.13-.51-.08c-3.43-.43-12.08,3.84-12.08,3.84-6.83-4.35-9.87-5-11.23-4.67a2.22,2.22,0,0,0-.64.35l-.07.06a1.58,1.58,0,0,0-.28.3l0,.08,0,0a.27.27,0,0,0,0,.09c-1.31,2.57,1.07,12.7,1.07,12.7s-8.71,6.76-7.32,10.1,12.22,2.81,12.22,2.81,5.2,11,7.76,10.56c3.13-.56,6-9.08,6.21-9.68a.83.83,0,0,1,.11-.4.89.89,0,0,1,.25-.3.28.28,0,0,1,.23-.1c.29,0,.58,0,.87,0h.12c8.78-.91,9.87-1.93,11-3.87s-7.26-10.17-7.26-10.17C1547.05,1031.46,1547.35,1031,1546.21,1029.18Z"/><path d="M1535.5,1064.57a2.92,2.92,0,0,1-1.13.51c-2.54.46-7.37-9.5-7.87-10.55-1.08,0-10.89.37-12.25-2.89s6.44-9.53,7.29-10.2c-.23-1-2.3-10.17-1-12.69a.51.51,0,0,1,0-.09l0-.06a.09.09,0,0,0,0,0l0,0a1.67,1.67,0,0,1,.31-.34l.07-.06a2.33,2.33,0,0,1,.68-.36c1.38-.29,4.44.28,11.27,4.64.85-.42,8.78-4.24,12.1-3.82l.52.08.15,0,.24.09.09.06.12.1.16.14v0c1,1.58.92,2.18.12,8-.14,1-.29,2-.45,3.29.72.72,8.34,8.33,7.23,10.28-1.19,2.11-2.53,3-11.07,3.94h-1a.13.13,0,0,0-.13.05l0,0h0a.59.59,0,0,0-.21.25.72.72,0,0,0-.09.34v0C1540.4,1056.14,1538.17,1062.62,1535.5,1064.57Zm-14.32-36.3,0,0-.07.06a1.69,1.69,0,0,0-.26.28v0l0,.06v0a.2.2,0,0,1,0,0v0c-1.28,2.51,1,12.52,1.08,12.62v.08l-.06,0c-.08.06-8.61,6.74-7.27,10s12,2.74,12.09,2.74h.08l0,.07s1.32,2.78,2.92,5.44c2.64,4.4,4,5.17,4.71,5,3-.55,5.92-9,6.11-9.58a.88.88,0,0,1,.12-.43,1,1,0,0,1,.27-.34.4.4,0,0,1,.33-.13c.22,0,.44,0,.66,0h.32c8.84-.92,9.8-1.94,10.87-3.81.87-1.53-4.93-7.75-7.24-10l0,0v-.06c.17-1.28.33-2.39.46-3.35.79-5.7.87-6.31-.07-7.81l-.13-.12-.11-.09,0,0-.2-.07-.15,0c-.12,0-.27-.05-.49-.08-3.35-.42-11.92,3.79-12,3.83l-.06,0-.06,0c-6.81-4.34-9.81-4.92-11.13-4.65A2.51,2.51,0,0,0,1521.18,1028.27Z"/><path class="cls-2" d="M1758.82,1038.89l-.15-.13-.11-.09,0,0h0a3.18,3.18,0,0,0-.37-.14l-.51-.08c-3.43-.43-12.08,3.84-12.08,3.84-6.82-4.35-9.87-5-11.22-4.67a2.22,2.22,0,0,0-.64.35l-.08.06a2,2,0,0,0-.28.3l0,.08,0,0a.66.66,0,0,1,0,.09c-1.31,2.57,1.07,12.7,1.07,12.7s-8.7,6.77-7.31,10.1,12.21,2.81,12.21,2.81,5.21,11,7.77,10.56c3.12-.56,6-9.08,6.21-9.68a.9.9,0,0,1,.1-.39.82.82,0,0,1,.25-.3.26.26,0,0,1,.24-.1c.28,0,.57,0,.86,0h.12c8.79-.91,9.88-1.93,11-3.87s-7.26-10.18-7.26-10.18C1759.66,1041.18,1760,1040.69,1758.82,1038.89Z"/><path class="cls-3" d="M1760.08,1038l-.15-.13-.11-.1,0,0h0a3.19,3.19,0,0,0-.37-.13l-.51-.08c-3.43-.44-12.08,3.84-12.08,3.84-6.82-4.36-9.87-4.95-11.22-4.67a2.45,2.45,0,0,0-.64.34l-.08.06a2.06,2.06,0,0,0-.28.31l0,.08,0,0,0,.09c-1.31,2.57,1.07,12.7,1.07,12.7s-8.7,6.76-7.31,10.1,12.21,2.81,12.21,2.81,5.21,11,7.77,10.56c3.12-.56,6-9.08,6.21-9.68a.91.91,0,0,1,.1-.4,1,1,0,0,1,.25-.3.28.28,0,0,1,.24-.1c.28,0,.57,0,.86,0h.12c8.79-.91,9.88-1.93,11-3.87s-7.26-10.17-7.26-10.17C1760.92,1040.26,1761.22,1039.78,1760.08,1038Z"/><path d="M1749.37,1073.36a2.8,2.8,0,0,1-1.13.52c-2.54.46-7.36-9.5-7.86-10.55-1.09,0-10.9.37-12.26-2.89s6.45-9.54,7.29-10.2c-.23-1-2.3-10.17-1-12.69a.18.18,0,0,1,0-.09l0-.06,0-.05,0,0a1.63,1.63,0,0,1,.3-.34l.08-.06a2.23,2.23,0,0,1,.68-.37c1.37-.28,4.43.29,11.27,4.65.85-.42,8.78-4.24,12.09-3.82a4.14,4.14,0,0,1,.52.08l.15,0a1.25,1.25,0,0,1,.25.09l.08.06.12.1.17.14h0c1,1.59.92,2.19.12,8l-.45,3.29c.73.72,8.35,8.33,7.24,10.28-1.2,2.11-2.54,3-11.07,3.93h-1a.12.12,0,0,0-.13,0l0,0h0a.8.8,0,0,0-.21.26.72.72,0,0,0-.09.34v0C1754.27,1064.94,1752.05,1071.42,1749.37,1073.36Zm-14.32-36.29,0,0-.07.06a1.37,1.37,0,0,0-.26.28v0l0,.06h0a.18.18,0,0,0,0,.06l0,0c-1.27,2.51,1.06,12.52,1.08,12.62l0,.07-.06.05c-.09.07-8.62,6.75-7.28,10s12,2.74,12.1,2.74h.08l0,.08s1.32,2.78,2.92,5.44c2.65,4.4,4,5.17,4.72,5.05,3-.55,5.91-9,6.1-9.58a1.11,1.11,0,0,1,.12-.43,1,1,0,0,1,.27-.34.4.4,0,0,1,.33-.13h1c8.84-.92,9.81-1.94,10.87-3.81.87-1.53-4.93-7.75-7.24-10l0,0v-.06c.17-1.28.32-2.39.46-3.36.78-5.69.87-6.3-.07-7.8l-.14-.12-.11-.09,0,0-.21-.07-.15-.06-.48-.07c-3.35-.42-11.93,3.79-12,3.83l-.07,0,0,0c-6.81-4.34-9.82-4.92-11.14-4.65A2.31,2.31,0,0,0,1735.05,1037.07Z"/><path class="cls-2" d="M1642.56,975.86l-.2-.17-.15-.12-.06-.05h0a4.75,4.75,0,0,0-.49-.17c-.2,0-.42-.08-.67-.11-4.5-.57-15.85,5-15.85,5-8.95-5.71-12.95-6.5-14.73-6.12a2.73,2.73,0,0,0-.84.45l-.1.07a2.41,2.41,0,0,0-.37.41.53.53,0,0,1-.06.1l0,.05a.34.34,0,0,0,0,.12c-1.72,3.37,1.4,16.66,1.4,16.66s-11.42,8.88-9.6,13.26,16,3.69,16,3.69,6.83,14.46,10.19,13.85c4.1-.73,7.89-11.91,8.15-12.7a1.07,1.07,0,0,1,.14-.52.94.94,0,0,1,.32-.39.37.37,0,0,1,.31-.14c.38,0,.76,0,1.14,0h.16c11.52-1.19,13-2.53,14.4-5.07s-9.53-13.36-9.53-13.36C1643.66,978.86,1644.05,978.23,1642.56,975.86Z"/><path class="cls-3" d="M1644.21,974.67l-.19-.18-.15-.12-.07,0h0c-.15-.07-.32-.11-.48-.17l-.67-.11c-4.5-.57-15.86,5-15.86,5-9-5.71-13-6.5-14.72-6.12a2.67,2.67,0,0,0-.85.45l-.09.08a1.76,1.76,0,0,0-.37.4l-.06.1,0,0,0,.12c-1.72,3.37,1.4,16.66,1.4,16.66s-11.42,8.88-9.59,13.26,16,3.69,16,3.69,6.84,14.46,10.2,13.85c4.09-.73,7.88-11.91,8.14-12.7a1.19,1.19,0,0,1,.14-.52,1.13,1.13,0,0,1,.33-.39.34.34,0,0,1,.3-.13c.38,0,.76,0,1.14,0h.16c11.53-1.2,13-2.54,14.4-5.08s-9.52-13.36-9.52-13.36C1645.32,977.66,1645.71,977,1644.21,974.67Z"/><path d="M1630.16,1021.09a3.56,3.56,0,0,1-1.49.68c-3.33.6-9.66-12.47-10.32-13.84-1.42.06-14.29.48-16.07-3.8s8.45-12.51,9.56-13.38c-.3-1.33-3-13.35-1.37-16.65a.52.52,0,0,1,0-.11l0-.09,0-.06,0-.05a2.79,2.79,0,0,1,.4-.44l.1-.08a3.31,3.31,0,0,1,.89-.48c1.81-.38,5.82.38,14.79,6.1,1.12-.55,11.52-5.57,15.87-5,.29,0,.5.07.68.11l.2.07a1.24,1.24,0,0,1,.32.12l.11.07.16.13.21.19,0,0c1.31,2.07,1.2,2.87.15,10.47-.17,1.25-.37,2.68-.59,4.33.95.94,10.95,10.93,9.49,13.49-1.57,2.76-3.32,4-14.52,5.16h-.44a8.84,8.84,0,0,1-.89,0,.18.18,0,0,0-.17.07l0,0h0a1,1,0,0,0-.28.34,1.21,1.21,0,0,0-.12.44v.05C1636.59,1010,1633.67,1018.55,1630.16,1021.09Zm-18.79-47.62a.18.18,0,0,1-.07,0l-.09.08a2.37,2.37,0,0,0-.34.37v0l0,.07v0a.32.32,0,0,0,0,.07l0,.06c-1.68,3.29,1.38,16.42,1.41,16.55l0,.11-.08.06c-.11.09-11.3,8.85-9.54,13.07s15.73,3.59,15.87,3.59h.1l0,.1s1.73,3.65,3.83,7.14c3.47,5.77,5.28,6.79,6.19,6.62,4-.71,7.76-11.82,8-12.57a1.28,1.28,0,0,1,.16-.56,1.23,1.23,0,0,1,.35-.44.55.55,0,0,1,.44-.18c.28,0,.58,0,.86,0h.42c11.6-1.2,12.87-2.54,14.26-5,1.14-2-6.47-10.18-9.5-13.16l0-.06v-.08c.22-1.68.42-3.14.6-4.4,1-7.48,1.14-8.28-.09-10.24l-.18-.15a.75.75,0,0,0-.14-.12l-.06,0a1.81,1.81,0,0,0-.27-.1l-.2-.07-.63-.1c-4.4-.56-15.65,5-15.77,5l-.08,0-.07,0c-8.94-5.7-12.88-6.47-14.61-6.1A2.79,2.79,0,0,0,1611.37,973.47Z"/><path class="cls-2" d="M98.29,652.91l-.21-.2-.17-.14-.08-.05h0c-.17-.08-.36-.12-.54-.19a6.56,6.56,0,0,0-.75-.12c-5-.64-17.74,5.64-17.74,5.64-10-6.4-14.49-7.27-16.48-6.86a3.29,3.29,0,0,0-.94.51l-.11.09a2.52,2.52,0,0,0-.41.45l-.07.11,0,.06,0,.13C58.79,656.1,62.28,671,62.28,671s-12.78,9.94-10.74,14.84,17.93,4.13,17.93,4.13,7.65,16.17,11.41,15.5c4.58-.82,8.82-13.33,9.11-14.22a1.21,1.21,0,0,1,.16-.58,1.27,1.27,0,0,1,.36-.44.4.4,0,0,1,.35-.14c.42,0,.84,0,1.27,0h.18c12.89-1.34,14.49-2.84,16.11-5.69s-10.66-14.94-10.66-14.94C99.53,656.26,100,655.55,98.29,652.91Z"/><path class="cls-3" d="M100.14,651.57l-.21-.2-.17-.14-.08-.05h0a4.93,4.93,0,0,0-.54-.19,6.56,6.56,0,0,0-.75-.12c-5-.64-17.74,5.64-17.74,5.64-10-6.4-14.49-7.27-16.48-6.86a3.29,3.29,0,0,0-.94.51l-.11.08a3.47,3.47,0,0,0-.41.45.75.75,0,0,1-.07.12l0,.06,0,.13c-1.92,3.77,1.57,18.64,1.57,18.64s-12.78,9.94-10.74,14.84,17.93,4.12,17.93,4.12S79,704.77,82.73,704.1c4.58-.83,8.82-13.33,9.11-14.22a1.21,1.21,0,0,1,.16-.58,1.27,1.27,0,0,1,.36-.44.44.44,0,0,1,.35-.15c.42,0,.84,0,1.27,0h.18c12.89-1.33,14.49-2.83,16.11-5.68s-10.66-14.94-10.66-14.94C101.38,654.92,101.82,654.21,100.14,651.57Z"/><path d="M84.42,703.52a4.13,4.13,0,0,1-1.66.76c-3.73.67-10.81-14-11.55-15.5-1.59.07-16,.55-18-4.24s9.46-14,10.71-15c-.35-1.48-3.38-14.93-1.54-18.63a.35.35,0,0,1,0-.12l0-.1a.23.23,0,0,0,0-.07l0,0a2.27,2.27,0,0,1,.44-.49l.12-.09a3.38,3.38,0,0,1,1-.54c2-.42,6.51.42,16.55,6.82,1.25-.61,12.89-6.23,17.76-5.61.32,0,.56.08.76.12l.22.07a2.67,2.67,0,0,1,.36.14l.13.08.18.15.23.21,0,0c1.47,2.32,1.34,3.21.17,11.72-.2,1.39-.42,3-.66,4.84,1.06,1.05,12.25,12.23,10.62,15.09-1.76,3.09-3.72,4.48-16.25,5.77h-.05l-.09,0h-.35c-.32,0-.66,0-1,0a.24.24,0,0,0-.2.07l0,0h0a1.18,1.18,0,0,0-.44.87v.06C91.61,691.15,88.35,700.66,84.42,703.52Zm-21-53.29-.08.06-.1.08a2.13,2.13,0,0,0-.38.42l0,0a.35.35,0,0,1,0,.08v0l0,.08,0,.06c-1.87,3.67,1.55,18.37,1.59,18.52l0,.11-.09.08c-.13.09-12.65,9.9-10.68,14.62s17.6,4,17.76,4h.12l0,.11s1.93,4.08,4.28,8c3.88,6.45,5.91,7.59,6.93,7.41,4.45-.8,8.68-13.23,9-14.07a1.46,1.46,0,0,1,.18-.63,1.49,1.49,0,0,1,.39-.49.6.6,0,0,1,.49-.2c.32,0,.65,0,1,0h.47c13-1.34,14.39-2.84,16-5.59,1.27-2.24-7.24-11.39-10.63-14.72l-.07-.06v-.09c.26-1.89.48-3.51.68-4.93,1.15-8.36,1.28-9.26-.11-11.46l-.19-.17-.16-.13-.07,0a1.82,1.82,0,0,0-.3-.11l-.22-.07c-.17,0-.39-.07-.71-.11-4.92-.63-17.51,5.56-17.64,5.62l-.09,0-.09-.05c-10-6.38-14.4-7.24-16.34-6.83A3.29,3.29,0,0,0,63.4,650.23Z"/><path class="cls-2" d="M299.59,407.89s0-.05,0-.08a.64.64,0,0,1,0-.07v0h0a1.1,1.1,0,0,0-.09-.14l-.16-.15c-1.09-1-5.2-1.72-5.2-1.72-1.29-3.26-2.2-4.24-2.75-4.48a1.06,1.06,0,0,0-.31-.05h0a.47.47,0,0,0-.17,0l0,0h0l0,0c-1.11.57-2.84,4.72-2.84,4.72s-4.76.16-5.12,1.68,3.56,4.08,3.56,4.08-1,5.17,0,5.66c1.23.6,4.4-1.65,4.62-1.81a.36.36,0,0,1,.14-.11.33.33,0,0,1,.16-.05.11.11,0,0,1,.11,0l.3.22,0,0h0c3.3,1.91,3.94,1.83,4.82,1.43s0-5.4,0-5.4C299.3,408.9,299.53,408.81,299.59,407.89Z"/><path class="cls-3" d="M300.26,407.89s0-.05,0-.08,0,0,0-.06v0h0a1.1,1.1,0,0,0-.09-.14l-.16-.15c-1.09-1-5.2-1.72-5.2-1.72-1.28-3.26-2.2-4.24-2.74-4.48a1.12,1.12,0,0,0-.31-.05h0a.51.51,0,0,0-.17,0l0,0h0l0,0c-1.12.57-2.85,4.72-2.85,4.72s-4.76.16-5.12,1.68,3.56,4.08,3.56,4.08-1,5.17,0,5.66c1.23.6,4.4-1.65,4.63-1.81a.28.28,0,0,1,.13-.11.34.34,0,0,1,.17-.05.1.1,0,0,1,.1,0l.3.22,0,0h0c3.3,1.91,3.94,1.83,4.82,1.43s0-5.4,0-5.4C300,408.9,300.2,408.81,300.26,407.89Z"/><path d="M287.54,417.55a1.21,1.21,0,0,1-.52-.1c-1-.49-.17-5.19-.08-5.69-.39-.26-3.91-2.63-3.55-4.12s4.67-1.7,5.13-1.72c.18-.41,1.78-4.14,2.85-4.7l0,0h.07l.19,0h0a1,1,0,0,1,.33.05c.56.24,1.48,1.22,2.77,4.48.4.07,4.15.74,5.2,1.73l.16.16a.21.21,0,0,1,0,.06.35.35,0,0,1,.06.09l0,0s0,0,0,.07l0,.09h0c-.05.81-.23,1-2,2.83l-1,1c.07.44.81,5-.08,5.44s-1.66.42-4.87-1.43h0l0,0h0l-.07-.05-.23-.18a0,0,0,0,0-.06,0h0a.31.31,0,0,0-.13,0,.4.4,0,0,0-.12.1h0C291.39,415.85,289,417.55,287.54,417.55Zm4.2-16.32h-.07a.76.76,0,0,0-.16,0h-.05v0h0c-1.08.55-2.8,4.65-2.82,4.69v0h0c-.05,0-4.72.18-5.07,1.64s3.5,4,3.54,4l0,0v0s-.24,1.3-.36,2.64c-.19,2.21.1,2.83.37,3,1.2.58,4.36-1.65,4.57-1.8a.44.44,0,0,1,.15-.12.43.43,0,0,1,.18-.05.17.17,0,0,1,.15,0l.23.17.07.05h0l0,0c3.32,1.92,3.92,1.8,4.77,1.42.69-.31.24-4,0-5.34v0l0,0,1-1.06c1.72-1.79,1.91-2,2-2.74l0-.08s0,0,0-.06v0l-.06-.08,0-.06-.15-.14c-1.06-1-5.13-1.7-5.17-1.71h0v0c-1.28-3.25-2.18-4.22-2.71-4.45A.82.82,0,0,0,291.74,401.23Z"/><path class="cls-2" d="M297.59,608.08s0-.06,0-.08a.64.64,0,0,0,0-.07v0h0a1.1,1.1,0,0,0-.09-.14l-.16-.16c-1.09-1-5.2-1.72-5.2-1.72-1.29-3.25-2.2-4.23-2.75-4.47a.81.81,0,0,0-.31,0h0l-.17,0,0,0h0l0,0c-1.11.57-2.84,4.71-2.84,4.71s-4.76.16-5.12,1.68,3.56,4.09,3.56,4.09-1,5.17,0,5.66c1.23.59,4.4-1.65,4.62-1.81a.53.53,0,0,1,.14-.12.47.47,0,0,1,.16,0,.11.11,0,0,1,.11,0l.3.22h0l0,0c3.3,1.91,3.94,1.83,4.82,1.43s0-5.4,0-5.4C297.3,609.09,297.53,609,297.59,608.08Z"/><path class="cls-3" d="M298.26,608.08s0-.06,0-.08,0,0,0-.07v0h0a1.1,1.1,0,0,0-.09-.14l-.16-.16c-1.09-1-5.2-1.72-5.2-1.72-1.28-3.25-2.2-4.23-2.74-4.47a.84.84,0,0,0-.31,0h0l-.17,0,0,0h0l0,0c-1.12.57-2.85,4.71-2.85,4.71s-4.76.16-5.12,1.68,3.56,4.09,3.56,4.09-1,5.17,0,5.66c1.23.59,4.4-1.65,4.63-1.81a.37.37,0,0,1,.13-.12.47.47,0,0,1,.17,0,.1.1,0,0,1,.1,0l.3.22h0l0,0c3.3,1.91,3.94,1.83,4.82,1.43s0-5.4,0-5.4C298,609.09,298.2,609,298.26,608.08Z"/><path d="M285.54,617.74a1.21,1.21,0,0,1-.52-.1c-1-.49-.17-5.2-.08-5.69-.39-.26-3.91-2.63-3.55-4.12s4.67-1.7,5.13-1.72c.18-.41,1.78-4.14,2.85-4.7l0,0h.07l.19,0h0a1.24,1.24,0,0,1,.33,0c.56.25,1.48,1.23,2.77,4.49.4.07,4.15.74,5.2,1.73a1.2,1.2,0,0,1,.16.16l0,0,.06.1,0,0s0,0,0,.06l0,.09h0c-.05.81-.23,1-2,2.82l-1,1c.07.44.81,5-.08,5.43s-1.66.43-4.87-1.43h0l0,0h0l-.07,0-.23-.17a.07.07,0,0,0-.06,0h0a.31.31,0,0,0-.13,0,.4.4,0,0,0-.12.1h0C289.39,616,287,617.74,285.54,617.74Zm4.2-16.32h-.07a.41.41,0,0,0-.16,0h-.05v0h0c-1.08.55-2.8,4.64-2.82,4.68v0h0c-.05,0-4.72.17-5.07,1.64s3.5,4,3.54,4l0,0v0s-.24,1.3-.36,2.64c-.19,2.21.1,2.83.37,3,1.2.58,4.36-1.65,4.57-1.8a.44.44,0,0,1,.15-.12.32.32,0,0,1,.18,0,.17.17,0,0,1,.15,0l.23.17.07.05h0l0,0c3.32,1.92,3.92,1.81,4.77,1.43.69-.32.24-4,0-5.35v0l0,0,1-1.06c1.72-1.79,1.91-2,2-2.75l0-.07s0,0,0-.06v0l-.06-.08,0-.06-.15-.15c-1.06-1-5.13-1.7-5.17-1.7h0v0c-1.28-3.24-2.18-4.21-2.71-4.45Z"/><path class="cls-2" d="M467.59,130.08s0-.06,0-.08a.64.64,0,0,0,0-.07v0h0a1.1,1.1,0,0,0-.09-.14l-.16-.16c-1.09-1-5.2-1.72-5.2-1.72-1.29-3.25-2.2-4.23-2.75-4.47a.81.81,0,0,0-.31,0h0l-.17,0,0,0h0l0,0c-1.11.57-2.84,4.71-2.84,4.71s-4.76.16-5.12,1.68,3.56,4.09,3.56,4.09-1,5.17,0,5.66c1.23.59,4.4-1.65,4.62-1.81a.53.53,0,0,1,.14-.12.47.47,0,0,1,.16,0,.11.11,0,0,1,.11,0l.3.22h0l0,0c3.3,1.91,3.94,1.83,4.82,1.43s0-5.4,0-5.4C467.3,131.09,467.53,131,467.59,130.08Z"/><path class="cls-3" d="M468.26,130.08s0-.06,0-.08,0-.05,0-.07v0h0a1.1,1.1,0,0,0-.09-.14l-.16-.16c-1.09-1-5.2-1.72-5.2-1.72-1.28-3.25-2.2-4.23-2.74-4.47a.84.84,0,0,0-.31,0h0l-.17,0,0,0h0l0,0c-1.12.57-2.85,4.71-2.85,4.71s-4.76.16-5.12,1.68,3.56,4.09,3.56,4.09-1,5.17,0,5.66c1.23.59,4.4-1.65,4.63-1.81a.37.37,0,0,1,.13-.12.47.47,0,0,1,.17,0,.1.1,0,0,1,.1,0l.3.22h0l0,0c3.3,1.91,3.94,1.83,4.82,1.43s0-5.4,0-5.4C468,131.09,468.2,131,468.26,130.08Z"/><path d="M455.54,139.74a1.21,1.21,0,0,1-.52-.1c-1-.49-.17-5.2-.08-5.69-.39-.26-3.91-2.63-3.55-4.12s4.67-1.7,5.13-1.72c.18-.41,1.78-4.14,2.85-4.7l0,0h.07l.19,0h0a1.24,1.24,0,0,1,.33,0c.56.25,1.48,1.23,2.77,4.49.4.07,4.15.74,5.2,1.73l.16.16,0,.05.06.1,0,0s0,0,0,.06l0,.09h0c-.05.81-.23,1-2,2.82l-1,1c.07.44.81,5-.08,5.43s-1.66.43-4.87-1.43h0l0,0h0l-.07,0-.23-.17a.07.07,0,0,0-.06,0h0a.31.31,0,0,0-.13,0,.4.4,0,0,0-.12.1h0C459.39,138,457,139.74,455.54,139.74Zm4.2-16.32h-.07a.41.41,0,0,0-.16,0h-.05v0h0c-1.08.55-2.8,4.64-2.82,4.68v0h0c-.05,0-4.72.17-5.07,1.64s3.5,4,3.54,4l0,0v0s-.24,1.3-.36,2.64c-.19,2.21.1,2.83.37,3,1.2.58,4.36-1.65,4.57-1.8a.44.44,0,0,1,.15-.12.32.32,0,0,1,.18-.05.17.17,0,0,1,.15,0l.23.17.07.05h0l0,0c3.32,1.92,3.92,1.81,4.77,1.43.69-.32.24-4,0-5.35v0l0,0,1-1.06c1.72-1.79,1.91-2,2-2.75l0-.07s0,0,0-.06v0l-.06-.08,0-.06-.15-.15c-1.06-1-5.13-1.7-5.17-1.7h0v0c-1.28-3.24-2.18-4.21-2.71-4.45Z"/><path class="cls-2" d="M322.59,82.08s0-.06,0-.08a.64.64,0,0,0,0-.07v0h0a1.1,1.1,0,0,0-.09-.14l-.16-.16c-1.09-1-5.2-1.72-5.2-1.72-1.29-3.25-2.2-4.23-2.75-4.47a.81.81,0,0,0-.31,0h0l-.17,0,0,0h0l0,0c-1.11.57-2.84,4.71-2.84,4.71s-4.76.16-5.12,1.68,3.56,4.09,3.56,4.09-1,5.17,0,5.66c1.23.59,4.4-1.65,4.62-1.81a.53.53,0,0,1,.14-.12.47.47,0,0,1,.16,0,.11.11,0,0,1,.11,0l.3.22h0s0,0,0,0c3.3,1.91,3.94,1.83,4.82,1.43s0-5.4,0-5.4C322.3,83.09,322.53,83,322.59,82.08Z"/><path class="cls-3" d="M323.26,82.08s0-.06,0-.08,0,0,0-.07v0h0a1.1,1.1,0,0,0-.09-.14L323,81.6c-1.09-1-5.2-1.72-5.2-1.72-1.28-3.25-2.2-4.23-2.74-4.47a.84.84,0,0,0-.31,0h0l-.17,0,0,0h0l0,0c-1.12.57-2.85,4.71-2.85,4.71s-4.76.16-5.12,1.68S310,85.93,310,85.93s-1,5.17,0,5.66c1.23.59,4.4-1.65,4.63-1.81a.37.37,0,0,1,.13-.12.47.47,0,0,1,.17,0,.1.1,0,0,1,.1,0l.3.22h0l0,0c3.3,1.91,3.94,1.83,4.82,1.43s0-5.4,0-5.4C323,83.09,323.2,83,323.26,82.08Z"/><path d="M310.54,91.74a1.21,1.21,0,0,1-.52-.1c-1-.49-.17-5.2-.08-5.69-.39-.26-3.91-2.63-3.55-4.12s4.67-1.7,5.13-1.72c.18-.41,1.78-4.14,2.85-4.7l0,0h.07l.19,0h0a1.24,1.24,0,0,1,.33,0c.56.25,1.48,1.23,2.77,4.49.4.07,4.15.74,5.2,1.73l.16.16,0,0,.06.1,0,0s0,0,0,.06l0,.09h0c-.05.81-.23,1-2,2.82l-1,1c.07.44.81,5-.08,5.43s-1.66.43-4.87-1.43h0l0,0h0l-.07,0-.23-.17a.07.07,0,0,0-.06,0h0a.31.31,0,0,0-.13,0,.4.4,0,0,0-.12.1h0C314.39,90,312,91.74,310.54,91.74Zm4.2-16.32h-.07a.41.41,0,0,0-.16,0h-.05v0h0c-1.08.55-2.8,4.64-2.82,4.68v0h0c-.05,0-4.72.17-5.07,1.64s3.5,4,3.54,4l0,0v0s-.24,1.3-.36,2.64c-.19,2.21.1,2.83.37,3,1.2.58,4.36-1.65,4.57-1.8a.44.44,0,0,1,.15-.12.32.32,0,0,1,.18-.05.17.17,0,0,1,.15,0l.23.17.07,0h0l0,0c3.32,1.92,3.92,1.81,4.77,1.43.69-.32.24-4,0-5.35v0l0,0,1-1.06c1.72-1.79,1.91-2,2-2.75l0-.07s0,0,0-.06v0l-.06-.08,0-.06-.15-.15c-1.06-1-5.13-1.7-5.17-1.7h0v0c-1.28-3.24-2.18-4.21-2.71-4.45Z"/><path class="cls-2" d="M749.59,1038.08s0-.06,0-.08a.64.64,0,0,0,0-.07v0h0a1.1,1.1,0,0,0-.09-.14l-.16-.16c-1.09-1-5.2-1.72-5.2-1.72-1.29-3.25-2.2-4.23-2.75-4.47a.81.81,0,0,0-.31-.05h0l-.17,0,0,0h0l0,0c-1.11.57-2.84,4.71-2.84,4.71s-4.76.16-5.12,1.68,3.56,4.09,3.56,4.09-1,5.17,0,5.66c1.23.59,4.4-1.65,4.62-1.81a.53.53,0,0,1,.14-.12.47.47,0,0,1,.16,0,.11.11,0,0,1,.11,0l.3.22h0l0,0c3.3,1.91,3.94,1.83,4.82,1.43s0-5.4,0-5.4C749.3,1039.09,749.53,1039,749.59,1038.08Z"/><path class="cls-3" d="M750.26,1038.08s0-.06,0-.08,0,0,0-.07v0h0a1.1,1.1,0,0,0-.09-.14l-.16-.16c-1.09-1-5.2-1.72-5.2-1.72-1.28-3.25-2.2-4.23-2.74-4.47a.84.84,0,0,0-.31-.05h-.05l-.17,0,0,0h0l0,0c-1.12.57-2.85,4.71-2.85,4.71s-4.76.16-5.12,1.68,3.56,4.09,3.56,4.09-1,5.17,0,5.66c1.23.59,4.4-1.65,4.63-1.81a.37.37,0,0,1,.13-.12.47.47,0,0,1,.17,0,.1.1,0,0,1,.1,0l.3.22h0l0,0c3.3,1.91,3.94,1.83,4.82,1.43s0-5.4,0-5.4C750,1039.09,750.2,1039,750.26,1038.08Z"/><path d="M737.54,1047.74a1.21,1.21,0,0,1-.52-.1c-1-.49-.17-5.2-.08-5.69-.39-.26-3.91-2.63-3.55-4.12s4.67-1.7,5.13-1.72c.18-.41,1.78-4.14,2.85-4.7l0,0h.07l.19,0h0a1.24,1.24,0,0,1,.33,0c.56.25,1.48,1.23,2.77,4.49.4.07,4.15.74,5.2,1.73l.16.16,0,0,.06.1,0,0s0,0,0,.06l0,.09h0c0,.81-.23,1-2,2.82l-1,1c.07.44.81,5-.08,5.43s-1.66.43-4.87-1.43h0l0,0h0l-.07-.05-.23-.17a.07.07,0,0,0-.06,0h0a.31.31,0,0,0-.13,0,.4.4,0,0,0-.12.1h0C741.39,1046,739,1047.74,737.54,1047.74Zm4.2-16.32h-.07a.41.41,0,0,0-.16,0h0v0h0c-1.08.55-2.8,4.64-2.82,4.68v0h0s-4.72.17-5.07,1.64,3.5,4,3.54,4l0,0v0s-.24,1.3-.36,2.64c-.19,2.21.1,2.83.37,3,1.2.58,4.36-1.65,4.57-1.8a.44.44,0,0,1,.15-.12.32.32,0,0,1,.18,0,.17.17,0,0,1,.15,0l.23.17.07,0h0l0,0c3.32,1.92,3.92,1.81,4.77,1.43.69-.32.24-4,0-5.35v0l0,0,1-1.06c1.72-1.79,1.91-2,2-2.75l0-.07s0,0,0-.06v0l-.06-.08,0-.06-.15-.15c-1.06-1-5.13-1.7-5.17-1.7h0v0c-1.28-3.24-2.18-4.21-2.71-4.45Z"/><path class="cls-2" d="M1843.59,1045.08s0-.06,0-.08a.64.64,0,0,0,0-.07v0h0a1.1,1.1,0,0,0-.09-.14l-.16-.16c-1.09-1-5.2-1.72-5.2-1.72-1.29-3.25-2.2-4.23-2.75-4.47a.81.81,0,0,0-.31-.05h0l-.17,0,0,0h0l0,0c-1.11.57-2.84,4.71-2.84,4.71s-4.76.16-5.12,1.68,3.56,4.09,3.56,4.09-1,5.17,0,5.66c1.23.59,4.4-1.65,4.62-1.81a.53.53,0,0,1,.14-.12.47.47,0,0,1,.16,0,.11.11,0,0,1,.11,0l.3.22h0l0,0c3.3,1.91,3.94,1.83,4.82,1.43s0-5.4,0-5.4C1843.3,1046.09,1843.53,1046,1843.59,1045.08Z"/><path class="cls-3" d="M1844.26,1045.08s0-.06,0-.08,0,0,0-.07v0h0a1.1,1.1,0,0,0-.09-.14l-.16-.16c-1.09-1-5.2-1.72-5.2-1.72-1.28-3.25-2.2-4.23-2.74-4.47a.84.84,0,0,0-.31-.05h0l-.17,0,0,0h0l0,0c-1.12.57-2.85,4.71-2.85,4.71s-4.76.16-5.12,1.68,3.56,4.09,3.56,4.09-1,5.17,0,5.66c1.23.59,4.4-1.65,4.63-1.81a.37.37,0,0,1,.13-.12.47.47,0,0,1,.17,0,.1.1,0,0,1,.1,0l.3.22h0l0,0c3.3,1.91,3.94,1.83,4.82,1.43s0-5.4,0-5.4C1844,1046.09,1844.2,1046,1844.26,1045.08Z"/><path d="M1831.54,1054.74a1.21,1.21,0,0,1-.52-.1c-1-.49-.17-5.2-.08-5.69-.39-.26-3.91-2.63-3.55-4.12s4.67-1.7,5.13-1.72c.18-.41,1.78-4.14,2.85-4.7l0,0h.07l.19,0h0a1.24,1.24,0,0,1,.33,0c.56.25,1.48,1.23,2.77,4.49.4.07,4.15.74,5.2,1.73l.16.16,0,0,.06.1,0,0s0,0,0,.06l0,.09h0c0,.81-.23,1-2,2.82l-1,1c.07.44.81,5-.08,5.43s-1.66.43-4.87-1.43h0l0,0h0l-.07-.05-.23-.17a.07.07,0,0,0-.06,0h0a.31.31,0,0,0-.13,0,.4.4,0,0,0-.12.1h0C1835.39,1053,1833,1054.74,1831.54,1054.74Zm4.2-16.32h-.07a.41.41,0,0,0-.16,0h0v0h0c-1.08.55-2.8,4.64-2.82,4.68v0h0s-4.72.17-5.07,1.64,3.5,4,3.54,4l0,0v0s-.24,1.3-.36,2.64c-.19,2.21.1,2.83.37,3,1.2.58,4.36-1.65,4.57-1.8a.44.44,0,0,1,.15-.12.32.32,0,0,1,.18,0,.17.17,0,0,1,.15,0l.23.17.07,0h0l0,0c3.32,1.92,3.92,1.81,4.77,1.43.69-.32.24-4,0-5.35v0l0,0,1-1.06c1.72-1.79,1.91-2,2-2.75l0-.07s0,0,0-.06v0l-.06-.08,0-.06-.15-.15c-1.06-1-5.13-1.7-5.17-1.7h0v0c-1.28-3.24-2.18-4.21-2.71-4.45Z"/><path class="cls-2" d="M371,1020.47l0-.15,0-.11,0,0v0c-.05-.09-.12-.16-.17-.25l-.29-.28c-2-1.84-9.34-3.09-9.34-3.09-2.31-5.85-3.95-7.61-4.93-8a1.76,1.76,0,0,0-.56-.07h-.08a1.7,1.7,0,0,0-.31.06l-.07,0,0,0,0,0c-2,1-5.11,8.47-5.11,8.47s-8.56.29-9.21,3,6.4,7.33,6.4,7.33-1.75,9.3.07,10.18c2.22,1.07,7.92-3,8.32-3.26a.67.67,0,0,1,.54-.27.2.2,0,0,1,.19,0c.17.14.36.27.54.4l0,0,0,0c5.94,3.43,7.09,3.28,8.66,2.57s.08-9.71.08-9.71C370.5,1022.29,370.91,1022.12,371,1020.47Z"/><path class="cls-3" d="M372.22,1020.47a.83.83,0,0,0,0-.15.52.52,0,0,0,0-.11.08.08,0,0,1,0,0v0c-.05-.09-.12-.16-.18-.25l-.28-.28c-2-1.84-9.35-3.09-9.35-3.09-2.3-5.85-3.94-7.61-4.92-8a1.76,1.76,0,0,0-.56-.07h-.08a1.7,1.7,0,0,0-.31.06l-.07,0,0,0-.05,0c-2,1-5.12,8.47-5.12,8.47s-8.55.29-9.2,3,6.4,7.33,6.4,7.33-1.75,9.3.07,10.18c2.22,1.07,7.92-3,8.32-3.26a.78.78,0,0,1,.24-.2.73.73,0,0,1,.29-.07.21.21,0,0,1,.2,0c.17.14.35.27.54.4l0,0,0,0c5.93,3.43,7.08,3.28,8.66,2.57s.07-9.71.07-9.71C371.71,1022.29,372.11,1022.12,372.22,1020.47Z"/><path d="M349.37,1037.83a2.18,2.18,0,0,1-.95-.18c-1.8-.87-.3-9.33-.14-10.22-.7-.47-7-4.73-6.38-7.4s8.39-3.06,9.23-3.09c.31-.74,3.19-7.44,5.12-8.45l.05,0,.05,0,0,0h0a1.4,1.4,0,0,1,.34-.08h.08a1.68,1.68,0,0,1,.59.08c1,.45,2.66,2.2,5,8.05.73.13,7.45,1.34,9.34,3.11l.29.29.08.1a1,1,0,0,1,.11.17l0,.07,0,.12,0,.17h0c-.09,1.45-.42,1.79-3.56,5.07l-1.78,1.86c.13.79,1.45,9-.14,9.76s-3,.77-8.75-2.57h0l0,0,0,0-.12-.09a4.23,4.23,0,0,1-.42-.32.15.15,0,0,0-.11,0h0a.53.53,0,0,0-.25.07.58.58,0,0,0-.21.17l0,0C356.28,1034.77,351.93,1037.83,349.37,1037.83Zm7.53-29.33h-.12a1,1,0,0,0-.29.07h0l-.05,0h0l0,0,0,0c-1.94,1-5,8.35-5.07,8.42l0,.06h-.06c-.09,0-8.49.31-9.11,2.94s6.28,7.19,6.35,7.23l.06,0,0,.06s-.43,2.35-.64,4.75c-.34,4,.17,5.09.66,5.32,2.16,1,7.83-3,8.21-3.24a.84.84,0,0,1,.27-.22.88.88,0,0,1,.32-.08.31.31,0,0,1,.27.07c.13.1.27.21.41.3l.13.1h0l.06,0c6,3.45,7,3.25,8.56,2.56,1.24-.56.44-7.12,0-9.6v-.05l0,0,1.82-1.9c3.09-3.23,3.42-3.57,3.51-4.94l0-.14,0-.1s0,0,0,0a.5.5,0,0,0-.1-.14.36.36,0,0,0-.07-.1,3.34,3.34,0,0,0-.27-.27c-1.91-1.8-9.22-3.05-9.29-3.07h-.05l0-.05c-2.3-5.83-3.93-7.56-4.88-8A1.49,1.49,0,0,0,356.9,1008.5Z"/><path class="cls-2" d="M809,985.39l0-.15,0-.11,0,0h0c0-.09-.12-.17-.17-.25l-.29-.28c-2-1.84-9.34-3.1-9.34-3.1-2.31-5.84-4-7.6-4.93-8a1.52,1.52,0,0,0-.56-.08h-.08a1.16,1.16,0,0,0-.31.07l-.07,0h0l0,.05c-2,1-5.11,8.47-5.11,8.47s-8.56.28-9.21,3,6.4,7.33,6.4,7.33-1.75,9.3.07,10.17c2.22,1.07,7.92-3,8.32-3.25a.58.58,0,0,1,.24-.2.64.64,0,0,1,.3-.08.22.22,0,0,1,.19,0c.17.15.36.27.54.41l0,0,0,0c5.94,3.43,7.09,3.29,8.66,2.57s.08-9.7.08-9.7C808.5,987.21,808.91,987,809,985.39Z"/><path class="cls-3" d="M810.22,985.39a.83.83,0,0,0,0-.15.36.36,0,0,0,0-.11.11.11,0,0,1,0,0h0a2.27,2.27,0,0,0-.18-.25l-.28-.28c-2-1.84-9.35-3.1-9.35-3.1-2.3-5.84-3.94-7.6-4.92-8a1.52,1.52,0,0,0-.56-.08h-.08a1.16,1.16,0,0,0-.31.07l-.07,0h0l-.05.05c-2,1-5.12,8.47-5.12,8.47s-8.55.29-9.2,3,6.4,7.33,6.4,7.33-1.75,9.3.07,10.17c2.22,1.07,7.92-3,8.32-3.25a.58.58,0,0,1,.24-.2.6.6,0,0,1,.29-.08.24.24,0,0,1,.2,0c.17.15.35.27.54.41l0,0,0,0c5.93,3.43,7.08,3.29,8.66,2.57s.07-9.7.07-9.7C809.71,987.21,810.11,987,810.22,985.39Z"/><path d="M787.37,1002.75a2.18,2.18,0,0,1-1-.19c-1.8-.87-.3-9.33-.14-10.22-.7-.46-7-4.73-6.38-7.4s8.39-3.05,9.23-3.09c.31-.74,3.19-7.44,5.12-8.45l0,0,.05,0,0,0h0a1.37,1.37,0,0,1,.34-.07h.08a2,2,0,0,1,.59.09c1,.44,2.66,2.2,5,8.05.73.12,7.45,1.33,9.34,3.11a2.66,2.66,0,0,1,.29.28l.08.11a.71.71,0,0,1,.11.17l0,.07,0,.12,0,.16h0c-.09,1.45-.42,1.8-3.56,5.07L805,992.33c.13.78,1.45,9-.14,9.76s-3,.76-8.75-2.57l0,0,0,0,0,0-.12-.08c-.14-.1-.29-.21-.42-.32a.13.13,0,0,0-.11,0h0a.65.65,0,0,0-.25.06.71.71,0,0,0-.21.17l0,0C794.28,999.69,789.93,1002.75,787.37,1002.75Zm7.53-29.33h-.12a1.36,1.36,0,0,0-.29.06h0l-.05,0h0l0,0,0,0c-1.94,1-5,8.35-5.07,8.42l0,.06h-.06c-.09,0-8.49.32-9.11,3s6.28,7.18,6.35,7.23l.06,0,0,.07s-.43,2.34-.64,4.75c-.34,4,.17,5.08.66,5.32,2.16,1,7.83-3,8.21-3.24a.73.73,0,0,1,.27-.22.87.87,0,0,1,.32-.09.34.34,0,0,1,.27.07c.13.11.27.21.41.31l.13.09h0l.06,0c6,3.45,7,3.25,8.56,2.56,1.24-.57.44-7.13,0-9.61v0l0,0,1.82-1.9c3.09-3.22,3.42-3.57,3.51-4.93l0-.14,0-.11s0,0,0,0L810,985a.61.61,0,0,0-.07-.1,3.63,3.63,0,0,0-.27-.26c-1.91-1.8-9.22-3.06-9.29-3.07h-.05l0,0c-2.3-5.83-3.93-7.57-4.88-8A1.84,1.84,0,0,0,794.9,973.42Z"/><path class="cls-2" d="M69.59,542.08s0-.06,0-.08a.64.64,0,0,0,0-.07v0h0a1.1,1.1,0,0,0-.09-.14l-.16-.16c-1.09-1-5.2-1.72-5.2-1.72-1.29-3.25-2.2-4.23-2.75-4.47a.81.81,0,0,0-.31,0h0l-.17,0,0,0h0l0,0c-1.11.57-2.84,4.71-2.84,4.71s-4.76.16-5.12,1.68,3.56,4.09,3.56,4.09-1,5.17,0,5.66c1.23.59,4.4-1.65,4.62-1.81a.53.53,0,0,1,.14-.12.47.47,0,0,1,.16,0,.11.11,0,0,1,.11,0l.3.22h0l0,0c3.3,1.91,3.94,1.83,4.82,1.43s0-5.4,0-5.4C69.3,543.09,69.53,543,69.59,542.08Z"/><path class="cls-3" d="M70.26,542.08s0-.06,0-.08,0,0,0-.07v0h0a1.1,1.1,0,0,0-.09-.14L70,541.6c-1.09-1-5.2-1.72-5.2-1.72-1.28-3.25-2.2-4.23-2.74-4.47a.84.84,0,0,0-.31,0h-.05l-.17,0,0,0h0l0,0c-1.12.57-2.85,4.71-2.85,4.71s-4.76.16-5.12,1.68S57,545.93,57,545.93s-1,5.17,0,5.66c1.23.59,4.4-1.65,4.63-1.81a.37.37,0,0,1,.13-.12.47.47,0,0,1,.17,0,.1.1,0,0,1,.1,0l.3.22h0l0,0c3.3,1.91,3.94,1.83,4.82,1.43s0-5.4,0-5.4C70,543.09,70.2,543,70.26,542.08Z"/><path d="M57.54,551.74a1.21,1.21,0,0,1-.52-.1c-1-.49-.17-5.2-.08-5.69-.39-.26-3.91-2.63-3.55-4.12s4.67-1.7,5.13-1.72c.18-.41,1.78-4.14,2.85-4.7l0,0h.07l.19,0h0a1.24,1.24,0,0,1,.33,0c.56.25,1.48,1.23,2.77,4.49.4.07,4.15.74,5.2,1.73a1.2,1.2,0,0,1,.16.16l0,0,.06.1,0,0s0,0,0,.06l0,.09h0c0,.81-.23,1-2,2.82l-1,1c.07.44.81,5-.08,5.43s-1.66.43-4.87-1.43h0l0,0h0l-.07,0-.23-.17a.07.07,0,0,0-.06,0h0a.31.31,0,0,0-.13,0,.4.4,0,0,0-.12.1h0C61.39,550,59,551.74,57.54,551.74Zm4.2-16.32h-.07a.41.41,0,0,0-.16,0h0v0h0c-1.08.55-2.8,4.64-2.82,4.68v0h0c-.05,0-4.72.17-5.07,1.64s3.5,4,3.54,4l0,0v0s-.24,1.3-.36,2.64c-.19,2.21.1,2.83.37,3,1.2.58,4.36-1.65,4.57-1.8a.44.44,0,0,1,.15-.12.32.32,0,0,1,.18,0,.17.17,0,0,1,.15,0l.23.17.07.05h0l0,0c3.32,1.92,3.92,1.81,4.77,1.43.69-.32.24-4,0-5.35v0l0,0,1-1.06c1.72-1.79,1.91-2,2-2.75l0-.07s0,0,0-.06v0l-.06-.08a.21.21,0,0,0,0-.06l-.15-.15c-1.06-1-5.13-1.7-5.17-1.7h0v0c-1.28-3.24-2.18-4.21-2.71-4.45Z"/><path class="cls-2" d="M1447.91,1010.67c0-.17.07-.34.1-.52l.06-.39a.92.92,0,0,1,0-.16v0c0-.35-.14-.68-.2-1s-.32-.81-.52-1.27c-3.68-8.39-25.2-22.22-25.2-22.22.59-21.45-2.21-29.18-4.71-31.87a5.66,5.66,0,0,0-1.65-1l-.24-.09a4.93,4.93,0,0,0-1.08-.22h-.35a1.33,1.33,0,0,0-.23.08c-7.64.52-27.41,19.74-27.41,19.74s-27.24-10.55-32.93-2.84,10.27,31.59,10.27,31.59-17.94,26.86-13.4,32c5.53,6.34,28.82,1.27,30.47.91a2.2,2.2,0,0,1,1-.3,2.39,2.39,0,0,1,1,.15.75.75,0,0,1,.55.4c.35.68.76,1.33,1.15,2a.81.81,0,0,0,.12.14.37.37,0,0,1,.07.12c14.05,18.72,17.85,19.81,23.77,19.67s13.22-30.38,13.22-30.38C1443.88,1015.7,1445.38,1015.72,1447.91,1010.67Z"/><path class="cls-3" d="M1451.71,1012.29l.09-.52a2.63,2.63,0,0,0,.06-.39s0-.13,0-.16v0c0-.35-.14-.68-.2-1s-.31-.81-.51-1.27c-3.69-8.39-25.21-22.22-25.21-22.22.59-21.45-2.21-29.18-4.7-31.87a5.8,5.8,0,0,0-1.65-1l-.24-.09a4.41,4.41,0,0,0-1.08-.22h-.36l-.23.07c-7.63.53-27.4,19.75-27.4,19.75s-27.25-10.55-32.94-2.84,10.27,31.59,10.27,31.59-17.94,26.86-13.4,32.05c5.54,6.34,28.83,1.27,30.47.91a2.24,2.24,0,0,1,1-.3,2.21,2.21,0,0,1,1,.15.73.73,0,0,1,.55.4c.35.68.76,1.32,1.15,2l.12.14.08.12c14,18.72,17.85,19.81,23.77,19.67s13.22-30.38,13.22-30.38C1447.67,1017.31,1449.17,1017.33,1451.71,1012.29Z"/><path d="M1356.69,1036.21a7.34,7.34,0,0,1-2.71-1.86c-4.51-5.15,11.55-29.7,13.25-32.27-1.58-2.4-15.7-24.25-10.14-31.79s30.45,1.64,33.12,2.66c2-1.91,20-19.1,27.41-19.69l.22-.07h.44a4.76,4.76,0,0,1,1.18.24l.25.09a6.08,6.08,0,0,1,1.75,1c2.53,2.73,5.4,10.46,4.82,31.94,2.11,1.37,21.62,14.17,25.18,22.27.24.54.4.94.52,1.29,0,.18.06.3.09.42a3.72,3.72,0,0,1,.13.68v.27l-.06.41-.11.56,0,.05c-2.23,4.43-3.72,5.06-18,11.15-2.34,1-5,2.14-8.1,3.47-.65,2.63-7.55,30.33-13.5,30.47-6.41.15-10.38-1.6-24-19.8l0-.07-.11-.13-.07-.09-.26-.44c-.31-.5-.62-1-.9-1.56a.39.39,0,0,0-.3-.23l-.09,0h0a2.11,2.11,0,0,0-1.76.13l-.09,0C1382.51,1035.86,1364.76,1039.65,1356.69,1036.21Zm63-82-.16-.07-.23-.08a4,4,0,0,0-1-.2H1418l-.14,0-.11,0c-7.43.51-27,19.46-27.2,19.65l-.15.15-.2-.08c-.27-.1-27.08-10.37-32.56-3s10.13,31,10.28,31.22l.13.18-.13.18c0,.07-4.52,6.79-8.38,14.06-6.39,12-6.27,16.2-5,17.6,5.38,6.14,28.55,1.15,30.1.81a2.56,2.56,0,0,1,1.14-.32,2.7,2.7,0,0,1,1.13.16,1,1,0,0,1,.75.57c.27.52.58,1,.88,1.52l.29.47,0,.06a.66.66,0,0,1,.12.17c14.14,18.83,17.77,19.64,23.48,19.51,4.66-.11,10.9-21.78,12.91-30.13l0-.16.15-.06,8.25-3.54c14-6,15.53-6.62,17.63-10.8l.09-.46.06-.38a.53.53,0,0,1,0-.13,4.77,4.77,0,0,0-.11-.59,2.88,2.88,0,0,1-.09-.4c-.11-.29-.26-.67-.49-1.2-3.61-8.2-24.87-21.94-25.09-22.07l-.15-.1v-.19c.59-21.4-2.18-29-4.61-31.64A5.67,5.67,0,0,0,1419.64,954.18Z"/><path class="cls-2" d="M960.8,1023.18c.06-.19.11-.38.17-.57s.08-.29.11-.44,0-.14,0-.18v0a11.57,11.57,0,0,0-.11-1.17c-.11-.46-.26-1-.43-1.5-3.19-9.93-25.91-28.11-25.91-28.11,3.19-24.2.93-33.28-1.57-36.62a6.66,6.66,0,0,0-1.76-1.32l-.26-.13a5,5,0,0,0-1.19-.37l-.27,0h-.14l-.26.06c-8.71-.3-33.34,19.12-33.34,19.12s-29.59-15.14-36.94-7.09,7.91,37,7.91,37-23.46,28.29-18.94,34.7c5.52,7.81,32.47,4.83,34.38,4.61a2.8,2.8,0,0,1,2.34.07.82.82,0,0,1,.58.52c.31.81.7,1.59,1.07,2.38,0,0,.07.11.11.17a.36.36,0,0,1,.08.15c13.69,22.83,17.87,24.51,24.58,25.05s18.54-32.82,18.54-32.82C955.64,1028.39,957.34,1028.59,960.8,1023.18Z"/><path class="cls-3" d="M964.9,1025.46c.06-.19.12-.38.17-.57l.12-.44a.62.62,0,0,1,0-.18v0c0-.39-.08-.78-.11-1.18s-.26-.95-.43-1.49c-3.19-9.93-25.91-28.11-25.91-28.11,3.19-24.2.94-33.28-1.57-36.62a6.61,6.61,0,0,0-1.75-1.32l-.26-.13A4.92,4.92,0,0,0,934,955l-.27,0h-.13l-.27.06c-8.7-.3-33.34,19.12-33.34,19.12S870.39,959,863,967.05s7.91,37,7.91,37-23.46,28.29-18.94,34.7c5.52,7.81,32.48,4.83,34.38,4.6a2.77,2.77,0,0,1,1.21-.22,2.69,2.69,0,0,1,1.14.3.8.8,0,0,1,.57.52c.32.81.71,1.59,1.07,2.37a1.88,1.88,0,0,0,.12.18.37.37,0,0,1,.07.14c13.7,22.84,17.87,24.52,24.58,25.06s18.54-32.83,18.54-32.83C959.74,1030.67,961.44,1030.87,964.9,1025.46Z"/><path d="M854.56,1041.35a8.37,8.37,0,0,1-2.85-2.43c-4.49-6.36,16.57-32.25,18.8-35-1.51-2.9-14.92-29.29-7.74-37.16s34.27,5.44,37.17,6.9c2.46-1.92,24.85-19.26,33.33-19.05l.26-.06h.22l.17,0H934a5.37,5.37,0,0,1,1.31.4l.27.13a7.27,7.27,0,0,1,1.86,1.4c2.55,3.39,4.87,12.48,1.7,36.72,2.22,1.79,22.79,18.57,25.86,28.15.21.65.35,1.12.44,1.53,0,.2,0,.34.06.48a5.16,5.16,0,0,1,.06.79l0,.3-.12.46-.19.62,0,.05c-3,4.75-4.81,5.3-21.67,10.5l-9.57,3c-1,2.91-12.11,33.44-18.86,32.9-7.27-.59-11.55-3-24.87-25.23l0-.08-.11-.17-.06-.11-.25-.53c-.29-.6-.59-1.23-.83-1.87a.47.47,0,0,0-.31-.29l-.1,0h0a2.16,2.16,0,0,0-1-.24,2.2,2.2,0,0,0-1,.18l-.12,0C883.83,1044,863.29,1046.19,854.56,1041.35Zm80.89-85.43-.17-.09-.25-.12a4.5,4.5,0,0,0-1.1-.34h-.07l-.2,0h-.06l-.16,0-.13,0c-8.47-.29-32.85,18.85-33.1,19l-.18.15-.22-.11c-.29-.15-29.42-14.92-36.49-7.17s7.81,36.25,8,36.54l.12.22-.16.19c-.06.07-5.92,7.15-11.15,14.92-8.64,12.83-9,17.59-7.77,19.32,5.36,7.59,32.17,4.67,34,4.46a3.06,3.06,0,0,1,1.33-.23,3.16,3.16,0,0,1,1.25.32,1.22,1.22,0,0,1,.79.73c.24.62.53,1.23.81,1.82l.28.57a.43.43,0,0,0,0,.07.78.78,0,0,1,.12.22c13.78,23,17.8,24.31,24.27,24.83,5.29.43,14.9-23.37,18.16-32.57l.06-.18.18,0c3.72-1.17,6.95-2.16,9.75-3,16.57-5.12,18.35-5.67,21.23-10.15l.15-.52c0-.13.08-.27.11-.41l0-.16a4.77,4.77,0,0,0-.06-.67c0-.15,0-.31,0-.47-.08-.33-.21-.79-.41-1.41-3.12-9.7-25.57-27.75-25.79-27.93l-.17-.13,0-.21c3.19-24.15.94-33.1-1.5-36.35A6.32,6.32,0,0,0,935.45,955.92Z"/><path class="cls-2" d="M1040.27,913.56c0-.1,0-.2-.07-.3a1.74,1.74,0,0,0,0-.22.24.24,0,0,1,0-.09l0,0a5.5,5.5,0,0,0-.34-.5c-.16-.18-.35-.36-.56-.56-3.88-3.64-18.54-6.13-18.54-6.13-4.57-11.6-7.83-15.1-9.78-16a3.46,3.46,0,0,0-1.11-.15h-.14a2.21,2.21,0,0,0-.63.13l-.13,0-.06,0a.49.49,0,0,0-.1.09c-4,2-10.15,16.8-10.15,16.8s-17,.57-18.26,6S993,927.27,993,927.27s-3.47,18.45.14,20.19c4.4,2.12,15.7-5.89,16.49-6.47a1.44,1.44,0,0,1,.49-.39,1.28,1.28,0,0,1,.58-.15.41.41,0,0,1,.38.08c.35.29.71.54,1.07.8l.1,0,.07,0c11.77,6.8,14,6.51,17.18,5.09s.15-19.25.15-19.25C1039.26,917.17,1040.06,916.83,1040.27,913.56Z"/><path class="cls-3" d="M1042.67,913.56c0-.1-.05-.2-.07-.3l-.06-.22a.94.94,0,0,1,0-.09v0a5.5,5.5,0,0,0-.34-.5c-.16-.18-.35-.36-.56-.56-3.89-3.64-18.54-6.13-18.54-6.13-4.57-11.6-7.83-15.1-9.78-16a3.5,3.5,0,0,0-1.11-.15H1012a2.21,2.21,0,0,0-.62.13l-.13,0-.06,0-.11.09c-4,2-10.15,16.8-10.15,16.8s-17,.57-18.25,6,12.69,14.55,12.69,14.55-3.46,18.45.15,20.19c4.4,2.12,15.69-5.89,16.49-6.47a1.35,1.35,0,0,1,.49-.39,1.28,1.28,0,0,1,.58-.15.41.41,0,0,1,.38.08c.34.29.71.54,1.07.8l.09,0a.18.18,0,0,1,.07,0c11.78,6.8,14.06,6.51,17.19,5.09s.14-19.25.14-19.25C1041.65,917.17,1042.46,916.83,1042.67,913.56Z"/><path d="M997.33,948a4.33,4.33,0,0,1-1.88-.37c-3.58-1.73-.59-18.51-.27-20.27-1.39-.92-13.92-9.38-12.66-14.68s16.65-6.07,18.31-6.13c.62-1.47,6.32-14.76,10.16-16.77l.1-.09.1-.05.08,0,.05,0a2.73,2.73,0,0,1,.69-.14h.15a3.73,3.73,0,0,1,1.18.16c2,.88,5.27,4.36,9.86,16,1.43.25,14.78,2.64,18.53,6.16.25.24.43.41.57.57a1.29,1.29,0,0,0,.15.2,2.46,2.46,0,0,1,.22.34l.06.14.06.24.07.32v0c-.18,2.88-.84,3.56-7.07,10.06l-3.54,3.7c.25,1.56,2.88,17.93-.27,19.36-3.39,1.55-5.91,1.52-17.36-5.1l0,0-.08-.05-.06,0-.25-.18c-.27-.2-.56-.4-.83-.63a.23.23,0,0,0-.21,0h-.06a1.25,1.25,0,0,0-.91.47l0,0C1011.05,941.93,1002.43,948,997.33,948Zm14.95-58.19H1012a1.87,1.87,0,0,0-.57.12h0l-.1,0h0l-.07.06,0,0c-3.85,2-10,16.56-10.06,16.71l0,.11H1001c-.17,0-16.84.63-18.07,5.85S995.36,927,995.5,927.11l.1.07,0,.12c0,.05-.87,4.66-1.28,9.43-.68,7.87.34,10.09,1.32,10.56,4.27,2.06,15.52-5.9,16.28-6.43a1.33,1.33,0,0,1,.53-.43,1.43,1.43,0,0,1,.64-.17.58.58,0,0,1,.53.13c.26.21.54.42.82.61l.26.19,0,0a.3.3,0,0,1,.11.06c11.84,6.85,14,6.45,17,5.08,2.47-1.12.86-14.13,0-19.05l0-.09.07-.07c1.37-1.45,2.56-2.69,3.6-3.77,6.13-6.39,6.79-7.08,7-9.8l-.06-.26a1.42,1.42,0,0,0-.05-.22l0-.07a2.08,2.08,0,0,0-.19-.29c-.05-.06-.09-.13-.14-.2l-.53-.52c-3.8-3.57-18.3-6.06-18.44-6.09h-.11l0-.1c-4.56-11.58-7.78-15-9.68-15.86A3.21,3.21,0,0,0,1012.28,889.81Z"/><path class="cls-4" d="M452.5,310.44h30.19a4.34,4.34,0,0,1,3.74,2.13l19,31.75a4.36,4.36,0,0,0,7.48,0l19-31.76a4.38,4.38,0,0,1,3.74-2.12h30a4.36,4.36,0,0,1,3.62,6.78l-41,61.26a4.37,4.37,0,0,0-.74,2.43v44.14a4.36,4.36,0,0,1-4.36,4.36H495a4.36,4.36,0,0,1-4.36-4.36V380.91a4.37,4.37,0,0,0-.74-2.43l-41.05-61.25A4.36,4.36,0,0,1,452.5,310.44Z"/><path class="cls-4" d="M571,370q0-29.13,16.23-45.37t45.2-16.22q29.7,0,45.76,15.94T694.27,369q0,20.87-7,34.21A50,50,0,0,1,667,424q-13.28,7.42-33.07,7.43-20.13,0-33.31-6.41T579.2,404.74Q571,390.87,571,370Zm36.76.16q0,18,6.69,25.89t18.22,7.87q11.85,0,18.34-7.71t6.49-27.67q0-16.8-6.77-24.55t-18.38-7.75q-11.13,0-17.86,7.87T607.77,370.17Z"/><path class="cls-4" d="M795.84,310.44h28a4.36,4.36,0,0,1,4.36,4.36v66.52a60.57,60.57,0,0,1-2,15.67,46.66,46.66,0,0,1-15.67,24.28,37.68,37.68,0,0,1-10.66,6.19q-10.73,4-25.73,4a162.21,162.21,0,0,1-19-1.22A49.49,49.49,0,0,1,738,425.39a43,43,0,0,1-12.62-10.25,37.88,37.88,0,0,1-7.83-13.71,71.11,71.11,0,0,1-3.41-20.11V314.8a4.36,4.36,0,0,1,4.36-4.36h28a4.36,4.36,0,0,1,4.36,4.36V383q0,9.74,5.4,15.2t15,5.47q9.49,0,14.89-5.39t5.4-15.28V314.8A4.36,4.36,0,0,1,795.84,310.44Z"/><path class="cls-4" d="M908.42,314.8a4.36,4.36,0,0,1,4.36-4.36H963q16.15,0,26.09,4.39a42.44,42.44,0,0,1,16.44,12.57,52.27,52.27,0,0,1,9.41,19.07,88.44,88.44,0,0,1,2.92,23q0,19.07-4.34,29.58a49.13,49.13,0,0,1-12,17.61,39.36,39.36,0,0,1-16.56,9.45A85,85,0,0,1,963,429.41H912.78a4.36,4.36,0,0,1-4.36-4.36Zm36.76,26.94V398a4.36,4.36,0,0,0,4.36,4.35h4.65q11.52,0,16.39-2.55t7.63-8.93q2.76-6.36,2.76-20.65,0-18.9-6.17-25.89t-20.45-7h-4.81A4.36,4.36,0,0,0,945.18,341.74Z"/><path class="cls-4" d="M1043,310.44h28.13a4.37,4.37,0,0,1,4.36,4.36V425.05a4.36,4.36,0,0,1-4.36,4.36H1043a4.36,4.36,0,0,1-4.36-4.36V314.8A4.37,4.37,0,0,1,1043,310.44Z"/><path class="cls-4" d="M1102.37,314.8a4.36,4.36,0,0,1,4.35-4.36H1157q16.14,0,26.09,4.39a42.48,42.48,0,0,1,16.43,12.57,52,52,0,0,1,9.41,19.07,88.44,88.44,0,0,1,2.92,23q0,19.07-4.34,29.58a49,49,0,0,1-12,17.61,39.33,39.33,0,0,1-16.55,9.45,85.06,85.06,0,0,1-21.91,3.25h-50.26a4.36,4.36,0,0,1-4.35-4.36Zm36.76,26.94V398a4.35,4.35,0,0,0,4.35,4.35h4.65q11.53,0,16.4-2.55t7.62-8.93q2.76-6.36,2.76-20.65,0-18.9-6.16-25.89t-20.45-7h-4.82A4.35,4.35,0,0,0,1139.13,341.74Z"/><path class="cls-4" d="M1292.39,310.44h28.13a4.36,4.36,0,0,1,4.35,4.36V425.05a4.36,4.36,0,0,1-4.35,4.36h-28.13a4.36,4.36,0,0,1-4.36-4.36V314.8A4.36,4.36,0,0,1,1292.39,310.44Z"/><path class="cls-4" d="M1347.25,310.44h103a4.36,4.36,0,0,1,4.36,4.36v20.66a4.36,4.36,0,0,1-4.36,4.36H1421.5a4.36,4.36,0,0,0-4.36,4.36v80.87a4.36,4.36,0,0,1-4.36,4.36h-28a4.36,4.36,0,0,1-4.36-4.36V344.18a4.36,4.36,0,0,0-4.36-4.36h-28.77a4.36,4.36,0,0,1-4.36-4.36V314.8A4.36,4.36,0,0,1,1347.25,310.44Z"/><path class="cls-4" d="M1473.51,310.44h26.59a4.37,4.37,0,0,1,4.36,4.36v22.48a4.9,4.9,0,0,1,0,.54l-6.3,50.36a4.37,4.37,0,0,1-4.33,3.82h-14.12a4.37,4.37,0,0,1-4.33-3.83l-6.15-50.36a4.58,4.58,0,0,1,0-.53V314.8A4.36,4.36,0,0,1,1473.51,310.44Zm1.22,89.84H1499a4.36,4.36,0,0,1,4.36,4.35v20.42a4.36,4.36,0,0,1-4.36,4.36h-24.23a4.36,4.36,0,0,1-4.36-4.36V404.63A4.36,4.36,0,0,1,1474.73,400.28Z"/><path class="cls-5" d="M459.79,314.09H490a4.34,4.34,0,0,1,3.74,2.12l19,31.75a4.36,4.36,0,0,0,7.48,0l19-31.76a4.35,4.35,0,0,1,3.74-2.12h30a4.36,4.36,0,0,1,3.62,6.78l-41,61.26a4.34,4.34,0,0,0-.74,2.42v44.14a4.36,4.36,0,0,1-4.36,4.36H502.32a4.36,4.36,0,0,1-4.36-4.36V384.55a4.34,4.34,0,0,0-.74-2.42l-41.05-61.26A4.35,4.35,0,0,1,459.79,314.09Z"/><path class="cls-5" d="M578.29,373.65q0-29.13,16.23-45.36t45.2-16.23q29.7,0,45.77,15.94t16.07,44.68q0,20.85-7,34.2a50,50,0,0,1-20.29,20.77q-13.26,7.43-33.07,7.43-20.11,0-33.31-6.41t-21.38-20.29Q578.3,394.51,578.29,373.65Zm36.77.16q0,18,6.69,25.89T640,407.57q11.85,0,18.34-7.71t6.49-27.67q0-16.8-6.78-24.55t-18.38-7.75q-11.11,0-17.85,7.87T615.06,373.81Z"/><path class="cls-5" d="M803.13,314.09h28a4.36,4.36,0,0,1,4.35,4.36V385a61,61,0,0,1-2,15.67,46.69,46.69,0,0,1-15.67,24.29,38.07,38.07,0,0,1-10.67,6.19q-10.71,4-25.72,4a162.07,162.07,0,0,1-18.95-1.22A49.71,49.71,0,0,1,745.3,429a43,43,0,0,1-12.62-10.26,37.77,37.77,0,0,1-7.83-13.7A71.17,71.17,0,0,1,721.44,385V318.45a4.36,4.36,0,0,1,4.36-4.36h28a4.36,4.36,0,0,1,4.36,4.36v68.2q0,9.74,5.4,15.21t15,5.47q9.5,0,14.89-5.39t5.39-15.29v-68.2A4.36,4.36,0,0,1,803.13,314.09Z"/><path class="cls-5" d="M915.71,318.45a4.36,4.36,0,0,1,4.36-4.36h50.25q16.15,0,26.09,4.38a42.26,42.26,0,0,1,16.43,12.58,52.06,52.06,0,0,1,9.42,19.07,88.79,88.79,0,0,1,2.92,23q0,19.08-4.34,29.58a49,49,0,0,1-12.05,17.61,39.39,39.39,0,0,1-16.56,9.46,85.39,85.39,0,0,1-21.91,3.24H920.07a4.36,4.36,0,0,1-4.36-4.36Zm36.76,26.94v56.28a4.36,4.36,0,0,0,4.36,4.36h4.65q11.52,0,16.39-2.56t7.63-8.92q2.76-6.37,2.76-20.66,0-18.9-6.17-25.88t-20.45-7h-4.81A4.36,4.36,0,0,0,952.47,345.39Z"/><path class="cls-5" d="M1050.31,314.09h28.13a4.36,4.36,0,0,1,4.35,4.36V428.69a4.36,4.36,0,0,1-4.35,4.36h-28.13a4.36,4.36,0,0,1-4.36-4.36V318.45A4.36,4.36,0,0,1,1050.31,314.09Z"/><path class="cls-5" d="M1109.65,318.45a4.36,4.36,0,0,1,4.36-4.36h50.26q16.14,0,26.09,4.38a42.41,42.41,0,0,1,16.43,12.58,52,52,0,0,1,9.41,19.07,88.37,88.37,0,0,1,2.92,23q0,19.08-4.34,29.58a48.83,48.83,0,0,1-12,17.61,39.41,39.41,0,0,1-16.55,9.46,85.45,85.45,0,0,1-21.91,3.24H1114a4.36,4.36,0,0,1-4.36-4.36Zm36.76,26.94v56.28a4.36,4.36,0,0,0,4.36,4.36h4.65q11.52,0,16.39-2.56t7.63-8.92q2.76-6.37,2.76-20.66,0-18.9-6.17-25.88t-20.45-7h-4.81A4.36,4.36,0,0,0,1146.41,345.39Z"/><path class="cls-5" d="M1299.68,314.09h28.12a4.36,4.36,0,0,1,4.36,4.36V428.69a4.36,4.36,0,0,1-4.36,4.36h-28.12a4.36,4.36,0,0,1-4.36-4.36V318.45A4.36,4.36,0,0,1,1299.68,314.09Z"/><path class="cls-5" d="M1354.53,314.09h103a4.36,4.36,0,0,1,4.36,4.36v20.66a4.36,4.36,0,0,1-4.36,4.35h-28.78a4.36,4.36,0,0,0-4.35,4.36v80.87a4.36,4.36,0,0,1-4.36,4.36h-28a4.36,4.36,0,0,1-4.35-4.36V347.82a4.36,4.36,0,0,0-4.36-4.36h-28.78a4.35,4.35,0,0,1-4.35-4.35V318.45A4.36,4.36,0,0,1,1354.53,314.09Z"/><path class="cls-5" d="M1480.8,314.09h26.58a4.36,4.36,0,0,1,4.36,4.36v22.47a4.89,4.89,0,0,1,0,.54l-6.31,50.37a4.34,4.34,0,0,1-4.32,3.81H1487a4.35,4.35,0,0,1-4.32-3.83l-6.15-50.36a3,3,0,0,1,0-.52V318.45A4.36,4.36,0,0,1,1480.8,314.09Zm1.22,89.83h24.23a4.36,4.36,0,0,1,4.36,4.36v20.41a4.36,4.36,0,0,1-4.36,4.36H1482a4.36,4.36,0,0,1-4.36-4.36V408.28A4.36,4.36,0,0,1,1482,403.92Z"/><path class="cls-6" d="M538.62,821.84s-10.06,43-10.51,48.92-6.86,21-9.15,62.18,19.66,42.53,19.66,42.53,24.23,1.37,24.69-23.78,0-63.1,0-63.1h16l5.94,35.67s12.8,61.27,34.29,65.38,38.41,1.83,35.21-22.86-24.69-70-24.69-70L610,840.13l-4.12-24.69-67.67,3.2Z"/><path d="M634.4,991.87a80.76,80.76,0,0,1-15-1.65c-21.62-4.14-34.23-63.32-34.76-65.84l-5.86-35.2H563.91c.05,4.94.41,39.36,0,62.52-.14,7.74-2.51,13.8-7.06,18-7.4,6.87-17.8,6.38-18.25,6.34-.23,0-22.51-1.88-20.21-43.14,1.68-30.36,5.62-46.63,7.74-55.37a53.34,53.34,0,0,0,1.4-6.82c.45-5.83,9.83-46,10.51-48.91l-.54-3.73,68.84-3.25,4.2,25.2,20.09,56.6c.2.4,21.55,45.58,24.72,70.08,1.2,9.28-.4,16.07-4.75,20.17C647,990.22,641.77,991.87,634.4,991.87ZM562.72,888h17.09l6,36.15c.12.59,13,60.91,33.82,64.91C634.91,992,644.48,991,649.78,986c4.13-3.88,5.56-10.15,4.4-19.17-3.16-24.31-24.43-69.32-24.64-69.77L609.4,840.32l-4.06-24.27-66.5,3.14.38,2.67,0,.11c-.1.43-10.05,43-10.5,48.84a51.25,51.25,0,0,1-1.43,7c-2.11,8.71-6,24.91-7.71,55.17-2.23,40,18.9,41.89,19.11,41.9s10.36.5,17.39-6c4.3-4,6.54-9.76,6.68-17.16.45-24.85,0-62.7,0-63.08Z"/><ellipse class="cls-7" cx="573.74" cy="687.94" rx="175.29" ry="140.52"/><circle class="cls-8" cx="669.12" cy="680.17" r="79.27"/><path d="M669.12,760.09A79.92,79.92,0,1,1,749,680.17,80,80,0,0,1,669.12,760.09Zm0-158.54a78.62,78.62,0,1,0,78.62,78.62A78.71,78.71,0,0,0,669.12,601.55Z"/><circle class="cls-9" cx="665.1" cy="682.76" r="73.72"/><circle cx="652.61" cy="690.72" r="59.59"/><circle class="cls-8" cx="624.26" cy="702.05" r="21.88"/><circle class="cls-8" cx="478.37" cy="682.76" r="79.27"/><path d="M399.75,682.76a78.46,78.46,0,0,1,27.77-59.91c-.13-.45-.26-.9-.4-1.35a79.76,79.76,0,0,0-3.63,119.28c.33-.28.64-.58.95-.88A78.41,78.41,0,0,1,399.75,682.76Z"/><path d="M555.14,660.58c-.47-.05-.94-.12-1.4-.18a78.57,78.57,0,0,1-129.3,79.5c-.31.3-.62.6-.95.88a79.87,79.87,0,0,0,131.65-80.2Z"/><path d="M435.29,617A78.58,78.58,0,0,1,553.74,660.4c.46.06.93.13,1.4.18a79.84,79.84,0,0,0-128-39.08c.14.45.27.9.4,1.35A78.71,78.71,0,0,1,435.29,617Z"/><circle class="cls-9" cx="482.39" cy="685.36" r="73.72"/><circle cx="494.88" cy="693.31" r="59.59"/><circle class="cls-8" cx="519.38" cy="704.64" r="21.88"/><path d="M732.34,740s-22.91-12.09-65.84-15.85S599.16,759,599.16,759L663,784.88Z"/><path class="cls-6" d="M732.34,741.56s-22.91-12.09-65.84-15.86-67.34,34.87-67.34,34.87L663,786.45Z"/><line class="cls-10" x1="551.87" y1="651.38" x2="562.09" y2="657.05"/><path d="M410.91,733.22s24.36-9.26,67.78-7.87S542,768,542,768L475,786.09Z"/><path class="cls-6" d="M410.91,734.39s24.32-9.27,67.66-7.89,63.15,42.66,63.15,42.66L474.9,787.24Z"/><path class="cls-6" d="M532.23,848.68S487,802.76,481.72,785.9c-5.36-17.21-8.87-26-1.84-40.65s27.6,3.64,27.6,3.64,17,24.07,19.59,36.2,14.1,45.71,14.1,45.71Z"/><path d="M532.44,850l-.77-.78c-1.85-1.88-45.45-46.25-50.7-63.1l-1-3.06c-4.88-15.53-7.57-24.09-.84-38.16,1.59-3.32,4-5.31,7.07-5.94,9.1-1.83,21.25,8.88,21.76,9.34l.12.13c.7,1,17.16,24.33,19.72,36.49,2.51,11.94,14,45.28,14.07,45.62l.11.31Zm-44-109.68a10,10,0,0,0-1.9.18c-2.59.52-4.6,2.23-6,5.07-6.46,13.52-3.83,21.87.93,37l1,3.06c4.76,15.3,43.58,55.55,49.55,61.69l8.3-16.61c-1.17-3.43-11.61-34.08-14-45.49s-18.36-34.34-19.41-35.83C506,748.64,496.24,740.33,488.44,740.33Z"/><path class="cls-6" d="M608,826s33-36.24,38.49-43.41c0,0,12.93-27.1,18.78-38.18s18.16-8.31,18.16-8.31,10.47,2.77,8,19.39a89.87,89.87,0,0,1-10.78,30.17s-15.39,20.32-28.32,25.25-39.1,21.86-42.18,21.55S608,826,608,826Z"/><path d="M610.24,833.21h-.14a2.76,2.76,0,0,1-1.94-1.08c-1.51-1.94-1-5.84-.91-6.28l0-.24.15-.17c.33-.36,32.81-36.08,38.4-43.3.76-1.59,13.12-27.44,18.75-38.12,6.06-11.49,18.91-8.75,19-8.71s11.15,3.15,8.61,20.27c-2.46,16.59-10.8,30.33-10.88,30.46-.68.9-15.72,20.62-28.72,25.57-6.64,2.53-16.7,8.2-25.58,13.2C617.32,830.28,612,833.21,610.24,833.21Zm-1.47-6.91c-.14,1.16-.24,3.74.63,4.86a1.17,1.17,0,0,0,.86.48h0c1.41,0,9.14-4.35,16-8.2,8.93-5,19.05-10.73,25.8-13.3,12.57-4.79,27.82-24.79,28-25s8.21-13.55,10.62-29.81c2.33-15.75-7.33-18.5-7.43-18.52-.45-.1-11.78-2.49-17.27,7.92-5.78,10.94-18.64,37.87-18.77,38.15l-.08.13C641.8,790,611.57,823.22,608.77,826.3Z"/><path d="M556.7,744.77a56.34,56.34,0,0,0,2.38,5.48c1,2,1.72,4,2.84,5.86,1.78,3,3.34,6.45,6,8.2s7.07,1.19,10.13.22c4-1.26,6.49-5.15,8.49-8.83q2.86-5.28,5.3-10.76a.65.65,0,0,1,1.24.39,43.89,43.89,0,0,1-4.61,14.18c-3.31,5.86-9.09,10.7-15.79,11.2a10.79,10.79,0,0,1-6.44-1.32c-2.47-1.49-3.95-4.14-5.32-6.68a71.53,71.53,0,0,1-6-13.37c-.59-2-.41.08-.59-2-.07-.8,1.22-2.82,2.73-1.56"/><path class="cls-9" d="M539,836.88h69.67l-.7-5s-1-.78-.87-5.25c0,0-27.22,2.87-31.09,2.77s-32.08-1.14-35.44-2.77l1.33,3.94Z"/><polygon points="532.05 853.52 614.08 853.52 609.4 840.32 608.68 836.88 539.01 836.88 533.11 848.68 532.05 853.52"/><polygon class="cls-9" points="522.17 906.38 633.82 906.36 629.63 896.96 613.99 853.52 531.96 853.52 530.06 862.48 529.08 868.1 528.6 870.8 523.67 894.25 521.83 906.38 522.17 906.38"/><polygon points="598.66 964.4 653.96 965.36 654.57 969.66 613.61 968.68 600.67 968.68 598.66 964.4"/><polygon points="519.56 948.1 563 949.26 562.88 953.57 531.28 952.81 520.41 953.13 519.56 948.1"/><path d="M520.4,952.59l42.3.42s.49,20.48-21.36,22.19C541.34,975.2,526,977.07,520.4,952.59Z"/><path d="M600.42,968.14l54.15,1.52s4.51,19.24-17.34,21a37,37,0,0,1-19.63-2.13C610.39,985.41,603.35,978.25,600.42,968.14Z"/><path class="cls-6" d="M534.38,952.59s2,7.82,7,7.22,5.62-7.22,5.62-7.22Z"/><path class="cls-6" d="M621.66,967.59s3.9,8.6,9,8.34,7.65-8.34,7.65-8.34Z"/><polygon points="521.79 906.14 633.82 906.36 634.07 906.92 521.79 906.92 521.79 906.14"/><path d="M497.5,561.37c7-4.42,20.12-9,26.47-9.92,11.09-1.57,20-2.73,31.21,1.43.88,2.77,3.61,2,4,5.1,4.55,40.24-37.13,95.29-93.1,122.95-35.22,17.41-67.71,19.81-88.09,9.18,14.35-12.07,20.22-36.81,32.41-58.75,6.89-12.4,17.49-24.79,27.49-32.3,8.7-6.53,14.19-11.11,20-16,8.09-6.81,11-7.4,24.51-15.07C484.27,566.91,495.9,562.75,497.5,561.37Z"/><path d="M598.57,549.32c-23.82-6.71-49.93,1.94-65.83,14.12,0,3.13-3,3.15-2.35,6.5,9,43.07,70.64,87.3,137.71,98.79,42.22,7.23,76.51-.23,93.9-17.49-18.9-8.1-26.89-35.2-46.91-54.19-11.31-10.73-21.68-21.55-34.54-26.26-11.18-4.1-19.89-9-27.57-12.25-10.65-4.57-14-4.08-30.53-7.9C620.15,550.11,573.85,543.57,598.57,549.32Z"/><path d="M559.68,574.55c8.21-1.64,16.27-7.63,20.77-13.08-.2-.82,8.33-7.39,7.9-8.17-5.48-10-35.83-6.68-58.51-.13-14.28,4.12-32.87,7.35-37.56,14.34,6.68-.56,18.68,9,26.36,11.14,4.35,1.2,8.39,2.55,12.88,2,3.91-.53,7.05-.49,9.77-.72,3.76-.32,4.84-.93,10.48-2.29C552.55,577.42,568.13,572.53,559.68,574.55Z"/><ellipse cx="717.75" cy="568.35" rx="44.86" ry="52.71" transform="matrix(0.09, -1, 1, 0.09, 88.54, 1233.38)"/><ellipse cx="412.99" cy="584.68" rx="44.86" ry="52.71" transform="translate(-205.72 944.69) rotate(-84.96)"/><path class="cls-9" d="M411.46,632.68s52.9-18.29,55.81-55.57c1.54-19.8-18.16,30.1-42.94,40.26C404.56,625.47,400.86,635.55,411.46,632.68Z"/><path class="cls-9" d="M726,617.38s-54.65-12.14-61.78-48.84c-3.79-19.5,21.47,27.83,47.25,35.1C732,609.43,736.82,619,726,617.38Z"/><path class="cls-2" d="M699.55,583.12c0-.07,0-.13,0-.2a.83.83,0,0,0,0-.15s0,0,0-.06h0a3.78,3.78,0,0,0-.22-.33l-.37-.37c-2.57-2.41-12.26-4-12.26-4-3-7.67-5.18-10-6.46-10.56a2.32,2.32,0,0,0-.74-.1h-.09a2.07,2.07,0,0,0-.42.08l-.08,0,0,0a.23.23,0,0,0-.07.06c-2.62,1.34-6.71,11.11-6.71,11.11s-11.22.37-12.07,3.95,8.39,9.62,8.39,9.62-2.29,12.19.1,13.35c2.91,1.4,10.37-3.9,10.9-4.28a.9.9,0,0,1,.32-.26.87.87,0,0,1,.39-.1.29.29,0,0,1,.25.06c.23.19.47.35.71.53l.06,0,0,0c7.79,4.5,9.3,4.31,11.37,3.37s.09-12.73.09-12.73C698.88,585.5,699.42,585.28,699.55,583.12Z"/><path class="cls-3" d="M701.14,583.12l0-.2,0-.15s0,0,0-.06h0a2.44,2.44,0,0,0-.23-.33,4.3,4.3,0,0,0-.37-.37c-2.57-2.41-12.25-4-12.25-4-3-7.67-5.18-10-6.47-10.56a2.26,2.26,0,0,0-.73-.1h-.1a1.86,1.86,0,0,0-.41.08l-.09,0,0,0a.23.23,0,0,0-.07.06c-2.62,1.34-6.71,11.11-6.71,11.11s-11.21.37-12.06,3.95,8.39,9.62,8.39,9.62-2.29,12.19.09,13.35c2.91,1.4,10.38-3.9,10.91-4.28a.82.82,0,0,1,.32-.26.83.83,0,0,1,.38-.1.28.28,0,0,1,.25.06c.23.19.47.35.71.53l.06,0,0,0c7.78,4.5,9.29,4.31,11.36,3.37s.09-12.73.09-12.73C700.47,585.5,701,585.28,701.14,583.12Z"/><path d="M671.17,605.89a2.83,2.83,0,0,1-1.24-.25c-2.37-1.14-.4-12.24-.18-13.4-.92-.61-9.2-6.2-8.38-9.7s11-4,12.11-4.06c.41-1,4.18-9.75,6.72-11.08l.06-.06.07,0,0,0h0a1.4,1.4,0,0,1,.45-.1h.1a2.33,2.33,0,0,1,.78.1c1.31.58,3.48,2.89,6.52,10.56,1,.17,9.77,1.75,12.25,4.08l.38.38.09.13a1.7,1.7,0,0,1,.15.22l0,.1a.83.83,0,0,0,0,.15l0,.22v0c-.12,1.9-.55,2.35-4.67,6.65l-2.34,2.44c.17,1,1.9,11.86-.18,12.8-2.24,1-3.91,1-11.47-3.37l0,0-.05,0,0,0-.16-.12-.56-.41a.14.14,0,0,0-.13,0h0a.84.84,0,0,0-.33.08.77.77,0,0,0-.27.23l0,0C680.24,601.87,674.54,605.89,671.17,605.89Zm9.88-38.47h-.16a1.61,1.61,0,0,0-.38.08h0l-.07,0h0l0,0,0,0c-2.55,1.3-6.61,10.95-6.65,11l0,.08h-.08c-.11,0-11.13.42-12,3.86s8.24,9.43,8.34,9.49l.07,0,0,.08s-.57,3.08-.85,6.23c-.44,5.21.23,6.67.88,7,2.82,1.36,10.26-3.89,10.76-4.25a1,1,0,0,1,.35-.28,1,1,0,0,1,.42-.11.43.43,0,0,1,.36.08c.17.15.35.28.53.41l.18.12h0a.18.18,0,0,1,.07.05c7.84,4.52,9.24,4.26,11.24,3.35,1.63-.74.57-9.34,0-12.59v-.06l0,0,2.39-2.49c4.05-4.22,4.49-4.68,4.6-6.47l0-.18,0-.14,0,0a1.27,1.27,0,0,0-.13-.19l-.09-.13-.35-.35c-2.51-2.35-12.1-4-12.2-4h-.06l0-.07c-3-7.65-5.15-9.92-6.4-10.48A2.15,2.15,0,0,0,681.05,567.42Z"/><path class="cls-2" d="M467.24,602.12l-.05-.2,0-.15a.11.11,0,0,1,0-.06h0a2.44,2.44,0,0,0-.23-.33,4.3,4.3,0,0,0-.37-.37c-2.57-2.41-12.25-4-12.25-4-3-7.67-5.18-10-6.47-10.56a2.26,2.26,0,0,0-.73-.1H447a1.86,1.86,0,0,0-.41.08l-.09,0,0,0-.07.06c-2.62,1.34-6.71,11.11-6.71,11.11s-11.21.37-12.06,3.95,8.39,9.62,8.39,9.62-2.29,12.19.09,13.35c2.91,1.4,10.38-3.9,10.91-4.28a.82.82,0,0,1,.32-.26.83.83,0,0,1,.38-.1.31.31,0,0,1,.26.06c.22.19.46.35.7.53l.06,0,.05,0c7.78,4.5,9.29,4.31,11.36,3.37s.1-12.73.1-12.73C466.57,604.5,467.1,604.28,467.24,602.12Z"/><path class="cls-3" d="M468.82,602.12c0-.07,0-.13,0-.2a.83.83,0,0,0,0-.15.2.2,0,0,1,0-.06h0a3.78,3.78,0,0,0-.22-.33l-.37-.37c-2.57-2.41-12.26-4-12.26-4-3-7.67-5.18-10-6.46-10.56a2.32,2.32,0,0,0-.74-.1h-.09a2,2,0,0,0-.42.08l-.08,0,0,0a.23.23,0,0,0-.07.06c-2.62,1.34-6.71,11.11-6.71,11.11s-11.22.37-12.07,3.95,8.39,9.62,8.39,9.62-2.29,12.19.1,13.35c2.91,1.4,10.37-3.9,10.9-4.28a.9.9,0,0,1,.32-.26.87.87,0,0,1,.39-.1.29.29,0,0,1,.25.06c.23.19.47.35.71.53l.06,0,0,0c7.79,4.5,9.3,4.31,11.37,3.37s.09-12.73.09-12.73C468.15,604.5,468.69,604.28,468.82,602.12Z"/><path d="M438.85,624.89a2.89,2.89,0,0,1-1.24-.25c-2.36-1.14-.39-12.24-.18-13.4-.92-.61-9.2-6.2-8.37-9.7s11-4,12.1-4.06c.41-1,4.18-9.75,6.72-11.08l.07-.06.06,0,.06,0h0a1.46,1.46,0,0,1,.46-.1h.1a2.3,2.3,0,0,1,.77.1c1.31.58,3.49,2.89,6.52,10.56.95.17,9.77,1.75,12.25,4.08a3.36,3.36,0,0,1,.38.38l.1.13a1.64,1.64,0,0,1,.14.22l0,.1a.83.83,0,0,1,0,.15l.05.22v0c-.12,1.9-.55,2.35-4.68,6.65l-2.34,2.44c.17,1,1.91,11.86-.17,12.8-2.25,1-3.91,1-11.48-3.37l0,0-.06,0,0,0-.16-.12-.55-.41a.15.15,0,0,0-.14,0h0a.83.83,0,0,0-.32.08.81.81,0,0,0-.28.23l0,0C447.92,620.87,442.22,624.89,438.85,624.89Zm9.88-38.47h-.16a1.61,1.61,0,0,0-.38.08h0l-.06,0h0l0,0,0,0c-2.54,1.3-6.6,10.95-6.65,11l0,.08h-.08c-.11,0-11.13.42-11.95,3.86s8.25,9.43,8.34,9.49l.07,0v.08s-.58,3.08-.85,6.23c-.45,5.21.23,6.67.87,7,2.83,1.36,10.26-3.89,10.76-4.25a1,1,0,0,1,.36-.28,1,1,0,0,1,.42-.11.41.41,0,0,1,.35.08c.17.15.36.28.54.41l.17.12h0l.07.05c7.83,4.52,9.24,4.26,11.23,3.35,1.63-.74.57-9.34,0-12.59v-.06l0,0,2.38-2.49c4.06-4.22,4.49-4.68,4.61-6.47l0-.18c0-.05,0-.1,0-.14s0,0,0,0l-.12-.19a1.13,1.13,0,0,1-.1-.13c-.08-.09-.19-.2-.35-.35-2.51-2.35-12.09-4-12.19-4h-.07l0-.07c-3-7.65-5.14-9.92-6.39-10.48A2.16,2.16,0,0,0,448.73,586.42Z"/></svg>
