<svg id="Layer_2" data-name="Layer 2" xmlns="http://www.w3.org/2000/svg" width="280" height="135" viewBox="0 0 280 135"><defs><style>.cls-1{fill:#ff73a0;}.cls-1,.cls-2,.cls-3{stroke:#000;stroke-miterlimit:10;}.cls-3{fill:#e36ea6;}</style></defs><path class="cls-1" d="M175.28,107.36s16.87,12.85,31.53,17.89l26.69-13.37"/><path class="cls-1" d="M206.85,125.7l-.17-.06c-14.56-5-31.49-17.82-31.66-18l.51-.66c.17.12,16.86,12.77,31.26,17.77l26.52-13.3.38.75Z"/><path class="cls-2" d="M202.47,122.25a118.4,118.4,0,0,1-14.82-6.84c-7.76-4.26-39-23.46-51.84-59.25-5.13-14.24-3.34-23.14-2.54-26.33.44-1.74,4.27-16.07,16.74-22.9C164.1-.79,184.53,3.62,198.74,19l2.47,2.44,1.26,1.11L206.2,19c14.2-15.36,34.63-19.77,48.72-12,12.47,6.83,16.3,21.16,16.74,22.9.81,3.19,2.59,12.09-2.54,26.33-12.88,35.79-44.07,55-51.84,59.25a119.07,119.07,0,0,1-14.81,6.84"/><path class="cls-2" d="M202.47,122.69l-.15,0a119.64,119.64,0,0,1-14.87-6.86c-6.37-3.5-38.83-22.78-52-59.48-3.56-9.89-4.44-19.08-2.56-26.57.68-2.69,4.68-16.45,16.95-23.17,14.62-8,35.33-2.9,49.23,12.13l2.46,2.43,1,.84,3.45-3.29c13.89-15,34.59-20.11,49.21-12.11,12.27,6.72,16.27,20.48,16.95,23.17,1.89,7.49,1,16.68-2.55,26.57-13.21,36.7-45.67,56-52,59.48a119.64,119.64,0,0,1-14.87,6.86ZM165.18,3.63a31,31,0,0,0-15,3.67c-12,6.55-15.87,20-16.54,22.63-1.84,7.34-1,16.36,2.53,26.09,13.11,36.41,45.33,55.56,51.65,59a117.84,117.84,0,0,0,14.62,6.76A117.71,117.71,0,0,0,217.08,115c6.32-3.46,38.54-22.61,51.65-59,3.5-9.73,4.38-18.75,2.53-26.09-.66-2.63-4.58-16.08-16.54-22.63-14.29-7.83-34.57-2.8-48.22,12l-4,3.84-1.55-1.37-2.49-2.46C189.1,9.18,176.67,3.63,165.18,3.63Z"/><path class="cls-1" d="M208.4,125.25a118.4,118.4,0,0,1-14.82-6.84c-7.76-4.26-39-23.46-51.84-59.25-5.13-14.24-3.35-23.14-2.54-26.33.44-1.74,4.27-16.07,16.74-22.9C170,2.22,190.46,6.62,204.66,22l2.48,2.44,1.26,1.11L212.13,22c14.2-15.36,34.63-19.76,48.72-12,12.47,6.83,16.3,21.16,16.74,22.9.81,3.19,2.59,12.09-2.54,26.33-12.88,35.79-44.08,55-51.84,59.25a119.07,119.07,0,0,1-14.81,6.84"/><path class="cls-1" d="M208.4,125.7l-.15-.06a119.64,119.64,0,0,1-14.87-6.86c-6.37-3.49-38.83-22.78-52-59.48-3.56-9.89-4.45-19.07-2.56-26.57.68-2.69,4.68-16.45,17-23.16,14.62-8,35.33-2.91,49.23,12.12l2.46,2.43,1,.85,3.45-3.29c13.89-15,34.59-20.12,49.21-12.11C273.32,16.28,277.32,30,278,32.73c1.89,7.49,1,16.68-2.55,26.57-13.21,36.71-45.67,56-52,59.48a119,119,0,0,1-14.87,6.86ZM171.11,6.63a30.92,30.92,0,0,0-15,3.67c-12,6.55-15.87,20-16.54,22.63-1.85,7.34-1,16.36,2.53,26.09,13.11,36.42,45.33,55.56,51.65,59a118.56,118.56,0,0,0,14.62,6.75A119.11,119.11,0,0,0,223,118.05c6.32-3.47,38.54-22.61,51.65-59,3.5-9.73,4.38-18.75,2.53-26.09-.67-2.63-4.58-16.08-16.54-22.63-14.29-7.83-34.57-2.8-48.22,12l-4,3.84-1.55-1.37-2.49-2.45C195,12.18,182.6,6.63,171.11,6.63Z"/><path d="M27.72,52.72h5.42a2.6,2.6,0,0,1,2.6,2.6v6.82a2.6,2.6,0,0,0,2.6,2.6h6.4a2.6,2.6,0,0,0,2.6-2.6V55.32a2.59,2.59,0,0,1,2.6-2.6H55.4a2.59,2.59,0,0,1,2.6,2.6V84.47a2.6,2.6,0,0,1-2.6,2.61H49.94a2.6,2.6,0,0,1-2.6-2.61V75.78a2.59,2.59,0,0,0-2.6-2.6h-6.4a2.59,2.59,0,0,0-2.6,2.6v8.69a2.61,2.61,0,0,1-2.6,2.61H27.72a2.61,2.61,0,0,1-2.6-2.61V55.32A2.6,2.6,0,0,1,27.72,52.72Z"/><path d="M68.08,52.72h5.44a2.59,2.59,0,0,1,2.6,2.6V84.47a2.6,2.6,0,0,1-2.6,2.61H68.08a2.61,2.61,0,0,1-2.6-2.61V55.32A2.6,2.6,0,0,1,68.08,52.72Z"/><path d="M83.88,55.32a2.59,2.59,0,0,1,2.6-2.6H99.65A19,19,0,0,1,107.19,54a12.39,12.39,0,0,1,4.74,3.63,15.06,15.06,0,0,1,2.72,5.51,25.69,25.69,0,0,1,.85,6.66,23,23,0,0,1-1.26,8.54,14.07,14.07,0,0,1-3.48,5.09A11.49,11.49,0,0,1,106,86.14a24.89,24.89,0,0,1-6.33.94H86.48a2.6,2.6,0,0,1-2.6-2.61ZM94.5,63.1V76.67a2.59,2.59,0,0,0,2.6,2.6h0a11,11,0,0,0,4.73-.74A5,5,0,0,0,104,76a16.19,16.19,0,0,0,.79-6q0-5.46-1.78-7.48t-5.91-2h0A2.59,2.59,0,0,0,94.5,63.1Z"/><path d="M123.65,52.72H146.9a2.59,2.59,0,0,1,2.6,2.6v2.13a2.59,2.59,0,0,1-2.6,2.6H134.29a2.61,2.61,0,0,0-2.6,2.6v.26a2.6,2.6,0,0,0,2.6,2.6h11.32a2.6,2.6,0,0,1,2.6,2.6v1.81a2.59,2.59,0,0,1-2.6,2.6H134.29a2.61,2.61,0,0,0-2.6,2.6v1.57a2.6,2.6,0,0,0,2.6,2.6h13.13A2.61,2.61,0,0,1,150,81.9v2.57a2.61,2.61,0,0,1-2.6,2.61H123.65a2.61,2.61,0,0,1-2.6-2.61V55.32A2.6,2.6,0,0,1,123.65,52.72Z"/><path d="M22,124.29H13.84a2.61,2.61,0,0,0-2.5,1.87l-.57,1.94A2.6,2.6,0,0,1,8.28,130H3.14A2.6,2.6,0,0,1,.7,126.45l11-29.16A2.61,2.61,0,0,1,14.1,95.6h8a2.61,2.61,0,0,1,2.44,1.69l11,29.16A2.59,2.59,0,0,1,33,130H27.6a2.6,2.6,0,0,1-2.49-1.84l-.6-2A2.6,2.6,0,0,0,22,124.29ZM20.71,113.5l-.26-.85a2.6,2.6,0,0,0-5,0l-.26.84a2.6,2.6,0,0,0,2.49,3.36h.52A2.59,2.59,0,0,0,20.71,113.5Z"/><path d="M42.83,95.6h5.94a2.6,2.6,0,0,1,2.15,1.14l7.41,10.89a2.6,2.6,0,0,0,4.75-1.46v-8a2.61,2.61,0,0,1,2.6-2.61h4.81a2.6,2.6,0,0,1,2.6,2.61v29.15a2.59,2.59,0,0,1-2.6,2.6h-6a2.59,2.59,0,0,1-2.15-1.13L55,118.06a2.6,2.6,0,0,0-4.75,1.47v7.83a2.6,2.6,0,0,1-2.61,2.6H42.83a2.6,2.6,0,0,1-2.6-2.6V98.21A2.61,2.61,0,0,1,42.83,95.6Z"/><path d="M80.29,98.21a2.6,2.6,0,0,1,2.6-2.61H96.06a18.91,18.91,0,0,1,7.53,1.27,12.16,12.16,0,0,1,4.75,3.63,15.06,15.06,0,0,1,2.72,5.51,25.64,25.64,0,0,1,.84,6.66,23,23,0,0,1-1.25,8.54,14.32,14.32,0,0,1-3.48,5.09,11.56,11.56,0,0,1-4.78,2.73,24.84,24.84,0,0,1-6.33.93H82.89a2.59,2.59,0,0,1-2.6-2.6ZM90.9,106v13.57a2.61,2.61,0,0,0,2.6,2.6h0a11,11,0,0,0,4.74-.74,5,5,0,0,0,2.2-2.58,16.15,16.15,0,0,0,.8-6c0-3.64-.59-6.14-1.78-7.48s-3.16-2-5.91-2h0A2.61,2.61,0,0,0,90.9,106Z"/><path d="M137.2,118.36l5-.31a2.63,2.63,0,0,1,2.65,1.83,5.82,5.82,0,0,0,.9,1.78,5.63,5.63,0,0,0,4.69,2.08,5.17,5.17,0,0,0,3.5-1.06,3.07,3.07,0,0,0,.06-4.87q-1.17-1.05-5.44-2-7-1.56-10-4.17a8.37,8.37,0,0,1-3-6.63,9.05,9.05,0,0,1,1.54-5,10.15,10.15,0,0,1,4.62-3.7A21.51,21.51,0,0,1,150.17,95q6.59,0,10,2.45a9.33,9.33,0,0,1,3.37,4.57,2.58,2.58,0,0,1-2.32,3.4l-4.92.29a2.61,2.61,0,0,1-2.53-1.63,4.24,4.24,0,0,0-1.17-1.62,5.35,5.35,0,0,0-3.53-1.06,4.24,4.24,0,0,0-2.79.79,2.42,2.42,0,0,0-.94,1.91,1.9,1.9,0,0,0,.78,1.47,8.59,8.59,0,0,0,3.56,1.27,44.65,44.65,0,0,1,10,3,10.62,10.62,0,0,1,4.39,3.81,9.71,9.71,0,0,1,1.37,5.09,10.88,10.88,0,0,1-1.83,6.09,11.42,11.42,0,0,1-5.11,4.23,20.68,20.68,0,0,1-8.27,1.44q-8.78,0-12.14-3.37a12.65,12.65,0,0,1-3.22-5.36A2.62,2.62,0,0,1,137.2,118.36Z"/><path d="M173.37,95.55h23.25a2.59,2.59,0,0,1,2.6,2.6v2.13a2.6,2.6,0,0,1-2.6,2.61H184a2.59,2.59,0,0,0-2.6,2.6v.25a2.6,2.6,0,0,0,2.6,2.61h11.32a2.59,2.59,0,0,1,2.6,2.6v1.8a2.59,2.59,0,0,1-2.6,2.6H184a2.6,2.6,0,0,0-2.6,2.61v1.57a2.6,2.6,0,0,0,2.6,2.6h13.12a2.6,2.6,0,0,1,2.61,2.6v2.58a2.61,2.61,0,0,1-2.61,2.6H173.37a2.6,2.6,0,0,1-2.6-2.6V98.15A2.59,2.59,0,0,1,173.37,95.55Z"/><path d="M208,95.55h23.25a2.59,2.59,0,0,1,2.6,2.6v2.13a2.6,2.6,0,0,1-2.6,2.61H218.67a2.6,2.6,0,0,0-2.6,2.6v.25a2.61,2.61,0,0,0,2.6,2.61H230a2.6,2.6,0,0,1,2.61,2.6v1.8a2.6,2.6,0,0,1-2.61,2.6H218.67a2.61,2.61,0,0,0-2.6,2.61v1.57a2.61,2.61,0,0,0,2.6,2.6H231.8a2.59,2.59,0,0,1,2.6,2.6v2.58a2.6,2.6,0,0,1-2.6,2.6H208a2.61,2.61,0,0,1-2.6-2.6V98.15A2.6,2.6,0,0,1,208,95.55Z"/><path d="M242.77,95.55h5.41a2.59,2.59,0,0,1,2.6,2.6v3.35a2.6,2.6,0,0,0,4.58,1.69l5.77-6.73a2.57,2.57,0,0,1,2-.91h6.79a2.6,2.6,0,0,1,1.87,4.41l-6.87,7.11a2.6,2.6,0,0,0-.35,3.17L274.16,126a2.6,2.6,0,0,1-2.22,4H265.1a2.6,2.6,0,0,1-2.31-1.42L257.94,119a2.6,2.6,0,0,0-4.2-.61l-2.24,2.34a2.61,2.61,0,0,0-.72,1.8v4.74a2.6,2.6,0,0,1-2.6,2.6h-5.41a2.6,2.6,0,0,1-2.6-2.6V98.15A2.59,2.59,0,0,1,242.77,95.55Z"/><path class="cls-3" d="M29.72,55h5.42a2.6,2.6,0,0,1,2.6,2.6v6.82a2.59,2.59,0,0,0,2.6,2.6h6.4a2.59,2.59,0,0,0,2.6-2.6V57.57a2.59,2.59,0,0,1,2.6-2.6H57.4a2.59,2.59,0,0,1,2.6,2.6V86.73a2.6,2.6,0,0,1-2.6,2.6H51.94a2.6,2.6,0,0,1-2.6-2.6V78a2.6,2.6,0,0,0-2.6-2.6h-6.4a2.6,2.6,0,0,0-2.6,2.6v8.7a2.61,2.61,0,0,1-2.6,2.6H29.72a2.61,2.61,0,0,1-2.6-2.6V57.57A2.6,2.6,0,0,1,29.72,55Z"/><path class="cls-3" d="M70.08,55h5.44a2.59,2.59,0,0,1,2.6,2.6V86.73a2.6,2.6,0,0,1-2.6,2.6H70.08a2.61,2.61,0,0,1-2.6-2.6V57.57A2.6,2.6,0,0,1,70.08,55Z"/><path class="cls-3" d="M85.88,57.57a2.59,2.59,0,0,1,2.6-2.6h13.17a18.82,18.82,0,0,1,7.54,1.27,12.2,12.2,0,0,1,4.74,3.63,15,15,0,0,1,2.72,5.51A25.61,25.61,0,0,1,117.5,72a23.08,23.08,0,0,1-1.26,8.55,14,14,0,0,1-3.48,5.08A11.28,11.28,0,0,1,108,88.39a24.45,24.45,0,0,1-6.33.94H88.48a2.6,2.6,0,0,1-2.6-2.6ZM96.5,65.35V78.92a2.59,2.59,0,0,0,2.6,2.6h0a11,11,0,0,0,4.73-.73A5.11,5.11,0,0,0,106,78.21a16.29,16.29,0,0,0,.79-6q0-5.46-1.78-7.47t-5.91-2h0A2.6,2.6,0,0,0,96.5,65.35Z"/><path class="cls-3" d="M125.65,55H148.9a2.59,2.59,0,0,1,2.6,2.6V59.7a2.6,2.6,0,0,1-2.6,2.61H136.29a2.6,2.6,0,0,0-2.6,2.6v.26a2.61,2.61,0,0,0,2.6,2.6h11.32a2.59,2.59,0,0,1,2.6,2.6v1.8a2.59,2.59,0,0,1-2.6,2.6H136.29a2.61,2.61,0,0,0-2.6,2.61V79a2.61,2.61,0,0,0,2.6,2.6h13.13a2.6,2.6,0,0,1,2.6,2.6v2.58a2.61,2.61,0,0,1-2.6,2.6H125.65a2.61,2.61,0,0,1-2.6-2.6V57.57A2.6,2.6,0,0,1,125.65,55Z"/><path class="cls-3" d="M24.23,125.94H16.05a2.6,2.6,0,0,0-2.5,1.87L13,129.75a2.6,2.6,0,0,1-2.5,1.87H5.34a2.6,2.6,0,0,1-2.43-3.52l11-29.16a2.6,2.6,0,0,1,2.43-1.68h8a2.6,2.6,0,0,1,2.44,1.68l11,29.16a2.6,2.6,0,0,1-2.43,3.52H29.81a2.6,2.6,0,0,1-2.49-1.85l-.6-2A2.61,2.61,0,0,0,24.23,125.94Zm-1.31-10.79-.26-.85a2.6,2.6,0,0,0-5,0l-.26.85a2.59,2.59,0,0,0,2.49,3.35h.51A2.6,2.6,0,0,0,22.92,115.15Z"/><path class="cls-3" d="M45,97.26H51a2.61,2.61,0,0,1,2.15,1.13l7.41,10.89a2.6,2.6,0,0,0,4.75-1.46v-8a2.6,2.6,0,0,1,2.6-2.6H72.7a2.6,2.6,0,0,1,2.6,2.6V129a2.61,2.61,0,0,1-2.6,2.61h-6a2.6,2.6,0,0,1-2.15-1.14l-7.35-10.76a2.6,2.6,0,0,0-4.75,1.46V129a2.6,2.6,0,0,1-2.6,2.61H45a2.6,2.6,0,0,1-2.6-2.61V99.86A2.59,2.59,0,0,1,45,97.26Z"/><path class="cls-3" d="M82.49,99.86a2.6,2.6,0,0,1,2.61-2.6H98.27a18.92,18.92,0,0,1,7.53,1.26,12.35,12.35,0,0,1,4.75,3.63,15.06,15.06,0,0,1,2.72,5.51,25.69,25.69,0,0,1,.84,6.66,23.22,23.22,0,0,1-1.25,8.54,14.32,14.32,0,0,1-3.48,5.09,11.56,11.56,0,0,1-4.78,2.73,24.89,24.89,0,0,1-6.33.94H85.1A2.61,2.61,0,0,1,82.49,129Zm10.62,7.78v13.57a2.6,2.6,0,0,0,2.6,2.6h0a11,11,0,0,0,4.74-.74,5,5,0,0,0,2.2-2.58,16.15,16.15,0,0,0,.8-6c0-3.64-.6-6.13-1.78-7.48s-3.16-2-5.91-2h-.05A2.6,2.6,0,0,0,93.11,107.64Z"/><path class="cls-3" d="M139,120.06l5-.31a2.64,2.64,0,0,1,2.64,1.84,5.82,5.82,0,0,0,.9,1.78,5.63,5.63,0,0,0,4.69,2.08,5.15,5.15,0,0,0,3.51-1.07,3.19,3.19,0,0,0,1.23-2.47,3.13,3.13,0,0,0-1.18-2.39c-.78-.7-2.59-1.37-5.43-2q-7-1.57-10-4.17a8.41,8.41,0,0,1-3-6.64,9,9,0,0,1,1.53-5,10.15,10.15,0,0,1,4.62-3.7A21.51,21.51,0,0,1,152,96.67q6.58,0,10,2.45a9.31,9.31,0,0,1,3.37,4.56,2.59,2.59,0,0,1-2.32,3.41l-4.91.29a2.64,2.64,0,0,1-2.54-1.64,4.14,4.14,0,0,0-1.17-1.62,5.4,5.4,0,0,0-3.53-1.05,4.3,4.3,0,0,0-2.79.78,2.42,2.42,0,0,0-.93,1.91,1.9,1.9,0,0,0,.77,1.48,8.74,8.74,0,0,0,3.56,1.27,44.65,44.65,0,0,1,10,3,10.48,10.48,0,0,1,4.39,3.81,9.71,9.71,0,0,1,1.37,5.09,10.88,10.88,0,0,1-1.83,6.09,11.42,11.42,0,0,1-5.11,4.23A20.65,20.65,0,0,1,152,132.2q-8.78,0-12.14-3.37a12.69,12.69,0,0,1-3.22-5.37A2.63,2.63,0,0,1,139,120.06Z"/><path class="cls-3" d="M175.16,97.26h23.25a2.59,2.59,0,0,1,2.6,2.6V102a2.59,2.59,0,0,1-2.6,2.6H185.8a2.6,2.6,0,0,0-2.6,2.6v.26a2.59,2.59,0,0,0,2.6,2.6h11.32a2.6,2.6,0,0,1,2.6,2.6v1.81a2.59,2.59,0,0,1-2.6,2.6H185.8a2.6,2.6,0,0,0-2.6,2.6v1.57a2.59,2.59,0,0,0,2.6,2.6h13.13a2.61,2.61,0,0,1,2.6,2.61V129a2.61,2.61,0,0,1-2.6,2.61H175.16a2.6,2.6,0,0,1-2.6-2.61V99.86A2.59,2.59,0,0,1,175.16,97.26Z"/><path class="cls-3" d="M209.82,97.26h23.25a2.6,2.6,0,0,1,2.61,2.6V102a2.6,2.6,0,0,1-2.61,2.6h-12.6a2.61,2.61,0,0,0-2.61,2.6v.26a2.6,2.6,0,0,0,2.61,2.6h11.32a2.61,2.61,0,0,1,2.6,2.6v1.81a2.6,2.6,0,0,1-2.6,2.6H220.47a2.61,2.61,0,0,0-2.61,2.6v1.57a2.6,2.6,0,0,0,2.61,2.6h13.12a2.6,2.6,0,0,1,2.6,2.61V129a2.6,2.6,0,0,1-2.6,2.61H209.82a2.61,2.61,0,0,1-2.6-2.61V99.86A2.6,2.6,0,0,1,209.82,97.26Z"/><path class="cls-3" d="M244.56,97.26H250a2.59,2.59,0,0,1,2.6,2.6v3.34a2.61,2.61,0,0,0,4.58,1.7l5.77-6.73a2.57,2.57,0,0,1,2-.91h6.79a2.6,2.6,0,0,1,1.87,4.41l-6.87,7.11a2.58,2.58,0,0,0-.35,3.16L276,127.65a2.6,2.6,0,0,1-2.21,4h-6.85a2.6,2.6,0,0,1-2.31-1.42l-4.85-9.46a2.61,2.61,0,0,0-4.2-.61l-2.24,2.35a2.59,2.59,0,0,0-.72,1.79V129a2.6,2.6,0,0,1-2.6,2.61h-5.41A2.6,2.6,0,0,1,242,129V99.86A2.59,2.59,0,0,1,244.56,97.26Z"/></svg>
