<svg xmlns="http://www.w3.org/2000/svg" width="393.56" height="129.69" viewBox="0 0 393.56 129.69"><defs><style>.cls-1{fill:#ff73a0;}.cls-2{fill:#fff;}</style></defs><g id="Layer_3" data-name="Layer 3"><rect width="385.99" height="123.16" rx="47.43"/><rect class="cls-1" x="7.56" y="6.53" width="385.99" height="123.16" rx="47.43"/><path d="M108,50.27h12.26a1,1,0,0,1,.93.72l4.27,16.58a1,1,0,0,0,1.85,0L131.52,51a1,1,0,0,1,.93-.72H144.7a1,1,0,0,1,1,1V83.67a1,1,0,0,1-1,1h-6.78a1,1,0,0,1-.95-1V66a1,1,0,0,0-1.89-.24l-4.63,18.12a1,1,0,0,1-.93.72h-6.38a1,1,0,0,1-.93-.72l-4.62-18.1a1,1,0,0,0-1.88.24V83.67a1,1,0,0,1-1,1H108a1,1,0,0,1-1-1V51.23A1,1,0,0,1,108,50.27Z"/><path d="M154.83,50.27h23.62a2.41,2.41,0,0,1,2.41,2.42v2.5a2.42,2.42,0,0,1-2.41,2.42h-13A2.42,2.42,0,0,0,163.05,60v.62a2.43,2.43,0,0,0,2.42,2.42h11.69a2.42,2.42,0,0,1,2.42,2.42v2.17a2.43,2.43,0,0,1-2.42,2.42H165.47a2.42,2.42,0,0,0-2.42,2.41v1.94a2.42,2.42,0,0,0,2.42,2.42H179a2.42,2.42,0,0,1,2.42,2.42v2.94A2.42,2.42,0,0,1,179,84.63H154.83a2.42,2.42,0,0,1-2.42-2.42V52.69A2.42,2.42,0,0,1,154.83,50.27Z"/><path d="M189.42,50.27h6.48a2.25,2.25,0,0,1,1.85,1l8.84,13A1.88,1.88,0,0,0,210,63.18V52.52a2.25,2.25,0,0,1,2.25-2.25h5.51A2.25,2.25,0,0,1,220,52.52V82.38a2.25,2.25,0,0,1-2.25,2.25h-6.57a2.27,2.27,0,0,1-1.86-1l-8.09-11.87a2.25,2.25,0,0,0-4.11,1.27v9.33a2.24,2.24,0,0,1-2.24,2.25h-5.49a2.25,2.25,0,0,1-2.25-2.25V52.52A2.25,2.25,0,0,1,189.42,50.27Z"/><path d="M227.45,50.27h6.8a2,2,0,0,1,1.75,1l4.58,7.66a2.05,2.05,0,0,0,3.51,0l4.58-7.66a2.05,2.05,0,0,1,1.76-1h6.74a2,2,0,0,1,1.7,3.18L248,69.72a2.11,2.11,0,0,0-.34,1.14V82.59a2.05,2.05,0,0,1-2,2H239a2,2,0,0,1-2-2V70.86a2,2,0,0,0-.35-1.14l-10.9-16.27A2,2,0,0,1,227.45,50.27Z"/><path class="cls-2" d="M110,52.27h12.26a1,1,0,0,1,.93.72l4.27,16.58a1,1,0,0,0,1.85,0L133.52,53a1,1,0,0,1,.93-.72H146.7a1,1,0,0,1,1,1V85.67a1,1,0,0,1-1,1h-6.78a1,1,0,0,1-.95-1V68a1,1,0,0,0-1.89-.24l-4.63,18.12a1,1,0,0,1-.93.72h-6.38a1,1,0,0,1-.93-.72l-4.62-18.1a1,1,0,0,0-1.88.24V85.67a1,1,0,0,1-1,1H110a1,1,0,0,1-1-1V53.23A1,1,0,0,1,110,52.27Z"/><path class="cls-2" d="M156.83,52.27h23.62a2.41,2.41,0,0,1,2.41,2.42v2.5a2.42,2.42,0,0,1-2.41,2.42h-13A2.42,2.42,0,0,0,165.05,62v.62a2.43,2.43,0,0,0,2.42,2.42h11.69a2.42,2.42,0,0,1,2.42,2.42v2.17a2.43,2.43,0,0,1-2.42,2.42H167.47a2.42,2.42,0,0,0-2.42,2.41v1.94a2.42,2.42,0,0,0,2.42,2.42H181a2.42,2.42,0,0,1,2.42,2.42v2.94A2.42,2.42,0,0,1,181,86.63H156.83a2.42,2.42,0,0,1-2.42-2.42V54.69A2.42,2.42,0,0,1,156.83,52.27Z"/><path class="cls-2" d="M191.42,52.27h6.48a2.25,2.25,0,0,1,1.85,1l8.84,13a1.88,1.88,0,0,0,3.43-1V54.52a2.25,2.25,0,0,1,2.25-2.25h5.51A2.25,2.25,0,0,1,222,54.52V84.38a2.25,2.25,0,0,1-2.25,2.25h-6.57a2.27,2.27,0,0,1-1.86-1l-8.09-11.87a2.25,2.25,0,0,0-4.11,1.27v9.33a2.24,2.24,0,0,1-2.24,2.25h-5.49a2.25,2.25,0,0,1-2.25-2.25V54.52A2.25,2.25,0,0,1,191.42,52.27Z"/><path class="cls-2" d="M229.45,52.27h6.8a2,2,0,0,1,1.75,1l4.58,7.66a2.05,2.05,0,0,0,3.51,0l4.58-7.66a2.05,2.05,0,0,1,1.76-1h6.74a2,2,0,0,1,1.7,3.18L250,71.72a2.11,2.11,0,0,0-.34,1.14V84.59a2.05,2.05,0,0,1-2,2H241a2,2,0,0,1-2-2V72.86a2,2,0,0,0-.35-1.14l-10.9-16.27A2,2,0,0,1,229.45,52.27Z"/></g></svg>
