<svg xmlns="http://www.w3.org/2000/svg" width="393.56" height="129.69" viewBox="0 0 393.56 129.69"><defs><style>.cls-1{fill:#849fc1;}.cls-2{fill:#fff;}</style></defs><g id="Layer_3" data-name="Layer 3"><rect x="-1.06" width="385.99" height="123.16" rx="47.43"/><rect class="cls-1" x="6.5" y="6.53" width="385.99" height="123.16" rx="47.43"/><path d="M106.91,50.27h12.26a1,1,0,0,1,.93.72l4.27,16.58a1,1,0,0,0,1.85,0L130.46,51a1,1,0,0,1,.93-.72h12.25a1,1,0,0,1,1,1V83.67a1,1,0,0,1-1,1h-6.78a1,1,0,0,1-1-1V66a1,1,0,0,0-1.89-.24l-4.63,18.12a1,1,0,0,1-.93.72h-6.38a1,1,0,0,1-.93-.72l-4.62-18.1a1,1,0,0,0-1.88.24V83.67a1,1,0,0,1-1,1h-6.78a1,1,0,0,1-1-1V51.23A1,1,0,0,1,106.91,50.27Z"/><path d="M153.77,50.27h23.61a2.42,2.42,0,0,1,2.42,2.42v2.5a2.42,2.42,0,0,1-2.42,2.42h-13A2.42,2.42,0,0,0,162,60v.62a2.42,2.42,0,0,0,2.42,2.42H176.1a2.41,2.41,0,0,1,2.41,2.42v2.17a2.42,2.42,0,0,1-2.41,2.42H164.41A2.41,2.41,0,0,0,162,72.49v1.94a2.42,2.42,0,0,0,2.42,2.42H177.9a2.42,2.42,0,0,1,2.42,2.42v2.94a2.42,2.42,0,0,1-2.42,2.42H153.77a2.42,2.42,0,0,1-2.42-2.42V52.69A2.42,2.42,0,0,1,153.77,50.27Z"/><path d="M188.35,50.27h6.48a2.25,2.25,0,0,1,1.86,1l8.84,13A1.88,1.88,0,0,0,209,63.18V52.52a2.25,2.25,0,0,1,2.25-2.25h5.51A2.25,2.25,0,0,1,219,52.52V82.38a2.25,2.25,0,0,1-2.25,2.25h-6.57a2.25,2.25,0,0,1-1.86-1L200.2,71.78a2.25,2.25,0,0,0-4.11,1.27v9.33a2.24,2.24,0,0,1-2.24,2.25h-5.5a2.24,2.24,0,0,1-2.24-2.25V52.52A2.24,2.24,0,0,1,188.35,50.27Z"/><path d="M226.39,50.27h6.8a2,2,0,0,1,1.75,1l4.58,7.66a2.05,2.05,0,0,0,3.51,0l4.58-7.66a2.05,2.05,0,0,1,1.76-1h6.74a2,2,0,0,1,1.7,3.18L246.92,69.72a2.11,2.11,0,0,0-.34,1.14V82.59a2.05,2.05,0,0,1-2.05,2H238a2,2,0,0,1-2-2V70.86a2,2,0,0,0-.35-1.14l-10.9-16.27A2,2,0,0,1,226.39,50.27Z"/><path class="cls-2" d="M108.91,52.27h12.26a1,1,0,0,1,.93.72l4.27,16.58a1,1,0,0,0,1.85,0L132.46,53a1,1,0,0,1,.93-.72h12.25a1,1,0,0,1,1,1V85.67a1,1,0,0,1-1,1h-6.78a1,1,0,0,1-1-1V68a1,1,0,0,0-1.89-.24l-4.63,18.12a1,1,0,0,1-.93.72h-6.38a1,1,0,0,1-.93-.72l-4.62-18.1a1,1,0,0,0-1.88.24V85.67a1,1,0,0,1-1,1h-6.78a1,1,0,0,1-1-1V53.23A1,1,0,0,1,108.91,52.27Z"/><path class="cls-2" d="M155.77,52.27h23.61a2.42,2.42,0,0,1,2.42,2.42v2.5a2.42,2.42,0,0,1-2.42,2.42h-13A2.42,2.42,0,0,0,164,62v.62a2.42,2.42,0,0,0,2.42,2.42H178.1a2.41,2.41,0,0,1,2.41,2.42v2.17a2.42,2.42,0,0,1-2.41,2.42H166.41A2.41,2.41,0,0,0,164,74.49v1.94a2.42,2.42,0,0,0,2.42,2.42H179.9a2.42,2.42,0,0,1,2.42,2.42v2.94a2.42,2.42,0,0,1-2.42,2.42H155.77a2.42,2.42,0,0,1-2.42-2.42V54.69A2.42,2.42,0,0,1,155.77,52.27Z"/><path class="cls-2" d="M190.35,52.27h6.48a2.25,2.25,0,0,1,1.86,1l8.84,13a1.88,1.88,0,0,0,3.43-1V54.52a2.25,2.25,0,0,1,2.25-2.25h5.51A2.25,2.25,0,0,1,221,54.52V84.38a2.25,2.25,0,0,1-2.25,2.25h-6.57a2.25,2.25,0,0,1-1.86-1L202.2,73.78a2.25,2.25,0,0,0-4.11,1.27v9.33a2.24,2.24,0,0,1-2.24,2.25h-5.5a2.24,2.24,0,0,1-2.24-2.25V54.52A2.24,2.24,0,0,1,190.35,52.27Z"/><path class="cls-2" d="M228.39,52.27h6.8a2,2,0,0,1,1.75,1l4.58,7.66a2.05,2.05,0,0,0,3.51,0l4.58-7.66a2.05,2.05,0,0,1,1.76-1h6.74a2,2,0,0,1,1.7,3.18L248.92,71.72a2.11,2.11,0,0,0-.34,1.14V84.59a2.05,2.05,0,0,1-2.05,2H240a2,2,0,0,1-2-2V72.86a2,2,0,0,0-.35-1.14l-10.9-16.27A2,2,0,0,1,228.39,52.27Z"/></g></svg>
