<svg xmlns="http://www.w3.org/2000/svg" width="393.56" height="129.69" viewBox="0 0 393.56 129.69"><defs><style>.cls-1{fill:#85b4e8;}.cls-2{fill:#fff;}</style></defs><g id="Layer_3" data-name="Layer 3"><rect width="385.99" height="123.16" rx="47.43"/><rect class="cls-1" x="7.56" y="6.53" width="385.99" height="123.16" rx="47.43"/><path d="M42.14,46h6.2a2.43,2.43,0,0,1,2,1.06l7.78,11.43a2.43,2.43,0,0,0,4.44-1.36v-8.7A2.43,2.43,0,0,1,65,46h5.15a2.43,2.43,0,0,1,2.43,2.43v29.5a2.43,2.43,0,0,1-2.43,2.43h-6.3a2.43,2.43,0,0,1-2-1.06L54.12,67.94a2.43,2.43,0,0,0-4.43,1.37v8.57a2.43,2.43,0,0,1-2.43,2.43H42.14a2.43,2.43,0,0,1-2.43-2.43V48.38A2.42,2.42,0,0,1,42.14,46Z"/><path d="M82,46h23.59a2.43,2.43,0,0,1,2.43,2.43v2.48a2.42,2.42,0,0,1-2.43,2.42h-13a2.43,2.43,0,0,0-2.43,2.43v.61a2.42,2.42,0,0,0,2.43,2.42h11.66a2.43,2.43,0,0,1,2.43,2.43v2.16a2.42,2.42,0,0,1-2.43,2.42H92.67a2.43,2.43,0,0,0-2.43,2.43V70.1a2.43,2.43,0,0,0,2.43,2.43h13.47A2.42,2.42,0,0,1,108.57,75v2.93a2.43,2.43,0,0,1-2.43,2.43H82a2.43,2.43,0,0,1-2.43-2.43V48.38A2.42,2.42,0,0,1,82,46Z"/><path d="M116.43,46h5.8a2.44,2.44,0,0,1,2.11,1.21l3.25,5.65a2.43,2.43,0,0,0,4.22,0l3.13-5.6A2.42,2.42,0,0,1,137.06,46h5.71a2.43,2.43,0,0,1,2,3.74l-7.43,11.57a2.43,2.43,0,0,0,0,2.65l8.35,12.63a2.43,2.43,0,0,1-2,3.77h-6.06a2.43,2.43,0,0,1-2.07-1.16l-4-6.52a2.43,2.43,0,0,0-4.14,0l-4,6.52a2.42,2.42,0,0,1-2.06,1.16h-6a2.43,2.43,0,0,1-2-3.77l8.47-12.81a2.42,2.42,0,0,0,0-2.67L114.4,49.71A2.43,2.43,0,0,1,116.43,46Z"/><path d="M151.64,46h27.41a2.43,2.43,0,0,1,2.43,2.43V52a2.43,2.43,0,0,1-2.43,2.43h-6a2.43,2.43,0,0,0-2.43,2.43v21a2.42,2.42,0,0,1-2.42,2.43h-5.77A2.42,2.42,0,0,1,160,77.88v-21a2.43,2.43,0,0,0-2.43-2.43h-6A2.42,2.42,0,0,1,149.21,52V48.38A2.42,2.42,0,0,1,151.64,46Z"/><path d="M204.72,46h5.76a2.43,2.43,0,0,1,2.43,2.43v21a2.43,2.43,0,0,0,2.43,2.43h11.71a2.42,2.42,0,0,1,2.43,2.42v3.61a2.43,2.43,0,0,1-2.43,2.43H204.72a2.43,2.43,0,0,1-2.43-2.43V48.38A2.43,2.43,0,0,1,204.72,46Z"/><path d="M236.71,46h23.6a2.43,2.43,0,0,1,2.43,2.43v2.48a2.42,2.42,0,0,1-2.43,2.42h-13a2.42,2.42,0,0,0-2.42,2.43v.61a2.42,2.42,0,0,0,2.42,2.42H259a2.43,2.43,0,0,1,2.43,2.43v2.16A2.42,2.42,0,0,1,259,65.75H247.35a2.42,2.42,0,0,0-2.42,2.43V70.1a2.42,2.42,0,0,0,2.42,2.43h13.48A2.42,2.42,0,0,1,263.25,75v2.93a2.42,2.42,0,0,1-2.42,2.43H236.71a2.42,2.42,0,0,1-2.42-2.43V48.38A2.42,2.42,0,0,1,236.71,46Z"/><path d="M269.11,46h5.8a2.44,2.44,0,0,1,2.32,1.7l4.87,15.57a2.42,2.42,0,0,0,4.63,0l4.81-15.55A2.42,2.42,0,0,1,293.86,46h5.49a2.43,2.43,0,0,1,2.28,3.27l-11,29.5a2.42,2.42,0,0,1-2.28,1.59h-8.14A2.44,2.44,0,0,1,278,78.74L266.84,49.23A2.42,2.42,0,0,1,269.11,46Z"/><path d="M308.71,46h23.6a2.43,2.43,0,0,1,2.43,2.43v2.48a2.42,2.42,0,0,1-2.43,2.42h-13a2.42,2.42,0,0,0-2.42,2.43v.61a2.42,2.42,0,0,0,2.42,2.42H331a2.43,2.43,0,0,1,2.43,2.43v2.16A2.42,2.42,0,0,1,331,65.75H319.35a2.42,2.42,0,0,0-2.42,2.43V70.1a2.42,2.42,0,0,0,2.42,2.43h13.48A2.42,2.42,0,0,1,335.25,75v2.93a2.42,2.42,0,0,1-2.42,2.43H308.71a2.42,2.42,0,0,1-2.42-2.43V48.38A2.42,2.42,0,0,1,308.71,46Z"/><path d="M343.4,46h5.76a2.43,2.43,0,0,1,2.43,2.43v21A2.43,2.43,0,0,0,354,71.85h11.71a2.42,2.42,0,0,1,2.43,2.42v3.61a2.43,2.43,0,0,1-2.43,2.43H343.4A2.43,2.43,0,0,1,341,77.88V48.38A2.43,2.43,0,0,1,343.4,46Z"/><path class="cls-2" d="M43.85,47.66h6.2a2.41,2.41,0,0,1,2,1.07l7.78,11.43a2.43,2.43,0,0,0,4.43-1.37v-8.7a2.43,2.43,0,0,1,2.43-2.43h5.15a2.43,2.43,0,0,1,2.43,2.43V79.6A2.42,2.42,0,0,1,71.85,82H65.56a2.41,2.41,0,0,1-2-1.06l-7.71-11.3A2.42,2.42,0,0,0,51.41,71V79.6A2.42,2.42,0,0,1,49,82H43.85a2.42,2.42,0,0,1-2.43-2.42V50.09A2.43,2.43,0,0,1,43.85,47.66Z"/><path class="cls-2" d="M83.74,47.66h23.6a2.43,2.43,0,0,1,2.43,2.43v2.48A2.43,2.43,0,0,1,107.34,55h-13A2.43,2.43,0,0,0,92,57.43V58a2.43,2.43,0,0,0,2.43,2.43h11.67a2.43,2.43,0,0,1,2.43,2.43V65a2.43,2.43,0,0,1-2.43,2.43H94.38A2.43,2.43,0,0,0,92,69.9v1.91a2.43,2.43,0,0,0,2.43,2.43h13.47a2.43,2.43,0,0,1,2.43,2.43V79.6A2.42,2.42,0,0,1,107.85,82H83.74a2.42,2.42,0,0,1-2.43-2.42V50.09A2.43,2.43,0,0,1,83.74,47.66Z"/><path class="cls-2" d="M118.15,47.66H124a2.42,2.42,0,0,1,2.1,1.22l3.25,5.65a2.42,2.42,0,0,0,4.22,0l3.14-5.59a2.43,2.43,0,0,1,2.12-1.25h5.71a2.43,2.43,0,0,1,2,3.74L139.09,63a2.43,2.43,0,0,0,0,2.65l8.34,12.64a2.42,2.42,0,0,1-2,3.76h-6.06a2.41,2.41,0,0,1-2.07-1.15l-4-6.52a2.42,2.42,0,0,0-4.13,0l-4,6.52A2.42,2.42,0,0,1,123.08,82h-6a2.42,2.42,0,0,1-2-3.76l8.48-12.81a2.44,2.44,0,0,0,0-2.67l-7.44-11.36A2.43,2.43,0,0,1,118.15,47.66Z"/><path class="cls-2" d="M153.35,47.66h27.42a2.43,2.43,0,0,1,2.43,2.43v3.63a2.43,2.43,0,0,1-2.43,2.43h-6a2.43,2.43,0,0,0-2.43,2.43v21A2.42,2.42,0,0,1,169.94,82h-5.76a2.42,2.42,0,0,1-2.43-2.42v-21a2.43,2.43,0,0,0-2.43-2.43h-6a2.43,2.43,0,0,1-2.43-2.43V50.09A2.43,2.43,0,0,1,153.35,47.66Z"/><path class="cls-2" d="M206.44,47.66h5.76a2.43,2.43,0,0,1,2.43,2.43v21a2.42,2.42,0,0,0,2.42,2.43h11.72A2.43,2.43,0,0,1,231.2,76V79.6A2.42,2.42,0,0,1,228.77,82H206.44A2.42,2.42,0,0,1,204,79.6V50.09A2.43,2.43,0,0,1,206.44,47.66Z"/><path class="cls-2" d="M238.43,47.66H262a2.42,2.42,0,0,1,2.42,2.43v2.48A2.42,2.42,0,0,1,262,55h-13a2.43,2.43,0,0,0-2.43,2.43V58a2.43,2.43,0,0,0,2.43,2.43h11.67a2.43,2.43,0,0,1,2.43,2.43V65a2.43,2.43,0,0,1-2.43,2.43H249.07a2.43,2.43,0,0,0-2.43,2.43v1.91a2.43,2.43,0,0,0,2.43,2.43h13.47A2.43,2.43,0,0,1,265,76.67V79.6A2.42,2.42,0,0,1,262.54,82H238.43A2.42,2.42,0,0,1,236,79.6V50.09A2.43,2.43,0,0,1,238.43,47.66Z"/><path class="cls-2" d="M270.83,47.66h5.8a2.41,2.41,0,0,1,2.31,1.71l4.87,15.56a2.43,2.43,0,0,0,4.64,0l4.8-15.56a2.45,2.45,0,0,1,2.32-1.71h5.49a2.43,2.43,0,0,1,2.28,3.28l-10.95,29.5A2.44,2.44,0,0,1,290.11,82H282a2.41,2.41,0,0,1-2.27-1.57L268.55,51A2.43,2.43,0,0,1,270.83,47.66Z"/><path class="cls-2" d="M310.43,47.66H334a2.42,2.42,0,0,1,2.42,2.43v2.48A2.42,2.42,0,0,1,334,55h-13a2.43,2.43,0,0,0-2.43,2.43V58a2.43,2.43,0,0,0,2.43,2.43h11.67a2.43,2.43,0,0,1,2.43,2.43V65a2.43,2.43,0,0,1-2.43,2.43H321.07a2.43,2.43,0,0,0-2.43,2.43v1.91a2.43,2.43,0,0,0,2.43,2.43h13.47A2.43,2.43,0,0,1,337,76.67V79.6A2.42,2.42,0,0,1,334.54,82H310.43A2.42,2.42,0,0,1,308,79.6V50.09A2.43,2.43,0,0,1,310.43,47.66Z"/><path class="cls-2" d="M345.12,47.66h5.76a2.43,2.43,0,0,1,2.43,2.43v21a2.42,2.42,0,0,0,2.42,2.43h11.72A2.43,2.43,0,0,1,369.88,76V79.6A2.42,2.42,0,0,1,367.45,82H345.12a2.42,2.42,0,0,1-2.43-2.42V50.09A2.43,2.43,0,0,1,345.12,47.66Z"/></g></svg>
