<svg id="Layer_2" data-name="Layer 2" xmlns="http://www.w3.org/2000/svg" width="120" height="130" viewBox="0 0 120 130"><defs><style>.cls-1{fill:#e36ea6;}.cls-2{fill:#fff;}</style></defs><path d="M1.37,15v94.67a18.06,18.06,0,0,0,27.15,15.61l75.65-44a18,18,0,0,0,0-31.18L22.79,2.66A14.25,14.25,0,0,0,1.37,15Z"/><path class="cls-1" d="M6.37,16V110.7a18.06,18.06,0,0,0,27.15,15.61l75.65-44a18,18,0,0,0,0-31.18L27.79,3.71A14.25,14.25,0,0,0,6.37,16Z"/><path d="M24.43,129.3a18.6,18.6,0,0,1-9.25-2.5,18.38,18.38,0,0,1-9.31-16.1V16A14.75,14.75,0,0,1,28,3.28l81.38,47.38a18.54,18.54,0,0,1,0,32l-75.65,44A18.44,18.44,0,0,1,24.43,129.3Zm-3.81-127A13.77,13.77,0,0,0,13.77,4.1,13.62,13.62,0,0,0,6.87,16V110.7a17.56,17.56,0,0,0,26.4,15.18l75.65-44a17.55,17.55,0,0,0,0-30.32L27.54,4.14A13.71,13.71,0,0,0,20.62,2.25Z"/><path d="M19.38,55.92A1.59,1.59,0,0,1,21,54.33h9.19A7.42,7.42,0,0,1,35.44,56a6.29,6.29,0,0,1,1.76,4.77,6.46,6.46,0,0,1-1.92,5c-1.27,1.2-3.22,1.79-5.83,1.79h-2a1.59,1.59,0,0,0-1.59,1.59v4.61a1.59,1.59,0,0,1-1.59,1.59H21a1.59,1.59,0,0,1-1.59-1.59Zm6.51,5.77a1.59,1.59,0,0,0,1.59,1.59h0a4.12,4.12,0,0,0,2.64-.65A2.1,2.1,0,0,0,30.88,61a2.34,2.34,0,0,0-.66-1.68,3.42,3.42,0,0,0-2.48-.68h-.26a1.59,1.59,0,0,0-1.59,1.59Z"/><path d="M42.18,54.33h3.31a1.59,1.59,0,0,1,1.59,1.59V68.56a1.59,1.59,0,0,0,1.59,1.59h6.95a1.6,1.6,0,0,1,1.59,1.59v2a1.59,1.59,0,0,1-1.59,1.59H42.18a1.59,1.59,0,0,1-1.59-1.59V55.92A1.59,1.59,0,0,1,42.18,54.33Z"/><path d="M71.89,71.86h-5A1.59,1.59,0,0,0,65.36,73L65,74.18a1.58,1.58,0,0,1-1.52,1.14H60.35a1.59,1.59,0,0,1-1.49-2.14l6.69-17.82a1.6,1.6,0,0,1,1.49-1h4.88a1.6,1.6,0,0,1,1.49,1L80.1,73.18a1.59,1.59,0,0,1-1.49,2.14H75.29a1.59,1.59,0,0,1-1.52-1.12L73.41,73A1.6,1.6,0,0,0,71.89,71.86Zm-.8-6.6-.16-.51a1.59,1.59,0,0,0-3,0l-.16.52a1.59,1.59,0,0,0,1.52,2h.32A1.59,1.59,0,0,0,71.09,65.26Z"/><path d="M81.34,54.33h3.33A1.59,1.59,0,0,1,86,55.1l2.4,4a1.59,1.59,0,0,0,2.73,0l2.41-4a1.6,1.6,0,0,1,1.37-.77h3.29a1.59,1.59,0,0,1,1.32,2.47l-6.24,9.33A1.55,1.55,0,0,0,93,67v6.72a1.59,1.59,0,0,1-1.59,1.59H88.13a1.59,1.59,0,0,1-1.59-1.59V67a1.55,1.55,0,0,0-.27-.88L80,56.8A1.59,1.59,0,0,1,81.34,54.33Z"/><path class="cls-2" d="M20.66,54.71a1.6,1.6,0,0,1,1.59-1.59h9.2a7.37,7.37,0,0,1,5.28,1.68,6.29,6.29,0,0,1,1.75,4.77,6.49,6.49,0,0,1-1.91,5c-1.28,1.19-3.22,1.79-5.84,1.79h-2a1.59,1.59,0,0,0-1.59,1.59v4.61a1.59,1.59,0,0,1-1.59,1.59H22.25a1.59,1.59,0,0,1-1.59-1.59Zm6.52,5.78a1.59,1.59,0,0,0,1.59,1.59h0a4.08,4.08,0,0,0,2.64-.66,2.1,2.1,0,0,0,.75-1.66,2.37,2.37,0,0,0-.65-1.68A3.42,3.42,0,0,0,29,57.39h-.26A1.59,1.59,0,0,0,27.18,59Z"/><path class="cls-2" d="M43.47,53.12h3.3a1.59,1.59,0,0,1,1.59,1.59V67.36A1.59,1.59,0,0,0,50,69H56.9a1.59,1.59,0,0,1,1.59,1.59v2a1.59,1.59,0,0,1-1.59,1.59H43.47a1.59,1.59,0,0,1-1.59-1.59V54.71A1.59,1.59,0,0,1,43.47,53.12Z"/><path class="cls-2" d="M73.17,70.65h-5a1.6,1.6,0,0,0-1.52,1.14L66.3,73a1.59,1.59,0,0,1-1.53,1.14H61.63A1.59,1.59,0,0,1,60.14,72l6.7-17.82a1.59,1.59,0,0,1,1.49-1H73.2a1.58,1.58,0,0,1,1.49,1L81.39,72a1.59,1.59,0,0,1-1.49,2.15H76.58A1.59,1.59,0,0,1,75.06,73l-.37-1.21A1.59,1.59,0,0,0,73.17,70.65Zm-.8-6.59-.16-.52a1.59,1.59,0,0,0-3,0l-.15.51a1.59,1.59,0,0,0,1.52,2h.31A1.58,1.58,0,0,0,72.37,64.06Z"/><path class="cls-2" d="M82.63,53.12H86a1.61,1.61,0,0,1,1.37.78l2.4,4a1.58,1.58,0,0,0,2.73,0l2.41-4a1.6,1.6,0,0,1,1.36-.78h3.3a1.6,1.6,0,0,1,1.32,2.48L94.6,64.93a1.52,1.52,0,0,0-.27.88v6.72a1.59,1.59,0,0,1-1.59,1.59H89.41a1.59,1.59,0,0,1-1.59-1.59V65.81a1.62,1.62,0,0,0-.26-.88L81.3,55.6A1.6,1.6,0,0,1,82.63,53.12Z"/></svg>