<svg xmlns="http://www.w3.org/2000/svg" width="60" height="80" viewBox="0 0 60 80"><defs><style>.cls-1{fill:#fff;}</style></defs><g id="Layer_3" data-name="Layer 3"><path d="M36.33,49.76a8.41,8.41,0,0,1-7.95,5.08H17.3V53a22.62,22.62,0,0,1,1.05-7.55,16.93,16.93,0,0,1,3.14-5.3,98.09,98.09,0,0,1,9.38-8.44q3.89-3.16,3.88-5.8a5.38,5.38,0,0,0-1.55-4.1,6.73,6.73,0,0,0-4.73-1.46,7.58,7.58,0,0,0-5.63,2.25,7.28,7.28,0,0,0-1.31,1.88,8.77,8.77,0,0,1-8.84,5.08l-1.36-.16C5.41,28.67,1.77,22.15,4.71,17a23.27,23.27,0,0,1,4.13-5.31Q15.34,5.4,28.76,5.4q10.45,0,16.88,4.36,8.73,5.9,8.73,15.73a15.08,15.08,0,0,1-2.26,7.86q-2.25,3.8-9.2,9.26-4.84,3.84-6.12,6.16A9,9,0,0,0,36.33,49.76Zm-11,9.92h2.31a8.6,8.6,0,0,1,8.6,8.61h0a8.61,8.61,0,0,1-8.6,8.61H25.28a8.61,8.61,0,0,1-8.6-8.61h0A8.6,8.6,0,0,1,25.28,59.68Z"/><path class="cls-1" d="M37.25,51.39a8.43,8.43,0,0,1-7.95,5.08H18.21V54.65a22.56,22.56,0,0,1,1.06-7.55,16.64,16.64,0,0,1,3.14-5.3,97.55,97.55,0,0,1,9.37-8.44c2.59-2.11,3.89-4.05,3.89-5.8a5.34,5.34,0,0,0-1.56-4.1A6.66,6.66,0,0,0,29.39,22a7.59,7.59,0,0,0-5.64,2.26,7.47,7.47,0,0,0-1.31,1.87,8.78,8.78,0,0,1-8.84,5.09L12.25,31c-5.93-.73-9.56-7.25-6.62-12.45a23.17,23.17,0,0,1,4.12-5.3Q16.25,7,29.68,7q10.44,0,16.87,4.36,8.73,5.91,8.73,15.73A15.22,15.22,0,0,1,53,35q-2.25,3.78-9.21,9.25Q39,48.08,37.71,50.41A8.85,8.85,0,0,0,37.25,51.39Zm-11,9.92h2.3a8.62,8.62,0,0,1,8.61,8.61h0a8.61,8.61,0,0,1-8.61,8.61H26.2a8.6,8.6,0,0,1-8.61-8.61h0A8.61,8.61,0,0,1,26.2,61.31Z"/></g></svg>
