<svg xmlns="http://www.w3.org/2000/svg" width="120" height="120" viewBox="0 0 120 120"><defs><style>.cls-1{fill:#fff;}.cls-2{fill:#325f97;}</style></defs><g id="Layer_2" data-name="Layer 2"><rect x="-469.43" y="-1063.4" width="435.71" height="1239.89" rx="12.45" transform="translate(-191.32 62.82) rotate(22.78)"/><rect class="cls-1" x="-463.56" y="-1052.86" width="435.71" height="1239.89" rx="7.67" transform="translate(-186.78 61.37) rotate(22.78)"/></g><g id="Layer_3" data-name="Layer 3"><path d="M59.13,107A47.49,47.49,0,1,1,107,59.49,47.72,47.72,0,0,1,59.13,107Zm0-70.32a22.84,22.84,0,1,0,23,22.84A23,23,0,0,0,59.13,36.65Z"/><path d="M28.29,24.33,24,14.55s-1.2-1.66,1.15-4.26L40.89,2.83s3-.57,4,.51S50.4,13.92,50.4,13.92Z"/><path d="M11.71,53.39,2,48.87s-2-.45-2-3.94L6.8,29s1.89-2.42,3.33-2.22,11.2,4.28,11.2,4.28Z"/><path d="M20.85,85.11,10.56,88.18s-1.8,1-4.12-1.64L.82,70.16s-.21-3,1-3.85S13,62.09,13,62.09Z"/><path d="M48.19,102.06l-4.74,9.57s-.49,2-4,1.88l-15.92-7.05s-2.4-1.92-2.17-3.34,4.53-11,4.53-11Z"/><path d="M79.58,102.14l.62,10.65s.56,2-2.55,3.6L60.29,118s-3-.5-3.54-1.85-1.54-11.82-1.54-11.82Z"/><path d="M99.59,78.09l8.55,6.45s1.87.86,1.1,4.26L99.21,103s-2.37,2-3.72,1.47-10-6.53-10-6.53Z"/><path d="M103.69,50l10.73.47s2-.34,3.35,2.89l-.14,17.31s-.81,2.95-2.21,3.31-12,.3-12,.3Z"/><path d="M88.64,24.11l8.57-6.43s1.34-1.55,4.43.11l11,13.41s1.27,2.79.43,3.95S104,43,104,43Z"/><path d="M57.52,12.63,60.75,2.46s.19-2,3.68-2.46L81.24,4.6s2.66,1.55,2.65,3-2.81,11.59-2.81,11.59Z"/><path class="cls-2" d="M61.36,108.94A47.48,47.48,0,1,1,109.2,61.46,47.71,47.71,0,0,1,61.36,108.94Zm0-70.32a22.84,22.84,0,1,0,23,22.84A23,23,0,0,0,61.36,38.62Z"/><path class="cls-2" d="M30.52,26.3l-4.28-9.78s-1.2-1.66,1.15-4.25L43.12,4.8s3-.57,4,.52S52.63,15.9,52.63,15.9Z"/><path class="cls-2" d="M13.94,55.36,4.21,50.84s-2-.45-2-3.94L9,31s1.89-2.42,3.32-2.22S23.57,33,23.57,33Z"/><path class="cls-2" d="M23.08,87.08,12.8,90.15s-1.81,1-4.12-1.64L3.05,72.13s-.21-3,1-3.85,11.24-4.21,11.24-4.21Z"/><path class="cls-2" d="M50.42,104l-4.73,9.57s-.5,2-4,1.89l-15.92-7.06s-2.4-1.92-2.18-3.34,4.53-11,4.53-11Z"/><path class="cls-2" d="M81.81,104.12l.63,10.64s.55,2-2.56,3.6L62.53,120s-3.05-.5-3.55-1.84-1.53-11.83-1.53-11.83Z"/><path class="cls-2" d="M101.82,80.06l8.55,6.45s1.87.86,1.1,4.27l-10,14.15s-2.36,2-3.72,1.48-10-6.54-10-6.54Z"/><path class="cls-2" d="M105.92,51.92l10.73.48s2-.35,3.35,2.89l-.13,17.3s-.82,3-2.22,3.31-12,.31-12,.31Z"/><path class="cls-2" d="M90.87,26.08l8.57-6.43s1.34-1.55,4.43.11l11,13.41s1.27,2.79.43,4S106.26,45,106.26,45Z"/><path class="cls-2" d="M59.75,14.6,63,4.43s.19-2,3.68-2.46L83.47,6.58s2.66,1.54,2.65,3-2.81,11.59-2.81,11.59Z"/></g></svg>
