<svg id="Layer_1" data-name="Layer 1" xmlns="http://www.w3.org/2000/svg" xmlns:xlink="http://www.w3.org/1999/xlink" width="1920" height="1080" viewBox="0 0 1920 1080"><defs><style>.cls-1{fill:#fff;}.cls-2{fill:#90bc79;}.cls-3{fill:url(#Sky_7);}.cls-4{fill:#4f684d;}.cls-5{fill:#dfedfc;}.cls-5,.cls-6,.cls-7,.cls-8{isolation:isolate;}.cls-6,.cls-9{fill:#396294;}.cls-7{fill:#386090;}.cls-16,.cls-8{fill:#a8ccdf;}.cls-8{opacity:0.7;}.cls-10{fill:#879fbe;}.cls-11{fill:#f3ac6a;}.cls-12{fill:#d7a59c;}.cls-13{fill:#905275;}.cls-14{fill:#ec81a3;}.cls-15{fill:#9a4e66;}.cls-17{fill:#d7d7d7;}.cls-18{fill:#b1b1b1;}.cls-19{fill:#efaad4;}.cls-20{fill:#c06d5d;}</style><linearGradient id="Sky_7" y1="542.7" x2="1920" y2="542.7" gradientUnits="userSpaceOnUse"><stop offset="0.01" stop-color="#96b9d6"/><stop offset="0.36" stop-color="#9dc5e1"/><stop offset="1" stop-color="#6687a9"/></linearGradient></defs><rect x="-618.66" y="160.06" width="435.71" height="1239.89" rx="12.45" transform="translate(270.74 216.02) rotate(22.78)"/><rect class="cls-1" x="-612.78" y="170.6" width="435.71" height="1239.89" rx="7.67" transform="translate(275.28 214.57) rotate(22.78)"/><rect class="cls-2" x="-413.31" y="234.18" width="378.1" height="295.91" rx="6.55" transform="translate(130.46 116.63) rotate(22.78)"/><rect class="cls-3" y="2.7" width="1920" height="1080"/><rect class="cls-4" y="634.51" width="1920" height="445.49"/><polygon class="cls-5" points="1607.73 634.51 1137.9 634.51 1137.9 150.89 1668.57 221.84 1607.73 634.51"/><polygon class="cls-6" points="1137.9 634.51 870.3 634.51 830 248.7 1137.9 150.89 1137.9 634.51"/><polygon class="cls-5" points="1043.48 634.51 702.61 634.51 714.47 385.31 1024.92 375.35 1043.48 634.51"/><polygon class="cls-5" points="1878.8 694.72 1650.61 692.15 1668.57 464.86 1866.03 463.26 1878.8 694.72"/><polygon class="cls-7" points="702.61 634.51 565.92 634.51 576.05 420.91 714.47 385.31 702.61 634.51"/><polygon class="cls-8" points="-0.51 868.07 1131.08 808.66 862.04 634.51 962.02 634.51 1359.46 805.58 1565.93 793.27 1246.15 634.51 1333.24 634.51 1920 823.54 1920 873.53 0.95 1053.59 -0.51 868.07"/><rect class="cls-9" x="761.36" y="421.95" width="228.28" height="118.05"/><rect class="cls-10" x="767.78" y="424.25" width="215.44" height="113.01"/><polygon class="cls-9" points="1850.85 694.4 1688.63 693.35 1700.72 501.5 1840.92 501.5 1850.85 694.4"/><polygon class="cls-9" points="1650.61 692.15 1519.22 634.51 1523.72 487.66 1668.57 464.86 1650.61 692.15"/><polygon class="cls-11" points="1351.82 501.5 1225.73 501.5 1237.83 634.51 1342.61 634.51 1351.82 501.5"/><path class="cls-12" d="M714.47,830.53C690.14,715.35,824.63,594.84,916.61,598s199.22,96.14,183.81,210.11"/><path class="cls-13" d="M0,1080C-24.33,964.81,123.16,813.8,215.14,817s413.36,149,398,263"/><path class="cls-14" d="M147.76,635c-14.13-100.39-51.08-344,126.75-344,193.73,0,141.22,244.11,126.66,344.63"/><path class="cls-14" d="M249.52,635.55c-13.21-92.25,55.21-164.13,116.22-164.24s129.87,71.77,116.72,164.2"/><path class="cls-15" d="M1406.83,1080C1378.06,879.1,1527.08,722.54,1660,722.31c133.1-.23,282.86,156.31,254.21,357.63"/><ellipse class="cls-16" cx="1284.74" cy="308.78" rx="50.27" ry="64.19"/><path class="cls-17" d="M1328.13,339.58a46.14,46.14,0,0,1-2.56,4.61c-4.41,7.73-10.33,14.59-18.88,18.67-16.75,8-38.28,5.9-53.18-4.78a22.52,22.52,0,0,1-4.75-4.52h0c9.14,12,21.89,19.42,36,19.42,20,0,37.25-14.89,45.35-36.47A31.51,31.51,0,0,1,1328.13,339.58Z"/><path class="cls-18" d="M1329.46,338.08a78.47,78.47,0,0,0,5.55-29.3c0-35.45-22.51-64.19-50.27-64.19a40,40,0,0,0-8.57.95c.74.21,1.47.46,2.2.72s1.69.47,2.53.75a29.22,29.22,0,0,1,2.8,1l1.32.35a34.68,34.68,0,0,1,3.65,1c2.58.91,5.11,2,7.64,3l.86.36.81.29a21,21,0,0,1,6.67,3.82A53,53,0,0,1,1319.56,270c6.74,8.29,9.16,17.71,10.28,27.57.14.6.28,1.2.4,1.81,2.26,11.71,1.54,24.65-.32,36.35C1329.8,336.55,1329.64,337.32,1329.46,338.08Z"/><path class="cls-19" d="M249.52,635.55c-13.21-92.25,55.21-164.13,116.22-164.24s129.87,71.77,116.72,164.2"/><ellipse class="cls-16" cx="1425.17" cy="321.7" rx="44.12" ry="61.73"/><path class="cls-17" d="M1463.25,351.31a46,46,0,0,1-2.25,4.43c-3.87,7.44-9.06,14-16.57,18-14.7,7.69-33.6,5.68-46.68-4.59a20.65,20.65,0,0,1-4.16-4.36h0c8,11.52,19.21,18.68,31.61,18.68,17.54,0,32.69-14.33,39.8-35.07A33,33,0,0,1,1463.25,351.31Z"/><path class="cls-18" d="M1464.42,349.87a82,82,0,0,0,4.87-28.17c0-34.09-19.76-61.73-44.12-61.73a32.6,32.6,0,0,0-7.53.91c.65.21,1.3.45,1.93.7s1.49.44,2.22.71a25.61,25.61,0,0,1,2.46,1c.39.1.78.21,1.16.34a27.73,27.73,0,0,1,3.21,1c2.26.87,4.48,1.88,6.7,2.87l.75.35.71.27a18,18,0,0,1,5.86,3.68,48,48,0,0,1,13.09,12.68c5.91,8,8,17,9,26.51.13.57.25,1.15.35,1.73,2,11.26,1.36,23.71-.28,35C1464.71,348.4,1464.57,349.14,1464.42,349.87Z"/><ellipse class="cls-16" cx="1556.55" cy="338.08" rx="37.34" ry="61.73"/><path class="cls-17" d="M1588.78,367.69c-.57,1.52-1.2,3-1.9,4.44-3.28,7.44-7.67,14-14,17.95-12.44,7.69-28.43,5.68-39.5-4.59a19.7,19.7,0,0,1-3.52-4.35h0c6.78,11.52,16.25,18.68,26.74,18.68,14.85,0,27.67-14.33,33.69-35.07C1589.79,365.76,1589.31,366.75,1588.78,367.69Z"/><path class="cls-18" d="M1589.77,366.26a95.3,95.3,0,0,0,4.12-28.18c0-34.09-16.71-61.73-37.34-61.73a23.5,23.5,0,0,0-6.36.91c.55.21,1.09.45,1.63.7s1.26.44,1.88.71a20.48,20.48,0,0,1,2.08,1l1,.34a20.56,20.56,0,0,1,2.71,1c1.92.87,3.8,1.87,5.68,2.86l.63.35.6.27a15.23,15.23,0,0,1,5,3.68c4.42,3.22,8,7.72,11.08,12.68,5,8,6.8,17,7.63,26.51.11.57.21,1.15.3,1.73,1.68,11.27,1.15,23.71-.24,35C1590,364.78,1589.9,365.52,1589.77,366.26Z"/><path class="cls-20" d="M719.65,680c0-49.38-68.83-89.41-153.73-89.41s-153.73,40-153.73,89.41S481,706.68,565.92,706.68,719.65,729.39,719.65,680Z"/></svg>
