<svg id="Layer_2" data-name="Layer 2" xmlns="http://www.w3.org/2000/svg" width="165" height="185" viewBox="0 0 165 185"><defs><style>.cls-1{fill:#231f20;}.cls-2{fill:#f5db12;}</style></defs><path class="cls-1" d="M130.68,102.75a17.81,17.81,0,0,0,9.7,1.48C156,88,157.57,86.2,158,78.94l-.18-.78c0-.19-.09-.39-.15-.58,0,0-.07-.19-.08-.24l0,0A14.37,14.37,0,0,0,156.7,76c-.43-.47-.93-1-1.48-1.48C145,64.92,106.48,58.38,106.48,58.38c-12-30.49-20.58-39.68-25.7-42a8.81,8.81,0,0,0-2.92-.4l-.39,0a6.14,6.14,0,0,0-1.64.34l-.34.14-.17.08a2.27,2.27,0,0,0-.27.24C64.64,22.15,48.37,61,48.37,61S3.76,62.5.39,76.75c-1.76,7.43,7.39,17.51,16.55,25.46C54,95.86,93.77,81.38,130.68,102.75Z"/><path class="cls-1" d="M140.38,104.23a17.81,17.81,0,0,1-9.7-1.48C93.77,81.38,54,95.86,16.94,102.21A176.1,176.1,0,0,0,33.75,115s-9.11,48.49.38,53.07c11.57,5.58,41.27-15.49,43.36-17a3.55,3.55,0,0,1,1.28-1,3.5,3.5,0,0,1,1.52-.39,1.13,1.13,0,0,1,1,.23c.89.75,1.86,1.41,2.8,2.09a1.49,1.49,0,0,0,.25.13.59.59,0,0,1,.18.13c31,17.88,36.95,17.13,45.19,13.39s.37-50.61.37-50.61C134.07,110.81,137.47,107.27,140.38,104.23Z"/><path class="cls-2" d="M130.68,102.75C95.5,82.38,57.74,94.58,22.17,101.27A174,174,0,0,0,40.05,115s-9.11,48.49.38,53.07c11.57,5.58,41.27-15.49,43.36-17a3.55,3.55,0,0,1,1.28-1,3.64,3.64,0,0,1,1.52-.39,1.12,1.12,0,0,1,1,.23c.89.75,1.86,1.41,2.8,2.1.09,0,.16.09.25.12a.8.8,0,0,1,.19.13c31,17.88,37,17.13,45.18,13.39s.37-50.61.37-50.61c4.86-5.11,8.86-9.26,12.16-12.71C142.35,104.61,135.72,105.27,130.68,102.75Z"/><path d="M145.52,104.73c-2.73,2.85-5.87,6.12-9.48,9.91l-.17.19,0,.24c2.17,12.93,6.39,47.13-.09,50.07-7.94,3.61-13.53,4.65-44.68-13.34a1.17,1.17,0,0,0-.28-.17l-.1,0-.7-.49c-.71-.51-1.45-1.05-2.13-1.61a1.62,1.62,0,0,0-1.4-.35,4.31,4.31,0,0,0-3.09,1.58c-2,1.41-31.55,22.31-42.79,16.9-2.57-1.24-5.25-7.06-3.47-27.75,1.08-12.53,3.34-24.66,3.36-24.78l.07-.33-.28-.18a177,177,0,0,1-17.52-13.42l-1.29.24a172.14,172.14,0,0,0,18,13.83c-.85,4.64-8.7,48.75.71,53.29a11.23,11.23,0,0,0,4.93,1c13.4,0,36.08-16,38.94-18l.11-.12a3.27,3.27,0,0,1,1.1-.89,3.07,3.07,0,0,1,1.3-.34h0l.15,0a.6.6,0,0,1,.55.13c.71.6,1.46,1.14,2.19,1.66l.64.46.15.09.23.12.1.07c30.09,17.39,36.71,17.47,45.63,13.41,8.28-3.76,1.38-46.81.71-50.9,3.53-3.72,6.62-6.93,9.3-9.73l3.44-3.59q-1.06.45-2.16.81C146.88,103.32,146.22,104,145.52,104.73Z"/><path d="M164.83,78.91l-.19-.86c0-.2-.1-.41-.15-.62l-.15-.38a7.88,7.88,0,0,0-.58-.88c-.12-.15-.23-.31-.39-.53-.38-.42-.85-.89-1.51-1.51-9.86-9.24-44.94-15.54-48.71-16.2-12.07-30.52-20.73-39.68-25.93-42a9.45,9.45,0,0,0-3.09-.42l-.4,0a6.8,6.8,0,0,0-1.79.38l-.15.06-.21.09-.26.13-.27.24C71,21.71,56,56.65,54.34,60.52,50,60.69,9.51,62.67,6.2,76.63,4.47,84,12.74,93.56,21.52,101.39l1.29-.24C14,93.4,5.52,83.85,7.17,76.86,10.42,63.15,54.25,61.52,54.69,61.5H55l.13-.29c.16-.39,16.31-38.75,26.44-43.92l.14-.11s.09-.09.17-.15L82,17l.24-.1.09,0a6.33,6.33,0,0,1,1.51-.31l.38,0h.26a8.32,8.32,0,0,1,2.43.37c5,2.22,13.45,11.27,25.45,41.69l.1.27.28,0c.38.07,38.5,6.63,48.48,16,.64.61,1.09,1,1.4,1.39.12.18.25.35.37.52a5.75,5.75,0,0,1,.5.75l.08.2c.05.18.09.37.14.56l.16.7c-.44,6.83-2.05,8.79-16.31,23.66q1.09-.36,2.16-.81C162.88,88,164.39,86,164.83,79Z"/></svg>
