<svg id="Layer_2" data-name="Layer 2" xmlns="http://www.w3.org/2000/svg" width="165" height="185" viewBox="0 0 165 185"><defs><style>.cls-1{fill:#231f20;}.cls-2{fill:#f5db12;}</style></defs><path class="cls-1" d="M29.86,75.75c22-2,43,7,64-4,11-5,22,4,33,4,9.6,0,17.92-3.2,26.5-5.51C141,61.49,106.48,55.61,106.48,55.61c-12-30.49-20.58-39.68-25.7-42a9.08,9.08,0,0,0-2.92-.4l-.39,0a7,7,0,0,0-1.64.34l-.34.14-.17.08a1.82,1.82,0,0,0-.27.25C64.64,19.38,48.37,58.24,48.37,58.24S3.76,59.74.39,74c-.94,3.94,1.2,8.63,4.78,13.35C12.07,80.27,21.41,76.69,29.86,75.75Z"/><path class="cls-1" d="M157.85,75.4a5.66,5.66,0,0,0-.15-.59s-.07-.18-.08-.23l0-.06a14.37,14.37,0,0,0-.89-1.31c-.43-.47-.93-1-1.48-1.48a18.63,18.63,0,0,0-1.86-1.49c-8.58,2.31-16.9,5.51-26.5,5.51-11,0-22-9-33-4-21,11-42,2-64,4-8.45.94-17.79,4.52-24.69,11.58,9.36,12.34,28.58,24.89,28.58,24.89s-9.11,48.5.38,53.07c11.57,5.59,41.27-15.49,43.36-17a3.42,3.42,0,0,1,1.28-1,3.51,3.51,0,0,1,1.52-.4,1.13,1.13,0,0,1,1,.23c.89.75,1.86,1.41,2.8,2.1l.25.13a.57.57,0,0,1,.18.12c31,17.88,36.95,17.13,45.19,13.39s.37-50.61.37-50.61c25.27-26.56,27.39-27.43,27.93-36Z"/><path class="cls-2" d="M164.33,76.18c-.06-.26-.11-.52-.17-.78l-.15-.59a1.23,1.23,0,0,1-.08-.23l0-.06c-.25-.47-.61-.87-.9-1.31s-.92-1-1.48-1.48a21.59,21.59,0,0,0-3.56-2.6c-10.26,2.18-19.8,6.62-31.1,6.62-11,0-22-9-33-4-21,11-42,2-64,4A42.37,42.37,0,0,0,9.12,83.86C17,97.19,40.05,112.22,40.05,112.22s-9.11,48.5.38,53.07c11.57,5.59,41.27-15.49,43.36-17a3.42,3.42,0,0,1,1.28-1,3.51,3.51,0,0,1,1.52-.4,1.12,1.12,0,0,1,1,.23c.89.75,1.86,1.41,2.8,2.1l.25.13a.76.76,0,0,1,.19.12c31,17.89,37,17.13,45.18,13.39s.37-50.61.37-50.61C161.67,85.66,163.79,84.79,164.33,76.18Z"/><path d="M7.17,74.1c3.25-13.72,47.08-15.35,47.52-15.36H55l.13-.3C55.3,58,71.45,19.69,81.58,14.51l.14-.11.17-.15.07,0,.24-.11.09,0a6.33,6.33,0,0,1,1.51-.31l.38,0h.26a8.31,8.31,0,0,1,2.43.36c5,2.23,13.45,11.27,25.45,41.7l.1.26.28,0c.34,0,31,5.34,44.54,13.18l1.44-.31C146,61.05,116.59,55.76,113.15,55.17c-12.07-30.53-20.73-39.69-25.93-42a9.72,9.72,0,0,0-3.09-.42l-.4,0a7.71,7.71,0,0,0-1.79.38l-.15.06-.21.09-.26.14c-.12.09-.21.18-.27.23C71,19,56,53.89,54.34,57.75,50,57.92,9.51,59.9,6.2,73.87c-.74,3.12.35,6.66,2.52,10.3l.79-.61C7.5,80.18,6.5,76.93,7.17,74.1Z"/><path d="M164.64,75.28c0-.2-.1-.41-.15-.61l-.15-.38a6.38,6.38,0,0,0-.58-.88l-.39-.54c-.38-.42-.85-.88-1.51-1.5A20.58,20.58,0,0,0,158.68,69l-1.44.31a21.39,21.39,0,0,1,3.94,2.81c.64.6,1.09,1.05,1.4,1.38.12.18.25.35.37.52a5.75,5.75,0,0,1,.5.75l.08.2c.05.19.09.37.14.56l.16.71c-.46,7.14-2.19,8.94-18.31,25.74-2.73,2.85-5.87,6.12-9.48,9.92l-.17.18,0,.24c2.17,12.93,6.39,47.13-.09,50.08C127.88,166,122.29,167,91.14,149a1.17,1.17,0,0,0-.28-.17l-.1-.05-.7-.49c-.71-.51-1.45-1-2.13-1.61a1.62,1.62,0,0,0-1.4-.35,4.1,4.1,0,0,0-1.68.45,4,4,0,0,0-1.41,1.13c-2,1.41-31.55,22.32-42.79,16.9-2.57-1.23-5.25-7.05-3.47-27.75,1.08-12.53,3.34-24.65,3.36-24.78l.07-.32-.28-.19C40,111.61,17.25,96.61,9.51,83.56l-.79.61c7.49,12.6,27.94,26.41,30.78,28.29-.85,4.63-8.7,48.75.71,53.28a11.23,11.23,0,0,0,4.93,1c13.4,0,36.08-16,38.94-18l.11-.11a3.18,3.18,0,0,1,1.1-.9,3.07,3.07,0,0,1,1.3-.34h0l.15,0a.61.61,0,0,1,.55.14c.71.59,1.46,1.13,2.19,1.65l.64.46.15.09.23.12.1.07c30.09,17.39,36.71,17.47,45.63,13.42,8.28-3.76,1.38-46.82.71-50.9,3.53-3.72,6.62-6.93,9.3-9.73,16.4-17.1,18.12-18.89,18.59-26.45v-.07Z"/></svg>
