<svg id="Layer_2" data-name="Layer 2" xmlns="http://www.w3.org/2000/svg" width="165" height="185" viewBox="0 0 165 185"><defs><style>.cls-1{fill:#231f20;}.cls-2{fill:#f5db12;}</style></defs><path class="cls-1" d="M158,76.18l-.18-.78a5.66,5.66,0,0,0-.15-.59s-.07-.18-.08-.23l0-.06a14.37,14.37,0,0,0-.89-1.31c-.43-.47-.93-1-1.48-1.48C145,62.16,106.48,55.61,106.48,55.61c-12-30.49-20.58-39.68-25.7-42a9.08,9.08,0,0,0-2.92-.4l-.39,0a7,7,0,0,0-1.64.34l-.34.14-.17.08a1.82,1.82,0,0,0-.27.25C64.64,19.38,48.37,58.24,48.37,58.24S3.76,59.74.39,74s33.36,38.24,33.36,38.24-9.11,48.5.38,53.07c11.57,5.59,41.27-15.49,43.36-17a3.42,3.42,0,0,1,1.28-1,3.51,3.51,0,0,1,1.52-.4,1.13,1.13,0,0,1,1,.23c.89.75,1.86,1.41,2.8,2.1l.25.13a.57.57,0,0,1,.18.12c31,17.88,36.95,17.13,45.19,13.39s.37-50.61.37-50.61C155.37,85.66,157.49,84.79,158,76.18Z"/><path class="cls-2" d="M164.33,76.18c-.06-.26-.11-.52-.17-.78l-.15-.59a1.23,1.23,0,0,1-.08-.23l0-.06c-.25-.47-.61-.87-.9-1.31s-.92-1-1.48-1.48c-10.21-9.57-48.74-16.12-48.74-16.12-12-30.49-20.58-39.68-25.7-42a9.36,9.36,0,0,0-2.92-.4l-.39,0a7,7,0,0,0-1.64.34l-.34.15-.16.07a2.46,2.46,0,0,0-.28.25C70.94,19.38,54.67,58.24,54.67,58.24S10.06,59.74,6.69,74s33.36,38.24,33.36,38.24-9.11,48.5.38,53.07c11.57,5.59,41.27-15.49,43.36-17a3.42,3.42,0,0,1,1.28-1,3.51,3.51,0,0,1,1.52-.4,1.12,1.12,0,0,1,1,.23c.89.75,1.86,1.41,2.8,2.1l.25.13a.76.76,0,0,1,.19.12c31,17.89,37,17.13,45.18,13.39s.37-50.61.37-50.61C161.67,85.66,163.79,84.79,164.33,76.18Z"/><path d="M45.14,166.73a11.23,11.23,0,0,1-4.93-1c-9.41-4.53-1.56-48.65-.71-53.28C35.84,110,2.91,87.79,6.2,73.87S50,57.92,54.34,57.75C56,53.89,71,19,81.05,13.66c.06-.05.15-.14.27-.23l.26-.14.21-.09.15-.06a7.71,7.71,0,0,1,1.79-.38l.4,0a9.72,9.72,0,0,1,3.09.42c5.2,2.32,13.86,11.48,25.93,42,3.77.65,38.85,6.95,48.71,16.2.66.62,1.13,1.08,1.51,1.5l.39.54a6.38,6.38,0,0,1,.58.88l.15.38c0,.2.11.41.15.61l.19.86v.07c-.47,7.56-2.19,9.35-18.59,26.45-2.68,2.8-5.77,6-9.3,9.73.67,4.08,7.57,47.14-.71,50.9-8.92,4.05-15.54,4-45.63-13.42l-.1-.07-.23-.12-.15-.09-.64-.46c-.73-.52-1.48-1.06-2.19-1.65a.61.61,0,0,0-.55-.14l-.15,0h0a3.07,3.07,0,0,0-1.3.34,3.18,3.18,0,0,0-1.1.9l-.11.11C81.22,150.76,58.54,166.73,45.14,166.73Zm39.3-153h-.26l-.38,0a6.33,6.33,0,0,0-1.51.31l-.09,0-.24.11-.07,0-.17.15-.14.11C71.45,19.69,55.3,58,55.14,58.43l-.13.3h-.32c-.44,0-44.27,1.64-47.52,15.36S40,111.57,40.33,111.8l.28.19-.07.32c0,.13-2.28,12.25-3.36,24.78-1.78,20.7.9,26.52,3.47,27.75,11.24,5.42,40.81-15.49,42.79-16.9a4,4,0,0,1,1.41-1.13,4.1,4.1,0,0,1,1.68-.45,1.62,1.62,0,0,1,1.4.35c.68.57,1.42,1.1,2.13,1.61l.7.49.1.05a1.17,1.17,0,0,1,.28.17c31.15,18,36.74,16.95,44.68,13.35,6.48-2.95,2.26-37.15.09-50.08l0-.24.17-.18c3.61-3.8,6.75-7.07,9.48-9.92,16.12-16.8,17.85-18.6,18.31-25.74l-.16-.71c0-.19-.09-.37-.14-.56l-.08-.2A5.75,5.75,0,0,0,163,74c-.12-.17-.25-.34-.37-.52-.31-.33-.76-.78-1.4-1.38-10-9.37-48.1-15.93-48.48-16l-.28,0-.1-.26c-12-30.43-20.46-39.47-25.45-41.7A8.31,8.31,0,0,0,84.44,13.74Z"/></svg>