<svg id="Layer_2" data-name="Layer 2" xmlns="http://www.w3.org/2000/svg" width="165" height="185" viewBox="0 0 165 185"><defs><style>.cls-1{fill:#231f20;}.cls-2{fill:#f5db12;}</style></defs><path class="cls-1" d="M92.53,31.75a18.41,18.41,0,0,0,3.66,1C89.42,20,84.29,15.21,80.78,13.64a9.08,9.08,0,0,0-2.92-.4l-.39,0a7,7,0,0,0-1.64.34l-.34.14-.17.08a1.82,1.82,0,0,0-.27.25C71.31,16,66.81,22.22,62.58,29.43,72.43,28.79,82.87,29.11,92.53,31.75Z"/><path class="cls-1" d="M158,76.18l-.18-.78a5.66,5.66,0,0,0-.15-.59s-.07-.18-.08-.23l0-.06a14.37,14.37,0,0,0-.89-1.31c-.43-.47-.93-1-1.48-1.48C145,62.16,106.48,55.61,106.48,55.61A225,225,0,0,0,96.19,32.76a18.41,18.41,0,0,1-3.66-1c-9.66-2.64-20.1-3-29.95-2.32A284.45,284.45,0,0,0,48.37,58.24S3.76,59.74.39,74s33.36,38.24,33.36,38.24-9.11,48.5.38,53.07c11.57,5.59,41.27-15.49,43.36-17a3.42,3.42,0,0,1,1.28-1,3.51,3.51,0,0,1,1.52-.4,1.13,1.13,0,0,1,1,.23c.89.75,1.86,1.41,2.8,2.1l.25.13a.57.57,0,0,1,.18.12c31,17.88,36.95,17.13,45.19,13.39s.37-50.61.37-50.61C155.37,85.66,157.49,84.79,158,76.18Z"/><path class="cls-2" d="M164.33,76.18c-.06-.26-.11-.52-.17-.78l-.15-.59a1.23,1.23,0,0,1-.08-.23l0-.06c-.25-.47-.61-.87-.9-1.31s-.92-1-1.48-1.48c-10.21-9.57-48.74-16.12-48.74-16.12a224.24,224.24,0,0,0-10.39-23,16.59,16.59,0,0,1-9.86-.83A84.28,84.28,0,0,0,69,29.17,281.79,281.79,0,0,0,54.67,58.24S10.06,59.74,6.69,74s33.36,38.24,33.36,38.24-9.11,48.5.38,53.07c11.57,5.59,41.27-15.49,43.36-17a3.42,3.42,0,0,1,1.28-1,3.51,3.51,0,0,1,1.52-.4,1.12,1.12,0,0,1,1,.23c.89.75,1.86,1.41,2.8,2.1l.25.13a.76.76,0,0,1,.19.12c31,17.89,37,17.13,45.18,13.39s.37-50.61.37-50.61C161.67,85.66,163.79,84.79,164.33,76.18Z"/><path d="M164.64,75.28c0-.2-.1-.41-.15-.61l-.15-.38a6.38,6.38,0,0,0-.58-.88l-.39-.54c-.38-.42-.85-.88-1.51-1.5-9.86-9.25-44.94-15.55-48.71-16.2a225,225,0,0,0-10.27-22.71c-.32.09-.65.18-1,.24a226.38,226.38,0,0,1,10.42,23.1l.1.26.28,0c.38.06,38.5,6.62,48.48,16,.64.6,1.09,1.05,1.4,1.38.12.18.25.35.37.52a5.75,5.75,0,0,1,.5.75l.08.2c.05.19.1.37.14.56l.16.71c-.46,7.14-2.19,8.94-18.31,25.74-2.73,2.85-5.87,6.12-9.48,9.92l-.17.18,0,.24c2.17,12.93,6.39,47.13-.09,50.08C127.88,166,122.29,167,91.14,149a1.17,1.17,0,0,0-.28-.17l-.1-.05-.7-.49c-.71-.51-1.45-1-2.13-1.61a1.62,1.62,0,0,0-1.4-.35,4.1,4.1,0,0,0-1.68.45,4,4,0,0,0-1.41,1.13c-2,1.41-31.55,22.32-42.79,16.9-2.57-1.23-5.25-7.05-3.47-27.75,1.08-12.53,3.34-24.65,3.36-24.78l.07-.32-.28-.19c-.37-.23-36.41-24-33.16-37.7S54.25,58.75,54.69,58.74H55l.13-.3A284,284,0,0,1,69.63,29.16l-1.19,0a277,277,0,0,0-14.1,28.57C50,57.92,9.51,59.9,6.2,73.87S35.84,110,39.5,112.46c-.85,4.63-8.7,48.75.71,53.28a11.23,11.23,0,0,0,4.93,1c13.4,0,36.08-16,38.94-18l.11-.11a3.18,3.18,0,0,1,1.1-.9,3.07,3.07,0,0,1,1.3-.34h0l.15,0a.61.61,0,0,1,.55.14c.71.59,1.46,1.13,2.19,1.65l.64.46.15.09.23.12.1.07c30.09,17.39,36.71,17.47,45.63,13.42,8.28-3.76,1.38-46.82.71-50.9,3.53-3.72,6.62-6.93,9.3-9.73,16.4-17.1,18.12-18.89,18.59-26.45v-.07Z"/><path d="M81.58,14.51l.14-.11.17-.15.07,0,.24-.11.09,0a6.33,6.33,0,0,1,1.51-.31l.38,0h.26a8.43,8.43,0,0,1,2.44.36c3.39,1.52,8.39,6.19,15,18.6.33-.06.66-.15,1-.24C96,19.61,90.81,14.76,87.22,13.16a9.72,9.72,0,0,0-3.09-.42l-.4,0a7.71,7.71,0,0,0-1.79.38l-.15.06-.21.09-.26.14c-.12.09-.21.18-.27.23-3.83,2-8.36,8.29-12.61,15.52l1.19,0C73.72,22.24,78,16.33,81.58,14.51Z"/></svg>
