<svg id="Layer_2" data-name="Layer 2" xmlns="http://www.w3.org/2000/svg" width="170" height="160" viewBox="0 0 170 160"><defs><style>.cls-1{fill:#231f20;}.cls-2{fill:#e36ea6;}</style></defs><path class="cls-1" d="M160.28,64.8,160.1,64a5.66,5.66,0,0,0-.15-.59s-.07-.18-.08-.23l0-.06a14.37,14.37,0,0,0-.89-1.31c-.43-.47-.93-1-1.48-1.48-10.21-9.57-48.74-16.12-48.74-16.12-12-30.49-20.58-39.68-25.7-42a9.36,9.36,0,0,0-2.92-.4l-.39,0a7.23,7.23,0,0,0-1.65.34l-.33.15-.17.07a2.85,2.85,0,0,0-.27.25C66.89,8,50.62,46.86,50.62,46.86S6,48.36,2.63,62.6,36,100.84,36,100.84s-9.11,48.5.38,53.07c11.57,5.59,41.27-15.49,43.36-17a3.42,3.42,0,0,1,1.28-1,3.51,3.51,0,0,1,1.52-.4,1.11,1.11,0,0,1,1,.23c.9.75,1.87,1.41,2.81,2.1l.25.13a.57.57,0,0,1,.18.12c31,17.89,36.95,17.13,45.18,13.39s.38-50.61.38-50.61C157.62,74.28,159.74,73.41,160.28,64.8Z"/><path class="cls-2" d="M166.58,67.09c-.06-.26-.11-.52-.18-.78s-.09-.39-.14-.59c0,0-.08-.18-.09-.23s0,0,0-.06c-.25-.47-.61-.86-.9-1.31s-.93-1-1.48-1.47C153.56,53.07,115,46.53,115,46.53,103,16,94.45,6.85,89.33,4.56a9.09,9.09,0,0,0-2.92-.41l-.39,0a7,7,0,0,0-1.64.34c-.12,0-.22.11-.34.15l-.16.08A2,2,0,0,0,83.6,5C73.19,10.3,56.92,49.15,56.92,49.15s-44.61,1.5-48,15.75S42.3,103.14,42.3,103.14s-9.11,48.49.38,53.07c11.57,5.58,41.27-15.49,43.36-17a3.45,3.45,0,0,1,1.28-1.05,3.5,3.5,0,0,1,1.52-.39,1.07,1.07,0,0,1,1,.23c.89.75,1.86,1.41,2.8,2.09l.25.13a.57.57,0,0,1,.18.12c31,17.89,36.95,17.14,45.19,13.4s.37-50.61.37-50.61C163.92,76.57,166,75.7,166.58,67.09Z"/><path d="M47.39,157.64a11.37,11.37,0,0,1-4.93-1c-9.41-4.54-1.56-48.66-.71-53.29C38.09,101,5.15,78.7,8.45,64.78s43.77-16,48.14-16.12C58.22,44.8,73.21,9.86,83.3,4.57l.27-.23.26-.13.22-.1.13-.06A7.39,7.39,0,0,1,86,3.68l.4,0a9.15,9.15,0,0,1,3.09.42c5.2,2.32,13.86,11.47,25.92,42,3.78.66,38.86,7,48.72,16.2.66.62,1.13,1.08,1.51,1.51.16.22.27.38.39.53a7.05,7.05,0,0,1,.58.88l.14.38c.06.21.11.41.16.62s.12.51.17.77l0,.15c-.48,7.57-2.19,9.35-18.59,26.45-2.69,2.8-5.77,6-9.31,9.73.68,4.08,7.58,47.14-.7,50.9-8.92,4.06-15.54,4-45.64-13.41l-.09-.07-.23-.13-.15-.08-.64-.46c-.73-.53-1.49-1.07-2.19-1.66a.58.58,0,0,0-.55-.13l-.15,0h0a3.27,3.27,0,0,0-2.4,1.23l-.11.11C83.47,141.68,60.79,157.64,47.39,157.64Zm39.3-153h-.26l-.38,0A6.24,6.24,0,0,0,84.54,5l-.08,0-.25.11,0,0a.88.88,0,0,0-.19.17l-.14.11C73.7,10.6,57.55,49,57.38,49.34l-.12.3h-.32C56.5,49.67,12.67,51.3,9.42,65s32.79,37.47,33.16,37.71l.27.18-.06.33c0,.12-2.28,12.25-3.36,24.77-1.78,20.7.9,26.52,3.46,27.76,11.25,5.42,40.82-15.49,42.8-16.91a4.1,4.1,0,0,1,1.41-1.13,3.91,3.91,0,0,1,1.67-.44,1.62,1.62,0,0,1,1.41.34c.68.57,1.42,1.1,2.13,1.61l.7.49.09.05a1.08,1.08,0,0,1,.29.18c31.15,18,36.75,17,44.68,13.34,6.48-2.94,2.26-37.14.09-50.07l0-.25.17-.18c3.61-3.8,6.75-7.07,9.48-9.91,16.12-16.8,17.85-18.61,18.31-25.75-.06-.24-.11-.47-.16-.71s-.09-.37-.15-.56-.05-.13-.07-.19a5.15,5.15,0,0,0-.5-.75l-.37-.52c-.31-.34-.76-.79-1.4-1.39-10-9.36-48.1-15.93-48.48-16l-.28-.05-.1-.26C102.57,16.28,94.11,7.24,89.12,5A8.72,8.72,0,0,0,86.69,4.65Z"/><path class="cls-2" d="M47.39,157.64a11.37,11.37,0,0,1-4.93-1c-9.41-4.54-1.56-48.66-.71-53.29C38.09,101,5.15,78.7,8.45,64.78s43.77-16,48.14-16.12C58.22,44.8,73.21,9.86,83.3,4.57l.27-.23.26-.13L84,4.12l.15-.07A7.21,7.21,0,0,1,86,3.68l.4,0a9.19,9.19,0,0,1,3.09.42c5.2,2.32,13.86,11.47,25.92,42,3.78.66,38.86,7,48.72,16.2.66.62,1.13,1.09,1.51,1.51l.38.53a6.14,6.14,0,0,1,.59.88l.14.38c.06.21.11.41.16.62l.19.85v.07c-.47,7.57-2.19,9.35-18.59,26.45-2.69,2.8-5.77,6-9.3,9.73.67,4.08,7.57,47.14-.71,50.9-8.92,4.06-15.54,4-45.64-13.41l-.09-.07-.23-.13-.15-.08-.64-.46c-.73-.53-1.48-1.07-2.19-1.66a.58.58,0,0,0-.55-.13l-.15,0h0a3.07,3.07,0,0,0-1.3.34,3,3,0,0,0-1.1.89l-.11.11C83.47,141.68,60.79,157.64,47.39,157.64Zm39.3-153h-.26l-.38,0A6.34,6.34,0,0,0,84.54,5l-.09,0-.24.1-.07,0L84,5.32l-.14.11C73.7,10.6,57.55,49,57.38,49.34l-.12.3h-.32C56.5,49.66,12.67,51.3,9.42,65s32.79,37.47,33.16,37.71l.28.18-.07.33c0,.12-2.28,12.25-3.36,24.77-1.78,20.7.9,26.52,3.46,27.76,11.25,5.41,40.82-15.49,42.8-16.91a4.1,4.1,0,0,1,1.41-1.13,3.92,3.92,0,0,1,1.68-.44,1.62,1.62,0,0,1,1.4.34c.68.57,1.42,1.1,2.13,1.61l.7.49.1.05a1,1,0,0,1,.28.18c31.15,18,36.74,17,44.68,13.34,6.48-2.94,2.26-37.14.09-50.07l0-.25.17-.18c3.61-3.8,6.75-7.07,9.48-9.91,16.12-16.81,17.85-18.61,18.3-25.75l-.15-.71c0-.18-.09-.37-.14-.56a1,1,0,0,1-.08-.19,5.15,5.15,0,0,0-.5-.75l-.37-.52c-.31-.34-.76-.79-1.4-1.39-10-9.36-48.1-15.93-48.48-16l-.28-.05-.1-.26C102.57,16.28,94.11,7.24,89.12,5A8.66,8.66,0,0,0,86.69,4.65Z"/><path d="M47.38,158.14a11.75,11.75,0,0,1-5.14-1c-4.14-2-5.65-11.12-4.48-27.1.86-11.73,2.9-23.44,3.44-26.41C36.32,100.35,4.66,78.61,8,64.67S50.35,48.43,56.25,48.18C58.43,43,73,9.52,83,4.17c.07-.06.15-.14.26-.22l.34-.19a2.31,2.31,0,0,0,.23-.1L84,3.6a8,8,0,0,1,2-.42l.42,0a9.94,9.94,0,0,1,3.26.44c5.29,2.36,14,11.54,26.14,42,5.08.89,38.94,7.13,48.69,16.28.68.63,1.15,1.1,1.54,1.53l.38.53a7.41,7.41,0,0,1,.66,1l.17.43c.08.26.13.47.18.68l.2.93v.07c-.49,7.82-2.21,9.62-18.73,26.83-2.64,2.76-5.67,5.91-9.13,9.55,1.38,8.46,7.28,47.42-1,51.2-9.08,4.13-15.8,4.07-46.1-13.44l-1.15-.77c-.74-.52-1.5-1.07-2.22-1.67h0l-.12,0-.14,0a2.7,2.7,0,0,0-1.16.3,2.41,2.41,0,0,0-.91.74l-.17.17C84,141.88,61,158.14,47.39,158.14h0ZM84.37,5.6s0,.05,0,.06l-.21.16C74.11,11,58,49.15,57.85,49.54l-.25.59-.64,0c-.44,0-43.9,1.65-47,15C7.26,76.29,32.79,95.74,42.85,102.3l.56.36-.13.66c-.09.51-2.3,12.45-3.35,24.73-1.85,21.49,1.2,26.3,3.18,27.26,10.92,5.25,40.3-15.45,42.23-16.82a4.58,4.58,0,0,1,1.54-1.22,4.66,4.66,0,0,1,1.83-.49,2.14,2.14,0,0,1,1.79.46c.66.56,1.4,1.08,2.1,1.59l.7.48a1.36,1.36,0,0,1,.41.26c30.86,17.81,36.37,16.8,44.15,13.27,5.5-2.5,2.8-31.71-.2-49.54l-.08-.49.35-.36c3.51-3.7,6.58-6.9,9.26-9.69l.22-.23c16-16.67,17.71-18.46,18.16-25.36l-.14-.64c0-.17-.08-.35-.14-.53l0-.14a5.14,5.14,0,0,0-.44-.64l-.39-.55c-.25-.26-.69-.7-1.32-1.29-9.91-9.3-47.84-15.8-48.22-15.87l-.56-.09-.21-.53C102.17,16.63,93.82,7.66,88.92,5.47a8.23,8.23,0,0,0-2.23-.32l-.61,0a5.84,5.84,0,0,0-1.38.29,2,2,0,0,1-.33.14Zm1.56,133.69C83.4,141.1,67.23,152.41,54.37,156,67.26,152.42,83.41,141.1,85.93,139.29Zm6.91.91.3.18c14.45,8.35,23.43,12.68,29.85,14.47-6.3-1.8-15.32-6.08-29.85-14.47a1.37,1.37,0,0,0-.23-.15Zm45.81-37.06h0c.06.34,4.17,25.15,3.23,40,.73-11.07-1.29-28.23-3.19-39.74l0-.24.17-.19,1.42-1.48-1.59,1.67ZM90.94,138.86l1.08.78.76.53-.75-.53C91.67,139.39,91.3,139.13,90.94,138.86Zm-4.76.18-.1.12,0,.06h0l0-.06Zm2.5-1.26a3.66,3.66,0,0,0-1.14.29A3.55,3.55,0,0,1,88.68,137.78Zm.16,0h0Zm.09,0h0l0,0,.07,0ZM42.25,103.41v0a244.58,244.58,0,0,0-3.71,30.18q.15-2.69.4-5.68C39.92,116.5,41.9,105.33,42.25,103.41Zm-31-28.86c2.31,4,6.2,8.52,11.59,13.47A167.28,167.28,0,0,0,42,103l.27.19h0C42,102.94,19,87.83,11.24,74.55ZM151.1,90.12l-3,3.1-.22.23-.17.18.39-.41Zm15.14-24.43c.07.24.12.43.16.62l.18.78v.07c0,.48-.06.93-.11,1.36,0-.46.09-.93.12-1.43l-.18-.78c0-.2-.09-.39-.15-.59Zm-.52-.91a5.46,5.46,0,0,1,.42.64l0,0A5.68,5.68,0,0,0,165.72,64.78Zm-.52-.71.33.45-.32-.45ZM115,46.53c.39.06,37.67,6.46,48.35,15.76-10.24-8.94-44.19-15-48.07-15.72l-.28,0ZM56.92,49.15h-.31A167.35,167.35,0,0,0,32.22,52,82.38,82.38,0,0,0,23,54.44,90.26,90.26,0,0,1,34.14,51.7a175.53,175.53,0,0,1,22.78-2.55ZM83.45,5.06c-9.93,5.35-24.74,39.87-26.4,43.8L57,49C58.28,45.94,73.56,10.39,83.45,5.06Zm4.72-.78a10.3,10.3,0,0,1,1.1.25,11.6,11.6,0,0,1,1,.54,11.6,11.6,0,0,0-1-.54A10.3,10.3,0,0,0,88.17,4.28Zm-4.72.78Zm.4-.3,0,0-.15.15L83.54,5l.06,0,.07-.06a1.11,1.11,0,0,1,.17-.15Zm.3-.14-.14,0h0Zm.21-.1h0l-.11,0h0Zm2-.37Zm.27,0h0Z"/></svg>
