<svg id="Layer_2" data-name="Layer 2" xmlns="http://www.w3.org/2000/svg" width="170" height="160" viewBox="0 0 170 160"><defs><style>.cls-1{fill:#231f20;}.cls-2{fill:#e16ea4;}.cls-3{fill:#fff;stroke:#000;stroke-miterlimit:10;stroke-width:0.5px;}</style></defs><path class="cls-1" d="M159,64.8c-.06-.26-.11-.52-.17-.78l-.15-.59a1.23,1.23,0,0,1-.08-.23l0-.06c-.25-.47-.61-.87-.9-1.31s-.92-1-1.48-1.48c-10.21-9.57-48.73-16.12-48.73-16.12-12-30.49-20.59-39.68-25.71-42a9.32,9.32,0,0,0-2.92-.4l-.38,0a7.12,7.12,0,0,0-1.65.34l-.34.15-.16.07c-.18.15-.28.25-.28.25C65.56,8,49.3,46.86,49.3,46.86s-44.62,1.5-48,15.74,33.37,38.24,33.37,38.24-9.12,48.5.37,53.07c11.57,5.59,41.27-15.49,43.36-17a3.82,3.82,0,0,1,2.81-1.44,1.11,1.11,0,0,1,1,.23c.9.75,1.86,1.41,2.8,2.1l.25.13a.76.76,0,0,1,.19.12c31,17.89,37,17.13,45.18,13.39s.37-50.61.37-50.61C156.29,74.28,158.41,73.41,159,64.8Z"/><path class="cls-2" d="M165.25,67.09c-.05-.26-.11-.52-.17-.78s-.09-.39-.15-.59a1.23,1.23,0,0,1-.08-.23l0-.06c-.25-.47-.6-.86-.89-1.31s-.93-1-1.49-1.47c-10.2-9.58-48.73-16.12-48.73-16.12C101.68,16,93.12,6.85,88,4.56a9,9,0,0,0-2.91-.41l-.39,0a7.12,7.12,0,0,0-1.65.34,3.49,3.49,0,0,1-.34.15l-.16.08a2.27,2.27,0,0,0-.27.24C71.86,10.3,55.6,49.15,55.6,49.15S11,50.65,7.61,64.9,41,103.14,41,103.14s-9.12,48.49.37,53.07c11.57,5.58,41.27-15.49,43.36-17a3.77,3.77,0,0,1,2.81-1.44,1.06,1.06,0,0,1,1,.23c.9.75,1.86,1.41,2.81,2.09l.25.13a.57.57,0,0,1,.18.12c31,17.89,37,17.14,45.18,13.4s.38-50.61.38-50.61C162.59,76.57,164.72,75.7,165.25,67.09Z"/><path d="M46.07,157.64a11.31,11.31,0,0,1-4.93-1c-9.41-4.54-1.57-48.66-.71-53.29C36.77,101,3.83,78.7,7.13,64.78s43.77-16,48.13-16.12C56.89,44.8,71.89,9.86,82,4.57l.26-.23.26-.13.22-.1.14-.06a7.31,7.31,0,0,1,1.79-.37l.41,0a9.22,9.22,0,0,1,3.09.42c5.2,2.32,13.85,11.47,25.92,42,3.77.66,38.86,7,48.72,16.2.66.62,1.12,1.08,1.51,1.51.15.22.27.38.38.53a7.05,7.05,0,0,1,.58.88l.15.38c.06.21.11.41.16.62s.11.51.17.77v.15c-.47,7.57-2.18,9.35-18.59,26.45-2.68,2.8-5.76,6-9.3,9.73.67,4.08,7.57,47.14-.7,50.9-8.92,4.06-15.55,4-45.64-13.41l-.1-.07-.22-.13-.16-.08-.64-.46c-.73-.53-1.48-1.07-2.19-1.66a.58.58,0,0,0-.55-.13l-.14,0h0a3.28,3.28,0,0,0-2.39,1.23l-.11.11C82.14,141.68,59.47,157.64,46.07,157.64Zm39.29-153H85.1l-.37,0A6.32,6.32,0,0,0,83.21,5l-.07,0-.26.11,0,0a.88.88,0,0,0-.19.17l-.15.11C72.37,10.6,56.22,49,56.06,49.34l-.12.3h-.33C55.17,49.67,11.35,51.3,8.1,65s32.79,37.47,33.15,37.71l.28.18-.06.33c0,.12-2.29,12.25-3.37,24.77-1.78,20.7.91,26.52,3.47,27.76,11.25,5.42,40.81-15.49,42.79-16.91a4.19,4.19,0,0,1,1.41-1.13,4,4,0,0,1,1.68-.44,1.6,1.6,0,0,1,1.4.34c.68.57,1.42,1.1,2.13,1.61l.7.49.1.05a1,1,0,0,1,.28.18c31.16,18,36.75,17,44.68,13.34,6.48-2.94,2.26-37.14.09-50.07l0-.25.17-.18c3.61-3.8,6.75-7.07,9.48-9.91,16.12-16.8,17.85-18.61,18.31-25.75-.05-.24-.1-.47-.16-.71s-.09-.37-.14-.56a.89.89,0,0,1-.07-.19,6.11,6.11,0,0,0-.5-.75c-.13-.17-.26-.35-.37-.52-.32-.34-.77-.79-1.41-1.39-10-9.36-48.09-15.93-48.48-16l-.27-.05-.11-.26C101.24,16.28,92.78,7.24,87.8,5A8.79,8.79,0,0,0,85.36,4.65Z"/><path class="cls-2" d="M46.07,157.64a11.31,11.31,0,0,1-4.93-1c-9.41-4.54-1.57-48.66-.71-53.29C36.77,101,3.83,78.7,7.13,64.78s43.77-16,48.13-16.12C56.89,44.8,71.88,9.86,82,4.57l.28-.23.25-.13.22-.09.14-.07a7.29,7.29,0,0,1,1.8-.37l.4,0a9.25,9.25,0,0,1,3.09.42c5.2,2.32,13.85,11.47,25.92,42,3.77.66,38.86,7,48.72,16.2.66.62,1.12,1.09,1.51,1.51.15.22.27.37.38.53a7.05,7.05,0,0,1,.58.88l.15.38c.06.21.11.41.16.62l.19.85v.07c-.47,7.57-2.18,9.35-18.59,26.45-2.68,2.8-5.76,6-9.3,9.73.67,4.08,7.57,47.14-.7,50.9-8.92,4.06-15.55,4-45.64-13.41l-.09-.07-.23-.13-.16-.08-.63-.46c-.73-.53-1.49-1.07-2.2-1.66a.58.58,0,0,0-.55-.13l-.14,0h0a3.28,3.28,0,0,0-2.39,1.23l-.11.11C82.14,141.68,59.47,157.64,46.07,157.64Zm39.3-153H85.1l-.37,0A6.32,6.32,0,0,0,83.21,5l-.08,0-.25.1-.06,0a.9.9,0,0,0-.17.16l-.15.11C72.37,10.6,56.22,49,56.06,49.34l-.12.3h-.32C55.17,49.66,11.35,51.3,8.1,65s32.79,37.47,33.15,37.71l.28.18-.06.33c0,.12-2.29,12.25-3.37,24.77-1.77,20.7.91,26.52,3.47,27.76,11.24,5.41,40.81-15.49,42.79-16.91a4.19,4.19,0,0,1,1.41-1.13,4,4,0,0,1,1.68-.44,1.6,1.6,0,0,1,1.4.34c.68.57,1.42,1.1,2.14,1.61l.7.49.09.05a.84.84,0,0,1,.28.18c31.15,18,36.75,17,44.68,13.34,6.48-2.94,2.26-37.14.09-50.07l0-.25.17-.18c3.62-3.8,6.75-7.07,9.48-9.91,16.12-16.81,17.85-18.61,18.31-25.75l-.16-.71c0-.18-.09-.37-.14-.56a.89.89,0,0,1-.07-.19,7.51,7.51,0,0,0-.5-.75c-.13-.18-.26-.35-.37-.52-.32-.34-.77-.79-1.41-1.39-10-9.36-48.09-15.93-48.48-16l-.27-.05-.11-.26C101.24,16.28,92.78,7.24,87.8,5A8.77,8.77,0,0,0,85.37,4.65Z"/><path d="M46.06,158.14a11.72,11.72,0,0,1-5.14-1c-4.15-2-5.66-11.12-4.49-27.1.86-11.73,2.9-23.44,3.44-26.41C35,100.35,3.34,78.61,6.64,64.67S49,48.43,54.92,48.18C57.11,43,71.66,9.52,81.68,4.17A2.25,2.25,0,0,1,81.94,4l.33-.19.24-.1.15-.06a7.91,7.91,0,0,1,2-.42l.42,0a9.94,9.94,0,0,1,3.26.44c5.29,2.36,14.06,11.54,26.14,42,5.09.89,38.95,7.13,48.7,16.28.67.63,1.15,1.1,1.54,1.53.17.25.28.39.38.53a8.52,8.52,0,0,1,.66,1l.17.43c.07.26.12.47.17.68l.21.93v.07c-.49,7.82-2.22,9.62-18.73,26.83-2.65,2.76-5.67,5.91-9.14,9.55,1.39,8.46,7.28,47.42-1,51.2-9.08,4.13-15.79,4.07-46.09-13.44l-1.16-.77c-.73-.52-1.49-1.07-2.22-1.67h0l-.11,0-.15,0a2.66,2.66,0,0,0-1.15.3,2.45,2.45,0,0,0-.92.74l-.16.17c-2.64,1.9-25.69,18.16-39.29,18.16h0ZM83.05,5.6s0,.05,0,.06l-.2.16C72.79,11,56.68,49.15,56.52,49.54l-.25.59-.64,0c-.44,0-43.89,1.65-47.05,15C5.94,76.29,31.47,95.74,41.52,102.3l.56.36-.12.66c-.09.51-2.3,12.45-3.36,24.73-1.85,21.49,1.2,26.3,3.19,27.26C52.7,160.56,82.08,139.86,84,138.49a4.75,4.75,0,0,1,3.38-1.71,2.11,2.11,0,0,1,1.78.46c.67.56,1.4,1.08,2.11,1.59l.69.48a1.54,1.54,0,0,1,.42.26c30.86,17.81,36.36,16.8,44.15,13.27,5.5-2.5,2.79-31.71-.2-49.54l-.08-.49.34-.36c3.52-3.7,6.59-6.9,9.26-9.69l.22-.23c16-16.67,17.71-18.46,18.17-25.36l-.15-.64c0-.17-.08-.35-.13-.53a.38.38,0,0,1-.05-.14,6.51,6.51,0,0,0-.44-.64c-.14-.18-.27-.36-.39-.55s-.7-.7-1.33-1.29c-9.9-9.3-47.84-15.8-48.22-15.87l-.55-.09-.21-.53C100.84,16.63,92.49,7.66,87.59,5.47a8.1,8.1,0,0,0-2.22-.32l-.62,0a5.66,5.66,0,0,0-1.37.29,2,2,0,0,1-.33.14Zm1.56,133.69c-2.53,1.81-18.7,13.12-31.56,16.74C65.94,152.42,82.08,141.1,84.61,139.29Zm6.91.91.3.18c14.44,8.35,23.43,12.68,29.85,14.47-6.3-1.8-15.32-6.08-29.86-14.47l-.22-.15Zm45.81-37.06h0c0,.34,4.17,25.15,3.22,40,.74-11.07-1.28-28.23-3.18-39.74l0-.24.17-.19,1.41-1.48-1.58,1.67ZM89.61,138.86l1.09.78.76.53-.76-.53Zm-4.75.18-.1.12-.05.06h0l.05-.06Zm2.49-1.26a3.66,3.66,0,0,0-1.14.29A3.61,3.61,0,0,1,87.35,137.78Zm.16,0h0Zm.1,0h0l0,0,.07,0ZM40.93,103.41v0a244.58,244.58,0,0,0-3.71,30.18q.13-2.69.4-5.68C38.59,116.5,40.58,105.33,40.93,103.41Zm-31-28.86c2.31,4,6.19,8.52,11.58,13.47A169.13,169.13,0,0,0,40.7,103l.28.19h0C40.69,102.94,17.68,87.83,9.92,74.55ZM149.78,90.12l-3,3.1-.22.23-.17.18.39-.41Zm15.14-24.43c.07.24.11.43.16.62l.17.78v.07c0,.48-.07.93-.11,1.36.05-.46.08-.93.11-1.43l-.17-.78c-.05-.2-.09-.39-.15-.59Zm-.52-.91a5.44,5.44,0,0,1,.41.64v0C164.69,65.19,164.55,65,164.4,64.78Zm-.52-.71.33.45-.33-.45ZM113.71,46.53c.39.06,37.67,6.46,48.34,15.76-10.24-8.94-44.18-15-48.07-15.72l-.27,0ZM55.6,49.15h-.32A167.41,167.41,0,0,0,30.9,52a82.58,82.58,0,0,0-9.27,2.4A90.9,90.9,0,0,1,32.82,51.7,175.53,175.53,0,0,1,55.6,49.15ZM82.12,5.06c-9.93,5.35-24.74,39.87-26.4,43.8l0,.09C57,45.94,72.24,10.39,82.12,5.06Zm4.72-.78a10.3,10.3,0,0,1,1.1.25,11.72,11.72,0,0,1,1,.54,10.51,10.51,0,0,0-1-.54A9.77,9.77,0,0,0,86.84,4.28Zm-4.71.78Zm.39-.3,0,0a1.17,1.17,0,0,1-.16.15l-.1.08.06,0,.06-.06a1.11,1.11,0,0,1,.17-.15Zm.3-.14-.14,0h0Zm.22-.1h0l-.1,0h0Zm2-.37h0Zm.26,0h0Z"/><path d="M45.79,79.31V77.78a1,1,0,0,1,1-1H53a1,1,0,0,1,1,1v5.75a1,1,0,0,1-.46.86,16.13,16.13,0,0,1-3.7,1.88,14.38,14.38,0,0,1-4.3.58,10.34,10.34,0,0,1-5-1,7.06,7.06,0,0,1-3-3.1A10.18,10.18,0,0,1,36.5,78a9.83,9.83,0,0,1,1.16-4.89,7.51,7.51,0,0,1,3.4-3.16,11.1,11.1,0,0,1,4.69-.83A13,13,0,0,1,50,69.6a5.4,5.4,0,0,1,2.35,1.6,6.78,6.78,0,0,1,1,1.56,1,1,0,0,1-.77,1.4l-3.16.56a1,1,0,0,1-1-.49,2.54,2.54,0,0,0-.8-.86,3.34,3.34,0,0,0-1.92-.51,3.49,3.49,0,0,0-2.79,1.21,5.86,5.86,0,0,0-1,3.84,6,6,0,0,0,1,4,3.66,3.66,0,0,0,2.92,1.2,5.65,5.65,0,0,0,1.7-.26,8.41,8.41,0,0,0,1.29-.56,1.05,1.05,0,0,0,.56-.92h0a1,1,0,0,0-1-1H46.81A1,1,0,0,1,45.79,79.31Z"/><path d="M56.48,78a8.14,8.14,0,0,1,8.87-8.9A9,9,0,0,1,72,71.38a8.73,8.73,0,0,1,2.32,6.46,10.56,10.56,0,0,1-1,4.94,7.24,7.24,0,0,1-2.93,3,9.67,9.67,0,0,1-4.77,1.07,10.94,10.94,0,0,1-4.81-.93A7.24,7.24,0,0,1,57.66,83,9.7,9.7,0,0,1,56.48,78Zm5.31,0a5.81,5.81,0,0,0,1,3.74,3.67,3.67,0,0,0,5.28,0c.63-.74.94-2.07.94-4a5.34,5.34,0,0,0-1-3.55,3.33,3.33,0,0,0-2.65-1.12,3.23,3.23,0,0,0-2.58,1.14A5.77,5.77,0,0,0,61.79,78Z"/><path d="M76.33,69.37H90.42a1,1,0,0,1,1,1v2.2a1,1,0,0,1-1,1H87.05a1,1,0,0,0-1,1V85.53a1,1,0,0,1-1,1H81.74a1,1,0,0,1-1-1V74.64a1,1,0,0,0-1-1H76.33a1,1,0,0,1-1-1V70.4A1,1,0,0,1,76.33,69.37Z"/><path d="M103.08,69.37h3.28a1,1,0,0,1,1,1V85.53a1,1,0,0,1-1,1h-3.28a1,1,0,0,1-1-1V70.4A1,1,0,0,1,103.08,69.37Z"/><path d="M111,69.37H125.1a1,1,0,0,1,1,1v2.2a1,1,0,0,1-1,1h-3.37a1,1,0,0,0-1,1V85.53a1,1,0,0,1-1,1h-3.27a1,1,0,0,1-1-1V74.64a1,1,0,0,0-1-1H111a1,1,0,0,1-1-1V70.4A1,1,0,0,1,111,69.37Z"/><path d="M129.24,69.37h3.06a1,1,0,0,1,1,1v2.83s0,.08,0,.12l-.87,6.91a1,1,0,0,1-1,.89h-1.35a1,1,0,0,1-1-.89l-.84-6.91a.49.49,0,0,1,0-.12V70.4A1,1,0,0,1,129.24,69.37Zm.18,13h2.71a1,1,0,0,1,1,1v2.16a1,1,0,0,1-1,1h-2.71a1,1,0,0,1-1-1V83.37A1,1,0,0,1,129.42,82.35Z"/><path class="cls-3" d="M46.55,80.5V79a1,1,0,0,1,1-1h6.16a1,1,0,0,1,1,1v5.75a1,1,0,0,1-.46.86,16.13,16.13,0,0,1-3.7,1.88,14.38,14.38,0,0,1-4.3.58,10.34,10.34,0,0,1-5-1.05,7.06,7.06,0,0,1-3-3.1,10.21,10.21,0,0,1-1.06-4.74,9.83,9.83,0,0,1,1.16-4.89,7.46,7.46,0,0,1,3.4-3.16,11.1,11.1,0,0,1,4.69-.83,13,13,0,0,1,4.26.52,5.4,5.4,0,0,1,2.35,1.6,6.57,6.57,0,0,1,1,1.56,1,1,0,0,1-.77,1.4l-3.16.56a1,1,0,0,1-1.05-.49,2.54,2.54,0,0,0-.8-.86A3.35,3.35,0,0,0,46.4,74a3.49,3.49,0,0,0-2.79,1.22,5.83,5.83,0,0,0-1,3.83,6,6,0,0,0,1.05,4,3.65,3.65,0,0,0,2.92,1.19,5.64,5.64,0,0,0,1.7-.25,8.54,8.54,0,0,0,1.29-.57,1,1,0,0,0,.56-.91h0a1,1,0,0,0-1-1H47.57A1,1,0,0,1,46.55,80.5Z"/><path class="cls-3" d="M57.24,79.17a8.12,8.12,0,0,1,8.87-8.9,9,9,0,0,1,6.61,2.3A8.72,8.72,0,0,1,75,79,10.5,10.5,0,0,1,74,84a7.12,7.12,0,0,1-2.93,3A9.56,9.56,0,0,1,66.32,88a10.94,10.94,0,0,1-4.81-.93,7.24,7.24,0,0,1-3.09-2.93A9.73,9.73,0,0,1,57.24,79.17Zm5.31,0a5.81,5.81,0,0,0,1,3.74,3.67,3.67,0,0,0,5.28,0c.63-.74.94-2.07.94-4a5.33,5.33,0,0,0-1-3.54,3.33,3.33,0,0,0-2.65-1.12,3.23,3.23,0,0,0-2.58,1.14A5.75,5.75,0,0,0,62.55,79.19Z"/><path class="cls-3" d="M77.09,70.56H91.18a1,1,0,0,1,1,1v2.2a1,1,0,0,1-1,1H87.81a1,1,0,0,0-1,1V86.72a1,1,0,0,1-1,1H82.5a1,1,0,0,1-1-1V75.83a1,1,0,0,0-1-1H77.09a1,1,0,0,1-1-1v-2.2A1,1,0,0,1,77.09,70.56Z"/><path class="cls-3" d="M103.84,70.56h3.28a1,1,0,0,1,1,1V86.72a1,1,0,0,1-1,1h-3.28a1,1,0,0,1-1-1V71.58A1,1,0,0,1,103.84,70.56Z"/><path class="cls-3" d="M111.77,70.56h14.09a1,1,0,0,1,1,1v2.2a1,1,0,0,1-1,1h-3.37a1,1,0,0,0-1,1V86.72a1,1,0,0,1-1,1h-3.27a1,1,0,0,1-1-1V75.83a1,1,0,0,0-1-1h-3.37a1,1,0,0,1-1-1v-2.2A1,1,0,0,1,111.77,70.56Z"/><path class="cls-3" d="M130,70.56h3.06a1,1,0,0,1,1,1v2.83s0,.09,0,.13l-.87,6.91a1,1,0,0,1-1,.89h-1.35a1,1,0,0,1-1-.9l-.84-6.9a.49.49,0,0,1,0-.12V71.58A1,1,0,0,1,130,70.56Zm.18,13h2.71a1,1,0,0,1,1,1v2.16a1,1,0,0,1-1,1h-2.71a1,1,0,0,1-1-1V84.56A1,1,0,0,1,130.18,83.54Z"/></svg>