<svg id="Layer_2" data-name="Layer 2" xmlns="http://www.w3.org/2000/svg" width="2400" height="200" viewBox="0 0 2400 200"><defs><style>.cls-1{fill:#231f20;}.cls-2{fill:#fcda33;}.cls-3{fill:#f5db12;}</style></defs><path class="cls-1" d="M782.63,86.45l-.18-.79c0-.19-.09-.39-.15-.58,0,0-.07-.19-.08-.24l0,0a14.37,14.37,0,0,0-.89-1.31c-.43-.47-.93-1-1.48-1.48-10.21-9.58-48.74-16.12-48.74-16.12-12-30.49-20.58-39.68-25.7-42a8.81,8.81,0,0,0-2.92-.4l-.39,0a6.14,6.14,0,0,0-1.64.34l-.34.14-.17.08a2.27,2.27,0,0,0-.27.24C689.24,29.65,673,68.5,673,68.5S628.36,70,625,84.25s33.36,38.24,33.36,38.24-9.11,48.49.38,53.07c11.57,5.58,41.27-15.49,43.36-17a3.55,3.55,0,0,1,1.28-1,3.5,3.5,0,0,1,1.52-.39,1.11,1.11,0,0,1,1,.23c.9.75,1.87,1.41,2.81,2.09a1.19,1.19,0,0,0,.25.13.59.59,0,0,1,.18.13c31,17.88,37,17.13,45.18,13.39s.38-50.61.38-50.61C780,95.93,782.09,95.05,782.63,86.45Z"/><path class="cls-2" d="M701.65,132c-12.88-6.81-25.75-3.3-38.63.54-2.1,14.47-4.72,39.77,2,43,11.57,5.58,41.27-15.49,43.36-17a3.55,3.55,0,0,1,1.28-1,3.64,3.64,0,0,1,1.52-.39,1.13,1.13,0,0,1,1,.23c.89.75,1.86,1.41,2.8,2.1.09,0,.16.09.25.12a.59.59,0,0,1,.18.13c31,17.88,37,17.13,45.19,13.39,6.31-2.87,3.18-31,1.36-44a16.4,16.4,0,0,0-3.34.94C739.65,134,720.65,142,701.65,132Z"/><path d="M669.74,177a11.23,11.23,0,0,1-4.93-1c-9.41-4.54-1.56-48.65-.71-53.29-3.66-2.42-36.6-24.67-33.3-38.59S674.57,68.19,678.94,68c1.63-3.87,16.62-38.81,26.71-44.09l.27-.24.26-.13.21-.09.15-.06a6.8,6.8,0,0,1,1.79-.38l.4,0a9.45,9.45,0,0,1,3.09.42c5.2,2.32,13.86,11.48,25.92,42,3.78.66,38.86,7,48.72,16.2.66.62,1.13,1.09,1.51,1.51l.38.53a6.75,6.75,0,0,1,.59.88l.14.38c.06.21.11.42.16.62l.19.86v.07c-.47,7.56-2.19,9.35-18.59,26.44-2.69,2.8-5.77,6-9.3,9.73.67,4.09,7.57,47.14-.71,50.9-8.92,4.06-15.54,4-45.64-13.41l-.09-.07-.23-.12-.15-.09-.64-.46c-.73-.52-1.48-1.06-2.19-1.66a.61.61,0,0,0-.55-.13l-.15,0h0a3.07,3.07,0,0,0-1.3.34,3.27,3.27,0,0,0-1.1.89l-.11.12C705.82,161,683.14,177,669.74,177ZM709,24h-.26l-.38,0a6.33,6.33,0,0,0-1.51.31l-.09,0-.24.1-.07,0c-.08.06-.15.14-.17.15l-.14.11C696.05,30,679.9,68.31,679.73,68.7l-.12.29h-.32c-.44,0-44.27,1.65-47.52,15.36s32.79,37.47,33.16,37.71l.28.18-.07.33c0,.12-2.28,12.25-3.36,24.78-1.78,20.69.9,26.51,3.46,27.75,11.25,5.41,40.82-15.49,42.8-16.9a3.88,3.88,0,0,1,1.41-1.13,4,4,0,0,1,1.68-.45,1.62,1.62,0,0,1,1.4.35c.68.56,1.42,1.1,2.13,1.61l.7.49.1,0a1.17,1.17,0,0,1,.28.17c31.15,18,36.74,16.95,44.68,13.34,6.48-2.94,2.26-37.14.09-50.07l0-.24.17-.19c3.61-3.79,6.75-7.06,9.48-9.91,16.12-16.8,17.85-18.61,18.31-25.75l-.16-.7c0-.19-.09-.38-.14-.56l-.08-.2a5.75,5.75,0,0,0-.5-.75c-.12-.17-.25-.34-.37-.52-.31-.34-.76-.78-1.4-1.39-10-9.36-48.1-15.92-48.48-16l-.28,0-.1-.27c-12-30.42-20.46-39.47-25.45-41.69A8.32,8.32,0,0,0,709,24Z"/><path class="cls-1" d="M383.1,86.45c-.05-.27-.11-.53-.17-.79s-.09-.39-.15-.58a1.69,1.69,0,0,1-.08-.24l0,0c-.25-.47-.6-.87-.89-1.31s-.93-1-1.48-1.48c-10.21-9.58-48.74-16.12-48.74-16.12-12-30.49-20.59-39.68-25.71-42a8.72,8.72,0,0,0-2.91-.4l-.39,0a6.3,6.3,0,0,0-1.65.34l-.33.14-.17.08a2.27,2.27,0,0,0-.27.24c-10.41,5.32-26.68,44.17-26.68,44.17s-44.61,1.5-48,15.75,33.37,38.24,33.37,38.24-9.11,48.49.37,53.07c11.58,5.58,41.27-15.49,43.37-17a3.73,3.73,0,0,1,2.8-1.44,1.11,1.11,0,0,1,1,.23c.9.75,1.86,1.41,2.81,2.09a1.19,1.19,0,0,0,.25.13.59.59,0,0,1,.18.13c31,17.88,36.95,17.13,45.18,13.39s.38-50.61.38-50.61C380.44,95.93,382.57,95.05,383.1,86.45Z"/><path class="cls-2" d="M295.88,152c-11.1-2.37-21.58-6-32.92-6.91-1.29,13.33-1.48,28,3.54,30.46,11.57,5.58,41.27-15.49,43.36-17a3.77,3.77,0,0,1,2.81-1.44,1.11,1.11,0,0,1,1,.23c.9.75,1.86,1.41,2.81,2.1a1.92,1.92,0,0,0,.25.12.59.59,0,0,1,.18.13c30.95,17.88,36.95,17.13,45.18,13.39,3.55-1.61,4.11-11.21,3.6-21.62C342.2,149.09,319.48,157.68,295.88,152Z"/><path d="M270.22,177a11.2,11.2,0,0,1-4.93-1c-9.41-4.54-1.56-48.65-.71-53.29-3.66-2.42-36.6-24.67-33.3-38.59S275.05,68.19,279.41,68c1.64-3.87,16.63-38.81,26.72-44.09a1.82,1.82,0,0,1,.27-.24l.26-.13.21-.09.14-.06a7,7,0,0,1,1.8-.38l.4,0a9.48,9.48,0,0,1,3.09.42c5.2,2.32,13.86,11.48,25.92,42,3.78.66,38.86,7,48.72,16.2.66.62,1.13,1.09,1.51,1.51.15.22.27.38.38.53a6.75,6.75,0,0,1,.59.88l.14.38c.06.21.11.42.16.62l.19.86v.07c-.48,7.56-2.19,9.35-18.59,26.44-2.69,2.8-5.77,6-9.31,9.73.68,4.09,7.57,47.14-.7,50.9-8.92,4.06-15.54,4-45.64-13.41l-.09-.07-.23-.12-.15-.09-.64-.46c-.73-.52-1.49-1.06-2.2-1.66a.58.58,0,0,0-.54-.13l-.15,0h0a3,3,0,0,0-1.3.34,3.08,3.08,0,0,0-1.1.89l-.11.12C306.3,161,283.62,177,270.22,177Zm39.3-153h-.26l-.38,0a6.23,6.23,0,0,0-1.51.31l-.09,0-.24.1-.07,0a1,1,0,0,0-.17.15l-.14.11C296.53,30,280.37,68.31,280.21,68.7l-.12.29h-.32c-.44,0-44.27,1.65-47.52,15.36S265,121.83,265.4,122.07l.28.18-.06.33c0,.12-2.29,12.25-3.36,24.78-1.78,20.69.9,26.51,3.46,27.75,11.24,5.41,40.82-15.49,42.79-16.9a4,4,0,0,1,1.42-1.13,3.9,3.9,0,0,1,1.67-.45,1.61,1.61,0,0,1,1.4.35c.69.56,1.43,1.1,2.14,1.61l.7.49.1,0a1.17,1.17,0,0,1,.28.17c31.15,18,36.74,16.95,44.68,13.34,6.48-2.94,2.26-37.14.09-50.07l0-.24.17-.19c3.61-3.79,6.75-7.06,9.48-9.91,16.12-16.8,17.85-18.61,18.3-25.75l-.15-.7c-.05-.19-.09-.38-.15-.56l-.07-.2a5.75,5.75,0,0,0-.5-.75c-.13-.17-.25-.34-.37-.52-.31-.34-.76-.78-1.4-1.39-10-9.36-48.1-15.92-48.48-16l-.28,0-.1-.27c-12-30.42-20.46-39.47-25.45-41.69A8.43,8.43,0,0,0,309.52,24Z"/><path class="cls-1" d="M204.27,84.45l-.18-.78c0-.2-.09-.39-.15-.59,0,0-.07-.18-.08-.23l0-.06a14.37,14.37,0,0,0-.89-1.31c-.43-.47-.93-1-1.48-1.48-10.21-9.57-48.74-16.12-48.74-16.12-12-30.49-20.58-39.68-25.7-42a9.36,9.36,0,0,0-2.92-.4l-.39,0a7,7,0,0,0-1.64.34l-.34.15-.17.07a2.85,2.85,0,0,0-.27.25c-10.41,5.31-26.68,44.17-26.68,44.17S50,68,46.63,82.25,80,120.49,80,120.49s-9.11,48.5.38,53.07c11.57,5.59,41.27-15.48,43.36-17a3.82,3.82,0,0,1,2.8-1.44,1.09,1.09,0,0,1,1,.24c.9.74,1.87,1.4,2.81,2.09l.25.13a.57.57,0,0,1,.18.12c31,17.89,36.95,17.14,45.18,13.39s.38-50.61.38-50.61C201.61,93.93,203.73,93.06,204.27,84.45Z"/><path d="M85.08,178.49a11.31,11.31,0,0,1-4.93-1c-9.41-4.54-1.57-48.66-.71-53.29-3.66-2.42-36.6-24.67-33.3-38.59S89.91,69.68,94.27,69.51c1.64-3.86,16.63-38.8,26.72-44.09a2.92,2.92,0,0,1,.27-.23l.25-.14a2.32,2.32,0,0,0,.22-.08l.14-.07a7.79,7.79,0,0,1,1.8-.38l.4,0a9.5,9.5,0,0,1,3.09.43c5.2,2.32,13.85,11.47,25.92,42,3.77.65,38.86,6.95,48.72,16.2.66.62,1.12,1.08,1.51,1.5.15.23.27.38.38.54a6.38,6.38,0,0,1,.58.88l.15.38c.06.21.11.41.16.62l.19.85V88c-.47,7.56-2.18,9.35-18.58,26.45-2.69,2.8-5.77,6-9.31,9.73.68,4.08,7.57,47.14-.7,50.9-8.92,4-15.54,4-45.64-13.42l-.09-.06-.23-.13-.16-.09-.63-.45c-.73-.53-1.49-1.07-2.2-1.66a.6.6,0,0,0-.55-.14l-.14,0h0a3,3,0,0,0-1.29.34,2.88,2.88,0,0,0-1.1.89l-.11.11C121.15,162.53,98.48,178.49,85.08,178.49Zm39.3-153h-.27l-.37,0a6.42,6.42,0,0,0-1.52.32l-.08,0-.25.1-.06,0-.17.15-.15.12C111.38,31.45,95.23,69.8,95.07,70.19l-.12.3h-.32c-.45,0-44.27,1.65-47.52,15.36s32.79,37.47,33.15,37.7l.28.19-.06.33c0,.12-2.29,12.25-3.36,24.77-1.78,20.7.9,26.52,3.46,27.76,11.24,5.41,40.81-15.49,42.79-16.91a4.08,4.08,0,0,1,1.41-1.13,4,4,0,0,1,1.68-.44,1.6,1.6,0,0,1,1.4.34c.68.57,1.42,1.1,2.14,1.61l.7.49.09.05a.84.84,0,0,1,.28.18c31.15,18,36.75,16.94,44.69,13.34,6.47-2.95,2.26-37.14.08-50.07l0-.25.17-.18c3.62-3.8,6.75-7.07,9.48-9.91C201.57,96.92,203.3,95.12,203.76,88l-.16-.71c0-.18-.09-.37-.14-.56s-.05-.13-.07-.19a6.25,6.25,0,0,0-.5-.76c-.13-.17-.25-.34-.37-.52-.32-.33-.77-.78-1.41-1.38-10-9.36-48.09-15.93-48.47-16l-.28-.05-.11-.26c-12-30.43-20.46-39.47-25.44-41.7A8.77,8.77,0,0,0,124.38,25.5Z"/><path class="cls-1" d="M2109.11,42a17.07,17.07,0,0,0,3.65,1c-6.76-12.72-11.9-17.54-15.41-19.11a8.77,8.77,0,0,0-2.92-.4l-.38,0a6.21,6.21,0,0,0-1.65.34l-.34.14-.16.08a3.29,3.29,0,0,0-.28.24c-3.74,1.91-8.24,8.16-12.46,15.37C2089,39.06,2099.44,39.38,2109.11,42Z"/><path class="cls-1" d="M2174.6,86.45c-.06-.27-.11-.53-.17-.79l-.15-.58a1.69,1.69,0,0,1-.08-.24l0,0c-.25-.47-.61-.87-.9-1.31s-.92-1-1.48-1.48c-10.21-9.58-48.73-16.12-48.73-16.12A227.29,227.29,0,0,0,2112.76,43a17.07,17.07,0,0,1-3.65-1c-9.67-2.63-20.1-2.95-30-2.31A282.41,282.41,0,0,0,2065,68.5s-44.62,1.5-48,15.75,33.37,38.24,33.37,38.24-9.12,48.49.37,53.07c11.57,5.58,41.27-15.49,43.36-17a3.63,3.63,0,0,1,1.28-1,3.51,3.51,0,0,1,1.53-.39,1.11,1.11,0,0,1,1,.23c.9.75,1.86,1.41,2.8,2.09a2,2,0,0,0,.25.13.8.8,0,0,1,.19.13c31,17.88,37,17.13,45.18,13.39s.37-50.61.37-50.61C2171.94,95.93,2174.06,95.05,2174.6,86.45Z"/><path class="cls-3" d="M2180.9,86.45c-.05-.27-.11-.53-.17-.79s-.09-.39-.15-.58a1.12,1.12,0,0,1-.08-.24l0,0c-.25-.47-.6-.87-.89-1.31s-.93-1-1.49-1.48c-10.2-9.58-48.73-16.12-48.73-16.12a224.41,224.41,0,0,0-10.39-23,16.57,16.57,0,0,1-9.86-.84,85.08,85.08,0,0,0-23.49-2.58,282.89,282.89,0,0,0-14.37,29.07s-44.61,1.5-48,15.75,33.37,38.24,33.37,38.24-9.12,48.49.37,53.07c11.57,5.58,41.27-15.49,43.36-17a3.77,3.77,0,0,1,2.81-1.44,1.11,1.11,0,0,1,1,.23c.9.75,1.86,1.41,2.81,2.1a1.92,1.92,0,0,0,.25.12.59.59,0,0,1,.18.13c30.95,17.88,36.95,17.13,45.18,13.39s.38-50.61.38-50.61C2178.24,95.93,2180.37,95.06,2180.9,86.45Z"/><path d="M2181.22,85.55c0-.2-.1-.41-.16-.62l-.15-.38a7.88,7.88,0,0,0-.58-.88c-.11-.15-.23-.31-.38-.53-.39-.42-.85-.89-1.51-1.51-9.86-9.24-45-15.54-48.72-16.2a221.71,221.71,0,0,0-10.26-22.7q-.49.14-1,.24a223.89,223.89,0,0,1,10.42,23.09l.11.27.27,0c.39.07,38.5,6.63,48.48,16,.64.61,1.09,1,1.41,1.39a6.15,6.15,0,0,0,.37.52,8.88,8.88,0,0,1,.5.75,1.21,1.21,0,0,0,.07.2c.05.18.1.37.14.56l.16.7c-.46,7.14-2.19,9-18.31,25.75l-9.48,9.91-.17.19,0,.24c2.17,12.93,6.39,47.13-.09,50.07-7.93,3.61-13.53,4.65-44.68-13.34a1,1,0,0,0-.28-.17l-.09,0-.7-.49c-.72-.51-1.46-1.05-2.14-1.61a1.61,1.61,0,0,0-1.4-.35,4.31,4.31,0,0,0-3.09,1.58c-2,1.41-31.55,22.31-42.79,16.9-2.56-1.24-5.24-7.06-3.47-27.75,1.08-12.53,3.35-24.66,3.37-24.78l.06-.33-.28-.18c-.36-.24-36.41-24-33.15-37.71S2070.82,69,2071.27,69h.32l.12-.29a281.78,281.78,0,0,1,14.5-29.27l-1.2,0A275.92,275.92,0,0,0,2070.91,68c-4.36.17-44.83,2.15-48.13,16.11s29.64,36.17,33.3,38.59c-.86,4.64-8.7,48.75.71,53.29a11.17,11.17,0,0,0,4.93,1c13.4,0,36.07-16,38.94-18l.11-.12a3.08,3.08,0,0,1,1.1-.89,3,3,0,0,1,1.29-.34h0l.14,0a.6.6,0,0,1,.55.13c.71.6,1.47,1.14,2.2,1.66l.63.46.16.09.23.12.09.07c30.09,17.39,36.72,17.47,45.64,13.41,8.27-3.76,1.37-46.81.7-50.9,3.54-3.72,6.62-6.93,9.3-9.73,16.41-17.09,18.12-18.88,18.59-26.44v-.07Z"/><path d="M2098.15,24.78l.15-.11a1,1,0,0,1,.17-.15l.06,0,.25-.1.08,0a6.31,6.31,0,0,1,1.52-.31l.37,0h.27a8.43,8.43,0,0,1,2.43.37c3.39,1.51,8.39,6.19,15,18.6q.5-.11,1-.24c-6.85-12.85-12.08-17.7-15.66-19.3a9.52,9.52,0,0,0-3.09-.42l-.4,0a6.88,6.88,0,0,0-1.8.38l-.14.06-.22.09-.25.13a2.91,2.91,0,0,0-.28.24c-3.83,2-8.36,8.29-12.61,15.52l1.2,0C2090.3,32.51,2094.6,26.6,2098.15,24.78Z"/><path class="cls-1" d="M1115,42a17.07,17.07,0,0,0,3.65,1c-6.76-12.72-11.89-17.54-15.41-19.11a8.72,8.72,0,0,0-2.91-.4l-.39,0a6.3,6.3,0,0,0-1.65.34l-.33.14-.17.08a2.27,2.27,0,0,0-.27.24c-3.74,1.91-8.24,8.16-12.47,15.37C1094.86,39.06,1105.3,39.38,1115,42Z"/><path class="cls-1" d="M1135.38,92a8.54,8.54,0,0,0-7,0c-5,4-10,8-15,9-13,2-26-3-39,1-12.61,4.51-27.66.9-42.22.87,9.92,10.39,24,19.6,24,19.6s-9.11,48.49.37,53.07c11.58,5.58,41.28-15.49,43.37-17a3.55,3.55,0,0,1,1.28-1,3.5,3.5,0,0,1,1.52-.39,1.11,1.11,0,0,1,1,.23c.9.75,1.86,1.41,2.81,2.09a1.19,1.19,0,0,0,.25.13.59.59,0,0,1,.18.13c31,17.88,37,17.13,45.18,13.39s.38-50.61.38-50.61c16.55-17.4,23.17-23.78,25.92-28.53C1163.17,93.88,1148.81,103.54,1135.38,92Z"/><path class="cls-1" d="M1180.28,85.66c0-.19-.09-.39-.15-.58,0,0-.07-.19-.08-.24l0,0a14.37,14.37,0,0,0-.89-1.31c-.43-.47-.93-1-1.48-1.48-10.21-9.58-48.74-16.12-48.74-16.12A222.85,222.85,0,0,0,1118.61,43a17.07,17.07,0,0,1-3.65-1c-9.66-2.63-20.1-2.95-30-2.31a284.82,284.82,0,0,0-14.21,28.8s-44.61,1.5-48,15.75c-1.28,5.42,3.25,12.25,9.35,18.64,14.56,0,29.61,3.64,42.22-.87,13-4,26,1,39-1,5-1,10-5,15-9a8.54,8.54,0,0,1,7,0c13.43,11.52,27.79,1.86,43.07,1.94a15.33,15.33,0,0,0,2-7.51Z"/><path class="cls-3" d="M1135.38,92a8.54,8.54,0,0,0-7,0c-5,4-10,8-15,9-13,2-26-3-39,1-10.74,3.84-23.25,1.79-35.72,1.08,9.92,10.31,23.82,19.39,23.82,19.39s-9.11,48.49.38,53.07c11.57,5.58,41.27-15.49,43.36-17a3.55,3.55,0,0,1,1.28-1,3.64,3.64,0,0,1,1.52-.39,1.13,1.13,0,0,1,1,.23c.89.75,1.86,1.41,2.8,2.1.09,0,.16.09.25.12a.59.59,0,0,1,.18.13c31,17.88,37,17.13,45.19,13.39s.37-50.61.37-50.61c15-15.79,21.86-22.5,25.05-27.16-1.16-.54-2.46-.79-3.5-1.31C1164.38,93,1149.38,104,1135.38,92Z"/><path d="M1029.6,84.36c3.25-13.71,47.08-15.34,47.52-15.36h.32l.12-.29a286.38,286.38,0,0,1,14.5-29.27l-1.19,0A273.76,273.76,0,0,0,1076.77,68c-4.37.17-44.83,2.15-48.14,16.11-1.32,5.58,3.18,12.49,9.27,18.93l1.51.08C1033.11,96.69,1028.33,89.76,1029.6,84.36Z"/><path d="M1187.26,86.41l-.19-.86c0-.2-.1-.41-.16-.62l-.14-.38a6.75,6.75,0,0,0-.59-.88c-.11-.15-.23-.31-.38-.53-.38-.42-.85-.89-1.51-1.51-9.86-9.24-44.94-15.54-48.72-16.2a221.71,221.71,0,0,0-10.26-22.7q-.48.14-1,.24a223.64,223.64,0,0,1,10.43,23.09l.1.26.28.05c.38.07,38.5,6.63,48.48,16,.64.61,1.09,1,1.4,1.39.12.18.24.35.37.52a5.75,5.75,0,0,1,.5.75l.07.2c.06.18.1.37.15.56l.15.7a14.81,14.81,0,0,1-2.85,8.65,7.84,7.84,0,0,1,.93.43,15.67,15.67,0,0,0,2.93-9.08Z"/><path d="M1168,112.23c-2.73,2.85-5.87,6.12-9.48,9.91l-.17.18,0,.25c2.17,12.93,6.39,47.13-.09,50.07-7.94,3.61-13.53,4.65-44.68-13.34a1.17,1.17,0,0,0-.28-.17l-.1-.06-.7-.48c-.71-.52-1.45-1.05-2.13-1.61a1.64,1.64,0,0,0-1.41-.35,4.06,4.06,0,0,0-1.67.44,4,4,0,0,0-1.41,1.14c-2,1.41-31.55,22.31-42.8,16.9-2.56-1.24-5.24-7.06-3.46-27.75,1.08-12.53,3.34-24.66,3.36-24.78l.06-.33-.27-.18c-.23-.15-13.61-8.95-23.35-18.93l-1.51-.08c9.12,9.63,21.84,18.21,24,19.66-.85,4.64-8.7,48.75.71,53.29a11.23,11.23,0,0,0,4.93,1c13.4,0,36.08-16,38.94-18l.11-.12a3.08,3.08,0,0,1,1.1-.89,3,3,0,0,1,1.3-.34h0l.15,0a.61.61,0,0,1,.55.13c.71.6,1.46,1.14,2.19,1.66l.64.46.15.09.23.12.09.07c30.1,17.39,36.72,17.47,45.64,13.41,8.28-3.76,1.38-46.81.7-50.9,3.54-3.72,6.62-6.93,9.31-9.73,8.64-9,13.2-13.76,15.66-17.36a7.84,7.84,0,0,0-.93-.43C1181,98.63,1176.49,103.33,1168,112.23Z"/><path d="M1104,24.78l.14-.11a1.79,1.79,0,0,1,.17-.15l.07,0,.24-.1.09,0a6.23,6.23,0,0,1,1.51-.31l.38,0h.26a8.32,8.32,0,0,1,2.43.37c3.39,1.51,8.4,6.19,15,18.6q.51-.11,1-.24c-6.85-12.85-12.07-17.7-15.66-19.3a9.48,9.48,0,0,0-3.09-.42l-.4,0a7,7,0,0,0-1.8.38l-.14.06-.21.09-.26.13-.27.24c-3.83,2-8.37,8.29-12.61,15.52l1.19,0C1096.15,32.51,1100.45,26.6,1104,24.78Z"/><path class="cls-1" d="M1247.9,86c22-2,43,7,64-4,11-5,22,4,33,4,9.61,0,17.93-3.19,26.51-5.5-12.33-8.76-46.88-14.63-46.88-14.63-12-30.49-20.59-39.68-25.71-42a8.74,8.74,0,0,0-2.92-.4l-.38,0a6.21,6.21,0,0,0-1.65.34l-.34.14-.16.08a2.27,2.27,0,0,0-.27.24c-10.42,5.32-26.68,44.17-26.68,44.17s-44.61,1.5-48,15.75c-.93,3.94,1.21,8.63,4.79,13.35C1230.12,90.54,1239.45,87,1247.9,86Z"/><path class="cls-1" d="M1375.9,85.66c-.05-.19-.09-.39-.15-.58a1.69,1.69,0,0,1-.08-.24l0,0c-.25-.47-.61-.87-.89-1.31-.43-.47-.93-1-1.49-1.48a17.15,17.15,0,0,0-1.85-1.49c-8.58,2.31-16.9,5.5-26.51,5.5-11,0-22-9-33-4-21,11-42,2-64,4-8.45.94-17.78,4.53-24.68,11.59,9.36,12.33,28.58,24.89,28.58,24.89s-9.12,48.49.37,53.07c11.57,5.58,41.27-15.49,43.36-17a3.63,3.63,0,0,1,1.28-1,3.54,3.54,0,0,1,1.53-.39,1.11,1.11,0,0,1,1,.23c.9.75,1.86,1.41,2.81,2.09a1.41,1.41,0,0,0,.24.13.64.64,0,0,1,.19.13c31,17.88,37,17.13,45.18,13.39s.38-50.61.38-50.61c25.26-26.56,27.38-27.44,27.92-36C1376,86.18,1376,85.92,1375.9,85.66Z"/><path class="cls-3" d="M1382.37,86.45c0-.27-.11-.53-.17-.79s-.09-.39-.15-.58a1.12,1.12,0,0,1-.08-.24l0,0c-.25-.47-.6-.87-.89-1.31s-.93-1-1.48-1.48a21,21,0,0,0-3.56-2.61c-10.27,2.19-19.8,6.62-31.11,6.62-11,0-22-9-33-4-21,11-42,2-64,4a42.29,42.29,0,0,0-20.74,8.12c7.93,13.33,30.94,28.36,30.94,28.36s-9.11,48.49.37,53.07c11.58,5.58,41.27-15.49,43.37-17a3.47,3.47,0,0,1,1.28-1,3.64,3.64,0,0,1,1.52-.39,1.11,1.11,0,0,1,1,.23c.9.75,1.86,1.41,2.81,2.1a1.92,1.92,0,0,0,.25.12.59.59,0,0,1,.18.13c31,17.88,36.95,17.13,45.18,13.39s.38-50.61.38-50.61C1379.71,95.93,1381.84,95.06,1382.37,86.45Z"/><path d="M1225.22,84.36c3.25-13.71,47.07-15.34,47.52-15.36h.32l.12-.29c.16-.39,16.31-38.75,26.45-43.92l.14-.11a1,1,0,0,1,.17-.15l.06,0,.25-.1.09,0a6.23,6.23,0,0,1,1.51-.31l.37,0h.27a8.43,8.43,0,0,1,2.43.37c5,2.22,13.45,11.27,25.44,41.69l.11.27.28,0c.34.06,31,5.34,44.53,13.18l1.44-.3c-12.65-7.93-42.09-13.22-45.53-13.82-12.07-30.52-20.72-39.68-25.92-42a9.48,9.48,0,0,0-3.09-.42l-.4,0a6.88,6.88,0,0,0-1.8.38l-.14.06-.21.09-.26.13a1.82,1.82,0,0,0-.27.24C1289,29.21,1274,64.15,1272.38,68c-4.36.17-44.83,2.15-48.13,16.11-.74,3.12.35,6.67,2.52,10.31.26-.21.52-.42.78-.61C1225.55,90.44,1224.55,87.19,1225.22,84.36Z"/><path d="M1382.69,85.55c0-.2-.1-.41-.16-.62l-.15-.38a7.88,7.88,0,0,0-.58-.88c-.11-.15-.23-.31-.38-.53-.39-.42-.85-.89-1.51-1.51a21.87,21.87,0,0,0-3.19-2.38l-1.44.3a22.38,22.38,0,0,1,3.94,2.81c.64.61,1.09,1,1.41,1.39.12.18.24.35.37.52a7,7,0,0,1,.5.75l.07.2a5.09,5.09,0,0,1,.14.56l.16.7c-.45,7.14-2.19,9-18.31,25.75-2.72,2.85-5.86,6.12-9.47,9.91l-.18.19,0,.24c2.18,12.93,6.39,47.13-.08,50.07-7.94,3.61-13.54,4.65-44.69-13.34a1,1,0,0,0-.28-.17l-.09,0-.7-.49c-.72-.51-1.46-1.05-2.14-1.61a1.61,1.61,0,0,0-1.4-.35,4.31,4.31,0,0,0-3.09,1.58c-2,1.41-31.55,22.31-42.79,16.9-2.56-1.24-5.24-7.06-3.46-27.75,1.07-12.53,3.34-24.66,3.36-24.78l.06-.33-.28-.18c-.29-.19-23.08-15.19-30.82-28.24-.26.19-.52.4-.78.61,7.49,12.6,27.94,26.4,30.78,28.28-.86,4.64-8.7,48.75.71,53.29a11.17,11.17,0,0,0,4.93,1c13.4,0,36.07-16,38.94-18l.11-.12a3.08,3.08,0,0,1,1.1-.89,3,3,0,0,1,1.29-.34h0l.14,0a.6.6,0,0,1,.55.13c.71.6,1.47,1.14,2.2,1.66l.63.46.16.09.23.12.09.07c30.1,17.39,36.72,17.47,45.64,13.41,8.27-3.76,1.38-46.81.7-50.9,3.54-3.72,6.62-6.93,9.31-9.73,16.4-17.09,18.11-18.88,18.58-26.44v-.07Z"/><path class="cls-1" d="M1777.88,86.45c-.06-.27-.11-.53-.17-.79l-.15-.58a1.69,1.69,0,0,1-.08-.24l0,0c-.25-.47-.61-.87-.9-1.31s-.92-1-1.48-1.48c-10.21-9.58-48.74-16.12-48.74-16.12-.81-2.06-1.6-4-2.38-5.87-4.8-.57-9.61-2.06-14.41-1a23.53,23.53,0,0,0-8,2c-9.92,3.82-19.84-1.09-29.76-.53-2.19,4.76-3.55,8-3.55,8s-44.62,1.5-48,15.75,33.36,38.24,33.36,38.24-9.11,48.49.38,53.07c11.57,5.58,41.27-15.49,43.36-17a3.55,3.55,0,0,1,1.28-1,3.51,3.51,0,0,1,1.53-.39,1.11,1.11,0,0,1,1,.23c.9.75,1.86,1.41,2.8,2.09a2,2,0,0,0,.25.13.8.8,0,0,1,.19.13c30.95,17.88,36.95,17.13,45.18,13.39s.37-50.61.37-50.61C1775.22,95.93,1777.34,95.05,1777.88,86.45Z"/><path class="cls-1" d="M1701.54,61a23.53,23.53,0,0,1,8-2c4.8-1.06,9.61.43,14.41,1-10.78-25.82-18.55-34-23.32-36.1a8.81,8.81,0,0,0-2.92-.4l-.38,0a6.13,6.13,0,0,0-1.65.34l-.34.14-.16.08a2,2,0,0,0-.28.24c-7.39,3.78-17.74,24.48-23.12,36.15C1681.7,59.92,1691.62,64.83,1701.54,61Z"/><path class="cls-3" d="M1784.18,86.45c0-.27-.11-.53-.17-.79s-.09-.39-.15-.58a1.12,1.12,0,0,1-.08-.24l0,0c-.25-.47-.61-.87-.89-1.31s-.93-1-1.49-1.48c-10.21-9.58-48.73-16.12-48.73-16.12-.83-2.09-1.63-4.07-2.42-6-6.9,1.3-13.79-2.44-20.68-.91a23.53,23.53,0,0,0-8,2c-7.85,3-15.71.57-23.56-.3-2.13,4.64-3.45,7.79-3.45,7.79s-44.62,1.5-48,15.75,33.37,38.24,33.37,38.24-9.12,48.49.37,53.07c11.57,5.58,41.27-15.49,43.36-17a3.63,3.63,0,0,1,1.28-1,3.69,3.69,0,0,1,1.53-.39,1.11,1.11,0,0,1,1,.23c.9.75,1.86,1.41,2.81,2.1l.24.12a.64.64,0,0,1,.19.13c31,17.88,37,17.13,45.18,13.39s.38-50.61.38-50.61C1781.52,95.93,1783.64,95.06,1784.18,86.45Z"/><path d="M1784.5,85.55c0-.2-.1-.41-.16-.62l-.15-.38a7.88,7.88,0,0,0-.58-.88c-.12-.15-.23-.31-.39-.53-.38-.42-.84-.89-1.51-1.51-9.85-9.24-44.94-15.54-48.71-16.2-.78-2-1.54-3.82-2.28-5.61-.34.07-.67.14-1,.19.81,1.92,1.62,3.93,2.46,6.05l.11.27.27,0c.39.07,38.5,6.63,48.48,16,.64.61,1.09,1,1.41,1.39a6.15,6.15,0,0,0,.37.52,8.88,8.88,0,0,1,.5.75,1.21,1.21,0,0,0,.07.2c0,.18.1.37.14.56l.16.7c-.46,7.14-2.19,9-18.31,25.75-2.73,2.85-5.87,6.12-9.48,9.91l-.17.19,0,.24c2.17,12.93,6.39,47.13-.09,50.07-7.93,3.61-13.53,4.65-44.68-13.34a1,1,0,0,0-.28-.17.31.31,0,0,0-.1,0l-.69-.49c-.72-.51-1.46-1.05-2.14-1.61a1.61,1.61,0,0,0-1.4-.35,4.31,4.31,0,0,0-3.09,1.58c-2,1.41-31.55,22.31-42.79,16.9-2.56-1.24-5.25-7.06-3.47-27.75,1.08-12.53,3.35-24.66,3.37-24.78l.06-.33-.28-.18c-.36-.24-36.41-24-33.15-37.71S1674.1,69,1674.54,69h.32l.13-.29c0-.11,1.39-3.31,3.52-7.93l-1.06-.12c-1.69,3.69-2.87,6.43-3.26,7.37-4.36.17-44.83,2.15-48.14,16.11s29.64,36.17,33.3,38.59c-.85,4.64-8.69,48.75.71,53.29a11.24,11.24,0,0,0,4.94,1c13.39,0,36.07-16,38.94-18l.11-.12a3.08,3.08,0,0,1,1.1-.89,3,3,0,0,1,1.29-.34h0l.14,0a.6.6,0,0,1,.55.13c.71.6,1.46,1.14,2.19,1.66l.64.46.16.09.22.12.1.07c30.09,17.39,36.72,17.47,45.64,13.41,8.27-3.76,1.37-46.81.7-50.9,3.54-3.72,6.62-6.93,9.3-9.73,16.4-17.09,18.12-18.88,18.59-26.44v-.07Z"/><path d="M1701.43,24.78l.15-.11a1,1,0,0,1,.17-.15l.06,0,.25-.1.08,0a6.31,6.31,0,0,1,1.52-.31l.37,0h.27a8.43,8.43,0,0,1,2.43.37c4.63,2.07,12.28,10.05,23,35.64.34,0,.67-.12,1-.19-10.89-26.06-18.78-34.22-23.64-36.39A9.52,9.52,0,0,0,1704,23l-.41,0a6.89,6.89,0,0,0-1.79.38l-.15.06-.21.09-.26.13-.27.24c-7.66,4-18.13,25.1-23.45,36.72l1.06.12C1683.86,49.15,1694.19,28.48,1701.43,24.78Z"/><path class="cls-1" d="M509.58,138.46c-14,4-27-4-41-2-3.4.85-6.79,2.41-10.18,3.48-1.71,14.39-2.7,32.88,3,35.62,11.58,5.58,41.28-15.49,43.37-17a3.55,3.55,0,0,1,1.28-1,3.5,3.5,0,0,1,1.52-.39,1.11,1.11,0,0,1,1,.23c.9.75,1.86,1.41,2.81,2.09a1.19,1.19,0,0,0,.25.13.59.59,0,0,1,.18.13c31,17.88,36.95,17.13,45.18,13.39,5.46-2.48,3.86-23.85,2.15-38C542.85,131,526.89,132.69,509.58,138.46Z"/><path class="cls-1" d="M585.29,86.44l-.18-.78c0-.19-.09-.39-.15-.58,0,0-.07-.19-.08-.24l0,0a14.37,14.37,0,0,0-.89-1.31c-.43-.47-.93-1-1.48-1.48-10.21-9.58-48.74-16.12-48.74-16.12-12-30.49-20.59-39.68-25.71-42a8.72,8.72,0,0,0-2.91-.4l-.39,0a6.3,6.3,0,0,0-1.65.34l-.33.14-.17.08a2.27,2.27,0,0,0-.27.24C491.9,29.65,475.63,68.5,475.63,68.5S431,70,427.64,84.25,461,122.49,461,122.49s-1.47,7.8-2.61,17.45c3.39-1.07,6.78-2.63,10.18-3.48,14-2,27,6,41,2,17.31-5.77,33.27-7.45,49.55-3.38-.87-7.23-1.77-12.59-1.77-12.59C582.62,95.93,584.75,95.05,585.29,86.44Z"/><path class="cls-3" d="M509.58,138.46c-14,4-27-4-41-2-1.2.3-2.39.69-3.59,1.11-1.87,14.65-3.3,35.1,2.7,38,11.57,5.58,41.27-15.49,43.36-17a3.55,3.55,0,0,1,1.28-1,3.64,3.64,0,0,1,1.52-.39,1.13,1.13,0,0,1,1,.23c.89.75,1.86,1.41,2.8,2.1a1.92,1.92,0,0,0,.25.12.59.59,0,0,1,.18.13c31,17.88,36.95,17.13,45.18,13.39,5.22-2.37,4-22,2.38-36.09C547.08,130.62,529.2,131.92,509.58,138.46Z"/><path d="M563.08,172.64c-7.94,3.61-13.53,4.65-44.68-13.34a1.17,1.17,0,0,0-.28-.17l-.1,0-.7-.49c-.71-.51-1.45-1.05-2.13-1.61a1.64,1.64,0,0,0-1.41-.35,4.32,4.32,0,0,0-3.08,1.58c-2,1.41-31.55,22.31-42.8,16.9-2.56-1.24-5.24-7.06-3.46-27.75.29-3.44.68-6.84,1.08-10l-1.07.39c-1.87,14.76-3.23,35.23,3,38.24a11.2,11.2,0,0,0,4.93,1c13.4,0,36.08-16,38.94-18l.11-.12a3.08,3.08,0,0,1,1.1-.89,3,3,0,0,1,1.3-.34h0l.15,0a.58.58,0,0,1,.54.13c.71.6,1.47,1.14,2.2,1.66l.64.46.15.09.23.12.09.07c30.1,17.39,36.72,17.47,45.64,13.41,5.47-2.48,4.31-22.13,2.7-36.35l-1.05-.36C566.84,151.84,567.79,170.5,563.08,172.64Z"/><path d="M591.9,85.55c0-.2-.1-.41-.16-.62l-.14-.38a6.75,6.75,0,0,0-.59-.88c-.11-.15-.23-.31-.38-.53-.38-.42-.85-.89-1.51-1.51-9.86-9.24-44.94-15.54-48.72-16.2-12.06-30.52-20.72-39.68-25.92-42a9.48,9.48,0,0,0-3.09-.42l-.4,0a7,7,0,0,0-1.8.38l-.14.06-.21.09-.26.13a2.55,2.55,0,0,0-.27.24C498.22,29.21,483.23,64.15,481.6,68c-4.37.17-44.83,2.15-48.14,16.11s29.64,36.17,33.3,38.59c-.29,1.56-1.36,7.57-2.31,15.05l1.07-.39c1.07-8.3,2.27-14.71,2.28-14.8l.06-.33-.28-.18c-.36-.24-36.4-24-33.15-37.71S481.51,69,482,69h.32l.12-.29c.17-.39,16.32-38.75,26.45-43.92l.14-.11a1,1,0,0,1,.17-.15l.07,0,.24-.1.09,0a6.23,6.23,0,0,1,1.51-.31l.38,0h.26a8.37,8.37,0,0,1,2.43.37c5,2.22,13.45,11.27,25.45,41.69l.1.27.28,0c.38.07,38.49,6.63,48.48,16,.64.61,1.09,1,1.4,1.39.12.18.24.35.37.52a5.75,5.75,0,0,1,.5.75l.07.2c.06.18.1.37.15.56l.15.7c-.45,7.14-2.18,9-18.3,25.75-2.73,2.85-5.87,6.12-9.48,9.91l-.17.19,0,.24c.59,3.53,1.33,8.64,2,14.27l1.05.36c-.82-7.3-1.77-13.16-2-14.55,3.54-3.72,6.62-6.93,9.31-9.73C589.9,95.83,591.61,94,592.09,86.48v-.07Z"/><path class="cls-1" d="M2384,86.45c-.05-.27-.11-.53-.17-.79s-.09-.39-.15-.58a1.69,1.69,0,0,1-.08-.24l0,0a14.37,14.37,0,0,0-.89-1.31c-.43-.47-.93-1-1.48-1.48-10.21-9.58-48.74-16.12-48.74-16.12-12-30.49-20.59-39.68-25.71-42a8.72,8.72,0,0,0-2.91-.4l-.39,0a6.3,6.3,0,0,0-1.65.34l-.33.14-.17.08a2.27,2.27,0,0,0-.27.24c-10.41,5.32-26.68,44.17-26.68,44.17s-44.61,1.5-48,15.75,33.37,38.24,33.37,38.24-9.11,48.49.37,53.07c11.58,5.58,41.27-15.49,43.37-17a3.55,3.55,0,0,1,1.28-1,3.5,3.5,0,0,1,1.52-.39,1.11,1.11,0,0,1,1,.23c.9.75,1.86,1.41,2.81,2.09a1.19,1.19,0,0,0,.25.13.59.59,0,0,1,.18.13c31,17.88,36.95,17.13,45.18,13.39s.38-50.61.38-50.61C2381.3,95.93,2383.43,95.05,2384,86.45Z"/><path class="cls-3" d="M2390.27,86.45l-.18-.79c0-.19-.09-.39-.15-.58a2.23,2.23,0,0,1-.08-.24l0,0a14.37,14.37,0,0,0-.89-1.31c-.43-.47-.93-1-1.48-1.48-10.21-9.58-48.74-16.12-48.74-16.12-12-30.49-20.58-39.68-25.7-42a8.81,8.81,0,0,0-2.92-.4l-.39,0a6.56,6.56,0,0,0-1.64.34l-.34.14-.17.08a2.27,2.27,0,0,0-.27.24c-10.41,5.32-26.68,44.17-26.68,44.17s-44.61,1.5-48,15.75S2266,122.49,2266,122.49s-9.11,48.49.38,53.07c11.57,5.58,41.27-15.49,43.36-17a3.55,3.55,0,0,1,1.28-1,3.64,3.64,0,0,1,1.52-.39,1.11,1.11,0,0,1,1,.23c.9.75,1.87,1.41,2.81,2.1a1.92,1.92,0,0,0,.25.12.59.59,0,0,1,.18.13c31,17.88,36.95,17.13,45.18,13.39s.38-50.61.38-50.61C2387.61,95.93,2389.73,95.06,2390.27,86.45Z"/><path d="M2271.08,177a11.2,11.2,0,0,1-4.93-1c-9.41-4.54-1.56-48.65-.71-53.29-3.66-2.42-36.6-24.67-33.3-38.59s43.77-15.94,48.14-16.11c1.63-3.87,16.62-38.81,26.71-44.09a1.82,1.82,0,0,1,.27-.24l.26-.13.21-.09.14-.06a7,7,0,0,1,1.8-.38l.4,0a9.48,9.48,0,0,1,3.09.42c5.2,2.32,13.86,11.48,25.92,42,3.78.66,38.86,7,48.72,16.2.66.62,1.13,1.09,1.51,1.51.15.22.27.38.38.53a6.75,6.75,0,0,1,.59.88l.14.38c.06.21.11.42.16.62l.19.86v.07c-.48,7.56-2.19,9.35-18.59,26.44-2.69,2.8-5.77,6-9.31,9.73.68,4.09,7.57,47.14-.7,50.9-8.92,4.06-15.54,4-45.64-13.41l-.09-.07-.23-.12-.15-.09-.64-.46c-.73-.52-1.49-1.06-2.2-1.66a.58.58,0,0,0-.54-.13l-.15,0h0a3,3,0,0,0-1.3.34,3.08,3.08,0,0,0-1.1.89l-.11.12C2307.16,161,2284.48,177,2271.08,177Zm39.3-153h-.26l-.38,0a6.23,6.23,0,0,0-1.51.31l-.09,0-.24.1-.07,0a1,1,0,0,0-.17.15l-.14.11c-10.13,5.17-26.28,43.53-26.45,43.92L2281,69h-.32c-.44,0-44.27,1.65-47.52,15.36s32.79,37.47,33.15,37.71l.28.18-.06.33c0,.12-2.29,12.25-3.36,24.78-1.78,20.69.9,26.51,3.46,27.75,11.24,5.41,40.82-15.49,42.79-16.9a4,4,0,0,1,1.42-1.13,3.9,3.9,0,0,1,1.67-.45,1.61,1.61,0,0,1,1.4.35c.69.56,1.43,1.1,2.14,1.61l.7.49.1,0a1.17,1.17,0,0,1,.28.17c31.15,18,36.74,16.95,44.68,13.34,6.48-2.94,2.26-37.14.09-50.07l0-.24.17-.19c3.61-3.79,6.75-7.06,9.48-9.91,16.12-16.8,17.85-18.61,18.3-25.75l-.15-.7c-.05-.19-.09-.38-.15-.56l-.07-.2a5.75,5.75,0,0,0-.5-.75c-.13-.17-.25-.34-.37-.52-.31-.34-.76-.78-1.4-1.39-10-9.36-48.1-15.92-48.48-16l-.28,0-.1-.27c-12-30.42-20.46-39.47-25.45-41.69A8.37,8.37,0,0,0,2310.38,24Z"/><path class="cls-1" d="M1501.38,74c4-1,9-5,14-7,6.92-2.59,14.59,3.78,21.71,1.67-7.82-1.8-13.75-2.81-13.75-2.81l-1.11-2.78a49,49,0,0,1-6.85-2.08c-6-3-11,3-15,5-9,4-21-3-31,1,10-4,22,3,31-1,4-2,9-8,15-5a49,49,0,0,0,6.85,2.08c-11.45-28.28-19.64-37-24.6-39.19a8.74,8.74,0,0,0-2.92-.4l-.38,0a6.21,6.21,0,0,0-1.65.34l-.34.14-.16.08a3.29,3.29,0,0,0-.28.24c-10.41,5.32-26.67,44.17-26.67,44.17s-26.72.9-40.37,7.91C1450.78,79.34,1477.46,82.64,1501.38,74Z"/><path class="cls-1" d="M1574.88,86.45c-.05-.27-.11-.53-.17-.79s-.09-.39-.15-.58a1.69,1.69,0,0,1-.08-.24l0,0c-.25-.47-.61-.87-.89-1.31s-.93-1-1.49-1.48c-6.2-5.82-22.86-10.52-35-13.31-7.12,2.11-14.79-4.26-21.71-1.67-5,2-10,6-14,7-23.92,8.62-50.6,5.32-76.52,2.39-4,2-6.86,4.62-7.62,7.84-3.37,14.24,33.37,38.24,33.37,38.24s-9.12,48.49.37,53.07c11.57,5.58,41.27-15.49,43.36-17a3.63,3.63,0,0,1,1.28-1,3.54,3.54,0,0,1,1.53-.39,1.11,1.11,0,0,1,1,.23c.9.75,1.86,1.41,2.81,2.09a1.41,1.41,0,0,0,.24.13.64.64,0,0,1,.19.13c30.95,17.88,36.95,17.13,45.18,13.39s.38-50.61.38-50.61C1572.22,95.93,1574.34,95.05,1574.88,86.45Z"/><path class="cls-3" d="M1581.18,86.45c0-.27-.11-.53-.17-.79s-.09-.39-.15-.58a1.12,1.12,0,0,1-.08-.24l0,0c-.25-.47-.6-.87-.89-1.31s-.93-1-1.48-1.48c-7-6.52-27-11.63-39.14-14.23-7.71,4.42-16.24-3.61-23.86-.75-5,2-10,6-14,7-22.32,8-47,5.71-71.31,3-3.41,2-5.84,4.33-6.53,7.25-3.37,14.24,33.37,38.24,33.37,38.24s-9.11,48.49.37,53.07c11.58,5.58,41.27-15.49,43.37-17a3.47,3.47,0,0,1,1.28-1,3.64,3.64,0,0,1,1.52-.39,1.11,1.11,0,0,1,1,.23c.9.75,1.86,1.41,2.81,2.1a1.92,1.92,0,0,0,.25.12.59.59,0,0,1,.18.13c31,17.88,37,17.13,45.18,13.39s.38-50.61.38-50.61C1578.52,95.93,1580.65,95.06,1581.18,86.45Z"/><path d="M1530,65.43l-.35-.87-1.16-.2c.23.56.46,1.12.68,1.7l.11.27.28,0c.11,0,3.73.65,9,1.76a11.16,11.16,0,0,0,1.33-.75C1534.86,66.3,1531.1,65.62,1530,65.43Z"/><path d="M1471.55,69h.32l.12-.29c0-.06.44-1,1.16-2.69-.4.06-.8.14-1.19.23-.36.81-.62,1.43-.77,1.78-3.46.13-29.59,1.41-41.93,8.89l1.65.19C1444.11,70,1471.2,69,1471.55,69Z"/><path d="M1581.5,85.55c0-.2-.1-.41-.16-.62l-.15-.38a7.88,7.88,0,0,0-.58-.88c-.11-.15-.23-.31-.38-.53-.39-.42-.85-.89-1.51-1.51-7-6.55-26.65-11.62-38.85-14.25a11.16,11.16,0,0,1-1.33.75c12,2.56,32.55,7.72,39.49,14.23.64.61,1.09,1,1.41,1.39.12.18.24.35.37.52a7,7,0,0,1,.5.75l.07.2a5.09,5.09,0,0,1,.14.56l.16.7c-.45,7.14-2.19,9-18.31,25.75l-9.48,9.91-.17.19,0,.24c2.18,12.93,6.39,47.13-.08,50.07-7.94,3.61-13.54,4.65-44.69-13.34a1,1,0,0,0-.28-.17l-.09,0-.7-.49c-.72-.51-1.46-1.05-2.14-1.61a1.61,1.61,0,0,0-1.4-.35,4.31,4.31,0,0,0-3.09,1.58c-2,1.41-31.55,22.31-42.79,16.9-2.56-1.24-5.24-7.06-3.46-27.75,1.07-12.53,3.34-24.66,3.36-24.78l.06-.33-.28-.18c-.36-.24-36.41-24-33.15-37.71.7-2.94,3.27-5.33,6.88-7.26l-1.65-.19c-3.22,2-5.52,4.33-6.2,7.22-3.3,13.92,29.64,36.17,33.3,38.59-.86,4.64-8.7,48.75.71,53.29a11.17,11.17,0,0,0,4.93,1c13.4,0,36.07-16,38.94-18l.11-.12a3.08,3.08,0,0,1,1.1-.89,3,3,0,0,1,1.29-.34h0l.14,0a.6.6,0,0,1,.55.13c.71.6,1.47,1.14,2.2,1.66l.63.46.16.09.23.12.09.07c30.1,17.39,36.72,17.47,45.64,13.41,8.27-3.76,1.38-46.81.7-50.9,3.54-3.72,6.62-6.93,9.31-9.73,16.4-17.09,18.11-18.88,18.58-26.44v-.07Z"/><path d="M1498.44,24.78l.14-.11a1,1,0,0,1,.17-.15l.06,0,.25-.1.08,0a6.41,6.41,0,0,1,1.52-.31l.37,0h.27a8.43,8.43,0,0,1,2.43.37c4.89,2.18,13.13,10.94,24.76,40l1.16.2c-11.88-29.82-20.42-38.83-25.57-41.13A9.48,9.48,0,0,0,1501,23l-.4,0a6.88,6.88,0,0,0-1.8.38l-.14.06-.21.09-.26.13a1.82,1.82,0,0,0-.27.24c-9.18,4.8-22.4,34.12-26,42.31.39-.09.79-.17,1.19-.23C1477.05,57.13,1489.89,29.14,1498.44,24.78Z"/><path class="cls-1" d="M1976.11,86.45c0-.27-.11-.53-.17-.79s-.09-.39-.15-.58a1.69,1.69,0,0,1-.08-.24l0,0c-.25-.47-.6-.87-.89-1.31s-.93-1-1.48-1.48c-10.21-9.58-48.74-16.12-48.74-16.12-1.5-3.81-3-7.28-4.34-10.45-14.07,2.82-28.41-1.41-44-1.41,15.55,0,29.89,4.23,44,1.41-9.77-22.23-16.89-29.52-21.37-31.52a8.72,8.72,0,0,0-2.91-.4l-.39,0a6.3,6.3,0,0,0-1.65.34l-.33.14-.17.08a2.27,2.27,0,0,0-.27.24c-10.41,5.32-26.68,44.17-26.68,44.17s-44.61,1.5-48,15.75,33.37,38.24,33.37,38.24-9.11,48.49.37,53.07c11.57,5.58,41.27-15.49,43.37-17a3.73,3.73,0,0,1,2.8-1.44,1.11,1.11,0,0,1,1,.23c.9.75,1.86,1.41,2.81,2.09a1.19,1.19,0,0,0,.25.13.59.59,0,0,1,.18.13c31,17.88,36.95,17.13,45.18,13.39s.38-50.61.38-50.61C1973.45,95.93,1975.58,95.05,1976.11,86.45Z"/><path class="cls-3" d="M1982.42,86.45l-.18-.79c0-.19-.09-.39-.15-.58a2.23,2.23,0,0,1-.08-.24l0,0a14.37,14.37,0,0,0-.89-1.31c-.43-.47-.93-1-1.48-1.48-10.21-9.58-48.74-16.12-48.74-16.12-1.75-4.43-3.42-8.4-5-12-15,5.23-30.08.73-46.5.18-3.89,8-6.59,14.42-6.59,14.42s-44.61,1.5-48,15.75,33.37,38.24,33.37,38.24-9.11,48.49.38,53.07c11.57,5.58,41.27-15.49,43.36-17a3.55,3.55,0,0,1,1.28-1,3.64,3.64,0,0,1,1.52-.39,1.11,1.11,0,0,1,1,.23c.9.75,1.87,1.41,2.81,2.1a1.92,1.92,0,0,0,.25.12.59.59,0,0,1,.18.13c31,17.88,37,17.13,45.18,13.39s.38-50.61.38-50.61C1979.76,95.93,1981.88,95.06,1982.42,86.45Z"/><path d="M1982.73,85.55c0-.2-.1-.41-.16-.62l-.14-.38a6.75,6.75,0,0,0-.59-.88c-.11-.15-.23-.31-.38-.53-.38-.42-.85-.89-1.51-1.51-9.86-9.24-44.94-15.54-48.72-16.2-1.71-4.32-3.34-8.2-4.91-11.7l-.94.33c1.6,3.58,3.27,7.56,5,12l.1.27.28,0c.38.07,38.49,6.63,48.48,16,.64.61,1.09,1,1.4,1.39.12.18.24.35.37.52a5.75,5.75,0,0,1,.5.75l.07.2c.06.18.1.37.15.56l.15.7c-.45,7.14-2.18,9-18.3,25.75-2.73,2.85-5.87,6.12-9.48,9.91l-.18.19,0,.24c2.17,12.93,6.39,47.13-.09,50.07-7.94,3.61-13.53,4.65-44.68-13.34a1.17,1.17,0,0,0-.28-.17l-.1,0-.7-.49c-.71-.51-1.45-1.05-2.14-1.61a1.61,1.61,0,0,0-1.4-.35,3.9,3.9,0,0,0-1.67.45,4,4,0,0,0-1.42,1.13c-2,1.41-31.55,22.31-42.79,16.9-2.56-1.24-5.24-7.06-3.46-27.75,1.07-12.53,3.34-24.66,3.36-24.78l.06-.33-.28-.18c-.36-.24-36.4-24-33.15-37.71S1872.34,69,1872.78,69h.32l.12-.29c.07-.16,2.8-6.64,6.69-14.6l-1.12,0c-3.33,6.85-5.76,12.53-6.37,14-4.36.17-44.82,2.15-48.13,16.11s29.64,36.17,33.3,38.59c-.85,4.64-8.7,48.75.71,53.29a11.2,11.2,0,0,0,4.93,1c13.4,0,36.08-16,38.94-18l.11-.12a3.08,3.08,0,0,1,1.1-.89,3,3,0,0,1,1.3-.34h0l.14,0a.6.6,0,0,1,.55.13c.71.6,1.47,1.14,2.2,1.66l.64.46.15.09.23.12.09.07c30.1,17.39,36.72,17.47,45.64,13.41,8.27-3.76,1.38-46.81.7-50.9,3.54-3.72,6.62-6.93,9.31-9.73,16.4-17.09,18.11-18.88,18.59-26.44v-.07Z"/><path d="M1899.67,24.78l.14-.11a1,1,0,0,1,.17-.15l.07,0,.24-.1.09,0a6.23,6.23,0,0,1,1.51-.31l.38,0h.26a8.43,8.43,0,0,1,2.43.37c4.26,1.9,11,8.78,20.42,29.69l.94-.33c-9.53-21.26-16.55-28.31-21-30.3a9.48,9.48,0,0,0-3.09-.42l-.4,0a7,7,0,0,0-1.8.38l-.14.06-.21.09-.26.13a1.82,1.82,0,0,0-.27.24c-6.36,3.33-14.67,18.44-20.35,30.13l1.12,0C1885.56,42.54,1893.67,27.84,1899.67,24.78Z"/><path class="cls-1" d="M960.24,110.25a17.83,17.83,0,0,0,9.71,1.48c15.6-16.27,17.19-18,17.64-25.29-.06-.26-.11-.52-.17-.78l-.15-.58s-.08-.19-.09-.24,0,0,0,0c-.25-.47-.61-.87-.9-1.31s-.93-1-1.48-1.48C974.57,72.42,936,65.88,936,65.88c-12-30.49-20.58-39.68-25.7-42a8.81,8.81,0,0,0-2.92-.4l-.39,0a6.14,6.14,0,0,0-1.64.34l-.34.14-.16.08a2,2,0,0,0-.28.24C894.2,29.65,877.93,68.5,877.93,68.5S833.32,70,830,84.25c-1.76,7.43,7.39,17.51,16.55,25.46C883.58,103.36,923.33,88.88,960.24,110.25Z"/><path class="cls-1" d="M970,111.73a17.83,17.83,0,0,1-9.71-1.48c-36.91-21.37-76.66-6.89-113.74-.54a176.1,176.1,0,0,0,16.81,12.78s-9.11,48.49.38,53.07c11.57,5.58,41.27-15.49,43.36-17a3.55,3.55,0,0,1,1.28-1,3.5,3.5,0,0,1,1.52-.39,1.13,1.13,0,0,1,1,.23c.89.75,1.86,1.41,2.8,2.09a1.49,1.49,0,0,0,.25.13.59.59,0,0,1,.18.13c31,17.88,37,17.13,45.19,13.39s.37-50.61.37-50.61C963.63,118.31,967,114.77,970,111.73Z"/><path class="cls-3" d="M960.24,110.25c-35.18-20.37-72.94-8.17-108.51-1.48a174,174,0,0,0,17.88,13.72S860.5,171,870,175.56c11.57,5.58,41.27-15.49,43.36-17a3.55,3.55,0,0,1,1.28-1,3.65,3.65,0,0,1,1.53-.39,1.11,1.11,0,0,1,1,.23c.9.75,1.86,1.41,2.8,2.1l.25.12a.8.8,0,0,1,.19.13c31,17.88,37,17.13,45.18,13.39s.37-50.61.37-50.61c4.86-5.11,8.86-9.26,12.16-12.71C971.91,112.11,965.28,112.77,960.24,110.25Z"/><path d="M975.08,112.23c-2.73,2.85-5.87,6.12-9.48,9.91l-.17.19,0,.24c2.17,12.93,6.39,47.13-.09,50.07-7.94,3.61-13.53,4.65-44.68-13.34a1.17,1.17,0,0,0-.28-.17l-.1,0-.69-.49c-.72-.51-1.46-1.05-2.14-1.61a1.62,1.62,0,0,0-1.4-.35,4.31,4.31,0,0,0-3.09,1.58c-2,1.41-31.55,22.31-42.79,16.9-2.57-1.24-5.25-7.06-3.47-27.75,1.08-12.53,3.34-24.66,3.37-24.78l.06-.33-.28-.18a177,177,0,0,1-17.52-13.42l-1.29.24a172.14,172.14,0,0,0,18,13.83c-.85,4.64-8.7,48.75.71,53.29a11.23,11.23,0,0,0,4.93,1c13.4,0,36.08-16,38.94-18l.12-.12a3.13,3.13,0,0,1,1.09-.89,3.07,3.07,0,0,1,1.3-.34h0l.15,0a.6.6,0,0,1,.55.13c.71.6,1.46,1.14,2.19,1.66l.64.46.15.09.23.12.1.07c30.09,17.39,36.72,17.47,45.64,13.41,8.27-3.76,1.37-46.81.7-50.9,3.54-3.72,6.62-6.93,9.3-9.73l3.44-3.59q-1.07.45-2.16.81C976.44,110.82,975.78,111.5,975.08,112.23Z"/><path d="M994.39,86.41l-.19-.86c0-.2-.09-.41-.15-.62l-.15-.38a7.88,7.88,0,0,0-.58-.88c-.12-.15-.23-.31-.39-.53-.38-.42-.85-.89-1.51-1.51-9.85-9.24-44.94-15.54-48.71-16.2-12.07-30.52-20.73-39.68-25.92-42A9.52,9.52,0,0,0,913.7,23l-.41,0a6.8,6.8,0,0,0-1.79.38l-.15.06-.21.09-.26.13-.27.24C900.52,29.21,885.53,64.15,883.9,68c-4.36.17-44.83,2.15-48.14,16.11-1.73,7.32,6.55,16.93,15.32,24.76l1.29-.24c-8.8-7.75-17.29-17.3-15.63-24.29C840,70.65,883.81,69,884.25,69h.32l.13-.29c.16-.39,16.31-38.75,26.44-43.92l.15-.11a1.29,1.29,0,0,1,.16-.15l.07,0,.25-.1.08,0a6.33,6.33,0,0,1,1.51-.31l.38,0H914a8.43,8.43,0,0,1,2.43.37c5,2.22,13.44,11.27,25.44,41.69l.1.27.28,0c.39.07,38.5,6.63,48.48,16,.64.61,1.09,1,1.41,1.39.11.18.24.35.36.52A7,7,0,0,1,993,85a1.21,1.21,0,0,0,.07.2c0,.18.1.37.14.56l.16.7c-.44,6.83-2,8.79-16.31,23.66q1.09-.36,2.16-.81c13.2-13.8,14.71-15.86,15.15-22.85Z"/></svg>
