<svg id="Layer_2" data-name="Layer 2" xmlns="http://www.w3.org/2000/svg" width="2450" height="200" viewBox="0 0 2450 200"><defs><style>.cls-1{fill:#231f20;}.cls-2{fill:#fcda33;}.cls-3{fill:#f5db12;}</style></defs><path class="cls-1" d="M770.87,84.68c-.06-.27-.11-.53-.18-.79s-.09-.39-.15-.58c0,0-.07-.18-.08-.24l0,0c-.25-.47-.61-.87-.9-1.31s-.93-1-1.48-1.48c-10.21-9.58-48.74-16.12-48.74-16.12-12-30.49-20.58-39.68-25.7-42a8.81,8.81,0,0,0-2.92-.4l-.39,0a6.56,6.56,0,0,0-1.64.34l-.34.14-.16.08a2,2,0,0,0-.28.24c-10.41,5.32-26.68,44.17-26.68,44.17s-44.61,1.5-48,15.75,33.36,38.24,33.36,38.24-9.11,48.49.38,53.07c11.57,5.58,41.27-15.49,43.36-17a3.55,3.55,0,0,1,1.28-1.05,3.5,3.5,0,0,1,1.52-.39,1.13,1.13,0,0,1,1,.23c.89.75,1.86,1.41,2.8,2.1.09,0,.16.09.25.12a.59.59,0,0,1,.18.13c31,17.88,37,17.13,45.19,13.39s.37-50.61.37-50.61C768.21,94.16,770.33,93.29,770.87,84.68Z"/><path class="cls-2" d="M689.89,130.25c-12.88-6.82-25.75-3.31-38.63.53-2.1,14.47-4.72,39.77,2,43,11.57,5.58,41.27-15.49,43.36-17a3.55,3.55,0,0,1,1.28-1.05,3.65,3.65,0,0,1,1.53-.39,1.11,1.11,0,0,1,1,.23c.9.75,1.86,1.41,2.8,2.1l.25.13a.76.76,0,0,1,.19.12c30.95,17.88,36.95,17.13,45.18,13.39,6.31-2.87,3.18-31,1.36-44a15.21,15.21,0,0,0-3.34.94C727.89,132.25,708.89,140.25,689.89,130.25Z"/><path d="M658,175.23a11.23,11.23,0,0,1-4.93-1c-9.41-4.54-1.56-48.65-.71-53.29-3.66-2.42-36.59-24.67-33.3-38.59s43.78-15.94,48.14-16.11c1.63-3.87,16.62-38.81,26.71-44.09l.27-.24.26-.13.21-.09.15-.06a7.23,7.23,0,0,1,1.79-.38l.41,0a9.52,9.52,0,0,1,3.09.42c5.19,2.32,13.85,11.48,25.92,42,3.77.66,38.86,7,48.71,16.21.66.62,1.13,1.08,1.51,1.5.16.22.27.38.39.53a7.18,7.18,0,0,1,.58.89l.15.37c.06.21.11.42.15.62l.19.86v.07c-.47,7.56-2.19,9.35-18.59,26.44-2.68,2.8-5.76,6-9.3,9.73.67,4.09,7.57,47.15-.71,50.91-8.92,4.05-15.54,4-45.63-13.42l-.1-.07-.23-.12-.15-.09-.64-.46c-.73-.52-1.48-1.06-2.19-1.65a.58.58,0,0,0-.55-.14l-.15,0h0a3.07,3.07,0,0,0-1.3.34,3.27,3.27,0,0,0-1.1.89l-.11.12C694.06,159.26,671.38,175.23,658,175.23Zm39.3-153H697l-.38,0a6.33,6.33,0,0,0-1.51.31l-.09,0-.24.1-.07,0a1.29,1.29,0,0,0-.16.15l-.15.11C684.29,28.18,668.14,66.54,668,66.93l-.13.29h-.32c-.44,0-44.27,1.65-47.51,15.36s32.78,37.47,33.15,37.71l.28.18-.06.33c0,.12-2.29,12.25-3.37,24.78-1.78,20.7.9,26.51,3.47,27.75,11.24,5.41,40.81-15.49,42.79-16.9a4,4,0,0,1,1.41-1.13,4.15,4.15,0,0,1,1.68-.45,1.62,1.62,0,0,1,1.4.35c.68.57,1.42,1.1,2.13,1.61l.7.49.1.05a1.17,1.17,0,0,1,.28.17c31.15,18,36.74,16.95,44.68,13.35,6.48-2.95,2.26-37.15.09-50.08l0-.24.17-.19c3.61-3.79,6.75-7.06,9.48-9.91,16.12-16.8,17.85-18.61,18.31-25.75l-.16-.7c0-.19-.09-.38-.14-.56s-.06-.14-.08-.2a5.75,5.75,0,0,0-.5-.75c-.12-.17-.25-.34-.37-.52-.31-.34-.76-.78-1.4-1.39-10-9.36-48.1-15.92-48.48-16l-.28,0-.1-.27c-12-30.42-20.46-39.46-25.44-41.69A8.44,8.44,0,0,0,697.28,22.23Z"/><path class="cls-1" d="M389.65,77.09c-.06-.26-.11-.52-.17-.78l-.15-.59s-.08-.18-.09-.23a.14.14,0,0,0,0-.06c-.25-.47-.61-.87-.9-1.31s-.92-1-1.48-1.48c-10.21-9.57-48.74-16.12-48.74-16.12-12-30.49-20.58-39.68-25.7-42a9.36,9.36,0,0,0-2.92-.4l-.39,0a7,7,0,0,0-1.64.34l-.34.15-.16.07a2.46,2.46,0,0,0-.28.25C296.26,20.29,280,59.15,280,59.15s-44.61,1.5-48,15.74,33.36,38.24,33.36,38.24-9.11,48.5.38,53.07c11.57,5.59,41.27-15.49,43.36-17a3.42,3.42,0,0,1,1.28-1,3.51,3.51,0,0,1,1.52-.4,1.13,1.13,0,0,1,1,.23c.89.75,1.86,1.41,2.8,2.1l.25.13a.57.57,0,0,1,.18.12c31,17.89,37,17.13,45.19,13.39s.37-50.61.37-50.61C387,86.57,389.11,85.7,389.65,77.09Z"/><path class="cls-2" d="M302.42,142.66c-11.1-2.38-21.58-6-32.92-6.91-1.29,13.32-1.47,28,3.55,30.45,11.57,5.59,41.27-15.49,43.36-17a3.82,3.82,0,0,1,2.8-1.44,1.11,1.11,0,0,1,1,.24c.89.74,1.86,1.4,2.8,2.09l.25.13a.57.57,0,0,1,.18.12c31,17.89,37,17.14,45.19,13.39,3.54-1.61,4.11-11.21,3.6-21.62C348.74,139.73,326,148.32,302.42,142.66Z"/><path d="M276.76,167.64a11.23,11.23,0,0,1-4.93-1c-9.41-4.53-1.56-48.65-.71-53.28-3.66-2.42-36.59-24.67-33.3-38.59s43.78-16,48.14-16.12c1.63-3.86,16.62-38.8,26.71-44.09.06-.05.15-.14.27-.23l.26-.14.21-.09.15-.06a7.71,7.71,0,0,1,1.79-.38l.41,0a9.8,9.8,0,0,1,3.09.42c5.19,2.32,13.85,11.48,25.92,42,3.77.65,38.86,7,48.71,16.2.66.62,1.13,1.08,1.51,1.5l.39.54a6.38,6.38,0,0,1,.58.88l.15.38c.06.2.11.41.15.61l.19.86v.07c-.47,7.56-2.19,9.35-18.59,26.45-2.68,2.8-5.76,6-9.3,9.73.67,4.08,7.57,47.14-.7,50.9-8.92,4.05-15.55,4-45.64-13.42l-.1-.07-.23-.12-.15-.09-.64-.46c-.73-.52-1.48-1.06-2.19-1.65a.61.61,0,0,0-.55-.14l-.14,0h0a3.2,3.2,0,0,0-2.39,1.24l-.12.11C312.84,151.68,290.16,167.64,276.76,167.64Zm39.31-153h-.27l-.38,0a6.86,6.86,0,0,0-1.51.31l-.08,0-.25.11-.07,0-.16.15-.15.11C303.07,20.6,286.92,59,286.76,59.34l-.13.3h-.32c-.44,0-44.27,1.64-47.51,15.36s32.78,37.47,33.15,37.7l.28.19-.06.32c0,.13-2.29,12.25-3.37,24.78-1.78,20.7.9,26.52,3.47,27.75,11.24,5.42,40.81-15.49,42.79-16.9a4,4,0,0,1,1.41-1.13,4.15,4.15,0,0,1,1.68-.45,1.62,1.62,0,0,1,1.4.35c.68.57,1.42,1.1,2.14,1.61l.69.49.1.05a1.17,1.17,0,0,1,.28.17c31.15,18,36.75,16.95,44.68,13.35,6.48-2.95,2.26-37.15.09-50.07l0-.25.17-.18c3.61-3.8,6.75-7.07,9.48-9.91C393.26,86.07,395,84.27,395.45,77.13l-.16-.71c0-.19-.09-.37-.14-.56a1,1,0,0,1-.07-.2,7,7,0,0,0-.51-.75c-.12-.17-.25-.34-.36-.52-.32-.33-.77-.78-1.41-1.38-10-9.37-48.09-15.93-48.48-16L344,57l-.1-.26c-12-30.43-20.46-39.47-25.44-41.7A8.41,8.41,0,0,0,316.07,14.65Z"/><path class="cls-1" d="M188.83,77.09l-.18-.78a5.66,5.66,0,0,0-.15-.59s-.07-.18-.08-.23l0-.06a14.37,14.37,0,0,0-.89-1.31c-.43-.47-.93-1-1.48-1.48-10.21-9.57-48.74-16.12-48.74-16.12-12-30.49-20.58-39.68-25.7-42a9.36,9.36,0,0,0-2.92-.4l-.39,0a7.23,7.23,0,0,0-1.65.34l-.33.15-.17.07a2.85,2.85,0,0,0-.27.25C95.44,20.29,79.17,59.15,79.17,59.15s-44.61,1.5-48,15.74,33.36,38.24,33.36,38.24-9.11,48.5.38,53.07c11.57,5.59,41.27-15.49,43.36-17a3.42,3.42,0,0,1,1.28-1,3.51,3.51,0,0,1,1.52-.4,1.11,1.11,0,0,1,1,.23c.9.75,1.87,1.41,2.81,2.1l.25.13a.57.57,0,0,1,.18.12c31,17.89,36.95,17.13,45.18,13.39s.38-50.61.38-50.61C186.17,86.57,188.29,85.7,188.83,77.09Z"/><path d="M75.94,167.64a11.23,11.23,0,0,1-4.93-1c-9.41-4.53-1.56-48.65-.71-53.28C66.64,111,33.7,88.7,37,74.78s43.77-16,48.14-16.12c1.63-3.86,16.62-38.8,26.71-44.09.06-.05.15-.14.27-.23l.26-.14.21-.09.15-.06a7.71,7.71,0,0,1,1.79-.38l.4,0a9.72,9.72,0,0,1,3.09.42c5.2,2.32,13.86,11.48,25.92,42,3.78.65,38.86,7,48.72,16.2.66.62,1.13,1.08,1.51,1.5l.38.54a5.63,5.63,0,0,1,.59.88l.14.38c.06.2.11.41.16.61l.19.86v.07c-.47,7.56-2.19,9.35-18.59,26.45-2.69,2.8-5.77,6-9.3,9.73.67,4.08,7.57,47.14-.71,50.9-8.92,4.05-15.54,4-45.64-13.42l-.09-.07-.23-.12-.15-.09-.64-.46c-.73-.52-1.48-1.06-2.19-1.65a.62.62,0,0,0-.55-.14l-.15,0h0a3.07,3.07,0,0,0-1.3.34,3.18,3.18,0,0,0-1.1.9l-.11.11C112,151.68,89.34,167.64,75.94,167.64Zm39.3-153H115l-.38,0a6.86,6.86,0,0,0-1.51.31L113,15l-.24.11-.07,0-.17.15-.14.11C102.25,20.6,86.1,59,85.93,59.34l-.12.3h-.32C85.05,59.66,41.22,61.29,38,75s32.79,37.47,33.16,37.7l.28.19-.07.32c0,.13-2.28,12.25-3.36,24.78-1.78,20.7.9,26.52,3.46,27.75,11.25,5.42,40.82-15.49,42.8-16.9a3.88,3.88,0,0,1,1.41-1.13,4.1,4.1,0,0,1,1.68-.45,1.62,1.62,0,0,1,1.4.35c.68.57,1.42,1.1,2.13,1.61l.7.49.1.05a1.17,1.17,0,0,1,.28.17c31.15,18,36.74,16.95,44.68,13.35,6.48-2.95,2.26-37.15.09-50.07l0-.25.17-.18c3.61-3.8,6.75-7.07,9.48-9.91,16.12-16.81,17.85-18.61,18.31-25.75l-.16-.71c-.05-.19-.09-.37-.14-.56l-.08-.2a5.75,5.75,0,0,0-.5-.75c-.12-.17-.25-.34-.37-.52-.31-.33-.76-.78-1.4-1.38-10-9.37-48.1-15.93-48.48-16l-.28-.05-.1-.26c-12-30.43-20.46-39.47-25.45-41.7A8.31,8.31,0,0,0,115.24,14.65Z"/><path class="cls-1" d="M2083.55,42a17.07,17.07,0,0,0,3.65,1c-6.76-12.72-11.89-17.54-15.4-19.11a8.81,8.81,0,0,0-2.92-.4l-.39,0a6.3,6.3,0,0,0-1.65.34l-.33.14-.17.08a2.27,2.27,0,0,0-.27.24c-3.74,1.91-8.24,8.16-12.47,15.37C2063.45,39.06,2073.89,39.38,2083.55,42Z"/><path class="cls-1" d="M2149.05,86.45l-.18-.79c0-.19-.09-.39-.15-.58,0,0-.07-.19-.08-.24l0,0a14.37,14.37,0,0,0-.89-1.31c-.43-.47-.93-1-1.48-1.48-10.21-9.58-48.74-16.12-48.74-16.12A222.85,222.85,0,0,0,2087.2,43a17.07,17.07,0,0,1-3.65-1c-9.66-2.63-20.1-2.95-30-2.31a284.82,284.82,0,0,0-14.21,28.8s-44.61,1.5-48,15.75,33.37,38.24,33.37,38.24-9.11,48.49.38,53.07c11.57,5.58,41.27-15.49,43.36-17a3.55,3.55,0,0,1,1.28-1,3.5,3.5,0,0,1,1.52-.39,1.11,1.11,0,0,1,1,.23c.9.75,1.87,1.41,2.81,2.09a1.19,1.19,0,0,0,.25.13.59.59,0,0,1,.18.13c31,17.88,37,17.13,45.18,13.39s.38-50.61.38-50.61C2146.39,95.93,2148.51,95.05,2149.05,86.45Z"/><path class="cls-3" d="M2155.35,86.45c-.06-.27-.11-.53-.18-.79s-.09-.39-.15-.58c0,0-.07-.18-.08-.24l0,0c-.25-.47-.61-.87-.9-1.31s-.93-1-1.48-1.48c-10.21-9.58-48.74-16.12-48.74-16.12a222.26,222.26,0,0,0-10.39-23,16.59,16.59,0,0,1-9.86-.84,85,85,0,0,0-23.49-2.58,282.89,282.89,0,0,0-14.37,29.07s-44.61,1.5-48,15.75,33.36,38.24,33.36,38.24-9.11,48.49.38,53.07c11.57,5.58,41.27-15.49,43.36-17a3.55,3.55,0,0,1,1.28-1,3.64,3.64,0,0,1,1.52-.39,1.13,1.13,0,0,1,1,.23c.89.75,1.86,1.41,2.8,2.1.09,0,.16.09.25.12a.59.59,0,0,1,.18.13c31,17.88,36.95,17.13,45.19,13.39s.37-50.61.37-50.61C2152.69,95.93,2154.81,95.06,2155.35,86.45Z"/><path d="M2155.66,85.55c0-.2-.1-.41-.16-.62l-.14-.38a6.75,6.75,0,0,0-.59-.88c-.11-.15-.23-.31-.38-.53-.38-.42-.85-.89-1.51-1.51-9.86-9.24-44.94-15.54-48.72-16.2a221.71,221.71,0,0,0-10.26-22.7q-.48.14-1,.24a223.64,223.64,0,0,1,10.43,23.09l.1.27.28,0c.38.07,38.5,6.63,48.48,16,.64.61,1.09,1,1.4,1.39.12.18.24.35.37.52a5.75,5.75,0,0,1,.5.75l.07.2c.06.18.1.37.15.56l.15.7c-.45,7.14-2.18,9-18.3,25.75-2.73,2.85-5.87,6.12-9.48,9.91l-.17.19,0,.24c2.17,12.93,6.39,47.13-.09,50.07-7.94,3.61-13.53,4.65-44.68-13.34a1.17,1.17,0,0,0-.28-.17l-.1,0-.7-.49c-.71-.51-1.45-1.05-2.13-1.61a1.64,1.64,0,0,0-1.41-.35,4.32,4.32,0,0,0-3.08,1.58c-2,1.41-31.55,22.31-42.8,16.9-2.56-1.24-5.24-7.06-3.46-27.75,1.08-12.53,3.34-24.66,3.36-24.78l.07-.33-.28-.18c-.37-.24-36.41-24-33.16-37.71S2045.27,69,2045.71,69h.32l.12-.29a286.38,286.38,0,0,1,14.5-29.27l-1.19,0A273.76,273.76,0,0,0,2045.36,68c-4.37.17-44.83,2.15-48.14,16.11s29.64,36.17,33.3,38.59c-.85,4.64-8.7,48.75.71,53.29a11.23,11.23,0,0,0,4.93,1c13.4,0,36.08-16,38.94-18l.11-.12a3.08,3.08,0,0,1,1.1-.89,3,3,0,0,1,1.3-.34h0l.15,0a.61.61,0,0,1,.55.13c.71.6,1.46,1.14,2.19,1.66l.64.46.15.09.23.12.09.07c30.1,17.39,36.72,17.47,45.64,13.41,8.28-3.76,1.38-46.81.71-50.9,3.53-3.72,6.61-6.93,9.3-9.73,16.4-17.09,18.12-18.88,18.59-26.44v-.07Z"/><path d="M2072.6,24.78l.14-.11s.09-.09.17-.15l.07,0,.24-.1.09,0a6.33,6.33,0,0,1,1.51-.31l.38,0h.26a8.32,8.32,0,0,1,2.43.37c3.39,1.51,8.4,6.19,15,18.6q.51-.11,1-.24c-6.85-12.85-12.07-17.7-15.66-19.3a9.45,9.45,0,0,0-3.09-.42l-.4,0a6.8,6.8,0,0,0-1.79.38l-.15.06-.21.09-.26.13-.27.24c-3.83,2-8.37,8.29-12.61,15.52l1.19,0C2064.74,32.51,2069,26.6,2072.6,24.78Z"/><path class="cls-1" d="M1096.49,42a17.07,17.07,0,0,0,3.65,1c-6.76-12.72-11.89-17.54-15.41-19.11a8.72,8.72,0,0,0-2.91-.4l-.39,0a6.3,6.3,0,0,0-1.65.34l-.33.14-.17.08a2.27,2.27,0,0,0-.27.24c-3.74,1.91-8.24,8.16-12.47,15.37C1076.39,39.06,1086.83,39.38,1096.49,42Z"/><path class="cls-1" d="M1116.91,92a8.54,8.54,0,0,0-7,0c-5,4-10,8-15,9-13,2-26-3-39,1-12.62,4.51-27.66.9-42.22.87,9.92,10.39,24,19.6,24,19.6s-9.11,48.49.37,53.07c11.58,5.58,41.28-15.49,43.37-17a3.55,3.55,0,0,1,1.28-1,3.5,3.5,0,0,1,1.52-.39,1.11,1.11,0,0,1,1,.23c.9.75,1.86,1.41,2.81,2.09a1.19,1.19,0,0,0,.25.13.59.59,0,0,1,.18.13c31,17.88,37,17.13,45.18,13.39s.38-50.61.38-50.61c16.55-17.4,23.17-23.78,25.92-28.53C1144.7,93.88,1130.34,103.54,1116.91,92Z"/><path class="cls-1" d="M1161.81,85.66c0-.19-.09-.39-.15-.58,0,0-.07-.19-.08-.24l0,0a14.37,14.37,0,0,0-.89-1.31c-.43-.47-.93-1-1.48-1.48-10.21-9.58-48.74-16.12-48.74-16.12A225,225,0,0,0,1100.14,43a17.07,17.07,0,0,1-3.65-1c-9.66-2.63-20.1-2.95-30-2.31a284.82,284.82,0,0,0-14.21,28.8s-44.61,1.5-48,15.75c-1.28,5.42,3.25,12.25,9.35,18.64,14.56,0,29.6,3.64,42.22-.87,13-4,26,1,39-1,5-1,10-5,15-9a8.54,8.54,0,0,1,7,0c13.43,11.52,27.79,1.86,43.07,1.94a15.44,15.44,0,0,0,2-7.51Z"/><path class="cls-3" d="M1116.91,92a8.54,8.54,0,0,0-7,0c-5,4-10,8-15,9-13,2-26-3-39,1-10.74,3.84-23.25,1.79-35.72,1.08,9.92,10.31,23.82,19.39,23.82,19.39s-9.11,48.49.38,53.07c11.57,5.58,41.27-15.49,43.36-17a3.55,3.55,0,0,1,1.28-1,3.64,3.64,0,0,1,1.52-.39,1.13,1.13,0,0,1,1,.23c.89.75,1.86,1.41,2.8,2.1a1.92,1.92,0,0,0,.25.12.59.59,0,0,1,.18.13c31,17.88,37,17.13,45.19,13.39s.37-50.61.37-50.61c15-15.79,21.86-22.5,25.05-27.16-1.16-.54-2.46-.79-3.5-1.31C1145.91,93,1130.91,104,1116.91,92Z"/><path d="M1011.13,84.36c3.25-13.71,47.08-15.34,47.52-15.36h.32l.12-.29a286.38,286.38,0,0,1,14.5-29.27l-1.19,0A273.76,273.76,0,0,0,1058.3,68c-4.37.17-44.83,2.15-48.14,16.11-1.32,5.58,3.18,12.49,9.27,18.93l1.5.08C1014.64,96.69,1009.85,89.76,1011.13,84.36Z"/><path d="M1168.79,86.41l-.19-.86c0-.2-.1-.41-.16-.62l-.14-.38a6.75,6.75,0,0,0-.59-.88c-.11-.15-.23-.31-.38-.53-.38-.42-.85-.89-1.51-1.51-9.86-9.24-44.94-15.54-48.72-16.2a221.71,221.71,0,0,0-10.26-22.7c-.33.09-.65.17-1,.24a223.64,223.64,0,0,1,10.43,23.09l.1.26.28.05c.38.07,38.5,6.63,48.48,16,.64.61,1.09,1,1.4,1.39.12.18.24.35.37.52a5.75,5.75,0,0,1,.5.75l.07.2c.06.18.1.37.15.56l.15.7a14.81,14.81,0,0,1-2.85,8.65,7.84,7.84,0,0,1,.93.43,15.67,15.67,0,0,0,2.93-9.08Z"/><path d="M1149.48,112.23c-2.73,2.85-5.87,6.12-9.48,9.91l-.17.18,0,.25c2.17,12.93,6.39,47.13-.09,50.07-7.94,3.61-13.53,4.65-44.68-13.34a1.17,1.17,0,0,0-.28-.17l-.1-.06-.7-.48c-.71-.52-1.45-1.05-2.13-1.61a1.64,1.64,0,0,0-1.41-.35,4.06,4.06,0,0,0-1.67.44,4,4,0,0,0-1.41,1.14c-2,1.41-31.55,22.31-42.8,16.9-2.56-1.24-5.24-7.06-3.46-27.75,1.08-12.53,3.34-24.66,3.36-24.78l.06-.33-.28-.18c-.22-.15-13.6-8.95-23.35-18.93l-1.5-.08c9.12,9.63,21.84,18.21,24,19.66-.85,4.64-8.7,48.75.71,53.29a11.2,11.2,0,0,0,4.93,1c13.4,0,36.08-16,38.94-18l.11-.12a3.08,3.08,0,0,1,1.1-.89,3,3,0,0,1,1.3-.34h0l.15,0a.58.58,0,0,1,.54.13c.71.6,1.47,1.14,2.2,1.66l.64.46.15.09.23.12.09.07c30.1,17.39,36.72,17.47,45.64,13.41,8.27-3.76,1.38-46.81.7-50.9,3.54-3.72,6.62-6.93,9.31-9.73,8.64-9,13.2-13.76,15.66-17.36a7.84,7.84,0,0,0-.93-.43C1162.52,98.63,1158,103.33,1149.48,112.23Z"/><path d="M1085.54,24.78l.14-.11a1.79,1.79,0,0,1,.17-.15l.07,0,.24-.1.09,0a6.23,6.23,0,0,1,1.51-.31l.38,0h.26a8.37,8.37,0,0,1,2.43.37c3.39,1.51,8.4,6.19,15,18.6.34-.07.66-.15,1-.24-6.85-12.85-12.08-17.7-15.66-19.3a9.48,9.48,0,0,0-3.09-.42l-.4,0a7,7,0,0,0-1.8.38l-.14.06-.21.09-.26.13a2.55,2.55,0,0,0-.27.24c-3.83,2-8.37,8.29-12.61,15.52l1.19,0C1077.68,32.51,1082,26.6,1085.54,24.78Z"/><path class="cls-1" d="M1226.68,86c22-2,43,7,64-4,11-5,22,4,33,4,9.61,0,17.93-3.19,26.51-5.5-12.33-8.76-46.88-14.63-46.88-14.63-12-30.49-20.59-39.68-25.71-42a8.77,8.77,0,0,0-2.92-.4l-.38,0a6.21,6.21,0,0,0-1.65.34l-.34.14-.16.08a3.29,3.29,0,0,0-.28.24c-10.41,5.32-26.67,44.17-26.67,44.17s-44.62,1.5-48,15.75c-.93,3.94,1.21,8.63,4.79,13.35C1208.9,90.54,1218.23,87,1226.68,86Z"/><path class="cls-1" d="M1354.68,85.66c0-.19-.09-.39-.15-.58a1.69,1.69,0,0,1-.08-.24l0,0c-.25-.47-.61-.87-.89-1.31-.43-.47-.93-1-1.49-1.48a18.19,18.19,0,0,0-1.85-1.49c-8.58,2.31-16.9,5.5-26.51,5.5-11,0-22-9-33-4-21,11-42,2-64,4-8.45.94-17.78,4.53-24.68,11.59,9.36,12.33,28.58,24.89,28.58,24.89s-9.12,48.49.37,53.07c11.57,5.58,41.27-15.49,43.36-17a3.63,3.63,0,0,1,1.28-1,3.54,3.54,0,0,1,1.53-.39,1.11,1.11,0,0,1,1,.23c.9.75,1.86,1.41,2.81,2.09a1.41,1.41,0,0,0,.24.13.64.64,0,0,1,.19.13c31,17.88,37,17.13,45.18,13.39s.38-50.61.38-50.61c25.26-26.56,27.38-27.44,27.92-36C1354.8,86.18,1354.74,85.92,1354.68,85.66Z"/><path class="cls-3" d="M1361.15,86.45c-.05-.27-.11-.53-.17-.79s-.09-.39-.15-.58a1.12,1.12,0,0,1-.08-.24l0,0c-.25-.47-.6-.87-.89-1.31s-.93-1-1.48-1.48a21.46,21.46,0,0,0-3.56-2.61C1344.52,81.58,1335,86,1323.68,86c-11,0-22-9-33-4-21,11-42,2-64,4a42.29,42.29,0,0,0-20.74,8.12c7.93,13.33,30.94,28.36,30.94,28.36s-9.11,48.49.37,53.07c11.58,5.58,41.27-15.49,43.37-17a3.47,3.47,0,0,1,1.28-1,3.64,3.64,0,0,1,1.52-.39,1.11,1.11,0,0,1,1,.23c.9.75,1.86,1.41,2.81,2.1a1.92,1.92,0,0,0,.25.12.59.59,0,0,1,.18.13c31,17.88,36.95,17.13,45.18,13.39s.38-50.61.38-50.61C1358.49,95.93,1360.62,95.06,1361.15,86.45Z"/><path d="M1204,84.36c3.25-13.71,47.07-15.34,47.52-15.36h.32l.12-.29c.16-.39,16.31-38.75,26.44-43.92l.15-.11a1,1,0,0,1,.17-.15l.06,0,.25-.1.08,0a6.41,6.41,0,0,1,1.52-.31l.37,0h.27a8.43,8.43,0,0,1,2.43.37c5,2.22,13.45,11.27,25.44,41.69l.11.27.27,0c.35.06,31,5.34,44.54,13.18l1.44-.3C1342.85,71.32,1313.41,66,1310,65.43c-12.07-30.52-20.72-39.68-25.92-42A9.48,9.48,0,0,0,1281,23l-.4,0a6.88,6.88,0,0,0-1.8.38l-.14.06-.22.09-.25.13a1.82,1.82,0,0,0-.27.24c-10.09,5.28-25.08,40.22-26.72,44.09-4.36.17-44.83,2.15-48.13,16.11-.74,3.12.35,6.67,2.52,10.31.26-.21.52-.42.78-.61C1204.33,90.44,1203.33,87.19,1204,84.36Z"/><path d="M1361.47,85.55c0-.2-.1-.41-.16-.62l-.15-.38a7.88,7.88,0,0,0-.58-.88c-.11-.15-.23-.31-.38-.53-.39-.42-.85-.89-1.51-1.51a21.87,21.87,0,0,0-3.19-2.38l-1.44.3a22.38,22.38,0,0,1,3.94,2.81c.64.61,1.09,1,1.41,1.39a6.15,6.15,0,0,0,.37.52,7,7,0,0,1,.5.75l.07.2c.05.18.1.37.14.56l.16.7c-.46,7.14-2.19,9-18.31,25.75l-9.48,9.91-.17.19,0,.24c2.18,12.93,6.39,47.13-.08,50.07-7.94,3.61-13.54,4.65-44.69-13.34a1,1,0,0,0-.28-.17l-.09,0-.7-.49c-.72-.51-1.46-1.05-2.14-1.61a1.61,1.61,0,0,0-1.4-.35,4.31,4.31,0,0,0-3.09,1.58c-2,1.41-31.55,22.31-42.79,16.9-2.56-1.24-5.24-7.06-3.46-27.75,1.07-12.53,3.34-24.66,3.36-24.78l.06-.33-.28-.18c-.29-.19-23.08-15.19-30.82-28.24-.26.19-.52.4-.78.61,7.49,12.6,27.94,26.4,30.78,28.28-.86,4.64-8.7,48.75.71,53.29a11.17,11.17,0,0,0,4.93,1c13.4,0,36.07-16,38.94-18l.11-.12a3.08,3.08,0,0,1,1.1-.89,3,3,0,0,1,1.29-.34h0l.14,0a.6.6,0,0,1,.55.13c.71.6,1.47,1.14,2.2,1.66l.63.46.16.09.23.12.09.07c30.1,17.39,36.72,17.47,45.64,13.41,8.27-3.76,1.38-46.81.7-50.9,3.54-3.72,6.62-6.93,9.3-9.73,16.41-17.09,18.12-18.88,18.59-26.44v-.07Z"/><path class="cls-1" d="M1737.08,86.45c0-.27-.11-.53-.17-.79s-.09-.39-.15-.58a1.69,1.69,0,0,1-.08-.24l0,0c-.25-.47-.6-.87-.89-1.31s-.93-1-1.49-1.48c-10.2-9.58-48.73-16.12-48.73-16.12-.81-2.06-1.61-4-2.39-5.87-4.8-.57-9.6-2.06-14.41-1a23.53,23.53,0,0,0-8,2c-9.92,3.82-19.84-1.09-29.76-.53-2.19,4.76-3.55,8-3.55,8s-44.61,1.5-48,15.75,33.37,38.24,33.37,38.24-9.12,48.49.37,53.07c11.57,5.58,41.27-15.49,43.36-17a3.63,3.63,0,0,1,1.28-1,3.54,3.54,0,0,1,1.53-.39,1.11,1.11,0,0,1,1,.23c.9.75,1.86,1.41,2.81,2.09a1.41,1.41,0,0,0,.24.13.53.53,0,0,1,.19.13c31,17.88,37,17.13,45.18,13.39s.38-50.61.38-50.61C1734.42,95.93,1736.54,95.05,1737.08,86.45Z"/><path class="cls-1" d="M1660.74,61a23.53,23.53,0,0,1,8-2c4.81-1.06,9.61.43,14.41,1-10.77-25.82-18.54-34-23.32-36.1a8.74,8.74,0,0,0-2.92-.4l-.38,0a6.21,6.21,0,0,0-1.65.34l-.34.14-.16.08a2.27,2.27,0,0,0-.27.24c-7.4,3.78-17.75,24.48-23.13,36.15C1640.9,59.92,1650.82,64.83,1660.74,61Z"/><path class="cls-3" d="M1743.38,86.45c-.05-.27-.11-.53-.17-.79s-.09-.39-.15-.58a1.12,1.12,0,0,1-.08-.24l0,0a14.37,14.37,0,0,0-.89-1.31c-.43-.47-.93-1-1.48-1.48-10.21-9.58-48.74-16.12-48.74-16.12-.82-2.09-1.63-4.07-2.42-6-6.89,1.3-13.79-2.44-20.68-.91a23.53,23.53,0,0,0-8,2c-7.85,3-15.7.57-23.56-.3-2.13,4.64-3.45,7.79-3.45,7.79s-44.61,1.5-48,15.75,33.37,38.24,33.37,38.24-9.11,48.49.37,53.07c11.58,5.58,41.28-15.49,43.37-17a3.55,3.55,0,0,1,1.28-1,3.64,3.64,0,0,1,1.52-.39,1.11,1.11,0,0,1,1,.23c.9.75,1.86,1.41,2.81,2.1a1.92,1.92,0,0,0,.25.12.59.59,0,0,1,.18.13c31,17.88,36.95,17.13,45.18,13.39s.38-50.61.38-50.61C1740.72,95.93,1742.85,95.06,1743.38,86.45Z"/><path d="M1743.7,85.55c0-.2-.1-.41-.16-.62l-.14-.38a9.63,9.63,0,0,0-.59-.88c-.11-.15-.23-.31-.38-.53-.39-.42-.85-.89-1.51-1.51-9.86-9.24-44.94-15.54-48.72-16.2-.77-2-1.53-3.82-2.28-5.61-.34.07-.67.14-1,.19.8,1.92,1.62,3.93,2.45,6.05l.11.27.28,0c.38.07,38.49,6.63,48.47,16,.64.61,1.09,1,1.41,1.39.12.18.24.35.37.52a5.75,5.75,0,0,1,.5.75l.07.2a5.09,5.09,0,0,1,.14.56l.16.7c-.45,7.14-2.19,9-18.31,25.75-2.72,2.85-5.86,6.12-9.47,9.91l-.18.19,0,.24c2.18,12.93,6.4,47.13-.08,50.07-7.94,3.61-13.54,4.65-44.69-13.34a1,1,0,0,0-.28-.17l-.09,0-.7-.49c-.72-.51-1.46-1.05-2.14-1.61a1.61,1.61,0,0,0-1.4-.35,4.31,4.31,0,0,0-3.09,1.58c-2,1.41-31.55,22.31-42.79,16.9-2.56-1.24-5.24-7.06-3.46-27.75,1.07-12.53,3.34-24.66,3.36-24.78l.06-.33-.28-.18c-.36-.24-36.4-24-33.15-37.71S1633.3,69,1633.75,69h.32l.12-.29c0-.11,1.39-3.31,3.52-7.93l-1.06-.12c-1.69,3.69-2.86,6.43-3.26,7.37-4.36.17-44.82,2.15-48.13,16.11s29.64,36.17,33.3,38.59c-.86,4.64-8.7,48.75.71,53.29a11.17,11.17,0,0,0,4.93,1c13.4,0,36.08-16,38.94-18l.11-.12a3.08,3.08,0,0,1,1.1-.89,3,3,0,0,1,1.3-.34h0l.14,0a.6.6,0,0,1,.55.13c.71.6,1.47,1.14,2.2,1.66l.63.46.16.09.23.12.09.07c30.1,17.39,36.72,17.47,45.64,13.41,8.27-3.76,1.38-46.81.7-50.9,3.54-3.72,6.62-6.93,9.31-9.73,16.4-17.09,18.11-18.88,18.58-26.44v-.07Z"/><path d="M1660.64,24.78l.14-.11a1,1,0,0,1,.17-.15l.06,0,.25-.1.09,0a6.23,6.23,0,0,1,1.51-.31l.37,0h.27a8.43,8.43,0,0,1,2.43.37c4.64,2.07,12.28,10.05,23,35.64.33,0,.66-.12,1-.19-10.88-26.06-18.78-34.22-23.64-36.39a9.48,9.48,0,0,0-3.09-.42l-.4,0a6.88,6.88,0,0,0-1.8.38l-.14.06-.21.09-.26.13a1.82,1.82,0,0,0-.27.24c-7.66,4-18.14,25.1-23.46,36.72l1.06.12C1643.06,49.15,1653.39,28.48,1660.64,24.78Z"/><path class="cls-1" d="M496.91,134c-14,4-27-4-41-2-3.39.85-6.79,2.41-10.18,3.48-1.71,14.39-2.69,32.88,3,35.62,11.57,5.58,41.27-15.49,43.36-17a3.42,3.42,0,0,1,1.28-1,3.51,3.51,0,0,1,1.52-.4,1.13,1.13,0,0,1,1,.23c.89.75,1.86,1.41,2.8,2.1l.25.13a.57.57,0,0,1,.18.12c31,17.88,37,17.13,45.19,13.39,5.46-2.48,3.85-23.85,2.14-38C530.18,126.57,514.23,128.25,496.91,134Z"/><path class="cls-1" d="M572.62,82c-.06-.26-.11-.52-.18-.78a5.66,5.66,0,0,0-.15-.59s-.07-.18-.08-.23,0,0,0-.06c-.25-.47-.61-.87-.9-1.31s-.93-1-1.48-1.48C559.6,68,521.07,61.44,521.07,61.44c-12-30.49-20.58-39.68-25.7-42a9.08,9.08,0,0,0-2.92-.4l-.39,0a7,7,0,0,0-1.64.34l-.34.14-.16.08a1.66,1.66,0,0,0-.28.25C479.23,25.21,463,64.07,463,64.07s-44.61,1.5-48,15.74,33.36,38.24,33.36,38.24-1.46,7.81-2.61,17.45c3.39-1.07,6.79-2.63,10.18-3.48,14-2,27,6,41,2,17.32-5.77,33.27-7.45,49.55-3.38-.87-7.23-1.77-12.59-1.77-12.59C570,91.49,572.08,90.62,572.62,82Z"/><path class="cls-3" d="M496.91,134c-14,4-27-4-41-2a36.94,36.94,0,0,0-3.58,1.12c-1.87,14.65-3.31,35.09,2.69,38,11.57,5.59,41.27-15.49,43.36-17a3.42,3.42,0,0,1,1.28-1,3.52,3.52,0,0,1,1.53-.4,1.11,1.11,0,0,1,1,.23c.9.75,1.86,1.41,2.8,2.1l.25.13a.76.76,0,0,1,.19.12c30.95,17.89,36.95,17.13,45.18,13.39,5.22-2.37,4-22,2.37-36.09C534.41,126.18,516.53,127.48,496.91,134Z"/><path d="M550.41,168.21c-7.94,3.6-13.53,4.65-44.68-13.35a1.17,1.17,0,0,0-.28-.17l-.1-.05-.69-.49c-.72-.51-1.46-1-2.14-1.61a1.62,1.62,0,0,0-1.4-.35,4.15,4.15,0,0,0-1.68.45,4,4,0,0,0-1.41,1.13c-2,1.41-31.55,22.32-42.79,16.9-2.57-1.23-5.25-7-3.47-27.75.3-3.43.68-6.84,1.08-10l-1.07.38c-1.86,14.77-3.23,35.23,3,38.24a11.23,11.23,0,0,0,4.93,1c13.4,0,36.08-16,38.94-18l.11-.11a3.18,3.18,0,0,1,1.1-.9,3.07,3.07,0,0,1,1.3-.34h0l.15,0a.61.61,0,0,1,.55.14c.71.59,1.46,1.13,2.19,1.65l.64.46.15.09.23.12.1.07c30.09,17.39,36.72,17.47,45.63,13.42,5.47-2.49,4.31-22.14,2.7-36.36l-1-.36C554.18,147.4,555.12,166.07,550.41,168.21Z"/><path d="M579.23,81.11c0-.2-.09-.41-.15-.61l-.15-.38a6.38,6.38,0,0,0-.58-.88L578,78.7c-.38-.42-.85-.88-1.51-1.5C566.6,68,531.51,61.65,527.74,61,515.67,30.47,507,21.31,501.82,19a9.8,9.8,0,0,0-3.09-.42l-.41,0a7.71,7.71,0,0,0-1.79.38l-.15.06-.21.09-.26.14c-.12.09-.21.18-.27.23-10.09,5.29-25.08,40.23-26.71,44.09-4.36.17-44.83,2.15-48.14,16.12s29.64,36.17,33.3,38.59c-.28,1.55-1.36,7.57-2.31,15l1.07-.38c1.07-8.3,2.27-14.72,2.29-14.81l.06-.32-.28-.19c-.37-.23-36.41-24-33.15-37.7s47.07-15.35,47.51-15.36h.32l.13-.3c.16-.39,16.31-38.75,26.44-43.92l.15-.11.16-.15.07,0,.24-.11.09,0a6.33,6.33,0,0,1,1.51-.31l.38,0H499a8.43,8.43,0,0,1,2.44.36c5,2.23,13.44,11.27,25.44,41.7l.1.26.28,0c.38.06,38.5,6.62,48.48,16,.64.6,1.09,1,1.4,1.38.12.18.25.35.37.52a5.75,5.75,0,0,1,.5.75c0,.06.05.13.08.2s.1.37.14.56l.16.71c-.46,7.14-2.19,8.94-18.31,25.74-2.73,2.85-5.87,6.12-9.48,9.92l-.17.18,0,.24c.59,3.53,1.34,8.65,2,14.27l1,.36c-.82-7.29-1.76-13.16-2-14.54,3.54-3.72,6.62-6.94,9.3-9.73C577.23,91.39,579,89.6,579.42,82V82Z"/><path class="cls-1" d="M2357.92,77.61c-.05-.26-.11-.52-.17-.78s-.09-.39-.15-.59a1.23,1.23,0,0,1-.08-.23l0-.06c-.25-.47-.6-.86-.89-1.31s-.93-1-1.48-1.47c-10.21-9.58-48.74-16.12-48.74-16.12-12-30.49-20.59-39.68-25.71-42a9,9,0,0,0-2.91-.41l-.39,0a7.23,7.23,0,0,0-1.65.34c-.11.05-.22.11-.33.15l-.17.08a2.27,2.27,0,0,0-.27.24c-10.41,5.32-26.68,44.17-26.68,44.17s-44.61,1.5-48,15.75,33.37,38.24,33.37,38.24-9.11,48.49.37,53.07c11.57,5.58,41.27-15.49,43.37-17a3.37,3.37,0,0,1,1.28-1.05,3.5,3.5,0,0,1,1.52-.39,1.06,1.06,0,0,1,1,.23c.9.75,1.86,1.41,2.81,2.09l.25.13a.57.57,0,0,1,.18.12c31,17.89,36.95,17.14,45.18,13.4s.38-50.61.38-50.61C2355.26,87.09,2357.39,86.22,2357.92,77.61Z"/><path class="cls-3" d="M2364.23,77.61l-.18-.78c0-.19-.09-.39-.15-.58s-.07-.19-.08-.24l0-.06c-.24-.47-.6-.86-.89-1.31s-.93-1-1.48-1.47c-10.21-9.58-48.74-16.12-48.74-16.12-12-30.49-20.58-39.68-25.7-42a8.81,8.81,0,0,0-2.92-.4l-.39,0A6.3,6.3,0,0,0,2282,15l-.33.14-.17.08a2.27,2.27,0,0,0-.27.24c-10.41,5.32-26.68,44.17-26.68,44.17s-44.61,1.5-48,15.75S2240,113.66,2240,113.66s-9.11,48.49.38,53.07c11.57,5.58,41.27-15.49,43.36-17a3.45,3.45,0,0,1,1.28-1.05,3.5,3.5,0,0,1,1.52-.39,1.08,1.08,0,0,1,1,.23c.9.75,1.87,1.41,2.81,2.09a2,2,0,0,0,.25.13.57.57,0,0,1,.18.12c31,17.89,37,17.14,45.18,13.4s.38-50.61.38-50.61C2361.57,87.09,2363.69,86.22,2364.23,77.61Z"/><path d="M2245,168.16a11.2,11.2,0,0,1-4.93-1c-9.41-4.54-1.56-48.66-.71-53.29-3.66-2.42-36.6-24.67-33.3-38.59s43.77-15.94,48.13-16.12c1.64-3.86,16.63-38.8,26.72-44.08a1.82,1.82,0,0,1,.27-.24l.26-.13.21-.09.14-.07a7.39,7.39,0,0,1,1.8-.37l.4,0a9.22,9.22,0,0,1,3.09.42c5.2,2.32,13.85,11.47,25.92,42,3.78.66,38.86,6.95,48.72,16.2.66.62,1.13,1.09,1.51,1.51.15.22.27.38.38.53a6.14,6.14,0,0,1,.59.88l.14.38c.06.21.11.41.16.62l.19.85v.07c-.48,7.57-2.19,9.35-18.59,26.45-2.69,2.8-5.77,6-9.31,9.73.68,4.08,7.57,47.14-.7,50.9-8.92,4.06-15.54,4-45.64-13.41l-.09-.07-.23-.13L2290,151l-.64-.46c-.73-.52-1.49-1.07-2.2-1.66a.56.56,0,0,0-.54-.13l-.15,0h0a3.27,3.27,0,0,0-2.4,1.23l-.11.11C2281.12,152.2,2258.44,168.16,2245,168.16Zm39.3-153h-.26l-.38,0a6.75,6.75,0,0,0-1.51.32l-.09,0-.24.1-.07,0a.9.9,0,0,0-.17.16l-.14.11c-10.13,5.17-26.29,43.53-26.45,43.91l-.12.3h-.32c-.44,0-44.27,1.65-47.52,15.36s32.79,37.47,33.15,37.71l.28.18-.06.33c0,.12-2.29,12.25-3.36,24.77-1.78,20.7.9,26.52,3.46,27.76,11.24,5.41,40.82-15.49,42.79-16.9a4.14,4.14,0,0,1,1.42-1.14,4.06,4.06,0,0,1,1.67-.44,1.58,1.58,0,0,1,1.4.35c.69.56,1.43,1.09,2.14,1.61l.7.48a.31.31,0,0,0,.1,0,1.21,1.21,0,0,1,.28.18c31.15,18,36.74,16.95,44.68,13.34,6.48-2.94,2.26-37.14.09-50.07l0-.25.18-.18c3.61-3.79,6.75-7.07,9.48-9.91,16.12-16.8,17.85-18.61,18.3-25.75l-.15-.71c-.05-.18-.09-.37-.15-.56s-.05-.13-.07-.19a5.15,5.15,0,0,0-.5-.75c-.13-.17-.25-.35-.37-.52-.31-.34-.76-.79-1.4-1.39-10-9.36-48.1-15.92-48.48-16l-.28,0-.1-.26c-12-30.42-20.46-39.47-25.45-41.7A8.77,8.77,0,0,0,2284.34,15.17Z"/><path class="cls-1" d="M1463.91,74c4-1,9-5,14-7,6.92-2.59,14.59,3.78,21.71,1.67-7.82-1.8-13.76-2.81-13.76-2.81-.37-.95-.74-1.87-1.11-2.78a48.41,48.41,0,0,1-6.84-2.08c-6-3-11,3-15,5-9,4-21-3-31,1,10-4,22,3,31-1,4-2,9-8,15-5a48.41,48.41,0,0,0,6.84,2.08c-11.44-28.28-19.63-37-24.59-39.19a8.81,8.81,0,0,0-2.92-.4l-.39,0a6.14,6.14,0,0,0-1.64.34l-.34.14-.16.08a2,2,0,0,0-.28.24c-10.41,5.32-26.68,44.17-26.68,44.17s-26.71.9-40.36,7.91C1413.31,79.34,1440,82.64,1463.91,74Z"/><path class="cls-1" d="M1537.41,86.45c-.06-.27-.11-.53-.18-.79s-.09-.39-.15-.58c0,0-.07-.19-.08-.24s0,0,0,0c-.25-.47-.61-.87-.9-1.31s-.93-1-1.48-1.48c-6.21-5.82-22.86-10.52-35-13.31-7.12,2.11-14.79-4.26-21.71-1.67-5,2-10,6-14,7-23.93,8.62-50.6,5.32-76.52,2.39-4,2-6.86,4.62-7.62,7.84-3.38,14.24,33.36,38.24,33.36,38.24s-9.11,48.49.38,53.07c11.57,5.58,41.27-15.49,43.36-17a3.55,3.55,0,0,1,1.28-1,3.5,3.5,0,0,1,1.52-.39,1.13,1.13,0,0,1,1,.23c.89.75,1.86,1.41,2.8,2.09a1.49,1.49,0,0,0,.25.13.59.59,0,0,1,.18.13c31,17.88,36.95,17.13,45.19,13.39s.37-50.61.37-50.61C1534.75,95.93,1536.87,95.05,1537.41,86.45Z"/><path class="cls-3" d="M1543.71,86.45c-.06-.27-.11-.53-.17-.79l-.15-.58a1.12,1.12,0,0,1-.08-.24l0,0c-.25-.47-.61-.87-.9-1.31s-.92-1-1.48-1.48c-7-6.52-27-11.63-39.13-14.23-7.71,4.42-16.24-3.61-23.86-.75-5,2-10,6-14,7-22.33,8-47.05,5.71-71.31,3-3.42,2-5.84,4.33-6.53,7.25-3.38,14.24,33.36,38.24,33.36,38.24s-9.11,48.49.38,53.07c11.57,5.58,41.27-15.49,43.36-17a3.55,3.55,0,0,1,1.28-1,3.65,3.65,0,0,1,1.53-.39,1.11,1.11,0,0,1,1,.23c.9.75,1.86,1.41,2.8,2.1l.25.12a.8.8,0,0,1,.19.13c31,17.88,37,17.13,45.18,13.39s.37-50.61.37-50.61C1541.05,95.93,1543.17,95.06,1543.71,86.45Z"/><path d="M1492.53,65.43c-.12-.29-.24-.58-.35-.87l-1.16-.2c.23.56.45,1.12.68,1.7l.1.26.28.05c.12,0,3.74.65,9,1.76a10.43,10.43,0,0,0,1.33-.75C1497.39,66.3,1493.62,65.62,1492.53,65.43Z"/><path d="M1434.07,69h.32l.13-.29c0-.06.44-1,1.16-2.69-.4.06-.8.14-1.2.23l-.76,1.78c-3.46.13-29.59,1.41-41.93,8.89l1.65.19C1406.64,70,1433.72,69,1434.07,69Z"/><path d="M1544,85.55c0-.2-.09-.41-.15-.62l-.15-.38a7.88,7.88,0,0,0-.58-.88c-.12-.15-.23-.31-.39-.53-.38-.42-.85-.89-1.51-1.51-7-6.55-26.64-11.62-38.85-14.25a10.43,10.43,0,0,1-1.33.75c12,2.56,32.55,7.72,39.5,14.23.64.61,1.09,1,1.4,1.39.12.18.25.35.37.52a5.75,5.75,0,0,1,.5.75c0,.06.05.12.08.2s.1.37.14.56l.16.7c-.46,7.14-2.19,9-18.31,25.75-2.73,2.85-5.87,6.12-9.48,9.91l-.17.18,0,.25c2.17,12.93,6.39,47.13-.09,50.07-7.94,3.61-13.53,4.65-44.68-13.34a1.17,1.17,0,0,0-.28-.17l-.1-.06-.69-.48c-.72-.52-1.46-1.05-2.14-1.61a1.62,1.62,0,0,0-1.4-.35,4.16,4.16,0,0,0-1.68.44,4.1,4.1,0,0,0-1.41,1.14c-2,1.41-31.55,22.31-42.79,16.9-2.57-1.24-5.25-7.06-3.47-27.75,1.08-12.53,3.34-24.66,3.37-24.78l.06-.33-.28-.18c-.37-.24-36.41-24-33.15-37.71.69-2.94,3.27-5.33,6.88-7.26l-1.65-.19c-3.23,2-5.52,4.33-6.21,7.22-3.29,13.92,29.64,36.17,33.3,38.59-.85,4.64-8.7,48.75.71,53.29a11.23,11.23,0,0,0,4.93,1c13.4,0,36.08-16,38.94-18l.11-.12a3.27,3.27,0,0,1,1.1-.89,3.07,3.07,0,0,1,1.3-.34h0l.15,0a.6.6,0,0,1,.55.13c.71.6,1.46,1.14,2.19,1.66l.64.46.15.09.23.12.1.07c30.09,17.39,36.72,17.47,45.63,13.41,8.28-3.76,1.38-46.81.71-50.9,3.54-3.72,6.62-6.93,9.3-9.73,16.4-17.09,18.12-18.88,18.59-26.44v-.07Z"/><path d="M1461,24.78l.15-.11a1.29,1.29,0,0,1,.16-.15l.07,0,.24-.1.09,0a6.33,6.33,0,0,1,1.51-.31l.38,0h.26a8.44,8.44,0,0,1,2.44.37c4.89,2.18,13.12,10.94,24.76,40l1.16.2c-11.89-29.82-20.43-38.83-25.57-41.13a9.52,9.52,0,0,0-3.09-.42l-.41,0a6.8,6.8,0,0,0-1.79.38l-.15.06-.21.09-.26.13-.27.24c-9.17,4.8-22.4,34.12-26,42.31.4-.09.8-.17,1.2-.23C1439.58,57.13,1452.41,29.14,1461,24.78Z"/><path class="cls-1" d="M1936.76,86.45l-.18-.79c0-.19-.09-.39-.15-.58,0,0-.07-.19-.08-.24l0,0a14.37,14.37,0,0,0-.89-1.31c-.43-.47-.93-1-1.48-1.48-10.21-9.58-48.74-16.12-48.74-16.12-1.5-3.81-3-7.28-4.34-10.45-14.07,2.82-28.41-1.41-44-1.41,15.55,0,29.89,4.23,44,1.41-9.77-22.23-16.88-29.52-21.36-31.52a8.81,8.81,0,0,0-2.92-.4l-.39,0a6.14,6.14,0,0,0-1.64.34l-.34.14-.17.08a2.27,2.27,0,0,0-.27.24c-10.41,5.32-26.68,44.17-26.68,44.17s-44.61,1.5-48,15.75,33.36,38.24,33.36,38.24-9.11,48.49.38,53.07c11.57,5.58,41.27-15.49,43.36-17a3.55,3.55,0,0,1,1.28-1,3.5,3.5,0,0,1,1.52-.39,1.13,1.13,0,0,1,1,.23c.89.75,1.86,1.41,2.8,2.09a1.49,1.49,0,0,0,.25.13.59.59,0,0,1,.18.13c31,17.88,37,17.13,45.19,13.39s.37-50.61.37-50.61C1934.1,95.93,1936.22,95.05,1936.76,86.45Z"/><path class="cls-3" d="M1943.06,86.45c-.06-.27-.11-.53-.17-.79l-.15-.58a1.12,1.12,0,0,1-.08-.24l0,0c-.25-.47-.61-.87-.9-1.31s-.92-1-1.48-1.48c-10.21-9.58-48.74-16.12-48.74-16.12-1.74-4.43-3.42-8.4-5-12-15,5.23-30.07.73-46.49.18-3.9,8-6.6,14.42-6.6,14.42s-44.61,1.5-48,15.75,33.36,38.24,33.36,38.24-9.11,48.49.38,53.07c11.57,5.58,41.27-15.49,43.36-17a3.55,3.55,0,0,1,1.28-1,3.64,3.64,0,0,1,1.52-.39,1.12,1.12,0,0,1,1,.23c.89.75,1.86,1.41,2.8,2.1.09,0,.16.09.25.12a.8.8,0,0,1,.19.13c31,17.88,37,17.13,45.18,13.39s.37-50.61.37-50.61C1940.4,95.93,1942.52,95.06,1943.06,86.45Z"/><path d="M1943.37,85.55c0-.2-.1-.41-.15-.62l-.15-.38a7.88,7.88,0,0,0-.58-.88c-.12-.15-.23-.31-.39-.53-.38-.42-.85-.89-1.51-1.51-9.86-9.24-44.94-15.54-48.71-16.2-1.71-4.32-3.35-8.2-4.92-11.7l-.94.33c1.6,3.58,3.28,7.56,5,12l.1.26.28.05c.38.07,38.5,6.63,48.48,16,.64.61,1.09,1,1.4,1.39.12.18.25.35.37.52a5.75,5.75,0,0,1,.5.75c0,.06,0,.12.08.2s.09.37.14.56l.16.7c-.46,7.14-2.19,9-18.31,25.75-2.73,2.85-5.87,6.12-9.48,9.91l-.17.18,0,.25c2.17,12.93,6.39,47.13-.09,50.07-7.94,3.61-13.53,4.65-44.68-13.34a1.17,1.17,0,0,0-.28-.17l-.1-.06-.7-.48c-.71-.52-1.45-1.05-2.13-1.61a1.62,1.62,0,0,0-1.4-.35,4.22,4.22,0,0,0-3.09,1.58c-2,1.41-31.55,22.31-42.79,16.9-2.57-1.24-5.25-7.06-3.47-27.75,1.08-12.53,3.34-24.66,3.36-24.78l.07-.33-.28-.18c-.37-.24-36.41-24-33.16-37.71S1833,69,1833.42,69h.32l.13-.29c.06-.16,2.79-6.64,6.68-14.6l-1.12,0c-3.33,6.85-5.76,12.53-6.36,14-4.36.17-44.83,2.15-48.14,16.11s29.64,36.17,33.3,38.59c-.85,4.64-8.7,48.75.71,53.29a11.23,11.23,0,0,0,4.93,1c13.4,0,36.08-16,38.94-18l.11-.12a3.27,3.27,0,0,1,1.1-.89,3.07,3.07,0,0,1,1.3-.34h0l.15,0a.61.61,0,0,1,.55.13c.71.6,1.46,1.14,2.19,1.66l.64.46.15.09.23.12.1.07c30.09,17.39,36.71,17.47,45.63,13.41,8.28-3.76,1.38-46.81.71-50.9,3.53-3.72,6.62-6.93,9.3-9.73,16.4-17.09,18.12-18.88,18.59-26.44v-.07Z"/><path d="M1860.31,24.78l.14-.11s.09-.09.17-.15l.07,0,.24-.1.09,0a6.33,6.33,0,0,1,1.51-.31l.38,0h.26a8.32,8.32,0,0,1,2.43.37c4.26,1.9,11.05,8.78,20.42,29.69l.94-.33c-9.53-21.26-16.54-28.31-21-30.3a9.45,9.45,0,0,0-3.09-.42l-.4,0a6.8,6.8,0,0,0-1.79.38l-.15.06-.21.09-.26.13-.27.24c-6.36,3.33-14.67,18.44-20.35,30.13l1.12,0C1846.2,42.54,1854.31,27.84,1860.31,24.78Z"/><path class="cls-1" d="M941.77,102.42a17.92,17.92,0,0,0,9.71,1.49c15.6-16.28,17.18-18,17.64-25.29-.06-.26-.11-.52-.18-.78a5.66,5.66,0,0,0-.15-.59s-.07-.18-.08-.23,0,0,0-.06c-.25-.47-.61-.87-.9-1.31s-.93-1-1.48-1.48c-10.21-9.58-48.74-16.12-48.74-16.12-12-30.49-20.58-39.68-25.7-42a9.08,9.08,0,0,0-2.92-.4l-.39,0a7,7,0,0,0-1.64.34l-.34.14-.16.08a1.66,1.66,0,0,0-.28.25c-10.41,5.31-26.68,44.17-26.68,44.17s-44.61,1.49-48,15.74c-1.76,7.43,7.39,17.51,16.55,25.46C865.11,95.54,904.86,81.05,941.77,102.42Z"/><path class="cls-1" d="M951.48,103.91a17.92,17.92,0,0,1-9.71-1.49c-36.91-21.37-76.66-6.88-113.74-.54a176.1,176.1,0,0,0,16.81,12.78s-9.11,48.5.38,53.07c11.57,5.58,41.27-15.49,43.36-17a3.55,3.55,0,0,1,1.28-1.05,3.64,3.64,0,0,1,1.52-.39,1.13,1.13,0,0,1,1,.23c.89.75,1.86,1.41,2.8,2.1l.25.13a.57.57,0,0,1,.18.12c31,17.88,37,17.13,45.19,13.39s.37-50.61.37-50.61C945.16,110.48,948.56,106.94,951.48,103.91Z"/><path class="cls-3" d="M941.77,102.42c-35.18-20.37-72.94-8.16-108.51-1.48a174,174,0,0,0,17.88,13.72s-9.11,48.5.38,53.07c11.57,5.58,41.27-15.49,43.36-17a3.42,3.42,0,0,1,1.28-1,3.52,3.52,0,0,1,1.53-.4,1.11,1.11,0,0,1,1,.23c.9.75,1.86,1.41,2.8,2.1l.25.13a.76.76,0,0,1,.19.12c30.95,17.88,36.95,17.13,45.18,13.39s.37-50.61.37-50.61c4.86-5.11,8.86-9.26,12.16-12.71C953.44,104.28,946.81,104.94,941.77,102.42Z"/><path d="M956.61,104.4c-2.73,2.85-5.87,6.12-9.48,9.92l-.17.18,0,.24c2.17,12.93,6.39,47.13-.09,50.08-7.94,3.6-13.53,4.64-44.68-13.35a1.17,1.17,0,0,0-.28-.17l-.1-.05-.7-.49c-.71-.51-1.45-1-2.13-1.61a1.62,1.62,0,0,0-1.4-.35,4.1,4.1,0,0,0-1.68.45,4,4,0,0,0-1.41,1.13c-2,1.41-31.55,22.32-42.79,16.9-2.57-1.23-5.25-7.05-3.47-27.75,1.08-12.53,3.34-24.66,3.37-24.78l.06-.33-.28-.18a175.23,175.23,0,0,1-17.52-13.42l-1.29.24a172.8,172.8,0,0,0,18,13.84c-.85,4.63-8.7,48.74.71,53.28a11.23,11.23,0,0,0,4.93,1c13.4,0,36.08-16,38.94-18l.11-.11a3.18,3.18,0,0,1,1.1-.9,3.07,3.07,0,0,1,1.3-.34h0l.15,0a.61.61,0,0,1,.55.14c.71.59,1.46,1.13,2.19,1.65l.64.46.15.09.23.12.1.07c30.09,17.39,36.71,17.47,45.63,13.42,8.28-3.76,1.38-46.82.71-50.91,3.54-3.71,6.62-6.93,9.3-9.72l3.44-3.59q-1.07.43-2.16.81Z"/><path d="M975.92,78.58l-.19-.86c0-.2-.09-.41-.15-.61l-.15-.38a6.38,6.38,0,0,0-.58-.88l-.39-.54c-.38-.42-.85-.88-1.51-1.5-9.85-9.25-44.94-15.55-48.71-16.2-12.07-30.53-20.73-39.69-25.92-42a9.8,9.8,0,0,0-3.09-.42l-.41,0a7.23,7.23,0,0,0-1.79.38l-.15.06-.21.09-.26.14c-.12.09-.21.18-.27.23-10.09,5.29-25.08,40.22-26.71,44.09-4.36.17-44.83,2.15-48.14,16.12-1.73,7.31,6.54,16.92,15.32,24.75l1.29-.24c-8.8-7.75-17.29-17.3-15.63-24.28,3.24-13.72,47.07-15.35,47.51-15.36l.32,0,.13-.29c.16-.39,16.31-38.75,26.44-43.92l.15-.11.16-.15.07,0,.24-.11.09,0a6.33,6.33,0,0,1,1.51-.31l.38,0h.26a8.43,8.43,0,0,1,2.44.36c5,2.23,13.44,11.27,25.44,41.7l.1.26.28,0c.38.06,38.5,6.62,48.48,16,.64.6,1.09,1,1.4,1.38.12.18.25.35.37.52a5.75,5.75,0,0,1,.5.75c0,.06.05.13.08.2s.1.37.14.56l.16.71c-.44,6.83-2,8.78-16.31,23.66q1.1-.37,2.16-.81c13.2-13.8,14.71-15.87,15.15-22.86Z"/></svg>
