<svg id="Layer_2" data-name="Layer 2" xmlns="http://www.w3.org/2000/svg" width="2400" height="200" viewBox="0 0 2400 200"><defs><style>.cls-1{fill:#231f20;}.cls-2{fill:#fcda33;}.cls-3{fill:#f5db12;}</style></defs><path class="cls-1" d="M774.2,90.73c-.05-.26-.11-.52-.17-.78s-.09-.4-.15-.59a1.23,1.23,0,0,1-.08-.23l0-.06c-.25-.47-.6-.87-.89-1.31s-.93-1-1.49-1.48c-10.2-9.57-48.73-16.12-48.73-16.12-12-30.49-20.59-39.68-25.71-42a9.26,9.26,0,0,0-2.91-.4l-.39,0a7.12,7.12,0,0,0-1.65.34l-.34.14-.16.08a1.82,1.82,0,0,0-.27.25c-10.42,5.31-26.68,44.17-26.68,44.17s-44.61,1.5-48,15.74,33.37,38.24,33.37,38.24-9.12,48.5.37,53.07c11.57,5.59,41.27-15.49,43.36-17a3.86,3.86,0,0,1,2.81-1.44,1.11,1.11,0,0,1,1,.23c.9.75,1.86,1.41,2.81,2.1l.25.13a.57.57,0,0,1,.18.12c30.95,17.89,36.95,17.13,45.18,13.39s.38-50.61.38-50.61C771.54,100.21,773.67,99.34,774.2,90.73Z"/><path class="cls-2" d="M693.23,136.3c-12.88-6.82-25.76-3.31-38.63.53-2.1,14.47-4.72,39.77,2,43,11.58,5.59,41.28-15.49,43.37-17a3.42,3.42,0,0,1,1.28-1,3.51,3.51,0,0,1,1.52-.4,1.11,1.11,0,0,1,1,.23c.9.75,1.86,1.41,2.81,2.1l.25.13a.57.57,0,0,1,.18.12c31,17.89,37,17.13,45.18,13.39,6.31-2.87,3.19-31,1.37-44a15.62,15.62,0,0,0-3.34.94C731.23,138.3,712.23,146.3,693.23,136.3Z"/><path d="M661.32,181.28a11.17,11.17,0,0,1-4.93-1c-9.41-4.53-1.57-48.65-.71-53.28-3.66-2.42-36.6-24.67-33.3-38.59s43.77-16,48.13-16.12c1.64-3.86,16.63-38.8,26.72-44.09a1.9,1.9,0,0,1,.27-.23l.26-.14.21-.09.14-.06a7.91,7.91,0,0,1,1.8-.38l.4,0a9.76,9.76,0,0,1,3.09.42c5.2,2.32,13.85,11.48,25.92,42,3.78.65,38.86,7,48.72,16.2.66.62,1.13,1.08,1.51,1.5.15.23.27.38.38.54a5.63,5.63,0,0,1,.59.88l.14.38c.06.2.11.41.16.61l.19.86v.07c-.48,7.56-2.19,9.35-18.59,26.45-2.69,2.8-5.77,6-9.31,9.73.68,4.08,7.57,47.14-.7,50.9-8.92,4-15.54,4-45.64-13.42l-.09-.07-.23-.12-.15-.09-.64-.46c-.73-.52-1.49-1.06-2.2-1.65a.6.6,0,0,0-.55-.14l-.14,0h0a3.24,3.24,0,0,0-2.4,1.24l-.11.11C697.4,165.31,674.72,181.28,661.32,181.28Zm39.3-153h-.27l-.37,0a6.23,6.23,0,0,0-1.51.31l-.09,0-.24.11-.07,0-.17.15-.14.11C687.63,34.24,671.47,72.59,671.31,73l-.12.3h-.32c-.44,0-44.27,1.64-47.52,15.36s32.79,37.47,33.15,37.7l.28.19-.06.32c0,.13-2.29,12.25-3.36,24.78-1.78,20.7.9,26.52,3.46,27.75,11.24,5.42,40.82-15.49,42.79-16.9a4.05,4.05,0,0,1,1.41-1.13,4.15,4.15,0,0,1,1.68-.45,1.61,1.61,0,0,1,1.4.35c.68.57,1.42,1.1,2.14,1.61l.7.49.1,0a1.17,1.17,0,0,1,.28.17c31.15,18,36.74,16.95,44.68,13.35,6.48-3,2.26-37.15.09-50.08l-.05-.24.18-.18c3.61-3.8,6.75-7.07,9.47-9.91C777.81,99.71,779.55,97.91,780,90.77l-.15-.71c-.05-.19-.09-.37-.15-.56s-.05-.14-.07-.2a5.75,5.75,0,0,0-.5-.75c-.13-.17-.25-.34-.37-.52-.32-.33-.76-.78-1.41-1.38-10-9.37-48.09-15.93-48.47-16l-.28,0-.1-.26c-12-30.43-20.46-39.47-25.45-41.7A8.41,8.41,0,0,0,700.62,28.29Z"/><path class="cls-1" d="M374.54,90.73l-.18-.78a5.66,5.66,0,0,0-.15-.59s-.07-.18-.08-.23l0-.06a14.37,14.37,0,0,0-.89-1.31c-.43-.47-.93-1-1.48-1.48C361.52,76.71,323,70.16,323,70.16c-12-30.49-20.58-39.68-25.7-42a9.36,9.36,0,0,0-2.92-.4l-.39,0a7,7,0,0,0-1.64.34l-.34.14-.17.08a1.82,1.82,0,0,0-.27.25c-10.41,5.31-26.68,44.17-26.68,44.17s-44.61,1.5-48,15.74,33.36,38.24,33.36,38.24-9.11,48.5.38,53.07c11.57,5.59,41.27-15.49,43.36-17a3.42,3.42,0,0,1,1.28-1,3.51,3.51,0,0,1,1.52-.4,1.13,1.13,0,0,1,1,.23c.89.75,1.86,1.41,2.8,2.1l.25.13a.57.57,0,0,1,.18.12c31,17.89,36.95,17.13,45.19,13.39s.37-50.61.37-50.61C371.88,100.21,374,99.34,374.54,90.73Z"/><path class="cls-2" d="M287.31,156.3c-11.1-2.38-21.58-6-32.92-6.91-1.29,13.32-1.47,28,3.55,30.45,11.57,5.59,41.27-15.49,43.36-17a3.42,3.42,0,0,1,1.28-1,3.51,3.51,0,0,1,1.52-.4,1.11,1.11,0,0,1,1,.23c.9.75,1.87,1.41,2.81,2.1l.25.13a.57.57,0,0,1,.18.12c31,17.89,36.95,17.13,45.18,13.39,3.55-1.61,4.12-11.21,3.61-21.62C333.63,153.37,310.92,162,287.31,156.3Z"/><path d="M261.65,181.28a11.23,11.23,0,0,1-4.93-1c-9.41-4.53-1.56-48.65-.71-53.28-3.66-2.42-36.59-24.67-33.3-38.59s43.78-16,48.14-16.12c1.63-3.86,16.62-38.8,26.71-44.09.06-.05.15-.14.27-.23l.26-.14.21-.09.15-.06a7.71,7.71,0,0,1,1.79-.38l.4,0a9.72,9.72,0,0,1,3.09.42c5.2,2.32,13.86,11.48,25.93,42,3.77.65,38.85,7,48.71,16.2.66.62,1.13,1.08,1.51,1.5l.39.54a6.38,6.38,0,0,1,.58.88l.15.38c.05.2.11.41.15.61l.19.86v.07c-.47,7.56-2.19,9.35-18.59,26.45-2.68,2.8-5.77,6-9.3,9.73.67,4.08,7.57,47.14-.71,50.9-8.92,4-15.54,4-45.63-13.42l-.1-.07-.23-.12-.15-.09-.64-.46c-.73-.52-1.48-1.06-2.19-1.65a.62.62,0,0,0-.55-.14l-.15,0h0a3.07,3.07,0,0,0-1.3.34,3.18,3.18,0,0,0-1.1.9l-.11.11C297.73,165.31,275.05,181.28,261.65,181.28Zm39.3-153h-.26l-.38,0a6.33,6.33,0,0,0-1.51.31l-.09,0-.24.11-.07,0-.17.15-.14.11C288,34.24,271.81,72.59,271.65,73l-.13.3h-.32c-.44,0-44.27,1.64-47.52,15.36s32.79,37.47,33.16,37.7l.28.19-.07.32c0,.13-2.28,12.25-3.36,24.78-1.78,20.7.9,26.52,3.47,27.75C268.4,184.81,298,163.9,300,162.49a4,4,0,0,1,1.41-1.13,4.1,4.1,0,0,1,1.68-.45,1.62,1.62,0,0,1,1.4.35c.68.57,1.42,1.1,2.13,1.61l.7.49.1,0a1.17,1.17,0,0,1,.28.17c31.15,18,36.74,16.95,44.68,13.35,6.48-3,2.26-37.15.09-50.08l0-.24.17-.18c3.61-3.8,6.75-7.07,9.48-9.91,16.12-16.81,17.85-18.61,18.31-25.75l-.16-.71c-.05-.19-.09-.37-.14-.56l-.08-.2a5.75,5.75,0,0,0-.5-.75c-.12-.17-.25-.34-.37-.52-.31-.33-.76-.78-1.4-1.38-10-9.37-48.1-15.93-48.48-16l-.28,0-.1-.26c-12-30.43-20.46-39.47-25.45-41.7A8.31,8.31,0,0,0,301,28.29Z"/><path class="cls-1" d="M178.11,88.73l-.18-.78c0-.19-.09-.39-.15-.58s-.07-.19-.08-.24l0-.06c-.24-.47-.6-.86-.89-1.31s-.93-1-1.48-1.47c-10.21-9.58-48.74-16.12-48.74-16.12-12-30.49-20.58-39.68-25.7-42a8.81,8.81,0,0,0-2.92-.4l-.39,0a6.14,6.14,0,0,0-1.64.34l-.34.14-.17.08a2.27,2.27,0,0,0-.27.24C84.72,31.94,68.45,70.79,68.45,70.79s-44.61,1.5-48,15.75,33.36,38.24,33.36,38.24-9.11,48.49.38,53.07c11.57,5.58,41.27-15.49,43.36-17a3.55,3.55,0,0,1,1.28-1.05,3.5,3.5,0,0,1,1.52-.39,1.11,1.11,0,0,1,1,.23c.9.75,1.87,1.41,2.81,2.09a2,2,0,0,0,.25.13.59.59,0,0,1,.18.13c31,17.88,36.95,17.13,45.18,13.39s.38-50.61.38-50.61C175.45,98.22,177.57,97.34,178.11,88.73Z"/><path d="M58.92,182.78a11.31,11.31,0,0,1-4.93-1c-9.41-4.54-1.57-48.66-.71-53.29-3.66-2.42-36.6-24.67-33.3-38.59S63.75,74,68.11,73.79C69.75,69.93,84.74,35,94.83,29.71a1.82,1.82,0,0,1,.27-.24l.26-.13.21-.09.14-.06a6.88,6.88,0,0,1,1.8-.38l.4,0a9.22,9.22,0,0,1,3.09.42c5.2,2.32,13.85,11.48,25.92,42,3.78.66,38.86,7,48.72,16.2.66.62,1.12,1.09,1.51,1.51.15.22.27.38.38.53a7.88,7.88,0,0,1,.58.88l.15.38c.06.21.11.41.16.62l.19.86v.07c-.47,7.56-2.18,9.35-18.58,26.44-2.69,2.8-5.77,6-9.31,9.73.68,4.08,7.57,47.14-.7,50.9-8.92,4.06-15.54,4-45.64-13.41l-.09-.07-.23-.12-.16-.09-.63-.46c-.73-.52-1.49-1.06-2.2-1.66a.6.6,0,0,0-.55-.13l-.14,0h0a3,3,0,0,0-1.29.34,3.08,3.08,0,0,0-1.1.89l-.11.11C95,166.81,72.32,182.78,58.92,182.78Zm39.3-153H98l-.37,0a6.23,6.23,0,0,0-1.51.31l-.09,0-.25.1-.06,0a.69.69,0,0,0-.17.15l-.14.11C85.22,35.73,69.07,74.09,68.91,74.48l-.12.29h-.32C68,74.8,24.2,76.43,21,90.14s32.79,37.47,33.15,37.71l.28.18-.06.33c0,.12-2.29,12.25-3.36,24.78-1.78,20.69.9,26.51,3.46,27.75C65.66,186.3,95.24,165.4,97.21,164a4.1,4.1,0,0,1,1.41-1.14,4.16,4.16,0,0,1,1.68-.44,1.58,1.58,0,0,1,1.4.35c.68.56,1.42,1.09,2.14,1.61l.7.48.09.06a1,1,0,0,1,.28.17c31.15,18,36.75,16.95,44.69,13.34,6.47-2.94,2.26-37.14.08-50.07l0-.25.18-.18c3.61-3.79,6.75-7.06,9.47-9.91,16.12-16.8,17.86-18.61,18.31-25.75l-.16-.7a5.09,5.09,0,0,0-.14-.56l-.07-.2a6.11,6.11,0,0,0-.5-.75c-.13-.17-.25-.34-.37-.52-.32-.34-.77-.79-1.41-1.39-10-9.36-48.09-15.92-48.47-16l-.28-.05-.11-.26c-12-30.42-20.46-39.47-25.44-41.69A8.43,8.43,0,0,0,98.22,29.78Z"/><path class="cls-1" d="M2107.54,46.3a17.67,17.67,0,0,0,3.65,1c-6.76-12.72-11.89-17.55-15.41-19.12a9.26,9.26,0,0,0-2.91-.4l-.39,0a7.23,7.23,0,0,0-1.65.34l-.33.14-.17.08a1.82,1.82,0,0,0-.27.25c-3.74,1.91-8.24,8.15-12.47,15.36C2087.44,43.34,2097.88,43.66,2107.54,46.3Z"/><path class="cls-1" d="M2173,90.73l-.18-.78a5.66,5.66,0,0,0-.15-.59s-.07-.18-.08-.23l0-.06a14.37,14.37,0,0,0-.89-1.31c-.43-.47-.93-1-1.48-1.48-10.21-9.57-48.74-16.12-48.74-16.12a224.73,224.73,0,0,0-10.3-22.85,17.67,17.67,0,0,1-3.65-1c-9.66-2.64-20.1-3-29.95-2.32a284.45,284.45,0,0,0-14.21,28.81s-44.61,1.5-48,15.74,33.37,38.24,33.37,38.24-9.11,48.5.37,53.07c11.58,5.59,41.28-15.49,43.37-17a3.42,3.42,0,0,1,1.28-1,3.51,3.51,0,0,1,1.52-.4,1.11,1.11,0,0,1,1,.23c.9.75,1.86,1.41,2.81,2.1l.25.13a.57.57,0,0,1,.18.12c31,17.89,36.95,17.13,45.18,13.39s.38-50.61.38-50.61C2170.37,100.21,2172.5,99.34,2173,90.73Z"/><path class="cls-3" d="M2179.34,90.73l-.18-.78c0-.2-.09-.39-.15-.59,0,0-.07-.18-.08-.23l0-.06a14.37,14.37,0,0,0-.89-1.31c-.43-.47-.93-1-1.48-1.48-10.21-9.57-48.74-16.12-48.74-16.12a224.24,224.24,0,0,0-10.39-23,16.59,16.59,0,0,1-9.86-.83,84.28,84.28,0,0,0-23.49-2.58,281.79,281.79,0,0,0-14.37,29.07s-44.61,1.5-48,15.74,33.36,38.24,33.36,38.24-9.11,48.5.38,53.07c11.57,5.59,41.27-15.49,43.36-17a3.42,3.42,0,0,1,1.28-1,3.51,3.51,0,0,1,1.52-.4,1.13,1.13,0,0,1,1,.23c.89.75,1.86,1.41,2.8,2.1l.25.13a.57.57,0,0,1,.18.12c31,17.89,37,17.13,45.18,13.39s.38-50.61.38-50.61C2176.68,100.21,2178.8,99.34,2179.34,90.73Z"/><path d="M2179.65,89.83c-.05-.2-.1-.41-.16-.61l-.14-.38a5.63,5.63,0,0,0-.59-.88c-.11-.16-.23-.31-.38-.54-.38-.42-.85-.88-1.51-1.5-9.86-9.25-44.94-15.55-48.72-16.2A223,223,0,0,0,2117.89,47c-.33.09-.65.18-1,.24a224,224,0,0,1,10.43,23.1l.1.26.28,0c.38.06,38.49,6.62,48.48,16,.64.6,1.09,1,1.4,1.38.12.18.24.35.37.52a5.75,5.75,0,0,1,.5.75c0,.06,0,.13.07.2s.1.37.15.56l.15.71c-.45,7.14-2.18,8.94-18.3,25.75-2.73,2.84-5.87,6.11-9.48,9.91l-.17.18,0,.24c2.17,12.93,6.39,47.13-.09,50.08-7.94,3.6-13.53,4.65-44.68-13.35a1.17,1.17,0,0,0-.28-.17l-.1,0-.7-.49c-.71-.51-1.45-1-2.13-1.61a1.64,1.64,0,0,0-1.41-.35,4.05,4.05,0,0,0-1.67.45,3.88,3.88,0,0,0-1.41,1.13c-2,1.41-31.55,22.32-42.8,16.9-2.56-1.23-5.24-7-3.46-27.75,1.08-12.53,3.34-24.65,3.36-24.78l.06-.32-.28-.19c-.36-.23-36.4-24-33.15-37.7s47.08-15.35,47.52-15.36h.32l.12-.3a287.49,287.49,0,0,1,14.5-29.27l-1.19,0a274.79,274.79,0,0,0-14.1,28.57c-4.37.17-44.83,2.15-48.14,16.12s29.64,36.17,33.3,38.59c-.85,4.63-8.7,48.75.71,53.28a11.2,11.2,0,0,0,4.93,1c13.4,0,36.08-16,38.94-18l.11-.11a3.24,3.24,0,0,1,2.4-1.24h0l.15,0a.59.59,0,0,1,.54.14c.71.59,1.47,1.13,2.2,1.65l.64.46.15.09.23.12.09.07c30.1,17.39,36.72,17.47,45.64,13.42,8.27-3.76,1.38-46.82.7-50.9,3.54-3.72,6.62-6.93,9.31-9.73,16.4-17.1,18.11-18.89,18.59-26.45v-.07Z"/><path d="M2096.59,29.06l.14-.11.17-.15.07,0,.24-.11.09,0a6.23,6.23,0,0,1,1.51-.31l.38,0h.26a8.36,8.36,0,0,1,2.43.36c3.39,1.52,8.4,6.19,15,18.6.34-.06.66-.15,1-.24-6.85-12.85-12.08-17.7-15.66-19.3a9.76,9.76,0,0,0-3.09-.42l-.4,0a7.91,7.91,0,0,0-1.8.38l-.14.06-.21.09-.26.14a2.73,2.73,0,0,0-.27.23c-3.83,2-8.37,8.29-12.61,15.52l1.19,0C2088.73,36.79,2093,30.88,2096.59,29.06Z"/><path class="cls-1" d="M1108.37,46.3a17.94,17.94,0,0,0,3.66,1c-6.76-12.72-11.9-17.55-15.41-19.12a9.36,9.36,0,0,0-2.92-.4l-.39,0a7,7,0,0,0-1.64.34l-.34.14-.16.08a1.66,1.66,0,0,0-.28.25c-3.74,1.91-8.24,8.15-12.46,15.36C1088.28,43.34,1098.71,43.66,1108.37,46.3Z"/><path class="cls-1" d="M1128.79,96.31a8.54,8.54,0,0,0-7,0c-5,4-10,8-15,9-13,2-26-3-39,1-12.61,4.5-27.66.89-42.22.86,9.93,10.39,24,19.6,24,19.6s-9.11,48.5.38,53.07c11.57,5.59,41.27-15.49,43.36-17a3.42,3.42,0,0,1,1.28-1,3.51,3.51,0,0,1,1.52-.4,1.12,1.12,0,0,1,1,.23c.89.75,1.86,1.41,2.8,2.1l.25.13a.76.76,0,0,1,.19.12c30.95,17.89,36.95,17.13,45.18,13.39s.37-50.61.37-50.61c16.55-17.4,23.17-23.77,25.92-28.52C1156.58,98.16,1142.23,107.82,1128.79,96.31Z"/><path class="cls-1" d="M1173.7,90l-.15-.59a1.23,1.23,0,0,1-.08-.23l0-.06c-.25-.47-.61-.87-.9-1.31s-.92-1-1.48-1.48c-10.21-9.57-48.74-16.12-48.74-16.12A225,225,0,0,0,1112,47.31a17.94,17.94,0,0,1-3.66-1c-9.66-2.64-20.09-3-29.94-2.32a282.06,282.06,0,0,0-14.21,28.81s-44.62,1.5-48,15.74c-1.29,5.42,3.24,12.26,9.34,18.64,14.56,0,29.61,3.64,42.22-.86,13-4,26,1,39-1,5-1,10-5,15-9a8.54,8.54,0,0,1,7,0c13.44,11.51,27.79,1.85,43.07,1.94a15.34,15.34,0,0,0,2-7.52C1173.81,90.47,1173.76,90.21,1173.7,90Z"/><path class="cls-3" d="M1128.79,96.31a8.54,8.54,0,0,0-7,0c-5,4-10,8-15,9-13,2-26-3-39,1-10.74,3.83-23.25,1.78-35.72,1.07,9.92,10.31,23.83,19.39,23.83,19.39s-9.12,48.5.37,53.07c11.57,5.59,41.27-15.49,43.36-17a3.82,3.82,0,0,1,2.81-1.44,1.11,1.11,0,0,1,1,.23c.9.75,1.86,1.41,2.81,2.1l.24.13a.76.76,0,0,1,.19.12c31,17.89,37,17.13,45.18,13.39s.37-50.61.37-50.61c15-15.79,21.86-22.5,25.06-27.15-1.16-.54-2.47-.8-3.51-1.31C1157.79,97.31,1142.79,108.31,1128.79,96.31Z"/><path d="M1023,88.65c3.24-13.72,47.07-15.35,47.51-15.36h.32l.13-.3a282.85,282.85,0,0,1,14.5-29.27l-1.2,0a277,277,0,0,0-14.1,28.57c-4.36.17-44.83,2.15-48.14,16.12-1.32,5.57,3.18,12.48,9.27,18.92.51,0,1,0,1.51.09C1026.52,101,1021.74,94,1023,88.65Z"/><path d="M1180.68,90.69l-.19-.86c0-.2-.1-.41-.16-.61l-.15-.38a6.38,6.38,0,0,0-.58-.88l-.39-.54c-.38-.42-.84-.88-1.51-1.5-9.85-9.25-44.94-15.55-48.71-16.2A220.61,220.61,0,0,0,1118.72,47c-.32.09-.65.18-1,.24a224.2,224.2,0,0,1,10.42,23.1l.11.26.27,0c.39.06,38.5,6.62,48.48,16,.64.6,1.09,1,1.41,1.38a6.15,6.15,0,0,0,.37.52,8.88,8.88,0,0,1,.5.75,1,1,0,0,0,.07.2c.05.19.1.37.14.56l.16.71a14.88,14.88,0,0,1-2.85,8.64,7.08,7.08,0,0,1,.92.44,15.63,15.63,0,0,0,2.93-9.09Z"/><path d="M1161.36,116.52c-2.73,2.84-5.87,6.11-9.48,9.91l-.17.18,0,.24c2.17,12.93,6.39,47.13-.09,50.08-7.93,3.6-13.53,4.65-44.68-13.35a1,1,0,0,0-.28-.17l-.1,0-.69-.49c-.72-.51-1.46-1-2.14-1.61a1.61,1.61,0,0,0-1.4-.35,4.15,4.15,0,0,0-1.68.45,4,4,0,0,0-1.41,1.13c-2,1.41-31.55,22.32-42.79,16.9-2.56-1.23-5.25-7-3.47-27.75,1.08-12.53,3.34-24.65,3.37-24.78l.06-.32-.28-.19c-.22-.14-13.6-8.95-23.35-18.92-.5,0-1-.06-1.51-.09,9.13,9.64,21.84,18.22,24,19.67-.85,4.63-8.7,48.75.71,53.28a11.24,11.24,0,0,0,4.94,1c13.39,0,36.07-16,38.94-18l.11-.11a3.24,3.24,0,0,1,2.39-1.24h0l.14,0a.61.61,0,0,1,.55.14c.71.59,1.46,1.13,2.19,1.65l.64.46.16.09.22.12.1.07c30.09,17.39,36.72,17.47,45.64,13.42,8.27-3.76,1.37-46.82.7-50.9,3.54-3.72,6.62-6.93,9.3-9.73,8.65-9,13.21-13.77,15.66-17.36a7.08,7.08,0,0,0-.92-.44C1174.4,102.92,1169.9,107.61,1161.36,116.52Z"/><path d="M1097.42,29.06l.15-.11.16-.15.07,0,.25-.11.08,0a6.33,6.33,0,0,1,1.51-.31l.38,0h.27a8.41,8.41,0,0,1,2.43.36c3.39,1.52,8.39,6.19,15,18.6.33-.06.66-.15,1-.24-6.85-12.85-12.07-17.7-15.65-19.3a9.8,9.8,0,0,0-3.09-.42l-.41,0a7.82,7.82,0,0,0-1.79.38l-.15.06-.21.09-.26.14c-.12.09-.21.18-.27.23-3.83,2-8.36,8.29-12.61,15.52l1.2,0C1089.57,36.79,1093.86,30.88,1097.42,29.06Z"/><path class="cls-1" d="M1245.53,90.3c22-2,43,7,64-4,11-5,22,4,33,4,9.61,0,17.93-3.2,26.51-5.5-12.33-8.76-46.88-14.64-46.88-14.64-12-30.49-20.59-39.68-25.71-42a9.28,9.28,0,0,0-2.92-.4l-.38,0a7.12,7.12,0,0,0-1.65.34l-.34.14-.16.08a1.82,1.82,0,0,0-.27.25c-10.42,5.31-26.68,44.17-26.68,44.17s-44.61,1.5-48,15.74c-.93,3.94,1.21,8.63,4.79,13.35C1227.75,94.82,1237.08,91.24,1245.53,90.3Z"/><path class="cls-1" d="M1373.53,90c0-.2-.09-.4-.15-.59a1.23,1.23,0,0,1-.08-.23l0-.06c-.25-.47-.6-.87-.89-1.31s-.93-1-1.49-1.48A17.12,17.12,0,0,0,1369,84.8c-8.58,2.3-16.9,5.5-26.51,5.5-11,0-22-9-33-4-21,11-42,2-64,4-8.45.94-17.78,4.52-24.68,11.58,9.36,12.34,28.58,24.89,28.58,24.89s-9.12,48.5.37,53.07c11.57,5.59,41.27-15.49,43.36-17a3.5,3.5,0,0,1,1.28-1,3.55,3.55,0,0,1,1.53-.4,1.11,1.11,0,0,1,1,.23c.9.75,1.86,1.41,2.81,2.1l.24.13a.52.52,0,0,1,.19.12c31,17.89,37,17.13,45.18,13.39s.38-50.61.38-50.61c25.26-26.56,27.38-27.43,27.92-36C1373.65,90.47,1373.59,90.21,1373.53,90Z"/><path class="cls-3" d="M1380,90.73c0-.26-.11-.52-.17-.78s-.09-.39-.15-.59a1.23,1.23,0,0,1-.08-.23l0-.06a14.37,14.37,0,0,0-.89-1.31c-.43-.47-.93-1-1.48-1.48a21.59,21.59,0,0,0-3.56-2.6c-10.27,2.18-19.8,6.62-31.11,6.62-11,0-22-9-33-4-21,11-42,2-64,4a42.37,42.37,0,0,0-20.74,8.11c7.93,13.33,30.94,28.36,30.94,28.36s-9.11,48.5.37,53.07c11.58,5.59,41.27-15.49,43.37-17a3.42,3.42,0,0,1,1.28-1,3.51,3.51,0,0,1,1.52-.4,1.11,1.11,0,0,1,1,.23c.9.75,1.86,1.41,2.81,2.1l.25.13a.57.57,0,0,1,.18.12c31,17.89,37,17.13,45.18,13.39s.38-50.61.38-50.61C1377.34,100.21,1379.47,99.34,1380,90.73Z"/><path d="M1222.85,88.65c3.25-13.72,47.07-15.35,47.52-15.36h.32l.12-.3c.16-.39,16.31-38.74,26.45-43.92l.14-.11.17-.15.06,0,.25-.11.09,0a6.23,6.23,0,0,1,1.51-.31l.37,0h.27a8.41,8.41,0,0,1,2.43.36c5,2.23,13.45,11.27,25.44,41.7l.11.26.28,0c.34,0,31,5.34,44.53,13.18l1.44-.31c-12.65-7.93-42.09-13.22-45.53-13.81-12.07-30.53-20.72-39.69-25.92-42a9.76,9.76,0,0,0-3.09-.42l-.4,0a7.79,7.79,0,0,0-1.8.38l-.14.06-.21.09L1297,28a1.9,1.9,0,0,0-.27.23c-10.09,5.29-25.08,40.23-26.72,44.09-4.36.17-44.83,2.15-48.13,16.12-.74,3.12.35,6.66,2.52,10.3l.78-.61C1223.18,94.73,1222.18,91.48,1222.85,88.65Z"/><path d="M1380.32,89.83c0-.2-.1-.41-.16-.61l-.14-.38a7.48,7.48,0,0,0-.59-.88c-.11-.16-.23-.31-.38-.54-.39-.42-.85-.88-1.51-1.5a21.2,21.2,0,0,0-3.19-2.39l-1.44.31a21.39,21.39,0,0,1,3.94,2.81c.64.6,1.09,1,1.41,1.38.12.18.24.35.37.52a7,7,0,0,1,.5.75c0,.06,0,.13.07.2a5.73,5.73,0,0,1,.14.56l.16.71c-.45,7.14-2.19,8.94-18.31,25.75-2.72,2.84-5.86,6.11-9.47,9.91l-.18.18,0,.24c2.18,12.93,6.39,47.13-.08,50.08-7.94,3.6-13.54,4.65-44.69-13.35a1,1,0,0,0-.28-.17l-.09,0-.7-.49c-.72-.51-1.46-1-2.14-1.61a1.61,1.61,0,0,0-1.4-.35,4.15,4.15,0,0,0-1.68.45,4,4,0,0,0-1.41,1.13c-2,1.41-31.55,22.32-42.79,16.9-2.56-1.23-5.24-7-3.46-27.75,1.07-12.53,3.34-24.65,3.36-24.78l.06-.32-.28-.19c-.29-.19-23.08-15.19-30.82-28.24l-.78.61c7.49,12.6,27.94,26.41,30.78,28.29-.86,4.63-8.7,48.75.71,53.28a11.17,11.17,0,0,0,4.93,1c13.4,0,36.07-16,38.94-18l.11-.11a3.24,3.24,0,0,1,2.4-1.24h0l.14,0a.6.6,0,0,1,.55.14c.71.59,1.47,1.13,2.2,1.65l.63.46.16.09.23.12.09.07c30.1,17.39,36.72,17.47,45.64,13.42,8.27-3.76,1.38-46.82.7-50.9,3.54-3.72,6.62-6.93,9.31-9.73,16.4-17.1,18.11-18.89,18.58-26.45v-.07Z"/><path class="cls-1" d="M1773.37,90.73c-.06-.26-.11-.52-.17-.78l-.15-.59s-.08-.18-.09-.23a.14.14,0,0,0,0-.06c-.25-.47-.61-.87-.9-1.31s-.92-1-1.48-1.48c-10.21-9.57-48.74-16.12-48.74-16.12-.81-2-1.6-4-2.38-5.87-4.8-.56-9.61-2.06-14.41-1a23.53,23.53,0,0,0-8,2c-9.92,3.81-19.84-1.1-29.76-.53-2.19,4.76-3.56,8-3.56,8s-44.61,1.5-48,15.74,33.36,38.24,33.36,38.24-9.11,48.5.38,53.07c11.57,5.59,41.27-15.49,43.36-17a3.42,3.42,0,0,1,1.28-1,3.51,3.51,0,0,1,1.52-.4,1.13,1.13,0,0,1,1,.23c.89.75,1.86,1.41,2.8,2.1l.25.13a.57.57,0,0,1,.18.12c31,17.89,37,17.13,45.19,13.39s.37-50.61.37-50.61C1770.71,100.21,1772.83,99.34,1773.37,90.73Z"/><path class="cls-1" d="M1697,65.3a23.53,23.53,0,0,1,8-2c4.8-1.07,9.61.43,14.41,1-10.78-25.82-18.55-34-23.32-36.1a9.36,9.36,0,0,0-2.92-.4l-.39,0a7,7,0,0,0-1.64.34l-.34.14-.16.08a1.66,1.66,0,0,0-.28.25c-7.4,3.77-17.74,24.47-23.12,36.15C1677.19,64.2,1687.11,69.11,1697,65.3Z"/><path class="cls-3" d="M1779.67,90.73c-.06-.26-.11-.52-.17-.78l-.15-.59a1.23,1.23,0,0,1-.08-.23l0-.06c-.25-.47-.61-.87-.9-1.31s-.92-1-1.48-1.48c-10.21-9.57-48.73-16.12-48.73-16.12-.83-2.09-1.63-4.06-2.43-6-6.89,1.31-13.78-2.43-20.67-.9a23.53,23.53,0,0,0-8,2c-7.85,3-15.71.57-23.56-.3-2.13,4.63-3.45,7.79-3.45,7.79s-44.62,1.5-48,15.74,33.37,38.24,33.37,38.24-9.12,48.5.37,53.07c11.57,5.59,41.27-15.49,43.36-17a3.82,3.82,0,0,1,2.81-1.44,1.11,1.11,0,0,1,1,.23c.9.75,1.86,1.41,2.8,2.1l.25.13a.76.76,0,0,1,.19.12c31,17.89,37,17.13,45.18,13.39s.37-50.61.37-50.61C1777,100.21,1779.13,99.34,1779.67,90.73Z"/><path d="M1780,89.83c0-.2-.09-.41-.15-.61l-.15-.38a6.38,6.38,0,0,0-.58-.88l-.39-.54c-.38-.42-.85-.88-1.51-1.5-9.85-9.25-44.94-15.55-48.71-16.2q-1.17-2.94-2.28-5.62c-.34.08-.67.14-1,.19.8,1.92,1.62,3.93,2.46,6.06l.1.26.28,0c.39.06,38.5,6.62,48.48,16,.64.6,1.09,1,1.41,1.38.11.18.24.35.36.52a7,7,0,0,1,.51.75,1,1,0,0,0,.07.2c.05.19.1.37.14.56l.16.71c-.46,7.14-2.19,8.94-18.31,25.75-2.73,2.84-5.87,6.11-9.48,9.91l-.17.18,0,.24c2.17,12.93,6.39,47.13-.09,50.08-7.93,3.6-13.53,4.65-44.68-13.35a1,1,0,0,0-.28-.17l-.1,0-.69-.49c-.72-.51-1.46-1-2.14-1.61a1.62,1.62,0,0,0-1.4-.35,4.15,4.15,0,0,0-1.68.45,4,4,0,0,0-1.41,1.13c-2,1.41-31.55,22.32-42.79,16.9-2.57-1.23-5.25-7-3.47-27.75,1.08-12.53,3.34-24.65,3.37-24.78l.06-.32-.28-.19c-.37-.23-36.41-24-33.15-37.7S1669.59,73.3,1670,73.29h.32l.13-.3c0-.11,1.39-3.3,3.52-7.93l-1.07-.11c-1.68,3.69-2.86,6.43-3.25,7.36-4.36.17-44.83,2.15-48.14,16.12s29.64,36.17,33.3,38.59c-.85,4.63-8.7,48.75.71,53.28a11.23,11.23,0,0,0,4.93,1c13.4,0,36.08-16,38.94-18l.12-.11a3.2,3.2,0,0,1,2.39-1.24h0l.14,0a.61.61,0,0,1,.55.14c.71.59,1.46,1.13,2.19,1.65l.64.46.15.09.23.12.1.07c30.09,17.39,36.72,17.47,45.64,13.42,8.27-3.76,1.37-46.82.7-50.9,3.54-3.72,6.62-6.93,9.3-9.73,16.4-17.1,18.12-18.89,18.59-26.45v-.07Z"/><path d="M1696.92,29.06l.15-.11.16-.15.07,0,.25-.11.08,0a6.33,6.33,0,0,1,1.51-.31l.38,0h.27a8.41,8.41,0,0,1,2.43.36c4.63,2.07,12.28,10.05,23,35.64.34-.05.67-.11,1-.19-10.89-26-18.78-34.21-23.64-36.39a9.8,9.8,0,0,0-3.09-.42l-.41,0a7.71,7.71,0,0,0-1.79.38l-.15.06-.21.09-.26.14c-.12.09-.21.18-.27.23-7.66,4-18.14,25.11-23.46,36.73l1.07.11C1679.35,53.44,1689.67,32.76,1696.92,29.06Z"/><path class="cls-1" d="M498.66,142.74c-14,4-27-4-41-2-3.39.85-6.78,2.41-10.18,3.48-1.7,14.39-2.69,32.88,3,35.62,11.57,5.59,41.27-15.49,43.36-17a3.42,3.42,0,0,1,1.28-1,3.52,3.52,0,0,1,1.53-.4,1.11,1.11,0,0,1,1,.23c.9.75,1.86,1.41,2.8,2.1l.25.13a.76.76,0,0,1,.19.12c31,17.89,37,17.13,45.18,13.39,5.46-2.48,3.85-23.85,2.15-38C531.94,135.29,516,137,498.66,142.74Z"/><path class="cls-1" d="M574.37,90.73c-.06-.26-.11-.52-.17-.78l-.15-.59a1.23,1.23,0,0,1-.08-.23l0-.06c-.25-.47-.61-.87-.9-1.31s-.92-1-1.48-1.48c-10.21-9.57-48.74-16.12-48.74-16.12-12-30.49-20.58-39.68-25.7-42a9.36,9.36,0,0,0-2.92-.4l-.38,0a7,7,0,0,0-1.65.34l-.34.14-.16.08a1.66,1.66,0,0,0-.28.25C481,33.93,464.72,72.79,464.72,72.79s-44.62,1.5-48,15.74,33.36,38.24,33.36,38.24-1.46,7.81-2.61,17.45c3.4-1.07,6.79-2.63,10.18-3.48,14-2,27,6,41,2,17.32-5.77,33.28-7.45,49.56-3.38-.88-7.23-1.78-12.59-1.78-12.59C571.71,100.21,573.83,99.34,574.37,90.73Z"/><path class="cls-3" d="M498.66,142.74c-14,4-27-4-41-2-1.19.3-2.39.69-3.58,1.12-1.87,14.65-3.31,35.09,2.69,38,11.57,5.59,41.27-15.49,43.36-17a3.5,3.5,0,0,1,1.28-1,3.55,3.55,0,0,1,1.53-.4,1.11,1.11,0,0,1,1,.23c.9.75,1.86,1.41,2.81,2.1l.24.13a.62.62,0,0,1,.19.12c30.95,17.89,36.95,17.13,45.18,13.39,5.22-2.37,4-22,2.37-36.09C536.16,134.9,518.29,136.2,498.66,142.74Z"/><path d="M552.16,176.93c-7.93,3.6-13.53,4.65-44.68-13.35a1,1,0,0,0-.28-.17l-.1,0-.69-.49c-.72-.51-1.46-1-2.14-1.61a1.61,1.61,0,0,0-1.4-.35,4.15,4.15,0,0,0-1.68.45,4,4,0,0,0-1.41,1.13c-2,1.41-31.55,22.32-42.79,16.9-2.56-1.23-5.25-7-3.47-27.75.3-3.43.68-6.84,1.09-10l-1.07.38c-1.87,14.77-3.23,35.23,3,38.24a11.24,11.24,0,0,0,4.94,1c13.39,0,36.07-16,38.94-18l.11-.11a3.24,3.24,0,0,1,2.39-1.24h0l.14,0a.61.61,0,0,1,.55.14c.71.59,1.46,1.13,2.19,1.65l.64.46.16.09.22.12.1.07c30.09,17.39,36.72,17.47,45.64,13.42,5.47-2.49,4.31-22.14,2.7-36.36l-1-.35C555.93,156.12,556.87,174.79,552.16,176.93Z"/><path d="M581,89.83c0-.2-.1-.41-.16-.61l-.15-.38a6.38,6.38,0,0,0-.58-.88c-.12-.16-.23-.31-.38-.54-.39-.42-.85-.88-1.51-1.5-9.86-9.25-45-15.55-48.72-16.2-12.07-30.53-20.72-39.69-25.92-42a9.8,9.8,0,0,0-3.09-.42l-.41,0a7.82,7.82,0,0,0-1.79.38l-.15.06-.21.09-.26.14c-.12.09-.21.18-.27.23C487.3,33.5,472.31,68.44,470.68,72.3c-4.36.17-44.83,2.15-48.13,16.12s29.63,36.17,33.29,38.59c-.28,1.55-1.36,7.57-2.3,15l1.07-.38c1.06-8.3,2.26-14.72,2.28-14.81l.06-.32-.28-.19c-.36-.23-36.41-24-33.15-37.7S470.59,73.3,471,73.29h.32l.13-.3c.16-.39,16.31-38.74,26.44-43.92l.15-.11.17-.15.06,0,.25-.11.08,0a6.31,6.31,0,0,1,1.52-.31l.37,0h.27a8.41,8.41,0,0,1,2.43.36c5,2.23,13.44,11.27,25.44,41.7l.11.26.27,0c.39.06,38.5,6.62,48.48,16,.64.6,1.09,1,1.41,1.38a6.15,6.15,0,0,0,.37.52,8.88,8.88,0,0,1,.5.75,1,1,0,0,0,.07.2c0,.19.1.37.14.56l.16.71c-.46,7.14-2.19,8.94-18.31,25.75-2.73,2.84-5.87,6.11-9.48,9.91l-.17.18,0,.24c.59,3.53,1.34,8.65,2,14.28l1,.35c-.83-7.29-1.77-13.16-2-14.54,3.54-3.72,6.62-6.93,9.3-9.73,16.4-17.1,18.12-18.89,18.59-26.45v-.07Z"/><path class="cls-1" d="M2372.87,86.45c-.06-.27-.11-.53-.18-.79s-.09-.39-.15-.58c0,0-.07-.19-.08-.24s0,0,0,0c-.25-.47-.61-.87-.9-1.31s-.93-1-1.48-1.48c-10.21-9.58-48.74-16.12-48.74-16.12-12-30.49-20.58-39.68-25.7-42a8.81,8.81,0,0,0-2.92-.4l-.39,0a6.14,6.14,0,0,0-1.64.34l-.34.14-.16.08a2,2,0,0,0-.28.24c-10.41,5.32-26.68,44.17-26.68,44.17s-44.61,1.5-48,15.75,33.36,38.24,33.36,38.24-9.11,48.49.38,53.07c11.57,5.58,41.27-15.49,43.36-17a3.55,3.55,0,0,1,1.28-1,3.5,3.5,0,0,1,1.52-.39,1.13,1.13,0,0,1,1,.23c.89.75,1.86,1.41,2.8,2.09a1.49,1.49,0,0,0,.25.13.59.59,0,0,1,.18.13c31,17.88,36.95,17.13,45.19,13.39s.37-50.61.37-50.61C2370.21,95.93,2372.33,95.05,2372.87,86.45Z"/><path class="cls-3" d="M2379.17,86.45c-.06-.27-.11-.53-.17-.79l-.15-.58a1.12,1.12,0,0,1-.08-.24l0,0c-.25-.47-.61-.87-.9-1.31s-.92-1-1.48-1.48c-10.21-9.58-48.74-16.12-48.74-16.12-12-30.49-20.58-39.68-25.7-42a8.81,8.81,0,0,0-2.92-.4l-.38,0a6.54,6.54,0,0,0-1.65.34l-.34.14-.16.08a2,2,0,0,0-.28.24c-10.41,5.32-26.67,44.17-26.67,44.17s-44.62,1.5-48,15.75,33.36,38.24,33.36,38.24-9.11,48.49.38,53.07c11.57,5.58,41.27-15.49,43.36-17a3.55,3.55,0,0,1,1.28-1,3.65,3.65,0,0,1,1.53-.39,1.11,1.11,0,0,1,1,.23c.9.75,1.86,1.41,2.8,2.1l.25.12a.8.8,0,0,1,.19.13c30.95,17.88,36.95,17.13,45.18,13.39s.37-50.61.37-50.61C2376.51,95.93,2378.63,95.06,2379.17,86.45Z"/><path d="M2260,177a11.23,11.23,0,0,1-4.93-1c-9.41-4.54-1.56-48.65-.71-53.29-3.66-2.42-36.59-24.67-33.3-38.59s43.78-15.94,48.14-16.11c1.63-3.87,16.62-38.81,26.71-44.09l.27-.24.26-.13.21-.09.15-.06a6.8,6.8,0,0,1,1.79-.38l.41,0a9.52,9.52,0,0,1,3.09.42c5.19,2.32,13.85,11.48,25.92,42,3.77.66,38.86,7,48.71,16.2.66.62,1.13,1.09,1.51,1.51.16.22.27.38.39.53a7.88,7.88,0,0,1,.58.88l.15.38c.06.21.11.42.15.62l.19.86v.07c-.47,7.56-2.19,9.35-18.59,26.44-2.68,2.8-5.76,6-9.3,9.73.67,4.09,7.57,47.14-.7,50.9-8.92,4.06-15.55,4-45.64-13.41l-.1-.07-.23-.12-.15-.09-.64-.46c-.73-.52-1.48-1.06-2.19-1.66a.6.6,0,0,0-.55-.13l-.15,0h0a3.07,3.07,0,0,0-1.3.34,3.27,3.27,0,0,0-1.1.89l-.11.12C2296.06,161,2273.38,177,2260,177Zm39.3-153H2299l-.38,0a6.33,6.33,0,0,0-1.51.31l-.09,0-.24.1-.07,0a1.29,1.29,0,0,0-.16.15l-.15.11C2286.29,30,2270.14,68.31,2270,68.7l-.13.29h-.32c-.44,0-44.27,1.65-47.51,15.36s32.78,37.47,33.15,37.71l.28.18-.06.33c0,.12-2.29,12.25-3.37,24.78-1.78,20.69.9,26.51,3.47,27.75,11.24,5.41,40.81-15.49,42.79-16.9a4.31,4.31,0,0,1,3.09-1.58,1.62,1.62,0,0,1,1.4.35c.68.56,1.42,1.1,2.14,1.61l.69.49.1,0a1.17,1.17,0,0,1,.28.17c31.15,18,36.74,16.95,44.68,13.34,6.48-2.94,2.26-37.14.09-50.07l0-.24.17-.19c3.61-3.79,6.75-7.06,9.48-9.91,16.12-16.8,17.85-18.61,18.31-25.75l-.16-.7c0-.19-.09-.38-.14-.56s-.06-.14-.08-.2a5.75,5.75,0,0,0-.5-.75c-.12-.17-.25-.34-.37-.52-.31-.34-.76-.78-1.4-1.39-10-9.36-48.1-15.92-48.48-16l-.28,0-.1-.27c-12-30.42-20.46-39.47-25.44-41.69A8.44,8.44,0,0,0,2299.28,24Z"/><path class="cls-1" d="M1500,78.31c4-1,9-5,14-7,6.92-2.6,14.59,3.78,21.71,1.66-7.82-1.8-13.76-2.81-13.76-2.81-.37-.94-.74-1.87-1.11-2.78a47.13,47.13,0,0,1-6.84-2.07c-6-3-11,3-15,5-9,4-21-3-31,1,10-4,22,3,31-1,4-2,9-8,15-5a47.13,47.13,0,0,0,6.84,2.07c-11.44-28.27-19.63-37-24.6-39.19a9.26,9.26,0,0,0-2.91-.4l-.39,0a7.23,7.23,0,0,0-1.65.34l-.33.14-.17.08a1.82,1.82,0,0,0-.27.25c-10.41,5.31-26.68,44.17-26.68,44.17s-26.72.9-40.36,7.91C1449.43,83.63,1476.11,86.92,1500,78.31Z"/><path class="cls-1" d="M1573.54,90.73l-.18-.78a5.66,5.66,0,0,0-.15-.59s-.07-.18-.08-.23l0-.06a14.37,14.37,0,0,0-.89-1.31c-.43-.47-.93-1-1.48-1.48-6.21-5.82-22.86-10.51-35-13.31-7.12,2.12-14.79-4.26-21.71-1.66-5,2-10,6-14,7-23.93,8.61-50.61,5.32-76.52,2.39-4,2-6.86,4.61-7.63,7.83-3.37,14.25,33.37,38.24,33.37,38.24s-9.11,48.5.38,53.07c11.57,5.59,41.27-15.49,43.36-17a3.42,3.42,0,0,1,1.28-1,3.51,3.51,0,0,1,1.52-.4,1.11,1.11,0,0,1,1,.23c.9.75,1.86,1.41,2.81,2.1l.25.13a.57.57,0,0,1,.18.12c31,17.89,37,17.13,45.18,13.39s.38-50.61.38-50.61C1570.87,100.21,1573,99.34,1573.54,90.73Z"/><path class="cls-3" d="M1579.84,90.73c-.06-.26-.11-.52-.18-.78s-.09-.39-.15-.59c0,0-.07-.18-.08-.23s0,0,0-.06c-.25-.47-.61-.87-.9-1.31s-.93-1-1.48-1.48c-7-6.52-27-11.63-39.14-14.23-7.7,4.42-16.23-3.6-23.85-.74-5,2-10,6-14,7-22.33,8-47,5.7-71.31,3-3.42,1.94-5.84,4.32-6.53,7.24-3.38,14.25,33.36,38.24,33.36,38.24s-9.11,48.5.38,53.07c11.57,5.59,41.27-15.49,43.36-17a3.42,3.42,0,0,1,1.28-1,3.51,3.51,0,0,1,1.52-.4,1.13,1.13,0,0,1,1,.23c.89.75,1.86,1.41,2.8,2.1l.25.13a.57.57,0,0,1,.18.12c31,17.89,37,17.13,45.19,13.39s.37-50.61.37-50.61C1577.18,100.21,1579.3,99.34,1579.84,90.73Z"/><path d="M1528.65,69.72c-.11-.3-.23-.58-.35-.88l-1.15-.2c.22.57.45,1.13.68,1.71l.1.26.28,0c.12,0,3.73.64,9,1.76a9.42,9.42,0,0,0,1.33-.76C1533.51,70.58,1529.75,69.91,1528.65,69.72Z"/><path d="M1470.2,73.29h.32l.12-.3c0-.06.45-1,1.17-2.69-.4.06-.8.14-1.2.23-.35.82-.62,1.43-.76,1.78-3.46.14-29.6,1.41-41.93,8.89l1.65.19C1442.76,74.31,1469.85,73.3,1470.2,73.29Z"/><path d="M1580.15,89.83c-.05-.2-.1-.41-.16-.61l-.14-.38a5.63,5.63,0,0,0-.59-.88c-.11-.16-.23-.31-.38-.54-.38-.42-.85-.88-1.51-1.5-7-6.56-26.65-11.63-38.85-14.26a9.42,9.42,0,0,1-1.33.76c12,2.56,32.55,7.71,39.5,14.23.64.6,1.09,1,1.4,1.38.12.18.24.35.37.52a5.75,5.75,0,0,1,.5.75c0,.06,0,.13.07.2s.1.37.15.56l.15.71c-.45,7.14-2.18,8.94-18.3,25.75-2.73,2.84-5.87,6.11-9.48,9.91l-.17.18,0,.24c2.17,12.93,6.39,47.13-.09,50.08-7.94,3.6-13.53,4.65-44.68-13.35a1.17,1.17,0,0,0-.28-.17l-.1,0-.7-.49c-.71-.51-1.45-1-2.13-1.61a1.64,1.64,0,0,0-1.41-.35,4.05,4.05,0,0,0-1.67.45,3.88,3.88,0,0,0-1.41,1.13c-2,1.41-31.55,22.32-42.8,16.9-2.56-1.23-5.24-7-3.46-27.75,1.08-12.53,3.34-24.65,3.36-24.78l.06-.32-.27-.19c-.37-.23-36.41-24-33.16-37.7.7-3,3.28-5.34,6.89-7.27l-1.65-.19c-3.23,2-5.52,4.33-6.21,7.23-3.3,13.92,29.64,36.17,33.3,38.59-.85,4.63-8.7,48.75.71,53.28a11.23,11.23,0,0,0,4.93,1c13.4,0,36.08-16,38.94-18l.11-.11a3,3,0,0,1,1.1-.9,3,3,0,0,1,1.3-.34h0l.15,0a.62.62,0,0,1,.55.14c.71.59,1.46,1.13,2.19,1.65l.64.46.15.09.23.12.09.07c30.1,17.39,36.72,17.47,45.64,13.42,8.28-3.76,1.38-46.82.7-50.9,3.54-3.72,6.62-6.93,9.31-9.73,16.4-17.1,18.11-18.89,18.59-26.45v-.07Z"/><path d="M1497.09,29.06l.14-.11.17-.15.07,0,.24-.11.09,0a6.23,6.23,0,0,1,1.51-.31l.38,0h.26a8.31,8.31,0,0,1,2.43.36c4.89,2.19,13.13,10.94,24.77,40l1.15.2C1516.42,39,1507.88,30,1502.73,27.71a9.76,9.76,0,0,0-3.09-.42l-.4,0a7.91,7.91,0,0,0-1.8.38l-.14.06-.21.09-.26.14c-.12.09-.21.18-.27.23-9.18,4.81-22.4,34.13-26,42.31.4-.09.8-.17,1.2-.23C1475.71,61.42,1488.54,33.43,1497.09,29.06Z"/><path class="cls-1" d="M1973.2,90.73c0-.26-.11-.52-.17-.78s-.09-.4-.15-.59a1.23,1.23,0,0,1-.08-.23l0-.06c-.25-.47-.61-.87-.89-1.31-.43-.47-.93-1-1.49-1.48-10.21-9.57-48.73-16.12-48.73-16.12-1.5-3.8-3-7.27-4.34-10.44-14.08,2.81-28.42-1.41-44-1.41,15.55,0,29.89,4.22,44,1.41-9.77-22.23-16.89-29.52-21.37-31.53a9.32,9.32,0,0,0-2.92-.4l-.38,0a7.12,7.12,0,0,0-1.65.34l-.34.14-.16.08a2.42,2.42,0,0,0-.28.25c-10.41,5.31-26.67,44.17-26.67,44.17s-44.62,1.5-48,15.74,33.37,38.24,33.37,38.24-9.12,48.5.37,53.07c11.57,5.59,41.27-15.49,43.36-17a3.5,3.5,0,0,1,1.28-1,3.55,3.55,0,0,1,1.53-.4,1.11,1.11,0,0,1,1,.23c.9.75,1.86,1.41,2.81,2.1l.24.13a.62.62,0,0,1,.19.12c31,17.89,37,17.13,45.18,13.39s.37-50.61.37-50.61C1970.54,100.21,1972.66,99.34,1973.2,90.73Z"/><path class="cls-3" d="M1979.5,90.73c0-.26-.11-.52-.17-.78s-.09-.39-.15-.59a1.23,1.23,0,0,1-.08-.23l0-.06c-.25-.47-.6-.87-.89-1.31s-.93-1-1.48-1.48C1966.49,76.71,1928,70.16,1928,70.16c-1.75-4.43-3.42-8.4-5-12-15,5.23-30.08.73-46.5.18-3.9,8-6.59,14.43-6.59,14.43s-44.61,1.5-48,15.74,33.37,38.24,33.37,38.24-9.11,48.5.37,53.07c11.57,5.59,41.27-15.49,43.37-17a3.35,3.35,0,0,1,1.28-1,3.47,3.47,0,0,1,1.52-.4,1.11,1.11,0,0,1,1,.23c.9.75,1.86,1.41,2.81,2.1l.25.13a.57.57,0,0,1,.18.12c31,17.89,37,17.13,45.18,13.39s.38-50.61.38-50.61C1976.84,100.21,1979,99.34,1979.5,90.73Z"/><path d="M1979.82,89.83c0-.2-.1-.41-.16-.61l-.15-.38a6.38,6.38,0,0,0-.58-.88c-.11-.16-.23-.31-.38-.54-.39-.42-.85-.88-1.51-1.5-9.86-9.25-45-15.55-48.72-16.2-1.71-4.32-3.35-8.2-4.92-11.71l-.94.34c1.61,3.58,3.28,7.55,5,12l.11.26.27,0c.39.06,38.5,6.62,48.48,16,.64.6,1.09,1,1.41,1.38a6.15,6.15,0,0,0,.37.52,7,7,0,0,1,.5.75c0,.06,0,.13.07.2s.1.37.14.56l.16.71c-.46,7.14-2.19,8.94-18.31,25.75-2.73,2.84-5.86,6.11-9.48,9.91l-.17.18,0,.24c2.18,12.93,6.39,47.13-.09,50.08-7.93,3.6-13.53,4.65-44.68-13.35a1,1,0,0,0-.28-.17l-.09,0-.7-.49c-.72-.51-1.46-1-2.14-1.61a1.61,1.61,0,0,0-1.4-.35,4.15,4.15,0,0,0-1.68.45,4,4,0,0,0-1.41,1.13c-2,1.41-31.55,22.32-42.79,16.9-2.56-1.23-5.24-7-3.46-27.75,1.07-12.53,3.34-24.65,3.36-24.78l.06-.32-.28-.19c-.36-.23-36.41-24-33.15-37.7s47.07-15.35,47.52-15.36h.32l.12-.3c.07-.16,2.79-6.64,6.69-14.6-.37,0-.75,0-1.12,0-3.33,6.85-5.76,12.52-6.37,13.95-4.36.17-44.83,2.15-48.13,16.12s29.64,36.17,33.3,38.59c-.86,4.63-8.7,48.75.71,53.28a11.17,11.17,0,0,0,4.93,1c13.4,0,36.07-16,38.94-18l.11-.11a3.24,3.24,0,0,1,2.39-1.24h0l.14,0a.6.6,0,0,1,.55.14c.71.59,1.47,1.13,2.2,1.65l.63.46.16.09.23.12.09.07c30.09,17.39,36.72,17.47,45.64,13.42,8.27-3.76,1.37-46.82.7-50.9,3.54-3.72,6.62-6.93,9.3-9.73,16.41-17.1,18.12-18.89,18.59-26.45v-.07Z"/><path d="M1896.75,29.06l.15-.11.17-.15.06,0,.25-.11.08,0a6.31,6.31,0,0,1,1.52-.31l.37,0h.27a8.41,8.41,0,0,1,2.43.36c4.26,1.9,11,8.79,20.41,29.7l.94-.34c-9.53-21.26-16.54-28.3-21-30.3a9.8,9.8,0,0,0-3.09-.42l-.4,0a7.79,7.79,0,0,0-1.8.38l-.14.06-.22.09-.25.14a1.9,1.9,0,0,0-.27.23c-6.37,3.33-14.67,18.45-20.35,30.14.37,0,.75,0,1.12,0C1882.65,46.82,1890.76,32.13,1896.75,29.06Z"/><path class="cls-1" d="M946.69,114.53a17.79,17.79,0,0,0,9.7,1.49C972,99.75,973.58,98,974,90.73l-.18-.78a5.66,5.66,0,0,0-.15-.59s-.07-.18-.08-.23l0-.06a14.37,14.37,0,0,0-.89-1.31c-.43-.47-.93-1-1.48-1.48C961,76.71,922.49,70.16,922.49,70.16c-12-30.49-20.58-39.68-25.7-42a9.36,9.36,0,0,0-2.92-.4l-.39,0a7,7,0,0,0-1.64.34l-.34.14-.17.08a1.82,1.82,0,0,0-.27.25c-10.41,5.31-26.68,44.17-26.68,44.17s-44.61,1.5-48,15.74C814.64,96,823.79,106.05,833,114,870,107.65,909.78,93.16,946.69,114.53Z"/><path class="cls-1" d="M956.39,116a17.79,17.79,0,0,1-9.7-1.49C909.78,93.16,870,107.65,833,114a174.67,174.67,0,0,0,16.81,12.78s-9.11,48.5.38,53.07c11.57,5.59,41.27-15.49,43.36-17a3.42,3.42,0,0,1,1.28-1,3.51,3.51,0,0,1,1.52-.4,1.11,1.11,0,0,1,1,.23c.9.75,1.87,1.41,2.81,2.1l.25.13a.57.57,0,0,1,.18.12c31,17.89,37,17.13,45.18,13.39s.38-50.61.38-50.61C950.08,122.59,953.48,119.06,956.39,116Z"/><path class="cls-3" d="M946.69,114.53c-35.19-20.37-72.94-8.16-108.51-1.48a174,174,0,0,0,17.88,13.72s-9.11,48.5.38,53.07c11.57,5.59,41.27-15.49,43.36-17a3.42,3.42,0,0,1,1.28-1,3.51,3.51,0,0,1,1.52-.4,1.13,1.13,0,0,1,1,.23c.89.75,1.86,1.41,2.8,2.1l.25.13a.57.57,0,0,1,.18.12c31,17.89,37,17.13,45.19,13.39s.37-50.61.37-50.61c4.86-5.11,8.86-9.26,12.16-12.71C958.36,116.39,951.73,117.05,946.69,114.53Z"/><path d="M961.53,116.52c-2.73,2.84-5.87,6.11-9.48,9.91l-.17.18,0,.24c2.17,12.93,6.39,47.13-.09,50.08-7.94,3.6-13.53,4.65-44.68-13.35a1.17,1.17,0,0,0-.28-.17l-.1,0-.7-.49c-.71-.51-1.45-1-2.13-1.61a1.62,1.62,0,0,0-1.4-.35,4.1,4.1,0,0,0-1.68.45,3.88,3.88,0,0,0-1.41,1.13c-2,1.41-31.55,22.32-42.8,16.9-2.56-1.23-5.24-7-3.46-27.75,1.08-12.53,3.34-24.65,3.36-24.78l.07-.32-.28-.19a175.23,175.23,0,0,1-17.52-13.42l-1.29.24a171.69,171.69,0,0,0,18,13.84c-.85,4.63-8.7,48.75.71,53.28a11.23,11.23,0,0,0,4.93,1c13.4,0,36.08-16,38.94-18l.11-.11a3.18,3.18,0,0,1,1.1-.9,3.07,3.07,0,0,1,1.3-.34h0l.15,0a.62.62,0,0,1,.55.14c.71.59,1.46,1.13,2.19,1.65l.64.46.15.09.23.12.09.07c30.1,17.39,36.72,17.47,45.64,13.42,8.28-3.76,1.38-46.82.71-50.9,3.53-3.72,6.61-6.93,9.3-9.73l3.44-3.59q-1.07.43-2.16.81Z"/><path d="M980.84,90.69l-.19-.86c0-.2-.1-.41-.16-.61l-.14-.38a5.63,5.63,0,0,0-.59-.88l-.38-.54c-.38-.42-.85-.88-1.51-1.5-9.86-9.25-44.94-15.55-48.72-16.2-12.06-30.53-20.72-39.69-25.92-42a9.72,9.72,0,0,0-3.09-.42l-.4,0a7.71,7.71,0,0,0-1.79.38l-.15.06-.21.09-.26.14c-.12.09-.21.18-.27.23C887,33.5,872,68.44,870.35,72.3c-4.37.17-44.83,2.15-48.14,16.12-1.73,7.31,6.54,16.92,15.32,24.75l1.29-.24c-8.8-7.75-17.29-17.3-15.64-24.28,3.25-13.72,47.08-15.35,47.52-15.36H871l.12-.3c.17-.39,16.32-38.74,26.45-43.92l.14-.11.17-.15.07,0,.24-.11.09,0a6.33,6.33,0,0,1,1.51-.31l.38,0h.26a8.31,8.31,0,0,1,2.43.36c5,2.23,13.45,11.27,25.45,41.7l.1.26.28,0c.38.06,38.5,6.62,48.48,16,.64.6,1.09,1,1.4,1.38.12.18.25.35.37.52a5.75,5.75,0,0,1,.5.75c0,.06,0,.13.08.2s.09.37.14.56l.16.71c-.44,6.83-2.05,8.79-16.31,23.66q1.1-.37,2.16-.81c13.2-13.8,14.71-15.86,15.15-22.86Z"/></svg>
