<svg xmlns="http://www.w3.org/2000/svg" xmlns:xlink="http://www.w3.org/1999/xlink" width="1920" height="1080" viewBox="0 0 1920 1080"><defs><style>.cls-1{fill:url(#radial-gradient);}.cls-2{fill:#fff;}.cls-3{fill:#ffa1d3;}.cls-4{fill:#ffab5f;}.cls-5{fill:#7ec479;}.cls-6{fill:#ff73a0;}.cls-14,.cls-7{fill:#e36ea6;}.cls-8,.cls-9{fill:#f5e0cd;}.cls-14,.cls-17,.cls-19,.cls-22,.cls-24,.cls-9{stroke:#000;stroke-miterlimit:10;}.cls-10{fill:#9b74d0;}.cls-11{fill:none;}.cls-12{fill:#231f20;}.cls-13{fill:#f5db12;}.cls-15{fill:#fcda33;}.cls-16{fill:#b08874;}.cls-17{fill:#9c7761;}.cls-18{fill:#ff74c2;}.cls-19{fill:#ff8d0a;}.cls-20{fill:#74f1ff;}.cls-21{fill:#9fe8ff;}.cls-22,.cls-23{fill:#008ab2;}.cls-24{fill:#b1deff;}</style><radialGradient id="radial-gradient" cx="960" cy="541.31" r="778.85" gradientUnits="userSpaceOnUse"><stop offset="0" stop-color="#85b4e8"/><stop offset="0.36" stop-color="#aae3ff"/><stop offset="1" stop-color="#85b4e8"/></radialGradient></defs><g id="Layer_2" data-name="Layer 2"><rect class="cls-1" y="1.31" width="1920" height="1080"/><rect x="1324.61" y="254.42" width="435.71" height="1239.89" rx="12.45" transform="translate(420.74 -498.75) rotate(21.21)"/><rect x="914.87" y="2.67" width="435.71" height="1239.89" rx="12.45" transform="translate(-99.21 231.39) rotate(-11.18)"/><rect class="cls-2" x="925.63" y="8.14" width="435.71" height="1239.89" rx="7.67" transform="translate(-100.06 233.58) rotate(-11.18)"/><rect class="cls-2" x="1329.61" y="266.42" width="435.71" height="1239.89" rx="11.8" transform="translate(425.42 -499.74) rotate(21.21)"/><rect class="cls-3" x="1294.43" y="921.85" width="378.1" height="295.91" rx="6.55" transform="translate(487.44 -464.17) rotate(21.21)"/><rect class="cls-4" x="1406.83" y="627.76" width="378.1" height="295.91" rx="8.27" transform="translate(388.67 -524.75) rotate(21.21)"/><rect class="cls-3" x="872.2" y="63.96" width="378.1" height="295.91" rx="7.53" transform="translate(-20.95 209.74) rotate(-11.18)"/><rect class="cls-5" x="1521.94" y="331.09" width="378.1" height="295.91" rx="8.56" transform="translate(289.15 -586.48) rotate(21.21)"/><rect class="cls-6" x="935.67" y="385.16" width="378.1" height="295.91" rx="8.83" transform="translate(-82.01 228.14) rotate(-11.18)"/><rect class="cls-7" x="1000.56" y="713.54" width="378.1" height="295.91" rx="10.27" transform="translate(-144.43 246.94) rotate(-11.18)"/><path class="cls-8" d="M1072.84,269.85s-6.42,27.44-6.72,31.23-4.37,13.43-5.83,39.7,12.55,27.15,12.55,27.15,15.47.87,15.76-15.18,0-40.28,0-40.28h10.22l3.79,22.76s8.17,39.12,21.89,41.75,24.52,1.16,22.48-14.6-15.76-44.66-15.76-44.66l-12.85-36.19-2.62-15.77-43.2,2.05Z"/><path d="M1134,378.4a51.77,51.77,0,0,1-9.55-1.06c-13.8-2.64-21.85-40.42-22.19-42l-3.74-22.47H1089c0,3.15.26,25.13,0,39.91-.09,4.94-1.61,8.81-4.51,11.5-4.73,4.39-11.37,4.07-11.65,4.05s-14.37-1.2-12.91-27.54c1.08-19.38,3.59-29.77,4.95-35.35a33.27,33.27,0,0,0,.89-4.35c.29-3.73,6.27-29.37,6.71-31.23l-.34-2.38,43.94-2.08,2.68,16.09,12.83,36.14c.12.25,13.75,29.09,15.78,44.73.77,5.93-.25,10.26-3,12.88C1142.05,377.34,1138.68,378.4,1134,378.4Zm-45.76-66.31h10.91l3.85,23.08c.08.38,8.28,38.89,21.59,41.44,9.74,1.86,15.84,1.24,19.23-1.95,2.64-2.47,3.55-6.48,2.81-12.23-2-15.52-15.6-44.26-15.73-44.55L1118,281.65l-2.59-15.49-42.45,2,.24,1.71,0,.07c-.06.27-6.42,27.45-6.7,31.17a32.84,32.84,0,0,1-.92,4.48c-1.34,5.55-3.85,15.9-4.92,35.21-1.42,25.55,12.07,26.74,12.2,26.75s6.62.32,11.11-3.85c2.74-2.55,4.17-6.23,4.26-11,.28-15.86,0-40,0-40.27Z"/><ellipse class="cls-9" cx="1095.26" cy="184.37" rx="111.91" ry="89.71"/><circle class="cls-2" cx="1156.15" cy="179.41" r="50.61"/><path d="M1156.15,230.43a51,51,0,1,1,51-51A51.08,51.08,0,0,1,1156.15,230.43Zm0-101.21a50.19,50.19,0,1,0,50.19,50.19A50.25,50.25,0,0,0,1156.15,129.22Z"/><circle class="cls-10" cx="1153.58" cy="181.07" r="47.06"/><circle cx="1145.61" cy="186.14" r="38.04"/><circle class="cls-2" cx="1127.51" cy="193.38" r="13.97"/><circle class="cls-2" cx="1034.37" cy="181.07" r="50.61"/><path d="M984.18,181.07a50.09,50.09,0,0,1,17.73-38.25c-.08-.29-.16-.58-.25-.86a50.91,50.91,0,0,0-2.32,76.15l.61-.57A50,50,0,0,1,984.18,181.07Z"/><path d="M1083.38,166.91l-.89-.12a48.36,48.36,0,0,1,1.26,5.25,50.16,50.16,0,0,1-83.8,45.5l-.61.57a51,51,0,0,0,84-51.2Z"/><path d="M1006.87,139.1a50.15,50.15,0,0,1,75.62,27.69l.89.12A51,51,0,0,0,1001.66,142c.09.28.17.57.25.86A51.3,51.3,0,0,1,1006.87,139.1Z"/><circle class="cls-10" cx="1036.94" cy="182.72" r="47.06"/><circle cx="1044.91" cy="187.8" r="38.04"/><circle class="cls-2" cx="1060.56" cy="195.04" r="13.97"/><path d="M1196.5,217.6s-14.62-7.72-42-10.12-43,22.26-43,22.26l40.74,16.52Z"/><path class="cls-8" d="M1196.5,218.6s-14.62-7.72-42-10.12-43,22.26-43,22.26l40.74,16.52Z"/><line class="cls-11" x1="1081.3" y1="161.03" x2="1087.82" y2="164.65"/><path d="M991.31,213.28s15.55-5.92,43.27-5,40.4,27.24,40.4,27.24L1032.24,247Z"/><path class="cls-8" d="M991.31,214s15.52-5.91,43.19-5,40.32,27.23,40.32,27.23l-42.66,11.54Z"/><path class="cls-8" d="M1068.76,287s-28.9-29.32-32.25-40.08c-3.42-11-5.66-16.58-1.17-25.95s17.62,2.32,17.62,2.32,10.87,15.36,12.5,23.11,9,29.18,9,29.18Z"/><path d="M1068.89,287.83l-.49-.49c-1.18-1.2-29-29.53-32.37-40.29l-.61-2c-3.11-9.92-4.83-15.38-.53-24.36a6.29,6.29,0,0,1,4.51-3.79c5.81-1.17,13.56,5.67,13.89,6l.07.08c.45.63,11,15.54,12.59,23.3s8.92,28.91,9,29.12l.07.2Zm-28.09-70a6.05,6.05,0,0,0-1.21.11,5.36,5.36,0,0,0-3.8,3.24c-4.13,8.63-2.45,14,.59,23.63l.61,2c3,9.76,27.82,35.46,31.64,39.37l5.3-10.59c-.75-2.19-7.42-21.76-9-29.05s-11.72-21.92-12.39-22.87C1052,223.12,1045.78,217.82,1040.8,217.82Z"/><path class="cls-8" d="M1117.14,272.48s21-23.14,24.57-27.71c0,0,8.26-17.3,12-24.37s11.6-5.31,11.6-5.31,6.68,1.77,5.11,12.38a57.43,57.43,0,0,1-6.88,19.26s-9.83,13-18.08,16.12-25,13.95-26.93,13.76S1117.14,272.48,1117.14,272.48Z"/><path d="M1118.56,277.11h-.09a1.73,1.73,0,0,1-1.24-.69c-1-1.23-.62-3.72-.58-4l0-.15.1-.12c.21-.23,21-23,24.51-27.64.49-1,8.38-17.52,12-24.34,3.87-7.33,12.06-5.58,12.14-5.56s7.12,2,5.5,13a58.07,58.07,0,0,1-7,19.44c-.43.58-10,13.17-18.33,16.33-4.24,1.61-10.66,5.23-16.33,8.42C1123.08,275.24,1119.71,277.11,1118.56,277.11Zm-.94-4.41c-.09.74-.15,2.39.4,3.1a.74.74,0,0,0,.55.31h0c.9,0,5.83-2.78,10.2-5.24,5.7-3.21,12.16-6.85,16.47-8.49,8-3.06,17.76-15.82,17.86-15.95a57.58,57.58,0,0,0,6.78-19c1.49-10.06-4.68-11.81-4.74-11.83-.29-.06-7.52-1.58-11,5.06-3.69,7-11.89,24.18-12,24.35l-.05.09C1138.7,249.5,1119.41,270.73,1117.62,272.7Z"/><path d="M1084.38,220.65a34.9,34.9,0,0,0,1.52,3.5c.63,1.25,1.09,2.54,1.81,3.74,1.14,1.9,2.13,4.12,3.86,5.24s4.51.75,6.47.14c2.55-.81,4.14-3.29,5.41-5.64s2.35-4.54,3.39-6.87a.42.42,0,0,1,.79.25,28,28,0,0,1-3,9.05c-2.1,3.74-5.8,6.83-10.07,7.15a6.92,6.92,0,0,1-4.12-.84,10.38,10.38,0,0,1-3.39-4.27,45.94,45.94,0,0,1-3.84-8.53c-.38-1.28-.26.05-.38-1.28,0-.51.78-1.8,1.75-1"/><path class="cls-10" d="M1073.08,279.46h44.48l-.44-3.21s-.62-.5-.56-3.35c0,0-17.38,1.83-19.85,1.77s-20.48-.73-22.62-1.77l.85,2.51Z"/><polygon points="1068.64 290.08 1121.01 290.08 1118.02 281.65 1117.56 279.46 1073.08 279.46 1069.32 286.99 1068.64 290.08"/><polygon class="cls-10" points="1062.34 323.82 1133.61 323.81 1130.94 317.81 1120.95 290.07 1068.58 290.07 1067.38 295.8 1066.74 299.38 1066.44 301.11 1063.29 316.08 1062.12 323.82 1062.34 323.82"/><polygon points="1111.17 360.86 1146.47 361.47 1146.86 364.22 1120.71 363.59 1112.45 363.59 1111.17 360.86"/><polygon points="1060.67 350.45 1088.4 351.19 1088.32 353.95 1068.15 353.46 1061.21 353.66 1060.67 350.45"/><path d="M1061.21,353.32l27,.27s.31,13.08-13.64,14.17C1074.57,367.76,1064.76,369,1061.21,353.32Z"/><path d="M1112.29,363.25l34.57,1s2.88,12.28-11.07,13.37a23.58,23.58,0,0,1-12.53-1.36A20.11,20.11,0,0,1,1112.29,363.25Z"/><path class="cls-8" d="M1070.13,353.32s1.28,5,4.49,4.61,3.58-4.61,3.58-4.61Z"/><path class="cls-8" d="M1125.85,362.9s2.49,5.49,5.71,5.32,4.89-5.32,4.89-5.32Z"/><polygon points="1062.09 323.67 1133.61 323.81 1133.77 324.16 1062.09 324.16 1062.09 323.67"/><path d="M1046.59,103.57a55.25,55.25,0,0,1,16.9-6.33c7.07-1,12.78-1.75,19.92.91.56,1.77,2.31,1.26,2.53,3.26,2.91,25.69-23.7,60.83-59.43,78.49-22.49,11.11-43.23,12.65-56.24,5.86,9.17-7.71,12.91-23.5,20.69-37.51a70,70,0,0,1,17.55-20.62c5.55-4.16,9.06-7.09,12.78-10.22,5.17-4.35,7-4.72,15.65-9.62C1038.14,107.11,1045.56,104.45,1046.59,103.57Z"/><path d="M1111.11,95.88c-15.21-4.28-31.88,1.24-42,9,0,2-1.95,2-1.51,4.15,5.74,27.5,45.1,55.74,87.92,63.07,27,4.62,48.84-.15,59.94-11.17-12.06-5.17-17.16-22.47-29.94-34.59-7.23-6.85-13.85-13.76-22.06-16.77-7.13-2.61-12.69-5.71-17.59-7.82-6.81-2.91-9-2.6-19.5-5C1124.89,96.38,1095.33,92.21,1111.11,95.88Z"/><path d="M1086.28,112c5.24-1,10.39-4.86,13.26-8.35-.13-.52,5.32-4.72,5-5.21-3.5-6.39-22.87-4.26-37.35-.08-9.11,2.63-21,4.68-24,9.15,4.26-.36,11.92,5.76,16.82,7.11,2.78.77,5.36,1.63,8.23,1.25,2.49-.33,4.5-.31,6.23-.46,2.4-.2,3.09-.59,6.69-1.46C1081.73,113.81,1091.68,110.7,1086.28,112Z"/><ellipse cx="1187.19" cy="108.02" rx="28.64" ry="33.65" transform="translate(975.27 1281.13) rotate(-84.96)"/><ellipse cx="992.63" cy="118.45" rx="28.64" ry="33.65" transform="translate(787.41 1096.84) rotate(-84.96)"/><path class="cls-10" d="M991.66,149.09s33.77-11.67,35.63-35.47c1-12.64-11.6,19.21-27.42,25.7C987.25,144.49,984.89,150.93,991.66,149.09Z"/><path class="cls-10" d="M1192.44,139.32s-34.89-7.74-39.44-31.18c-2.42-12.44,13.7,17.77,30.16,22.41C1196.29,134.25,1199.37,140.38,1192.44,139.32Z"/><path class="cls-12" d="M882.28,387.8c-.18-.87-.36-1.74-.55-2.61-.15-.66-.3-1.31-.48-1.95a7.33,7.33,0,0,1-.26-.79l-.09-.19c-.79-1.56-1.93-2.89-2.85-4.36-1.37-1.56-3-3.19-4.74-4.93-32.6-31.92-155.66-53.73-155.66-53.73C679.25,217.6,651.91,187,635.55,179.33a27.66,27.66,0,0,0-9.32-1.34l-1.23.07a21.11,21.11,0,0,0-5.26,1.13c-.36.16-.71.34-1.08.48l-.52.26a7.35,7.35,0,0,0-.88.82C584,198.47,532.06,328,532.06,328s-142.49,5-153.27,52.49S485.36,507.94,485.36,507.94s-29.11,161.66,1.19,176.92c37,18.61,131.82-51.64,138.5-56.64a11.31,11.31,0,0,1,4.09-3.49,10.94,10.94,0,0,1,4.87-1.31,3.39,3.39,0,0,1,3.23.77c2.87,2.5,5.94,4.7,9,7,.27.14.52.31.79.43a2.3,2.3,0,0,1,.59.41c98.87,59.62,118,57.12,144.31,44.65s1.2-168.72,1.2-168.72C873.79,419.4,880.57,416.5,882.28,387.8Z"/><path class="cls-13" d="M902.41,387.8c-.18-.87-.36-1.74-.55-2.61-.15-.65-.3-1.31-.48-1.95a5.93,5.93,0,0,1-.26-.78l-.09-.19c-.79-1.57-1.93-2.89-2.86-4.37-1.36-1.56-3-3.19-4.73-4.92-32.6-31.93-155.66-53.74-155.66-53.74C699.38,217.6,672,187,655.68,179.33a27.7,27.7,0,0,0-9.32-1.34l-1.23.07a21,21,0,0,0-5.26,1.13c-.36.16-.71.35-1.08.48l-.52.26a7.35,7.35,0,0,0-.88.82C604.14,198.47,552.18,328,552.18,328s-142.49,5-153.26,52.49S505.49,508,505.49,508s-29.11,161.65,1.19,176.91c37,18.61,131.82-51.63,138.5-56.64a11.41,11.41,0,0,1,4.09-3.49,11,11,0,0,1,4.86-1.31,3.4,3.4,0,0,1,3.24.78c2.86,2.49,5.94,4.69,9,7,.27.13.52.3.79.43a1.89,1.89,0,0,1,.59.41c98.87,59.62,118,57.11,144.31,44.64S813.22,508,813.22,508C893.91,419.4,900.69,416.5,902.41,387.8Z"/><path d="M521.74,689.65A34.64,34.64,0,0,1,506,686.36c-30.05-15.13-5-162.19-2.27-177.63C492,500.66,386.84,426.49,397.37,380.09c10.56-46.56,139.8-53.15,153.74-53.73,5.21-12.88,53.09-129.35,85.32-147a10.18,10.18,0,0,1,.86-.77l.83-.46c.32-.12.5-.21.67-.29l.47-.21A22,22,0,0,1,645,176.4l1.29-.07a29.1,29.1,0,0,1,9.87,1.41c16.6,7.73,44.24,38.25,82.78,140,12.06,2.18,124.12,23.17,155.6,54,2.11,2.07,3.6,3.61,4.82,5,.5.74.87,1.26,1.23,1.77a23.2,23.2,0,0,1,1.87,2.95l.46,1.26c.19.69.35,1.37.51,2.05l.6,2.86v.23c-1.51,25.21-7,31.17-59.37,88.16-8.58,9.33-18.42,20-29.72,32.43,2.15,13.61,24.18,157.15-2.24,169.69-28.49,13.51-49.65,13.24-145.77-44.72l-.3-.23-.73-.41-.49-.3-2-1.53c-2.33-1.74-4.74-3.54-7-5.52a1.89,1.89,0,0,0-1.76-.45l-.46.07h0a9.22,9.22,0,0,0-4.14,1.14,9.64,9.64,0,0,0-3.51,3l-.36.37C637,636.43,564.54,689.65,521.74,689.65Zm125.53-510-.85,0-1.2.06a20,20,0,0,0-4.84,1.05l-.27.13c-.26.12-.51.24-.78.34l-.21.12a5.3,5.3,0,0,0-.54.5l-.46.37c-32.36,17.24-84,145.11-84.46,146.4l-.4,1-1,0c-1.42.05-141.39,5.49-151.77,51.21S505.2,505.76,506.36,506.55l.89.61-.2,1.1c-.07.4-7.3,40.83-10.74,82.59-5.68,69,2.88,88.39,11.07,92.51,35.9,18,130.35-51.63,136.67-56.34a13,13,0,0,1,4.51-3.78,12.58,12.58,0,0,1,5.36-1.48,5,5,0,0,1,4.47,1.16c2.18,1.89,4.54,3.66,6.83,5.36l2.22,1.63.31.17a3.22,3.22,0,0,1,.9.58c99.49,60,117.36,56.5,142.71,44.48,20.69-9.82,7.22-123.82.28-166.92l-.13-.82.55-.6c11.53-12.66,21.56-23.56,30.27-33.05,51.49-56,57-62,58.47-85.82l-.5-2.36c-.14-.63-.28-1.25-.45-1.87a5.18,5.18,0,0,1-.23-.65,22.52,22.52,0,0,0-1.6-2.51c-.41-.57-.81-1.14-1.18-1.73-1-1.12-2.44-2.61-4.49-4.62C860.47,343,738.74,321.1,737.51,320.88l-.88-.15-.33-.88C698,218.43,671,188.28,655,180.86A26.14,26.14,0,0,0,647.27,179.64Z"/><path d="M159.15,375.46h16a7.7,7.7,0,0,1,7.7,7.7v20.19a7.7,7.7,0,0,0,7.7,7.7h18.94a7.7,7.7,0,0,0,7.7-7.7V383.16a7.7,7.7,0,0,1,7.7-7.7h16.16a7.71,7.71,0,0,1,7.71,7.7v86.3a7.71,7.71,0,0,1-7.71,7.7H224.92a7.7,7.7,0,0,1-7.7-7.7V443.72a7.7,7.7,0,0,0-7.7-7.7H190.58a7.7,7.7,0,0,0-7.7,7.7v25.74a7.7,7.7,0,0,1-7.7,7.7h-16a7.7,7.7,0,0,1-7.7-7.7v-86.3A7.7,7.7,0,0,1,159.15,375.46Z"/><path d="M278.62,375.46h16.09a7.7,7.7,0,0,1,7.7,7.7v86.3a7.7,7.7,0,0,1-7.7,7.7H278.62a7.7,7.7,0,0,1-7.7-7.7v-86.3A7.7,7.7,0,0,1,278.62,375.46Z"/><path d="M325.38,383.16a7.7,7.7,0,0,1,7.7-7.7h39q13.8,0,22.3,3.74A36.29,36.29,0,0,1,408.42,390a44.56,44.56,0,0,1,8.05,16.3A75.9,75.9,0,0,1,419,426q0,16.31-3.71,25.29A41.76,41.76,0,0,1,405,466.3a33.56,33.56,0,0,1-14.15,8.09,72.9,72.9,0,0,1-18.73,2.77h-39a7.7,7.7,0,0,1-7.7-7.7Zm31.42,23v40.17a7.7,7.7,0,0,0,7.7,7.7h0q9.86,0,14-2.19a14.8,14.8,0,0,0,6.52-7.63q2.35-5.44,2.36-17.65,0-16.17-5.27-22.13t-17.49-6h-.14A7.7,7.7,0,0,0,356.8,406.19Z"/><path d="M443.11,375.46h68.82a7.7,7.7,0,0,1,7.7,7.7v6.31a7.7,7.7,0,0,1-7.7,7.7H474.6a7.7,7.7,0,0,0-7.7,7.7v.77a7.7,7.7,0,0,0,7.7,7.7h33.51a7.7,7.7,0,0,1,7.7,7.7v5.34a7.7,7.7,0,0,1-7.7,7.7H474.6a7.7,7.7,0,0,0-7.7,7.7v4.65a7.7,7.7,0,0,0,7.7,7.7h38.85a7.7,7.7,0,0,1,7.7,7.7v7.63a7.7,7.7,0,0,1-7.7,7.7H443.11a7.7,7.7,0,0,1-7.7-7.7v-86.3A7.7,7.7,0,0,1,443.11,375.46Z"/><path d="M142.27,587.32H118.06a7.71,7.71,0,0,0-7.39,5.52l-1.7,5.75a7.7,7.7,0,0,1-7.38,5.52H86.38a7.7,7.7,0,0,1-7.21-10.41l32.44-86.3a7.68,7.68,0,0,1,7.2-5h23.62a7.7,7.7,0,0,1,7.21,5l32.43,86.3a7.7,7.7,0,0,1-7.21,10.41H158.78a7.71,7.71,0,0,1-7.37-5.47l-1.77-5.85A7.71,7.71,0,0,0,142.27,587.32Zm-3.87-32-.76-2.5a7.7,7.7,0,0,0-14.73,0l-.76,2.5a7.7,7.7,0,0,0,7.37,9.94H131A7.7,7.7,0,0,0,138.4,555.37Z"/><path d="M203.88,502.41h17.57a7.72,7.72,0,0,1,6.37,3.36L249.75,538a7.71,7.71,0,0,0,14.07-4.34V510.11a7.7,7.7,0,0,1,7.7-7.7h14.22a7.7,7.7,0,0,1,7.7,7.7v86.3a7.7,7.7,0,0,1-7.7,7.7H267.89a7.69,7.69,0,0,1-6.36-3.36l-21.74-31.86a7.7,7.7,0,0,0-14.06,4.34v23.18a7.7,7.7,0,0,1-7.7,7.7H203.88a7.7,7.7,0,0,1-7.7-7.7v-86.3A7.69,7.69,0,0,1,203.88,502.41Z"/><path d="M314.74,510.11a7.7,7.7,0,0,1,7.7-7.7h39q13.8,0,22.3,3.74a36.19,36.19,0,0,1,14,10.76,44.4,44.4,0,0,1,8.05,16.3,75.42,75.42,0,0,1,2.5,19.7q0,16.3-3.71,25.29a41.78,41.78,0,0,1-10.31,15,33.67,33.67,0,0,1-14.15,8.09,72.84,72.84,0,0,1-18.73,2.77h-39a7.7,7.7,0,0,1-7.7-7.7Zm31.43,23v40.17a7.7,7.7,0,0,0,7.7,7.7h0q9.86,0,14-2.19t6.52-7.63q2.37-5.45,2.36-17.65,0-16.17-5.27-22.13t-17.48-6h-.14A7.7,7.7,0,0,0,346.17,533.14Z"/><path d="M483.21,569.76l14.69-.92a7.77,7.77,0,0,1,7.83,5.43,17.29,17.29,0,0,0,2.67,5.26q4.86,6.18,13.88,6.17,6.74,0,10.37-3.15a9.47,9.47,0,0,0,3.64-7.32,9.33,9.33,0,0,0-3.46-7.08q-3.48-3.12-16.1-5.9-20.67-4.63-29.48-12.34a24.85,24.85,0,0,1-8.88-19.64,26.67,26.67,0,0,1,4.54-14.81q4.54-7,13.67-11t25-4q19.49,0,29.72,7.25a27.49,27.49,0,0,1,10,13.51,7.65,7.65,0,0,1-6.87,10.09l-14.55.85a7.75,7.75,0,0,1-7.49-4.85,12.71,12.71,0,0,0-3.47-4.79q-3.79-3.12-10.45-3.12-5.48,0-8.25,2.32a7.14,7.14,0,0,0-2.78,5.66,5.69,5.69,0,0,0,2.29,4.37q2.22,2,10.55,3.75,20.6,4.44,29.52,9t13,11.27a28.57,28.57,0,0,1,4.06,15.06,32.25,32.25,0,0,1-5.41,18,33.92,33.92,0,0,1-15.13,12.52q-9.71,4.26-24.49,4.26-25.93,0-35.93-10a37.5,37.5,0,0,1-9.51-15.87A7.74,7.74,0,0,1,483.21,569.76Z"/><path d="M590.27,502.24h68.82a7.71,7.71,0,0,1,7.7,7.71v6.31a7.7,7.7,0,0,1-7.7,7.7H621.76a7.7,7.7,0,0,0-7.7,7.7v.76a7.7,7.7,0,0,0,7.7,7.7h33.51a7.7,7.7,0,0,1,7.7,7.7v5.35a7.7,7.7,0,0,1-7.7,7.7H621.76a7.7,7.7,0,0,0-7.7,7.7v4.65a7.7,7.7,0,0,0,7.7,7.7h38.86a7.7,7.7,0,0,1,7.7,7.7v7.63a7.7,7.7,0,0,1-7.7,7.7H590.27a7.7,7.7,0,0,1-7.7-7.7V510A7.71,7.71,0,0,1,590.27,502.24Z"/><path d="M692.87,502.24H761.7a7.71,7.71,0,0,1,7.7,7.71v6.31a7.7,7.7,0,0,1-7.7,7.7H724.37a7.7,7.7,0,0,0-7.7,7.7v.76a7.7,7.7,0,0,0,7.7,7.7h33.51a7.7,7.7,0,0,1,7.7,7.7v5.35a7.7,7.7,0,0,1-7.7,7.7H724.37a7.7,7.7,0,0,0-7.7,7.7v4.65a7.7,7.7,0,0,0,7.7,7.7h38.85a7.7,7.7,0,0,1,7.7,7.7v7.63a7.7,7.7,0,0,1-7.7,7.7H692.87a7.7,7.7,0,0,1-7.7-7.7V510A7.71,7.71,0,0,1,692.87,502.24Z"/><path d="M795.69,502.24h16a7.71,7.71,0,0,1,7.7,7.71v9.9a7.7,7.7,0,0,0,13.55,5L850,504.94a7.7,7.7,0,0,1,5.85-2.7H876a7.7,7.7,0,0,1,5.53,13.06l-20.34,21a7.7,7.7,0,0,0-1,9.38l28.48,46.51A7.7,7.7,0,0,1,882.05,604H861.8a7.7,7.7,0,0,1-6.85-4.19l-14.36-28a7.7,7.7,0,0,0-12.42-1.8l-6.62,6.94a7.69,7.69,0,0,0-2.13,5.32v14a7.7,7.7,0,0,1-7.7,7.7h-16a7.7,7.7,0,0,1-7.7-7.7V510A7.71,7.71,0,0,1,795.69,502.24Z"/><path class="cls-14" d="M165.07,382.13h16a7.7,7.7,0,0,1,7.7,7.7V410a7.7,7.7,0,0,0,7.7,7.7h18.94a7.7,7.7,0,0,0,7.7-7.7V389.83a7.7,7.7,0,0,1,7.7-7.7H247a7.7,7.7,0,0,1,7.7,7.7v86.3a7.7,7.7,0,0,1-7.7,7.7H230.84a7.7,7.7,0,0,1-7.7-7.7V450.39a7.7,7.7,0,0,0-7.7-7.7H196.5a7.7,7.7,0,0,0-7.7,7.7v25.74a7.7,7.7,0,0,1-7.7,7.7h-16a7.7,7.7,0,0,1-7.7-7.7v-86.3A7.7,7.7,0,0,1,165.07,382.13Z"/><path class="cls-14" d="M284.54,382.13h16.09a7.7,7.7,0,0,1,7.7,7.7v86.3a7.69,7.69,0,0,1-7.7,7.7H284.54a7.69,7.69,0,0,1-7.7-7.7v-86.3A7.7,7.7,0,0,1,284.54,382.13Z"/><path class="cls-14" d="M331.3,389.83a7.7,7.7,0,0,1,7.7-7.7h39q13.8,0,22.3,3.75a36.17,36.17,0,0,1,14,10.75,44.56,44.56,0,0,1,8.05,16.3,75.9,75.9,0,0,1,2.49,19.7q0,16.31-3.71,25.29A41.89,41.89,0,0,1,410.87,473a33.64,33.64,0,0,1-14.15,8.08A72.9,72.9,0,0,1,378,483.83H339a7.69,7.69,0,0,1-7.7-7.7Zm31.42,23V453a7.7,7.7,0,0,0,7.7,7.7h0q9.85,0,14-2.18a14.84,14.84,0,0,0,6.52-7.63q2.35-5.46,2.36-17.66,0-16.17-5.27-22.13t-17.49-6h-.14A7.7,7.7,0,0,0,362.72,412.86Z"/><path class="cls-14" d="M449,382.13h68.82a7.7,7.7,0,0,1,7.7,7.7v6.31a7.7,7.7,0,0,1-7.7,7.7H480.52a7.7,7.7,0,0,0-7.7,7.7v.77a7.7,7.7,0,0,0,7.7,7.7H514a7.7,7.7,0,0,1,7.7,7.7v5.34a7.7,7.7,0,0,1-7.7,7.7H480.52a7.7,7.7,0,0,0-7.7,7.7v4.65a7.7,7.7,0,0,0,7.7,7.7h38.85a7.7,7.7,0,0,1,7.7,7.7v7.63a7.69,7.69,0,0,1-7.7,7.7H449a7.69,7.69,0,0,1-7.7-7.7v-86.3A7.7,7.7,0,0,1,449,382.13Z"/><path class="cls-14" d="M148.81,592.21H124.59a7.7,7.7,0,0,0-7.38,5.52l-1.7,5.75a7.7,7.7,0,0,1-7.38,5.52H92.91a7.7,7.7,0,0,1-7.21-10.41l32.44-86.3a7.7,7.7,0,0,1,7.21-5H149a7.69,7.69,0,0,1,7.2,5l32.43,86.3A7.7,7.7,0,0,1,181.4,609H165.32a7.7,7.7,0,0,1-7.37-5.47l-1.78-5.85A7.69,7.69,0,0,0,148.81,592.21Zm-3.87-32-.77-2.5a7.7,7.7,0,0,0-14.73,0l-.76,2.5a7.7,7.7,0,0,0,7.37,9.94h1.53A7.7,7.7,0,0,0,144.94,560.26Z"/><path class="cls-14" d="M210.41,507.3H228a7.71,7.71,0,0,1,6.36,3.36l21.94,32.24a7.7,7.7,0,0,0,14.07-4.34V515a7.69,7.69,0,0,1,7.7-7.7h14.22A7.7,7.7,0,0,1,300,515v86.3a7.7,7.7,0,0,1-7.7,7.7H274.42a7.72,7.72,0,0,1-6.36-3.36l-21.73-31.86a7.7,7.7,0,0,0-14.06,4.34V601.3a7.7,7.7,0,0,1-7.7,7.7H210.41a7.7,7.7,0,0,1-7.7-7.7V515A7.7,7.7,0,0,1,210.41,507.3Z"/><path class="cls-14" d="M321.28,515a7.69,7.69,0,0,1,7.7-7.7h39q13.8,0,22.3,3.74a36.29,36.29,0,0,1,14.05,10.76,44.56,44.56,0,0,1,8.05,16.3,75.84,75.84,0,0,1,2.49,19.7q0,16.31-3.71,25.29a41.76,41.76,0,0,1-10.3,15,33.56,33.56,0,0,1-14.15,8.09A72.9,72.9,0,0,1,368,609H329a7.7,7.7,0,0,1-7.7-7.7Zm31.42,23V578.2a7.7,7.7,0,0,0,7.7,7.7h0q9.86,0,14-2.19a14.8,14.8,0,0,0,6.52-7.63q2.35-5.45,2.36-17.65,0-16.17-5.27-22.13t-17.49-6h-.14A7.7,7.7,0,0,0,352.7,538Z"/><path class="cls-14" d="M488.52,574.81l14.69-.92a7.76,7.76,0,0,1,7.82,5.43,17.08,17.08,0,0,0,2.68,5.26q4.86,6.18,13.87,6.18,6.74,0,10.38-3.16a9.5,9.5,0,0,0,3.64-7.32,9.35,9.35,0,0,0-3.47-7.08q-3.46-3.12-16.1-5.89-20.67-4.65-29.48-12.35a24.85,24.85,0,0,1-8.88-19.64,26.67,26.67,0,0,1,4.54-14.81q4.55-7,13.67-11t25-4q19.5,0,29.73,7.25a27.5,27.5,0,0,1,10,13.52,7.64,7.64,0,0,1-6.87,10.08l-14.54.85a7.77,7.77,0,0,1-7.5-4.84,12.56,12.56,0,0,0-3.47-4.8q-3.78-3.12-10.44-3.12-5.49,0-8.26,2.33a7.11,7.11,0,0,0-2.77,5.65,5.64,5.64,0,0,0,2.29,4.37q2.22,2,10.54,3.75,20.61,4.44,29.52,9t13,11.27a28.57,28.57,0,0,1,4.06,15.06,32.25,32.25,0,0,1-5.41,18,34,34,0,0,1-15.12,12.52q-9.72,4.26-24.49,4.27-26,0-35.94-10a37.7,37.7,0,0,1-9.51-15.88A7.75,7.75,0,0,1,488.52,574.81Z"/><path class="cls-14" d="M595.57,507.3h68.82a7.69,7.69,0,0,1,7.7,7.7v6.31a7.7,7.7,0,0,1-7.7,7.7H627.07a7.7,7.7,0,0,0-7.7,7.7v.77a7.7,7.7,0,0,0,7.7,7.7h33.51a7.7,7.7,0,0,1,7.7,7.7v5.34a7.7,7.7,0,0,1-7.7,7.7H627.07a7.7,7.7,0,0,0-7.7,7.7v4.65a7.7,7.7,0,0,0,7.7,7.7h38.85a7.7,7.7,0,0,1,7.7,7.7v7.63a7.7,7.7,0,0,1-7.7,7.7H595.57a7.7,7.7,0,0,1-7.7-7.7V515A7.7,7.7,0,0,1,595.57,507.3Z"/><path class="cls-14" d="M698.18,507.3H767a7.7,7.7,0,0,1,7.7,7.7v6.31A7.7,7.7,0,0,1,767,529H729.68a7.71,7.71,0,0,0-7.71,7.7v.77a7.71,7.71,0,0,0,7.71,7.7h33.5a7.69,7.69,0,0,1,7.7,7.7v5.34a7.7,7.7,0,0,1-7.7,7.7h-33.5a7.71,7.71,0,0,0-7.71,7.7v4.65a7.71,7.71,0,0,0,7.71,7.7h38.85a7.7,7.7,0,0,1,7.7,7.7v7.63a7.7,7.7,0,0,1-7.7,7.7H698.18a7.7,7.7,0,0,1-7.7-7.7V515A7.7,7.7,0,0,1,698.18,507.3Z"/><path class="cls-14" d="M801,507.3h16a7.7,7.7,0,0,1,7.7,7.7v9.9a7.7,7.7,0,0,0,13.55,5L855.33,510a7.71,7.71,0,0,1,5.85-2.69h20.1a7.7,7.7,0,0,1,5.54,13.05l-20.35,21a7.7,7.7,0,0,0-1,9.37l28.48,46.51A7.7,7.7,0,0,1,887.36,609H867.11a7.72,7.72,0,0,1-6.86-4.19l-14.35-28A7.7,7.7,0,0,0,833.48,575L826.85,582a7.69,7.69,0,0,0-2.13,5.32v14A7.7,7.7,0,0,1,817,609H801a7.7,7.7,0,0,1-7.7-7.7V515A7.7,7.7,0,0,1,801,507.3Z"/><path d="M1520.31,678.9V845.48c0,24.52,26.59,39.8,47.78,27.47l133.09-77.49a31.75,31.75,0,0,0,0-54.87L1558,657.23A25.08,25.08,0,0,0,1520.31,678.9Z"/><path class="cls-7" d="M1529.11,680.75V847.32a31.79,31.79,0,0,0,47.78,27.47L1710,797.3a31.74,31.74,0,0,0,0-54.86L1566.8,659.08A25.07,25.07,0,0,0,1529.11,680.75Z"/><path d="M1560.9,880a32.8,32.8,0,0,1-32.67-32.71V680.75a26,26,0,0,1,39-22.43l143.17,83.36a32.62,32.62,0,0,1,0,56.38l-133.09,77.49A32.62,32.62,0,0,1,1560.9,880Zm-6.71-223.53a24.3,24.3,0,0,0-24.2,24.24V847.33a30.9,30.9,0,0,0,46.45,26.7l133.1-77.49a30.86,30.86,0,0,0,0-53.34l-143.18-83.36A24.12,24.12,0,0,0,1554.19,656.51Z"/><path d="M1551.15,753.48a2.66,2.66,0,0,1,2.66-2.67h15.41c3.94,0,6.88.94,8.84,2.81s2.94,4.54,2.94,8-1.06,6.33-3.2,8.33-5.4,3-9.78,3h-3.29a2.66,2.66,0,0,0-2.66,2.66v7.73a2.67,2.67,0,0,1-2.67,2.67h-5.59a2.67,2.67,0,0,1-2.66-2.67Zm10.92,9.67a2.66,2.66,0,0,0,2.66,2.66h0c2.1,0,3.57-.36,4.42-1.09a3.52,3.52,0,0,0,1.27-2.8,3.94,3.94,0,0,0-1.1-2.81c-.74-.76-2.12-1.15-4.16-1.15h-.43a2.67,2.67,0,0,0-2.66,2.67Z"/><path d="M1589.36,750.81h5.54a2.66,2.66,0,0,1,2.66,2.67v21.19a2.67,2.67,0,0,0,2.67,2.66h11.64a2.66,2.66,0,0,1,2.66,2.67v3.33a2.67,2.67,0,0,1-2.66,2.67h-22.51a2.68,2.68,0,0,1-2.67-2.67V753.48A2.67,2.67,0,0,1,1589.36,750.81Z"/><path d="M1639.13,780.19h-8.37a2.67,2.67,0,0,0-2.56,1.91l-.59,2a2.66,2.66,0,0,1-2.55,1.91h-5.26a2.67,2.67,0,0,1-2.5-3.61l11.22-29.85a2.68,2.68,0,0,1,2.5-1.73h8.17a2.66,2.66,0,0,1,2.49,1.73l11.22,29.85a2.66,2.66,0,0,1-2.49,3.61h-5.56a2.66,2.66,0,0,1-2.55-1.9l-.62-2A2.66,2.66,0,0,0,1639.13,780.19Zm-1.33-11.06-.27-.86a2.67,2.67,0,0,0-5.1,0l-.26.86a2.67,2.67,0,0,0,2.55,3.44h.53A2.67,2.67,0,0,0,1637.8,769.13Z"/><path d="M1655,750.81h5.58a2.65,2.65,0,0,1,2.28,1.3l4,6.74a2.67,2.67,0,0,0,4.58,0l4-6.75a2.64,2.64,0,0,1,2.28-1.3h5.52a2.67,2.67,0,0,1,2.21,4.15L1675,770.59a2.68,2.68,0,0,0-.45,1.48v11.26a2.67,2.67,0,0,1-2.66,2.67h-5.57a2.67,2.67,0,0,1-2.66-2.67V772.07a2.68,2.68,0,0,0-.45-1.48L1652.76,755A2.67,2.67,0,0,1,1655,750.81Z"/><path class="cls-2" d="M1553.3,751.46a2.67,2.67,0,0,1,2.67-2.66h15.4q5.91,0,8.85,2.8c2,1.87,2.94,4.54,2.94,8s-1.07,6.33-3.21,8.33-5.39,3-9.78,3h-3.28a2.68,2.68,0,0,0-2.67,2.67v7.73a2.66,2.66,0,0,1-2.66,2.66H1556a2.67,2.67,0,0,1-2.67-2.66Zm10.92,9.67a2.68,2.68,0,0,0,2.67,2.67h0c2.09,0,3.56-.37,4.41-1.1a3.51,3.51,0,0,0,1.27-2.79,3.89,3.89,0,0,0-1.1-2.81c-.74-.77-2.12-1.15-4.15-1.15h-.43a2.67,2.67,0,0,0-2.67,2.66Z"/><path class="cls-2" d="M1591.51,748.8h5.55a2.66,2.66,0,0,1,2.66,2.66v21.19a2.67,2.67,0,0,0,2.66,2.67H1614a2.66,2.66,0,0,1,2.67,2.66v3.34A2.66,2.66,0,0,1,1614,784h-22.51a2.66,2.66,0,0,1-2.66-2.66V751.46A2.66,2.66,0,0,1,1591.51,748.8Z"/><path class="cls-2" d="M1641.29,778.17h-8.38a2.66,2.66,0,0,0-2.55,1.91l-.59,2a2.68,2.68,0,0,1-2.56,1.91H1622a2.66,2.66,0,0,1-2.49-3.6l11.22-29.86a2.65,2.65,0,0,1,2.49-1.72h8.17a2.66,2.66,0,0,1,2.5,1.72l11.22,29.86a2.67,2.67,0,0,1-2.5,3.6H1647a2.67,2.67,0,0,1-2.55-1.89l-.61-2A2.67,2.67,0,0,0,1641.29,778.17Zm-1.34-11-.27-.87a2.66,2.66,0,0,0-5.09,0l-.26.87a2.66,2.66,0,0,0,2.55,3.43h.52A2.66,2.66,0,0,0,1640,767.12Z"/><path class="cls-2" d="M1657.13,748.8h5.57a2.67,2.67,0,0,1,2.29,1.29l4,6.75a2.66,2.66,0,0,0,4.57,0l4-6.75a2.67,2.67,0,0,1,2.29-1.29h5.51a2.66,2.66,0,0,1,2.21,4.14l-10.45,15.63a2.61,2.61,0,0,0-.45,1.48v11.27a2.67,2.67,0,0,1-2.67,2.66h-5.57a2.66,2.66,0,0,1-2.66-2.66V770.05a2.71,2.71,0,0,0-.45-1.48l-10.47-15.63A2.66,2.66,0,0,1,1657.13,748.8Z"/></g><g id="Layer_3" data-name="Layer 3"><path class="cls-8" d="M1061.66,608.31s-5.48,23.38-5.73,26.62-3.73,11.44-5,33.83,10.7,23.13,10.7,23.13,13.18.74,13.43-12.94,0-34.32,0-34.32h8.7L1087,664s7,33.33,18.65,35.57,20.9,1,19.15-12.44-13.43-38-13.43-38l-10.94-30.85-2.24-13.43-36.81,1.74Z"/><path d="M1113.76,700.81a43.79,43.79,0,0,1-8.14-.9c-11.76-2.25-18.62-34.45-18.91-35.81L1083.52,645h-8.11c0,2.68.22,21.41,0,34-.08,4.21-1.37,7.5-3.84,9.8-4,3.74-9.69,3.46-9.93,3.45s-12.25-1-11-23.47c.92-16.52,3.06-25.37,4.21-30.13a26.6,26.6,0,0,0,.76-3.71c.25-3.17,5.35-25,5.72-26.6l-.29-2,37.45-1.77,2.28,13.71L1111.7,649c.11.22,11.72,24.79,13.45,38.12.66,5-.21,8.74-2.58,11C1120.64,699.91,1117.77,700.81,1113.76,700.81Zm-39-56.5h9.3l3.28,19.67c.07.32,7.05,33.13,18.4,35.31,8.3,1.58,13.5,1.06,16.39-1.66,2.24-2.11,3-5.52,2.39-10.43-1.72-13.22-13.29-37.71-13.41-38l-10.95-30.87L1098,605.16l-36.18,1.71.21,1.46v.06c-.06.23-5.47,23.39-5.72,26.56a27.49,27.49,0,0,1-.78,3.81c-1.14,4.74-3.28,13.56-4.19,30-1.21,21.77,10.28,22.79,10.4,22.8s5.63.27,9.46-3.29c2.33-2.16,3.55-5.31,3.63-9.33.24-13.52,0-34.11,0-34.32Z"/><polygon class="cls-15" points="1052.7 654.3 1113.44 654.29 1111.16 649.18 1102.65 625.55 1058.03 625.55 1057 630.42 1056.46 633.48 1056.2 634.95 1053.52 647.71 1052.52 654.3 1052.7 654.3"/><polygon points="1094.32 685.87 1124.4 686.39 1124.73 688.73 1102.45 688.2 1095.41 688.2 1094.32 685.87"/><polygon points="1051.29 677 1074.91 677.63 1074.85 679.98 1057.66 679.56 1051.75 679.73 1051.29 677"/><path d="M1051.74,679.44l23,.23s.27,11.14-11.62,12.07C1063.13,691.74,1054.77,692.76,1051.74,679.44Z"/><path d="M1095.27,687.9l29.46.83s2.46,10.47-9.43,11.4a20.22,20.22,0,0,1-10.68-1.16A17.21,17.21,0,0,1,1095.27,687.9Z"/><path class="cls-8" d="M1059.35,679.44s1.09,4.25,3.82,3.93,3.06-3.93,3.06-3.93Z"/><path class="cls-8" d="M1106.83,687.6s2.12,4.68,4.87,4.54,4.16-4.54,4.16-4.54Z"/><polygon points="1052.5 654.17 1113.44 654.29 1113.58 654.6 1052.5 654.6 1052.5 654.17"/><polygon points="1058.06 625.64 1102.88 625.64 1100.33 618.46 1099.94 616.59 1060.08 616.59 1058.64 623 1058.06 625.64"/><path class="cls-15" d="M1060.08,616.59h39.78l-.66-3.51s-.15-1.49-.46-3.18a25.26,25.26,0,0,1-.68-4.08s-17.09,3.28-19.2,3.23c-1.66,0-10.17.43-14.59.24a9.38,9.38,0,0,1-2.46-.24l-.88,3.8-.14.62-.28,1.2Z"/><ellipse class="cls-9" cx="1083.55" cy="529.85" rx="95.36" ry="76.45" transform="translate(-118.08 425.41) rotate(-21.09)"/><circle class="cls-2" cx="1123.21" cy="513.77" r="52.07"/><path d="M1123.21,566.27a52.5,52.5,0,1,1,52.5-52.5A52.56,52.56,0,0,1,1123.21,566.27Zm0-104.14a51.65,51.65,0,1,0,51.65,51.64A51.71,51.71,0,0,0,1123.21,462.13Z"/><ellipse class="cls-2" cx="1022.54" cy="550.85" rx="29.85" ry="46.32" transform="translate(-122.8 357.93) rotate(-18.75)"/><path d="M1031.05,596.18c-14.34,0-30-14.45-37.18-35.59-8.29-24.41-2.17-48.63,13.64-54s35.42,10.12,43.7,34.53h0c8.29,24.41,2.16,48.63-13.65,54A20.06,20.06,0,0,1,1031.05,596.18Zm-17-89.8a19.38,19.38,0,0,0-6.27,1c-15.37,5.22-21.25,29-13.12,52.91s27.25,39.22,42.62,34,21.25-29,13.11-52.92h0C1043.35,520.61,1028,506.38,1014.06,506.38Z"/><circle class="cls-15" cx="1126.3" cy="511.91" r="48.42"/><circle cx="1126" cy="512.18" r="39.14"/><circle class="cls-2" cx="1128.78" cy="513.74" r="14.37"/><path class="cls-15" d="M1049.39,539.73c2.33,6.86,4.06,13.52,4.15,19.79,0,1.38.93.79.52,5.2-.2,2.19-.49,4.62-.7,6-.62,4-.79,5-2.4,8a19.64,19.64,0,0,1-2.74,3.76c-2,2.38-6.44,4.52-9.3,5.49-13.3,4.51-30.17-9.77-37.69-31.91s-2.83-43.75,10.47-48.27S1041.88,517.58,1049.39,539.73Z"/><path d="M1049.52,538.94c.23.68,2.8,5.23,2.53,10.12a16.79,16.79,0,0,1-.08-2.47c.21.51.82,3.84,1.09,5.08.94,4.39,1.66,7.28,1.39,8.86a25.94,25.94,0,0,1-1.92,7,45.79,45.79,0,0,1-3.4,5.34,27,27,0,0,1-2.35,3.28c-1.74,2.08-5.54,3.93-8,4.76-11.46,3.9-26.1-8.68-32.68-28.09s-2.64-38.3,8.82-42.2c8.41-2.85,18.53,3.16,25.92,14.22C1043.52,528.86,1047.76,533.77,1049.52,538.94Z"/><ellipse class="cls-2" cx="1035.81" cy="547.93" rx="11.62" ry="12.59"/><path class="cls-16" d="M1175.64,513.43c0,13.8-21.7-4-46.86-3.51-27.2.58-58,18.43-58,3.51,0-28.71,23.47-52,52.43-52S1175.64,484.72,1175.64,513.43Z"/><path d="M1077.87,519.79a8.81,8.81,0,0,1-5.48-1.42,5.88,5.88,0,0,1-2-4.94c0-28.9,23.71-52.41,52.86-52.41s52.86,23.51,52.86,52.41c0,2.32-.6,3.89-1.83,4.79-2.78,2-8.27.27-15.87-2.17-8.27-2.65-18.54-5.95-29.58-5.71-10.76.24-22,3.15-31.88,5.73C1089.21,518.07,1082.58,519.79,1077.87,519.79Zm45.34-57.92c-28.68,0-52,23.13-52,51.56a5,5,0,0,0,1.71,4.27c3.61,2.79,13,.36,23.79-2.46,9.94-2.58,21.22-5.51,32.08-5.75,11.15-.24,21.52,3.08,29.85,5.75,7.08,2.27,12.68,4.06,15.11,2.29,1-.73,1.48-2.07,1.48-4.1C1175.22,485,1151.89,461.87,1123.21,461.87Z"/><path class="cls-17" d="M1049.9,537.58c2,6.06-15.65.57-27.36,4.55-11.34,3.85-27.1,24.53-29.35,17.9-8.22-24.22-2.23-48.15,13.38-53.45S1041.68,513.36,1049.9,537.58Z"/><path d="M1099.15,568.22c3.34,7.76,2.2,21.26-12.6,27.63s-26.7-1.82-30-9.58,6.39-4.61,21.19-11S1095.81,560.45,1099.15,568.22Z"/><path class="cls-18" d="M1095.34,588.54c.83,1.91-4.21,5.34-8.7,7.27s-10,3-10.78,1.11,3.31-6.12,7.79-8S1094.52,586.62,1095.34,588.54Z"/><path class="cls-19" d="M991.14,529.59s-1.93,11.36-.47,20.22c.58,3.55,2.54,8,3.52,11.35.25.87.71,1.92.9,2.45s.42,1,.78,1.91c4.14,10.18,11.62,24.2,30.82,33.91a82.09,82.09,0,0,0,7.59,3.4,92.17,92.17,0,0,0,10.81,3.46s3.2.9,7.66,1.66c2.54.44,5.34.8,8.73,1.07l-4,16.62-2,10.63-2.84,13.7a142.85,142.85,0,0,0-1.69,16.85,68.76,68.76,0,0,0,1,15.18s-13.45,1.27-20.85-4.17,1.74-12.84,1.74-12.84-15.23,2-22.2-2-8.51-7.9-7.83-11.32c1.67-8.4,12.71-10.45,16.49-13.32.44-.33,1.78-1.57,2.3-2.1,1.75-1.77,4.48-6.41,2.65-14.62-2.1-9.39-1.45-9.39-6.21-18.08a21.92,21.92,0,0,0-3.39-4.61l-19.41-20.2a54.69,54.69,0,0,1-9.15-14.25c-3.41-7.76-5.6-18.56-6.45-29.19,0,0-1.7-24.63,12.07-44.69,12.27-17.89,29.16-34.82,54.41-42.44s33.73-8.27,33.73-8.27,27-2,39.4,1.52,35.46,13,42.66,19.81c6.39,6,20,14.8,25.68,37.65s-4.13,51.26-4.13,51.26-7.43,28.1-10.24,33.77a36.32,36.32,0,0,0-3.32,18.34l.45,23.35s-.78,10.84-5.39,15.19c-5.39,5.08-4.73,9.31-13.44,10.39,0,0-.28,7-10.72,9.2s-14.71-.72-14.71-.72l-8.69,2.82-5.9-13.41-5.85-17.42-4.78-13.48-2.06-12.7c2.49-1,2.94-.73,4.6-1.27,2.76-.9,5.66-2.39,7.74-3.06,4.12-1.32,5.89-2.94,8.92-3.86a25.33,25.33,0,0,0,6.8-3.25,86.86,86.86,0,0,0,9-6c2.34-1.9,4.93-3.69,8.46-6.5a29.1,29.1,0,0,0,4.2-3.48c19.21-22.63,17.89-22.78,17.89-22.78s14.18-24.37,9.84-45.44c0,0-.59-12.13-13.89-20.48s-75.42,34.54-66.84,0c0,0-31.39,15.24-45.1-.63,0,0-4.33-5.88,1.54-19.79s13.51-13.37,13.51-13.37-29,7.6-44.25,41.12c-10.62,23.43-22.69,30.56-30.42,33.07"/><path class="cls-9" d="M1061.23,609.08c-2-.56-19.34-5.27-22.64-6.81,0,0-9-7.19-13-10.06s-10.36-.4-10.36-.4-5.38,2.24-2.77,7.35,8.11,8.48,8.11,8.48,9.82,4.66,17.11,4.62,20.25,1,21.87.54c1.39-.42,1.56-2.59,1.56-3.34C1061.1,609.33,1061.35,609.11,1061.23,609.08Z"/><path class="cls-4" d="M1075.27,678.49s2.61.38,7.31-4.32c0,0,4.43.72,6.27-2.07l-2.14-8.43-1.53-9.18-9.72,0Z"/><path d="M1075.42,678.81h-.2l-.27,0,.32-24.54,10.22.16,1.54,9.24,2.16,8.54-.08.11c-1.74,2.66-5.57,2.35-6.42,2.24C1078.67,678.49,1076.13,678.81,1075.42,678.81Zm.36-24.32-.19,23.68c.77-.07,3.12-.58,6.76-4.22l.12-.12.16,0s4.13.63,5.87-1.82l-2.1-8.29-1.54-9.26Z"/><path class="cls-8" d="M1098.19,607c.06,3.46.23,15.74,0,18.95a2.05,2.05,0,0,1-.1.54c-.52,1.6-3.29,10.09-4.35,13.89s2.29,5.87,3.06,6.32a2.83,2.83,0,0,0,.36.16c.84.28,4.13,1,7.27-3.12a28.55,28.55,0,0,0,4.68-10.06,1.86,1.86,0,0,0,0-.33c.09-1.22.54-9-1.8-12.95-2.56-4.31-5.89-14.8-6.89-15.45a1.66,1.66,0,0,0-1.69.13A2.24,2.24,0,0,0,1098.19,607Z"/><path d="M1103.53,610.83a77.23,77.23,0,0,0,4.14,9.41c2.41,4.07,1.93,11.9,1.84,13.13a1.77,1.77,0,0,1,0,.32,28.83,28.83,0,0,1-4.72,10.16c-3.74,5-7.83,3.15-7.88,3.13s-4.58-2.36-3.37-6.71c1-3.76,3.8-12.2,4.34-13.88a1.92,1.92,0,0,0,.11-.54c.2-3.75-.07-19.64-.07-19.8V606l.36-.68a2.7,2.7,0,0,1,1.61-.77,1.28,1.28,0,0,1,.86.18l0,0C1101.27,605.15,1102.07,607.14,1103.53,610.83Zm-5,15.38v.06c0,.1-3.28,10-4.43,14.14-1.1,3.94,2.89,6,3.05,6.09s3.63,1.6,7.07-3a28.37,28.37,0,0,0,4.62-9.92,1.41,1.41,0,0,0,.05-.35c.09-1.25.51-8.93-1.77-12.79a79,79,0,0,1-4.18-9.48c-1-2.59-2.18-5.53-2.59-5.86h0a.5.5,0,0,0-.38-.08,1.34,1.34,0,0,0-.43.16,2.13,2.13,0,0,0-1,1.9C1098.56,610.9,1098.74,623.52,1098.54,626.21Z"/><path class="cls-8" d="M1223.32,932s-6.42,27.44-6.71,31.23-4.38,13.43-5.84,39.7,12.55,27.14,12.55,27.14,15.47.88,15.76-15.17,0-40.29,0-40.29h10.22l3.79,22.77s8.18,39.12,21.9,41.74,24.52,1.17,22.47-14.59-15.76-44.66-15.76-44.66l-12.84-36.2-2.63-15.76-43.2,2Z"/><path d="M1284.47,1040.58a51.77,51.77,0,0,1-9.55-1.06c-13.81-2.64-21.86-40.42-22.19-42L1249,975h-9.52c0,3.15.27,25.13,0,39.91-.09,4.94-1.61,8.81-4.51,11.5-4.72,4.39-11.36,4.07-11.65,4s-14.37-1.21-12.9-27.54c1.07-19.38,3.59-29.77,4.94-35.35a31.72,31.72,0,0,0,.89-4.36c.29-3.72,6.28-29.36,6.71-31.22l-.34-2.38,44-2.08,2.68,16.09,12.82,36.13c.13.26,13.76,29.1,15.78,44.74.77,5.93-.25,10.26-3,12.88C1292.53,1039.52,1289.17,1040.58,1284.47,1040.58Zm-45.77-66.31h10.92l3.85,23.08c.07.37,8.27,38.89,21.59,41.43,9.73,1.87,15.84,1.25,19.23-1.94,2.63-2.48,3.55-6.48,2.8-12.23-2-15.53-15.59-44.26-15.73-44.55l-12.86-36.23-2.59-15.5-42.45,2,.24,1.71v.07c-.07.27-6.42,27.45-6.71,31.17a34,34,0,0,1-.91,4.47c-1.35,5.56-3.85,15.91-4.92,35.22-1.42,25.55,12.06,26.74,12.2,26.75s6.61.32,11.1-3.85c2.74-2.55,4.17-6.24,4.26-11,.29-15.87,0-40,0-40.27Z"/><ellipse class="cls-9" cx="1245.74" cy="846.55" rx="111.91" ry="89.71"/><circle class="cls-2" cx="1306.63" cy="841.59" r="50.61"/><path d="M1306.63,892.61a51,51,0,1,1,51-51A51.08,51.08,0,0,1,1306.63,892.61Zm0-101.21a50.19,50.19,0,1,0,50.19,50.19A50.24,50.24,0,0,0,1306.63,791.4Z"/><circle class="cls-20" cx="1304.06" cy="843.25" r="47.06"/><circle cx="1296.09" cy="848.32" r="38.04"/><circle class="cls-2" cx="1285.46" cy="834.35" r="13.97"/><circle class="cls-2" cx="1184.86" cy="843.25" r="50.61"/><path d="M1134.67,843.25A50.13,50.13,0,0,1,1152.4,805c-.09-.28-.17-.57-.26-.86a50.93,50.93,0,0,0-2.32,76.15c.21-.18.41-.37.61-.56A50,50,0,0,1,1134.67,843.25Z"/><path d="M1233.86,829.08,1233,829a50.16,50.16,0,0,1-82.54,50.75c-.2.19-.4.38-.61.56a51,51,0,0,0,84-51.2Z"/><path d="M1157.35,801.28A50.15,50.15,0,0,1,1233,829l.89.11a51,51,0,0,0-81.72-25c.09.29.17.58.26.86A49.87,49.87,0,0,1,1157.35,801.28Z"/><circle class="cls-20" cx="1187.43" cy="844.9" r="47.06"/><circle cx="1195.4" cy="849.98" r="38.04"/><circle class="cls-2" cx="1209.36" cy="832.58" r="13.97"/><line class="cls-11" x1="1231.78" y1="823.21" x2="1238.3" y2="826.83"/><path class="cls-21" d="M1223.57,941.63H1268l-.44-3.2s-.62-.5-.56-3.35c0,0-17.37,1.83-19.84,1.76s-20.48-.72-22.63-1.76l.85,2.51Z"/><polygon points="1219.13 952.26 1271.49 952.26 1268.5 943.83 1268.04 941.63 1223.57 941.63 1219.81 949.16 1219.13 952.26"/><polygon class="cls-21" points="1212.82 986 1284.1 985.98 1281.42 979.99 1271.44 952.25 1219.07 952.25 1217.86 957.98 1217.23 961.56 1216.92 963.29 1213.78 978.26 1212.61 986 1212.82 986"/><path class="cls-8" d="M1228.19,935.54s-6.59,23.61-10.82,27.72-6.39,6.65-11.91,5.59-3.3-11.49-3.3-11.49,4.52-9.7,7.76-12.17,11.48-11.09,11.48-11.09Z"/><path d="M1228.56,935.3l-.11.4c-.27,1-6.66,23.72-10.89,27.84l-.77.74c-3.89,3.81-6,5.91-11.32,4.89a4.18,4.18,0,0,1-2.91-2.12c-2-3.43-.71-9.57-.66-9.83l0-.07c.18-.39,4.57-9.77,7.82-12.24s11.38-11,11.46-11.08l.08-.08ZM1202.62,966a5.6,5.6,0,0,0,.35.74,3.51,3.51,0,0,0,2.48,1.78c5.08,1,7.17-1.07,11-4.78l.76-.75c3.84-3.73,9.76-24.08,10.65-27.2l-6.31-1.35c-.84.88-8.39,8.72-11.43,11s-7.39,11.45-7.68,12C1202.32,958,1201.38,962.88,1202.62,966Z"/><path class="cls-8" d="M1265.54,935.54s6.59,23.61,10.82,27.72,6.39,6.65,11.91,5.59,3.3-11.49,3.3-11.49-4.52-9.7-7.76-12.17-11.48-11.09-11.48-11.09Z"/><path d="M1272.44,933.75l.08.08c.08.08,8.28,8.64,11.46,11.08s7.64,11.85,7.82,12.24l0,.07c.05.26,1.34,6.4-.66,9.83a4.18,4.18,0,0,1-2.91,2.12c-5.29,1-7.43-1.08-11.32-4.89l-.77-.74c-4.23-4.12-10.62-26.87-10.89-27.84l-.11-.4Zm18.88,23.78c-.29-.6-4.61-9.71-7.68-12s-10.59-10.16-11.43-11l-6.31,1.35c.89,3.12,6.81,23.47,10.65,27.2l.76.75c3.8,3.71,5.89,5.76,11,4.78a3.51,3.51,0,0,0,2.48-1.78,5.6,5.6,0,0,0,.35-.74C1292.35,962.88,1291.41,958,1291.32,957.53Z"/><path d="M1232.72,889.13c6.17,1.42,19.09,3.56,31.14.09a1.6,1.6,0,0,1,2.07,2c-2.33,5.86-8.13,18-16,17.66s-15.55-11.74-19-17.48A1.57,1.57,0,0,1,1232.72,889.13Z"/><path class="cls-18" d="M1240.06,903.47c1.56,1.51,6.15,6.15,11.18,5.42s7.81-5.27,9.56-7.64a8.81,8.81,0,0,0,.93-1.46c.53-1.81-5.14,1.41-9.6,2.05-.38.06-2.14.21-2.59.22-4.38.16-11.18-2.79-11.38-1C1238.11,901.58,1239,902.49,1240.06,903.47Z"/><path class="cls-21" d="M1137.46,823.82l57.47-19.44s2.06-8.12,6.35-10.72l2.6,9.69,17.15-4.48s-.13-12.42,7.81-15.82l2.76,16.25,23.46-.88s8-12.2,10.82-16.74,13.25,16.48,13.25,16.48l19.62,2.78s1.13-6.29,2.28-10.12,12.83,13.6,12.83,13.6l35.06,7.33s-7.6-16.69-30-33.06c-18-13.19-48.66-23.1-75.76-21.83-55.94,2.63-73.2,23.66-73.2,23.66A103.21,103.21,0,0,0,1137.46,823.82Z"/><path d="M1136.6,824.64l.4-1a104.74,104.74,0,0,1,32.65-43.49c1-1.2,19.39-21.24,73.52-23.79,25.5-1.19,56.79,7.82,76.07,21.93,22.22,16.26,30.06,33.08,30.14,33.25l.41.9-36.23-7.57-.11-.17c-4.7-7-10.38-14.13-11.82-13.92-.06,0-.1.11-.12.19-1.13,3.75-2.26,10-2.27,10.06l-.08.47-20.36-2.88-.12-.24c-3.18-6.44-9.18-16.71-11.72-16.84-.18,0-.41,0-.65.41-2.84,4.48-10.76,16.62-10.84,16.74l-.14.22-24.15.91-2.72-16c-7,3.58-6.93,15-6.93,15.08v.39l-18,4.7-2.55-9.49c-3.69,2.8-5.54,9.95-5.56,10l-.07.26Zm111.2-67.38c-1.55,0-3.08,0-4.58.1-55,2.59-72.67,23.27-72.84,23.48l-.1.09a103.69,103.69,0,0,0-32,42.07l56.19-19c.4-1.46,2.48-8.32,6.51-10.76l.57-.35,2.64,9.86,16.29-4.25c0-2.21.67-12.71,8.12-15.9l.58-.25,2.79,16.45,22.76-.86c1.08-1.66,8.06-12.37,10.68-16.52a1.68,1.68,0,0,1,1.55-.87c3.83.2,11.16,14.57,12.45,17.16l18.89,2.68c.28-1.55,1.24-6.5,2.2-9.7a1.14,1.14,0,0,1,.93-.89c2.61-.4,10.23,10.53,12.69,14.18L1348,811c-2-3.69-10.31-18-29.36-31.94C1300.68,766,1272.17,757.26,1247.8,757.26Z"/><path class="cls-22" d="M1226.53,759.47h0c-2.39.5-19.24,5.36-19.12,1.87.13-3.88,8.34-14.23,20.9-13.69,1.46.07,2.55,0,3.8,0a16.16,16.16,0,0,0,4.28-.54l.55-.19c.1,0,.19-.1.29-.12,4-.94,5-.74,10.36.5l.27.07,2.17.77.25.11a15.6,15.6,0,0,1,4,2.27c.47.33,8.11,6.18,7.65,6.73-3.6,4.31-10.26,1.42-14,1.35-5.15-.1-9.12.27-21.36.9"/><path class="cls-21" d="M1223.73,747.79s-4.74-28.53,18.35-36.86a22.23,22.23,0,0,1,19.17,2.17c9.79,6.06,30.18,44.85,20.11,38.4-34.21-21.91-43.66-4.78-43.66-4.78Z"/><path d="M1283.16,752.72a4.09,4.09,0,0,1-2.07-.8c-17.75-11.37-28.61-12-34.59-10.46s-8.34,5.46-8.36,5.5l-.13.24-.27,0-14.42,1.1-.08-.45c0-.29-4.54-29,18.67-37.41a22.54,22.54,0,0,1,19.6,2.22c8,4.93,23.31,31.66,23.07,38.3a1.7,1.7,0,0,1-.78,1.59A1.34,1.34,0,0,1,1283.16,752.72Zm-31.52-12.86c6.6,0,16.31,2.46,30,11.22.95.61,1.51.71,1.71.61s.23-.35.24-.75c.2-5.57-14.39-32.34-22.59-37.41a21.54,21.54,0,0,0-18.74-2.12c-20.85,7.51-18.55,32.19-18.09,35.84l13.25-1c.6-.93,3.11-4.3,8.8-5.74A22.16,22.16,0,0,1,1251.64,739.86Z"/><path class="cls-8" d="M1627.67,576.82s-6.42,27.44-6.72,31.23-4.37,13.43-5.83,39.7,12.55,27.15,12.55,27.15,15.47.87,15.76-15.18,0-40.28,0-40.28h10.22l3.79,22.76s8.17,39.12,21.89,41.74,24.52,1.17,22.48-14.59-15.76-44.66-15.76-44.66L1673.2,588.5l-2.62-15.77-43.2,2Z"/><path d="M1688.81,685.37a51.77,51.77,0,0,1-9.55-1.06c-13.8-2.64-21.85-40.42-22.19-42l-3.74-22.47h-9.52c0,3.15.26,25.13,0,39.91-.09,4.94-1.61,8.81-4.51,11.5-4.73,4.39-11.37,4.07-11.65,4s-14.37-1.2-12.91-27.54c1.08-19.38,3.59-29.77,5-35.35a33.33,33.33,0,0,0,.89-4.36c.29-3.72,6.27-29.36,6.71-31.22l-.34-2.38,43.94-2.08,2.68,16.09,12.83,36.14c.12.25,13.75,29.09,15.78,44.73.77,5.93-.25,10.26-3,12.88C1696.88,684.31,1693.51,685.37,1688.81,685.37Zm-45.76-66.31H1654l3.85,23.08c.08.38,8.28,38.89,21.59,41.44,9.74,1.86,15.84,1.24,19.23-2,2.64-2.48,3.55-6.48,2.81-12.23-2-15.53-15.6-44.26-15.73-44.55l-12.86-36.23-2.59-15.5-42.45,2,.24,1.71,0,.07c-.06.27-6.42,27.45-6.7,31.17a32.47,32.47,0,0,1-.92,4.47c-1.34,5.56-3.85,15.91-4.92,35.22-1.42,25.55,12.07,26.74,12.2,26.75s6.62.32,11.11-3.85c2.74-2.55,4.17-6.24,4.26-11,.28-15.86,0-40,0-40.27Z"/><ellipse class="cls-9" cx="1650.09" cy="491.34" rx="111.91" ry="89.71"/><circle class="cls-2" cx="1710.98" cy="486.38" r="50.61"/><path d="M1711,537.4a51,51,0,1,1,51-51A51.08,51.08,0,0,1,1711,537.4Zm0-101.21a50.19,50.19,0,1,0,50.19,50.19A50.25,50.25,0,0,0,1711,436.19Z"/><circle class="cls-23" cx="1708.41" cy="488.04" r="47.06"/><circle cx="1700.44" cy="493.11" r="38.04"/><circle class="cls-2" cx="1689.81" cy="479.15" r="13.97"/><circle class="cls-2" cx="1589.2" cy="488.04" r="50.61"/><path d="M1539,488a50.13,50.13,0,0,1,17.73-38.26c-.08-.28-.16-.57-.25-.86a50.91,50.91,0,0,0-2.32,76.15c.21-.18.41-.37.61-.56A50,50,0,0,1,1539,488Z"/><path d="M1638.21,473.87l-.89-.11a47.8,47.8,0,0,1,1.26,5.25,50.16,50.16,0,0,1-83.8,45.5c-.2.19-.4.38-.61.56a51,51,0,0,0,84-51.2Z"/><path d="M1561.7,446.07a50.15,50.15,0,0,1,75.62,27.69l.89.11a51,51,0,0,0-81.72-24.95c.09.29.17.58.25.86A51.2,51.2,0,0,1,1561.7,446.07Z"/><circle class="cls-23" cx="1591.77" cy="489.69" r="47.06"/><circle cx="1599.74" cy="494.77" r="38.04"/><circle class="cls-2" cx="1613.71" cy="477.37" r="13.97"/><line class="cls-11" x1="1636.13" y1="468" x2="1642.65" y2="471.62"/><path class="cls-22" d="M1626.2,586.42h46.19l-.44-3.2s-.62-.5-.56-3.35c0,0-17.38,1.83-19.85,1.76s-22-.72-24.2-1.76l-.55,2.4Z"/><polygon points="1623.47 597.05 1675.84 597.05 1672.85 588.62 1672.39 586.42 1625.84 586.42 1624.15 593.96 1623.47 597.05"/><polygon class="cls-22" points="1617.16 630.79 1688.44 630.77 1685.77 624.78 1675.78 597.04 1623.41 597.04 1622.2 602.77 1621.57 606.35 1621.27 608.08 1618.12 623.05 1616.95 630.79 1617.16 630.79"/><path class="cls-23" d="M1541.81,468.62l57.47-19.45s2-8.12,6.35-10.72l2.6,9.69,17.15-4.48s-.14-12.41,7.81-15.81L1636,444.1l23.45-.89s8-12.2,10.83-16.74S1683.48,443,1683.48,443l19.62,2.78s1.12-6.29,2.28-10.11,12.83,13.59,12.83,13.59l35.06,7.33s-7.61-16.69-30-33.06c-18-13.19-48.65-23.1-75.75-21.83-55.94,2.63-73.2,23.66-73.2,23.66A103.2,103.2,0,0,0,1541.81,468.62Z"/><path d="M1541.12,468.93l.39-1a104.72,104.72,0,0,1,32.66-43.49c1-1.2,19.38-21.25,73.51-23.79,25.52-1.2,56.8,7.82,76.08,21.93,22.22,16.26,30.06,33.08,30.13,33.25l.41.89-36.22-7.56L1718,449c-4.7-7-10.4-14.14-11.82-13.93-.05,0-.09.11-.12.2-1.13,3.75-2.25,10-2.26,10.05l-.09.48-20.36-2.88-.11-.24c-3.18-6.44-9.18-16.71-11.73-16.84-.17,0-.41,0-.65.4-2.83,4.49-10.75,16.63-10.83,16.75l-.14.22-24.15.91-2.73-16c-7,3.59-6.93,15-6.92,15.08v.39l-18,4.7-2.54-9.49c-3.7,2.81-5.55,10-5.57,10l-.06.26-.26.09Zm111.19-67.39c-1.54,0-3.07,0-4.58.11-55,2.58-72.66,23.27-72.84,23.47l-.09.1a103.49,103.49,0,0,0-32,42.07l56.19-19c.41-1.47,2.49-8.33,6.51-10.77l.57-.34,2.64,9.85,16.3-4.25c0-2.21.67-12.7,8.11-15.89l.58-.25,2.8,16.44,22.75-.85c1.09-1.66,8.07-12.37,10.69-16.52a1.68,1.68,0,0,1,1.55-.87c3.82.2,11.15,14.56,12.45,17.16l18.88,2.67c.29-1.54,1.24-6.5,2.21-9.69a1.11,1.11,0,0,1,.93-.89h.14c2.76,0,10.13,10.6,12.54,14.19l33.85,7.07c-2-3.69-10.31-18-29.36-31.95C1705.19,410.23,1676.69,401.54,1652.31,401.54Z"/><path class="cls-23" d="M1541.34,468.43h0A104.72,104.72,0,0,1,1574,424.94c1-1.2,19.38-21.24,73.51-23.79,25.51-1.19,56.8,7.82,76.08,21.93,22.22,16.26,30.06,33.08,30.13,33.25l.41.9-36.22-7.57-.12-.17c-4.7-7-10.37-14.13-11.82-13.92,0,0-.09.11-.12.19-1.13,3.75-2.25,10-2.26,10.06l-.09.47-20.36-2.88-.11-.24c-3.18-6.44-9.18-16.71-11.73-16.84-.18,0-.41,0-.65.41-2.83,4.49-10.75,16.62-10.83,16.74l-.14.22-24.15.91-2.72-16c-7,3.58-6.94,15-6.93,15.08v.39l-18,4.7-2.54-9.49c-3.7,2.8-5.55,9.95-5.57,10l-.41-.38Zm110.8-66.38c-1.54,0-3.07,0-4.58.1-55,2.59-72.66,23.27-72.84,23.48l-.09.09a103.56,103.56,0,0,0-32,42.08l56.19-19c.41-1.46,2.49-8.32,6.51-10.76l.57-.35,2.64,9.86,16.3-4.25c0-2.21.67-12.71,8.11-15.89l.58-.25,2.8,16.44,22.75-.86c1.09-1.66,8.07-12.37,10.69-16.52a1.67,1.67,0,0,1,1.55-.87c3.82.2,11.15,14.57,12.45,17.16l18.88,2.68c.29-1.55,1.24-6.5,2.21-9.7a1.14,1.14,0,0,1,.93-.89c2.61-.4,10.22,10.53,12.68,14.18l33.85,7.08c-1.95-3.7-10.31-18-29.36-31.95C1705,410.74,1676.52,402.05,1652.14,402.05Z"/><path d="M1541.81,468.43h-.47a107,107,0,0,1,32.78-43.86c1.21-1.36,19.92-21.38,73.84-23.91,25.62-1.21,57,7.85,76.39,22,22.31,16.32,29.76,33.48,29.84,33.65l.41.9-36.49-7.62h0c-5.09-7.59-10.31-13-11.7-13.59-1.1,3.76-2.35,9.73-2.36,9.8l.23.32-20.67-2.73-.48-.46c-3.89-7.88-9.41-16-11.39-16.12,0,0-.09,0-.2.18-2.7,4.27-10.43,15.21-11.26,16.47l-.14.22-24.15.91-3.09-15.25c-6.08,3.78-6.06,14.19-6.06,14.29v.78L1608,449.36l-2.46-9.21c-3.18,3-4.79,9.2-5.29,9.14l-1-.25Zm.46.19,3-1Zm110.34-66.07c-1.54,0-3.07,0-4.56.1-54.59,2.57-72.3,23.09-72.48,23.3l-.14.14A102.75,102.75,0,0,0,1544,467l54.9-18.58c.54-1.85,2.67-8.38,6.66-10.8l1.14-.69,2.68,10,15.46-4c.11-2.82,1-12.81,8.4-16l1.17-.5,2.82,16.63,22.06-.83c2-3.13,8.14-12.49,10.54-16.29a2.21,2.21,0,0,1,2-1.11c3.91.21,10.61,12.92,12.76,17.21l18.15,2.57c.36-1.88,1.24-6.33,2.13-9.28a1.62,1.62,0,0,1,1.34-1.24c2.71-.43,9.3,8.65,13.06,14.23l32.59,6.81c-2.76-4.94-11.16-18-28.7-30.84C1705.39,411.29,1677,402.55,1652.61,402.55Zm66.06,46.66h0l-.11-.17a110.55,110.55,0,0,0-7.67-10.26,128.43,128.43,0,0,1,7.78,10.43Zm-113.12-10.4c-3.52,2.62-5.39,8.83-5.74,10.1l-.07.26h0c0-.1,1.89-7.38,5.75-10.31Zm.55-.36,2.59,9.69,17.15-4.48c0-.11-.06-11.79,7.2-15.53l.11-.05c-6.71,3.33-7.26,13.22-7.31,15.21v.38l-17.15,4.47Zm92,6.51,5.44.77c0-.05.59-3.28,1.34-6.49-.59,2.52-1.07,5.05-1.25,6l-.09.47Zm-14.18-2-.12-.23a91.28,91.28,0,0,0-7.74-13.1A107.57,107.57,0,0,1,1683.94,443Zm-22.08-2.81h0Zm0,0h0Zm9-13.86a1.43,1.43,0,0,0-.14.2c-1.91,3-6.14,9.52-8.82,13.65,2.58-4,6.88-10.59,8.82-13.65A1.43,1.43,0,0,1,1670.84,426.27Zm35.62,8.8h0Zm-72.81-7.22.66,3.87-.66-3.87Zm38.08-2h.06l.23,0-.22,0h-.07Zm-96.73-.74-.16.18-.08.07,0,0,0-.05A.9.9,0,0,1,1575,425.09Zm117.59-16.9a114.09,114.09,0,0,1,29.83,14.34A114.07,114.07,0,0,0,1692.59,408.19Zm-44.22-6.55H1648c-2.09.1-4.14.23-6.13.38,2-.15,4-.28,6.13-.38Z"/><path class="cls-23" d="M1704.06,404.09s9.7-27.24,33.92-23.31a22.2,22.2,0,0,1,15.71,11.2c5.62,10,4.63,53.85-1,43.33-19.28-35.76-35.85-25.37-35.85-25.37Z"/><path d="M1754.29,437.43h0c-.71,0-1.38-.63-2.06-1.88C1742.2,417,1733,411.2,1727,409.61s-9.94.73-10,.75l-.23.14-13.39-6.14.16-.43c.09-.28,10.11-27.6,34.47-23.65a22.6,22.6,0,0,1,16.07,11.45c4.57,8.18,5,39,1.58,44.68A1.72,1.72,0,0,1,1754.29,437.43Zm-31.5-29.4a17.22,17.22,0,0,1,4.46.6c6.16,1.63,15.64,7.54,25.83,26.44.54,1,1,1.35,1.2,1.36s.37-.19.57-.53c2.88-4.77,3.12-35.26-1.6-43.68a21.56,21.56,0,0,0-15.35-11c-21.88-3.54-31.84,19.14-33.21,22.57l12.07,5.54A13.08,13.08,0,0,1,1722.79,408Z"/><path class="cls-23" d="M1753.62,437.25a4.15,4.15,0,0,1-1.42-1.7C1742.2,417,1733,411.2,1727,409.61s-9.94.73-10,.75l-.23.14-.24-.11-13.15-6,.16-.43c.09-.28,10.12-27.6,34.47-23.65a22.57,22.57,0,0,1,16.07,11.45c4.57,8.18,5,39,1.58,44.68a1.71,1.71,0,0,1-1.45,1A1.51,1.51,0,0,1,1753.62,437.25Zm-21.32-26.54c5.77,3.2,13.07,10.06,20.78,24.36.54,1,1,1.36,1.2,1.36s.37-.19.57-.53c2.88-4.78,3.12-35.26-1.59-43.68a21.57,21.57,0,0,0-15.36-11c-21.87-3.55-31.84,19.14-33.21,22.57l12.07,5.54c1-.53,4.81-2.25,10.48-.75A22,22,0,0,1,1732.3,410.71Z"/><path d="M1754.29,437.93h0a1.85,1.85,0,0,1-.86-.25,4.46,4.46,0,0,1-1.62-1.9c-9.92-18.4-19-24.12-24.86-25.69s-9.44.61-9.59.7l-.45.28-14-6.45.3-.86c.1-.28,10.24-28,35-24a23,23,0,0,1,16.42,11.7c2.5,4.46,3.64,15.07,3.86,23.5.21,7.9-.26,18.32-2.28,21.68A2.17,2.17,0,0,1,1754.29,437.93Zm-.07-1h.07c.35,0,.68-.26,1-.77,2.31-3.84,2.84-19.25,1.5-31.22.34,3.16.55,6.69.62,10.48.15,8.05-.45,18-2.12,20.74-.31.52-.65.78-1,.77Zm-31.43-29.4a17.79,17.79,0,0,1,4.58.62,22.92,22.92,0,0,1,5.18,2.12h0c7.32,4.07,14.38,12.33,21,24.57a4.32,4.32,0,0,0,.74,1,2.75,2.75,0,0,0,.17-.24c2.83-4.71,3-34.85-1.61-43.18a21.1,21.1,0,0,0-15-10.7c-20.77-3.36-30.75,17.71-32.48,21.82l11.41,5.24A13.84,13.84,0,0,1,1722.79,407.53Zm11.07,4.71c5.08,3.34,11.19,9.58,17.65,21C1745.89,423.29,1740,416.24,1733.86,412.24Zm-29.8-8.15,12.73,5.85c.17-.1,4-2.35,9.91-.93a13.83,13.83,0,0,0-9.7.81l-.22.11Zm29.28-23.7c-18.6,0-27.41,19.13-29,23,1.5-3.65,11.76-26.19,33.65-22.63a22,22,0,0,1,15.51,10.84A22,22,0,0,0,1738,380.77,29.1,29.1,0,0,0,1733.34,380.39Z"/><path class="cls-24" d="M1699.87,413.88h0c-2.33-.72-19.42-4.65-17.63-7.64,2-3.34,14.2-8.4,24.92-1.83,1.25.76,2.22,1.25,3.33,1.82a16.76,16.76,0,0,0,4,1.6l.58.1.3,0c4,1.13,4.78,1.81,8.83,5.47l.19.2,1.52,1.72a1.84,1.84,0,0,1,.17.22,15.74,15.74,0,0,1,2.38,3.91c.25.52,4.1,9.35,3.42,9.61-5.24,2-9.66-3.75-12.91-5.64-4.46-2.58-8.1-4.18-19.11-9.57"/><path class="cls-23" d="M1594.86,404.1s-9.7-27.25-33.92-23.32a22.2,22.2,0,0,0-15.71,11.2c-5.63,10-4.63,53.85,1,43.33,19.27-35.76,35.85-25.37,35.85-25.37Z"/><path d="M1544.63,437.43a1.71,1.71,0,0,1-1.42-1c-3.43-5.7-3-36.51,1.58-44.69a22.6,22.6,0,0,1,16.07-11.45c24.34-3.95,34.37,23.37,34.47,23.65l.15.43-13.38,6.15-.23-.15s-3.92-2.37-10-.75-15.17,7.38-25.17,25.94c-.68,1.25-1.35,1.86-2.06,1.88Zm20.93-56.53a27.76,27.76,0,0,0-4.54.37,21.6,21.6,0,0,0-15.36,11c-4.71,8.42-4.47,38.91-1.6,43.68.21.34.4.5.58.53s.66-.36,1.2-1.36c10.19-18.9,19.67-24.81,25.83-26.44,5.68-1.5,9.51.23,10.48.75l12.07-5.54C1593,400.66,1584.28,380.9,1565.56,380.9Z"/><path class="cls-23" d="M1544.66,437.43a1.71,1.71,0,0,1-1.45-1c-3.43-5.7-3-36.51,1.58-44.69a22.6,22.6,0,0,1,16.07-11.45c24.35-3.95,34.37,23.37,34.47,23.65l.15.43-13.14,6-.25.12-.22-.15s-3.93-2.37-10-.75-15.17,7.38-25.17,25.94a4.15,4.15,0,0,1-1.42,1.7A1.27,1.27,0,0,1,1544.66,437.43Zm27-28.8c5.67-1.5,9.51.23,10.48.75l12.08-5.54c-1.37-3.42-11.34-26.12-33.21-22.57a21.62,21.62,0,0,0-15.36,11c-4.71,8.42-4.47,38.91-1.6,43.68.21.34.42.54.58.53s.66-.36,1.2-1.36c7.7-14.29,15-21.16,20.77-24.36A22.33,22.33,0,0,1,1571.67,408.63Z"/><path d="M1544.63,437.93a2.15,2.15,0,0,1-1.85-1.26c-2-3.35-2.49-13.78-2.28-21.68.22-8.43,1.35-19,3.85-23.5a23.08,23.08,0,0,1,16.43-11.7c24.78-4,34.92,23.69,35,24l.31.86-14,6.45-.46-.28s-3.8-2.24-9.58-.7-14.94,7.3-24.86,25.7a4.59,4.59,0,0,1-1.62,1.9,2,2,0,0,1-.87.24h0Zm0-1h0a.8.8,0,0,0,.36-.09.8.8,0,0,1-.36.09ZM1543,399.26c-2.3,12.13-2,32.41.67,36.9a2.43,2.43,0,0,0,.39.51,2.43,2.43,0,0,1-.39-.51C1541.3,432.28,1540.67,411.65,1543,399.26Zm22.53-17.86a28.25,28.25,0,0,0-4.4.36,21.09,21.09,0,0,0-15,10.71c-4.66,8.33-4.45,38.46-1.61,43.17a1.25,1.25,0,0,0,.18.25,4.69,4.69,0,0,0,.73-1.05c6.59-12.24,13.65-20.5,21-24.57a22.55,22.55,0,0,1,5.18-2.12,15.27,15.27,0,0,1,10.62.67l11.41-5.24C1592,399.78,1583.29,381.4,1565.5,381.4Zm-.44,30.84c-6.1,4-12,11-17.63,21C1553.88,421.8,1560,415.58,1565.06,412.24Zm11-3.7a12.28,12.28,0,0,1,6,1.4h0l-.22-.12a13.84,13.84,0,0,0-9.51-.86A17,17,0,0,1,1576.09,408.54Zm18.77-4.44-12.69,5.82,12.69-5.82Zm-29.34-23.7c18.69,0,27.61,19.49,29.06,23-1.77-4.29-11.92-26.12-33.64-22.6a22,22,0,0,0-15.38,10.61,22,22,0,0,1,15.38-10.61A28.28,28.28,0,0,1,1565.52,380.4Z"/><path class="cls-24" d="M1600.75,413.88h0c2.33-.72,19.42-4.65,17.63-7.64-2-3.34-14.2-8.4-24.92-1.83-1.25.76-2.22,1.25-3.33,1.82a16.76,16.76,0,0,1-4,1.6l-.58.1c-.1,0-.21,0-.3,0-4,1.13-4.78,1.81-8.83,5.47l-.19.2-1.52,1.72a1.84,1.84,0,0,0-.17.22,15.44,15.44,0,0,0-2.38,3.91c-.25.52-4.1,9.35-3.42,9.61,5.24,2,9.66-3.75,12.91-5.64,4.46-2.58,8.1-4.18,19.11-9.57"/><path d="M1543.89,514.17c-.93-1.37-4.68-10.79-3.69-10.83,5.17-.21,38.76,4.29,52.34,6.91,8.23,1.59,14.25,3.74,19.7,8.58s5.89,10.22,6.38,18.15c.82,13.22-15.16,22.57-30.89,21S1553.61,528.59,1543.89,514.17Z"/><path class="cls-8" d="M1543,515.27c-.68-1.61-3.77-11.89-2.78-11.93,5.17-.21,37.85,5.39,51.44,8,8.22,1.59,14.25,3.74,19.69,8.58,5.6,5,5.89,10.22,6.39,18.16.81,13.21-15.17,22.57-30.9,21S1549.8,531.27,1543,515.27Z"/><path d="M1755.83,513.28c.93-1.37,4.68-10.78,3.69-10.82-5.17-.22-38.76,4.28-52.34,6.9-8.23,1.59-14.25,3.74-19.7,8.58s-5.89,10.22-6.38,18.16c-.82,13.22,15.16,22.57,30.89,21S1746.11,527.71,1755.83,513.28Z"/><path class="cls-8" d="M1756.74,514.39c.68-1.61,3.77-11.89,2.78-11.93-5.17-.22-37.85,5.38-51.44,8-8.22,1.58-14.25,3.73-19.7,8.57s-5.89,10.22-6.38,18.16c-.82,13.22,15.16,22.57,30.9,21S1749.91,530.39,1756.74,514.39Z"/><path class="cls-9" d="M1672,579.76s14.06-15.45,16.41-18.5c0,0,5.51-11.55,8-16.28s7.74-3.54,7.74-3.54,4.47,1.18,3.42,8.27a38.28,38.28,0,0,1-4.6,12.86s-6.56,8.66-12.07,10.76-16.67,9.32-18,9.18S1672,579.76,1672,579.76Z"/><path class="cls-9" d="M1627,580.73s-11.15-17.66-12.93-21.07c0,0-3.42-12.34-5.06-17.42s-7-4.84-7-4.84-4.6.39-4.8,7.55a38.3,38.3,0,0,0,2.28,13.46s5,9.67,10,12.7,14.79,12.08,16.11,12.17S1627,580.73,1627,580.73Z"/><rect class="cls-2" x="1061.7" y="352.49" width="107.91" height="31.29" transform="translate(-50.2 223.25) rotate(-11.18)"/><rect class="cls-2" x="1047.08" y="689.38" width="107.91" height="31.29" transform="translate(-115.78 226.81) rotate(-11.18)"/><rect class="cls-2" x="1200.8" y="998.12" width="130.46" height="61.74" transform="translate(-175.45 264.94) rotate(-11.18)"/><rect class="cls-2" x="1592.4" y="615.33" width="116.32" height="22.09" transform="translate(338.35 -554.64) rotate(21.21)"/><rect class="cls-4" x="1584.69" y="638.82" width="127" height="46.53" transform="translate(351.11 -551.37) rotate(21.21)"/><path d="M1671.11,533c0,7.5-5.66,18.11-20,18.11S1630,540.21,1630,532.71s6.82-1.51,21.13-1.51S1671.11,525.46,1671.11,533Z"/><path class="cls-18" d="M1660.88,548.19c0,1.85-5.32,2.88-9.65,2.88s-9.19-1-9.19-2.88,4.85-3.83,9.19-3.83S1660.88,546.34,1660.88,548.19Z"/></g></svg>
