<svg xmlns="http://www.w3.org/2000/svg" width="393.56" height="129.69" viewBox="0 0 393.56 129.69"><defs><style>.cls-1{fill:#ff73a0;}.cls-2{fill:#fff;}</style></defs><g id="Layer_3" data-name="Layer 3"><rect width="385.99" height="123.16" rx="47.43"/><rect class="cls-1" x="7.56" y="6.53" width="385.99" height="123.16" rx="47.43"/><path d="M59.18,45.13H88.93a1.26,1.26,0,0,1,1.26,1.26v6a1.26,1.26,0,0,1-1.26,1.26H80.62a1.26,1.26,0,0,0-1.26,1.26V78.23a1.25,1.25,0,0,1-1.26,1.26H70a1.25,1.25,0,0,1-1.26-1.26V54.88a1.26,1.26,0,0,0-1.26-1.26H59.18a1.26,1.26,0,0,1-1.26-1.26v-6A1.26,1.26,0,0,1,59.18,45.13Z"/><path d="M95.14,78.23V46.39a1.26,1.26,0,0,1,1.26-1.26h16.43a25.84,25.84,0,0,1,7.53.85,8,8,0,0,1,4.19,3.13,9.49,9.49,0,0,1,1.59,5.56,9.19,9.19,0,0,1-4.57,8.3,6.12,6.12,0,0,1-.81.42,1.26,1.26,0,0,0-.17,2.19l0,0a10.64,10.64,0,0,1,1.69,1.8,13.34,13.34,0,0,1,1.49,2.14L128,77.66a1.25,1.25,0,0,1-1.11,1.83h-9.18a1.25,1.25,0,0,1-1.11-.66L111.26,69a7.92,7.92,0,0,0-1.92-2.64,4.4,4.4,0,0,0-2.6-.8h-.94V78.23a1.25,1.25,0,0,1-1.26,1.26H96.4A1.25,1.25,0,0,1,95.14,78.23ZM105.8,57.8a1.26,1.26,0,0,0,1.26,1.26h3.22a16.33,16.33,0,0,0,2.81-.47,2.79,2.79,0,0,0,1.72-1.08,3.15,3.15,0,0,0,.67-2,3.18,3.18,0,0,0-1-2.56c-.71-.59-2-.89-4-.89h-3.4a1.26,1.26,0,0,0-1.26,1.26Z"/><path d="M129.16,45.13h8.72a1.27,1.27,0,0,1,1.08.62l5.48,9.17a1.26,1.26,0,0,0,2.16,0l5.49-9.17a1.25,1.25,0,0,1,1.08-.62h8.66a1.26,1.26,0,0,1,1,2L151,64.79a1.24,1.24,0,0,0-.22.7V78.23a1.25,1.25,0,0,1-1.26,1.26h-8.12a1.26,1.26,0,0,1-1.26-1.26V65.49a1.28,1.28,0,0,0-.21-.71L128.11,47.1A1.27,1.27,0,0,1,129.16,45.13Z"/><path d="M203.19,73.82h-8.94a2.09,2.09,0,0,0-2,1.5L191.45,78a2.09,2.09,0,0,1-2,1.5h-6.26a2.09,2.09,0,0,1-2-2.82l11.34-30.18a2.1,2.1,0,0,1,2-1.36h8.68a2.08,2.08,0,0,1,2,1.36l11.34,30.18a2.08,2.08,0,0,1-2,2.82H208A2.08,2.08,0,0,1,206,78l-.82-2.7A2.09,2.09,0,0,0,203.19,73.82ZM201.7,63.69l-.95-3.11a2.09,2.09,0,0,0-4,0l-.94,3.1a2.09,2.09,0,0,0,2,2.7h1.9A2.08,2.08,0,0,0,201.7,63.69Z"/><path d="M237.36,65.79V61.16a1.25,1.25,0,0,1,1.26-1.26H252.5a1.25,1.25,0,0,1,1.26,1.26V73.87a1.26,1.26,0,0,1-.57,1.06,32.43,32.43,0,0,1-7.76,4,28.38,28.38,0,0,1-8.59,1.16,20.87,20.87,0,0,1-10-2.09,14.26,14.26,0,0,1-6-6.21,20.45,20.45,0,0,1-2.12-9.47,19.71,19.71,0,0,1,2.32-9.78,15.06,15.06,0,0,1,6.8-6.32,22.09,22.09,0,0,1,9.4-1.66,26.29,26.29,0,0,1,8.51,1,11,11,0,0,1,4.69,3.2,13.12,13.12,0,0,1,2.34,4.07,1.27,1.27,0,0,1-1,1.68l-7.81,1.4a1.28,1.28,0,0,1-1.35-.69,5.2,5.2,0,0,0-1.79-2.11,6.7,6.7,0,0,0-3.86-1,7,7,0,0,0-5.57,2.42q-2.07,2.43-2.07,7.68c0,3.72.7,6.37,2.1,8a7.39,7.39,0,0,0,5.85,2.39,11.18,11.18,0,0,0,3.39-.52,16.54,16.54,0,0,0,3.07-1.39,1.28,1.28,0,0,0,.64-1.1V68.31a1.26,1.26,0,0,0-1.26-1.26h-4.58A1.26,1.26,0,0,1,237.36,65.79Z"/><path d="M279.46,73.82h-8.58a2.34,2.34,0,0,0-2.24,1.68L268,77.82a2.35,2.35,0,0,1-2.24,1.67H260a2.33,2.33,0,0,1-2.18-3.15L269,46.65a2.33,2.33,0,0,1,2.18-1.52h8.35a2.33,2.33,0,0,1,2.18,1.52l11.16,29.69a2.33,2.33,0,0,1-2.18,3.15h-6a2.33,2.33,0,0,1-2.23-1.65l-.72-2.36A2.34,2.34,0,0,0,279.46,73.82Zm-1.4-10.45-.62-2a2.34,2.34,0,0,0-4.47,0l-.61,2a2.33,2.33,0,0,0,2.23,3h1.24A2.33,2.33,0,0,0,278.06,63.37Z"/><path d="M299.08,45.13h8.13a1.26,1.26,0,0,1,1.25,1.26V78.23a1.25,1.25,0,0,1-1.25,1.26h-8.13a1.26,1.26,0,0,1-1.26-1.26V46.39A1.27,1.27,0,0,1,299.08,45.13Z"/><path d="M317.77,45.13h7.44a1.62,1.62,0,0,1,1.34.71l9.5,14A1.62,1.62,0,0,0,339,58.9V46.75a1.63,1.63,0,0,1,1.62-1.62h6.78A1.62,1.62,0,0,1,349,46.75V77.88a1.61,1.61,0,0,1-1.61,1.61h-7.54a1.61,1.61,0,0,1-1.34-.7L329.09,65a1.62,1.62,0,0,0-2.95.91v12a1.62,1.62,0,0,1-1.62,1.61h-6.75a1.62,1.62,0,0,1-1.62-1.61V46.75A1.63,1.63,0,0,1,317.77,45.13Z"/><path class="cls-2" d="M61.18,47.13H90.93a1.26,1.26,0,0,1,1.26,1.26v6a1.26,1.26,0,0,1-1.26,1.26H82.62a1.26,1.26,0,0,0-1.26,1.26V80.23a1.25,1.25,0,0,1-1.26,1.26H72a1.25,1.25,0,0,1-1.26-1.26V56.88a1.26,1.26,0,0,0-1.26-1.26H61.18a1.26,1.26,0,0,1-1.26-1.26v-6A1.26,1.26,0,0,1,61.18,47.13Z"/><path class="cls-2" d="M97.14,80.23V48.39a1.26,1.26,0,0,1,1.26-1.26h16.43a25.84,25.84,0,0,1,7.53.85,8,8,0,0,1,4.19,3.13,9.7,9.7,0,0,1-3,13.86,6.12,6.12,0,0,1-.81.42,1.26,1.26,0,0,0-.17,2.19l0,0a10.64,10.64,0,0,1,1.69,1.8,13.34,13.34,0,0,1,1.49,2.14L130,79.66a1.25,1.25,0,0,1-1.11,1.83h-9.18a1.25,1.25,0,0,1-1.11-.66L113.26,71a7.92,7.92,0,0,0-1.92-2.64,4.4,4.4,0,0,0-2.6-.8h-.94V80.23a1.25,1.25,0,0,1-1.26,1.26H98.4A1.25,1.25,0,0,1,97.14,80.23ZM107.8,59.8a1.26,1.26,0,0,0,1.26,1.26h3.22a16.33,16.33,0,0,0,2.81-.47,2.79,2.79,0,0,0,1.72-1.08,3.15,3.15,0,0,0,.67-2,3.18,3.18,0,0,0-1-2.56c-.71-.59-2-.89-4-.89h-3.4a1.26,1.26,0,0,0-1.26,1.26Z"/><path class="cls-2" d="M131.16,47.13h8.72a1.27,1.27,0,0,1,1.08.62l5.48,9.17a1.26,1.26,0,0,0,2.16,0l5.49-9.17a1.25,1.25,0,0,1,1.08-.62h8.66a1.26,1.26,0,0,1,1,2L153,66.79a1.24,1.24,0,0,0-.22.7V80.23a1.25,1.25,0,0,1-1.26,1.26h-8.12a1.26,1.26,0,0,1-1.26-1.26V67.49a1.28,1.28,0,0,0-.21-.71L130.11,49.1A1.27,1.27,0,0,1,131.16,47.13Z"/><path class="cls-2" d="M205.19,75.82h-8.94a2.09,2.09,0,0,0-2,1.5L193.45,80a2.09,2.09,0,0,1-2,1.5h-6.26a2.09,2.09,0,0,1-2-2.82l11.34-30.18a2.1,2.1,0,0,1,2-1.36h8.68a2.08,2.08,0,0,1,2,1.36l11.34,30.18a2.08,2.08,0,0,1-2,2.82H210A2.08,2.08,0,0,1,208,80l-.82-2.7A2.09,2.09,0,0,0,205.19,75.82ZM203.7,65.69l-.95-3.11a2.09,2.09,0,0,0-4,0l-.94,3.1a2.09,2.09,0,0,0,2,2.7h1.9A2.08,2.08,0,0,0,203.7,65.69Z"/><path class="cls-2" d="M239.36,67.79V63.16a1.25,1.25,0,0,1,1.26-1.26H254.5a1.25,1.25,0,0,1,1.26,1.26V75.87a1.26,1.26,0,0,1-.57,1.06,32.43,32.43,0,0,1-7.76,4,28.38,28.38,0,0,1-8.59,1.16,20.87,20.87,0,0,1-10-2.09,14.26,14.26,0,0,1-6-6.21,20.45,20.45,0,0,1-2.12-9.47,19.71,19.71,0,0,1,2.32-9.78,15.06,15.06,0,0,1,6.8-6.32,22.09,22.09,0,0,1,9.4-1.66,26.29,26.29,0,0,1,8.51,1,11,11,0,0,1,4.69,3.2,13.12,13.12,0,0,1,2.34,4.07,1.27,1.27,0,0,1-1,1.68l-7.81,1.4a1.28,1.28,0,0,1-1.35-.69,5.2,5.2,0,0,0-1.79-2.11,6.7,6.7,0,0,0-3.86-1,7,7,0,0,0-5.57,2.42q-2.07,2.43-2.07,7.68c0,3.72.7,6.37,2.1,8a7.39,7.39,0,0,0,5.85,2.39,11.18,11.18,0,0,0,3.39-.52,16.54,16.54,0,0,0,3.07-1.39,1.28,1.28,0,0,0,.64-1.1V70.31a1.26,1.26,0,0,0-1.26-1.26h-4.58A1.26,1.26,0,0,1,239.36,67.79Z"/><path class="cls-2" d="M281.46,75.82h-8.58a2.34,2.34,0,0,0-2.24,1.68L270,79.82a2.35,2.35,0,0,1-2.24,1.67H262a2.33,2.33,0,0,1-2.18-3.15L271,48.65a2.33,2.33,0,0,1,2.18-1.52h8.35a2.33,2.33,0,0,1,2.18,1.52l11.16,29.69a2.33,2.33,0,0,1-2.18,3.15h-6a2.33,2.33,0,0,1-2.23-1.65l-.72-2.36A2.34,2.34,0,0,0,281.46,75.82Zm-1.4-10.45-.62-2a2.34,2.34,0,0,0-4.47,0l-.61,2a2.33,2.33,0,0,0,2.23,3h1.24A2.33,2.33,0,0,0,280.06,65.37Z"/><path class="cls-2" d="M301.08,47.13h8.13a1.26,1.26,0,0,1,1.25,1.26V80.23a1.25,1.25,0,0,1-1.25,1.26h-8.13a1.26,1.26,0,0,1-1.26-1.26V48.39A1.27,1.27,0,0,1,301.08,47.13Z"/><path class="cls-2" d="M319.77,47.13h7.44a1.62,1.62,0,0,1,1.34.71l9.5,14A1.62,1.62,0,0,0,341,60.9V48.75a1.63,1.63,0,0,1,1.62-1.62h6.78A1.62,1.62,0,0,1,351,48.75V79.88a1.61,1.61,0,0,1-1.61,1.61h-7.54a1.61,1.61,0,0,1-1.34-.7L331.09,67a1.62,1.62,0,0,0-2.95.91v12a1.62,1.62,0,0,1-1.62,1.61h-6.75a1.62,1.62,0,0,1-1.62-1.61V48.75A1.63,1.63,0,0,1,319.77,47.13Z"/></g></svg>
