<svg xmlns="http://www.w3.org/2000/svg" xmlns:xlink="http://www.w3.org/1999/xlink" width="1920" height="1080" viewBox="0 0 1920 1080"><defs><style>.cls-1{fill:url(#radial-gradient);}.cls-2{fill:#231f20;}.cls-3{fill:#f5db12;}.cls-4{fill:#fff;}.cls-5,.cls-6{fill:#f5e0cd;}.cls-6{stroke:#000;stroke-miterlimit:10;}.cls-7{fill:#9b74d0;}.cls-8{fill:none;}</style><radialGradient id="radial-gradient" cx="960" cy="540" r="778.85" gradientUnits="userSpaceOnUse"><stop offset="0" stop-color="#e36ea6"/><stop offset="0.36" stop-color="#ffaaf8"/><stop offset="1" stop-color="#e36ea6"/></radialGradient></defs><g id="Layer_2" data-name="Layer 2"><rect class="cls-1" width="1920" height="1080"/><path class="cls-2" d="M1015.21,435.55c-.32-1.48-.64-3-1-4.43-.26-1.11-.53-2.22-.85-3.32a10.25,10.25,0,0,1-.46-1.33l-.16-.33c-1.4-2.66-3.43-4.91-5.07-7.42-2.42-2.66-5.26-5.42-8.4-8.38C941.41,356.05,723,319,723,319,654.79,146.08,606.25,94,577.22,81a51.11,51.11,0,0,0-16.54-2.28l-2.2.11a39.1,39.1,0,0,0-9.33,1.93c-.64.27-1.25.58-1.91.82l-.93.44a13,13,0,0,0-1.56,1.39c-59,30.13-151.25,250.42-151.25,250.42s-252.95,8.51-272.08,89.28S310.6,639.91,310.6,639.91s-51.67,275,2.13,300.9c65.6,31.65,234-87.82,245.85-96.33a19.77,19.77,0,0,1,7.26-5.94,20.07,20.07,0,0,1,8.64-2.23,6.23,6.23,0,0,1,5.74,1.32c5.08,4.23,10.55,8,15.9,11.87.48.23.92.52,1.41.73a3.45,3.45,0,0,1,1.05.7c175.5,101.4,209.5,97.14,256.17,75.93s2.12-287,2.12-287C1000.12,489.31,1012.16,484.37,1015.21,435.55Z"/><path class="cls-3" d="M1050.94,435.56c-.32-1.48-.64-3-1-4.44-.26-1.11-.53-2.22-.85-3.32a9.75,9.75,0,0,1-.46-1.33l-.16-.32c-1.4-2.67-3.43-4.92-5.07-7.43-2.42-2.65-5.25-5.42-8.4-8.37C977.14,356.05,758.69,319,758.69,319,690.52,146.08,642,94,613,81a51.11,51.11,0,0,0-16.54-2.28l-2.19.12a38.6,38.6,0,0,0-9.34,1.93c-.64.26-1.25.58-1.91.81L582,82a12.54,12.54,0,0,0-1.56,1.38c-59,30.14-151.25,250.43-151.25,250.43s-252.94,8.5-272.07,89.27S346.33,639.91,346.33,639.91s-51.67,275,2.13,300.9c65.6,31.65,234-87.82,245.85-96.33a21.33,21.33,0,0,1,15.9-8.16,6.23,6.23,0,0,1,5.74,1.31c5.08,4.24,10.55,8,15.9,11.87.48.23.92.53,1.41.74a3.61,3.61,0,0,1,1,.69c175.51,101.4,209.5,97.15,256.17,75.93s2.12-287,2.12-287C1035.85,489.31,1047.89,484.37,1050.94,435.56Z"/><path d="M375.19,949c-10.47,0-19.93-1.71-28-5.59-53.35-25.74-8.87-275.87-4-302.13-20.75-13.73-207.49-139.87-188.8-218.79,18.75-79.2,248.18-90.41,272.92-91.39,9.26-21.9,94.25-220,151.45-250a16.63,16.63,0,0,1,1.54-1.33l1.46-.76c.57-.22.89-.37,1.21-.51l.82-.36A41.87,41.87,0,0,1,594,76l2.29-.12a54,54,0,0,1,17.52,2.4c29.47,13.15,78.54,65.06,147,238.15,21.4,3.71,220.32,39.42,276.21,91.85,3.75,3.52,6.39,6.15,8.56,8.53.88,1.27,1.53,2.15,2.18,3a38,38,0,0,1,3.31,5l.83,2.14c.33,1.18.62,2.34.89,3.5l1.08,4.86,0,.39c-2.68,42.88-12.4,53-105.39,149.95-15.22,15.86-32.69,34.07-52.75,55.16,3.82,23.15,42.92,267.29-4,288.6-50.57,23-88.13,22.53-258.76-76.06l-.53-.39-1.3-.7-.87-.5-3.62-2.6c-4.13-3-8.41-6-12.44-9.38A3.39,3.39,0,0,0,611,839l-.82.12h0a17.22,17.22,0,0,0-7.35,1.93,17,17,0,0,0-6.23,5.07l-.63.63C579.73,858.44,451.15,949,375.19,949ZM598,81.52q-.75,0-1.5,0l-2.13.1a36.14,36.14,0,0,0-8.58,1.79l-.49.22c-.45.21-.91.41-1.39.58l-.37.2a8.82,8.82,0,0,0-1,.86l-.82.63c-57.44,29.32-149,246.8-149.93,249l-.7,1.68-1.82.06c-2.51.09-251,9.34-269.4,87.1-18.46,77.92,185.9,212.43,188,213.77l1.58,1-.34,1.86c-.13.69-13,69.46-19.08,140.48C320,898.26,335.16,931.25,349.69,938.26c63.74,30.7,231.4-87.82,242.62-95.83a22.75,22.75,0,0,1,8-6.42,23,23,0,0,1,9.51-2.52,9.08,9.08,0,0,1,7.94,2c3.86,3.22,8.06,6.23,12.12,9.13l4,2.77a4.87,4.87,0,0,0,.56.28,6.25,6.25,0,0,1,1.58,1c176.61,102,208.33,96.1,253.33,75.66,36.74-16.7,12.82-210.6.51-283.9l-.24-1.4,1-1c20.47-21.52,38.27-40.07,53.74-56.2,91.4-95.27,101.21-105.5,103.8-146l-.89-4c-.25-1.07-.51-2.13-.81-3.18a10.6,10.6,0,0,1-.41-1.11,34.79,34.79,0,0,0-2.84-4.27c-.72-1-1.44-1.93-2.09-2.94-1.79-1.91-4.34-4.44-8-7.85-56.59-53.1-272.69-90.3-274.86-90.67l-1.58-.27-.58-1.49c-68-172.5-116-223.77-144.26-236.41A48.4,48.4,0,0,0,598,81.52Z"/></g><g id="Layer_3" data-name="Layer 3"><path d="M317.82,467.93H334.4a2.39,2.39,0,0,1,2.05,1.16l10.41,17.43a2.39,2.39,0,0,0,4.1,0l10.44-17.43a2.39,2.39,0,0,1,2.05-1.16h16.46a2.39,2.39,0,0,1,2,3.72l-22.5,33.62a2.41,2.41,0,0,0-.4,1.33v24.23a2.39,2.39,0,0,1-2.4,2.39H341.17a2.4,2.4,0,0,1-2.4-2.39V506.6a2.41,2.41,0,0,0-.4-1.33l-22.53-33.62A2.39,2.39,0,0,1,317.82,467.93Z"/><path d="M382.87,500.62q0-16,8.91-24.9t24.81-8.91q16.31,0,25.12,8.75t8.82,24.52q0,11.46-3.85,18.78a27.5,27.5,0,0,1-11.14,11.4q-7.28,4.08-18.15,4.08-11,0-18.28-3.52a27.54,27.54,0,0,1-11.74-11.14Q382.87,512.08,382.87,500.62Zm20.18.09q0,9.89,3.67,14.21a12.45,12.45,0,0,0,10,4.32q6.51,0,10.07-4.23t3.56-15.19q0-9.22-3.72-13.48a12.72,12.72,0,0,0-10.08-4.25,12.25,12.25,0,0,0-9.8,4.32Q403,490.73,403.05,500.71Z"/><path d="M506.28,467.93h15.35a2.4,2.4,0,0,1,2.4,2.39v36.51a33.67,33.67,0,0,1-1.09,8.6,25.66,25.66,0,0,1-8.61,13.33,20.85,20.85,0,0,1-5.85,3.4,40.8,40.8,0,0,1-14.12,2.18,90,90,0,0,1-10.4-.67,27.28,27.28,0,0,1-9.42-2.65,23.65,23.65,0,0,1-6.93-5.63,20.83,20.83,0,0,1-4.3-7.52,39.31,39.31,0,0,1-1.87-11V470.32a2.39,2.39,0,0,1,2.4-2.39h15.34a2.39,2.39,0,0,1,2.4,2.39v37.43c0,3.57,1,6.35,3,8.35s4.71,3,8.22,3,6.2-1,8.17-3,3-4.77,3-8.4V470.32A2.39,2.39,0,0,1,506.28,467.93Z"/><path d="M568.08,470.32a2.39,2.39,0,0,1,2.39-2.39h27.58q8.87,0,14.32,2.4a23.27,23.27,0,0,1,9,6.9,28.55,28.55,0,0,1,5.17,10.47,48.56,48.56,0,0,1,1.6,12.65q0,10.47-2.38,16.24a26.93,26.93,0,0,1-6.61,9.66,21.54,21.54,0,0,1-9.09,5.19,46.66,46.66,0,0,1-12,1.78H570.47a2.39,2.39,0,0,1-2.39-2.39Zm20.17,14.78V516a2.4,2.4,0,0,0,2.4,2.39h2.55c4.22,0,7.21-.47,9-1.4a9.54,9.54,0,0,0,4.18-4.9q1.51-3.5,1.52-11.34,0-10.38-3.39-14.21c-2.25-2.55-6-3.83-11.22-3.83h-2.64A2.4,2.4,0,0,0,588.25,485.1Z"/><path d="M642,467.93H657.4a2.39,2.39,0,0,1,2.39,2.39v60.51a2.39,2.39,0,0,1-2.39,2.39H642a2.39,2.39,0,0,1-2.39-2.39V470.32A2.39,2.39,0,0,1,642,467.93Z"/><path d="M674.53,470.32a2.39,2.39,0,0,1,2.39-2.39h27.59q8.87,0,14.32,2.4a23.34,23.34,0,0,1,9,6.9A28.55,28.55,0,0,1,733,487.7a48.56,48.56,0,0,1,1.6,12.65q0,10.47-2.38,16.24a27,27,0,0,1-6.62,9.66,21.57,21.57,0,0,1-9.08,5.19,46.78,46.78,0,0,1-12,1.78H676.92a2.39,2.39,0,0,1-2.39-2.39Zm20.18,14.78V516a2.39,2.39,0,0,0,2.39,2.39h2.55q6.33,0,9-1.4a9.55,9.55,0,0,0,4.19-4.9q1.51-3.5,1.51-11.34,0-10.38-3.38-14.21t-11.23-3.83H697.1A2.39,2.39,0,0,0,694.71,485.1Z"/><path d="M778.84,467.93h15.44a2.39,2.39,0,0,1,2.39,2.39v60.51a2.39,2.39,0,0,1-2.39,2.39H778.84a2.4,2.4,0,0,1-2.4-2.39V470.32A2.4,2.4,0,0,1,778.84,467.93Z"/><path d="M809,467.93H865.5a2.39,2.39,0,0,1,2.39,2.39v11.34a2.39,2.39,0,0,1-2.39,2.39H849.7a2.39,2.39,0,0,0-2.39,2.39v44.39a2.39,2.39,0,0,1-2.39,2.39H829.53a2.39,2.39,0,0,1-2.4-2.39V486.44a2.39,2.39,0,0,0-2.39-2.39H809a2.39,2.39,0,0,1-2.39-2.39V470.32A2.39,2.39,0,0,1,809,467.93Z"/><path d="M878.25,467.93h14.6a2.39,2.39,0,0,1,2.39,2.39v12.33c0,.1,0,.2,0,.3l-3.46,27.65a2.39,2.39,0,0,1-2.37,2.09h-7.76a2.39,2.39,0,0,1-2.37-2.1L875.88,483c0-.1,0-.2,0-.29V470.32A2.39,2.39,0,0,1,878.25,467.93Zm.67,49.3h13.3a2.4,2.4,0,0,1,2.4,2.4v11.2a2.4,2.4,0,0,1-2.4,2.39h-13.3a2.39,2.39,0,0,1-2.39-2.39v-11.2A2.39,2.39,0,0,1,878.92,517.23Z"/><path class="cls-4" d="M321.82,469.93H338.4a2.39,2.39,0,0,1,2.05,1.16l10.41,17.43a2.39,2.39,0,0,0,4.1,0l10.44-17.43a2.39,2.39,0,0,1,2.05-1.16h16.46a2.39,2.39,0,0,1,2,3.72l-22.5,33.62a2.41,2.41,0,0,0-.4,1.33v24.23a2.39,2.39,0,0,1-2.4,2.39H345.17a2.4,2.4,0,0,1-2.4-2.39V508.6a2.41,2.41,0,0,0-.4-1.33l-22.53-33.62A2.39,2.39,0,0,1,321.82,469.93Z"/><path class="cls-4" d="M386.87,502.62q0-16,8.91-24.9t24.81-8.91q16.31,0,25.12,8.75t8.82,24.52q0,11.46-3.85,18.78a27.5,27.5,0,0,1-11.14,11.4q-7.28,4.08-18.15,4.08-11,0-18.28-3.52a27.54,27.54,0,0,1-11.74-11.14Q386.87,514.08,386.87,502.62Zm20.18.09q0,9.89,3.67,14.21a12.45,12.45,0,0,0,10,4.32q6.51,0,10.07-4.23t3.56-15.19q0-9.22-3.72-13.48a12.72,12.72,0,0,0-10.08-4.25,12.25,12.25,0,0,0-9.8,4.32Q407,492.73,407.05,502.71Z"/><path class="cls-4" d="M510.28,469.93h15.35a2.4,2.4,0,0,1,2.4,2.39v36.51a33.67,33.67,0,0,1-1.09,8.6,25.66,25.66,0,0,1-8.61,13.33,20.85,20.85,0,0,1-5.85,3.4,40.8,40.8,0,0,1-14.12,2.18,90,90,0,0,1-10.4-.67,27.28,27.28,0,0,1-9.42-2.65,23.65,23.65,0,0,1-6.93-5.63,20.83,20.83,0,0,1-4.3-7.52,39.31,39.31,0,0,1-1.87-11V472.32a2.39,2.39,0,0,1,2.4-2.39h15.34a2.39,2.39,0,0,1,2.4,2.39v37.43c0,3.57,1,6.35,3,8.35s4.71,3,8.22,3,6.2-1,8.17-3,3-4.77,3-8.4V472.32A2.39,2.39,0,0,1,510.28,469.93Z"/><path class="cls-4" d="M572.08,472.32a2.39,2.39,0,0,1,2.39-2.39h27.58q8.87,0,14.32,2.4a23.27,23.27,0,0,1,9,6.9,28.55,28.55,0,0,1,5.17,10.47,48.56,48.56,0,0,1,1.6,12.65q0,10.47-2.38,16.24a26.93,26.93,0,0,1-6.61,9.66,21.54,21.54,0,0,1-9.09,5.19,46.66,46.66,0,0,1-12,1.78H574.47a2.39,2.39,0,0,1-2.39-2.39Zm20.17,14.78V518a2.4,2.4,0,0,0,2.4,2.39h2.55c4.22,0,7.21-.47,9-1.4a9.54,9.54,0,0,0,4.18-4.9q1.51-3.5,1.52-11.34,0-10.38-3.39-14.21c-2.25-2.55-6-3.83-11.22-3.83h-2.64A2.4,2.4,0,0,0,592.25,487.1Z"/><path class="cls-4" d="M646,469.93H661.4a2.39,2.39,0,0,1,2.39,2.39v60.51a2.39,2.39,0,0,1-2.39,2.39H646a2.39,2.39,0,0,1-2.39-2.39V472.32A2.39,2.39,0,0,1,646,469.93Z"/><path class="cls-4" d="M678.53,472.32a2.39,2.39,0,0,1,2.39-2.39h27.59q8.87,0,14.32,2.4a23.34,23.34,0,0,1,9,6.9A28.55,28.55,0,0,1,737,489.7a48.56,48.56,0,0,1,1.6,12.65q0,10.47-2.38,16.24a27,27,0,0,1-6.62,9.66,21.57,21.57,0,0,1-9.08,5.19,46.78,46.78,0,0,1-12,1.78H680.92a2.39,2.39,0,0,1-2.39-2.39Zm20.18,14.78V518a2.39,2.39,0,0,0,2.39,2.39h2.55q6.33,0,9-1.4a9.55,9.55,0,0,0,4.19-4.9q1.51-3.5,1.51-11.34,0-10.38-3.38-14.21t-11.23-3.83H701.1A2.39,2.39,0,0,0,698.71,487.1Z"/><path class="cls-4" d="M782.84,469.93h15.44a2.39,2.39,0,0,1,2.39,2.39v60.51a2.39,2.39,0,0,1-2.39,2.39H782.84a2.4,2.4,0,0,1-2.4-2.39V472.32A2.4,2.4,0,0,1,782.84,469.93Z"/><path class="cls-4" d="M813,469.93H869.5a2.39,2.39,0,0,1,2.39,2.39v11.34a2.39,2.39,0,0,1-2.39,2.39H853.7a2.39,2.39,0,0,0-2.39,2.39v44.39a2.39,2.39,0,0,1-2.39,2.39H833.53a2.39,2.39,0,0,1-2.4-2.39V488.44a2.39,2.39,0,0,0-2.39-2.39H813a2.39,2.39,0,0,1-2.39-2.39V472.32A2.39,2.39,0,0,1,813,469.93Z"/><path class="cls-4" d="M882.25,469.93h14.6a2.39,2.39,0,0,1,2.39,2.39v12.33c0,.1,0,.2,0,.3l-3.46,27.65a2.39,2.39,0,0,1-2.37,2.09h-7.76a2.39,2.39,0,0,1-2.37-2.1L879.88,485c0-.1,0-.2,0-.29V472.32A2.39,2.39,0,0,1,882.25,469.93Zm.67,49.3h13.3a2.4,2.4,0,0,1,2.4,2.4v11.2a2.4,2.4,0,0,1-2.4,2.39h-13.3a2.39,2.39,0,0,1-2.39-2.39v-11.2A2.39,2.39,0,0,1,882.92,519.23Z"/><path class="cls-5" d="M934.19,855.73s-8.78,37.52-9.18,42.71-6,18.35-8,54.27,17.16,37.12,17.16,37.12,21.15,1.2,21.55-20.75,0-55.08,0-55.08h14l5.19,31.13s11.17,53.48,29.93,57.07,33.52,1.6,30.73-20S1014,921.18,1014,921.18L996.45,871.7l-3.59-21.55-59.07,2.79Z"/><path d="M1017.79,1004.15a70.61,70.61,0,0,1-13.06-1.45c-18.87-3.61-29.87-55.27-30.33-57.46l-5.12-30.73h-13c0,4.31.36,34.36,0,54.57-.13,6.76-2.2,12-6.16,15.72-6.47,6-15.55,5.57-15.94,5.54-.2,0-19.64-1.65-17.64-37.65,1.47-26.5,4.91-40.71,6.76-48.34a45.2,45.2,0,0,0,1.22-6c.39-5.09,8.58-40.16,9.17-42.69l-.47-3.26,60.09-2.84,3.67,22,17.53,49.4c.17.35,18.81,39.79,21.58,61.17,1,8.1-.35,14-4.15,17.61C1028.82,1002.7,1024.22,1004.15,1017.79,1004.15Zm-62.57-90.66h14.92l5.27,31.56c.1.51,11.31,53.16,29.52,56.65,13.3,2.55,21.66,1.7,26.29-2.66,3.6-3.39,4.85-8.86,3.83-16.73-2.75-21.22-21.32-60.51-21.5-60.9L996,871.87l-3.54-21.19-58,2.75.33,2.33,0,.09c-.09.38-8.78,37.54-9.17,42.63a44.31,44.31,0,0,1-1.24,6.11c-1.84,7.6-5.27,21.74-6.74,48.15-1.94,34.93,16.5,36.56,16.68,36.58s9,.43,15.19-5.27c3.74-3.48,5.7-8.52,5.82-15,.39-21.69,0-54.73,0-55.06Z"/><ellipse class="cls-6" cx="964.85" cy="738.86" rx="153" ry="122.66"/><circle class="cls-4" cx="1048.09" cy="732.08" r="69.19"/><path d="M1048.09,801.84a69.76,69.76,0,1,1,69.76-69.76A69.84,69.84,0,0,1,1048.09,801.84Zm0-138.39a68.63,68.63,0,1,0,68.63,68.63A68.7,68.7,0,0,0,1048.09,663.45Z"/><circle class="cls-7" cx="1044.58" cy="734.34" r="64.34"/><circle cx="1033.69" cy="741.29" r="52.01"/><circle class="cls-4" cx="1008.94" cy="751.18" r="19.1"/><circle class="cls-4" cx="881.6" cy="734.34" r="69.19"/><path d="M813,734.34A68.51,68.51,0,0,1,837.22,682c-.12-.39-.23-.78-.35-1.17A69.62,69.62,0,0,0,833.7,785c.29-.25.56-.51.83-.78A68.41,68.41,0,0,1,813,734.34Z"/><path d="M948.61,715l-1.23-.15a68.13,68.13,0,0,1,1.74,7.17,68.59,68.59,0,0,1-114.59,62.21c-.27.27-.54.53-.83.78a69.72,69.72,0,0,0,114.91-70Z"/><path d="M844,677a68.58,68.58,0,0,1,103.38,37.87l1.23.15a69.7,69.7,0,0,0-111.74-34.11c.12.39.23.78.35,1.17A70.43,70.43,0,0,1,844,677Z"/><circle class="cls-7" cx="885.11" cy="736.61" r="64.34"/><circle cx="896.01" cy="743.55" r="52.01"/><circle class="cls-4" cx="917.4" cy="753.44" r="19.1"/><path d="M1103.28,784.29s-20-10.55-57.47-13.84S987,800.89,987,800.89l55.69,22.58Z"/><path class="cls-5" d="M1103.28,785.66s-20-10.55-57.47-13.84S987,802.25,987,802.25l55.69,22.59Z"/><line class="cls-8" x1="945.76" y1="706.95" x2="954.67" y2="711.9"/><path d="M822.72,778.39s21.27-8.09,59.16-6.88,55.24,37.25,55.24,37.25l-58.44,15.77Z"/><path class="cls-5" d="M822.72,779.4s21.23-8.09,59-6.88,55.13,37.23,55.13,37.23l-58.33,15.78Z"/><path class="cls-5" d="M928.62,879.16s-39.51-40.08-44.1-54.8c-4.67-15-7.73-22.66-1.6-35.48S907,792.06,907,792.06s14.87,21,17.1,31.6,12.31,39.9,12.31,39.9Z"/><path d="M928.8,880.32l-.67-.68c-1.62-1.64-39.68-40.37-44.26-55.07L883,821.9c-4.26-13.56-6.61-21-.74-33.31a8.61,8.61,0,0,1,6.17-5.18c7.95-1.6,18.55,7.75,19,8.14l.11.12c.61.86,15,21.24,17.21,31.85C927,833.94,937,863,937.06,863.34l.1.27Zm-38.41-95.73a8.17,8.17,0,0,0-1.65.16,7.32,7.32,0,0,0-5.21,4.43c-5.64,11.79-3.35,19.08.81,32.31l.84,2.67c4.15,13.35,38,48.48,43.25,53.84l7.25-14.49c-1-3-10.14-29.75-12.24-39.71s-16-30-16.94-31.28C905.71,791.84,897.2,784.59,890.39,784.59Z"/><path class="cls-5" d="M994.77,859.33s28.77-31.63,33.59-37.89c0,0,11.28-23.65,16.39-33.32s15.86-7.26,15.86-7.26,9.13,2.42,7,16.93a78.52,78.52,0,0,1-9.4,26.34s-13.44,17.73-24.73,22S999.34,865.24,996.65,865,994.77,859.33,994.77,859.33Z"/><path d="M996.7,865.66h-.12a2.41,2.41,0,0,1-1.69-.94c-1.32-1.7-.85-5.1-.8-5.48l0-.21.14-.15c.29-.32,28.64-31.49,33.51-37.79.67-1.39,11.45-24,16.38-33.28,5.28-10,16.49-7.63,16.6-7.6s9.73,2.75,7.52,17.69a80,80,0,0,1-9.5,26.59c-.59.79-13.72,18-25.06,22.32-5.8,2.21-14.59,7.16-22.34,11.52C1002.88,863.11,998.28,865.66,996.7,865.66Zm-1.28-6c-.12,1-.21,3.26.55,4.24a1,1,0,0,0,.75.42h0c1.23,0,8-3.8,13.94-7.16,7.79-4.39,16.63-9.36,22.52-11.61,11-4.18,24.29-21.63,24.42-21.81a78.4,78.4,0,0,0,9.28-26c2-13.75-6.4-16.14-6.49-16.17-.39-.08-10.28-2.17-15.07,6.92-5,9.55-16.27,33.06-16.38,33.29l-.08.13C1024.25,827.9,997.87,856.94,995.42,859.63Z"/><path d="M950,788.46a49.49,49.49,0,0,0,2.08,4.79c.86,1.7,1.5,3.48,2.48,5.11,1.55,2.59,2.91,5.64,5.27,7.16s6.17,1,8.84.19c3.49-1.1,5.67-4.49,7.41-7.71s3.21-6.2,4.63-9.39a.57.57,0,0,1,1.08.35,38.09,38.09,0,0,1-4,12.37c-2.88,5.11-7.93,9.34-13.77,9.78a9.45,9.45,0,0,1-5.63-1.15c-2.15-1.31-3.45-3.62-4.64-5.83a63.36,63.36,0,0,1-5.25-11.68c-.51-1.74-.36.07-.51-1.74-.06-.7,1.06-2.46,2.38-1.37"/><path class="cls-7" d="M934.53,868.87h60.81l-.61-4.39s-.84-.68-.76-4.58c0,0-23.76,2.51-27.13,2.42s-28-1-30.94-2.42l1.16,3.44Z"/><polygon points="928.46 883.39 1000.05 883.39 995.97 871.87 995.34 868.87 934.53 868.87 929.38 879.16 928.46 883.39"/><polygon class="cls-7" points="919.83 929.53 1017.29 929.5 1013.63 921.31 999.98 883.38 928.38 883.38 926.72 891.21 925.86 896.11 925.44 898.47 921.14 918.94 919.54 929.53 919.83 929.53"/><polygon points="986.6 980.17 1034.87 981 1035.39 984.76 999.64 983.9 988.35 983.9 986.6 980.17"/><polygon points="917.56 965.94 955.47 966.95 955.36 970.72 927.78 970.05 918.29 970.33 917.56 965.94"/><path d="M918.29,969.86l36.92.36s.43,17.88-18.65,19.38C936.56,989.6,923.15,991.23,918.29,969.86Z"/><path d="M988.13,983.43l47.26,1.33s3.94,16.79-15.13,18.29a32.35,32.35,0,0,1-17.13-1.86C996.84,998.51,990.69,992.26,988.13,983.43Z"/><path class="cls-5" d="M930.49,969.86s1.75,6.82,6.13,6.3,4.91-6.3,4.91-6.3Z"/><path class="cls-5" d="M1006.67,983s3.4,7.5,7.81,7.27,6.68-7.27,6.68-7.27Z"/><polygon points="919.5 929.32 1017.29 929.5 1017.5 929.99 919.5 929.99 919.5 929.32"/><path d="M898.3,628.38c6.08-3.85,17.56-7.86,23.1-8.65,9.68-1.37,17.49-2.39,27.25,1.24.76,2.42,3.15,1.72,3.46,4.46,4,35.12-32.41,83.17-81.26,107.31-30.75,15.2-59.1,17.3-76.89,8,12.53-10.54,17.65-32.13,28.29-51.28,6-10.83,15.26-21.64,24-28.2,7.59-5.69,12.39-9.69,17.48-14,7.06-5.94,9.63-6.46,21.39-13.15C886.75,633.22,896.9,629.59,898.3,628.38Z"/><path d="M986.52,617.87c-20.79-5.85-43.58,1.7-57.46,12.32,0,2.74-2.66,2.75-2,5.68,7.83,37.59,61.65,76.2,120.2,86.23,36.84,6.31,66.77-.21,82-15.27-16.49-7.07-23.46-30.73-40.94-47.3-9.87-9.37-18.92-18.81-30.15-22.92-9.76-3.58-17.36-7.82-24.06-10.69-9.3-4-12.25-3.57-26.65-6.9C1005.35,618.56,964.94,612.85,986.52,617.87Z"/><path d="M952.57,639.89c7.17-1.43,14.2-6.66,18.13-11.42-.17-.71,7.27-6.45,6.9-7.13-4.79-8.73-31.28-5.82-51.07-.11-12.46,3.6-28.69,6.41-32.78,12.52,5.82-.5,16.3,7.87,23,9.72,3.8,1,7.32,2.23,11.25,1.71,3.41-.46,6.15-.43,8.52-.63,3.28-.28,4.23-.81,9.15-2C946.35,642.39,960,638.13,952.57,639.89Z"/><ellipse cx="1090.55" cy="634.48" rx="39.16" ry="46.01" transform="matrix(0.09, -1, 1, 0.09, 362.7, 1665.05)"/><ellipse cx="824.53" cy="648.73" rx="39.16" ry="46.01" transform="matrix(0.09, -1, 1, 0.09, 105.86, 1413.07)"/><path class="cls-7" d="M823.2,690.63s46.18-16,48.71-48.51c1.35-17.28-15.85,26.28-37.48,35.14C817.18,684.34,814,693.13,823.2,690.63Z"/><path class="cls-7" d="M1097.72,677.27s-47.7-10.59-53.93-42.63c-3.31-17,18.74,24.3,41.24,30.64C1103,670.34,1107.19,678.71,1097.72,677.27Z"/></g></svg>
