<?xml version="1.0" standalone="no"?>
<!DOCTYPE svg PUBLIC "-//W3C//DTD SVG 20010904//EN"
 "http://www.w3.org/TR/2001/REC-SVG-20010904/DTD/svg10.dtd">
<svg version="1.0" xmlns="http://www.w3.org/2000/svg"
 width="260.000000pt" height="260.000000pt" viewBox="0 0 260.000000 260.000000"
 preserveAspectRatio="xMidYMid meet">
<metadata>
Created by potrace 1.14, written by Peter Selinger 2001-2017
</metadata>
<g transform="translate(0.000000,260.000000) scale(0.100000,-0.100000)"
fill="#000000" stroke="none">
<path d="M1307 2484 c-3 -4 -28 -6 -55 -6 -66 2 -115 -34 -184 -133 -68 -96
-180 -301 -244 -443 l-49 -111 -40 -5 c-22 -3 -85 -10 -140 -16 -359 -40 -556
-127 -563 -250 -7 -117 131 -283 409 -492 l106 -79 -13 -75 c-7 -41 -16 -101
-19 -132 -4 -31 -8 -68 -11 -82 -2 -14 -7 -65 -11 -115 -16 -208 1 -359 45
-398 21 -20 109 -33 202 -30 107 2 304 87 493 212 42 28 81 51 86 51 6 0 25
-9 43 -19 133 -78 315 -169 392 -197 68 -24 242 -38 303 -24 109 24 128 68
128 295 0 83 -4 179 -8 215 -3 36 -9 83 -11 105 -2 22 -7 59 -10 83 -18 128
-30 102 114 250 244 250 288 309 298 397 4 42 2 47 -39 88 -26 26 -76 59 -120
80 -70 33 -234 92 -283 101 -12 3 -66 16 -121 30 -55 14 -130 30 -167 36 l-66
12 -23 56 c-99 247 -210 443 -301 535 -50 50 -121 80 -141 61z"/>
</g>
</svg>
