<svg xmlns="http://www.w3.org/2000/svg" width="393.56" height="129.69" viewBox="0 0 393.56 129.69"><defs><style>.cls-1{fill:#85b4e8;}.cls-2{fill:#fff;}</style></defs><g id="Layer_3" data-name="Layer 3"><rect width="385.99" height="123.16" rx="47.43"/><rect class="cls-1" x="7.56" y="6.53" width="385.99" height="123.16" rx="47.43"/><path d="M120.63,46.66H132.9a1,1,0,0,1,.92.72L138.09,64A1,1,0,0,0,140,64l4.24-16.58a1,1,0,0,1,.92-.72h12.26a1,1,0,0,1,.95,1V80.07a1,1,0,0,1-.95,1h-6.78a1,1,0,0,1-1-1V62.42a1,1,0,0,0-1.88-.23L143.11,80.3a.94.94,0,0,1-.92.72H135.8a.94.94,0,0,1-.92-.72l-4.62-18.1a1,1,0,0,0-1.89.24V80.07a1,1,0,0,1-1,1h-6.78a1,1,0,0,1-.95-1V47.62A1,1,0,0,1,120.63,46.66Z"/><path d="M167.49,46.66h23.62a2.43,2.43,0,0,1,2.42,2.42v2.5A2.42,2.42,0,0,1,191.11,54h-13a2.41,2.41,0,0,0-2.41,2.42V57a2.41,2.41,0,0,0,2.41,2.42h11.69a2.42,2.42,0,0,1,2.42,2.42v2.17a2.42,2.42,0,0,1-2.42,2.42H178.13a2.41,2.41,0,0,0-2.41,2.42v1.93a2.41,2.41,0,0,0,2.41,2.42h13.49A2.42,2.42,0,0,1,194,75.66V78.6A2.42,2.42,0,0,1,191.62,81H167.49a2.42,2.42,0,0,1-2.42-2.42V49.08A2.43,2.43,0,0,1,167.49,46.66Z"/><path d="M202.08,46.66h6.48a2.25,2.25,0,0,1,1.86,1l8.83,13a1.88,1.88,0,0,0,3.43-1.06V48.91a2.25,2.25,0,0,1,2.25-2.25h5.52a2.24,2.24,0,0,1,2.24,2.25V78.78A2.24,2.24,0,0,1,230.45,81h-6.58A2.21,2.21,0,0,1,222,80l-8.1-11.87a2.25,2.25,0,0,0-4.1,1.27v9.34A2.24,2.24,0,0,1,207.57,81h-5.49a2.24,2.24,0,0,1-2.25-2.24V48.91A2.25,2.25,0,0,1,202.08,46.66Z"/><path d="M240.11,46.66h6.8a2.05,2.05,0,0,1,1.76,1l4.57,7.66a2,2,0,0,0,3.51,0l4.58-7.66a2.05,2.05,0,0,1,1.76-1h6.74a2,2,0,0,1,1.7,3.19L260.65,66.12a2,2,0,0,0-.35,1.13V79a2,2,0,0,1-2,2h-6.55a2,2,0,0,1-2.05-2V67.25a2,2,0,0,0-.35-1.13l-10.9-16.27A2,2,0,0,1,240.11,46.66Z"/><path class="cls-2" d="M122.63,48.66H134.9a1,1,0,0,1,.92.72L140.09,66A1,1,0,0,0,142,66l4.24-16.58a1,1,0,0,1,.92-.72h12.26a1,1,0,0,1,.95,1V82.07a1,1,0,0,1-.95,1h-6.78a1,1,0,0,1-1-1V64.42a1,1,0,0,0-1.88-.23L145.11,82.3a.94.94,0,0,1-.92.72H137.8a.94.94,0,0,1-.92-.72l-4.62-18.1a1,1,0,0,0-1.89.24V82.07a1,1,0,0,1-1,1h-6.78a1,1,0,0,1-.95-1V49.62A1,1,0,0,1,122.63,48.66Z"/><path class="cls-2" d="M169.49,48.66h23.62a2.43,2.43,0,0,1,2.42,2.42v2.5A2.42,2.42,0,0,1,193.11,56h-13a2.41,2.41,0,0,0-2.41,2.42V59a2.41,2.41,0,0,0,2.41,2.42h11.69a2.42,2.42,0,0,1,2.42,2.42v2.17a2.42,2.42,0,0,1-2.42,2.42H180.13a2.41,2.41,0,0,0-2.41,2.42v1.93a2.41,2.41,0,0,0,2.41,2.42h13.49A2.42,2.42,0,0,1,196,77.66V80.6A2.42,2.42,0,0,1,193.62,83H169.49a2.42,2.42,0,0,1-2.42-2.42V51.08A2.43,2.43,0,0,1,169.49,48.66Z"/><path class="cls-2" d="M204.08,48.66h6.48a2.25,2.25,0,0,1,1.86,1l8.83,13a1.88,1.88,0,0,0,3.43-1.06V50.91a2.25,2.25,0,0,1,2.25-2.25h5.52a2.24,2.24,0,0,1,2.24,2.25V80.78A2.24,2.24,0,0,1,232.45,83h-6.58A2.21,2.21,0,0,1,224,82l-8.1-11.87a2.25,2.25,0,0,0-4.1,1.27v9.34A2.24,2.24,0,0,1,209.57,83h-5.49a2.24,2.24,0,0,1-2.25-2.24V50.91A2.25,2.25,0,0,1,204.08,48.66Z"/><path class="cls-2" d="M242.11,48.66h6.8a2.05,2.05,0,0,1,1.76,1l4.57,7.66a2,2,0,0,0,3.51,0l4.58-7.66a2.05,2.05,0,0,1,1.76-1h6.74a2,2,0,0,1,1.7,3.19L262.65,68.12a2,2,0,0,0-.35,1.13V81a2,2,0,0,1-2,2h-6.55a2,2,0,0,1-2.05-2V69.25a2,2,0,0,0-.35-1.13l-10.9-16.27A2,2,0,0,1,242.11,48.66Z"/></g></svg>
