<svg id="Layer_2" data-name="Layer 2" xmlns="http://www.w3.org/2000/svg" width="120" height="130" viewBox="0 0 120 130"><defs><style>.cls-1{fill:#e36ea6;}</style></defs><path d="M1.37,15v94.67a18.06,18.06,0,0,0,27.15,15.61l75.65-44a18,18,0,0,0,0-31.18L22.79,2.66A14.25,14.25,0,0,0,1.37,15Z"/><path class="cls-1" d="M6.37,16V110.7a18.06,18.06,0,0,0,27.15,15.61l75.65-44a18,18,0,0,0,0-31.18L27.79,3.71A14.25,14.25,0,0,0,6.37,16Z"/><path d="M24.43,129.3a18.6,18.6,0,0,1-9.25-2.5,18.38,18.38,0,0,1-9.31-16.1V16A14.75,14.75,0,0,1,28,3.28l81.38,47.38a18.54,18.54,0,0,1,0,32l-75.65,44A18.44,18.44,0,0,1,24.43,129.3Zm-3.81-127A13.77,13.77,0,0,0,13.77,4.1,13.62,13.62,0,0,0,6.87,16V110.7a17.56,17.56,0,0,0,26.4,15.18l75.65-44a17.55,17.55,0,0,0,0-30.32L27.54,4.14A13.71,13.71,0,0,0,20.62,2.25Z"/></svg>
