<svg xmlns="http://www.w3.org/2000/svg" xmlns:xlink="http://www.w3.org/1999/xlink" width="1920" height="1080" viewBox="0 0 1920 1080"><defs><style>.cls-1{fill:url(#radial-gradient);}.cls-2{fill:#231f20;}.cls-3{fill:#f5db12;}.cls-4{fill:#fff;}.cls-5,.cls-6{fill:#f5e0cd;}.cls-6{stroke:#000;stroke-miterlimit:10;}.cls-7{fill:#9b74d0;}.cls-8{fill:none;}</style><radialGradient id="radial-gradient" cx="961.85" cy="540" r="778.85" gradientUnits="userSpaceOnUse"><stop offset="0" stop-color="#e36ea6"/><stop offset="0.36" stop-color="#ffaaf8"/><stop offset="1" stop-color="#e36ea6"/></radialGradient></defs><g id="Layer_2" data-name="Layer 2"><rect class="cls-1" x="1.85" width="1920" height="1080"/><path class="cls-2" d="M243.71,156.5l0-.54c0-.13,0-.27,0-.41a.86.86,0,0,1,0-.17v0a9.22,9.22,0,0,0-.34-1c-.2-.39-.43-.8-.7-1.24-4.9-8.1-28.81-19.39-28.81-19.39-2.27-22.06-6.17-29.61-9.09-32a6.08,6.08,0,0,0-1.83-.79l-.25-.06a4.87,4.87,0,0,0-1.14-.08l-.24,0-.12,0a1.59,1.59,0,0,0-.23.11c-7.75,1.56-25.44,23.91-25.44,23.91s-29.34-7.17-34.13,1.5,14.76,31,14.76,31-14.79,29.93-9.44,34.64c6.52,5.75,29.71-2.56,31.35-3.15a2.35,2.35,0,0,1,1-.45,2.28,2.28,0,0,1,1.07,0,.75.75,0,0,1,.62.34c.44.65,1,1.25,1.44,1.87l.14.13a.4.4,0,0,1,.1.12c16.9,17.3,20.94,17.9,27,17s9.48-32.9,9.48-32.9C240.25,162.19,241.79,162,243.71,156.5Z"/><path class="cls-3" d="M247.82,157.65l0-.54c0-.13,0-.27,0-.41a.42.42,0,0,1,0-.16v0c-.08-.35-.24-.67-.35-1s-.43-.8-.69-1.24c-4.91-8.1-28.81-19.39-28.81-19.39-2.27-22.06-6.18-29.61-9.09-32a6.31,6.31,0,0,0-1.83-.79l-.26-.06a4.74,4.74,0,0,0-1.13-.08l-.25,0-.12,0a1.77,1.77,0,0,0-.22.11c-7.76,1.56-25.44,23.91-25.44,23.91s-29.34-7.17-34.14,1.5,14.76,31,14.76,31-14.78,29.93-9.44,34.65c6.52,5.74,29.72-2.57,31.35-3.16a2.44,2.44,0,0,1,1-.45,2.24,2.24,0,0,1,1.06,0,.72.72,0,0,1,.62.34c.45.65,1,1.25,1.45,1.87l.14.13a.27.27,0,0,1,.09.12c16.91,17.3,21,17.9,27,17S223,176,223,176C244.35,163.34,245.89,163.16,247.82,157.65Z"/><path d="M153.64,194.9a7.62,7.62,0,0,1-3-1.54c-5.3-4.67,7.86-32,9.26-34.85-1.94-2.24-19.34-22.75-14.65-31.22s31.42-2.4,34.3-1.71c1.77-2.22,17.91-22.25,25.45-23.85l.21-.11.2,0,.15,0h.11a4.74,4.74,0,0,1,1.24.08l.26.06a6.25,6.25,0,0,1,1.94.84c3,2.46,6.93,10,9.22,32.09,2.34,1.12,24,11.62,28.79,19.45.31.52.53.91.71,1.25.06.18.1.3.15.42a4.91,4.91,0,0,1,.22.68l0,.28c0,.14,0,.28,0,.43l0,.59v0c-1.69,4.84-3.14,5.7-16.94,13.84l-7.84,4.64c-.3,2.79-3.67,32.1-9.74,33-6.55,1-10.85-.25-27.29-17.07l-.05-.06-.12-.12-.09-.09-.33-.41c-.38-.48-.77-1-1.13-1.48a.4.4,0,0,0-.33-.19h-.1a2,2,0,0,0-.91,0,2.2,2.2,0,0,0-.88.38l-.09.06C180.06,191.08,162.37,197.35,153.64,194.9Zm53.52-92.51-.17,0-.25-.06a4.59,4.59,0,0,0-1-.07h-.07l-.17,0h-.05l-.14.07-.11,0c-7.55,1.52-25.07,23.56-25.25,23.79l-.13.17-.21-.06c-.29-.07-29.14-7-33.76,1.34s14.52,30.4,14.72,30.62l.15.17-.1.2c0,.07-3.73,7.56-6.72,15.53-4.93,13.16-4.25,17.44-2.8,18.71,6.33,5.58,29.41-2.64,31-3.2a2.62,2.62,0,0,1,1.13-.48,2.71,2.71,0,0,1,1.17,0,1.12,1.12,0,0,1,.85.48c.34.5.73,1,1.1,1.44l.36.45.06,0a.75.75,0,0,1,.15.16c17,17.41,20.85,17.75,26.67,16.85,4.76-.74,8.25-23.79,9.2-32.61l0-.16.14-.09c3-1.82,5.69-3.37,8-4.73,13.56-8,15-8.87,16.62-13.43l0-.49c0-.13,0-.26,0-.39a.81.81,0,0,1,0-.15,4.92,4.92,0,0,0-.19-.58,3.25,3.25,0,0,1-.15-.4c-.14-.28-.35-.65-.66-1.16-4.8-7.92-28.43-19.15-28.67-19.27l-.17-.08,0-.19c-2.27-22-6.13-29.44-9-31.81A6.1,6.1,0,0,0,207.16,102.39Z"/><path class="cls-2" d="M93.21,74.55c0-.12,0-.23-.08-.34L93.07,74l0-.1v0c-.11-.2-.26-.37-.38-.56s-.4-.42-.64-.64c-4.4-4.13-21-6.94-21-6.94-5.18-13.14-8.87-17.1-11.07-18.09a4.16,4.16,0,0,0-1.26-.17H58.5a2.9,2.9,0,0,0-.71.15l-.14.06-.07,0a.71.71,0,0,0-.12.11C53,50.08,46,66.82,46,66.82s-19.22.64-20.68,6.78S39.67,90.07,39.67,90.07s-3.93,20.9.16,22.87c5,2.4,17.78-6.68,18.68-7.32a1.62,1.62,0,0,1,1.21-.62.43.43,0,0,1,.43.1c.39.32.81.6,1.21.9l.11.06.08,0c13.34,7.7,15.92,7.38,19.46,5.77s.17-21.81.17-21.81C92.06,78.63,93,78.26,93.21,74.55Z"/><path class="cls-3" d="M95.92,74.55c0-.12,0-.23-.07-.34a1.82,1.82,0,0,0-.07-.25s0-.08,0-.1v0c-.11-.2-.26-.37-.39-.56s-.4-.41-.64-.64c-4.4-4.13-21-6.94-21-6.94-5.18-13.14-8.87-17.1-11.08-18.09a4.12,4.12,0,0,0-1.26-.17h-.16a2.9,2.9,0,0,0-.71.15l-.15.06-.07,0a.71.71,0,0,0-.12.11c-4.48,2.29-11.49,19-11.49,19S29.46,67.46,28,73.6,42.38,90.07,42.38,90.07s-3.92,20.9.16,22.87c5,2.4,17.78-6.68,18.69-7.32a1.35,1.35,0,0,1,.55-.45,1.46,1.46,0,0,1,.65-.17.45.45,0,0,1,.44.1c.39.32.8.6,1.21.9l.11.06a.18.18,0,0,1,.07,0c13.34,7.7,15.92,7.38,19.47,5.77s.16-21.81.16-21.81C94.78,78.63,95.69,78.26,95.92,74.55Z"/><path d="M44.58,113.56a4.8,4.8,0,0,1-2.13-.43c-4.05-1.95-.67-21-.31-22.95C40.57,89.13,26.38,79.55,27.8,73.55s18.86-6.87,20.74-6.94c.7-1.67,7.16-16.72,11.5-19l.12-.1.11-.06a.15.15,0,0,0,.09,0l.07,0a2.85,2.85,0,0,1,.77-.16h.17a3.82,3.82,0,0,1,1.33.18c2.24,1,6,4.94,11.17,18.09,1.63.29,16.74,3,21,7,.28.27.49.47.65.65l.17.23c.08.12.17.24.25.38l.06.16a2.68,2.68,0,0,1,.07.27l.08.37v0c-.21,3.26-.94,4-8,11.39l-4,4.19c.29,1.76,3.26,20.31-.3,21.93-3.84,1.75-6.7,1.72-19.66-5.78l0,0a.3.3,0,0,1-.1-.05l-.07,0-.27-.19c-.32-.23-.64-.46-1-.72a.27.27,0,0,0-.24-.06h-.06a1.38,1.38,0,0,0-.56.15,1.3,1.3,0,0,0-.47.39l0,0C60.12,106.68,50.35,113.56,44.58,113.56ZM61.51,47.64h-.28a2.79,2.79,0,0,0-.65.14l0,0-.1,0,0,0a.23.23,0,0,0-.07.06l-.07,0C55.91,50.21,49,66.73,48.88,66.9l-.05.13h-.14c-.19,0-19.07.71-20.47,6.62S42.34,89.79,42.5,89.89l.12.08,0,.14c0,.06-1,5.28-1.45,10.68-.76,8.91.39,11.42,1.5,11.95,4.84,2.34,17.58-6.67,18.43-7.28a1.76,1.76,0,0,1,.61-.49,1.88,1.88,0,0,1,.72-.19.72.72,0,0,1,.61.15c.29.25.61.48.92.7l.3.21,0,0,.12.07c13.42,7.75,15.83,7.3,19.25,5.75,2.79-1.27,1-16,0-21.57l0-.11.07-.07,4.09-4.28c6.94-7.23,7.69-8,7.89-11.09l-.07-.3L95.58,74a.19.19,0,0,1,0-.09,2.57,2.57,0,0,0-.22-.32l-.16-.23-.6-.59c-4.31-4-20.72-6.86-20.89-6.89l-.12,0,0-.12c-5.17-13.1-8.82-17-11-18A3.7,3.7,0,0,0,61.51,47.64Z"/><path class="cls-2" d="M440.06,16.68l-.18-.77a5.47,5.47,0,0,0-.15-.58s-.07-.19-.08-.24,0,0,0-.05c-.25-.47-.6-.87-.89-1.31s-.92-.94-1.47-1.46c-10.14-9.51-48.4-16-48.4-16C376.92-34,368.42-43.15,363.34-45.42a9,9,0,0,0-2.9-.4l-.38,0a7,7,0,0,0-1.64.34l-.33.14-.17.08a2.27,2.27,0,0,0-.27.24c-10.34,5.28-26.49,43.87-26.49,43.87S286.85.35,283.5,14.5s33.14,38,33.14,38-9.05,48.16.37,52.7c11.49,5.55,41-15.38,43.06-16.87a3.57,3.57,0,0,1,1.27-1,3.5,3.5,0,0,1,1.52-.39,1.09,1.09,0,0,1,1,.23c.89.74,1.85,1.4,2.79,2.08l.25.13a.57.57,0,0,1,.18.12c30.74,17.76,36.69,17,44.87,13.3s.37-50.26.37-50.26C437.41,26.1,439.52,25.23,440.06,16.68Z"/><path class="cls-3" d="M446.31,16.68c-.05-.25-.11-.51-.17-.77a5.47,5.47,0,0,0-.15-.58s-.07-.18-.08-.24l0-.05c-.24-.47-.6-.86-.88-1.3-.43-.47-.92-1-1.48-1.47-10.13-9.51-48.4-16-48.4-16C383.18-34,374.68-43.15,369.6-45.42a9,9,0,0,0-2.9-.4l-.38,0a7,7,0,0,0-1.64.34l-.34.14-.16.08a2.27,2.27,0,0,0-.27.24c-10.34,5.28-26.49,43.87-26.49,43.87S293.11.36,289.76,14.5s33.14,38,33.14,38-9,48.16.37,52.7c11.49,5.55,41-15.38,43.06-16.87a3.49,3.49,0,0,1,1.27-1,3.64,3.64,0,0,1,1.52-.39,1.09,1.09,0,0,1,1,.23c.89.74,1.85,1.4,2.79,2.08l.24.13a.76.76,0,0,1,.19.12c30.74,17.76,36.69,17,44.87,13.3s.37-50.26.37-50.26C443.67,26.1,445.78,25.24,446.31,16.68Z"/><path d="M328,106.61a11.23,11.23,0,0,1-4.9-1c-9.34-4.51-1.55-48.32-.7-52.92-3.64-2.4-36.35-24.5-33.07-38.32s43.47-15.84,47.8-16c1.62-3.83,16.51-38.53,26.53-43.78a2.56,2.56,0,0,1,.27-.23l.26-.14.21-.09.14-.06a7.23,7.23,0,0,1,1.78-.37l.4,0a9.11,9.11,0,0,1,3.07.42c5.16,2.3,13.76,11.39,25.74,41.71,3.75.65,38.59,6.9,48.38,16.09.66.61,1.12,1.07,1.5,1.49l.38.53a5.59,5.59,0,0,1,.58.88l.15.37c.06.21.11.41.16.62l.18.85v.07c-.47,7.51-2.17,9.28-18.46,26.26-2.67,2.78-5.73,6-9.24,9.66.67,4.06,7.52,46.82-.7,50.55-8.86,4-15.43,4-45.32-13.32L373,89.8l-.23-.12-.15-.09-.64-.45c-.72-.52-1.47-1.06-2.18-1.65a.58.58,0,0,0-.54-.13l-.15,0h0a3.27,3.27,0,0,0-2.38,1.22l-.11.11C363.78,90.76,341.26,106.61,328,106.61ZM367-45.33h-.26l-.38,0a6.15,6.15,0,0,0-1.5.31l-.08,0-.25.1-.06,0-.17.15-.14.11C354.07-39.42,338-1.33,337.87-.94l-.12.29h-.32c-.44,0-44,1.64-47.19,15.26s32.57,37.21,32.93,37.44l.27.18-.06.33c0,.12-2.27,12.17-3.34,24.61-1.76,20.55.9,26.33,3.44,27.56C334.65,110.11,364,89.35,366,88a4,4,0,0,1,1.4-1.12,4,4,0,0,1,1.67-.44,1.56,1.56,0,0,1,1.39.34c.68.56,1.41,1.09,2.12,1.6l.69.48.1,0a1,1,0,0,1,.28.18c30.93,17.86,36.49,16.83,44.37,13.25,6.44-2.93,2.25-36.89.09-49.73l0-.24.17-.18c3.59-3.77,6.7-7,9.41-9.85,16-16.69,17.73-18.48,18.18-25.57l-.15-.7-.14-.56c0-.07-.06-.13-.08-.19a6.93,6.93,0,0,0-.49-.75l-.37-.51c-.31-.34-.76-.78-1.4-1.38C433.27,3.33,395.42-3.19,395-3.25l-.27,0-.11-.26C382.75-33.77,374.34-42.75,369.39-45A8.58,8.58,0,0,0,367-45.33Z"/><path class="cls-2" d="M98,362.34c0-.27,0-.53,0-.8s0-.4,0-.6a1.77,1.77,0,0,1,0-.24s0,0,0-.06a15.4,15.4,0,0,0-.48-1.5c-.28-.57-.62-1.17-1-1.83-7-12-41.87-29.08-41.87-29.08-2.87-32.42-8.43-43.58-12.66-47.2a9.07,9.07,0,0,0-2.67-1.21l-.37-.09a7.12,7.12,0,0,0-1.66-.14l-.37.05-.17,0a2.29,2.29,0,0,0-.33.16C25.06,282-1.37,314.37-1.37,314.37s-42.91-11.14-50.13,1.48,21,45.81,21,45.81-22.33,43.62-14.59,50.65c9.45,8.57,43.67-3.13,46.08-4a3.47,3.47,0,0,1,1.52-.63,3.43,3.43,0,0,1,1.56.05,1.09,1.09,0,0,1,.9.51c.64,1,1.37,1.86,2.08,2.78l.2.19a.55.55,0,0,1,.14.17c24.44,25.75,30.37,26.73,39.26,25.48S61.26,388.8,61.26,388.8C92.8,370.62,95.07,370.39,98,362.34Z"/><path class="cls-3" d="M104,364.11c0-.26,0-.53,0-.79s0-.4,0-.6a1.93,1.93,0,0,1,0-.25.13.13,0,0,0,0-.06,15.4,15.4,0,0,0-.48-1.5c-.28-.56-.61-1.17-1-1.82-7-12-41.87-29.08-41.87-29.08-2.86-32.42-8.43-43.59-12.66-47.21a8.85,8.85,0,0,0-2.66-1.2l-.38-.09a6.62,6.62,0,0,0-1.66-.14l-.36,0-.18,0a1.85,1.85,0,0,0-.33.15c-11.41,2.13-37.85,34.55-37.85,34.55S-38.28,305-45.5,317.63s21,45.81,21,45.81-22.33,43.61-14.58,50.65c9.44,8.57,43.66-3.13,46.08-4a3.52,3.52,0,0,1,1.51-.64,3.43,3.43,0,0,1,1.56.06,1.07,1.07,0,0,1,.9.5c.64,1,1.38,1.87,2.08,2.79l.2.19a.46.46,0,0,1,.14.17c24.45,25.75,30.37,26.72,39.26,25.48s14.61-48.1,14.61-48.1C98.8,372.39,101.07,372.16,104,364.11Z"/><path d="M-35,416.78a11.24,11.24,0,0,1-4.42-2.33c-7.68-7,12.22-46.77,14.33-50.94-2.8-3.34-27.9-33.8-20.84-46.13s46.18-2.86,50.38-1.79c2.64-3.22,26.76-32.28,37.85-34.47a3.24,3.24,0,0,1,.33-.14l.28-.06.23,0,.16,0a7.86,7.86,0,0,1,1.81.15l.39.1a9.36,9.36,0,0,1,2.82,1.27c4.3,3.67,10,14.83,12.86,47.3,3.41,1.69,35.05,17.56,41.83,29.15.46.77.77,1.35,1,1.85.08.26.15.44.21.62a6.26,6.26,0,0,1,.31,1l0,.4c0,.21,0,.42,0,.63l-.06.87,0,.06c-2.58,7.07-4.71,8.29-25.15,20-3.34,1.91-7.18,4.1-11.6,6.65-.51,4.08-6.06,47-15,48.28-9.64,1.35-15.92-.6-39.69-25.63l-.07-.09-.18-.19-.12-.12-.48-.62c-.55-.7-1.11-1.43-1.62-2.19a.6.6,0,0,0-.49-.29l-.14,0h0a3.13,3.13,0,0,0-1.34,0,3,3,0,0,0-1.29.54l-.14.08C3.85,411.74-22.24,420.55-35,416.78ZM45.52,282.15l-.26-.07L44.9,282a6.64,6.64,0,0,0-1.53-.13l-.09,0-.27,0h-.07l-.2.1-.17.06C31.46,284.15,5.28,316.14,5,316.46l-.2.24-.31-.08c-.43-.11-42.62-10.89-49.58,1.25s20.67,44.92,21,45.25l.22.25-.15.29c-.06.11-5.63,11-10.18,22.65-7.53,19.21-6.61,25.51-4.52,27.41,9.18,8.32,43.23-3.26,45.51-4.05a4.25,4.25,0,0,1,3.39-.63,1.6,1.6,0,0,1,1.23.73c.49.73,1,1.44,1.58,2.13l.53.66.08.08a1.26,1.26,0,0,1,.22.24c24.6,25.91,30.22,26.49,38.79,25.29,7-1,12.61-34.73,14.19-47.66l0-.24.21-.13c4.51-2.6,8.42-4.83,11.82-6.77,20.08-11.46,22.24-12.69,24.69-19.36l0-.72c0-.19,0-.38,0-.57a1.83,1.83,0,0,1,0-.21,5.4,5.4,0,0,0-.26-.86c-.07-.2-.15-.39-.21-.6-.2-.41-.5-1-.94-1.71-6.87-11.73-41.32-28.71-41.67-28.88l-.25-.13,0-.28c-2.86-32.35-8.37-43.34-12.49-46.87A8.54,8.54,0,0,0,45.52,282.15Z"/><path class="cls-2" d="M423.25,316.17c0-.16-.07-.32-.11-.47l-.09-.36a.58.58,0,0,1-.05-.14l0,0c-.15-.29-.37-.53-.54-.8s-.57-.58-.91-.9c-6.22-5.83-29.7-9.82-29.7-9.82-7.32-18.58-12.54-24.18-15.66-25.58a5.67,5.67,0,0,0-1.78-.24h-.23a4.32,4.32,0,0,0-1,.21l-.2.09-.1,0-.17.15c-6.35,3.24-16.26,26.92-16.26,26.92s-27.18.91-29.24,9.59,20.33,23.31,20.33,23.31-5.55,29.55.23,32.34c7.05,3.4,25.15-9.44,26.43-10.36a2,2,0,0,1,.78-.63,2.13,2.13,0,0,1,.92-.24.65.65,0,0,1,.62.14c.55.45,1.14.86,1.71,1.27l.15.08a.31.31,0,0,1,.11.08C397.33,371.72,401,371.26,406,369s.23-30.84.23-30.84C421.62,322,422.92,321.42,423.25,316.17Z"/><path class="cls-3" d="M427.09,316.17c0-.16-.07-.32-.11-.47l-.09-.36a.58.58,0,0,1-.05-.14l0,0c-.15-.29-.37-.53-.54-.8s-.57-.58-.91-.9c-6.22-5.83-29.7-9.82-29.7-9.82-7.32-18.58-12.54-24.18-15.66-25.58a5.67,5.67,0,0,0-1.78-.24H378a4.32,4.32,0,0,0-1,.21l-.2.09-.1,0-.17.15c-6.34,3.24-16.26,26.92-16.26,26.92s-27.18.91-29.24,9.59,20.33,23.31,20.33,23.31-5.55,29.55.23,32.34c7.05,3.4,25.15-9.44,26.43-10.36a2,2,0,0,1,.78-.63,2.13,2.13,0,0,1,.92-.24.65.65,0,0,1,.62.14c.55.45,1.14.86,1.71,1.27l.15.08a.5.5,0,0,1,.12.08c18.86,10.9,22.51,10.44,27.53,8.16s.23-30.84.23-30.84C425.46,322,426.76,321.42,427.09,316.17Z"/><path d="M354.45,371.35a6.82,6.82,0,0,1-3-.6c-5.73-2.76-.95-29.65-.43-32.47-2.23-1.48-22.31-15-20.3-23.52s26.68-9.71,29.34-9.82c1-2.35,10.13-23.64,16.28-26.87l.16-.14.16-.08.13-.06.09,0a4,4,0,0,1,1.09-.23l.25,0a5.89,5.89,0,0,1,1.88.26c3.17,1.42,8.44,7,15.79,25.6,2.3.4,23.69,4.24,29.69,9.87.41.38.69.66.92.92l.24.32a4.18,4.18,0,0,1,.35.54l.09.23c0,.13.07.25.1.38l.11.52v0c-.29,4.61-1.33,5.7-11.33,16.12-1.63,1.7-3.51,3.66-5.67,5.93.41,2.48,4.62,28.73-.43,31-5.43,2.47-9.47,2.42-27.81-8.18l0,0A.43.43,0,0,1,382,361l-.1,0-.39-.28c-.44-.32-.9-.65-1.33-1a.39.39,0,0,0-.34-.08h-.09a2,2,0,0,0-1.46.75l-.07.07C376.44,361.62,362.62,371.35,354.45,371.35Zm23.95-93.23H378a4,4,0,0,0-.92.2l0,0-.15.06,0,0-.1.1-.09.06c-6.17,3.16-16,26.53-16.12,26.77l-.07.18h-.2c-.27,0-27,1-28.95,9.36s20,22.84,20.2,23l.17.11,0,.2c0,.08-1.39,7.47-2,15.1-1.08,12.61.55,16.16,2.11,16.91,6.85,3.3,24.88-9.43,26.08-10.3a2.6,2.6,0,0,1,1.88-1,1,1,0,0,1,.86.21c.41.35.86.67,1.3,1l.42.29.06,0a.62.62,0,0,1,.17.11c19,11,22.4,10.33,27.23,8.13,4-1.79,1.38-22.63.06-30.51l0-.15.11-.11c2.2-2.32,4.11-4.31,5.77-6,9.83-10.24,10.88-11.34,11.16-15.69l-.1-.43c0-.12-.05-.23-.08-.35a.61.61,0,0,1-.05-.12,2.93,2.93,0,0,0-.3-.45c-.08-.11-.16-.21-.23-.32s-.46-.48-.85-.84c-6.09-5.71-29.31-9.71-29.55-9.75l-.17,0-.06-.16c-7.31-18.54-12.47-24.05-15.5-25.41A5.37,5.37,0,0,0,378.4,278.12Z"/><path class="cls-2" d="M565.7,104.89l-.42-.56a4.23,4.23,0,0,0-.33-.41l-.15-.16,0,0c-.37-.29-.79-.47-1.18-.72s-1.08-.42-1.71-.64c-11.55-3.93-44.49,4.75-44.49,4.75C496.85,87.24,486.75,83,481.86,83.05a8.14,8.14,0,0,0-2.46.74l-.3.15a6.33,6.33,0,0,0-1.19.86c-.07.08-.13.16-.21.24l-.1.12a1.47,1.47,0,0,0-.13.29c-6.36,8-5.28,44.67-5.28,44.67s-34.88,17.25-32.43,29.78S480,178.24,480,178.24s10.22,41.78,19.4,42c11.2.27,27.19-27.15,28.31-29.1a3,3,0,0,1,.64-1.29,3,3,0,0,1,1.07-.86,1,1,0,0,1,.88-.18c1,.27,2,.45,3,.65a2.09,2.09,0,0,0,.25,0,.43.43,0,0,1,.19,0c31,3.05,35.5.3,40.69-5.64s-17.92-40.31-17.92-40.31C567,113.37,568.37,111.92,565.7,104.89Z"/><path class="cls-3" d="M570.7,102.62l-.41-.56-.33-.41a1.06,1.06,0,0,1-.15-.15l0,0c-.36-.28-.79-.47-1.18-.72s-1.08-.42-1.71-.64c-11.55-3.92-44.49,4.75-44.49,4.75C501.86,85,491.75,80.76,486.86,80.79a7.85,7.85,0,0,0-2.46.73l-.3.15a6,6,0,0,0-1.18.86c-.08.08-.14.17-.22.24l-.1.12a3.07,3.07,0,0,0-.13.29c-6.35,8-5.28,44.67-5.28,44.67s-34.88,17.25-32.43,29.78S485,176,485,176s10.22,41.78,19.4,42c11.2.27,27.19-27.15,28.31-29.1a3.27,3.27,0,0,1,1.71-2.15,1,1,0,0,1,.89-.18c1,.27,2,.45,3,.65l.24,0a.58.58,0,0,1,.19,0c31,3,35.5.3,40.69-5.64s-17.92-40.31-17.92-40.31C572,111.11,573.38,109.65,570.7,102.62Z"/><path d="M508.68,217.42a9.93,9.93,0,0,1-4.27,1c-9.1-.22-18.75-38.07-19.74-42-3.78-.6-37.94-6.41-40.33-18.65s29-28.42,32.41-30.12c-.1-3.66-.77-36.79,5.33-44.62l.13-.28.16-.2.14-.15.09-.1a6.71,6.71,0,0,1,1.29-.95l.31-.16a8.6,8.6,0,0,1,2.61-.78c5,0,15.13,4.13,35.7,24,3.23-.84,33.35-8.47,44.5-4.68.75.25,1.29.46,1.74.65l.5.29a5,5,0,0,1,.78.49l.25.24c.13.15.24.29.35.44l.46.61,0,.06c2.35,6.17,1.63,8.21-5.23,27.68-1.13,3.19-2.42,6.85-3.89,11.08,2,3,23,34.7,17.77,40.66-5.62,6.43-10.91,8.75-41.06,5.78l-.1,0-.23,0h-.15l-.67-.14c-.77-.15-1.56-.3-2.34-.52a.53.53,0,0,0-.49.09l-.1.07h0a2.54,2.54,0,0,0-.9.74,2.6,2.6,0,0,0-.55,1.1l0,.13C531.58,191.75,519.32,212.59,508.68,217.42ZM484.81,81.81a1,1,0,0,0-.21.1l-.3.15a5.66,5.66,0,0,0-1.08.79l-.06.06a1.29,1.29,0,0,1-.16.17l0,.06a.74.74,0,0,0-.07.18l-.08.14c-6.18,7.75-5.19,44-5.18,44.38v.28l-.26.12c-.34.18-34.55,17.25-32.19,29.31s39.52,17.94,39.9,18l.28.05.07.28c0,.11,2.6,10.55,6.25,20.88,6,17.07,10.26,20.73,12.74,20.79,10.88.25,26.83-27,27.89-28.83a3.45,3.45,0,0,1,.71-1.4,3.65,3.65,0,0,1,1.17-1,1.43,1.43,0,0,1,1.24-.23c.75.21,1.52.36,2.28.51l.73.14h.09a1,1,0,0,1,.29,0c31.2,3.07,35.27.23,40.27-5.49,4.09-4.67-11.57-30.31-18-39.79l-.12-.18.07-.2c1.5-4.32,2.81-8,3.95-11.29,6.75-19.14,7.48-21.19,5.27-27l-.38-.5-.32-.4a.68.68,0,0,1-.12-.12,6.15,6.15,0,0,0-.67-.42c-.16-.09-.33-.18-.48-.28-.37-.15-.89-.35-1.62-.59-11.29-3.84-43.91,4.67-44.24,4.75l-.24.06-.17-.17c-20.48-19.83-30.46-24-35.21-23.94A7.62,7.62,0,0,0,484.81,81.81Z"/><path class="cls-2" d="M298.63,705.26c0-.16-.07-.31-.1-.47l-.09-.35a.58.58,0,0,1-.05-.14l0,0a8.23,8.23,0,0,0-.53-.78c-.26-.28-.55-.58-.89-.89-6.1-5.72-29.12-9.63-29.12-9.63-7.18-18.22-12.29-23.71-15.35-25.07a5.22,5.22,0,0,0-1.75-.24h-.23a4.16,4.16,0,0,0-1,.2l-.2.09-.1,0-.17.15c-6.22,3.18-15.93,26.39-15.93,26.39s-26.66.9-28.68,9.41,19.94,22.84,19.94,22.84-5.44,29,.22,31.71c6.92,3.34,24.66-9.25,25.91-10.15a2.13,2.13,0,0,1,.77-.62,2.06,2.06,0,0,1,.91-.24.64.64,0,0,1,.6.14c.54.45,1.11.84,1.68,1.25a.71.71,0,0,0,.15.08.41.41,0,0,1,.11.07c18.49,10.69,22.07,10.24,27,8s.23-30.24.23-30.24C297,710.92,298.31,710.4,298.63,705.26Z"/><path class="cls-3" d="M302.4,705.26c0-.16-.07-.31-.11-.47a2.58,2.58,0,0,0-.09-.35s0-.11,0-.14l0,0a8.33,8.33,0,0,0-.54-.78c-.25-.28-.55-.57-.88-.89-6.1-5.72-29.12-9.63-29.12-9.63-7.18-18.21-12.3-23.71-15.36-25.07a5.16,5.16,0,0,0-1.74-.24h-.23a4.14,4.14,0,0,0-1,.2l-.2.09-.1,0a1.28,1.28,0,0,0-.16.15c-6.22,3.18-15.94,26.39-15.94,26.39s-26.65.9-28.67,9.41,19.94,22.84,19.94,22.84-5.45,29,.22,31.71c6.91,3.34,24.66-9.25,25.91-10.15a2.27,2.27,0,0,1,1.67-.86.69.69,0,0,1,.61.14c.53.45,1.11.84,1.67,1.25l.15.08a.41.41,0,0,1,.11.07c18.5,10.69,22.08,10.24,27,8s.22-30.24.22-30.24C300.81,710.92,302.08,710.4,302.4,705.26Z"/><path d="M231.19,759.36a6.73,6.73,0,0,1-2.95-.59c-5.62-2.71-.93-29.07-.42-31.83-2.19-1.45-21.87-14.74-19.9-23.06s26.15-9.53,28.76-9.63c1-2.31,9.93-23.18,16-26.34a.79.79,0,0,1,.16-.14l.16-.08.12-.06.09,0a4.35,4.35,0,0,1,1.07-.23h.24a5.66,5.66,0,0,1,1.85.25c3.1,1.39,8.28,6.86,15.49,25.1,2.25.39,23.21,4.15,29.1,9.68.4.37.68.64.91.89l.22.32a3.74,3.74,0,0,1,.35.53l.09.23a2.22,2.22,0,0,1,.09.37l.12.51v0c-.29,4.52-1.31,5.58-11.11,15.8-1.6,1.67-3.45,3.59-5.56,5.81.4,2.44,4.52,28.17-.42,30.42-5.33,2.42-9.29,2.37-27.27-8l0,0-.14-.07-.09-.06-.38-.27c-.44-.31-.89-.64-1.31-1a.38.38,0,0,0-.33-.08H256a1.88,1.88,0,0,0-1.43.74l-.07.07C252.74,749.82,239.19,759.36,231.19,759.36ZM254.67,668h-.16l-.23,0a3.88,3.88,0,0,0-.9.18l0,0-.15.06,0,0-.1.09-.08.07c-6.06,3.09-15.71,26-15.8,26.24l-.08.17h-.19c-.26,0-26.45,1-28.39,9.18s19.59,22.38,19.81,22.52l.17.11,0,.2c0,.07-1.37,7.32-2,14.8-1.06,12.37.54,15.85,2.07,16.59,6.72,3.23,24.38-9.26,25.57-10.1a2.36,2.36,0,0,1,.84-.68,2.43,2.43,0,0,1,1-.27,1,1,0,0,1,.84.21c.41.34.85.66,1.28,1l.41.29.06,0,.17.11c18.61,10.75,21.95,10.13,26.69,8,3.87-1.76,1.35-22.19.06-29.92l0-.14.1-.11c2.16-2.27,4-4.22,5.67-5.92,9.63-10,10.66-11.12,10.94-15.39l-.1-.42c0-.11-.05-.22-.08-.33l-.05-.12a2.93,2.93,0,0,0-.3-.45c-.07-.1-.15-.2-.22-.31s-.45-.47-.84-.83c-6-5.59-28.73-9.51-29-9.55l-.17,0-.06-.16c-7.17-18.18-12.22-23.58-15.2-24.91A5.15,5.15,0,0,0,254.67,668Z"/><path class="cls-2" d="M1201.69,1035.41l-.18-.78c0-.19-.09-.39-.14-.58a1.23,1.23,0,0,1-.08-.23l0-.06c-.25-.47-.6-.86-.89-1.3s-.92-1-1.47-1.47c-10.14-9.5-48.38-16-48.38-16-11.94-30.26-20.43-39.39-25.52-41.66a8.9,8.9,0,0,0-2.89-.4l-.39,0a7.06,7.06,0,0,0-1.63.34l-.34.14-.16.08a2.27,2.27,0,0,0-.27.24c-10.34,5.28-26.48,43.85-26.48,43.85s-44.29,1.49-47.64,15.63,33.12,38,33.12,38-9,48.14.37,52.68c11.49,5.54,41-15.38,43-16.87a3.49,3.49,0,0,1,1.27-1,3.56,3.56,0,0,1,1.51-.39,1.11,1.11,0,0,1,1,.23c.89.75,1.84,1.4,2.78,2.08l.25.13a.57.57,0,0,1,.18.12c30.73,17.76,36.68,17,44.85,13.3s.37-50.24.37-50.24C1199.05,1044.82,1201.15,1044,1201.69,1035.41Z"/><path class="cls-3" d="M1207.94,1035.41c0-.26-.11-.52-.17-.78s-.09-.39-.15-.58c0,0-.07-.18-.08-.23l0-.06c-.24-.47-.6-.86-.88-1.3-.43-.46-.92-1-1.48-1.46-10.13-9.51-48.38-16-48.38-16-11.93-30.26-20.43-39.39-25.51-41.66a9.2,9.2,0,0,0-2.9-.4l-.38,0a7,7,0,0,0-1.64.34l-.33.14-.16.08a2,2,0,0,0-.28.24c-10.33,5.28-26.48,43.85-26.48,43.85s-44.28,1.49-47.63,15.63,33.12,38,33.12,38-9,48.14.37,52.68c11.49,5.54,41-15.38,43-16.87a3.52,3.52,0,0,1,1.28-1,3.56,3.56,0,0,1,1.51-.39,1.09,1.09,0,0,1,1,.23c.89.75,1.85,1.4,2.79,2.08.08,0,.16.1.24.13a.76.76,0,0,1,.19.12c30.73,17.76,36.68,17,44.85,13.3s.37-50.24.37-50.24C1205.3,1044.82,1207.41,1044,1207.94,1035.41Z"/><path d="M1089.63,1125.3a11.23,11.23,0,0,1-4.9-1c-9.34-4.51-1.55-48.3-.7-52.9-3.63-2.4-36.33-24.49-33.06-38.31s43.46-15.83,47.79-16c1.62-3.83,16.5-38.51,26.51-43.76a2.56,2.56,0,0,1,.27-.23l.26-.14.21-.09.14-.06a7.21,7.21,0,0,1,1.79-.37l.4,0a9.08,9.08,0,0,1,3.06.42c5.16,2.3,13.75,11.39,25.73,41.69,3.75.65,38.58,6.9,48.36,16.08.66.62,1.12,1.08,1.5,1.5l.38.53a6.92,6.92,0,0,1,.58.87l.15.38c.06.2.11.41.15.61l.19.85v.07c-.47,7.51-2.17,9.28-18.45,26.25-2.67,2.78-5.73,6-9.24,9.66.67,4.05,7.52,46.8-.7,50.53-8.85,4-15.43,3.94-45.3-13.32l-.09-.07-.23-.12-.15-.09-.64-.45c-.72-.52-1.47-1.06-2.18-1.64a.58.58,0,0,0-.54-.14l-.14,0h0a3.28,3.28,0,0,0-2.38,1.23l-.11.11C1125.44,1109.45,1102.93,1125.3,1089.63,1125.3Zm39-151.88h-.26l-.37,0a6.33,6.33,0,0,0-1.51.31l-.08,0-.24.1-.07,0-.17.15-.14.11c-10.06,5.14-26.09,43.22-26.25,43.6l-.12.29h-.32c-.44,0-43.95,1.64-47.17,15.25s32.55,37.2,32.91,37.43l.28.18-.06.33c0,.12-2.28,12.16-3.34,24.59-1.77,20.55.89,26.33,3.43,27.55,11.16,5.38,40.52-15.37,42.48-16.78a4.11,4.11,0,0,1,1.4-1.12,4,4,0,0,1,1.67-.44,1.62,1.62,0,0,1,1.39.34c.68.57,1.41,1.09,2.12,1.6l.69.49.1,0a1.17,1.17,0,0,1,.28.17c30.92,17.86,36.47,16.82,44.35,13.25,6.43-2.93,2.25-36.88.09-49.71l0-.24.17-.19c3.59-3.76,6.7-7,9.41-9.83,16-16.69,17.72-18.48,18.17-25.56l-.15-.7c0-.19-.09-.38-.14-.56l-.08-.2a6.78,6.78,0,0,0-.49-.74c-.13-.17-.25-.34-.37-.52-.31-.33-.76-.78-1.4-1.37-9.9-9.3-47.74-15.81-48.12-15.88l-.27,0-.11-.26C1144.4,985,1136,976,1131.06,973.78A8.7,8.7,0,0,0,1128.64,973.42Z"/><path class="cls-2" d="M1300.56,931.22l-.09-.4c0-.1,0-.2-.07-.3a.42.42,0,0,1,0-.12l0,0a7.66,7.66,0,0,0-.45-.66c-.22-.24-.47-.49-.76-.75-5.19-4.87-24.78-8.2-24.78-8.2-6.11-15.5-10.46-20.18-13.06-21.34a4.47,4.47,0,0,0-1.49-.2h-.19a3.39,3.39,0,0,0-.84.17l-.17.07-.09,0a1,1,0,0,0-.14.13c-5.29,2.7-13.56,22.45-13.56,22.45s-22.68.77-24.4,8,17,19.44,17,19.44-4.64,24.66.19,27c5.88,2.84,21-7.87,22-8.63a1.88,1.88,0,0,1,.65-.54,1.92,1.92,0,0,1,.78-.2.56.56,0,0,1,.51.12c.46.38,1,.72,1.43,1.07l.13.06.09.06c15.74,9.1,18.79,8.72,23,6.81s.19-25.73.19-25.73C1299.21,936,1300.29,935.59,1300.56,931.22Z"/><path class="cls-3" d="M1303.77,931.22l-.09-.4c0-.1,0-.2-.08-.3s0-.09,0-.12v0a7.75,7.75,0,0,0-.46-.66q-.33-.36-.75-.75c-5.19-4.87-24.78-8.2-24.78-8.2-6.11-15.5-10.47-20.18-13.07-21.34a4.38,4.38,0,0,0-1.48-.2h-.2a3.39,3.39,0,0,0-.84.17l-.17.07-.08,0a.57.57,0,0,0-.14.13c-5.3,2.7-13.57,22.45-13.57,22.45s-22.68.77-24.39,8,17,19.44,17,19.44-4.63,24.66.19,27c5.88,2.84,21-7.87,22-8.63a1.72,1.72,0,0,1,.65-.54,1.87,1.87,0,0,1,.77-.2.58.58,0,0,1,.52.12c.45.38.94.72,1.42,1.07l.13.06.09.06c15.74,9.1,18.79,8.72,23,6.81s.19-25.73.19-25.73C1302.41,936,1303.49,935.59,1303.77,931.22Z"/><path d="M1243.17,977.26a5.72,5.72,0,0,1-2.51-.51c-4.78-2.3-.79-24.73-.36-27.09-1.86-1.23-18.61-12.54-16.93-19.62s22.26-8.11,24.47-8.19c.83-2,8.45-19.73,13.58-22.42l.14-.12.13-.07.11,0,.08,0a3.87,3.87,0,0,1,.91-.19h.2a5,5,0,0,1,1.57.22c2.65,1.18,7,5.83,13.18,21.35,1.92.34,19.76,3.54,24.77,8.24.34.32.57.55.77.76l.19.28a3.41,3.41,0,0,1,.3.44l.08.2c0,.1.05.21.08.31l.09.44v0c-.24,3.85-1.11,4.76-9.45,13.45-1.37,1.42-2.93,3.05-4.73,4.94.34,2.08,3.85,24-.36,25.88-4.53,2.07-7.9,2-23.2-6.82l0,0a.45.45,0,0,0-.12-.06l-.07-.05-.33-.23c-.37-.27-.75-.54-1.11-.84a.3.3,0,0,0-.28-.07h-.08a1.58,1.58,0,0,0-.66.17,1.59,1.59,0,0,0-.56.46l0,.05C1261.51,969.14,1250,977.25,1243.17,977.26Zm20-77.79h-.33a3.4,3.4,0,0,0-.77.16l0,0-.12.05,0,0-.08.08-.08.05c-5.15,2.63-13.36,22.14-13.44,22.33l-.06.15H1248c-.22,0-22.5.84-24.16,7.81s16.67,19.05,16.86,19.17l.14.09,0,.17c0,.06-1.16,6.23-1.71,12.6-.9,10.52.46,13.48,1.76,14.11,5.72,2.75,20.75-7.88,21.76-8.6a2,2,0,0,1,.72-.57,2.1,2.1,0,0,1,.85-.23.81.81,0,0,1,.71.18c.35.28.72.55,1.09.82l.35.24.05,0a.42.42,0,0,1,.14.09c15.84,9.14,18.69,8.61,22.72,6.78,3.3-1.5,1.15-18.88,0-25.46l0-.12.08-.09,4.82-5c8.2-8.55,9.08-9.46,9.31-13.09l-.08-.36c0-.1,0-.19-.07-.29l0-.1a3.57,3.57,0,0,0-.25-.38l-.19-.26c-.16-.18-.39-.4-.72-.71-5.07-4.76-24.45-8.1-24.64-8.13l-.14,0-.06-.14c-6.1-15.47-10.4-20.06-12.93-21.2A4.38,4.38,0,0,0,1263.15,899.47Z"/><path class="cls-2" d="M244.09,469.94c-.11-.25-.21-.49-.32-.73s-.17-.37-.26-.55a2,2,0,0,1-.12-.21l0-.05c-.33-.41-.75-.73-1.12-1.11s-1.08-.76-1.72-1.16c-11.76-7.41-50.56-6.54-50.56-6.54-17.47-27.46-27.54-34.81-33-36.08a9,9,0,0,0-2.92.16l-.37.09a6.51,6.51,0,0,0-1.54.64l-.3.21-.15.1a3.17,3.17,0,0,0-.22.29c-9.15,7.15-17.69,48.1-17.69,48.1S90.57,483,90,497.49s39.74,31,39.74,31,.25,49,10.36,51.68c12.33,3.26,37.32-22.88,39.08-24.74a3.73,3.73,0,0,1,2.46-1.93,1.08,1.08,0,0,1,1,0c1,.56,2.08,1,3.13,1.51l.27.08a.44.44,0,0,1,.2.08c33.56,11.61,39.26,9.75,46.58,4.55s-9.17-49.42-9.17-49.42C243.28,479.68,245.18,478.43,244.09,469.94Z"/><path class="cls-3" d="M250.23,468.75l-.31-.73-.26-.54a1.14,1.14,0,0,1-.12-.22.1.1,0,0,1,0-.05c-.33-.41-.76-.73-1.12-1.1s-1.09-.76-1.72-1.17c-11.76-7.41-50.56-6.53-50.56-6.53-17.47-27.47-27.55-34.82-33-36.09a8.94,8.94,0,0,0-2.92.16l-.38.09a7.41,7.41,0,0,0-1.54.65c-.1.06-.19.14-.3.2l-.14.11a1.81,1.81,0,0,0-.23.29c-9.15,7.14-17.69,48.09-17.69,48.09s-43.22,9.87-43.82,24.39,39.73,31,39.73,31,.25,49,10.36,51.68c12.34,3.26,37.33-22.88,39.09-24.73a3.38,3.38,0,0,1,1.05-1.27,3.61,3.61,0,0,1,1.41-.67,1.11,1.11,0,0,1,1,0c1,.56,2.08,1,3.13,1.51l.27.08a.72.72,0,0,1,.2.09c33.55,11.61,39.26,9.74,46.58,4.55s-9.17-49.42-9.17-49.42C249.42,478.5,251.33,477.25,250.23,468.75Z"/><path d="M151.07,579.49a11.16,11.16,0,0,1-5,0c-10-2.65-10.69-47.15-10.73-51.82-4-1.68-40.33-17.17-39.74-31.36s39.68-23.79,43.9-24.78c.86-4.08,8.9-41,17.74-48l.22-.28.23-.18.19-.13.13-.09a7.28,7.28,0,0,1,1.68-.7l.39-.1a9.61,9.61,0,0,1,3.09-.17c5.51,1.28,15.67,8.58,33.19,36.07,3.8-.07,39.2-.54,50.55,6.62.76.48,1.3.85,1.76,1.19l.47.45a5.84,5.84,0,0,1,.74.75l.21.34c.1.19.18.38.27.57l.35.8v.07c1,7.46-.37,9.53-13.14,29.29-2.09,3.23-4.49,6.94-7.24,11.23,1.43,3.86,16.26,44.55,8.9,49.77-7.93,5.63-14.4,6.8-47-4.48l-.11,0-.24-.08-.17-.06L191,554c-.81-.37-1.65-.75-2.45-1.2a.62.62,0,0,0-.56,0l-.14,0h0a3,3,0,0,0-1.2.58,3,3,0,0,0-.91,1.08l-.08.13C183.24,557.13,164.14,577,151.07,579.49Zm9.51-156.58-.26.06-.36.09a6,6,0,0,0-1.42.59l-.08.05-.22.15-.05,0a1.27,1.27,0,0,0-.14.18l-.12.14c-8.9,7-17.43,47.39-17.51,47.8l-.07.31-.31.07c-.43.1-42.85,9.95-43.44,23.93s39,30.36,39.43,30.52l.31.13v.33c0,.12.08,12.38,1.39,24.79,2.16,20.52,5.87,25.69,8.6,26.41,12,3.16,36.88-22.79,38.54-24.54a4.08,4.08,0,0,1,1.17-1.37,4,4,0,0,1,1.55-.75,1.58,1.58,0,0,1,1.43.08c.77.42,1.59.8,2.39,1.16l.77.35.1,0a1.15,1.15,0,0,1,.31.11c33.76,11.68,39,9.61,46.08,4.6,5.76-4.09-4.79-36.64-9.35-48.84l-.08-.23.13-.21c2.81-4.38,5.25-8.17,7.38-11.45,12.55-19.42,13.9-21.51,13-28.56l-.29-.66-.24-.52a1.2,1.2,0,0,1-.11-.17,5.46,5.46,0,0,0-.63-.64c-.16-.14-.31-.29-.46-.44-.37-.27-.89-.62-1.63-1.09-11.5-7.25-49.9-6.47-50.28-6.46h-.28l-.15-.24C178.25,431.27,168.29,424,163,422.81A8.59,8.59,0,0,0,160.58,422.91Z"/><path class="cls-2" d="M252.46,1006.45c-.1-.17-.21-.34-.32-.51l-.26-.37a1.71,1.71,0,0,1-.11-.14l0,0a9.46,9.46,0,0,0-1-.69c-.42-.22-.89-.43-1.42-.65-9.63-4.07-38.33,1.34-38.33,1.34-16.33-18.25-24.71-22.47-28.89-22.75a6.85,6.85,0,0,0-2.15.48l-.26.11a5.19,5.19,0,0,0-1.07.67l-.2.19-.09.09a2,2,0,0,0-.13.25c-5.92,6.42-7.24,37.86-7.24,37.86s-30.87,12.62-29.55,23.48,33.3,18.14,33.3,18.14,6.18,36.34,14,37.09c9.56.91,24.9-21.55,26-23.15a2.65,2.65,0,0,1,.62-1.06,2.6,2.6,0,0,1,1-.67.81.81,0,0,1,.77-.1c.82.29,1.67.5,2.51.74l.21,0,.16,0c26.32,4.51,30.33,2.43,35.13-2.33s-12.86-35.56-12.86-35.56C253.06,1013.78,254.32,1012.62,252.46,1006.45Z"/><path class="cls-3" d="M256.88,1004.81l-.32-.5-.26-.37a1,1,0,0,1-.12-.15l0,0c-.3-.26-.65-.45-1-.68s-.9-.43-1.42-.65c-9.64-4.07-38.33,1.33-38.33,1.33C199.1,985.52,190.72,981.3,186.54,981a6.59,6.59,0,0,0-2.15.48l-.27.11a5.24,5.24,0,0,0-1.06.66l-.2.19-.1.1a1.37,1.37,0,0,0-.12.24c-5.92,6.43-7.25,37.87-7.25,37.87s-30.87,12.62-29.54,23.47,33.29,18.15,33.29,18.15,6.19,36.34,14,37.09c9.55.91,24.9-21.56,26-23.15a2.81,2.81,0,0,1,1.6-1.74.83.83,0,0,1,.77-.1c.82.3,1.67.51,2.5.74l.21,0a.42.42,0,0,1,.16,0c26.33,4.51,30.34,2.42,35.13-2.33s-12.85-35.56-12.85-35.56C257.47,1012.15,258.74,1011,256.88,1004.81Z"/><path d="M196.84,1099.16a8.43,8.43,0,0,1-3.71.59c-7.77-.74-13.71-33.69-14.31-37.16-3.19-.74-32-7.79-33.34-18.4S172,1021.67,175,1020.41c.14-3.13,1.59-31.49,7.29-37.81a1.51,1.51,0,0,1,.13-.24l.14-.16a.79.79,0,0,0,.13-.12l.08-.08a5.81,5.81,0,0,1,1.16-.73l.28-.12a7.09,7.09,0,0,1,2.28-.5c4.24.28,12.68,4.45,29,22.71,2.81-.52,29-5.2,38.33-1.28.63.26,1.08.47,1.45.66l.41.28a6.38,6.38,0,0,1,.64.46l.2.23.27.39.35.55,0,.05c1.63,5.43.89,7.12-6.17,23.36-1.16,2.65-2.48,5.7-4,9.22,1.53,2.69,17.53,31.07,12.71,35.85-5.2,5.16-9.86,6.82-35.46,2.44l-.08,0-.2,0-.13,0-.56-.15c-.65-.18-1.32-.36-2-.59a.44.44,0,0,0-.42,0l-.09,0h0a2.31,2.31,0,0,0-.82.57,2.27,2.27,0,0,0-.54.91l-.05.11C218,1078.62,206.23,1095.69,196.84,1099.16ZM184.72,981.77l-.19.07-.26.11a5.76,5.76,0,0,0-1,.61l0,.05-.14.14,0,0-.08.15-.07.12c-5.76,6.25-7.13,37.31-7.14,37.62v.24l-.23.09c-.3.13-30.59,12.64-29.31,23.09s32.69,17.75,33,17.82l.24.06,0,.24c0,.09,1.58,9.18,4.07,18.24,4.12,15,7.5,18.34,9.62,18.55,9.28.87,24.58-21.44,25.6-22.94a3.06,3.06,0,0,1,.7-1.16,3.14,3.14,0,0,1,1.06-.75,1.21,1.21,0,0,1,1.07-.12c.62.22,1.28.4,1.92.58l.61.16h.08a.69.69,0,0,1,.24,0c26.49,4.53,30.14,2.35,34.77-2.24,3.78-3.74-8-26.61-12.92-35.11l-.09-.16.07-.17c1.55-3.6,2.9-6.7,4.07-9.4,6.94-16,7.69-17.67,6.16-22.79l-.3-.45-.24-.36a.53.53,0,0,1-.1-.12,5.12,5.12,0,0,0-.55-.4l-.39-.26c-.31-.16-.74-.36-1.35-.61-9.42-4-37.82,1.31-38.11,1.36l-.21,0-.14-.16c-16.29-18.2-24.57-22.35-28.64-22.62A6.43,6.43,0,0,0,184.72,981.77Z"/><path class="cls-2" d="M409.38,798.89l-.93-.22-.71-.14a1.69,1.69,0,0,1-.3,0h-.07c-.64,0-1.25.21-1.88.3s-1.51.51-2.36.84c-15.6,6.12-42.47,44.43-42.47,44.43-39.15-2.67-53.49,1.87-58.59,6.23a10.85,10.85,0,0,0-1.94,3l-.18.43a8.13,8.13,0,0,0-.47,2c0,.14,0,.29,0,.43v.22a3,3,0,0,0,.12.42c.4,14,34.06,51.55,34.06,51.55s-21.29,49-7.62,60,58.49-16.44,58.49-16.44,47.77,34.77,57.59,26.86c12-9.64,4.45-52.59,3.91-55.62a4.11,4.11,0,0,1-.48-1.92,4.22,4.22,0,0,1,.36-1.85,1.32,1.32,0,0,1,.77-1c1.27-.58,2.48-1.29,3.71-2,.08-.07.18-.12.26-.2a.76.76,0,0,1,.23-.13c35.25-24.29,37.51-31.16,37.7-42S434,847.61,434,847.61C418.27,806.64,418.42,803.89,409.38,798.89Z"/><path class="cls-3" d="M412.62,792.07l-.93-.21-.71-.14s-.24,0-.3,0h-.07c-.64,0-1.25.21-1.88.29s-1.51.51-2.36.85c-15.6,6.12-42.47,44.42-42.47,44.42-39.15-2.66-53.49,1.88-58.6,6.24a10.89,10.89,0,0,0-1.93,3l-.18.42a8.36,8.36,0,0,0-.47,2c0,.15,0,.29,0,.44v.22a3,3,0,0,0,.12.42c.4,14,34.06,51.54,34.06,51.54s-21.3,49-7.62,60S387.75,945,387.75,945s47.77,34.77,57.59,26.86c12-9.65,4.45-52.59,3.9-55.62a4.53,4.53,0,0,1-.11-3.78,1.28,1.28,0,0,1,.77-1c1.27-.59,2.48-1.29,3.7-2,.09-.07.19-.13.27-.2a.79.79,0,0,1,.23-.14c35.24-24.29,37.51-31.16,37.69-42s-54.54-26.41-54.54-26.41C421.51,799.82,421.66,797.08,412.62,792.07Z"/><path d="M449.32,967.49a13.69,13.69,0,0,1-3.6,4.83c-9.75,7.84-53.43-23.31-58-26.61-4.5,2.71-45.48,26.9-58.84,16.18s5.25-55.53,7.3-60.33c-3.34-3.76-33.42-37.92-33.95-51.54a3.46,3.46,0,0,1-.12-.42v-.35c0-.12,0-.2,0-.27v-.19a8.71,8.71,0,0,1,.51-2.13l.19-.45a11.31,11.31,0,0,1,2-3.13c5.18-4.43,19.53-9.08,58.74-6.45,2.65-3.74,27.49-38.45,42.55-44.36,1-.4,1.75-.66,2.4-.86l.78-.14a8.18,8.18,0,0,1,1.25-.18l.49,0,.75.14,1,.24.07,0c7.94,4.39,9,7.17,19,33.69,1.65,4.34,3.54,9.32,5.75,15.06,4.76,1.37,54.87,16,54.68,26.91-.2,11.73-3.69,18.85-37.95,42.46l-.13.07-.25.18-.17.13-.82.45c-.94.52-1.92,1.06-2.92,1.52a.71.71,0,0,0-.43.52l-.05.17h0a3.47,3.47,0,0,0-.3,1.57,3.62,3.62,0,0,0,.4,1.65l.06.18C450.59,920.27,456.2,953,449.32,967.49ZM304.05,846.38c0,.1-.09.2-.13.29l-.17.42a7.76,7.76,0,0,0-.44,1.8V849a1.72,1.72,0,0,1,0,.32v.09c0,.12.07.24.07.26l.05.21c.39,13.61,33.57,50.79,33.91,51.16l.25.29-.15.35c-.21.49-21,48.72-7.8,59.28s57.37-16.21,57.81-16.48l.34-.21.33.24c.12.08,12.07,8.76,25.06,16.36,21.47,12.56,29.14,12.65,31.8,10.51,11.63-9.37,4.21-52.09,3.7-55a5.13,5.13,0,0,1-.12-4.15,2,2,0,0,1,1.1-1.34c1-.44,1.91-1,2.84-1.48l.88-.5.11-.08a1.27,1.27,0,0,1,.33-.22c35.46-24.44,37.21-31,37.39-41.46.14-8.52-39-21.53-54.11-25.82l-.29-.08-.11-.28c-2.25-5.86-4.17-10.93-5.85-15.35-9.89-26.06-10.95-28.86-18.43-33l-.85-.2-.68-.13-.25,0a7.07,7.07,0,0,0-1.07.15l-.75.14c-.53.16-1.24.42-2.22.8-15.26,6-41.93,43.83-42.2,44.21l-.19.28-.34,0c-39.07-2.66-53.2,1.85-58.17,6.09A10.44,10.44,0,0,0,304.05,846.38Z"/><path class="cls-2" d="M637.21,1022.07c-.06-.26-.11-.52-.17-.78l-.15-.58a1.12,1.12,0,0,1-.08-.24l0-.05c-.25-.47-.6-.86-.89-1.3s-.92-1-1.47-1.47c-10.14-9.51-48.4-16-48.4-16-11.94-30.28-20.44-39.41-25.53-41.68a9.2,9.2,0,0,0-2.9-.4l-.38,0a7,7,0,0,0-1.64.34l-.33.14-.16.08a2,2,0,0,0-.28.24c-10.34,5.28-26.49,43.87-26.49,43.87s-44.3,1.49-47.66,15.63,33.14,38,33.14,38-9,48.16.37,52.7c11.49,5.55,41-15.38,43.07-16.87a3.49,3.49,0,0,1,1.27-1,3.56,3.56,0,0,1,1.51-.39,1.11,1.11,0,0,1,1,.23c.89.74,1.84,1.4,2.78,2.08l.25.13a.57.57,0,0,1,.18.12c30.74,17.76,36.7,17,44.87,13.3s.37-50.26.37-50.26C634.57,1031.48,636.67,1030.62,637.21,1022.07Z"/><path class="cls-3" d="M643.47,1022.07l-.18-.78c0-.2-.09-.39-.14-.58a1.23,1.23,0,0,1-.08-.23l0-.06c-.25-.47-.6-.86-.89-1.3s-.92-1-1.47-1.47c-10.14-9.51-48.4-16-48.4-16-11.94-30.28-20.45-39.4-25.53-41.68a9.2,9.2,0,0,0-2.9-.4l-.38,0a7,7,0,0,0-1.64.34l-.33.14-.17.08a2.27,2.27,0,0,0-.27.24c-10.34,5.28-26.49,43.87-26.49,43.87s-44.31,1.49-47.66,15.63,33.14,38,33.14,38-9,48.16.37,52.71c11.49,5.54,41-15.39,43.06-16.88a3.52,3.52,0,0,1,1.28-1,3.56,3.56,0,0,1,1.51-.39,1.09,1.09,0,0,1,1,.23c.9.74,1.85,1.4,2.79,2.08l.25.13a.57.57,0,0,1,.18.12c30.74,17.76,36.7,17,44.87,13.3s.37-50.26.37-50.26C640.82,1031.48,642.93,1030.62,643.47,1022.07Z"/><path d="M525.1,1112a11.16,11.16,0,0,1-4.89-1c-9.35-4.5-1.56-48.32-.71-52.92-3.63-2.4-36.34-24.5-33.07-38.32s43.47-15.84,47.8-16c1.63-3.83,16.51-38.53,26.53-43.78a2.56,2.56,0,0,1,.27-.23l.26-.14a1.09,1.09,0,0,0,.21-.09l.14-.06a7.21,7.21,0,0,1,1.79-.37l.4,0a9.08,9.08,0,0,1,3.06.42c5.17,2.3,13.76,11.39,25.75,41.71,3.74.65,38.59,6.9,48.38,16.09.65.61,1.12,1.07,1.5,1.49a6.32,6.32,0,0,0,.38.53,7.05,7.05,0,0,1,.58.88l.14.37c.06.21.11.41.16.62l.19.85v.07c-.47,7.51-2.17,9.28-18.46,26.26l-9.24,9.66c.67,4.06,7.52,46.82-.69,50.55-8.86,4-15.44,4-45.33-13.32l-.09-.07-.23-.12-.15-.09-.63-.45c-.73-.52-1.48-1.06-2.18-1.65a.6.6,0,0,0-.55-.13l-.14,0h0a3.32,3.32,0,0,0-2.38,1.22l-.11.12C560.93,1096.14,538.41,1112,525.1,1112Zm39-151.94h-.26l-.37,0a6.33,6.33,0,0,0-1.51.31l-.08,0-.25.1-.06,0a.69.69,0,0,0-.17.15l-.14.11c-10.06,5.13-26.1,43.23-26.26,43.61l-.13.29h-.31c-.44,0-44,1.64-47.19,15.26s32.56,37.21,32.92,37.44l.28.19-.06.32c0,.12-2.27,12.17-3.34,24.61-1.77,20.55.89,26.33,3.44,27.56,11.16,5.38,40.53-15.38,42.49-16.79a4.11,4.11,0,0,1,1.4-1.12,4,4,0,0,1,1.67-.44,1.59,1.59,0,0,1,1.39.34c.68.56,1.41,1.09,2.12,1.6l.7.48.09,0a1,1,0,0,1,.28.18c30.94,17.87,36.49,16.83,44.37,13.25,6.44-2.93,2.25-36.89.09-49.73l0-.24.17-.18c3.59-3.77,6.71-7,9.42-9.85,16-16.68,17.72-18.48,18.18-25.57l-.16-.7c0-.18-.09-.37-.14-.55a1.21,1.21,0,0,1-.07-.2,7,7,0,0,0-.5-.75c-.13-.17-.25-.33-.37-.51-.31-.34-.76-.78-1.39-1.38-9.91-9.3-47.77-15.81-48.15-15.88l-.27,0-.1-.26c-11.92-30.21-20.32-39.19-25.27-41.4A8.31,8.31,0,0,0,564.13,960.05Z"/><path class="cls-2" d="M153.15,839.85l-.12-.55c0-.14-.07-.28-.11-.41s0-.13,0-.17l0,0c-.18-.33-.43-.61-.63-.92s-.65-.67-1-1C144,830,117,825.42,117,825.42,108.56,804,102.55,797.59,99,796a6.2,6.2,0,0,0-2-.28h-.27a4.53,4.53,0,0,0-1.15.24l-.24.1-.12.06-.19.17c-7.3,3.73-18.71,31-18.71,31s-31.3,1-33.66,11S66,865.13,66,865.13s-6.39,34,.27,37.23c8.11,3.91,29-10.87,30.41-11.92a2.68,2.68,0,0,1,2-1,.77.77,0,0,1,.71.16c.63.53,1.31,1,2,1.47a1.4,1.4,0,0,0,.17.09.38.38,0,0,1,.13.09c21.72,12.54,25.92,12,31.7,9.39s.26-35.5.26-35.5C151.28,846.5,152.77,845.89,153.15,839.85Z"/><path class="cls-3" d="M157.57,839.85l-.12-.55c0-.14-.07-.28-.11-.41s-.05-.13-.05-.17l0,0c-.18-.33-.43-.61-.63-.92s-.65-.67-1-1c-7.16-6.72-34.19-11.31-34.19-11.31C113,804,107,797.59,103.38,796a6.2,6.2,0,0,0-2-.28h-.27a5,5,0,0,0-1.15.24l-.24.1-.11.06a2.24,2.24,0,0,0-.2.17c-7.3,3.73-18.71,31-18.71,31s-31.3,1-33.66,11,23.4,26.82,23.4,26.82-6.39,34,.27,37.23c8.11,3.91,29-10.87,30.41-11.92a2.68,2.68,0,0,1,2-1,.77.77,0,0,1,.71.16c.63.53,1.31,1,2,1.47a1.4,1.4,0,0,0,.17.09.3.3,0,0,1,.13.09c21.72,12.54,25.92,12,31.7,9.39s.26-35.5.26-35.5C155.7,846.5,157.19,845.89,157.57,839.85Z"/><path d="M74,903.37a8,8,0,0,1-3.46-.7c-6.6-3.18-1.09-34.13-.49-37.37-2.57-1.7-25.68-17.31-23.36-27.07S77.35,827,80.41,826.92c1.15-2.71,11.66-27.22,18.74-30.93l.19-.16.18-.1.15-.06.1,0a5.45,5.45,0,0,1,1.26-.27h.28a6.53,6.53,0,0,1,2.17.29c3.65,1.63,9.72,8.05,18.19,29.47,2.64.46,27.25,4.88,34.17,11.36.46.44.79.76,1.06,1.06l.27.37a4.76,4.76,0,0,1,.41.62l.1.27c0,.14.08.29.11.43l.13.6v0c-.33,5.3-1.53,6.56-13,18.55l-6.53,6.83c.48,2.86,5.31,33.06-.49,35.7-6.26,2.85-10.9,2.79-32-9.41l-.07,0-.16-.08-.11-.07-.44-.32a18.79,18.79,0,0,1-1.54-1.16.44.44,0,0,0-.39-.09H103a2.17,2.17,0,0,0-.91.24,2.11,2.11,0,0,0-.77.63l-.08.07C99.27,892.17,83.36,903.37,74,903.37Zm27.57-107.32h-.45a4.76,4.76,0,0,0-1.06.22l-.06,0-.17.07-.05,0-.12.1-.1.08c-7.1,3.63-18.43,30.54-18.55,30.81l-.08.2h-.23c-.31,0-31,1.16-33.33,10.78s23,26.28,23.26,26.45l.19.12,0,.24c0,.08-1.61,8.59-2.36,17.38-1.25,14.51.63,18.6,2.43,19.46,7.88,3.8,28.63-10.86,30-11.85a2.73,2.73,0,0,1,1-.8,2.77,2.77,0,0,1,1.17-.31,1.16,1.16,0,0,1,1,.24c.47.4,1,.77,1.49,1.13l.49.34.07,0a.82.82,0,0,1,.2.12c21.85,12.62,25.77,11.89,31.34,9.36,4.55-2.06,1.59-26,.06-35.12l0-.17.13-.13c2.53-2.66,4.73-5,6.64-6.95,11.31-11.79,12.53-13.06,12.85-18.07l-.11-.49-.1-.4a.43.43,0,0,1,0-.13,4.1,4.1,0,0,0-.36-.53l-.26-.36c-.22-.24-.53-.55-1-1-7-6.56-33.74-11.17-34-11.21l-.19,0-.07-.18c-8.42-21.34-14.36-27.69-17.85-29.25A5.9,5.9,0,0,0,101.53,796.05Z"/><path class="cls-2" d="M200.13,33c0-.06,0-.12,0-.19l0-.15v-.06h0a2.63,2.63,0,0,0-.06-.39q-.07-.22-.18-.48c-1.31-3.19-9.27-8.58-9.27-8.58.42-8.06-.56-11-1.47-12a2.15,2.15,0,0,0-.61-.38l-.09,0a1.44,1.44,0,0,0-.4-.09H188l-.09,0c-2.87.13-10.48,7.17-10.48,7.17s-10.14-4.22-12.35-1.38,3.56,12,3.56,12-7,9.93-5.33,11.92c2,2.44,10.82.75,11.44.63a.92.92,0,0,1,.4-.11,1,1,0,0,1,.38.07.27.27,0,0,1,.2.16c.13.26.27.5.42.75l0,.06,0,0c5.1,7.17,6.52,7.61,8.74,7.62s5.26-11.3,5.26-11.3C198.57,34.82,199.13,34.85,200.13,33Z"/><path class="cls-3" d="M201.54,33.62a1.42,1.42,0,0,0,0-.2l0-.14V33.2a2.5,2.5,0,0,0-.06-.38q-.08-.23-.18-.48c-1.31-3.19-9.27-8.59-9.27-8.59.42-8.06-.56-11-1.47-12a2.19,2.19,0,0,0-.61-.39l-.09,0a2.59,2.59,0,0,0-.4-.09h-.14l-.08,0c-2.88.12-10.49,7.16-10.49,7.16S168.68,14.18,166.47,17,170,29,170,29s-7,9.92-5.34,11.92c2,2.43,10.82.74,11.44.62a.91.91,0,0,1,.4-.1.74.74,0,0,1,.38.07.26.26,0,0,1,.2.15c.13.26.27.51.42.76l0,0,0,.05c5.1,7.16,6.52,7.61,8.75,7.61s5.25-11.29,5.25-11.29C200,35.47,200.54,35.49,201.54,33.62Z"/><path d="M165.61,41.72a2.83,2.83,0,0,1-1-.72c-1.65-2,4.61-11.06,5.28-12-.57-.91-5.68-9.26-3.52-12s11.43.9,12.43,1.31c.76-.7,7.68-7,10.48-7.14l.08,0h.17a1.65,1.65,0,0,1,.44.1l.09,0a2.46,2.46,0,0,1,.65.41c.93,1,1.93,4,1.52,12.06.78.53,8,5.52,9.25,8.6.09.2.14.36.19.49s0,.11,0,.16,0,.16,0,.26v.09l0,.16,0,.21v0c-.88,1.64-1.44,1.87-6.86,4l-3.08,1.23c-.26,1-3.12,11.33-5.35,11.32-2.42,0-3.89-.7-8.85-7.66l0,0,0-.05,0,0-.1-.17c-.11-.19-.22-.39-.32-.6a.13.13,0,0,0-.11-.08h0a.84.84,0,0,0-.33-.06,1,1,0,0,0-.34.09h0C175.32,41.83,168.61,43.09,165.61,41.72ZM190,11.48l-.06,0-.08,0-.37-.09h-.11l0,0h-.05c-2.8.12-10.33,7.06-10.4,7.13l-.06.06-.08,0c-.1-.05-10.08-4.16-12.2-1.42s3.51,11.74,3.57,11.83l0,.07,0,.07s-1.77,2.51-3.29,5.2c-2.51,4.45-2.5,6-2.06,6.57,2,2.36,10.72.7,11.31.58a1.24,1.24,0,0,1,.43-.11,1,1,0,0,1,.42.08.37.37,0,0,1,.28.22l.32.58.1.18,0,0a.16.16,0,0,1,0,.07c5.14,7.2,6.5,7.54,8.65,7.55,1.75,0,4.3-8.09,5.13-11.21l0-.06.05,0,3.14-1.25c5.32-2.12,5.89-2.34,6.73-3.9l0-.17,0-.14v0a1.46,1.46,0,0,0,0-.22.4.4,0,0,1,0-.15c0-.11-.09-.26-.18-.46-1.28-3.11-9.14-8.48-9.22-8.53l-.06,0v-.07c.42-8-.55-10.92-1.44-11.93A1.86,1.86,0,0,0,190,11.48Z"/><path class="cls-2" d="M629.39-8.91c0-.17-.07-.34-.11-.51s-.06-.26-.1-.38a.75.75,0,0,1,0-.16l0,0c-.16-.3-.4-.57-.59-.86s-.61-.62-1-1c-6.71-6.29-32-10.59-32-10.59-7.9-20-13.53-26.07-16.89-27.57a5.68,5.68,0,0,0-1.92-.26h-.25a4.41,4.41,0,0,0-1.08.22l-.22.1-.11.05a1.22,1.22,0,0,0-.18.16c-6.84,3.49-17.53,29-17.53,29s-29.31,1-31.52,10.34,21.92,25.12,21.92,25.12-6,31.86.24,34.87c7.61,3.67,27.12-10.18,28.49-11.16a2.26,2.26,0,0,1,.84-.69,2.32,2.32,0,0,1,1-.26.72.72,0,0,1,.67.15c.59.5,1.22.93,1.84,1.38l.16.08a.38.38,0,0,1,.13.09C601.45,51,605.39,50.48,610.8,48s.25-33.25.25-33.25C627.64-2.68,629-3.25,629.39-8.91Z"/><path class="cls-3" d="M633.53-8.9c0-.18-.07-.35-.11-.52s-.06-.26-.1-.38a.6.6,0,0,1-.05-.16l0,0c-.16-.31-.4-.57-.59-.87s-.61-.62-1-1c-6.71-6.29-32-10.59-32-10.59-7.9-20-13.52-26.07-16.89-27.57a5.68,5.68,0,0,0-1.92-.26h-.25a4.41,4.41,0,0,0-1.08.22l-.22.1-.11.05a1.22,1.22,0,0,0-.18.16c-6.84,3.49-17.53,29-17.53,29s-29.31,1-31.52,10.34,21.92,25.12,21.92,25.12-6,31.86.24,34.87c7.61,3.67,27.12-10.18,28.49-11.16a2.26,2.26,0,0,1,.84-.69,2.32,2.32,0,0,1,1-.26.75.75,0,0,1,.67.15c.59.5,1.22.93,1.84,1.38l.16.09a.35.35,0,0,1,.13.08C605.59,51,609.53,50.48,614.94,48s.25-33.25.25-33.25C631.78-2.68,633.18-3.25,633.53-8.9Z"/><path d="M555.23,50.58a7.27,7.27,0,0,1-3.24-.64c-6.18-3-1-32-.47-35-2.4-1.59-24-16.21-21.87-25.35S558.41-20.9,561.27-21c1.07-2.54,10.92-25.49,17.55-29l.18-.15.17-.09.14-.06.09,0a5.4,5.4,0,0,1,1.18-.25h.27a6.29,6.29,0,0,1,2,.28c3.41,1.52,9.1,7.54,17,27.59,2.48.43,25.53,4.57,32,10.64.44.41.74.72,1,1s.18.25.26.35a4.84,4.84,0,0,1,.38.58l.1.25c0,.14.07.27.1.41l.12.56v0c-.31,5-1.44,6.14-12.21,17.37-1.77,1.84-3.79,3.95-6.11,6.39.44,2.68,5,31-.47,33.44-5.86,2.67-10.21,2.61-30-8.81l-.06,0-.15-.08-.1-.05-.42-.31c-.48-.34-1-.69-1.44-1.08a.39.39,0,0,0-.36-.09h-.1a2.1,2.1,0,0,0-1.57.81l-.08.08C578.93,40.1,564,50.58,555.23,50.58ZM581.05-49.93h-.17l-.25,0a4.57,4.57,0,0,0-1,.2l-.06,0-.16.07,0,0-.11.1-.09.07c-6.66,3.4-17.27,28.6-17.37,28.85l-.09.2h-.21c-.29,0-29.08,1.08-31.21,10.09s21.54,24.61,21.78,24.77l.18.12,0,.21c0,.08-1.5,8-2.21,16.28-1.17,13.6.59,17.42,2.28,18.24,7.38,3.55,26.81-10.18,28.11-11.11a2.55,2.55,0,0,1,.93-.74,2.66,2.66,0,0,1,1.1-.3,1.08,1.08,0,0,1,.92.23c.45.38.93.72,1.4,1.06l.46.32.06,0a.76.76,0,0,1,.19.12c20.46,11.82,24.14,11.13,29.35,8.77,4.26-1.94,1.49-24.41.06-32.9l0-.16.12-.12c2.37-2.5,4.43-4.65,6.22-6.51,10.59-11,11.73-12.23,12-16.92l-.1-.46c0-.13-.06-.25-.1-.37s0-.09,0-.13a3.61,3.61,0,0,0-.33-.5,2.62,2.62,0,0,1-.24-.34c-.21-.22-.51-.51-.93-.91-6.55-6.15-31.59-10.46-31.85-10.5l-.18,0-.07-.18c-7.88-20-13.44-25.93-16.71-27.39A5.85,5.85,0,0,0,581.05-49.93Z"/><path class="cls-2" d="M222.37,304.38l-.21-.19-.17-.14-.08-.05,0,0c-.17-.08-.36-.12-.54-.19s-.47-.08-.75-.12c-5-.64-17.74,5.64-17.74,5.64-10-6.39-14.48-7.27-16.48-6.85a3.16,3.16,0,0,0-.94.5l-.11.09a2.52,2.52,0,0,0-.41.45.41.41,0,0,1-.07.11l0,.06,0,.13c-1.92,3.78,1.57,18.65,1.57,18.65s-12.78,9.93-10.74,14.83,17.93,4.13,17.93,4.13,7.65,16.18,11.41,15.5c4.58-.82,8.82-13.33,9.11-14.21a1.33,1.33,0,0,1,.16-.58,1.19,1.19,0,0,1,.36-.44.39.39,0,0,1,.35-.15c.42,0,.84,0,1.27,0l.1,0h.08c12.89-1.34,14.49-2.83,16.11-5.68s-10.66-14.94-10.66-14.94C223.61,307.73,224.05,307,222.37,304.38Z"/><path class="cls-3" d="M224.22,303l-.21-.19-.17-.14s-.06,0-.07-.06h0c-.17-.08-.36-.12-.54-.19s-.47-.08-.75-.12c-5-.64-17.74,5.64-17.74,5.64-10-6.39-14.48-7.27-16.48-6.85a3.16,3.16,0,0,0-.94.5l-.11.09a2.52,2.52,0,0,0-.41.45.41.41,0,0,1-.07.11l0,.06,0,.13c-1.92,3.78,1.57,18.65,1.57,18.65s-12.78,9.93-10.74,14.83,17.94,4.13,17.94,4.13,7.64,16.18,11.4,15.5c4.58-.82,8.82-13.33,9.12-14.22a1.22,1.22,0,0,1,.15-.58,1.36,1.36,0,0,1,.36-.43.39.39,0,0,1,.35-.15c.42,0,.85,0,1.27,0l.1,0h.08c12.89-1.34,14.49-2.83,16.12-5.69s-10.66-14.94-10.66-14.94C225.46,306.39,225.9,305.68,224.22,303Z"/><path d="M208.5,355a4.13,4.13,0,0,1-1.66.76c-3.73.67-10.81-13.95-11.55-15.5-1.59.07-16,.55-18-4.24s9.46-14,10.71-15c-.35-1.48-3.38-14.93-1.54-18.63a.41.41,0,0,1,0-.12l.05-.1,0-.07,0-.05a2.91,2.91,0,0,1,.44-.49l.12-.09a3.09,3.09,0,0,1,1-.53c2-.43,6.51.42,16.55,6.81,1.24-.61,12.88-6.23,17.75-5.61.32,0,.56.08.76.12l.23.08a2,2,0,0,1,.36.13l.12.08.18.15.23.21,0,0c1.47,2.32,1.35,3.21.17,11.72-.19,1.4-.42,3-.66,4.84,1.06,1.05,12.25,12.23,10.62,15.09-1.75,3.09-3.72,4.48-16.25,5.78h-.49c-.32,0-.66,0-1,0a.19.19,0,0,0-.19.08l0,0h0a1.08,1.08,0,0,0-.31.38,1,1,0,0,0-.13.5v.05C215.69,342.62,212.43,352.14,208.5,355Zm-21-53.29-.08.06-.1.09a2.1,2.1,0,0,0-.38.41l0,0a.22.22,0,0,1-.05.08v0s0,.07,0,.08v.06c-1.88,3.68,1.54,18.38,1.58,18.52l0,.12-.09.07c-.13.1-12.65,9.9-10.68,14.62s17.6,4,17.76,4h.12l0,.11s1.93,4.08,4.28,8c3.89,6.46,5.91,7.59,6.93,7.41,4.45-.8,8.68-13.23,9-14.07a1.5,1.5,0,0,1,.18-.63,1.42,1.42,0,0,1,.4-.49.56.56,0,0,1,.48-.19c.32,0,.65,0,1,0h.47c13-1.35,14.39-2.85,16-5.59,1.27-2.25-7.24-11.39-10.63-14.73l-.07-.06,0-.09c.25-1.88.47-3.51.67-4.93,1.16-8.36,1.28-9.26-.1-11.45l-.2-.18-.16-.13-.07,0-.3-.12-.22-.07-.71-.11c-4.92-.62-17.51,5.56-17.64,5.62l-.09.05-.08-.06c-10-6.38-14.41-7.23-16.35-6.83A3.29,3.29,0,0,0,187.48,301.7Z"/><path class="cls-2" d="M1545,1030.1l-.15-.14-.12-.09,0,0h0c-.12-.06-.25-.09-.37-.14l-.51-.08c-3.43-.43-12.08,3.84-12.08,3.84-6.83-4.35-9.87-5-11.23-4.66a2.19,2.19,0,0,0-.64.34l-.07.06a1.38,1.38,0,0,0-.28.31l0,.07,0,0a.32.32,0,0,0,0,.09c-1.31,2.57,1.07,12.7,1.07,12.7s-8.71,6.77-7.32,10.1,12.22,2.82,12.22,2.82,5.2,11,7.76,10.55c3.13-.56,6-9.07,6.21-9.68a.79.79,0,0,1,.11-.39.81.81,0,0,1,.25-.3.25.25,0,0,1,.23-.1c.29,0,.58,0,.87,0h.12c8.78-.91,9.87-1.93,11-3.87s-7.27-10.18-7.27-10.18C1545.79,1032.38,1546.09,1031.9,1545,1030.1Z"/><path class="cls-3" d="M1546.21,1029.18l-.15-.13-.12-.09,0,0h0l-.37-.13-.51-.08c-3.43-.43-12.08,3.84-12.08,3.84-6.83-4.35-9.87-5-11.23-4.67a2.22,2.22,0,0,0-.64.35l-.07.06a1.58,1.58,0,0,0-.28.3l0,.08,0,0a.27.27,0,0,0,0,.09c-1.31,2.57,1.07,12.7,1.07,12.7s-8.71,6.76-7.32,10.1,12.22,2.81,12.22,2.81,5.2,11,7.76,10.56c3.13-.56,6-9.08,6.21-9.68a.83.83,0,0,1,.11-.4.89.89,0,0,1,.25-.3.28.28,0,0,1,.23-.1c.29,0,.58,0,.87,0h.12c8.78-.91,9.87-1.93,11-3.87s-7.26-10.17-7.26-10.17C1547.05,1031.46,1547.35,1031,1546.21,1029.18Z"/><path d="M1535.5,1064.57a2.92,2.92,0,0,1-1.13.51c-2.54.46-7.37-9.5-7.87-10.55-1.08,0-10.89.37-12.25-2.89s6.44-9.53,7.29-10.2c-.23-1-2.3-10.17-1-12.69a.51.51,0,0,1,0-.09l0-.06a.09.09,0,0,0,0,0l0,0a1.67,1.67,0,0,1,.31-.34l.07-.06a2.33,2.33,0,0,1,.68-.36c1.38-.29,4.44.28,11.27,4.64.85-.42,8.78-4.24,12.1-3.82l.52.08.15,0,.24.09.09.06.12.1.16.14v0c1,1.58.92,2.18.12,8-.14,1-.29,2-.45,3.29.72.72,8.34,8.33,7.23,10.28-1.19,2.11-2.53,3-11.07,3.94h-1a.13.13,0,0,0-.13.05l0,0h0a.59.59,0,0,0-.21.25.72.72,0,0,0-.09.34v0C1540.4,1056.14,1538.17,1062.62,1535.5,1064.57Zm-14.32-36.3,0,0-.07.06a1.69,1.69,0,0,0-.26.28v0l0,.06v0a.2.2,0,0,1,0,0v0c-1.28,2.51,1,12.52,1.08,12.62v.08l-.06,0c-.08.06-8.61,6.74-7.27,10s12,2.74,12.09,2.74h.08l0,.07s1.32,2.78,2.92,5.44c2.64,4.4,4,5.17,4.71,5,3-.55,5.92-9,6.11-9.58a.88.88,0,0,1,.12-.43,1,1,0,0,1,.27-.34.4.4,0,0,1,.33-.13c.22,0,.44,0,.66,0h.32c8.84-.92,9.8-1.94,10.87-3.81.87-1.53-4.93-7.75-7.24-10l0,0v-.06c.17-1.28.33-2.39.46-3.35.79-5.7.87-6.31-.07-7.81l-.13-.12-.11-.09,0,0-.2-.07-.15,0c-.12,0-.27-.05-.49-.08-3.35-.42-11.92,3.79-12,3.83l-.06,0-.06,0c-6.81-4.34-9.81-4.92-11.13-4.65A2.51,2.51,0,0,0,1521.18,1028.27Z"/><path class="cls-2" d="M1758.82,1038.89l-.15-.13-.11-.09,0,0h0a3.18,3.18,0,0,0-.37-.14l-.51-.08c-3.43-.43-12.08,3.84-12.08,3.84-6.82-4.35-9.87-5-11.22-4.67a2.22,2.22,0,0,0-.64.35l-.08.06a2,2,0,0,0-.28.3l0,.08,0,0a.66.66,0,0,1,0,.09c-1.31,2.57,1.07,12.7,1.07,12.7s-8.7,6.77-7.31,10.1,12.21,2.81,12.21,2.81,5.21,11,7.77,10.56c3.12-.56,6-9.08,6.21-9.68a.9.9,0,0,1,.1-.39.82.82,0,0,1,.25-.3.26.26,0,0,1,.24-.1c.28,0,.57,0,.86,0h.12c8.79-.91,9.88-1.93,11-3.87s-7.26-10.18-7.26-10.18C1759.66,1041.18,1760,1040.69,1758.82,1038.89Z"/><path class="cls-3" d="M1760.08,1038l-.15-.13-.11-.1,0,0h0a3.19,3.19,0,0,0-.37-.13l-.51-.08c-3.43-.44-12.08,3.84-12.08,3.84-6.82-4.36-9.87-4.95-11.22-4.67a2.45,2.45,0,0,0-.64.34l-.08.06a2.06,2.06,0,0,0-.28.31l0,.08,0,0,0,.09c-1.31,2.57,1.07,12.7,1.07,12.7s-8.7,6.76-7.31,10.1,12.21,2.81,12.21,2.81,5.21,11,7.77,10.56c3.12-.56,6-9.08,6.21-9.68a.91.91,0,0,1,.1-.4,1,1,0,0,1,.25-.3.28.28,0,0,1,.24-.1c.28,0,.57,0,.86,0h.12c8.79-.91,9.88-1.93,11-3.87s-7.26-10.17-7.26-10.17C1760.92,1040.26,1761.22,1039.78,1760.08,1038Z"/><path d="M1749.37,1073.36a2.8,2.8,0,0,1-1.13.52c-2.54.46-7.36-9.5-7.86-10.55-1.09,0-10.9.37-12.26-2.89s6.45-9.54,7.29-10.2c-.23-1-2.3-10.17-1-12.69a.18.18,0,0,1,0-.09l0-.06,0-.05,0,0a1.63,1.63,0,0,1,.3-.34l.08-.06a2.23,2.23,0,0,1,.68-.37c1.37-.28,4.43.29,11.27,4.65.85-.42,8.78-4.24,12.09-3.82a4.14,4.14,0,0,1,.52.08l.15,0a1.25,1.25,0,0,1,.25.09l.08.06.12.1.17.14h0c1,1.59.92,2.19.12,8l-.45,3.29c.73.72,8.35,8.33,7.24,10.28-1.2,2.11-2.54,3-11.07,3.93h-1a.12.12,0,0,0-.13,0l0,0h0a.8.8,0,0,0-.21.26.72.72,0,0,0-.09.34v0C1754.27,1064.94,1752.05,1071.42,1749.37,1073.36Zm-14.32-36.29,0,0-.07.06a1.37,1.37,0,0,0-.26.28v0l0,.06h0a.18.18,0,0,0,0,.06l0,0c-1.27,2.51,1.06,12.52,1.08,12.62l0,.07-.06.05c-.09.07-8.62,6.75-7.28,10s12,2.74,12.1,2.74h.08l0,.08s1.32,2.78,2.92,5.44c2.65,4.4,4,5.17,4.72,5.05,3-.55,5.91-9,6.1-9.58a1.11,1.11,0,0,1,.12-.43,1,1,0,0,1,.27-.34.4.4,0,0,1,.33-.13h1c8.84-.92,9.81-1.94,10.87-3.81.87-1.53-4.93-7.75-7.24-10l0,0v-.06c.17-1.28.32-2.39.46-3.36.78-5.69.87-6.3-.07-7.8l-.14-.12-.11-.09,0,0-.21-.07-.15-.06-.48-.07c-3.35-.42-11.93,3.79-12,3.83l-.07,0,0,0c-6.81-4.34-9.82-4.92-11.14-4.65A2.31,2.31,0,0,0,1735.05,1037.07Z"/><path class="cls-2" d="M1642.56,975.86l-.2-.17-.15-.12-.06-.05h0a4.75,4.75,0,0,0-.49-.17c-.2,0-.42-.08-.67-.11-4.5-.57-15.85,5-15.85,5-8.95-5.71-12.95-6.5-14.73-6.12a2.73,2.73,0,0,0-.84.45l-.1.07a2.41,2.41,0,0,0-.37.41.53.53,0,0,1-.06.1l0,.05a.34.34,0,0,0,0,.12c-1.72,3.37,1.4,16.66,1.4,16.66s-11.42,8.88-9.6,13.26,16,3.69,16,3.69,6.83,14.46,10.19,13.85c4.1-.73,7.89-11.91,8.15-12.7a1.07,1.07,0,0,1,.14-.52.94.94,0,0,1,.32-.39.37.37,0,0,1,.31-.14c.38,0,.76,0,1.14,0h.16c11.52-1.19,13-2.53,14.4-5.07s-9.53-13.36-9.53-13.36C1643.66,978.86,1644.05,978.23,1642.56,975.86Z"/><path class="cls-3" d="M1644.21,974.67l-.19-.18-.15-.12-.07,0h0c-.15-.07-.32-.11-.48-.17l-.67-.11c-4.5-.57-15.86,5-15.86,5-9-5.71-13-6.5-14.72-6.12a2.67,2.67,0,0,0-.85.45l-.09.08a1.76,1.76,0,0,0-.37.4l-.06.1,0,0,0,.12c-1.72,3.37,1.4,16.66,1.4,16.66s-11.42,8.88-9.59,13.26,16,3.69,16,3.69,6.84,14.46,10.2,13.85c4.09-.73,7.88-11.91,8.14-12.7a1.19,1.19,0,0,1,.14-.52,1.13,1.13,0,0,1,.33-.39.34.34,0,0,1,.3-.13c.38,0,.76,0,1.14,0h.16c11.53-1.2,13-2.54,14.4-5.08s-9.52-13.36-9.52-13.36C1645.32,977.66,1645.71,977,1644.21,974.67Z"/><path d="M1630.16,1021.09a3.56,3.56,0,0,1-1.49.68c-3.33.6-9.66-12.47-10.32-13.84-1.42.06-14.29.48-16.07-3.8s8.45-12.51,9.56-13.38c-.3-1.33-3-13.35-1.37-16.65a.52.52,0,0,1,0-.11l0-.09,0-.06,0-.05a2.79,2.79,0,0,1,.4-.44l.1-.08a3.31,3.31,0,0,1,.89-.48c1.81-.38,5.82.38,14.79,6.1,1.12-.55,11.52-5.57,15.87-5,.29,0,.5.07.68.11l.2.07a1.24,1.24,0,0,1,.32.12l.11.07.16.13.21.19,0,0c1.31,2.07,1.2,2.87.15,10.47-.17,1.25-.37,2.68-.59,4.33.95.94,10.95,10.93,9.49,13.49-1.57,2.76-3.32,4-14.52,5.16h-.44a8.84,8.84,0,0,1-.89,0,.18.18,0,0,0-.17.07l0,0h0a1,1,0,0,0-.28.34,1.21,1.21,0,0,0-.12.44v.05C1636.59,1010,1633.67,1018.55,1630.16,1021.09Zm-18.79-47.62a.18.18,0,0,1-.07,0l-.09.08a2.37,2.37,0,0,0-.34.37v0l0,.07v0a.32.32,0,0,0,0,.07l0,.06c-1.68,3.29,1.38,16.42,1.41,16.55l0,.11-.08.06c-.11.09-11.3,8.85-9.54,13.07s15.73,3.59,15.87,3.59h.1l0,.1s1.73,3.65,3.83,7.14c3.47,5.77,5.28,6.79,6.19,6.62,4-.71,7.76-11.82,8-12.57a1.28,1.28,0,0,1,.16-.56,1.23,1.23,0,0,1,.35-.44.55.55,0,0,1,.44-.18c.28,0,.58,0,.86,0h.42c11.6-1.2,12.87-2.54,14.26-5,1.14-2-6.47-10.18-9.5-13.16l0-.06v-.08c.22-1.68.42-3.14.6-4.4,1-7.48,1.14-8.28-.09-10.24l-.18-.15a.75.75,0,0,0-.14-.12l-.06,0a1.81,1.81,0,0,0-.27-.1l-.2-.07-.63-.1c-4.4-.56-15.65,5-15.77,5l-.08,0-.07,0c-8.94-5.7-12.88-6.47-14.61-6.1A2.79,2.79,0,0,0,1611.37,973.47Z"/><path class="cls-2" d="M98.29,652.91l-.21-.2-.17-.14-.08-.05h0c-.17-.08-.36-.12-.54-.19a6.56,6.56,0,0,0-.75-.12c-5-.64-17.74,5.64-17.74,5.64-10-6.4-14.49-7.27-16.48-6.86a3.29,3.29,0,0,0-.94.51l-.11.09a2.52,2.52,0,0,0-.41.45l-.07.11,0,.06,0,.13C58.79,656.1,62.28,671,62.28,671s-12.78,9.94-10.74,14.84,17.93,4.13,17.93,4.13,7.65,16.17,11.41,15.5c4.58-.82,8.82-13.33,9.11-14.22a1.21,1.21,0,0,1,.16-.58,1.27,1.27,0,0,1,.36-.44.4.4,0,0,1,.35-.14c.42,0,.84,0,1.27,0h.18c12.89-1.34,14.49-2.84,16.11-5.69s-10.66-14.94-10.66-14.94C99.53,656.26,100,655.55,98.29,652.91Z"/><path class="cls-3" d="M100.14,651.57l-.21-.2-.17-.14-.08-.05h0a4.93,4.93,0,0,0-.54-.19,6.56,6.56,0,0,0-.75-.12c-5-.64-17.74,5.64-17.74,5.64-10-6.4-14.49-7.27-16.48-6.86a3.29,3.29,0,0,0-.94.51l-.11.08a3.47,3.47,0,0,0-.41.45.75.75,0,0,1-.07.12l0,.06,0,.13c-1.92,3.77,1.57,18.64,1.57,18.64s-12.78,9.94-10.74,14.84,17.93,4.12,17.93,4.12S79,704.77,82.73,704.1c4.58-.83,8.82-13.33,9.11-14.22a1.21,1.21,0,0,1,.16-.58,1.27,1.27,0,0,1,.36-.44.44.44,0,0,1,.35-.15c.42,0,.84,0,1.27,0h.18c12.89-1.33,14.49-2.83,16.11-5.68s-10.66-14.94-10.66-14.94C101.38,654.92,101.82,654.21,100.14,651.57Z"/><path d="M84.42,703.52a4.13,4.13,0,0,1-1.66.76c-3.73.67-10.81-14-11.55-15.5-1.59.07-16,.55-18-4.24s9.46-14,10.71-15c-.35-1.48-3.38-14.93-1.54-18.63a.35.35,0,0,1,0-.12l0-.1a.23.23,0,0,0,0-.07l0,0a2.27,2.27,0,0,1,.44-.49l.12-.09a3.38,3.38,0,0,1,1-.54c2-.42,6.51.42,16.55,6.82,1.25-.61,12.89-6.23,17.76-5.61.32,0,.56.08.76.12l.22.07a2.67,2.67,0,0,1,.36.14l.13.08.18.15.23.21,0,0c1.47,2.32,1.34,3.21.17,11.72-.2,1.39-.42,3-.66,4.84,1.06,1.05,12.25,12.23,10.62,15.09-1.76,3.09-3.72,4.48-16.25,5.77h-.05l-.09,0h-.35c-.32,0-.66,0-1,0a.24.24,0,0,0-.2.07l0,0h0a1.18,1.18,0,0,0-.44.87v.06C91.61,691.15,88.35,700.66,84.42,703.52Zm-21-53.29-.08.06-.1.08a2.13,2.13,0,0,0-.38.42l0,0a.35.35,0,0,1,0,.08v0l0,.08,0,.06c-1.87,3.67,1.55,18.37,1.59,18.52l0,.11-.09.08c-.13.09-12.65,9.9-10.68,14.62s17.6,4,17.76,4h.12l0,.11s1.93,4.08,4.28,8c3.88,6.45,5.91,7.59,6.93,7.41,4.45-.8,8.68-13.23,9-14.07a1.46,1.46,0,0,1,.18-.63,1.49,1.49,0,0,1,.39-.49.6.6,0,0,1,.49-.2c.32,0,.65,0,1,0h.47c13-1.34,14.39-2.84,16-5.59,1.27-2.24-7.24-11.39-10.63-14.72l-.07-.06v-.09c.26-1.89.48-3.51.68-4.93,1.15-8.36,1.28-9.26-.11-11.46l-.19-.17-.16-.13-.07,0a1.82,1.82,0,0,0-.3-.11l-.22-.07c-.17,0-.39-.07-.71-.11-4.92-.63-17.51,5.56-17.64,5.62l-.09,0-.09-.05c-10-6.38-14.4-7.24-16.34-6.83A3.29,3.29,0,0,0,63.4,650.23Z"/><path class="cls-2" d="M460.57,444.86c0-.08,0-.16-.05-.23s0-.12,0-.18a.15.15,0,0,1,0-.07h0a3.3,3.3,0,0,0-.26-.39,6.06,6.06,0,0,0-.44-.43c-3-2.83-14.36-4.75-14.36-4.75-3.54-9-6.06-11.7-7.57-12.37a2.52,2.52,0,0,0-.86-.12h-.12a1.65,1.65,0,0,0-.48.1l-.1,0-.05,0-.08.07c-3.07,1.57-7.86,13-7.86,13s-13.15.44-14.14,4.64S424,455.48,424,455.48s-2.68,14.29.11,15.64c3.41,1.64,12.16-4.57,12.78-5a1.14,1.14,0,0,1,.83-.43.31.31,0,0,1,.29.07c.27.22.55.42.83.62l.07,0,.06,0c9.12,5.27,10.89,5.05,13.31,3.95s.11-14.91.11-14.91C459.79,447.65,460.41,447.39,460.57,444.86Z"/><path class="cls-3" d="M462.43,444.86c0-.08,0-.16-.05-.23s0-.12-.05-.18a.64.64,0,0,1,0-.07h0c-.07-.14-.18-.26-.26-.39s-.28-.28-.44-.43c-3-2.83-14.36-4.75-14.36-4.75-3.54-9-6.07-11.7-7.58-12.37a2.46,2.46,0,0,0-.85-.12h-.12a1.58,1.58,0,0,0-.48.1l-.1,0-.05,0a.3.3,0,0,0-.08.07c-3.07,1.57-7.86,13-7.86,13S417,440,416,444.21s9.83,11.27,9.83,11.27-2.69,14.29.11,15.64c3.41,1.64,12.16-4.57,12.78-5a1,1,0,0,1,.37-.31.91.91,0,0,1,.45-.11.3.3,0,0,1,.3.06c.27.22.55.42.83.62l.07,0,0,0c9.13,5.27,10.89,5.05,13.32,3.95s.11-14.91.11-14.91C461.64,447.65,462.27,447.39,462.43,444.86Z"/><path d="M427.31,471.54a3.37,3.37,0,0,1-1.46-.29c-2.77-1.34-.46-14.34-.2-15.7-1.08-.72-10.79-7.27-9.82-11.37s12.9-4.7,14.19-4.75c.48-1.14,4.9-11.44,7.87-13l.08-.06.07,0,.07,0,0,0a1.93,1.93,0,0,1,.53-.11h.12a2.64,2.64,0,0,1,.91.13c1.53.68,4.08,3.38,7.64,12.37,1.11.2,11.45,2,14.35,4.78.2.18.33.32.45.44s.08.11.11.16a1.67,1.67,0,0,1,.17.26l0,.11a1.21,1.21,0,0,1,0,.18l.06.25v0c-.14,2.22-.65,2.75-5.48,7.79-.79.82-1.7,1.77-2.74,2.87.2,1.2,2.23,13.89-.21,15-2.63,1.2-4.58,1.18-13.45-3.95l0,0-.06,0-.05,0-.19-.14c-.21-.15-.43-.31-.64-.48a.18.18,0,0,0-.17,0h0a1,1,0,0,0-.38.1.89.89,0,0,0-.33.27l0,0C437.94,466.83,431.26,471.54,427.31,471.54Zm11.58-45.08h-.19a2.26,2.26,0,0,0-.45.1h0l-.07,0h0l-.05,0,0,0c-3,1.52-7.74,12.82-7.79,12.94l0,.08h-.1c-.13,0-13,.48-14,4.52s9.66,11,9.77,11.11l.08.06,0,.09s-.67,3.61-1,7.31c-.52,6.09.27,7.81,1,8.17,3.32,1.6,12-4.56,12.61-5a1.26,1.26,0,0,1,.42-.33,1.06,1.06,0,0,1,.49-.13.47.47,0,0,1,.42.1c.2.17.41.32.62.47l.21.15h0l.08.05c9.18,5.31,10.83,5,13.17,3.94,1.91-.87.66-10.95,0-14.76v-.07l0-.05,2.8-2.93c4.75-4.95,5.26-5.48,5.39-7.58l0-.21a1,1,0,0,0,0-.17s0,0,0-.05a1.14,1.14,0,0,0-.15-.23l-.11-.15-.41-.41c-2.94-2.76-14.17-4.69-14.29-4.71h-.08l0-.08c-3.53-9-6-11.63-7.5-12.29A2.44,2.44,0,0,0,438.89,426.46Z"/><path class="cls-2" d="M1447.91,1010.67c0-.17.07-.34.1-.52l.06-.39a.92.92,0,0,1,0-.16v0c0-.35-.14-.68-.2-1s-.32-.81-.52-1.27c-3.68-8.39-25.2-22.22-25.2-22.22.59-21.45-2.21-29.18-4.71-31.87a5.66,5.66,0,0,0-1.65-1l-.24-.09a4.93,4.93,0,0,0-1.08-.22h-.35a1.33,1.33,0,0,0-.23.08c-7.64.52-27.41,19.74-27.41,19.74s-27.24-10.55-32.93-2.84,10.27,31.59,10.27,31.59-17.94,26.86-13.4,32c5.53,6.34,28.82,1.27,30.47.91a2.2,2.2,0,0,1,1-.3,2.39,2.39,0,0,1,1,.15.75.75,0,0,1,.55.4c.35.68.76,1.33,1.15,2a.81.81,0,0,0,.12.14.37.37,0,0,1,.07.12c14.05,18.72,17.85,19.81,23.77,19.67s13.22-30.38,13.22-30.38C1443.88,1015.7,1445.38,1015.72,1447.91,1010.67Z"/><path class="cls-3" d="M1451.71,1012.29l.09-.52a2.63,2.63,0,0,0,.06-.39s0-.13,0-.16v0c0-.35-.14-.68-.2-1s-.31-.81-.51-1.27c-3.69-8.39-25.21-22.22-25.21-22.22.59-21.45-2.21-29.18-4.7-31.87a5.8,5.8,0,0,0-1.65-1l-.24-.09a4.41,4.41,0,0,0-1.08-.22h-.36l-.23.07c-7.63.53-27.4,19.75-27.4,19.75s-27.25-10.55-32.94-2.84,10.27,31.59,10.27,31.59-17.94,26.86-13.4,32.05c5.54,6.34,28.83,1.27,30.47.91a2.24,2.24,0,0,1,1-.3,2.21,2.21,0,0,1,1,.15.73.73,0,0,1,.55.4c.35.68.76,1.32,1.15,2l.12.14.08.12c14,18.72,17.85,19.81,23.77,19.67s13.22-30.38,13.22-30.38C1447.67,1017.31,1449.17,1017.33,1451.71,1012.29Z"/><path d="M1356.69,1036.21a7.34,7.34,0,0,1-2.71-1.86c-4.51-5.15,11.55-29.7,13.25-32.27-1.58-2.4-15.7-24.25-10.14-31.79s30.45,1.64,33.12,2.66c2-1.91,20-19.1,27.41-19.69l.22-.07h.44a4.76,4.76,0,0,1,1.18.24l.25.09a6.08,6.08,0,0,1,1.75,1c2.53,2.73,5.4,10.46,4.82,31.94,2.11,1.37,21.62,14.17,25.18,22.27.24.54.4.94.52,1.29,0,.18.06.3.09.42a3.72,3.72,0,0,1,.13.68v.27l-.06.41-.11.56,0,.05c-2.23,4.43-3.72,5.06-18,11.15-2.34,1-5,2.14-8.1,3.47-.65,2.63-7.55,30.33-13.5,30.47-6.41.15-10.38-1.6-24-19.8l0-.07-.11-.13-.07-.09-.26-.44c-.31-.5-.62-1-.9-1.56a.39.39,0,0,0-.3-.23l-.09,0h0a2.11,2.11,0,0,0-1.76.13l-.09,0C1382.51,1035.86,1364.76,1039.65,1356.69,1036.21Zm63-82-.16-.07-.23-.08a4,4,0,0,0-1-.2H1418l-.14,0-.11,0c-7.43.51-27,19.46-27.2,19.65l-.15.15-.2-.08c-.27-.1-27.08-10.37-32.56-3s10.13,31,10.28,31.22l.13.18-.13.18c0,.07-4.52,6.79-8.38,14.06-6.39,12-6.27,16.2-5,17.6,5.38,6.14,28.55,1.15,30.1.81a2.56,2.56,0,0,1,1.14-.32,2.7,2.7,0,0,1,1.13.16,1,1,0,0,1,.75.57c.27.52.58,1,.88,1.52l.29.47,0,.06a.66.66,0,0,1,.12.17c14.14,18.83,17.77,19.64,23.48,19.51,4.66-.11,10.9-21.78,12.91-30.13l0-.16.15-.06,8.25-3.54c14-6,15.53-6.62,17.63-10.8l.09-.46.06-.38a.53.53,0,0,1,0-.13,4.77,4.77,0,0,0-.11-.59,2.88,2.88,0,0,1-.09-.4c-.11-.29-.26-.67-.49-1.2-3.61-8.2-24.87-21.94-25.09-22.07l-.15-.1v-.19c.59-21.4-2.18-29-4.61-31.64A5.67,5.67,0,0,0,1419.64,954.18Z"/><path class="cls-2" d="M438.85,594.11c0-.22.09-.43.13-.65s.06-.33.08-.49,0-.17,0-.21v0c0-.44-.17-.86-.24-1.29s-.38-1-.63-1.62c-4.51-10.67-31.49-28.55-31.49-28.55,1.12-27.12-2.28-37-5.39-40.4a7.3,7.3,0,0,0-2.07-1.28l-.3-.12a5.79,5.79,0,0,0-1.36-.29h-.46a1.62,1.62,0,0,0-.29.09c-9.66.53-35,24.49-35,24.49s-34.28-13.82-41.62-4.17,12.44,40.15,12.44,40.15S309.49,613.38,315.14,620c6.89,8.1,36.45,2.11,38.53,1.68a2.91,2.91,0,0,1,1.32-.37,3,3,0,0,1,1.29.22.9.9,0,0,1,.69.51c.43.87.94,1.69,1.42,2.53.05.06.09.12.15.18a.6.6,0,0,1,.09.15c17.44,23.93,22.23,25.37,29.72,25.3S405.61,612,405.61,612C433.65,600.4,435.55,600.45,438.85,594.11Z"/><path class="cls-3" d="M443.62,596.23c0-.22.09-.44.13-.65s.06-.33.08-.5,0-.16,0-.2v-.06c0-.43-.17-.86-.24-1.29s-.38-1-.63-1.61c-4.51-10.68-31.49-28.56-31.49-28.56,1.12-27.12-2.28-37-5.39-40.4a7.53,7.53,0,0,0-2.07-1.28l-.3-.11a5.34,5.34,0,0,0-1.36-.3h-.46l-.29.09c-9.66.54-35,24.5-35,24.5S332.33,532,325,541.69s12.44,40.14,12.44,40.14-23.16,33.66-17.52,40.31c6.89,8.11,36.45,2.12,38.54,1.68a2.83,2.83,0,0,1,1.32-.36,3,3,0,0,1,1.28.21.91.91,0,0,1,.69.52c.43.86.94,1.69,1.42,2.52a1.3,1.3,0,0,0,.15.18.86.86,0,0,1,.1.16c17.43,23.92,22.23,25.37,29.71,25.29s17.26-38.19,17.26-38.19C438.42,602.51,440.32,602.56,443.62,596.23Z"/><path d="M323,624.81a9.33,9.33,0,0,1-3.4-2.4c-5.6-6.59,15.13-37.37,17.33-40.59-1.95-3.06-19.43-31-12.26-40.38s38.49,2.6,41.85,3.94c2.53-2.38,25.6-23.81,35-24.43l.29-.08.24,0h.32a6.19,6.19,0,0,1,1.48.31l.32.12a7.9,7.9,0,0,1,2.19,1.36c3.16,3.5,6.64,13.34,5.54,40.5,2.64,1.76,27.09,18.3,31.46,28.61.29.69.48,1.19.63,1.64.05.22.08.38.12.53a5.85,5.85,0,0,1,.14.87l0,.33c0,.18-.05.35-.08.52l-.15.72,0,0c-2.9,5.56-4.8,6.34-22.95,13.79-3,1.21-6.38,2.61-10.31,4.24-.86,3.32-10.08,38.24-17.6,38.31-8.12.08-13.1-2.21-30.06-25.47l-.05-.08-.13-.17-.09-.12-.32-.56c-.38-.64-.77-1.3-1.11-2a.51.51,0,0,0-.37-.29l-.12,0h0a2.52,2.52,0,0,0-1.1-.18,2.56,2.56,0,0,0-1.13.31l-.12.05C355.67,624.82,333.15,629.3,323,624.81Zm81.08-102.66-.21-.09-.29-.11a5.48,5.48,0,0,0-1.25-.27h-.08a.81.81,0,0,1-.22,0H402l-.18.06-.14,0c-9.41.52-34.5,24.14-34.76,24.38l-.19.18-.24-.1c-.34-.13-34.08-13.6-41.14-4.3s12.26,39.36,12.46,39.67l.15.23-.16.23c-.06.08-5.84,8.5-10.86,17.63-8.29,15.07-8.21,20.38-6.68,22.17,6.7,7.87,36.1,2,38.07,1.56a3.43,3.43,0,0,1,1.45-.39,3.6,3.6,0,0,1,1.42.23,1.31,1.31,0,0,1,.94.73c.33.66.71,1.31,1.08,1.94l.36.6.06.07a.91.91,0,0,1,.15.23c17.56,24.07,22.14,25.16,29.36,25.09,5.89-.06,14.17-27.37,16.86-37.88l0-.2.2-.08c4-1.67,7.48-3.09,10.5-4.33,17.84-7.32,19.76-8.1,22.5-13.35l.11-.59c0-.16.06-.32.08-.47a1.21,1.21,0,0,0,0-.18,5.56,5.56,0,0,0-.12-.73c0-.18-.08-.35-.11-.52-.12-.36-.31-.85-.6-1.52-4.41-10.44-31.07-28.19-31.34-28.37l-.19-.13v-.23c1.12-27.07-2.26-36.75-5.28-40.11A7.24,7.24,0,0,0,404.08,522.15Z"/><path class="cls-2" d="M960.8,1023.18c.06-.19.11-.38.17-.57s.08-.29.11-.44,0-.14,0-.18v0a11.57,11.57,0,0,0-.11-1.17c-.11-.46-.26-1-.43-1.5-3.19-9.93-25.91-28.11-25.91-28.11,3.19-24.2.93-33.28-1.57-36.62a6.66,6.66,0,0,0-1.76-1.32l-.26-.13a5,5,0,0,0-1.19-.37l-.27,0h-.14l-.26.06c-8.71-.3-33.34,19.12-33.34,19.12s-29.59-15.14-36.94-7.09,7.91,37,7.91,37-23.46,28.29-18.94,34.7c5.52,7.81,32.47,4.83,34.38,4.61a2.8,2.8,0,0,1,2.34.07.82.82,0,0,1,.58.52c.31.81.7,1.59,1.07,2.38,0,0,.07.11.11.17a.36.36,0,0,1,.08.15c13.69,22.83,17.87,24.51,24.58,25.05s18.54-32.82,18.54-32.82C955.64,1028.39,957.34,1028.59,960.8,1023.18Z"/><path class="cls-3" d="M964.9,1025.46c.06-.19.12-.38.17-.57l.12-.44a.62.62,0,0,1,0-.18v0c0-.39-.08-.78-.11-1.18s-.26-.95-.43-1.49c-3.19-9.93-25.91-28.11-25.91-28.11,3.19-24.2.94-33.28-1.57-36.62a6.61,6.61,0,0,0-1.75-1.32l-.26-.13A4.92,4.92,0,0,0,934,955l-.27,0h-.13l-.27.06c-8.7-.3-33.34,19.12-33.34,19.12S870.39,959,863,967.05s7.91,37,7.91,37-23.46,28.29-18.94,34.7c5.52,7.81,32.48,4.83,34.38,4.6a2.77,2.77,0,0,1,1.21-.22,2.69,2.69,0,0,1,1.14.3.8.8,0,0,1,.57.52c.32.81.71,1.59,1.07,2.37a1.88,1.88,0,0,0,.12.18.37.37,0,0,1,.07.14c13.7,22.84,17.87,24.52,24.58,25.06s18.54-32.83,18.54-32.83C959.74,1030.67,961.44,1030.87,964.9,1025.46Z"/><path d="M854.56,1041.35a8.37,8.37,0,0,1-2.85-2.43c-4.49-6.36,16.57-32.25,18.8-35-1.51-2.9-14.92-29.29-7.74-37.16s34.27,5.44,37.17,6.9c2.46-1.92,24.85-19.26,33.33-19.05l.26-.06h.22l.17,0H934a5.37,5.37,0,0,1,1.31.4l.27.13a7.27,7.27,0,0,1,1.86,1.4c2.55,3.39,4.87,12.48,1.7,36.72,2.22,1.79,22.79,18.57,25.86,28.15.21.65.35,1.12.44,1.53,0,.2,0,.34.06.48a5.16,5.16,0,0,1,.06.79l0,.3-.12.46-.19.62,0,.05c-3,4.75-4.81,5.3-21.67,10.5l-9.57,3c-1,2.91-12.11,33.44-18.86,32.9-7.27-.59-11.55-3-24.87-25.23l0-.08-.11-.17-.06-.11-.25-.53c-.29-.6-.59-1.23-.83-1.87a.47.47,0,0,0-.31-.29l-.1,0h0a2.16,2.16,0,0,0-1-.24,2.2,2.2,0,0,0-1,.18l-.12,0C883.83,1044,863.29,1046.19,854.56,1041.35Zm80.89-85.43-.17-.09-.25-.12a4.5,4.5,0,0,0-1.1-.34h-.07l-.2,0h-.06l-.16,0-.13,0c-8.47-.29-32.85,18.85-33.1,19l-.18.15-.22-.11c-.29-.15-29.42-14.92-36.49-7.17s7.81,36.25,8,36.54l.12.22-.16.19c-.06.07-5.92,7.15-11.15,14.92-8.64,12.83-9,17.59-7.77,19.32,5.36,7.59,32.17,4.67,34,4.46a3.06,3.06,0,0,1,1.33-.23,3.16,3.16,0,0,1,1.25.32,1.22,1.22,0,0,1,.79.73c.24.62.53,1.23.81,1.82l.28.57a.43.43,0,0,0,0,.07.78.78,0,0,1,.12.22c13.78,23,17.8,24.31,24.27,24.83,5.29.43,14.9-23.37,18.16-32.57l.06-.18.18,0c3.72-1.17,6.95-2.16,9.75-3,16.57-5.12,18.35-5.67,21.23-10.15l.15-.52c0-.13.08-.27.11-.41l0-.16a4.77,4.77,0,0,0-.06-.67c0-.15,0-.31,0-.47-.08-.33-.21-.79-.41-1.41-3.12-9.7-25.57-27.75-25.79-27.93l-.17-.13,0-.21c3.19-24.15.94-33.1-1.5-36.35A6.32,6.32,0,0,0,935.45,955.92Z"/><path class="cls-2" d="M1040.27,913.56c0-.1,0-.2-.07-.3a1.74,1.74,0,0,0,0-.22.24.24,0,0,1,0-.09l0,0a5.5,5.5,0,0,0-.34-.5c-.16-.18-.35-.36-.56-.56-3.88-3.64-18.54-6.13-18.54-6.13-4.57-11.6-7.83-15.1-9.78-16a3.46,3.46,0,0,0-1.11-.15h-.14a2.21,2.21,0,0,0-.63.13l-.13,0-.06,0a.49.49,0,0,0-.1.09c-4,2-10.15,16.8-10.15,16.8s-17,.57-18.26,6S993,927.27,993,927.27s-3.47,18.45.14,20.19c4.4,2.12,15.7-5.89,16.49-6.47a1.44,1.44,0,0,1,.49-.39,1.28,1.28,0,0,1,.58-.15.41.41,0,0,1,.38.08c.35.29.71.54,1.07.8l.1,0,.07,0c11.77,6.8,14,6.51,17.18,5.09s.15-19.25.15-19.25C1039.26,917.17,1040.06,916.83,1040.27,913.56Z"/><path class="cls-3" d="M1042.67,913.56c0-.1-.05-.2-.07-.3l-.06-.22a.94.94,0,0,1,0-.09v0a5.5,5.5,0,0,0-.34-.5c-.16-.18-.35-.36-.56-.56-3.89-3.64-18.54-6.13-18.54-6.13-4.57-11.6-7.83-15.1-9.78-16a3.5,3.5,0,0,0-1.11-.15H1012a2.21,2.21,0,0,0-.62.13l-.13,0-.06,0-.11.09c-4,2-10.15,16.8-10.15,16.8s-17,.57-18.25,6,12.69,14.55,12.69,14.55-3.46,18.45.15,20.19c4.4,2.12,15.69-5.89,16.49-6.47a1.35,1.35,0,0,1,.49-.39,1.28,1.28,0,0,1,.58-.15.41.41,0,0,1,.38.08c.34.29.71.54,1.07.8l.09,0a.18.18,0,0,1,.07,0c11.78,6.8,14.06,6.51,17.19,5.09s.14-19.25.14-19.25C1041.65,917.17,1042.46,916.83,1042.67,913.56Z"/><path d="M997.33,948a4.33,4.33,0,0,1-1.88-.37c-3.58-1.73-.59-18.51-.27-20.27-1.39-.92-13.92-9.38-12.66-14.68s16.65-6.07,18.31-6.13c.62-1.47,6.32-14.76,10.16-16.77l.1-.09.1-.05.08,0,.05,0a2.73,2.73,0,0,1,.69-.14h.15a3.73,3.73,0,0,1,1.18.16c2,.88,5.27,4.36,9.86,16,1.43.25,14.78,2.64,18.53,6.16.25.24.43.41.57.57a1.29,1.29,0,0,0,.15.2,2.46,2.46,0,0,1,.22.34l.06.14.06.24.07.32v0c-.18,2.88-.84,3.56-7.07,10.06l-3.54,3.7c.25,1.56,2.88,17.93-.27,19.36-3.39,1.55-5.91,1.52-17.36-5.1l0,0-.08-.05-.06,0-.25-.18c-.27-.2-.56-.4-.83-.63a.23.23,0,0,0-.21,0h-.06a1.25,1.25,0,0,0-.91.47l0,0C1011.05,941.93,1002.43,948,997.33,948Zm14.95-58.19H1012a1.87,1.87,0,0,0-.57.12h0l-.1,0h0l-.07.06,0,0c-3.85,2-10,16.56-10.06,16.71l0,.11H1001c-.17,0-16.84.63-18.07,5.85S995.36,927,995.5,927.11l.1.07,0,.12c0,.05-.87,4.66-1.28,9.43-.68,7.87.34,10.09,1.32,10.56,4.27,2.06,15.52-5.9,16.28-6.43a1.33,1.33,0,0,1,.53-.43,1.43,1.43,0,0,1,.64-.17.58.58,0,0,1,.53.13c.26.21.54.42.82.61l.26.19,0,0a.3.3,0,0,1,.11.06c11.84,6.85,14,6.45,17,5.08,2.47-1.12.86-14.13,0-19.05l0-.09.07-.07c1.37-1.45,2.56-2.69,3.6-3.77,6.13-6.39,6.79-7.08,7-9.8l-.06-.26a1.42,1.42,0,0,0-.05-.22l0-.07a2.08,2.08,0,0,0-.19-.29c-.05-.06-.09-.13-.14-.2l-.53-.52c-3.8-3.57-18.3-6.06-18.44-6.09h-.11l0-.1c-4.56-11.58-7.78-15-9.68-15.86A3.21,3.21,0,0,0,1012.28,889.81Z"/></g><g id="Layer_3" data-name="Layer 3"><path d="M607.63,353.71H627.8a2.9,2.9,0,0,1,2.5,1.42L643,376.34a2.91,2.91,0,0,0,5,0l12.69-21.21a2.92,2.92,0,0,1,2.5-1.42h20a2.91,2.91,0,0,1,2.42,4.53l-27.37,40.92a2.87,2.87,0,0,0-.5,1.62v29.49a2.91,2.91,0,0,1-2.91,2.92H636a2.91,2.91,0,0,1-2.91-2.92V400.78a2.94,2.94,0,0,0-.49-1.62l-27.43-40.92A2.91,2.91,0,0,1,607.63,353.71Z"/><path d="M686.8,393.5q0-19.46,10.84-30.3t30.2-10.85q19.85,0,30.58,10.66t10.73,29.84q0,13.93-4.69,22.85a33.38,33.38,0,0,1-13.55,13.88q-8.86,5-22.09,5-13.46,0-22.26-4.28a33.56,33.56,0,0,1-14.28-13.56Q686.81,407.43,686.8,393.5Zm24.56.11q0,12,4.47,17.29T728,416.16q7.92,0,12.26-5.15t4.33-18.48q0-11.23-4.52-16.4T727.79,371a14.92,14.92,0,0,0-11.93,5.26Q711.36,381.46,711.36,393.61Z"/><path d="M837,353.71h18.68a2.91,2.91,0,0,1,2.91,2.91v44.44a40.82,40.82,0,0,1-1.32,10.47,31.13,31.13,0,0,1-10.47,16.22,25.51,25.51,0,0,1-7.13,4.14,49.51,49.51,0,0,1-17.18,2.65,108.44,108.44,0,0,1-12.66-.81,33,33,0,0,1-11.47-3.23,28.66,28.66,0,0,1-8.43-6.85,25.13,25.13,0,0,1-5.23-9.15,47.45,47.45,0,0,1-2.28-13.44V356.62a2.91,2.91,0,0,1,2.92-2.91H804a2.91,2.91,0,0,1,2.91,2.91v45.57q0,6.49,3.6,10.16t10,3.65q6.33,0,9.94-3.6t3.61-10.21V356.62A2.91,2.91,0,0,1,837,353.71Z"/><path d="M912.22,356.62a2.91,2.91,0,0,1,2.91-2.91h33.58q10.78,0,17.43,2.93a28.34,28.34,0,0,1,11,8.4,34.66,34.66,0,0,1,6.29,12.74,59.13,59.13,0,0,1,2,15.4q0,12.74-2.9,19.76a32.55,32.55,0,0,1-8.05,11.76A26.3,26.3,0,0,1,963.34,431a57.16,57.16,0,0,1-14.63,2.17H915.13a2.91,2.91,0,0,1-2.91-2.92Zm24.56,18v37.6a2.91,2.91,0,0,0,2.91,2.91h3.11q7.69,0,11-1.71a11.47,11.47,0,0,0,5.09-6c1.23-2.84,1.85-7.43,1.85-13.8q0-12.63-4.12-17.29t-13.66-4.66h-3.22A2.91,2.91,0,0,0,936.78,374.62Z"/><path d="M1002.14,353.71h18.79a2.91,2.91,0,0,1,2.92,2.91v73.65a2.92,2.92,0,0,1-2.92,2.92h-18.79a2.92,2.92,0,0,1-2.91-2.92V356.62A2.91,2.91,0,0,1,1002.14,353.71Z"/><path d="M1041.79,356.62a2.91,2.91,0,0,1,2.91-2.91h33.58q10.79,0,17.43,2.93a28.34,28.34,0,0,1,11,8.4,34.82,34.82,0,0,1,6.29,12.74,59.13,59.13,0,0,1,2,15.4q0,12.74-2.9,19.76a32.55,32.55,0,0,1-8,11.76,26.3,26.3,0,0,1-11.06,6.32,57.16,57.16,0,0,1-14.63,2.17H1044.7a2.91,2.91,0,0,1-2.91-2.92Zm24.56,18v37.6a2.91,2.91,0,0,0,2.91,2.91h3.11q7.7,0,11-1.71a11.51,11.51,0,0,0,5.09-6c1.23-2.84,1.85-7.43,1.85-13.8q0-12.63-4.12-17.29t-13.67-4.66h-3.21A2.91,2.91,0,0,0,1066.35,374.62Z"/><path d="M1168.74,353.71h18.79a2.91,2.91,0,0,1,2.91,2.91v73.65a2.91,2.91,0,0,1-2.91,2.92h-18.79a2.91,2.91,0,0,1-2.91-2.92V356.62A2.91,2.91,0,0,1,1168.74,353.71Z"/><path d="M1205.39,353.71h68.83a2.91,2.91,0,0,1,2.91,2.91v13.8a2.91,2.91,0,0,1-2.91,2.91H1255a2.92,2.92,0,0,0-2.91,2.92v54a2.91,2.91,0,0,1-2.91,2.92h-18.73a2.92,2.92,0,0,1-2.92-2.92v-54a2.91,2.91,0,0,0-2.91-2.92h-19.22a2.91,2.91,0,0,1-2.91-2.91v-13.8A2.91,2.91,0,0,1,1205.39,353.71Z"/><path d="M1289.75,353.71h17.76a2.91,2.91,0,0,1,2.91,2.91v15a2.22,2.22,0,0,1,0,.37l-4.21,33.64a2.91,2.91,0,0,1-2.89,2.55h-9.43a2.91,2.91,0,0,1-2.89-2.55L1286.86,372a2.07,2.07,0,0,1,0-.35v-15A2.91,2.91,0,0,1,1289.75,353.71Zm.81,60h16.19a2.92,2.92,0,0,1,2.91,2.91v13.64a2.92,2.92,0,0,1-2.91,2.92h-16.19a2.91,2.91,0,0,1-2.91-2.92V416.63A2.91,2.91,0,0,1,1290.56,413.72Z"/><path class="cls-4" d="M612.5,356.14h20.17a2.92,2.92,0,0,1,2.5,1.42l12.67,21.22a2.91,2.91,0,0,0,5,0l12.69-21.22a2.92,2.92,0,0,1,2.5-1.42h20a2.91,2.91,0,0,1,2.42,4.53L663.1,401.6a2.91,2.91,0,0,0-.49,1.62v29.49a2.91,2.91,0,0,1-2.91,2.91H640.91a2.91,2.91,0,0,1-2.91-2.91V403.22a2.91,2.91,0,0,0-.49-1.62l-27.43-40.92A2.92,2.92,0,0,1,612.5,356.14Z"/><path class="cls-4" d="M691.67,395.94q0-19.47,10.84-30.31t30.2-10.84q19.85,0,30.58,10.65T774,395.29q0,13.92-4.69,22.85A33.41,33.41,0,0,1,755.78,432q-8.87,5-22.09,5-13.46,0-22.26-4.29a33.47,33.47,0,0,1-14.28-13.55Q691.68,409.87,691.67,395.94Zm24.56.1q0,12,4.47,17.3t12.17,5.26q7.92,0,12.25-5.15T749.46,395q0-11.22-4.52-16.4t-12.28-5.18a14.93,14.93,0,0,0-11.93,5.26Q716.23,383.91,716.23,396Z"/><path class="cls-4" d="M841.88,356.14h18.68a2.91,2.91,0,0,1,2.91,2.91v44.44A40.82,40.82,0,0,1,862.15,414a31.26,31.26,0,0,1-10.47,16.23,25.23,25.23,0,0,1-7.13,4.13A49.5,49.5,0,0,1,827.37,437a108.57,108.57,0,0,1-12.66-.82,33.05,33.05,0,0,1-11.47-3.22,28.7,28.7,0,0,1-8.43-6.86,25.13,25.13,0,0,1-5.23-9.15,47.45,47.45,0,0,1-2.28-13.44V359.05a2.92,2.92,0,0,1,2.91-2.91H808.9a2.92,2.92,0,0,1,2.91,2.91v45.57q0,6.51,3.6,10.16t10,3.65q6.35,0,10-3.6T839,404.62V359.05A2.91,2.91,0,0,1,841.88,356.14Z"/><path class="cls-4" d="M917.09,359.05a2.91,2.91,0,0,1,2.91-2.91h33.57q10.8,0,17.43,2.93a28.29,28.29,0,0,1,11,8.4,34.82,34.82,0,0,1,6.29,12.74,59.24,59.24,0,0,1,2,15.4q0,12.74-2.9,19.76a32.67,32.67,0,0,1-8.05,11.77,26.28,26.28,0,0,1-11.06,6.31,56.73,56.73,0,0,1-14.64,2.17H920a2.91,2.91,0,0,1-2.91-2.91Zm24.56,18v37.61a2.91,2.91,0,0,0,2.91,2.91h3.11q7.7,0,11-1.71a11.64,11.64,0,0,0,5.09-6q1.85-4.26,1.85-13.8,0-12.63-4.12-17.3t-13.67-4.66h-3.21A2.91,2.91,0,0,0,941.65,377.05Z"/><path class="cls-4" d="M1007,356.14h18.79a2.91,2.91,0,0,1,2.91,2.91v73.66a2.91,2.91,0,0,1-2.91,2.91H1007a2.91,2.91,0,0,1-2.91-2.91V359.05A2.91,2.91,0,0,1,1007,356.14Z"/><path class="cls-4" d="M1046.66,359.05a2.91,2.91,0,0,1,2.91-2.91h33.57q10.8,0,17.43,2.93a28.29,28.29,0,0,1,11,8.4,34.82,34.82,0,0,1,6.29,12.74,59.24,59.24,0,0,1,2,15.4q0,12.74-2.9,19.76a32.8,32.8,0,0,1-8.05,11.77,26.28,26.28,0,0,1-11.06,6.31,56.73,56.73,0,0,1-14.64,2.17h-33.57a2.91,2.91,0,0,1-2.91-2.91Zm24.56,18v37.61a2.91,2.91,0,0,0,2.91,2.91h3.11q7.69,0,11-1.71a11.64,11.64,0,0,0,5.09-6q1.85-4.26,1.85-13.8,0-12.63-4.12-17.3t-13.67-4.66h-3.21A2.91,2.91,0,0,0,1071.22,377.05Z"/><path class="cls-4" d="M1173.61,356.14h18.79a2.91,2.91,0,0,1,2.91,2.91v73.66a2.91,2.91,0,0,1-2.91,2.91h-18.79a2.91,2.91,0,0,1-2.91-2.91V359.05A2.91,2.91,0,0,1,1173.61,356.14Z"/><path class="cls-4" d="M1210.26,356.14h68.83a2.92,2.92,0,0,1,2.91,2.91v13.81a2.92,2.92,0,0,1-2.91,2.91h-19.23a2.91,2.91,0,0,0-2.91,2.91v54a2.91,2.91,0,0,1-2.91,2.91H1235.3a2.91,2.91,0,0,1-2.91-2.91v-54a2.91,2.91,0,0,0-2.91-2.91h-19.22a2.91,2.91,0,0,1-2.91-2.91V359.05A2.91,2.91,0,0,1,1210.26,356.14Z"/><path class="cls-4" d="M1294.61,356.14h17.76a2.92,2.92,0,0,1,2.92,2.91v15a2.19,2.19,0,0,1,0,.36l-4.21,33.65a2.92,2.92,0,0,1-2.89,2.55h-9.43a2.9,2.9,0,0,1-2.89-2.56l-4.12-33.64c0-.12,0-.24,0-.36v-15A2.92,2.92,0,0,1,1294.61,356.14Zm.82,60h16.19a2.91,2.91,0,0,1,2.91,2.91v13.64a2.91,2.91,0,0,1-2.91,2.91h-16.19a2.91,2.91,0,0,1-2.91-2.91V419.07A2.91,2.91,0,0,1,1295.43,416.16Z"/><path class="cls-5" d="M689.3,862.2s-9.79,41.8-10.23,47.58-6.67,20.45-8.89,60.47,19.12,41.35,19.12,41.35,23.56,1.34,24-23.12,0-61.36,0-61.36h15.56l5.78,34.68s12.45,59.59,33.35,63.59,37.35,1.78,34.24-22.23-24-68-24-68L758.66,880l-4-24-65.81,3.11Z"/><path d="M782.44,1027.56a78.59,78.59,0,0,1-14.55-1.61c-21-4-33.29-61.58-33.8-64l-5.7-34.23h-14.5c.05,4.8.4,38.28,0,60.8-.14,7.53-2.45,13.42-6.86,17.52-7.2,6.68-17.32,6.2-17.76,6.16-.22,0-21.88-1.83-19.65-41.95,1.64-29.52,5.47-45.35,7.53-53.85a50.33,50.33,0,0,0,1.36-6.63c.44-5.67,9.56-44.74,10.22-47.56l-.52-3.63,66.94-3.16,4.08,24.51,19.54,55c.19.38,21,44.32,24,68.14,1.17,9-.38,15.63-4.62,19.62C794.73,1026,789.6,1027.56,782.44,1027.56Zm-69.71-101h16.62l5.86,35.16c.12.57,12.61,59.23,32.9,63.12,14.82,2.84,24.13,1.9,29.29-3,4-3.78,5.41-9.87,4.27-18.64-3.07-23.65-23.75-67.42-24-67.86l-19.59-55.19-3.94-23.61-64.67,3.06.37,2.6,0,.11c-.1.41-9.78,41.81-10.21,47.48a50.34,50.34,0,0,1-1.39,6.82c-2,8.47-5.87,24.22-7.5,53.64-2.17,38.92,18.38,40.74,18.58,40.75s10.08.48,16.92-5.87c4.17-3.88,6.36-9.49,6.49-16.69.44-24.16,0-61,0-61.34Z"/><ellipse class="cls-6" cx="723.45" cy="731.99" rx="170.47" ry="136.66"/><circle class="cls-4" cx="816.2" cy="724.44" r="77.09"/><path d="M816.2,802.16a77.72,77.72,0,1,1,77.72-77.72A77.81,77.81,0,0,1,816.2,802.16Zm0-154.18a76.46,76.46,0,1,0,76.46,76.46A76.55,76.55,0,0,0,816.2,648Z"/><circle class="cls-7" cx="812.29" cy="726.96" r="71.69"/><circle cx="800.15" cy="734.69" r="57.95"/><circle class="cls-4" cx="772.58" cy="745.71" r="21.28"/><circle class="cls-4" cx="630.7" cy="726.96" r="77.09"/><path d="M554.25,727a76.31,76.31,0,0,1,27-58.27l-.39-1.31a77.55,77.55,0,0,0-3.53,116l.92-.86A76.23,76.23,0,0,1,554.25,727Z"/><path d="M705.36,705.39l-1.36-.18a78.37,78.37,0,0,1,1.93,8,76.54,76.54,0,0,1-75.23,90.21,76.17,76.17,0,0,1-52.44-20.9l-.92.86a77.66,77.66,0,0,0,128-78Z"/><path d="M588.81,663A76.41,76.41,0,0,1,704,705.21l1.36.18a77.65,77.65,0,0,0-124.49-38l.39,1.31A74.65,74.65,0,0,1,588.81,663Z"/><circle class="cls-7" cx="634.62" cy="729.48" r="71.69"/><circle cx="646.76" cy="737.22" r="57.95"/><circle class="cls-4" cx="670.59" cy="748.24" r="21.28"/><path d="M877.68,782.61s-22.28-11.75-64-15.42-65.5,33.91-65.5,33.91l62.06,25.16Z"/><path class="cls-5" d="M877.68,784.13s-22.28-11.75-64-15.42-65.5,33.91-65.5,33.91l62.06,25.17Z"/><line class="cls-8" x1="702.18" y1="696.44" x2="712.12" y2="701.95"/><path d="M565.1,776s23.69-9,65.91-7.66,61.54,41.5,61.54,41.5l-65.1,17.57Z"/><path class="cls-5" d="M565.1,777.16s23.65-9,65.79-7.67S692.31,811,692.31,811l-65,17.59Z"/><path class="cls-5" d="M683.08,888.31s-44-44.66-49.12-61.06c-5.21-16.73-8.62-25.25-1.79-39.53S659,791.27,659,791.27s16.57,23.4,19,35.2,13.72,44.45,13.72,44.45Z"/><path d="M683.29,889.6l-.75-.76c-1.8-1.83-44.21-45-49.31-61.36l-.93-3c-4.74-15.11-7.36-23.44-.82-37.12,1.54-3.22,3.86-5.16,6.87-5.77,8.86-1.78,20.67,8.64,21.17,9.08l.11.13c.68,1,16.69,23.66,19.18,35.48,2.44,11.61,13.58,44,13.69,44.36l.1.31ZM640.5,782.94a8.73,8.73,0,0,0-1.85.18,8.14,8.14,0,0,0-5.79,4.93c-6.29,13.14-3.73,21.26.9,36l.93,3c4.63,14.87,42.38,54,48.19,60L691,870.87c-1.14-3.34-11.3-33.15-13.63-44.25s-17.86-33.39-18.88-34.84C657.57,791,648.08,782.94,640.5,782.94Z"/><path class="cls-5" d="M756.79,866.21S788.85,831,794.21,824c0,0,12.58-26.34,18.26-37.12s17.67-8.08,17.67-8.08,10.18,2.69,7.78,18.86A87.17,87.17,0,0,1,827.44,827s-15,19.76-27.54,24.55-38,21.26-41,21S756.79,866.21,756.79,866.21Z"/><path d="M758.94,873.26h-.13a2.68,2.68,0,0,1-1.89-1c-1.47-1.89-.95-5.68-.88-6.1l0-.23.15-.17c.32-.36,31.91-35.09,37.34-42.11.74-1.55,12.76-26.69,18.24-37.08,5.89-11.16,18.38-8.5,18.5-8.47s10.84,3.07,8.38,19.72c-2.39,16.13-10.51,29.49-10.59,29.63-.65.87-15.29,20.05-27.92,24.86-6.46,2.46-16.25,8-24.88,12.84C765.82,870.42,760.7,873.26,758.94,873.26Zm-1.43-6.71c-.13,1.13-.23,3.63.61,4.72a1.2,1.2,0,0,0,.84.47h0c1.36,0,8.88-4.24,15.53-8,8.68-4.89,18.52-10.43,25.09-12.93,12.22-4.66,27.06-24.11,27.21-24.3s8-13.18,10.33-29c2.27-15.32-7.13-18-7.23-18-.43-.09-11.45-2.42-16.79,7.71-5.62,10.64-18.12,36.83-18.25,37.09l-.08.14C789.63,831.2,760.24,863.54,757.51,866.55Z"/><path d="M706.87,787.25a53.71,53.71,0,0,0,2.33,5.33c.95,1.9,1.66,3.88,2.75,5.71,1.73,2.88,3.25,6.27,5.87,8s6.88,1.16,9.86.21c3.89-1.22,6.31-5,8.26-8.59q2.77-5.13,5.15-10.46a.64.64,0,0,1,1.21.38,42.77,42.77,0,0,1-4.49,13.8c-3.21,5.69-8.84,10.39-15.35,10.89a10.55,10.55,0,0,1-6.27-1.29c-2.4-1.45-3.84-4-5.17-6.49a69.88,69.88,0,0,1-5.84-13c-.58-1.94-.41.08-.58-1.94-.07-.78,1.19-2.74,2.66-1.52"/><path class="cls-7" d="M689.67,876.84h67.75l-.67-4.89s-1-.75-.85-5.1c0,0-26.47,2.79-30.23,2.69s-31.2-1.11-34.47-2.69l1.3,3.82Z"/><polygon points="682.91 893.02 762.68 893.02 758.12 880.18 757.42 876.84 689.67 876.84 683.94 888.31 682.91 893.02"/><polygon class="cls-7" points="673.3 944.42 781.88 944.4 777.8 935.26 762.59 893.01 682.82 893.01 680.97 901.73 680.01 907.19 679.55 909.82 674.76 932.62 672.97 944.42 673.3 944.42"/><polygon points="747.69 1000.85 801.46 1001.77 802.05 1005.96 762.22 1005 749.64 1005 747.69 1000.85"/><polygon points="670.76 984.99 713 986.12 712.88 990.31 682.15 989.57 671.58 989.88 670.76 984.99"/><path d="M671.58,989.36l41.13.4s.48,19.92-20.77,21.59C691.94,1011.35,677,1013.17,671.58,989.36Z"/><path d="M749.39,1004.48l52.66,1.48s4.39,18.71-16.86,20.37a36.05,36.05,0,0,1-19.09-2.07C759.09,1021.27,752.24,1014.31,749.39,1004.48Z"/><path class="cls-5" d="M685.17,989.36s2,7.6,6.83,7,5.47-7,5.47-7Z"/><path class="cls-5" d="M770.05,1004s3.79,8.35,8.7,8.1,7.44-8.1,7.44-8.1Z"/><polygon points="672.93 944.19 781.88 944.4 782.12 944.94 672.93 944.94 672.93 944.19"/><path d="M649.31,608.9c6.77-4.29,19.56-8.76,25.74-9.64,10.78-1.53,19.48-2.66,30.35,1.39.85,2.69,3.51,1.92,3.86,5,4.43,39.14-36.11,92.67-90.54,119.57-34.25,16.92-65.84,19.27-85.66,8.93,14-11.74,19.66-35.8,31.52-57.14,6.7-12.06,17-24.11,26.73-31.41,8.46-6.35,13.8-10.8,19.47-15.57,7.87-6.62,10.73-7.19,23.84-14.65C636.44,614.3,647.75,610.25,649.31,608.9Z"/><path d="M747.6,597.19c-23.17-6.52-48.56,1.89-64,13.73,0,3.05-3,3.06-2.29,6.32,8.73,41.89,68.69,84.9,133.92,96.07,41,7,74.4-.22,91.31-17-18.37-7.88-26.14-34.23-45.61-52.69-11-10.44-21.09-21-33.6-25.55-10.87-4-19.33-8.7-26.8-11.9-10.36-4.45-13.65-4-29.69-7.68C768.58,598,723.56,591.6,747.6,597.19Z"/><path d="M709.78,621.72c8-1.59,15.81-7.41,20.19-12.72-.19-.79,8.1-7.19,7.69-7.94-5.33-9.73-34.85-6.49-56.9-.12-13.89,4-32,7.14-36.53,13.94,6.5-.55,18.16,8.77,25.64,10.83,4.22,1.17,8.15,2.49,12.52,1.9,3.8-.5,6.86-.47,9.5-.7,3.66-.31,4.71-.9,10.19-2.22C702.85,624.51,718,619.76,709.78,621.72Z"/><ellipse cx="863.5" cy="615.69" rx="43.62" ry="51.26" transform="translate(174.31 1421.75) rotate(-84.96)"/><ellipse cx="567.12" cy="631.58" rx="43.62" ry="51.26" transform="translate(-111.85 1141) rotate(-84.96)"/><path class="cls-7" d="M565.63,678.25s51.45-17.78,54.28-54c1.5-19.25-17.66,29.28-41.76,39.15C558.92,671.24,555.33,681,565.63,678.25Z"/><path class="cls-7" d="M871.49,663.37s-53.15-11.8-60.09-47.49c-3.68-19,20.88,27.06,46,34.13C877.35,655.65,882,665,871.49,663.37Z"/><path class="cls-2" d="M855.72,634c0-.06,0-.13,0-.19a.83.83,0,0,0,0-.15s0-.05,0-.06h0a3.78,3.78,0,0,0-.22-.33l-.37-.37c-2.57-2.41-12.26-4.06-12.26-4.06-3-7.66-5.17-10-6.46-10.55a2.32,2.32,0,0,0-.74-.1h-.09a1.58,1.58,0,0,0-.42.09l-.08,0,0,0-.07.07c-2.62,1.33-6.71,11.1-6.71,11.1s-11.22.38-12.07,4,8.39,9.62,8.39,9.62-2.29,12.19.1,13.34c2.91,1.41,10.37-3.89,10.9-4.27a.9.9,0,0,1,.32-.26.87.87,0,0,1,.39-.1.26.26,0,0,1,.25.06c.23.18.47.35.71.52l.06,0s0,0,0,0c7.79,4.49,9.3,4.3,11.37,3.36s.09-12.72.09-12.72C855.05,636.42,855.59,636.2,855.72,634Z"/><path class="cls-3" d="M857.31,634c0-.06,0-.13,0-.19l0-.15a.14.14,0,0,1,0-.06h0a2.44,2.44,0,0,0-.23-.33,4.3,4.3,0,0,0-.37-.37c-2.57-2.41-12.25-4.06-12.25-4.06-3-7.66-5.18-10-6.47-10.55a2.26,2.26,0,0,0-.73-.1h-.1a1.43,1.43,0,0,0-.41.09l-.09,0,0,0-.07.07c-2.62,1.33-6.71,11.1-6.71,11.1s-11.21.38-12.06,4,8.39,9.62,8.39,9.62-2.29,12.19.09,13.34c2.91,1.41,10.38-3.89,10.91-4.27a.82.82,0,0,1,.32-.26.83.83,0,0,1,.38-.1.28.28,0,0,1,.26.06c.22.18.46.35.7.52l.06,0a.05.05,0,0,1,.05,0c7.78,4.49,9.29,4.3,11.36,3.36s.1-12.72.1-12.72C856.64,636.42,857.17,636.2,857.31,634Z"/><path d="M827.34,656.8a2.83,2.83,0,0,1-1.24-.24c-2.37-1.15-.4-12.24-.18-13.4-.92-.61-9.2-6.21-8.37-9.71s11-4,12.1-4.05c.41-1,4.18-9.76,6.72-11.09l.06-.06.07,0,0,0,0,0a1.8,1.8,0,0,1,.45-.09h.1a2.34,2.34,0,0,1,.78.11c1.31.58,3.48,2.88,6.52,10.56.95.17,9.77,1.75,12.25,4.07l.38.38.09.14a1.7,1.7,0,0,1,.15.22l0,.09a.75.75,0,0,0,0,.16l0,.21v0c-.12,1.9-.55,2.35-4.67,6.65l-2.34,2.45c.17,1,1.9,11.85-.18,12.8-2.24,1-3.91,1-11.47-3.37l0,0,0,0,0,0-.16-.11c-.19-.13-.38-.27-.56-.42a.13.13,0,0,0-.13,0h0a.71.71,0,0,0-.33.09.75.75,0,0,0-.27.22l0,0C836.41,652.79,830.71,656.8,827.34,656.8Zm9.88-38.47h-.16a1.61,1.61,0,0,0-.38.08h0l-.07,0h0l0,0,0,0c-2.55,1.3-6.61,10.94-6.65,11l0,.08h-.08c-.11,0-11.13.41-12,3.86s8.24,9.42,8.34,9.48l.07,0,0,.08s-.57,3.08-.85,6.23c-.44,5.21.23,6.67.88,7,2.82,1.36,10.26-3.9,10.76-4.25a1,1,0,0,1,.77-.4.44.44,0,0,1,.36.09c.17.14.35.28.53.4l.18.13h0l.07,0c7.84,4.53,9.24,4.27,11.24,3.36,1.63-.74.57-9.34,0-12.59v-.06l0,0,2.39-2.49c4-4.23,4.49-4.68,4.6-6.48l0-.17,0-.15a.08.08,0,0,1,0,0,.91.91,0,0,0-.13-.19l-.09-.13-.35-.35c-2.51-2.36-12.1-4-12.19-4l-.07,0,0-.06c-3-7.65-5.15-9.93-6.4-10.49A2.15,2.15,0,0,0,837.22,618.33Z"/><path class="cls-2" d="M617,645.83c0-.07,0-.13,0-.2s0-.09,0-.14,0,0,0-.06v0a3.78,3.78,0,0,0-.22-.33l-.37-.37c-2.57-2.41-12.26-4.05-12.26-4.05-3-7.67-5.18-10-6.46-10.56a2.64,2.64,0,0,0-.74-.1h-.09a2,2,0,0,0-.42.08l-.08,0,0,0-.07.06c-2.62,1.34-6.71,11.11-6.71,11.11s-11.22.38-12.07,4,8.39,9.61,8.39,9.61-2.29,12.2.1,13.35c2.91,1.4,10.37-3.9,10.9-4.27a1,1,0,0,1,.32-.27,1,1,0,0,1,.38-.1.3.3,0,0,1,.26.06c.23.19.47.36.7.53l.07,0,0,0c7.79,4.5,9.3,4.31,11.37,3.37s.09-12.73.09-12.73C616.36,648.21,616.9,648,617,645.83Z"/><path class="cls-3" d="M618.62,645.83l0-.2,0-.14a.14.14,0,0,1,0-.06v0a3.29,3.29,0,0,0-.23-.33l-.37-.37c-2.57-2.41-12.25-4.05-12.25-4.05-3-7.67-5.18-10-6.47-10.55a2.31,2.31,0,0,0-.73-.11h-.1a1.86,1.86,0,0,0-.41.08l-.09,0,0,0-.07.06c-2.62,1.34-6.71,11.11-6.71,11.11s-11.22.38-12.06,4,8.39,9.61,8.39,9.61-2.3,12.2.09,13.35c2.91,1.4,10.38-3.9,10.9-4.27a1.09,1.09,0,0,1,.33-.27,1,1,0,0,1,.38-.1.28.28,0,0,1,.25.06c.23.19.47.36.71.53l.06,0,0,0c7.78,4.5,9.29,4.31,11.36,3.37s.09-12.73.09-12.73C618,648.21,618.48,648,618.62,645.83Z"/><path d="M588.65,668.6a2.83,2.83,0,0,1-1.24-.25c-2.37-1.14-.4-12.23-.18-13.4-.92-.61-9.2-6.2-8.38-9.7s11-4,12.11-4c.41-1,4.18-9.76,6.72-11.09l.06-.06.07,0,.05,0h0a2.11,2.11,0,0,1,.45-.1h.1a2.61,2.61,0,0,1,.78.1c1.31.59,3.48,2.89,6.52,10.57,1,.16,9.77,1.75,12.25,4.07l.38.38a.73.73,0,0,0,.09.13,1.3,1.3,0,0,1,.15.23l0,.09a1.24,1.24,0,0,0,0,.16l0,.21v0c-.12,1.9-.55,2.35-4.67,6.65l-2.34,2.44c.17,1,1.9,11.86-.18,12.8-2.24,1-3.91,1-11.47-3.37l0,0-.06,0,0,0-.16-.11c-.19-.14-.38-.27-.56-.42a.14.14,0,0,0-.13,0h0a.71.71,0,0,0-.33.09.66.66,0,0,0-.27.22l0,0C597.72,664.59,592,668.6,588.65,668.6Zm9.88-38.47h-.16a2.33,2.33,0,0,0-.38.08h0l-.07,0h0l0,0,0,0c-2.55,1.3-6.61,10.95-6.65,11l0,.07h-.08c-.11,0-11.13.42-11.95,3.87s8.24,9.42,8.34,9.48l.07,0,0,.09s-.58,3.08-.85,6.23c-.44,5.2.23,6.67.88,7,2.82,1.36,10.26-3.9,10.76-4.25a.91.91,0,0,1,.35-.29,1,1,0,0,1,.42-.11.38.38,0,0,1,.35.09l.54.4.18.12,0,0,.07,0c7.84,4.52,9.24,4.26,11.24,3.36,1.63-.74.57-9.34,0-12.6v-.06l0,0,2.39-2.5c4.05-4.22,4.49-4.67,4.6-6.47l0-.18a1,1,0,0,0,0-.14s0,0,0,0a1.27,1.27,0,0,0-.13-.19l-.09-.13-.36-.35c-2.51-2.35-12.09-4-12.19-4h-.07l0-.06c-3-7.66-5.15-9.93-6.4-10.49A2.15,2.15,0,0,0,598.53,630.13Z"/></g></svg>
