<svg id="Layer_2" data-name="Layer 2" xmlns="http://www.w3.org/2000/svg" width="1920" height="1080" viewBox="0 0 1920 1080"><defs><style>.cls-1{fill:#ddeefe;}.cls-1,.cls-2,.cls-3{isolation:isolate;}.cls-2,.cls-4{fill:#325f97;}.cls-3{fill:#315d93;}.cls-5{fill:#849fc1;}.cls-6{fill:#ffab5f;}.cls-7{fill:#ff73a0;}.cls-8{fill:#a1cde2;}.cls-9{fill:#d8d8d8;}.cls-10{fill:#b2b2b2;}.cls-11{fill:#ffa1d3;}</style></defs><polygon class="cls-1" points="1607.73 634.51 1137.9 634.51 1137.9 150.89 1668.57 221.84 1607.73 634.51"/><polygon class="cls-2" points="1137.9 634.51 870.3 634.51 830 248.7 1137.9 150.89 1137.9 634.51"/><polygon class="cls-1" points="1043.48 634.51 702.61 634.51 714.47 385.31 1024.92 375.35 1043.48 634.51"/><polygon class="cls-1" points="1878.8 694.72 1650.61 692.15 1668.57 464.86 1866.03 463.26 1878.8 694.72"/><polygon class="cls-3" points="702.61 634.51 565.92 634.51 576.05 420.91 714.47 385.31 702.61 634.51"/><rect class="cls-4" x="761.36" y="421.95" width="228.28" height="118.05"/><rect class="cls-5" x="767.78" y="424.25" width="215.44" height="113.01"/><polygon class="cls-4" points="1850.85 694.4 1688.63 693.35 1700.72 501.5 1840.92 501.5 1850.85 694.4"/><polygon class="cls-4" points="1650.61 692.15 1519.22 634.51 1523.72 487.66 1668.57 464.86 1650.61 692.15"/><polygon class="cls-6" points="1351.82 501.5 1225.73 501.5 1237.83 634.51 1342.61 634.51 1351.82 501.5"/><path class="cls-7" d="M147.76,635c-14.13-100.39-51.08-344,126.75-344,193.73,0,141.22,244.11,126.66,344.63"/><path class="cls-7" d="M249.52,635.55c-13.21-92.25,55.21-164.13,116.22-164.24s129.87,71.77,116.72,164.2"/><ellipse class="cls-8" cx="1284.74" cy="308.78" rx="50.27" ry="64.19"/><path class="cls-9" d="M1328.13,339.58a46.14,46.14,0,0,1-2.56,4.61c-4.41,7.73-10.33,14.59-18.88,18.67-16.75,8-38.28,5.9-53.18-4.78a22.52,22.52,0,0,1-4.75-4.52h0c9.14,12,21.89,19.42,36,19.42,20,0,37.25-14.89,45.35-36.47A31.51,31.51,0,0,1,1328.13,339.58Z"/><path class="cls-10" d="M1329.46,338.08a78.47,78.47,0,0,0,5.55-29.3c0-35.45-22.51-64.19-50.27-64.19a40,40,0,0,0-8.57.95c.74.21,1.47.46,2.2.72s1.69.47,2.53.75a29.22,29.22,0,0,1,2.8,1l1.32.35a34.68,34.68,0,0,1,3.65,1c2.58.91,5.11,2,7.64,3l.86.36.81.29a21,21,0,0,1,6.67,3.82A53,53,0,0,1,1319.56,270c6.74,8.29,9.16,17.71,10.28,27.57.14.6.28,1.2.4,1.81,2.26,11.71,1.54,24.65-.32,36.35C1329.8,336.55,1329.64,337.32,1329.46,338.08Z"/><path class="cls-11" d="M249.52,635.55c-13.21-92.25,55.21-164.13,116.22-164.24s129.87,71.77,116.72,164.2"/><ellipse class="cls-8" cx="1425.17" cy="321.7" rx="44.12" ry="61.73"/><path class="cls-9" d="M1463.25,351.31a46,46,0,0,1-2.25,4.43c-3.87,7.44-9.06,14-16.57,18-14.7,7.69-33.6,5.68-46.68-4.59a20.65,20.65,0,0,1-4.16-4.36h0c8,11.52,19.21,18.68,31.61,18.68,17.54,0,32.69-14.33,39.8-35.07A33,33,0,0,1,1463.25,351.31Z"/><path class="cls-10" d="M1464.42,349.87a82,82,0,0,0,4.87-28.17c0-34.09-19.76-61.73-44.12-61.73a32.6,32.6,0,0,0-7.53.91c.65.21,1.3.45,1.93.7s1.49.44,2.22.71a25.61,25.61,0,0,1,2.46,1c.39.1.78.21,1.16.34a27.73,27.73,0,0,1,3.21,1c2.26.87,4.48,1.88,6.7,2.87l.75.35.71.27a18,18,0,0,1,5.86,3.68,48,48,0,0,1,13.09,12.68c5.91,8,8,17,9,26.51.13.57.25,1.15.35,1.73,2,11.26,1.36,23.71-.28,35C1464.71,348.4,1464.57,349.14,1464.42,349.87Z"/><ellipse class="cls-8" cx="1556.55" cy="338.08" rx="37.34" ry="61.73"/><path class="cls-9" d="M1588.78,367.69c-.57,1.52-1.2,3-1.9,4.44-3.28,7.44-7.67,14-14,17.95-12.44,7.69-28.43,5.68-39.5-4.59a19.7,19.7,0,0,1-3.52-4.35h0c6.78,11.52,16.25,18.68,26.74,18.68,14.85,0,27.67-14.33,33.69-35.07C1589.79,365.76,1589.31,366.75,1588.78,367.69Z"/><path class="cls-10" d="M1589.77,366.26a95.3,95.3,0,0,0,4.12-28.18c0-34.09-16.71-61.73-37.34-61.73a23.5,23.5,0,0,0-6.36.91c.55.21,1.09.45,1.63.7s1.26.44,1.88.71a20.48,20.48,0,0,1,2.08,1l1,.34a20.56,20.56,0,0,1,2.71,1c1.92.87,3.8,1.87,5.68,2.86l.63.35.6.27a15.23,15.23,0,0,1,5,3.68c4.42,3.22,8,7.72,11.08,12.68,5,8,6.8,17,7.63,26.51.11.57.21,1.15.3,1.73,1.68,11.27,1.15,23.71-.24,35C1590,364.78,1589.9,365.52,1589.77,366.26Z"/></svg>
