<svg xmlns="http://www.w3.org/2000/svg" xmlns:xlink="http://www.w3.org/1999/xlink" width="1920" height="1080" viewBox="0 0 1920 1080"><defs><style>.cls-1{fill:url(#radial-gradient);}.cls-2{fill:#fff;}.cls-3{fill:#ffa1d3;}.cls-4{fill:#ff73a0;}.cls-12,.cls-5{fill:#e36ea6;}.cls-6,.cls-7{fill:#f5e0cd;}.cls-12,.cls-16,.cls-19,.cls-20,.cls-24,.cls-7{stroke:#000;stroke-miterlimit:10;}.cls-8{fill:#9b74d0;}.cls-9{fill:none;}.cls-10{fill:#231f20;}.cls-11{fill:#f5db12;}.cls-13{fill:#74f1ff;}.cls-14{fill:#9fe8ff;}.cls-15{fill:#ff74c2;}.cls-16,.cls-23{fill:#008ab2;}.cls-17{fill:#fcda33;}.cls-18{fill:#b08874;}.cls-19{fill:#9c7761;}.cls-20{fill:#ff8d0a;}.cls-21{fill:#ffab5f;}.cls-22{fill:#7ec479;}.cls-24{fill:#b1deff;}</style><radialGradient id="radial-gradient" cx="960" cy="540" r="778.85" gradientUnits="userSpaceOnUse"><stop offset="0" stop-color="#85b4e8"/><stop offset="0.36" stop-color="#aae3ff"/><stop offset="1" stop-color="#85b4e8"/></radialGradient></defs><g id="Layer_2" data-name="Layer 2"><rect class="cls-1" width="1920" height="1080"/><rect x="923.59" y="24.02" width="435.71" height="1239.89" rx="12.45" transform="translate(-103.18 233.48) rotate(-11.18)"/><rect class="cls-2" x="934.35" y="29.48" width="435.71" height="1239.89" rx="7.67" transform="translate(-104.03 235.67) rotate(-11.18)"/><rect class="cls-3" x="872.2" y="63.96" width="378.1" height="295.91" rx="7.53" transform="translate(-20.95 209.74) rotate(-11.18)"/><rect class="cls-4" x="935.67" y="385.16" width="378.1" height="295.91" rx="8.83" transform="translate(-82.01 228.14) rotate(-11.18)"/><rect class="cls-5" x="1000.56" y="713.54" width="378.1" height="295.91" rx="10.27" transform="translate(-144.43 246.94) rotate(-11.18)"/><path class="cls-6" d="M1072.84,269.85s-6.42,27.44-6.72,31.23-4.37,13.43-5.83,39.7,12.55,27.15,12.55,27.15,15.47.87,15.76-15.18,0-40.28,0-40.28h10.22l3.79,22.76s8.17,39.12,21.89,41.75,24.52,1.16,22.48-14.6-15.76-44.66-15.76-44.66l-12.85-36.19-2.62-15.77-43.2,2.05Z"/><path d="M1134,378.4a51.77,51.77,0,0,1-9.55-1.06c-13.8-2.64-21.85-40.42-22.19-42l-3.74-22.47H1089c0,3.15.26,25.13,0,39.91-.09,4.94-1.61,8.81-4.51,11.5-4.73,4.39-11.37,4.07-11.65,4.05s-14.37-1.2-12.91-27.54c1.08-19.38,3.59-29.77,4.95-35.35a33.27,33.27,0,0,0,.89-4.35c.29-3.73,6.27-29.37,6.71-31.23l-.34-2.38,43.94-2.08,2.68,16.09,12.83,36.14c.12.25,13.75,29.09,15.78,44.73.77,5.93-.25,10.26-3,12.88C1142.05,377.34,1138.68,378.4,1134,378.4Zm-45.76-66.31h10.91l3.85,23.08c.08.38,8.28,38.89,21.59,41.44,9.74,1.86,15.84,1.24,19.23-1.95,2.64-2.47,3.55-6.48,2.81-12.23-2-15.52-15.6-44.26-15.73-44.55L1118,281.65l-2.59-15.49-42.45,2,.24,1.71,0,.07c-.06.27-6.42,27.45-6.7,31.17a32.84,32.84,0,0,1-.92,4.48c-1.34,5.55-3.85,15.9-4.92,35.21-1.42,25.55,12.07,26.74,12.2,26.75s6.62.32,11.11-3.85c2.74-2.55,4.17-6.23,4.26-11,.28-15.86,0-40,0-40.27Z"/><ellipse class="cls-7" cx="1095.26" cy="184.37" rx="111.91" ry="89.71"/><circle class="cls-2" cx="1156.15" cy="179.41" r="50.61"/><path d="M1156.15,230.43a51,51,0,1,1,51-51A51.08,51.08,0,0,1,1156.15,230.43Zm0-101.21a50.19,50.19,0,1,0,50.19,50.19A50.25,50.25,0,0,0,1156.15,129.22Z"/><circle class="cls-8" cx="1153.58" cy="181.07" r="47.06"/><circle cx="1145.61" cy="186.14" r="38.04"/><circle class="cls-2" cx="1127.51" cy="193.38" r="13.97"/><circle class="cls-2" cx="1034.37" cy="181.07" r="50.61"/><path d="M984.18,181.07a50.09,50.09,0,0,1,17.73-38.25c-.08-.29-.16-.58-.25-.86a50.91,50.91,0,0,0-2.32,76.15l.61-.57A50,50,0,0,1,984.18,181.07Z"/><path d="M1083.38,166.91l-.89-.12a48.36,48.36,0,0,1,1.26,5.25,50.16,50.16,0,0,1-83.8,45.5l-.61.57a51,51,0,0,0,84-51.2Z"/><path d="M1006.87,139.1a50.15,50.15,0,0,1,75.62,27.69l.89.12A51,51,0,0,0,1001.66,142c.09.28.17.57.25.86A51.3,51.3,0,0,1,1006.87,139.1Z"/><circle class="cls-8" cx="1036.94" cy="182.72" r="47.06"/><circle cx="1044.91" cy="187.8" r="38.04"/><circle class="cls-2" cx="1060.56" cy="195.04" r="13.97"/><path d="M1196.5,217.6s-14.62-7.72-42-10.12-43,22.26-43,22.26l40.74,16.52Z"/><path class="cls-6" d="M1196.5,218.6s-14.62-7.72-42-10.12-43,22.26-43,22.26l40.74,16.52Z"/><line class="cls-9" x1="1081.3" y1="161.03" x2="1087.82" y2="164.65"/><path d="M991.31,213.28s15.55-5.92,43.27-5,40.4,27.24,40.4,27.24L1032.24,247Z"/><path class="cls-6" d="M991.31,214s15.52-5.91,43.19-5,40.32,27.23,40.32,27.23l-42.66,11.54Z"/><path class="cls-6" d="M1068.76,287s-28.9-29.32-32.25-40.08c-3.42-11-5.66-16.58-1.17-25.95s17.62,2.32,17.62,2.32,10.87,15.36,12.5,23.11,9,29.18,9,29.18Z"/><path d="M1068.89,287.83l-.49-.49c-1.18-1.2-29-29.53-32.37-40.29l-.61-2c-3.11-9.92-4.83-15.38-.53-24.36a6.29,6.29,0,0,1,4.51-3.79c5.81-1.17,13.56,5.67,13.89,6l.07.08c.45.63,11,15.54,12.59,23.3s8.92,28.91,9,29.12l.07.2Zm-28.09-70a6.05,6.05,0,0,0-1.21.11,5.36,5.36,0,0,0-3.8,3.24c-4.13,8.63-2.45,14,.59,23.63l.61,2c3,9.76,27.82,35.46,31.64,39.37l5.3-10.59c-.75-2.19-7.42-21.76-9-29.05s-11.72-21.92-12.39-22.87C1052,223.12,1045.78,217.82,1040.8,217.82Z"/><path class="cls-6" d="M1117.14,272.48s21-23.14,24.57-27.71c0,0,8.26-17.3,12-24.37s11.6-5.31,11.6-5.31,6.68,1.77,5.11,12.38a57.43,57.43,0,0,1-6.88,19.26s-9.83,13-18.08,16.12-25,13.95-26.93,13.76S1117.14,272.48,1117.14,272.48Z"/><path d="M1118.56,277.11h-.09a1.73,1.73,0,0,1-1.24-.69c-1-1.23-.62-3.72-.58-4l0-.15.1-.12c.21-.23,21-23,24.51-27.64.49-1,8.38-17.52,12-24.34,3.87-7.33,12.06-5.58,12.14-5.56s7.12,2,5.5,13a58.07,58.07,0,0,1-7,19.44c-.43.58-10,13.17-18.33,16.33-4.24,1.61-10.66,5.23-16.33,8.42C1123.08,275.24,1119.71,277.11,1118.56,277.11Zm-.94-4.41c-.09.74-.15,2.39.4,3.1a.74.74,0,0,0,.55.31h0c.9,0,5.83-2.78,10.2-5.24,5.7-3.21,12.16-6.85,16.47-8.49,8-3.06,17.76-15.82,17.86-15.95a57.58,57.58,0,0,0,6.78-19c1.49-10.06-4.68-11.81-4.74-11.83-.29-.06-7.52-1.58-11,5.06-3.69,7-11.89,24.18-12,24.35l-.05.09C1138.7,249.5,1119.41,270.73,1117.62,272.7Z"/><path d="M1084.38,220.65a34.9,34.9,0,0,0,1.52,3.5c.63,1.25,1.09,2.54,1.81,3.74,1.14,1.9,2.13,4.12,3.86,5.24s4.51.75,6.47.14c2.55-.81,4.14-3.29,5.41-5.64s2.35-4.54,3.39-6.87a.42.42,0,0,1,.79.25,28,28,0,0,1-3,9.05c-2.1,3.74-5.8,6.83-10.07,7.15a6.92,6.92,0,0,1-4.12-.84,10.38,10.38,0,0,1-3.39-4.27,45.94,45.94,0,0,1-3.84-8.53c-.38-1.28-.26.05-.38-1.28,0-.51.78-1.8,1.75-1"/><path class="cls-8" d="M1073.08,279.46h44.48l-.44-3.21s-.62-.5-.56-3.35c0,0-17.38,1.83-19.85,1.77s-20.48-.73-22.62-1.77l.85,2.51Z"/><polygon points="1068.64 290.08 1121.01 290.08 1118.02 281.65 1117.56 279.46 1073.08 279.46 1069.32 286.99 1068.64 290.08"/><polygon class="cls-8" points="1062.34 323.82 1133.61 323.81 1130.94 317.81 1120.95 290.07 1068.58 290.07 1067.38 295.8 1066.74 299.38 1066.44 301.11 1063.29 316.08 1062.12 323.82 1062.34 323.82"/><polygon points="1111.17 360.86 1146.47 361.47 1146.86 364.22 1120.71 363.59 1112.45 363.59 1111.17 360.86"/><polygon points="1060.67 350.45 1088.4 351.19 1088.32 353.95 1068.15 353.46 1061.21 353.66 1060.67 350.45"/><path d="M1061.21,353.32l27,.27s.31,13.08-13.64,14.17C1074.57,367.76,1064.76,369,1061.21,353.32Z"/><path d="M1112.29,363.25l34.57,1s2.88,12.28-11.07,13.37a23.58,23.58,0,0,1-12.53-1.36A20.11,20.11,0,0,1,1112.29,363.25Z"/><path class="cls-6" d="M1070.13,353.32s1.28,5,4.49,4.61,3.58-4.61,3.58-4.61Z"/><path class="cls-6" d="M1125.85,362.9s2.49,5.49,5.71,5.32,4.89-5.32,4.89-5.32Z"/><polygon points="1062.09 323.67 1133.61 323.81 1133.77 324.16 1062.09 324.16 1062.09 323.67"/><path d="M1046.59,103.57a55.25,55.25,0,0,1,16.9-6.33c7.07-1,12.78-1.75,19.92.91.56,1.77,2.31,1.26,2.53,3.26,2.91,25.69-23.7,60.83-59.43,78.49-22.49,11.11-43.23,12.65-56.24,5.86,9.17-7.71,12.91-23.5,20.69-37.51a70,70,0,0,1,17.55-20.62c5.55-4.16,9.06-7.09,12.78-10.22,5.17-4.35,7-4.72,15.65-9.62C1038.14,107.11,1045.56,104.45,1046.59,103.57Z"/><path d="M1111.11,95.88c-15.21-4.28-31.88,1.24-42,9,0,2-1.95,2-1.51,4.15,5.74,27.5,45.1,55.74,87.92,63.07,27,4.62,48.84-.15,59.94-11.17-12.06-5.17-17.16-22.47-29.94-34.59-7.23-6.85-13.85-13.76-22.06-16.77-7.13-2.61-12.69-5.71-17.59-7.82-6.81-2.91-9-2.6-19.5-5C1124.89,96.38,1095.33,92.21,1111.11,95.88Z"/><path d="M1086.28,112c5.24-1,10.39-4.86,13.26-8.35-.13-.52,5.32-4.72,5-5.21-3.5-6.39-22.87-4.26-37.35-.08-9.11,2.63-21,4.68-24,9.15,4.26-.36,11.92,5.76,16.82,7.11,2.78.77,5.36,1.63,8.23,1.25,2.49-.33,4.5-.31,6.23-.46,2.4-.2,3.09-.59,6.69-1.46C1081.73,113.81,1091.68,110.7,1086.28,112Z"/><ellipse cx="1187.19" cy="108.02" rx="28.64" ry="33.65" transform="translate(975.27 1281.13) rotate(-84.96)"/><ellipse cx="992.63" cy="118.45" rx="28.64" ry="33.65" transform="translate(787.41 1096.84) rotate(-84.96)"/><path class="cls-8" d="M991.66,149.09s33.77-11.67,35.63-35.47c1-12.64-11.6,19.21-27.42,25.7C987.25,144.49,984.89,150.93,991.66,149.09Z"/><path class="cls-8" d="M1192.44,139.32s-34.89-7.74-39.44-31.18c-2.42-12.44,13.7,17.77,30.16,22.41C1196.29,134.25,1199.37,140.38,1192.44,139.32Z"/><path class="cls-10" d="M882.28,387.8c-.18-.87-.36-1.74-.55-2.61-.15-.66-.3-1.31-.48-1.95a7.33,7.33,0,0,1-.26-.79l-.09-.19c-.79-1.56-1.93-2.89-2.85-4.36-1.37-1.56-3-3.19-4.74-4.93-32.6-31.92-155.66-53.73-155.66-53.73C679.25,217.6,651.91,187,635.55,179.33a27.66,27.66,0,0,0-9.32-1.34l-1.23.07a21.11,21.11,0,0,0-5.26,1.13c-.36.16-.71.34-1.08.48l-.52.26a7.35,7.35,0,0,0-.88.82C584,198.47,532.06,328,532.06,328s-142.49,5-153.27,52.49S485.36,507.94,485.36,507.94s-29.11,161.66,1.19,176.92c37,18.61,131.82-51.64,138.5-56.64a11.31,11.31,0,0,1,4.09-3.49,10.94,10.94,0,0,1,4.87-1.31,3.39,3.39,0,0,1,3.23.77c2.87,2.5,5.94,4.7,9,7,.27.14.52.31.79.43a2.3,2.3,0,0,1,.59.41c98.87,59.62,118,57.12,144.31,44.65s1.2-168.72,1.2-168.72C873.79,419.4,880.57,416.5,882.28,387.8Z"/><path class="cls-11" d="M902.41,387.8c-.18-.87-.36-1.74-.55-2.61-.15-.65-.3-1.31-.48-1.95a5.93,5.93,0,0,1-.26-.78l-.09-.19c-.79-1.57-1.93-2.89-2.86-4.37-1.36-1.56-3-3.19-4.73-4.92-32.6-31.93-155.66-53.74-155.66-53.74C699.38,217.6,672,187,655.68,179.33a27.7,27.7,0,0,0-9.32-1.34l-1.23.07a21,21,0,0,0-5.26,1.13c-.36.16-.71.35-1.08.48l-.52.26a7.35,7.35,0,0,0-.88.82C604.14,198.47,552.18,328,552.18,328s-142.49,5-153.26,52.49S505.49,508,505.49,508s-29.11,161.65,1.19,176.91c37,18.61,131.82-51.63,138.5-56.64a11.41,11.41,0,0,1,4.09-3.49,11,11,0,0,1,4.86-1.31,3.4,3.4,0,0,1,3.24.78c2.86,2.49,5.94,4.69,9,7,.27.13.52.3.79.43a1.89,1.89,0,0,1,.59.41c98.87,59.62,118,57.11,144.31,44.64S813.22,508,813.22,508C893.91,419.4,900.69,416.5,902.41,387.8Z"/><path d="M521.74,689.65A34.64,34.64,0,0,1,506,686.36c-30.05-15.13-5-162.19-2.27-177.63C492,500.66,386.84,426.49,397.37,380.09c10.56-46.56,139.8-53.15,153.74-53.73,5.21-12.88,53.09-129.35,85.32-147a10.18,10.18,0,0,1,.86-.77l.83-.46c.32-.12.5-.21.67-.29l.47-.21A22,22,0,0,1,645,176.4l1.29-.07a29.1,29.1,0,0,1,9.87,1.41c16.6,7.73,44.24,38.25,82.78,140,12.06,2.18,124.12,23.17,155.6,54,2.11,2.07,3.6,3.61,4.82,5,.5.74.87,1.26,1.23,1.77a23.2,23.2,0,0,1,1.87,2.95l.46,1.26c.19.69.35,1.37.51,2.05l.6,2.86v.23c-1.51,25.21-7,31.17-59.37,88.16-8.58,9.33-18.42,20-29.72,32.43,2.15,13.61,24.18,157.15-2.24,169.69-28.49,13.51-49.65,13.24-145.77-44.72l-.3-.23-.73-.41-.49-.3-2-1.53c-2.33-1.74-4.74-3.54-7-5.52a1.89,1.89,0,0,0-1.76-.45l-.46.07h0a9.22,9.22,0,0,0-4.14,1.14,9.64,9.64,0,0,0-3.51,3l-.36.37C637,636.43,564.54,689.65,521.74,689.65Zm125.53-510-.85,0-1.2.06a20,20,0,0,0-4.84,1.05l-.27.13c-.26.12-.51.24-.78.34l-.21.12a5.3,5.3,0,0,0-.54.5l-.46.37c-32.36,17.24-84,145.11-84.46,146.4l-.4,1-1,0c-1.42.05-141.39,5.49-151.77,51.21S505.2,505.76,506.36,506.55l.89.61-.2,1.1c-.07.4-7.3,40.83-10.74,82.59-5.68,69,2.88,88.39,11.07,92.51,35.9,18,130.35-51.63,136.67-56.34a13,13,0,0,1,4.51-3.78,12.58,12.58,0,0,1,5.36-1.48,5,5,0,0,1,4.47,1.16c2.18,1.89,4.54,3.66,6.83,5.36l2.22,1.63.31.17a3.22,3.22,0,0,1,.9.58c99.49,60,117.36,56.5,142.71,44.48,20.69-9.82,7.22-123.82.28-166.92l-.13-.82.55-.6c11.53-12.66,21.56-23.56,30.27-33.05,51.49-56,57-62,58.47-85.82l-.5-2.36c-.14-.63-.28-1.25-.45-1.87a5.18,5.18,0,0,1-.23-.65,22.52,22.52,0,0,0-1.6-2.51c-.41-.57-.81-1.14-1.18-1.73-1-1.12-2.44-2.61-4.49-4.62C860.47,343,738.74,321.1,737.51,320.88l-.88-.15-.33-.88C698,218.43,671,188.28,655,180.86A26.14,26.14,0,0,0,647.27,179.64Z"/><path d="M159.15,375.46h16a7.7,7.7,0,0,1,7.7,7.7v20.19a7.7,7.7,0,0,0,7.7,7.7h18.94a7.7,7.7,0,0,0,7.7-7.7V383.16a7.7,7.7,0,0,1,7.7-7.7h16.16a7.71,7.71,0,0,1,7.71,7.7v86.3a7.71,7.71,0,0,1-7.71,7.7H224.92a7.7,7.7,0,0,1-7.7-7.7V443.72a7.7,7.7,0,0,0-7.7-7.7H190.58a7.7,7.7,0,0,0-7.7,7.7v25.74a7.7,7.7,0,0,1-7.7,7.7h-16a7.7,7.7,0,0,1-7.7-7.7v-86.3A7.7,7.7,0,0,1,159.15,375.46Z"/><path d="M278.62,375.46h16.09a7.7,7.7,0,0,1,7.7,7.7v86.3a7.7,7.7,0,0,1-7.7,7.7H278.62a7.7,7.7,0,0,1-7.7-7.7v-86.3A7.7,7.7,0,0,1,278.62,375.46Z"/><path d="M325.38,383.16a7.7,7.7,0,0,1,7.7-7.7h39q13.8,0,22.3,3.74A36.29,36.29,0,0,1,408.42,390a44.56,44.56,0,0,1,8.05,16.3A75.9,75.9,0,0,1,419,426q0,16.31-3.71,25.29A41.76,41.76,0,0,1,405,466.3a33.56,33.56,0,0,1-14.15,8.09,72.9,72.9,0,0,1-18.73,2.77h-39a7.7,7.7,0,0,1-7.7-7.7Zm31.42,23v40.17a7.7,7.7,0,0,0,7.7,7.7h0q9.86,0,14-2.19a14.8,14.8,0,0,0,6.52-7.63q2.35-5.44,2.36-17.65,0-16.17-5.27-22.13t-17.49-6h-.14A7.7,7.7,0,0,0,356.8,406.19Z"/><path d="M443.11,375.46h68.82a7.7,7.7,0,0,1,7.7,7.7v6.31a7.7,7.7,0,0,1-7.7,7.7H474.6a7.7,7.7,0,0,0-7.7,7.7v.77a7.7,7.7,0,0,0,7.7,7.7h33.51a7.7,7.7,0,0,1,7.7,7.7v5.34a7.7,7.7,0,0,1-7.7,7.7H474.6a7.7,7.7,0,0,0-7.7,7.7v4.65a7.7,7.7,0,0,0,7.7,7.7h38.85a7.7,7.7,0,0,1,7.7,7.7v7.63a7.7,7.7,0,0,1-7.7,7.7H443.11a7.7,7.7,0,0,1-7.7-7.7v-86.3A7.7,7.7,0,0,1,443.11,375.46Z"/><path d="M142.27,587.32H118.06a7.71,7.71,0,0,0-7.39,5.52l-1.7,5.75a7.7,7.7,0,0,1-7.38,5.52H86.38a7.7,7.7,0,0,1-7.21-10.41l32.44-86.3a7.68,7.68,0,0,1,7.2-5h23.62a7.7,7.7,0,0,1,7.21,5l32.43,86.3a7.7,7.7,0,0,1-7.21,10.41H158.78a7.71,7.71,0,0,1-7.37-5.47l-1.77-5.85A7.71,7.71,0,0,0,142.27,587.32Zm-3.87-32-.76-2.5a7.7,7.7,0,0,0-14.73,0l-.76,2.5a7.7,7.7,0,0,0,7.37,9.94H131A7.7,7.7,0,0,0,138.4,555.37Z"/><path d="M203.88,502.41h17.57a7.72,7.72,0,0,1,6.37,3.36L249.75,538a7.71,7.71,0,0,0,14.07-4.34V510.11a7.7,7.7,0,0,1,7.7-7.7h14.22a7.7,7.7,0,0,1,7.7,7.7v86.3a7.7,7.7,0,0,1-7.7,7.7H267.89a7.69,7.69,0,0,1-6.36-3.36l-21.74-31.86a7.7,7.7,0,0,0-14.06,4.34v23.18a7.7,7.7,0,0,1-7.7,7.7H203.88a7.7,7.7,0,0,1-7.7-7.7v-86.3A7.69,7.69,0,0,1,203.88,502.41Z"/><path d="M314.74,510.11a7.7,7.7,0,0,1,7.7-7.7h39q13.8,0,22.3,3.74a36.19,36.19,0,0,1,14,10.76,44.4,44.4,0,0,1,8.05,16.3,75.42,75.42,0,0,1,2.5,19.7q0,16.3-3.71,25.29a41.78,41.78,0,0,1-10.31,15,33.67,33.67,0,0,1-14.15,8.09,72.84,72.84,0,0,1-18.73,2.77h-39a7.7,7.7,0,0,1-7.7-7.7Zm31.43,23v40.17a7.7,7.7,0,0,0,7.7,7.7h0q9.86,0,14-2.19t6.52-7.63q2.37-5.45,2.36-17.65,0-16.17-5.27-22.13t-17.48-6h-.14A7.7,7.7,0,0,0,346.17,533.14Z"/><path d="M483.21,569.76l14.69-.92a7.77,7.77,0,0,1,7.83,5.43,17.29,17.29,0,0,0,2.67,5.26q4.86,6.18,13.88,6.17,6.74,0,10.37-3.15a9.47,9.47,0,0,0,3.64-7.32,9.33,9.33,0,0,0-3.46-7.08q-3.48-3.12-16.1-5.9-20.67-4.63-29.48-12.34a24.85,24.85,0,0,1-8.88-19.64,26.67,26.67,0,0,1,4.54-14.81q4.54-7,13.67-11t25-4q19.49,0,29.72,7.25a27.49,27.49,0,0,1,10,13.51,7.65,7.65,0,0,1-6.87,10.09l-14.55.85a7.75,7.75,0,0,1-7.49-4.85,12.71,12.71,0,0,0-3.47-4.79q-3.79-3.12-10.45-3.12-5.48,0-8.25,2.32a7.14,7.14,0,0,0-2.78,5.66,5.69,5.69,0,0,0,2.29,4.37q2.22,2,10.55,3.75,20.6,4.44,29.52,9t13,11.27a28.57,28.57,0,0,1,4.06,15.06,32.25,32.25,0,0,1-5.41,18,33.92,33.92,0,0,1-15.13,12.52q-9.71,4.26-24.49,4.26-25.93,0-35.93-10a37.5,37.5,0,0,1-9.51-15.87A7.74,7.74,0,0,1,483.21,569.76Z"/><path d="M590.27,502.24h68.82a7.71,7.71,0,0,1,7.7,7.71v6.31a7.7,7.7,0,0,1-7.7,7.7H621.76a7.7,7.7,0,0,0-7.7,7.7v.76a7.7,7.7,0,0,0,7.7,7.7h33.51a7.7,7.7,0,0,1,7.7,7.7v5.35a7.7,7.7,0,0,1-7.7,7.7H621.76a7.7,7.7,0,0,0-7.7,7.7v4.65a7.7,7.7,0,0,0,7.7,7.7h38.86a7.7,7.7,0,0,1,7.7,7.7v7.63a7.7,7.7,0,0,1-7.7,7.7H590.27a7.7,7.7,0,0,1-7.7-7.7V510A7.71,7.71,0,0,1,590.27,502.24Z"/><path d="M692.87,502.24H761.7a7.71,7.71,0,0,1,7.7,7.71v6.31a7.7,7.7,0,0,1-7.7,7.7H724.37a7.7,7.7,0,0,0-7.7,7.7v.76a7.7,7.7,0,0,0,7.7,7.7h33.51a7.7,7.7,0,0,1,7.7,7.7v5.35a7.7,7.7,0,0,1-7.7,7.7H724.37a7.7,7.7,0,0,0-7.7,7.7v4.65a7.7,7.7,0,0,0,7.7,7.7h38.85a7.7,7.7,0,0,1,7.7,7.7v7.63a7.7,7.7,0,0,1-7.7,7.7H692.87a7.7,7.7,0,0,1-7.7-7.7V510A7.71,7.71,0,0,1,692.87,502.24Z"/><path d="M795.69,502.24h16a7.71,7.71,0,0,1,7.7,7.71v9.9a7.7,7.7,0,0,0,13.55,5L850,504.94a7.7,7.7,0,0,1,5.85-2.7H876a7.7,7.7,0,0,1,5.53,13.06l-20.34,21a7.7,7.7,0,0,0-1,9.38l28.48,46.51A7.7,7.7,0,0,1,882.05,604H861.8a7.7,7.7,0,0,1-6.85-4.19l-14.36-28a7.7,7.7,0,0,0-12.42-1.8l-6.62,6.94a7.69,7.69,0,0,0-2.13,5.32v14a7.7,7.7,0,0,1-7.7,7.7h-16a7.7,7.7,0,0,1-7.7-7.7V510A7.71,7.71,0,0,1,795.69,502.24Z"/><path class="cls-12" d="M165.07,382.13h16a7.7,7.7,0,0,1,7.7,7.7V410a7.7,7.7,0,0,0,7.7,7.7h18.94a7.7,7.7,0,0,0,7.7-7.7V389.83a7.7,7.7,0,0,1,7.7-7.7H247a7.7,7.7,0,0,1,7.7,7.7v86.3a7.7,7.7,0,0,1-7.7,7.7H230.84a7.7,7.7,0,0,1-7.7-7.7V450.39a7.7,7.7,0,0,0-7.7-7.7H196.5a7.7,7.7,0,0,0-7.7,7.7v25.74a7.7,7.7,0,0,1-7.7,7.7h-16a7.7,7.7,0,0,1-7.7-7.7v-86.3A7.7,7.7,0,0,1,165.07,382.13Z"/><path class="cls-12" d="M284.54,382.13h16.09a7.7,7.7,0,0,1,7.7,7.7v86.3a7.69,7.69,0,0,1-7.7,7.7H284.54a7.69,7.69,0,0,1-7.7-7.7v-86.3A7.7,7.7,0,0,1,284.54,382.13Z"/><path class="cls-12" d="M331.3,389.83a7.7,7.7,0,0,1,7.7-7.7h39q13.8,0,22.3,3.75a36.17,36.17,0,0,1,14,10.75,44.56,44.56,0,0,1,8.05,16.3,75.9,75.9,0,0,1,2.49,19.7q0,16.31-3.71,25.29A41.89,41.89,0,0,1,410.87,473a33.64,33.64,0,0,1-14.15,8.08A72.9,72.9,0,0,1,378,483.83H339a7.69,7.69,0,0,1-7.7-7.7Zm31.42,23V453a7.7,7.7,0,0,0,7.7,7.7h0q9.85,0,14-2.18a14.84,14.84,0,0,0,6.52-7.63q2.35-5.46,2.36-17.66,0-16.17-5.27-22.13t-17.49-6h-.14A7.7,7.7,0,0,0,362.72,412.86Z"/><path class="cls-12" d="M449,382.13h68.82a7.7,7.7,0,0,1,7.7,7.7v6.31a7.7,7.7,0,0,1-7.7,7.7H480.52a7.7,7.7,0,0,0-7.7,7.7v.77a7.7,7.7,0,0,0,7.7,7.7H514a7.7,7.7,0,0,1,7.7,7.7v5.34a7.7,7.7,0,0,1-7.7,7.7H480.52a7.7,7.7,0,0,0-7.7,7.7v4.65a7.7,7.7,0,0,0,7.7,7.7h38.85a7.7,7.7,0,0,1,7.7,7.7v7.63a7.69,7.69,0,0,1-7.7,7.7H449a7.69,7.69,0,0,1-7.7-7.7v-86.3A7.7,7.7,0,0,1,449,382.13Z"/><path class="cls-12" d="M148.81,592.21H124.59a7.7,7.7,0,0,0-7.38,5.52l-1.7,5.75a7.7,7.7,0,0,1-7.38,5.52H92.91a7.7,7.7,0,0,1-7.21-10.41l32.44-86.3a7.7,7.7,0,0,1,7.21-5H149a7.69,7.69,0,0,1,7.2,5l32.43,86.3A7.7,7.7,0,0,1,181.4,609H165.32a7.7,7.7,0,0,1-7.37-5.47l-1.78-5.85A7.69,7.69,0,0,0,148.81,592.21Zm-3.87-32-.77-2.5a7.7,7.7,0,0,0-14.73,0l-.76,2.5a7.7,7.7,0,0,0,7.37,9.94h1.53A7.7,7.7,0,0,0,144.94,560.26Z"/><path class="cls-12" d="M210.41,507.3H228a7.71,7.71,0,0,1,6.36,3.36l21.94,32.24a7.7,7.7,0,0,0,14.07-4.34V515a7.69,7.69,0,0,1,7.7-7.7h14.22A7.7,7.7,0,0,1,300,515v86.3a7.7,7.7,0,0,1-7.7,7.7H274.42a7.72,7.72,0,0,1-6.36-3.36l-21.73-31.86a7.7,7.7,0,0,0-14.06,4.34V601.3a7.7,7.7,0,0,1-7.7,7.7H210.41a7.7,7.7,0,0,1-7.7-7.7V515A7.7,7.7,0,0,1,210.41,507.3Z"/><path class="cls-12" d="M321.28,515a7.69,7.69,0,0,1,7.7-7.7h39q13.8,0,22.3,3.74a36.29,36.29,0,0,1,14.05,10.76,44.56,44.56,0,0,1,8.05,16.3,75.84,75.84,0,0,1,2.49,19.7q0,16.31-3.71,25.29a41.76,41.76,0,0,1-10.3,15,33.56,33.56,0,0,1-14.15,8.09A72.9,72.9,0,0,1,368,609H329a7.7,7.7,0,0,1-7.7-7.7Zm31.42,23V578.2a7.7,7.7,0,0,0,7.7,7.7h0q9.86,0,14-2.19a14.8,14.8,0,0,0,6.52-7.63q2.35-5.45,2.36-17.65,0-16.17-5.27-22.13t-17.49-6h-.14A7.7,7.7,0,0,0,352.7,538Z"/><path class="cls-12" d="M488.52,574.81l14.69-.92a7.76,7.76,0,0,1,7.82,5.43,17.08,17.08,0,0,0,2.68,5.26q4.86,6.18,13.87,6.18,6.74,0,10.38-3.16a9.5,9.5,0,0,0,3.64-7.32,9.35,9.35,0,0,0-3.47-7.08q-3.46-3.12-16.1-5.89-20.67-4.65-29.48-12.35a24.85,24.85,0,0,1-8.88-19.64,26.67,26.67,0,0,1,4.54-14.81q4.55-7,13.67-11t25-4q19.5,0,29.73,7.25a27.5,27.5,0,0,1,10,13.52,7.64,7.64,0,0,1-6.87,10.08l-14.54.85a7.77,7.77,0,0,1-7.5-4.84,12.56,12.56,0,0,0-3.47-4.8q-3.78-3.12-10.44-3.12-5.49,0-8.26,2.33a7.11,7.11,0,0,0-2.77,5.65,5.64,5.64,0,0,0,2.29,4.37q2.22,2,10.54,3.75,20.61,4.44,29.52,9t13,11.27a28.57,28.57,0,0,1,4.06,15.06,32.25,32.25,0,0,1-5.41,18,34,34,0,0,1-15.12,12.52q-9.72,4.26-24.49,4.27-26,0-35.94-10a37.7,37.7,0,0,1-9.51-15.88A7.75,7.75,0,0,1,488.52,574.81Z"/><path class="cls-12" d="M595.57,507.3h68.82a7.69,7.69,0,0,1,7.7,7.7v6.31a7.7,7.7,0,0,1-7.7,7.7H627.07a7.7,7.7,0,0,0-7.7,7.7v.77a7.7,7.7,0,0,0,7.7,7.7h33.51a7.7,7.7,0,0,1,7.7,7.7v5.34a7.7,7.7,0,0,1-7.7,7.7H627.07a7.7,7.7,0,0,0-7.7,7.7v4.65a7.7,7.7,0,0,0,7.7,7.7h38.85a7.7,7.7,0,0,1,7.7,7.7v7.63a7.7,7.7,0,0,1-7.7,7.7H595.57a7.7,7.7,0,0,1-7.7-7.7V515A7.7,7.7,0,0,1,595.57,507.3Z"/><path class="cls-12" d="M698.18,507.3H767a7.7,7.7,0,0,1,7.7,7.7v6.31A7.7,7.7,0,0,1,767,529H729.68a7.71,7.71,0,0,0-7.71,7.7v.77a7.71,7.71,0,0,0,7.71,7.7h33.5a7.69,7.69,0,0,1,7.7,7.7v5.34a7.7,7.7,0,0,1-7.7,7.7h-33.5a7.71,7.71,0,0,0-7.71,7.7v4.65a7.71,7.71,0,0,0,7.71,7.7h38.85a7.7,7.7,0,0,1,7.7,7.7v7.63a7.7,7.7,0,0,1-7.7,7.7H698.18a7.7,7.7,0,0,1-7.7-7.7V515A7.7,7.7,0,0,1,698.18,507.3Z"/><path class="cls-12" d="M801,507.3h16a7.7,7.7,0,0,1,7.7,7.7v9.9a7.7,7.7,0,0,0,13.55,5L855.33,510a7.71,7.71,0,0,1,5.85-2.69h20.1a7.7,7.7,0,0,1,5.54,13.05l-20.35,21a7.7,7.7,0,0,0-1,9.37l28.48,46.51A7.7,7.7,0,0,1,887.36,609H867.11a7.72,7.72,0,0,1-6.86-4.19l-14.35-28A7.7,7.7,0,0,0,833.48,575L826.85,582a7.69,7.69,0,0,0-2.13,5.32v14A7.7,7.7,0,0,1,817,609H801a7.7,7.7,0,0,1-7.7-7.7V515A7.7,7.7,0,0,1,801,507.3Z"/><path class="cls-6" d="M1143.56,946.83s3.59,25.83,4.6,29.2.69,13.05,8.18,36.21,19.87,19.26,19.87,19.26,13.65-4.39,8.56-18.35-13.41-34.77-13.41-34.77l8.82-3.41,10.85,18.4s20.08,31,32.8,28.74,21.55-7.16,14.54-20.08-28.47-33.31-28.47-33.31l-23.14-27L1179.24,929l-36.61,16.15Z"/><path d="M1232.49,1020.18a47.07,47.07,0,0,1-8.6,2.27c-12.8,2.32-32.32-27.62-33.15-28.9L1180,975.4l-8.22,3.17c1.08,2.71,8.59,21.61,13.28,34.46,1.57,4.29,1.55,8.14-.06,11.43-2.62,5.36-8.46,7.29-8.71,7.37s-12.8,3.74-20.31-19.48c-5.52-17.09-6.81-26.89-7.5-32.16a29.61,29.61,0,0,0-.68-4.06c-1-3.31-4.36-27.44-4.6-29.18l-1.09-2,37.24-16.42,7.68,13,23.1,26.92c.19.18,21.56,20.54,28.52,33.36,2.63,4.86,3.19,8.94,1.67,12.13C1239.1,1016.59,1236.54,1018.62,1232.49,1020.18Zm-61.59-42,9.43-3.63,11,18.64c.19.3,20.09,30.81,32.44,28.58,9-1.63,14.09-4.2,16-8.08,1.45-3,.91-6.78-1.65-11.5-6.91-12.73-28.2-33-28.41-33.22l-23.17-27-7.39-12.52-36,15.87.78,1.39v.07c0,.26,3.6,25.83,4.6,29.14a32.14,32.14,0,0,1,.7,4.17c.69,5.24,2,15,7.47,32,7.28,22.53,19.32,19.07,19.44,19s5.82-1.93,8.3-7c1.52-3.11,1.53-6.77,0-10.87-5-13.79-13.32-34.56-13.4-34.76Z"/><ellipse class="cls-7" cx="1134.46" cy="865.58" rx="103.54" ry="83" transform="translate(-235.48 466.22) rotate(-21.09)"/><circle class="cls-2" cx="1185.37" cy="841.02" r="46.82"/><path d="M1202.35,885.07a47.21,47.21,0,1,1,27.06-61A47.26,47.26,0,0,1,1202.35,885.07Zm-33.7-87.38a46.44,46.44,0,1,0,60,26.62A46.5,46.5,0,0,0,1168.65,797.69Z"/><circle class="cls-13" cx="1183.7" cy="843.31" r="43.54"/><circle cx="1178.51" cy="850.35" r="35.2"/><circle class="cls-2" cx="1164.68" cy="841.83" r="12.92"/><circle class="cls-2" cx="1080.8" cy="883" r="46.82"/><path d="M1037.47,899.71a46.36,46.36,0,0,1,2.57-38.93l-.51-.65a47.11,47.11,0,0,0,23.35,66.51c.12-.23.23-.46.34-.69A46.32,46.32,0,0,1,1037.47,899.71Z"/><path d="M1118.39,854.46l-.81.19a49.12,49.12,0,0,1,2.84,4.11,47.46,47.46,0,0,1,3.71,7.53A46.41,46.41,0,0,1,1063.22,926c-.11.23-.22.46-.34.69a47.18,47.18,0,0,0,55.51-72.18Z"/><path d="M1043.08,855.92a46.42,46.42,0,0,1,74.5-1.27l.81-.19a47.16,47.16,0,0,0-78.86,5.67l.51.65A46.38,46.38,0,0,1,1043.08,855.92Z"/><circle class="cls-13" cx="1083.56" cy="883.57" r="43.54"/><circle cx="1092.14" cy="885.3" r="35.2"/><circle class="cls-2" cx="1098.4" cy="865.63" r="12.92"/><line class="cls-9" x1="1114.63" y1="850.08" x2="1121.47" y2="851.03"/><line class="cls-9" x1="1228.28" y1="914.77" x2="1236.53" y2="936.16"/><path class="cls-14" d="M1147,955l38.4-14.8-1.45-2.62s-.7-.23-1.6-2.71c0,0-14.39,7.37-16.55,8.13s-17.92,6.19-20.12,6l1.58,1.89Z"/><polygon points="1146.67 965.69 1191.88 948.26 1186.49 941.98 1185.37 940.24 1146.97 955.04 1146.23 962.8 1146.67 965.69"/><polygon class="cls-14" points="1152.46 996.92 1213.99 973.18 1209.68 968.89 1191.83 948.27 1146.62 965.71 1147.48 971.05 1148.13 974.36 1148.44 975.95 1150.71 989.92 1152.28 997 1152.46 996.92"/><path class="cls-6" d="M1148.94,948.25s2.17,22.57-.12,27.53-3.3,7.86-8.42,8.79-6.67-8.83-6.67-8.83.67-9.87,2.64-13.08,6.22-13.4,6.22-13.4Z"/><path d="M1149.17,947.92l0,.38c.09.92,2.15,22.7-.13,27.65l-.41.9c-2.1,4.58-3.25,7.11-8.16,8a3.87,3.87,0,0,1-3.21-.86c-2.87-2.3-3.8-8-3.84-8.27v-.06c0-.41.69-10,2.67-13.18s6.16-13.28,6.21-13.38l0-.09ZM1137,983.06a5.38,5.38,0,0,0,.55.52,3.29,3.29,0,0,0,2.73.71c4.71-.85,5.84-3.31,7.88-7.78l.41-.9c2.07-4.5.4-24,.13-27l-5.89.94c-.44,1-4.34,10.31-6.19,13.33s-2.57,12.35-2.62,13C1134.07,976.23,1134.89,980.77,1137,983.06Z"/><path class="cls-6" d="M1181.17,935.82s13.55,18.18,18.57,20.32,7.73,3.61,12.15.85-1-11-1-11-7.13-6.87-10.75-7.92-13.61-5.76-13.61-5.76Z"/><path d="M1186.54,932l.09,0c.1,0,10,4.71,13.58,5.74s10.54,7.69,10.83,8l0,0c.14.21,3.29,5.08,2.71,8.71a3.92,3.92,0,0,1-1.8,2.8c-4.23,2.64-6.78,1.54-11.41-.45l-.91-.39c-5-2.14-18.11-19.66-18.66-20.4l-.23-.31Zm24.21,14.25c-.44-.42-7.21-6.85-10.64-7.85s-12.52-5.24-13.54-5.72l-5,3.26c1.81,2.4,13.69,18,18.25,19.94l.91.39c4.51,1.95,7,3,11.06.48a3.24,3.24,0,0,0,1.54-2.36,4.77,4.77,0,0,0,.06-.76C1213.42,950.48,1211,946.57,1210.75,946.21Z"/><path d="M1137.39,906.67c5.8-.82,17.66-3.28,26.91-10.29a1.48,1.48,0,0,1,2.45,1c0,5.84-1,18.29-8,20.59s-17.34-5-22.22-8.77A1.46,1.46,0,0,1,1137.39,906.67Z"/><path class="cls-15" d="M1148.5,916.61c1.85.78,7.36,3.26,11.45,1s5-7.15,5.72-9.78a9.49,9.49,0,0,0,.32-1.57c-.15-1.74-4,2.92-7.61,5-.31.17-1.78.89-2.17,1-3.72,1.59-10.58,1.31-10.14,3C1146.19,915.63,1147.29,916.1,1148.5,916.61Z"/><path class="cls-14" d="M1033.41,882l43.14-35.92s-.93-7.69,1.92-11.37l5.46,7.5,13.32-9.57s-4.25-10.68,1.48-16.26l7.79,13.11,20-8.57s2.81-13.19,3.77-18.06,16.93,9.82,16.93,9.82l17.86-4.13s-1.12-5.81-1.4-9.49,15.6,7.46,15.6,7.46l32.71-5.35s-12.12-11.87-36.88-18.55c-20-5.39-49.7-3.75-72.67,6.37-47.41,20.9-55.31,44.8-55.31,44.8A95.42,95.42,0,0,0,1033.41,882Z"/><path d="M1033,883v-1a97,97,0,0,1,13.71-48.42c.5-1.38,9.66-24.79,55.55-45,21.61-9.52,51.63-12.16,73-6.4,24.59,6.64,37,18.55,37.08,18.67l.66.64-33.8,5.53-.15-.11c-6.39-4.49-13.66-8.74-14.84-8.08,0,0-.05.12,0,.2.27,3.62,1.38,9.38,1.39,9.44l.09.44L1147,813.2l-.18-.17c-4.89-4.5-13.48-11.37-15.72-10.63-.16.05-.35.16-.43.56-1,4.82-3.75,17.93-3.78,18.07l-.05.23-20.54,8.83-7.69-12.94c-4.82,5.41-1,15.23-1,15.33l.13.33-14,10.05-5.35-7.34C1076.22,839.17,1077,846,1077,846l0,.25Zm73.55-95.2c-1.34.52-2.64,1.05-3.92,1.62-46.63,20.55-55,44.28-55.06,44.51l-.06.12a95.92,95.92,0,0,0-13.57,47l42.17-35.13c-.13-1.39-.62-8,2-11.45l.38-.49,5.56,7.63,12.65-9.1c-.69-1.92-3.65-11.19,1.71-16.42l.42-.41,7.89,13.27,19.36-8.32c.38-1.79,2.84-13.36,3.72-17.82a1.54,1.54,0,0,1,1-1.26c3.37-1.1,14.48,8.85,16.46,10.66l17.19-4c-.26-1.42-1.09-6-1.32-9.1a1.06,1.06,0,0,1,.5-1.08c2.13-1.21,12.34,5.69,15.68,8l31.57-5.16c-2.91-2.54-14.9-12.12-36-17.81C1155,777.7,1127.54,779.7,1106.5,787.81Z"/><path class="cls-16" d="M1088.88,796.8h0c-1.9,1.23-14.82,11-15.89,8-1.18-3.4,2.46-15.07,13.49-18.78,1.28-.43,2.2-.84,3.27-1.29a14.92,14.92,0,0,0,3.51-1.9l.42-.34c.07-.06.12-.15.2-.2,3.15-2.14,4.12-2.32,9.12-3a2.13,2.13,0,0,1,.25,0l2.13-.05h.25a14.43,14.43,0,0,1,4.19.64c.52.13,9.07,2.63,8.85,3.26-1.68,4.92-8.39,4.64-11.65,5.83-4.49,1.63-7.79,3.27-18.14,7.89"/><path class="cls-14" d="M1082.57,787.65s-13.59-23,3.57-37.92a20.51,20.51,0,0,1,17.27-4.51c10.47,2,41,28.66,30.15,26.45-36.83-7.53-39.28,10.41-39.28,10.41Z"/><path d="M1135.52,772.12a3.77,3.77,0,0,1-2,0c-19.12-3.9-28.69-.8-33.35,2.49s-5.38,7.49-5.39,7.53l0,.25-.23.1-12.08,5.76-.21-.37c-.14-.23-13.59-23.55,3.66-38.5a20.86,20.86,0,0,1,17.66-4.62c8.52,1.6,30.66,19.57,32.66,25.38a1.57,1.57,0,0,1-.14,1.64A1.27,1.27,0,0,1,1135.52,772.12Zm-31.49-.6c5.69-2.2,14.9-3.31,29.62-.31,1,.21,1.54.12,1.68,0s.08-.38,0-.72c-1.68-4.88-23.19-23.13-32-24.78a20,20,0,0,0-16.89,4.41c-15.49,13.42-5.29,34-3.67,37l11.09-5.28a13.47,13.47,0,0,1,5.69-7.89A20,20,0,0,1,1104,771.52Z"/><path class="cls-6" d="M1128.74,591.31s-5.48,23.38-5.72,26.62-3.73,11.44-5,33.82,10.7,23.14,10.7,23.14,13.18.74,13.43-12.94,0-34.32,0-34.32h8.7l3.24,19.4s7,33.33,18.65,35.57,20.9,1,19.16-12.44-13.44-38.06-13.44-38.06l-10.94-30.84-2.24-13.43-36.81,1.74Z"/><path d="M1180.84,683.81a43.79,43.79,0,0,1-8.14-.9c-11.76-2.25-18.62-34.45-18.9-35.82L1150.6,628h-8.11c0,2.68.23,21.41,0,34-.08,4.21-1.37,7.5-3.84,9.8-4,3.73-9.69,3.46-9.93,3.44s-12.24-1-11-23.46c.92-16.52,3.06-25.37,4.22-30.13a30,30,0,0,0,.76-3.71c.24-3.17,5.34-25,5.71-26.6l-.29-2,37.45-1.77,2.29,13.71L1178.79,632c.1.21,11.72,24.79,13.44,38.12.66,5-.21,8.74-2.58,11C1187.72,682.91,1184.85,683.81,1180.84,683.81Zm-39-56.5h9.3l3.27,19.67c.07.31,7.06,33.13,18.4,35.3,8.3,1.59,13.5,1.06,16.39-1.65,2.24-2.11,3-5.53,2.39-10.43-1.71-13.23-13.29-37.71-13.4-38l-11-30.87L1165,588.16l-36.18,1.71.21,1.45v.06c-.06.24-5.47,23.4-5.72,26.57a27.13,27.13,0,0,1-.77,3.81c-1.15,4.74-3.28,13.55-4.2,30-1.21,21.77,10.28,22.79,10.4,22.8s5.64.27,9.46-3.29c2.33-2.17,3.56-5.31,3.63-9.33.25-13.52,0-34.11,0-34.32Z"/><polygon class="cls-17" points="1119.79 637.3 1180.53 637.29 1178.25 632.18 1169.74 608.54 1125.11 608.54 1124.08 613.42 1123.54 616.47 1123.29 617.95 1120.6 630.7 1119.6 637.3 1119.79 637.3"/><polygon points="1161.4 668.87 1191.48 669.38 1191.81 671.73 1169.53 671.19 1162.49 671.19 1161.4 668.87"/><polygon points="1118.37 660 1142 660.63 1141.93 662.97 1124.74 662.56 1118.83 662.73 1118.37 660"/><path d="M1118.82,662.44l23,.23s.26,11.14-11.63,12.07C1130.21,674.74,1121.86,675.76,1118.82,662.44Z"/><path d="M1162.36,670.9l29.45.83s2.46,10.46-9.43,11.39A20.11,20.11,0,0,1,1171.7,682,17.12,17.12,0,0,1,1162.36,670.9Z"/><path class="cls-6" d="M1126.43,662.44s1.09,4.25,3.82,3.93,3.06-3.93,3.06-3.93Z"/><path class="cls-6" d="M1173.91,670.6s2.12,4.68,4.87,4.54,4.16-4.54,4.16-4.54Z"/><polygon points="1119.58 637.17 1180.53 637.29 1180.66 637.59 1119.58 637.59 1119.58 637.17"/><polygon points="1125.14 608.63 1169.96 608.63 1167.41 601.45 1167.02 599.58 1127.16 599.58 1125.72 606 1125.14 608.63"/><path class="cls-17" d="M1127.16,599.58h39.78l-.66-3.5s-.14-1.49-.46-3.18a25.26,25.26,0,0,1-.68-4.08S1148.05,592.1,1146,592c-1.67,0-10.18.44-14.6.25a8.84,8.84,0,0,1-2.46-.25l-.88,3.81-.14.61-.27,1.21Z"/><ellipse class="cls-7" cx="1150.63" cy="512.85" rx="95.36" ry="76.45" transform="translate(-107.47 448.41) rotate(-21.09)"/><circle class="cls-2" cx="1190.29" cy="496.77" r="52.07"/><path d="M1190.29,549.27a52.5,52.5,0,1,1,52.5-52.5A52.56,52.56,0,0,1,1190.29,549.27Zm0-104.14a51.65,51.65,0,1,0,51.65,51.64A51.69,51.69,0,0,0,1190.29,445.13Z"/><ellipse class="cls-2" cx="1089.62" cy="533.85" rx="29.85" ry="46.32" transform="translate(-113.78 378.6) rotate(-18.75)"/><path d="M1098.13,579.17c-14.34,0-30-14.44-37.18-35.59-8.29-24.4-2.16-48.62,13.65-54s35.41,10.12,43.69,34.53h0c8.29,24.4,2.17,48.62-13.64,54A20.15,20.15,0,0,1,1098.13,579.17Zm-17-89.8a19.48,19.48,0,0,0-6.27,1c-15.37,5.21-21.25,29-13.11,52.91s27.24,39.21,42.61,34,21.25-29,13.12-52.92h0C1110.43,503.61,1095.11,489.37,1081.14,489.37Z"/><circle class="cls-17" cx="1193.38" cy="494.9" r="48.42"/><circle cx="1193.08" cy="495.18" r="39.14"/><circle class="cls-2" cx="1195.87" cy="496.74" r="14.37"/><path class="cls-17" d="M1116.48,522.72c2.33,6.87,4,13.53,4.14,19.8,0,1.38.93.79.53,5.2-.2,2.19-.5,4.62-.7,6-.62,4-.8,5-2.41,8a19.53,19.53,0,0,1-2.74,3.76c-2,2.38-6.44,4.52-9.3,5.49-13.3,4.51-30.17-9.78-37.69-31.92s-2.82-43.75,10.48-48.26S1109,500.58,1116.48,522.72Z"/><path d="M1116.6,521.94c.23.67,2.81,5.23,2.54,10.12a16.68,16.68,0,0,1-.09-2.47c.21.51.82,3.83,1.09,5.08.94,4.39,1.66,7.28,1.4,8.85a26.65,26.65,0,0,1-1.92,7,47,47,0,0,1-3.41,5.34,26.68,26.68,0,0,1-2.35,3.28c-1.74,2.08-5.54,3.93-8,4.76-11.47,3.89-26.1-8.69-32.69-28.1s-2.64-38.3,8.83-42.19c8.4-2.85,18.52,3.15,25.91,14.21C1110.6,511.86,1114.84,516.76,1116.6,521.94Z"/><ellipse class="cls-2" cx="1102.89" cy="530.93" rx="11.62" ry="12.59"/><path class="cls-18" d="M1242.73,496.43c0,13.79-21.71-4.05-46.86-3.51-27.21.58-58,18.43-58,3.51,0-28.71,23.47-52,52.43-52S1242.73,467.72,1242.73,496.43Z"/><path d="M1145,502.79a8.88,8.88,0,0,1-5.48-1.42,5.89,5.89,0,0,1-2-4.94c0-28.9,23.72-52.41,52.86-52.41s52.86,23.51,52.86,52.41c0,2.32-.6,3.89-1.82,4.78-2.79,2-8.28.28-15.88-2.16-8.26-2.65-18.54-5.95-29.57-5.71-10.76.23-22,3.15-31.88,5.72C1156.29,501.07,1149.67,502.79,1145,502.79Zm45.34-57.92c-28.68,0-52,23.13-52,51.56a5,5,0,0,0,1.71,4.26c3.61,2.8,13,.37,23.79-2.45,10-2.59,21.22-5.52,32.08-5.75,11.16-.24,21.53,3.08,29.85,5.75,7.08,2.27,12.68,4.06,15.11,2.29,1-.73,1.48-2.07,1.48-4.1C1242.3,468,1219,444.87,1190.29,444.87Z"/><path class="cls-19" d="M1117,520.58c2.06,6.06-15.65.57-27.36,4.54-11.34,3.85-27.09,24.54-29.34,17.91-8.23-24.22-2.24-48.15,13.38-53.45S1108.76,496.36,1117,520.58Z"/><path d="M1166.23,551.21c3.35,7.76,2.21,21.26-12.6,27.64s-26.7-1.83-30-9.59,6.39-4.6,21.19-11S1162.89,543.45,1166.23,551.21Z"/><path class="cls-15" d="M1162.43,571.53c.82,1.92-4.22,5.35-8.71,7.28s-10,3-10.78,1.11,3.31-6.12,7.8-8S1161.6,569.62,1162.43,571.53Z"/><path class="cls-20" d="M1058.22,512.59s-1.93,11.35-.47,20.22c.58,3.54,2.55,8,3.52,11.35.25.87.71,1.92.9,2.45s.43,1,.78,1.9c4.15,10.18,11.63,24.21,30.82,33.92a81.12,81.12,0,0,0,7.6,3.4,92,92,0,0,0,10.8,3.46s3.2.89,7.66,1.66c2.54.44,5.34.8,8.74,1.07l-4,16.62-2,10.63-2.84,13.7a145.37,145.37,0,0,0-1.69,16.84,68.82,68.82,0,0,0,1,15.19s-13.45,1.27-20.85-4.17S1100,648,1100,648s-15.23,2-22.2-2-8.51-7.9-7.83-11.32c1.67-8.4,12.72-10.45,16.49-13.32.44-.33,1.78-1.57,2.3-2.1,1.76-1.77,4.49-6.42,2.65-14.62-2.1-9.39-1.45-9.39-6.21-18.08a21.58,21.58,0,0,0-3.39-4.61l-19.41-20.2a54.71,54.71,0,0,1-9.14-14.26c-3.42-7.75-5.61-18.55-6.46-29.18,0,0-1.7-24.63,12.07-44.69,12.27-17.89,29.16-34.83,54.41-42.44s33.74-8.28,33.74-8.28,27-1.95,39.39,1.53,35.46,13,42.66,19.8c6.39,6,20,14.8,25.68,37.66s-4.13,51.26-4.13,51.26-7.43,28.1-10.24,33.77a36.32,36.32,0,0,0-3.32,18.34l.45,23.35s-.78,10.83-5.39,15.19c-5.39,5.07-4.73,9.3-13.43,10.39,0,0-.28,7-10.73,9.19s-14.7-.71-14.7-.71l-8.7,2.82-5.9-13.42-5.84-17.41L1168,601.21l-2.06-12.7c2.5-1,2.95-.73,4.6-1.27,2.76-.91,5.66-2.39,7.74-3.06,4.12-1.33,5.89-2.94,8.92-3.86a25.48,25.48,0,0,0,6.8-3.25,85.81,85.81,0,0,0,9-6c2.34-1.9,4.93-3.69,8.46-6.5a28,28,0,0,0,4.2-3.49c19.21-22.62,17.89-22.77,17.89-22.77s14.18-24.37,9.84-45.44c0,0-.59-12.13-13.89-20.48s-75.41,34.53-66.84,0c0,0-31.39,15.25-45.1-.62,0,0-4.33-5.88,1.54-19.79s13.51-13.37,13.51-13.37-29,7.6-44.25,41.12c-10.62,23.43-22.69,30.56-30.42,33.07"/><path class="cls-7" d="M1128.31,592.07c-2-.55-19.34-5.26-22.64-6.8,0,0-9-7.2-13-10.07s-10.36-.39-10.36-.39-5.38,2.24-2.77,7.35,8.12,8.47,8.12,8.47,9.81,4.67,17.1,4.63,20.25,1,21.87.53c1.39-.42,1.56-2.58,1.56-3.34C1128.18,592.33,1128.43,592.11,1128.31,592.07Z"/><path class="cls-21" d="M1142.35,661.49s2.61.38,7.31-4.32c0,0,4.44.72,6.27-2.07l-2.13-8.43-1.53-9.18-9.72,0Z"/><path d="M1142.5,661.81h-.2l-.27,0,.32-24.54,10.22.16,1.54,9.24,2.16,8.53-.07.12c-1.74,2.66-5.57,2.35-6.43,2.24C1145.75,661.49,1143.21,661.81,1142.5,661.81Zm.36-24.32-.19,23.67c.77-.06,3.13-.58,6.76-4.22l.12-.11.16,0s4.13.63,5.87-1.83l-2.09-8.28-1.55-9.26Z"/><path class="cls-6" d="M1165.27,590c.06,3.45.23,15.74.06,18.94a2.07,2.07,0,0,1-.11.55c-.52,1.6-3.29,10.09-4.34,13.89s2.28,5.87,3.06,6.31a2,2,0,0,0,.36.17c.83.28,4.13,1,7.26-3.12a28.57,28.57,0,0,0,4.68-10.07c0-.11,0-.21,0-.32.08-1.22.53-9-1.81-12.95-2.55-4.31-5.89-14.8-6.89-15.45a1.64,1.64,0,0,0-1.68.13A2.21,2.21,0,0,0,1165.27,590Z"/><path d="M1170.61,593.83a78.81,78.81,0,0,0,4.14,9.41c2.41,4.07,1.94,11.89,1.84,13.13a1.77,1.77,0,0,1,0,.32,28.9,28.9,0,0,1-4.72,10.16c-3.74,4.95-7.82,3.15-7.88,3.13s-4.58-2.36-3.37-6.72c1-3.75,3.8-12.19,4.35-13.87a2.45,2.45,0,0,0,.1-.54c.2-3.76-.07-19.64-.07-19.81V589l.35-.68a2.71,2.71,0,0,1,1.62-.77,1.23,1.23,0,0,1,.86.18l0,0C1168.35,588.15,1169.16,590.14,1170.61,593.83Zm-5,15.38v0c0,.1-3.28,10-4.43,14.15-1.1,3.94,2.89,6,3,6.09s3.63,1.6,7.07-3a28.12,28.12,0,0,0,4.62-9.93,1.86,1.86,0,0,0,.06-.34c.08-1.26.51-8.94-1.78-12.79A79,79,0,0,1,1170,594c-1-2.6-2.17-5.53-2.59-5.86h0a.49.49,0,0,0-.38-.08,1.18,1.18,0,0,0-.42.15,2.12,2.12,0,0,0-1,1.9C1165.65,593.89,1165.83,606.52,1165.62,609.21Z"/><rect class="cls-2" x="1134.82" y="1010.15" width="143.3" height="74.13" transform="translate(-180.12 253.74) rotate(-11.18)"/><rect x="1324.02" y="160.06" width="435.71" height="1239.89" rx="12.45" transform="translate(422.27 -536.15) rotate(22.78)"/><rect class="cls-2" x="1329.89" y="170.6" width="435.71" height="1239.89" rx="7.67" transform="translate(426.81 -537.6) rotate(22.78)"/><rect class="cls-21" x="1397.31" y="547.32" width="378.1" height="295.91" rx="6.55" transform="translate(392.93 -559.98) rotate(22.78)"/><rect class="cls-22" x="1529.37" y="234.18" width="378.1" height="295.91" rx="6.55" transform="translate(281.99 -635.54) rotate(22.78)"/><rect class="cls-3" x="1269.56" y="854.85" width="378.1" height="295.91" rx="6.55" transform="translate(502.04 -486.54) rotate(22.78)"/><rect class="cls-2" x="1120.16" y="671.07" width="143.3" height="29.47" transform="translate(-110.34 244.04) rotate(-11.18)"/><path class="cls-6" d="M1646.68,462.57s-10.86,27.86-11.74,31.81-6.61,13.45-12.08,40.83,9.12,30.4,9.12,30.4,16.12,3.24,18.83-13.59,6-42.32,6-42.32l10.73,1.54.58,24.48s2.72,42.32,16.74,47.14,25.59,4.9,25.8-12-9.86-49.28-9.86-49.28l-8.07-39.95-.4-17-45.69-4.33Z"/><path d="M1694.65,585.77a54,54,0,0,1-9.88-2.54c-14.1-4.84-16.9-45.74-17-47.48l-.57-24.17-10-1.42c-.43,3.31-3.49,26.44-6,41.93-.84,5.17-3,9-6.46,11.4-5.62,3.9-12.55,2.57-12.85,2.51s-14.91-3.42-9.43-30.87c4-20.2,8.24-30.74,10.49-36.4a33.34,33.34,0,0,0,1.59-4.44c.86-3.87,11-29.91,11.73-31.79v-2.56l46.48,4.4.41,17.31,8.06,39.88c.09.29,10.09,32.63,9.87,49.37-.08,6.34-1.8,10.74-5.12,13.07C1703.28,585.88,1699.59,586.48,1694.65,585.77Zm-38.14-76.52,11.46,1.64.59,24.83c0,.4,2.86,42.09,16.47,46.76,10,3.42,16.46,3.69,20.49.84,3.14-2.21,4.71-6.27,4.78-12.43.22-16.61-9.74-48.84-9.84-49.16l-8.08-40-.4-16.67-44.9-4.25v1.82l0,.07c-.11.28-10.86,27.88-11.72,31.75a35.6,35.6,0,0,1-1.63,4.57c-2.24,5.63-6.43,16.13-10.45,36.26-5.32,26.62,8.67,29.9,8.81,29.93s6.9,1.32,12.24-2.39c3.26-2.26,5.32-5.92,6.12-10.87,2.68-16.62,6-42.05,6-42.31Z"/><ellipse class="cls-7" cx="1683.05" cy="376.12" rx="95.2" ry="118.76" transform="translate(1073.01 1989.18) rotate(-81.88)"/><circle class="cls-2" cx="1747.76" cy="380.04" r="53.71"/><path d="M1740.11,433.64a54.15,54.15,0,1,1,61.25-46A54.21,54.21,0,0,1,1740.11,433.64Zm15.17-106.34a53.27,53.27,0,1,0,45.21,60.26A53.34,53.34,0,0,0,1755.28,327.3Z"/><circle class="cls-23" cx="1744.81" cy="381.39" r="49.94"/><circle cx="1735.67" cy="385.53" r="40.37"/><circle class="cls-2" cx="1726.6" cy="369.26" r="14.82"/><circle class="cls-2" cx="1619.57" cy="363.53" r="53.71"/><path d="M1566.84,356a53.2,53.2,0,0,1,24.36-37.54c0-.31-.09-.62-.14-.94a54,54,0,0,0-13.85,79.66c.25-.16.49-.33.73-.5A53.1,53.1,0,0,1,1566.84,356Z"/><path d="M1673.18,356l-.92-.25a51.85,51.85,0,0,1,0,15.31,53.23,53.23,0,0,1-94.37,25.64c-.24.17-.48.34-.73.5a54.11,54.11,0,0,0,96-41.2Z"/><path d="M1597,315.31a53.23,53.23,0,0,1,75.29,40.43l.92.25a54.09,54.09,0,0,0-82.12-38.46c0,.32.1.63.14.94A56.53,56.53,0,0,1,1597,315.31Z"/><circle class="cls-23" cx="1622.02" cy="365.65" r="49.94"/><circle cx="1629.64" cy="372.18" r="40.37"/><circle class="cls-2" cx="1646.92" cy="356" r="14.82"/><line class="cls-9" x1="1671.87" y1="349.51" x2="1678.18" y2="354.29"/><path class="cls-16" d="M1643.7,472.44l48.52,6.92,0-3.43s-.58-.62-.09-3.61c0,0-18.52-.67-21.11-1.11s-23.06-4.07-25.16-5.49l-.94,2.44Z"/><polygon points="1639.24 483.19 1694.26 491.04 1692.38 481.74 1692.22 479.36 1643.32 472.39 1640.41 480.04 1639.24 483.19"/><polygon class="cls-16" points="1627.56 517.7 1702.44 528.36 1700.53 521.66 1694.19 491.03 1639.18 483.18 1637.05 489.01 1635.85 492.68 1635.27 494.45 1629.72 509.71 1627.33 517.67 1627.56 517.7"/><polygon points="1673.31 563.93 1710.31 569.86 1710.3 572.81 1682.92 568.23 1674.25 566.99 1673.31 563.93"/><polygon points="1621.82 545.43 1650.84 550.36 1650.34 553.24 1629.22 549.71 1621.9 548.88 1621.82 545.43"/><path d="M1622,548.52l28.33,4.33s-1.63,13.78-16.45,12.84C1633.83,565.69,1623.34,565.48,1622,548.52Z"/><path d="M1674.13,566.6l36.17,6.21s1.19,13.33-13.63,12.39a25.09,25.09,0,0,1-13-3.31A21.36,21.36,0,0,1,1674.13,566.6Z"/><path class="cls-6" d="M1631.32,549.86s.6,5.43,4,5.51,4.47-4.3,4.47-4.3Z"/><path class="cls-6" d="M1688.43,568.27s1.79,6.14,5.2,6.45,5.93-4.86,5.93-4.86Z"/><polygon points="1627.32 517.5 1702.44 528.36 1702.55 528.76 1627.25 518.02 1627.32 517.5"/><path class="cls-23" d="M1572.69,336,1636,324.2s3.38-8.22,8.28-10.31l1.28,10.57,18.69-2.13s1.72-13.07,10.57-15.45l.47,17.49L1700,327s10.2-11.62,13.89-16,11.44,19.3,11.44,19.3l20.2,5.86s2.13-6.44,3.91-10.29,11.45,16.21,11.45,16.21L1796.66,355s-5.49-18.66-26.54-39.22c-17-16.56-47.65-31.56-76.31-34.28-59.17-5.63-80.45,13.88-80.45,13.88S1588.51,308.07,1572.69,336Z"/><path d="M1571.92,336.25l.56-1c15.34-27.09,39.44-40.07,40.83-40.8,1.27-1.1,23.55-19.41,80.8-14,27,2.57,58.5,16.73,76.64,34.44,20.91,20.41,26.62,39.26,26.68,39.45l.29,1L1760.8,342l-.1-.19c-3.88-8.07-8.81-16.41-10.33-16.4-.06,0-.11.1-.15.18-1.75,3.78-3.87,10.17-3.89,10.23l-.16.49-21-6.08-.09-.27c-2.37-7.24-7.14-18.93-9.79-19.45a.71.71,0,0,0-.74.33c-3.65,4.29-13.79,15.85-13.9,16l-.18.21L1675,324.34l-.45-17.25c-7.86,2.72-9.53,14.68-9.54,14.81l-.06.41-19.62,2.23-1.25-10.35c-4.3,2.39-7.32,9.63-7.35,9.71l-.11.27-.29.05Zm126.92-54.14q-2.44-.35-4.83-.57c-58.18-5.53-79.83,13.55-80,13.75l-.12.08A109.94,109.94,0,0,0,1574,334.78l61.89-11.55c.64-1.48,3.85-8.37,8.45-10.33l.65-.28,1.3,10.75,17.76-2c.38-2.31,2.6-13.24,10.9-15.47l.65-.18.47,17.69,24,2.51c1.38-1.58,10.32-11.78,13.7-15.75a1.81,1.81,0,0,1,1.76-.68c4,.78,9.53,17,10.5,19.89l19.44,5.64c.54-1.57,2.28-6.64,3.77-9.85a1.22,1.22,0,0,1,1.11-.8h.16c2.89.41,9,12.66,11,16.79l34.5,12.51c-1.49-4.17-8.13-20.47-26-38C1753.09,299.17,1724.45,285.77,1698.84,282.11Z"/><path class="cls-23" d="M1572.23,335.76h0a111.23,111.23,0,0,1,40.82-40.8c1.28-1.1,23.55-19.41,80.81-14,27,2.56,58.49,16.72,76.63,34.43,20.91,20.42,26.63,39.27,26.68,39.45l.3,1-36.93-13.38-.09-.2c-3.89-8.06-8.78-16.39-10.33-16.39-.06,0-.12.09-.16.18-1.75,3.77-3.86,10.16-3.89,10.23l-.16.48-21-6.08-.09-.26c-2.38-7.25-7.14-18.93-9.79-19.46a.75.75,0,0,0-.75.33c-3.65,4.29-13.79,15.86-13.89,16l-.18.21-25.51-2.66-.46-17.26c-7.85,2.72-9.52,14.69-9.54,14.81l0,.41-19.62,2.24-1.25-10.35c-4.31,2.39-7.33,9.63-7.36,9.7l-.38-.46Zm126.35-53.14c-1.62-.23-3.23-.42-4.82-.58-58.19-5.53-79.83,13.56-80,13.75l-.11.08a110,110,0,0,0-39.88,39.42l61.88-11.56c.65-1.47,3.86-8.37,8.45-10.33l.66-.28,1.29,10.75,17.76-2c.38-2.31,2.61-13.25,10.91-15.48l.65-.17.46,17.69,24,2.51c1.39-1.58,10.33-11.79,13.7-15.75a1.8,1.8,0,0,1,1.76-.69c4,.79,9.54,17,10.51,19.9l19.44,5.64c.53-1.58,2.28-6.64,3.77-9.86a1.23,1.23,0,0,1,1.11-.8c2.8,0,9.17,12.6,11.2,16.81l34.5,12.5c-1.49-4.17-8.13-20.47-26.06-38C1752.84,299.67,1724.19,286.27,1698.58,282.62Z"/><path d="M1572.71,335.83l-.48-.07c15.28-27,39.38-40.31,41-41.17,1.47-1.25,24.13-19.48,81.16-14.06,27.1,2.58,58.74,16.8,76.95,34.58,21,20.5,26.26,39.64,26.31,39.83l.3,1-37.2-13.47h0c-4.21-8.74-8.89-15.16-10.25-16-1.72,3.79-3.93,9.88-4,9.94l.19.38-21.31-6-.43-.55c-2.91-8.87-7.48-18.24-9.55-18.64,0,0-.09,0-.24.15-3.47,4.08-13.24,14.42-14.29,15.62l-.18.21-25.51-2.66-1-16.49c-7,3.06-8.49,14-8.5,14.11l-.11.82-20.56,2.35-1.21-10c-3.79,2.64-6.41,8.95-6.93,8.81l-1-.4Zm.47.26,3.26-.61ZM1699,283.21c-1.62-.23-3.23-.42-4.81-.57-57.73-5.49-79.42,13.42-79.63,13.61l-.17.13a109.16,109.16,0,0,0-39.13,38.24l60.46-11.29c.84-1.87,4.07-8.41,8.62-10.35l1.3-.55,1.32,10.93,16.84-1.92c.54-2.95,3-13.3,11.22-15.51l1.3-.35.47,17.9,23.3,2.43c2.62-3,10.42-11.9,13.52-15.54a2.35,2.35,0,0,1,2.26-.86c4.08.8,9.21,15.16,10.82,20l18.69,5.42c.66-1.92,2.25-6.46,3.63-9.43a1.76,1.76,0,0,1,1.58-1.11c2.92,0,8.48,10.49,11.59,16.91l33.22,12c-2.16-5.59-9-20.58-25.53-36.7C1753.15,300.31,1724.66,286.88,1699,283.21Zm62.41,58.93h0l-.1-.19A112.86,112.86,0,0,0,1754.8,330c3.07,4.79,6.4,11.68,6.62,12.12Zm-117.28-27.88c-4.1,2.22-7,8.47-7.55,9.75l-.11.26h0c0-.1,3.09-7.47,7.59-10Zm.62-.3,1.28,10.57,18.69-2.13c0-.12,1.7-12.4,9.89-15.24l.12,0c-7.55,2.49-9.61,12.8-10,14.89l-.07.39L1646,324.53Zm95.7,20.63,5.61,1.63c0-.05,1.11-3.35,2.38-6.62-1,2.57-1.89,5.15-2.22,6.14l-.16.48Zm-14.59-4.23-.09-.26a97.08,97.08,0,0,0-6.17-14.93A115.17,115.17,0,0,1,1725.86,330.36Zm-22.77-6.26h0Zm0,0h0Zm11.5-13.22a1.66,1.66,0,0,0-.18.19c-2.46,2.89-7.87,9.09-11.31,13,3.31-3.79,8.82-10.1,11.31-13A1.66,1.66,0,0,1,1714.6,310.87Zm36.1,14.58h0ZM1675.29,307l.11,4.18-.11-4.18Zm40.31,3.59h.06l.23.07-.22-.07-.17,0Zm-101.51-15.27a1.66,1.66,0,0,0-.2.16l-.09.06,0,0,.05,0A1.77,1.77,0,0,1,1614.09,295.27Zm126.07-.13c11.16,5.46,21.34,12.18,29.19,19.53A121,121,0,0,0,1740.16,295.14Zm-45.48-13.52-.38,0c-2.22-.22-4.39-.39-6.5-.53,2.11.14,4.28.31,6.49.53Z"/><path class="cls-23" d="M1752.82,292.55s14.27-27.17,39.14-19.41a23.55,23.55,0,0,1,14.82,14.12c4.4,11.39-3.21,57.27-7.59,45.37-14.9-40.46-33.87-32-33.87-32Z"/><path d="M1800.6,335.1h0c-.74-.13-1.35-.88-1.87-2.29-7.73-21-16.54-28.46-22.56-31s-10.55-.73-10.6-.71l-.26.12-13.15-8.47.23-.43c.15-.27,14.77-27.48,39.76-19.67a23.94,23.94,0,0,1,15.17,14.44c3.58,9.27-.58,41.71-5,47.18A1.83,1.83,0,0,1,1800.6,335.1Zm-28.69-35.61a18.74,18.74,0,0,1,4.59,1.3c6.23,2.63,15.31,10.26,23.18,31.65.42,1.13.82,1.57,1.06,1.61s.41-.15.68-.47c3.74-4.59,8.56-36.58,4.87-46.13a22.93,22.93,0,0,0-14.49-13.81c-22.46-7-36.32,15.34-38.27,18.73l11.85,7.64A13.71,13.71,0,0,1,1771.91,299.49Z"/><path class="cls-23" d="M1799.92,334.81a4.35,4.35,0,0,1-1.23-2c-7.73-21-16.54-28.46-22.56-31s-10.55-.73-10.6-.71l-.26.12L1765,301l-12.91-8.31.23-.43c.15-.27,14.77-27.47,39.76-19.67a23.94,23.94,0,0,1,15.17,14.44c3.58,9.27-.58,41.71-5,47.18a1.82,1.82,0,0,1-1.68.85A1.59,1.59,0,0,1,1799.92,334.81Zm-18.41-31.08c5.57,4.23,12.22,12.54,18.17,28.71.42,1.13.82,1.57,1.06,1.61s.41-.15.68-.47c3.74-4.59,8.56-36.58,4.87-46.13a23,23,0,0,0-14.49-13.81c-22.45-7-36.32,15.34-38.27,18.73l11.85,7.63c1.1-.4,5.39-1.63,11.12.79A23.42,23.42,0,0,1,1781.51,303.73Z"/><path d="M1800.52,335.63h0a1.93,1.93,0,0,1-.88-.39,4.77,4.77,0,0,1-1.41-2.24c-7.66-20.81-16.34-28.19-22.27-30.72s-10-.77-10.18-.7l-.51.23-13.8-8.88.45-.86c.15-.28,14.95-27.89,40.39-19.94a24.49,24.49,0,0,1,15.5,14.76c2,5.06,1.56,16.37.53,25.26-1,8.34-3,19.22-5.64,22.44A2.33,2.33,0,0,1,1800.52,335.63Zm.09-1.07h.06c.37.06.76-.17,1.16-.66,3-3.68,5.87-19.79,6.25-32.57-.11,3.37-.42,7.11-.91,11.1-1.06,8.48-3.17,18.82-5.34,21.47-.41.51-.8.73-1.18.66ZM1772,299a19,19,0,0,1,4.72,1.33,24.27,24.27,0,0,1,5.12,3h0c7.08,5.37,13.25,15.11,18.35,28.95a3.92,3.92,0,0,0,.62,1.2,1.53,1.53,0,0,0,.21-.22c3.69-4.53,8.43-36.15,4.78-45.6a22.34,22.34,0,0,0-14.15-13.49c-21.32-6.65-35,14-37.4,18.05l11.21,7.22A14.65,14.65,0,0,1,1772,299Zm10.92,6.6c4.84,4.28,10.32,11.75,15.39,24.72C1793.89,319,1788.72,310.69,1782.91,305.57Zm-30.09-13,12.5,8.05c.19-.08,4.55-1.87,10.56.51a14.78,14.78,0,0,0-10.32-.61l-.25.09ZM1787.14,272c-19.55-2.79-31.67,16-33.93,19.83,2.12-3.6,16.27-25.75,38.75-18.73a23.4,23.4,0,0,1,14.66,13.71A23.42,23.42,0,0,0,1792,273.13,31.24,31.24,0,0,0,1787.14,272Z"/><path class="cls-24" d="M1747,302.2h0c-2.34-1.11-19.7-7.79-17.37-10.67,2.59-3.2,16.18-6.69,26.45,1.82,1.2,1,2.15,1.65,3.23,2.41a17.14,17.14,0,0,0,4,2.28l.58.19c.1,0,.22,0,.32.08,4,1.78,4.75,2.62,8.45,7.07a2,2,0,0,1,.17.23l1.34,2a1.35,1.35,0,0,1,.15.26,16.41,16.41,0,0,1,1.91,4.47c.19.58,2.91,10.43,2.16,10.6-5.81,1.33-9.59-5.38-12.72-7.85-4.3-3.39-7.89-5.62-18.65-12.93"/><path class="cls-23" d="M1638.1,276.19S1632,246.11,1606,246.6a23.59,23.59,0,0,0-18.18,9.42c-7.42,9.71-12.93,55.89-5.4,45.68,25.62-34.68,41.48-21.28,41.48-21.28Z"/><path d="M1580.33,303.68a1.81,1.81,0,0,1-1.34-1.28c-2.75-6.5,2.32-38.8,8.35-46.7a24,24,0,0,1,18.6-9.63c26.17-.5,32.62,29.71,32.68,30l.09.48-15,4.45-.22-.19s-3.76-3.07-10.37-2.28-17,5.48-30.33,23.48c-.89,1.21-1.69,1.75-2.44,1.67Zm30.47-56.26a30.2,30.2,0,0,0-4.84-.29,22.91,22.91,0,0,0-17.77,9.21c-6.22,8.14-10.53,40.2-8.23,45.65.17.39.34.59.53.64s.75-.28,1.46-1.24c13.54-18.34,24.39-23.13,31.11-23.91,6.18-.73,10,1.66,10.9,2.35l13.51-4C1636.61,272.29,1630.46,250.23,1610.8,247.42Z"/><path class="cls-23" d="M1580.36,303.69c-.58-.07-1-.51-1.37-1.29-2.75-6.5,2.32-38.8,8.35-46.71a24,24,0,0,1,18.6-9.62c26.18-.5,32.62,29.71,32.68,30l.09.48L1624,280.93l-.28.08-.21-.18s-3.77-3.08-10.38-2.29-17,5.48-30.33,23.48a4.4,4.4,0,0,1-1.74,1.57A1.57,1.57,0,0,1,1580.36,303.69Zm32.7-26.21c6.18-.73,10,1.66,10.9,2.35l13.51-4c-.93-3.8-8-29.13-31.51-28.69a22.92,22.92,0,0,0-17.77,9.21c-6.21,8.14-10.53,40.2-8.23,45.65.17.39.36.62.53.64s.75-.28,1.46-1.24c10.24-13.87,18.94-20,25.48-22.49A23.53,23.53,0,0,1,1613.06,277.48Z"/><path d="M1580.25,304.21a2.29,2.29,0,0,1-1.75-1.6c-1.63-3.83-.56-14.85.85-23.12,1.5-8.83,4.28-19.8,7.57-24.12a24.48,24.48,0,0,1,19-9.83c26.64-.5,33.14,30.13,33.21,30.44l.19.95-15.73,4.67-.44-.37s-3.65-2.92-10-2.17-16.79,5.43-30,23.27a4.85,4.85,0,0,1-2,1.76,2,2,0,0,1-1,.12h0Zm.14-1.06h0a.88.88,0,0,0,.39-.05.88.88,0,0,1-.39.05Zm3.92-39.82c-4.24,12.4-7,33.75-4.84,38.86a2.37,2.37,0,0,0,.35.6,2.37,2.37,0,0,1-.35-.6C1577.6,297.77,1580,276,1584.31,263.33Zm26.34-15.39a29.44,29.44,0,0,0-4.68-.28,22.39,22.39,0,0,0-17.36,9c-6.15,8-10.43,39.74-8.16,45.12a1.81,1.81,0,0,0,.15.29,4.73,4.73,0,0,0,.92-1c8.76-11.87,17.42-19.49,25.72-22.66A24.18,24.18,0,0,1,1613,277a16.16,16.16,0,0,1,11.06,2.3l12.78-3.79C1635.71,271.22,1629.34,250.61,1610.65,247.94Zm-5.09,32.33c-7,3.29-14.27,9.8-21.66,19.4C1592.39,288.65,1599.73,283,1605.56,280.27Zm12.15-2.23a13.11,13.11,0,0,1,6.13,2.37h0l-.22-.16a14.61,14.61,0,0,0-9.86-2.32A17.91,17.91,0,0,1,1617.71,278Zm20.39-1.85-14.21,4.22,14.21-4.22Zm-27.28-29.3c19.64,2.8,26.09,24.62,27.09,28.5-1.22-4.78-8.61-29.23-32-28.79a23.38,23.38,0,0,0-17.74,8.85A23.38,23.38,0,0,1,1606,246.6,30.59,30.59,0,0,1,1610.82,246.89Z"/><path class="cls-24" d="M1642.82,287.35h0c2.56-.41,21.1-2,19.67-5.39-1.6-3.8-13.67-10.95-25.92-5.65-1.42.61-2.51,1-3.76,1.41a17.29,17.29,0,0,1-4.46,1.08l-.62,0a1.71,1.71,0,0,0-.32,0c-4.33.59-5.3,1.18-10.09,4.42l-.24.18-1.85,1.58a1.34,1.34,0,0,0-.21.2,16.47,16.47,0,0,0-3.09,3.76c-.34.51-5.71,9.2-5,9.57,5.2,2.91,10.7-2.48,14.4-4,5.07-2,9.15-3.18,21.52-7.19"/><path d="M1568.05,384.19c-.77-1.58-3.3-12-2.25-11.93,5.45.56,40.07,10.31,54,15.1,8.4,2.9,14.41,6.07,19.41,12,5.13,6.06,4.65,11.62,4,20-1.12,14-19.31,21.44-35.6,17.42S1576.1,400.8,1568.05,384.19Z"/><path class="cls-6" d="M1566.93,385.21c-.48-1.79-2.18-13-1.13-12.95,5.45.56,39,11.34,52.84,16.13,8.4,2.9,14.41,6.06,19.4,12,5.14,6.07,4.66,11.62,4,20-1.12,14-19.32,21.44-35.61,17.42S1571.7,403.05,1566.93,385.21Z"/><path d="M1790.85,415c1.18-1.3,6.53-10.63,5.49-10.82-5.39-1-41.35-1.3-56-.58-8.88.43-15.53,1.79-22,6.06-6.62,4.38-7.72,9.85-9.42,18.11-2.85,13.77,12.54,26,29.31,26.68S1778.47,428.72,1790.85,415Z"/><path class="cls-6" d="M1791.64,416.32c1-1.59,5.74-11.93,4.7-12.12-5.39-1-40.57,0-55.24.71-8.87.43-15.53,1.79-22,6.06-6.63,4.39-7.72,9.85-9.43,18.12-2.84,13.76,12.55,26,29.31,26.67S1782.07,432.11,1791.64,416.32Z"/><path class="cls-7" d="M1692.79,472.3s17.07-14.13,20-17c0,0,7.52-11.31,10.85-15.9s8.67-2.56,8.67-2.56,4.51,1.91,2.34,9.2a40.61,40.61,0,0,1-6.75,12.82s-8.19,8.11-14.3,9.49-18.9,7.29-20.26,7S1692.79,472.3,1692.79,472.3Z"/><path class="cls-7" d="M1645.39,466.58s-9.07-20.22-10.43-24.08c0,0-1.74-13.47-2.7-19.06s-6.63-6.13-6.63-6.13-4.89-.28-6.18,7.21a40.6,40.6,0,0,0,.39,14.49s3.75,10.9,8.62,14.84,13.73,14.9,15.09,15.2S1645.39,466.58,1645.39,466.58Z"/><path d="M1698.13,424.83c-1.12,7.88-8.67,18.17-23.7,16s-20.57-14.58-19.45-22.46,7.4-.56,22.43,1.58S1699.26,417,1698.13,424.83Z"/><path class="cls-15" d="M1685.09,439.3c-.27,1.94-6,2.22-10.57,1.57s-9.49-2.45-9.21-4.4,5.66-3.29,10.22-2.64S1685.37,437.35,1685.09,439.3Z"/><rect class="cls-2" x="1577.9" y="521.6" width="170.22" height="57.25" transform="translate(342.75 -600.98) rotate(22.78)"/><rect class="cls-21" x="1552.85" y="565.85" width="203.97" height="57.25" transform="translate(359.25 -594.36) rotate(22.78)"/><path class="cls-10" d="M456.92,148.24c-.1-.25-.21-.49-.31-.73s-.17-.37-.26-.55a1.05,1.05,0,0,1-.12-.21l0-.05c-.33-.41-.76-.73-1.12-1.11s-1.09-.76-1.72-1.16c-11.76-7.41-50.56-6.54-50.56-6.54-17.47-27.46-27.55-34.81-33-36.08a8.94,8.94,0,0,0-2.92.16l-.38.09a6.87,6.87,0,0,0-1.54.64l-.3.21-.14.1a2.58,2.58,0,0,0-.23.29c-9.15,7.15-17.69,48.1-17.69,48.1s-43.22,9.86-43.82,24.39,39.73,31,39.73,31,.25,49,10.36,51.68c12.34,3.26,37.33-22.88,39.09-24.74a3.43,3.43,0,0,1,1-1.26,3.47,3.47,0,0,1,1.41-.67,1.08,1.08,0,0,1,1,0c1,.56,2.08,1,3.13,1.51l.27.08a.5.5,0,0,1,.2.08c33.55,11.61,39.26,9.75,46.58,4.55s-9.17-49.42-9.17-49.42C456.11,158,458,156.73,456.92,148.24Z"/><path class="cls-11" d="M463.07,147.05c-.11-.24-.21-.49-.32-.73s-.16-.36-.26-.54a2.18,2.18,0,0,1-.12-.22l0-.05c-.33-.41-.75-.73-1.12-1.11s-1.08-.75-1.72-1.16c-11.76-7.41-50.56-6.53-50.56-6.53-17.47-27.47-27.54-34.82-33-36.09a9,9,0,0,0-2.92.16l-.37.09a7,7,0,0,0-1.54.65l-.3.2-.15.11a2.07,2.07,0,0,0-.22.29c-9.15,7.14-17.69,48.09-17.69,48.09s-43.22,9.86-43.83,24.39,39.74,31,39.74,31,.25,49,10.36,51.68c12.33,3.26,37.32-22.88,39.08-24.73a3.48,3.48,0,0,1,1.05-1.27,3.68,3.68,0,0,1,1.41-.67,1.11,1.11,0,0,1,1,0c1,.56,2.08,1,3.13,1.51l.27.08a.61.61,0,0,1,.2.09c33.56,11.6,39.26,9.74,46.58,4.54s-9.17-49.42-9.17-49.42C462.26,156.8,464.16,155.55,463.07,147.05Z"/><path d="M363.91,257.79a11.21,11.21,0,0,1-5,0c-10-2.65-10.69-47.15-10.73-51.82-4-1.68-40.33-17.17-39.73-31.36s39.67-23.79,43.9-24.78c.86-4.08,8.9-41,17.74-48a2.53,2.53,0,0,1,.22-.28l.22-.18a1,1,0,0,0,.19-.13l.13-.09a7.28,7.28,0,0,1,1.68-.7l.39-.1a9.35,9.35,0,0,1,3.09-.17c5.51,1.28,15.67,8.58,33.19,36.07,3.8-.07,39.2-.54,50.55,6.62.77.48,1.31.85,1.76,1.19.19.19.33.31.47.44a7.51,7.51,0,0,1,.74.75l.21.35q.15.28.27.57l.35.8V147c1,7.46-.37,9.52-13.14,29.29-2.1,3.23-4.49,6.94-7.24,11.23,1.42,3.86,16.26,44.55,8.9,49.77-7.93,5.63-14.41,6.8-47-4.49l-.1,0-.25-.08-.17-.06-.7-.33c-.81-.37-1.65-.75-2.46-1.2a.62.62,0,0,0-.56,0l-.13,0h0a3.08,3.08,0,0,0-1.2.58,3,3,0,0,0-.9,1.08l-.09.13C396.08,235.43,377,255.27,363.91,257.79Zm9.5-156.58-.26.05-.36.09a6.88,6.88,0,0,0-1.42.6l-.07,0-.22.15-.06,0c-.07.08-.13.17-.14.18l-.12.14c-8.9,6.95-17.42,47.39-17.51,47.8l-.06.31-.31.07c-.43.1-42.86,9.95-43.44,23.93s39,30.36,39.43,30.52l.3.13v.33c0,.12.08,12.38,1.39,24.79,2.16,20.52,5.87,25.69,8.61,26.41,12,3.16,36.88-22.79,38.54-24.54a3.85,3.85,0,0,1,1.16-1.37,4,4,0,0,1,1.55-.75,1.6,1.6,0,0,1,1.43.07c.77.43,1.6.81,2.39,1.17l.77.35.11,0a1.08,1.08,0,0,1,.3.11c33.77,11.68,39,9.61,46.08,4.6,5.77-4.09-4.79-36.64-9.34-48.84l-.09-.23.14-.21c2.8-4.39,5.25-8.17,7.37-11.45,12.55-19.43,13.9-21.51,13-28.56l-.28-.66c-.08-.17-.16-.35-.25-.52l-.11-.17a5.46,5.46,0,0,0-.63-.64c-.15-.15-.31-.29-.45-.44-.37-.27-.9-.62-1.63-1.09-11.5-7.25-49.9-6.47-50.29-6.46h-.28l-.15-.24c-17.43-27.4-27.38-34.63-32.66-35.86A8.66,8.66,0,0,0,373.41,101.21Z"/><path class="cls-10" d="M345.83,723.56c-.06-.16-.13-.32-.2-.47a3.78,3.78,0,0,0-.17-.35s-.07-.11-.07-.14l0,0a9.78,9.78,0,0,0-.72-.72c-.32-.24-.7-.49-1.11-.74C336,716.33,311,716.9,311,716.9c-11.24-17.69-17.73-22.42-21.22-23.23a5.65,5.65,0,0,0-1.88.1l-.24.06a4.58,4.58,0,0,0-1,.41l-.19.13-.09.07a1.5,1.5,0,0,0-.15.19c-5.89,4.6-11.39,31-11.39,31s-27.82,6.35-28.21,15.7,25.58,20,25.58,20,.16,31.55,6.67,33.27c7.94,2.1,24-14.73,25.16-15.92a2.24,2.24,0,0,1,.68-.82,2.47,2.47,0,0,1,.91-.43.7.7,0,0,1,.66,0c.66.36,1.34.65,2,1l.17,0a.31.31,0,0,1,.13.06c21.6,7.47,25.27,6.27,30,2.92s-5.9-31.81-5.9-31.81C345.31,729.83,346.54,729,345.83,723.56Z"/><path class="cls-11" d="M349.79,722.79c-.07-.15-.13-.31-.2-.47l-.17-.35a.87.87,0,0,1-.08-.14l0,0c-.22-.26-.49-.47-.72-.71s-.7-.49-1.11-.75c-7.57-4.77-32.55-4.21-32.55-4.21-11.25-17.68-17.74-22.41-21.23-23.23a5.92,5.92,0,0,0-1.88.1l-.24.06a4.53,4.53,0,0,0-1,.42l-.19.13-.1.07a1.16,1.16,0,0,0-.14.18c-5.89,4.6-11.39,31-11.39,31s-27.82,6.35-28.22,15.7,25.59,20,25.59,20,.16,31.54,6.67,33.27c7.94,2.1,24-14.73,25.16-15.93a2.37,2.37,0,0,1,.67-.81,2.31,2.31,0,0,1,.91-.43.7.7,0,0,1,.67,0c.65.36,1.34.66,2,1l.17,0,.13.05c21.61,7.48,25.28,6.28,30,2.93s-5.9-31.82-5.9-31.82C349.27,729.07,350.5,728.26,349.79,722.79Z"/><path d="M286,794.09a7.36,7.36,0,0,1-3.21,0c-6.46-1.71-6.89-30.36-6.91-33.37-2.59-1.07-26-11.05-25.58-20.18s25.54-15.32,28.26-16c.55-2.62,5.73-26.37,11.42-30.92l.14-.17.15-.12.12-.08.08-.06a4.41,4.41,0,0,1,1.08-.45l.26-.07a6.25,6.25,0,0,1,2-.11c3.54.83,10.08,5.53,21.36,23.23,2.45,0,25.24-.35,32.55,4.26.49.31.84.54,1.13.76l.3.29a5.43,5.43,0,0,1,.48.48l.13.22c.07.13.12.25.18.37l.22.52v0c.62,4.81-.24,6.13-8.46,18.86-1.35,2.08-2.9,4.47-4.67,7.23.92,2.48,10.47,28.68,5.74,32-5.11,3.63-9.28,4.38-30.28-2.89l-.07,0-.16-.05-.1,0-.46-.22c-.52-.23-1.06-.48-1.58-.77a.42.42,0,0,0-.36,0l-.09,0h0a1.85,1.85,0,0,0-.77.38,1.81,1.81,0,0,0-.58.69l-.06.08C306.66,779.69,294.36,792.46,286,794.09Zm6.12-100.81-.17,0-.23,0a4.07,4.07,0,0,0-.91.38l-.05,0-.14.09,0,0a.87.87,0,0,0-.09.12l-.07.09c-5.74,4.47-11.22,30.51-11.28,30.77l0,.2-.2,0c-.28.06-27.59,6.4-28,15.4s25.13,19.55,25.39,19.65l.2.08v.22c0,.07,0,8,.89,16,1.39,13.21,3.78,16.53,5.54,17,7.71,2,23.74-14.67,24.81-15.8a2.61,2.61,0,0,1,.75-.88,2.67,2.67,0,0,1,1-.49,1,1,0,0,1,.92.05c.5.28,1,.52,1.54.75l.5.23.06,0a.68.68,0,0,1,.2.07c21.74,7.52,25.12,6.18,29.67,3,3.71-2.63-3.09-23.59-6-31.44l-.06-.15.09-.14c1.81-2.82,3.38-5.25,4.75-7.37,8.08-12.5,8.95-13.85,8.37-18.38l-.19-.43-.15-.33-.07-.12a4,4,0,0,0-.41-.41,3.83,3.83,0,0,1-.29-.28c-.24-.17-.58-.4-1.05-.7-7.4-4.67-32.13-4.16-32.37-4.16h-.18l-.1-.16c-11.22-17.64-17.63-22.29-21-23.09A5.51,5.51,0,0,0,292.07,693.28Z"/><path class="cls-10" d="M250.11,246.09c-.07-.16-.13-.32-.2-.47a3.78,3.78,0,0,0-.17-.35s-.07-.11-.08-.14l0,0a9.78,9.78,0,0,0-.72-.72q-.49-.36-1.11-.75c-7.57-4.77-32.55-4.21-32.55-4.21C204,221.74,197.53,217,194,216.2a5.67,5.67,0,0,0-1.88.1l-.24.06a4.06,4.06,0,0,0-1,.41l-.19.13-.1.07a2.06,2.06,0,0,0-.14.19c-5.89,4.6-11.39,31-11.39,31s-27.82,6.35-28.21,15.7,25.58,20,25.58,20,.16,31.55,6.67,33.27c7.94,2.1,24-14.73,25.16-15.92a2.24,2.24,0,0,1,.68-.82,2.47,2.47,0,0,1,.91-.43.7.7,0,0,1,.66,0c.65.36,1.34.65,2,1l.18.05a.38.38,0,0,1,.13.06c21.6,7.47,25.27,6.27,30,2.92S237,272.1,237,272.1C249.59,252.36,250.82,251.56,250.11,246.09Z"/><path class="cls-11" d="M254.07,245.32l-.21-.47c-.05-.12-.1-.23-.16-.35a.87.87,0,0,1-.08-.14l0,0c-.22-.26-.49-.47-.73-.71s-.69-.49-1.1-.75c-7.57-4.77-32.55-4.21-32.55-4.21C208,221,201.48,216.25,198,215.43a5.92,5.92,0,0,0-1.88.1l-.24.06a4.34,4.34,0,0,0-1,.42l-.2.13-.09.07a1.16,1.16,0,0,0-.14.18c-5.89,4.6-11.39,31-11.39,31s-27.83,6.36-28.22,15.71,25.59,20,25.59,20,.16,31.54,6.67,33.27c7.94,2.1,24-14.73,25.16-15.93a2.37,2.37,0,0,1,.67-.81,2.19,2.19,0,0,1,.91-.43.7.7,0,0,1,.67,0c.65.36,1.33.66,2,1l.17.05.13.05c21.6,7.48,25.28,6.28,30,2.93s-5.9-31.82-5.9-31.82C253.55,251.6,254.77,250.79,254.07,245.32Z"/><path d="M190.23,316.62a7.41,7.41,0,0,1-3.22,0c-6.45-1.71-6.88-30.36-6.9-33.37-2.59-1.08-26-11.05-25.59-20.19s25.55-15.31,28.27-16c.55-2.62,5.73-26.37,11.42-30.92a1.33,1.33,0,0,1,.14-.17l.15-.12.12-.08.08-.06a4.26,4.26,0,0,1,1.08-.45l.25-.07a6.27,6.27,0,0,1,2-.11c3.55.83,10.09,5.53,21.37,23.23,2.45-.05,25.24-.35,32.55,4.26.49.31.83.54,1.13.76l.3.29a5.43,5.43,0,0,1,.48.48l.13.22.18.37.22.52v0c.62,4.8-.24,6.13-8.47,18.86-1.34,2.08-2.89,4.47-4.66,7.23.92,2.48,10.47,28.68,5.73,32-5.1,3.63-9.27,4.38-30.27-2.89l-.07,0-.16-.05-.1,0-.46-.22c-.52-.24-1.06-.48-1.58-.77a.42.42,0,0,0-.36,0l-.09,0h0a2,2,0,0,0-.77.37,1.91,1.91,0,0,0-.58.7l-.06.08C210.94,302.22,198.64,315,190.23,316.62Zm6.12-100.81-.17,0-.23.05a4.07,4.07,0,0,0-.91.38l0,0-.14.09,0,0a.87.87,0,0,0-.09.12l-.08.09c-5.73,4.47-11.22,30.51-11.27,30.77l0,.2-.2,0c-.28.06-27.59,6.4-28,15.4s25.13,19.55,25.39,19.65l.19.08V283c0,.07,0,8,.9,16,1.39,13.2,3.78,16.53,5.54,17,7.71,2,23.74-14.67,24.81-15.8a2.51,2.51,0,0,1,.75-.88,2.46,2.46,0,0,1,1-.49,1,1,0,0,1,.92.05c.5.28,1,.52,1.54.75l.49.22.07,0a.53.53,0,0,1,.2.07c21.73,7.52,25.12,6.18,29.66,3,3.71-2.64-3.08-23.59-6-31.44l-.06-.15.09-.14c1.8-2.82,3.38-5.25,4.75-7.37,8.08-12.5,9-13.85,8.37-18.38l-.19-.43c0-.11-.1-.22-.16-.33a1.33,1.33,0,0,1-.06-.12,5.28,5.28,0,0,0-.41-.41,3.83,3.83,0,0,1-.29-.28c-.24-.17-.58-.4-1.05-.7-7.41-4.67-32.13-4.16-32.38-4.16H219l-.09-.15c-11.22-17.64-17.63-22.29-21-23.09A5.51,5.51,0,0,0,196.35,215.81Z"/><path class="cls-10" d="M531.6,849.36l-.21-.47c0-.12-.1-.23-.16-.35a.87.87,0,0,1-.08-.14l0,0c-.22-.26-.49-.47-.72-.71s-.7-.49-1.11-.75c-7.57-4.77-32.55-4.21-32.55-4.21C485.5,825,479,820.29,475.52,819.47a5.92,5.92,0,0,0-1.88.1l-.24.06a4.34,4.34,0,0,0-1,.42l-.2.13-.09.07a1.16,1.16,0,0,0-.14.18c-5.89,4.6-11.39,31-11.39,31s-27.83,6.36-28.22,15.71,25.59,20,25.59,20,.16,31.54,6.67,33.27c7.94,2.1,24-14.73,25.16-15.93a2.28,2.28,0,0,1,.67-.81,2.19,2.19,0,0,1,.91-.43.7.7,0,0,1,.67,0c.65.36,1.33.66,2,1l.17.05.13,0c21.6,7.47,25.28,6.28,30,2.93s-5.9-31.82-5.9-31.82C531.08,855.63,532.3,854.83,531.6,849.36Z"/><path class="cls-11" d="M535.55,848.6c-.06-.16-.13-.32-.2-.47s-.11-.24-.16-.35-.07-.11-.08-.14l0,0a9.78,9.78,0,0,0-.72-.72c-.32-.24-.7-.48-1.11-.74-7.57-4.78-32.55-4.21-32.55-4.21-11.24-17.68-17.73-22.42-21.22-23.23a5.65,5.65,0,0,0-1.88.1l-.24.06a4.58,4.58,0,0,0-1,.41l-.19.13-.09.07a1.5,1.5,0,0,0-.15.19c-5.89,4.6-11.39,31-11.39,31s-27.82,6.35-28.21,15.7,25.58,20,25.58,20,.16,31.55,6.67,33.27c7.94,2.1,24-14.73,25.16-15.92a2.13,2.13,0,0,1,.68-.81,2.34,2.34,0,0,1,.91-.44.7.7,0,0,1,.66,0c.66.36,1.34.66,2,1l.17.05a.31.31,0,0,1,.13.06c21.6,7.47,25.27,6.27,30,2.93s-5.91-31.82-5.91-31.82C535,854.87,536.26,854.07,535.55,848.6Z"/><path d="M471.72,919.89a7.12,7.12,0,0,1-3.22,0c-6.46-1.71-6.88-30.35-6.91-33.36-2.59-1.08-26-11-25.58-20.19s25.55-15.32,28.26-16c.56-2.63,5.73-26.38,11.43-30.92a1.12,1.12,0,0,1,.14-.18l.14-.12.13-.08.08-.05a4.68,4.68,0,0,1,1.08-.46l.25-.06a6,6,0,0,1,2-.11c3.55.83,10.09,5.52,21.37,23.22,2.44,0,25.23-.34,32.54,4.27.49.31.84.54,1.13.76l.31.29a4.29,4.29,0,0,1,.47.48l.14.22c.06.12.12.24.17.37l.23.51v0c.62,4.8-.24,6.13-8.46,18.85-1.35,2.08-2.89,4.47-4.66,7.24.92,2.48,10.47,28.67,5.73,32-5.11,3.62-9.27,4.38-30.28-2.89l-.06,0-.16,0-.11,0-.45-.21c-.53-.24-1.07-.49-1.58-.77a.36.36,0,0,0-.36,0l-.09,0h0a2.07,2.07,0,0,0-1.36,1.06l0,.09C492.43,905.5,480.13,918.27,471.72,919.89Zm6.11-100.8-.16,0-.23.06a4,4,0,0,0-.92.38l0,0a.71.71,0,0,1-.14.1l0,0a.45.45,0,0,0-.09.11l-.08.09c-5.73,4.48-11.22,30.51-11.27,30.78l-.05.2-.2,0c-.27.07-27.59,6.4-28,15.41S461.77,885.89,462,886l.2.08v.21c0,.08,0,8,.89,16,1.4,13.21,3.79,16.54,5.54,17,7.72,2,23.75-14.67,24.82-15.8a2.49,2.49,0,0,1,.75-.88,2.54,2.54,0,0,1,1-.48,1.05,1.05,0,0,1,.93,0c.49.27,1,.51,1.53.75l.5.22.07,0a.52.52,0,0,1,.19.08c21.74,7.51,25.13,6.18,29.67,2.95,3.71-2.63-3.08-23.59-6-31.44l-.05-.15.08-.13,4.75-7.38c8.08-12.5,9-13.84,8.37-18.38l-.18-.42c0-.11-.1-.23-.16-.34l-.07-.11a3.89,3.89,0,0,0-.4-.41l-.3-.28c-.24-.18-.57-.4-1-.7-7.4-4.67-32.12-4.17-32.37-4.16h-.18l-.1-.15c-11.22-17.65-17.63-22.3-21-23.09A5.52,5.52,0,0,0,477.83,819.09Z"/><path class="cls-10" d="M171.06,60.89c0-.1-.09-.2-.13-.29s-.07-.15-.1-.22a.26.26,0,0,1-.05-.09l0,0a6.25,6.25,0,0,0-.45-.44c-.2-.15-.43-.3-.69-.47-4.71-3-20.25-2.61-20.25-2.61-7-11-11-14-13.21-14.46a3.82,3.82,0,0,0-1.17.06l-.15,0a2.73,2.73,0,0,0-.61.26l-.12.08-.06,0-.09.12c-3.67,2.86-7.09,19.27-7.09,19.27s-17.31,4-17.56,9.77,15.92,12.42,15.92,12.42.1,19.63,4.15,20.7c5,1.31,15-9.17,15.66-9.91a1.37,1.37,0,0,1,.42-.51,1.29,1.29,0,0,1,.57-.26.43.43,0,0,1,.41,0c.41.22.83.41,1.25.61l.11,0a.19.19,0,0,1,.08,0c13.44,4.65,15.73,3.91,18.66,1.82s-3.67-19.79-3.67-19.79C170.73,64.79,171.5,64.29,171.06,60.89Z"/><path class="cls-11" d="M173.52,60.41c0-.09-.08-.19-.13-.29l-.1-.22,0-.08,0,0c-.13-.17-.3-.29-.44-.45l-.69-.46c-4.71-3-20.26-2.62-20.26-2.62-7-11-11-14-13.2-14.45a3.52,3.52,0,0,0-1.17.06l-.15,0a2.6,2.6,0,0,0-.62.25l-.12.09-.06,0-.09.11c-3.67,2.87-7.09,19.27-7.09,19.27S112,65.63,111.78,71.45s15.91,12.42,15.91,12.42.1,19.63,4.16,20.7c4.94,1.31,15-9.16,15.65-9.91a1.44,1.44,0,0,1,.42-.5,1.31,1.31,0,0,1,.57-.27.43.43,0,0,1,.41,0c.41.23.83.41,1.26.61l.1,0,.08,0c13.44,4.65,15.73,3.9,18.66,1.82s-3.67-19.8-3.67-19.8C173.19,64.32,174,63.82,173.52,60.41Z"/><path d="M133.8,104.78a4.33,4.33,0,0,1-2,0c-4-1.06-4.29-18.88-4.3-20.76-1.62-.67-16.16-6.87-15.92-12.56s15.89-9.53,17.58-9.93c.35-1.63,3.57-16.41,7.11-19.23l.09-.11.09-.08.08-.05.05,0a2.67,2.67,0,0,1,.67-.29l.16,0a3.65,3.65,0,0,1,1.24-.07c2.2.51,6.27,3.44,13.29,14.45,1.52,0,15.7-.22,20.25,2.65.31.19.52.34.71.48l.19.17a2.87,2.87,0,0,1,.29.31l.09.13c0,.08.07.15.1.23l.14.32v0c.38,3-.15,3.82-5.27,11.73-.84,1.3-1.8,2.78-2.9,4.5.57,1.55,6.51,17.85,3.57,19.94-3.18,2.26-5.77,2.73-18.84-1.8l0,0-.1,0-.07,0-.28-.13c-.33-.15-.66-.3-1-.48a.22.22,0,0,0-.22,0l-.05,0h0a1.24,1.24,0,0,0-.48.23,1.22,1.22,0,0,0-.36.43l0,0C146.68,95.82,139,103.77,133.8,104.78Zm3.8-62.73-.1,0-.15,0a2.56,2.56,0,0,0-.56.24l0,0-.09.06h0a.5.5,0,0,0-.06.08l-.05,0c-3.56,2.79-7,19-7,19.15l0,.13-.12,0c-.17,0-17.17,4-17.4,9.59s15.63,12.16,15.79,12.23l.12,0v.13s0,5,.56,9.93c.87,8.22,2.35,10.29,3.45,10.58,4.8,1.27,14.77-9.13,15.44-9.83a1.51,1.51,0,0,1,.46-.55,1.63,1.63,0,0,1,.62-.3.66.66,0,0,1,.58,0c.31.17.64.32.95.47l.31.14h0l.13,0c13.52,4.68,15.63,3.85,18.46,1.85,2.31-1.64-1.92-14.68-3.75-19.57l0-.09,0-.09,3-4.58c5-7.78,5.57-8.62,5.21-11.44l-.12-.27a2,2,0,0,0-.1-.21.16.16,0,0,1,0-.07,3,3,0,0,0-.25-.25l-.19-.18c-.15-.1-.35-.25-.65-.43-4.61-2.91-20-2.59-20.14-2.59h-.11l-.06-.09c-7-11-11-13.88-13.09-14.37A3.57,3.57,0,0,0,137.6,42.05Z"/><path class="cls-10" d="M79.86,136.09,79.8,136l0-.1,0,0h0c-.07-.08-.15-.14-.22-.21a3,3,0,0,0-.32-.22c-2.24-1.42-9.64-1.25-9.64-1.25-3.33-5.23-5.25-6.63-6.28-6.88a1.75,1.75,0,0,0-.56,0l-.07,0a1.48,1.48,0,0,0-.29.12l-.06,0,0,0,0,.06c-1.74,1.36-3.37,9.16-3.37,9.16s-8.24,1.88-8.35,4.65,7.57,5.91,7.57,5.91,0,9.34,2,9.85c2.36.62,7.12-4.36,7.45-4.72a.91.91,0,0,1,.2-.24A.68.68,0,0,1,68,152a.24.24,0,0,1,.2,0,6.45,6.45,0,0,0,.59.29h.05l0,0c6.4,2.21,7.48,1.86,8.88.87S76,143.79,76,143.79C79.7,138,80.07,137.71,79.86,136.09Z"/><path class="cls-11" d="M81,135.87l-.06-.14,0-.11,0,0h0a2.08,2.08,0,0,0-.21-.21l-.33-.22c-2.24-1.41-9.64-1.25-9.64-1.25-3.33-5.23-5.25-6.63-6.28-6.87a1.76,1.76,0,0,0-.56,0l-.07,0a1,1,0,0,0-.29.12l-.06,0,0,0,0,0c-1.74,1.36-3.37,9.17-3.37,9.17s-8.24,1.88-8.35,4.65,7.57,5.9,7.57,5.9.05,9.34,2,9.85c2.35.62,7.11-4.36,7.44-4.71a.68.68,0,0,1,.2-.24.75.75,0,0,1,.27-.13.2.2,0,0,1,.2,0c.19.1.39.19.6.28l0,0h0c6.4,2.22,7.49,1.86,8.88.87s-1.75-9.42-1.75-9.42C80.87,137.72,81.24,137.48,81,135.87Z"/><path d="M62.13,157a2.16,2.16,0,0,1-1,0c-1.91-.5-2-9-2-9.87-.77-.32-7.69-3.27-7.58-6s7.57-4.53,8.37-4.72c.16-.78,1.7-7.81,3.38-9.15l0-.06,0,0,0,0,0,0a1.55,1.55,0,0,1,.32-.14h.07a1.67,1.67,0,0,1,.59,0c1,.25,3,1.64,6.32,6.88.73,0,7.47-.1,9.64,1.26a3,3,0,0,1,.33.23l.09.08a.93.93,0,0,1,.14.14l0,.07a.37.37,0,0,1,0,.11l.07.15h0c.19,1.43-.07,1.82-2.5,5.58l-1.38,2.15c.27.73,3.1,8.48,1.69,9.48s-2.74,1.29-9-.86h-.1l-.13-.06-.47-.23a.12.12,0,0,0-.1,0h0a.61.61,0,0,0-.23.11.48.48,0,0,0-.17.21l0,0C68.26,152.71,64.62,156.49,62.13,157Zm1.81-29.84h0l-.07,0a.81.81,0,0,0-.27.11h0l0,0h0l0,0,0,0c-1.7,1.32-3.32,9-3.34,9.11v.06H60c-.08,0-8.16,1.89-8.28,4.56s7.44,5.78,7.52,5.81l.06,0V147s0,2.36.26,4.73c.41,3.91,1.12,4.89,1.64,5,2.28.6,7-4.34,7.34-4.68a.71.71,0,0,1,.23-.26.66.66,0,0,1,.29-.14.29.29,0,0,1,.27,0,4.81,4.81,0,0,0,.46.22L70,152h0l.05,0c6.44,2.22,7.44,1.83,8.79.87,1.09-.78-.92-7-1.79-9.3v0l0,0,1.41-2.18c2.39-3.7,2.65-4.1,2.48-5.44l-.06-.13,0-.09,0,0a.46.46,0,0,0-.12-.12.6.6,0,0,0-.08-.08l-.31-.21c-2.19-1.38-9.51-1.23-9.58-1.23h-.06l0-.05c-3.32-5.22-5.21-6.59-6.22-6.83A1.49,1.49,0,0,0,63.94,127.13Z"/><path class="cls-10" d="M258.84,136l-.06-.13,0-.11a.15.15,0,0,1,0,0h0a2.08,2.08,0,0,0-.21-.21l-.33-.22c-2.24-1.41-9.64-1.25-9.64-1.25-3.33-5.23-5.25-6.63-6.28-6.87a1.76,1.76,0,0,0-.56,0l-.07,0a.81.81,0,0,0-.29.12l-.06,0,0,0,0,0c-1.74,1.36-3.37,9.17-3.37,9.17s-8.24,1.88-8.35,4.64,7.57,5.91,7.57,5.91.05,9.34,2,9.85c2.35.62,7.11-4.36,7.44-4.71a.68.68,0,0,1,.2-.24.75.75,0,0,1,.27-.13.23.23,0,0,1,.2,0,6.63,6.63,0,0,0,.6.29l.05,0h0c6.4,2.22,7.49,1.86,8.88.87s-1.75-9.42-1.75-9.42C258.68,137.87,259.05,137.63,258.84,136Z"/><path class="cls-11" d="M260,135.79l-.06-.14a.93.93,0,0,0-.05-.1.15.15,0,0,0,0,0h0c-.06-.08-.14-.14-.21-.22l-.33-.22c-2.24-1.41-9.64-1.24-9.64-1.24-3.32-5.24-5.24-6.64-6.28-6.88a1.7,1.7,0,0,0-.55,0l-.08,0a1.48,1.48,0,0,0-.29.12l-.06,0,0,0,0,.06c-1.74,1.36-3.37,9.16-3.37,9.16s-8.23,1.88-8.35,4.65,7.57,5.91,7.57,5.91,0,9.33,2,9.84c2.35.63,7.11-4.36,7.44-4.71a.78.78,0,0,1,.2-.24.75.75,0,0,1,.27-.13.2.2,0,0,1,.2,0c.19.11.4.19.6.29h0l0,0c6.39,2.21,7.48,1.86,8.87.87s-1.75-9.42-1.75-9.42C259.86,137.65,260.22,137.41,260,135.79Z"/><path d="M241.11,156.89a2.17,2.17,0,0,1-1,0c-1.91-.51-2-9-2-9.88-.77-.32-7.69-3.27-7.57-6s7.56-4.53,8.36-4.72c.17-.77,1.7-7.8,3.38-9.15l0,0,0,0,0,0,0,0a1.27,1.27,0,0,1,.32-.13l.07,0a1.94,1.94,0,0,1,.59,0c1.05.24,3,1.63,6.33,6.87.72,0,7.47-.1,9.63,1.26a3,3,0,0,1,.33.23l.09.08a1,1,0,0,1,.14.15l0,.06.06.11.06.15v0c.19,1.42-.07,1.81-2.5,5.58-.4.61-.86,1.32-1.38,2.14.27.73,3.1,8.49,1.7,9.48s-2.75,1.3-9-.85h0l0,0h0l-.14-.06c-.15-.07-.31-.14-.47-.23a.09.09,0,0,0-.1,0h0a.53.53,0,0,0-.23.11.47.47,0,0,0-.17.2l0,0C247.24,152.63,243.6,156.41,241.11,156.89Zm1.82-29.84h-.05l-.07,0a1.69,1.69,0,0,0-.27.11h0l0,0h0l0,0,0,0c-1.7,1.33-3.32,9-3.34,9.11v.06H239c-.08,0-8.16,1.9-8.28,4.56s7.44,5.79,7.52,5.82l.06,0V147s0,2.35.26,4.72c.41,3.91,1.12,4.89,1.64,5,2.28.6,7-4.34,7.35-4.67a.69.69,0,0,1,.22-.27.78.78,0,0,1,.29-.14.31.31,0,0,1,.28,0c.14.08.3.15.45.22l.15.06h0l.06,0c6.43,2.23,7.43,1.83,8.78.88,1.09-.78-.92-7-1.78-9.31l0,0,0,0,1.41-2.19c2.39-3.7,2.65-4.09,2.48-5.44l-.06-.12a1,1,0,0,0,0-.1l0,0-.12-.13-.09-.08-.31-.21c-2.19-1.38-9.51-1.23-9.58-1.23h-.06l0,0c-3.32-5.22-5.21-6.6-6.22-6.84A1.78,1.78,0,0,0,242.93,127.05Z"/><path class="cls-10" d="M323.46,899.9l-.06-.14,0-.11,0,0h0a2.08,2.08,0,0,0-.21-.21l-.33-.22c-2.24-1.41-9.64-1.25-9.64-1.25-3.32-5.23-5.24-6.63-6.28-6.87a1.7,1.7,0,0,0-.55,0l-.08,0a1.48,1.48,0,0,0-.29.12l-.06,0,0,0-.05.05c-1.74,1.36-3.37,9.17-3.37,9.17s-8.23,1.88-8.35,4.65,7.57,5.9,7.57,5.9,0,9.34,2,9.85c2.35.62,7.11-4.36,7.44-4.71a.68.68,0,0,1,.2-.24.75.75,0,0,1,.27-.13.2.2,0,0,1,.2,0c.19.1.4.19.6.28l0,0,0,0c6.39,2.21,7.48,1.85,8.87.86s-1.75-9.42-1.75-9.42C323.31,901.75,323.67,901.51,323.46,899.9Z"/><path class="cls-11" d="M324.63,899.67l-.06-.14-.05-.1,0,0h0a2.08,2.08,0,0,0-.21-.21c-.1-.08-.21-.15-.33-.23-2.24-1.41-9.63-1.24-9.63-1.24-3.33-5.24-5.25-6.64-6.29-6.88a1.7,1.7,0,0,0-.55,0l-.07,0a1.34,1.34,0,0,0-.3.12l-.06,0,0,0,0,.06c-1.74,1.36-3.37,9.16-3.37,9.16s-8.23,1.88-8.35,4.65,7.57,5.91,7.57,5.91.05,9.33,2,9.84c2.35.63,7.11-4.36,7.45-4.71a.58.58,0,0,1,.2-.24.64.64,0,0,1,.26-.13.2.2,0,0,1,.2,0c.19.11.4.19.6.29h.05l0,0c6.39,2.21,7.48,1.86,8.87.87s-1.74-9.42-1.74-9.42C324.48,901.53,324.84,901.29,324.63,899.67Z"/><path d="M305.74,920.77a2.22,2.22,0,0,1-1,0c-1.91-.51-2-9-2-9.88-.77-.32-7.69-3.27-7.57-6s7.56-4.54,8.36-4.73c.17-.77,1.7-7.8,3.38-9.15l0,0,0,0s0,0,0,0l0,0a1.79,1.79,0,0,1,.32-.13l.07,0a1.94,1.94,0,0,1,.59,0c1,.24,3,1.63,6.33,6.87.72,0,7.47-.1,9.63,1.26a3.43,3.43,0,0,1,.33.23l.1.08.14.15,0,.06a.37.37,0,0,0,.05.11l.06.15v0c.18,1.42-.08,1.81-2.51,5.58-.4.61-.86,1.32-1.38,2.14.27.73,3.1,8.49,1.7,9.48s-2.75,1.3-9-.85h0l-.05,0h0l-.14-.06a4.93,4.93,0,0,1-.46-.23.11.11,0,0,0-.11,0h0a.53.53,0,0,0-.23.11.65.65,0,0,0-.17.2l0,0C311.87,916.51,308.23,920.29,305.74,920.77Zm1.81-29.84h-.05l-.07,0a1.69,1.69,0,0,0-.27.11l0,0,0,0h0l0,0,0,0c-1.69,1.33-3.32,9-3.33,9.11l0,.06h-.06c-.08,0-8.16,1.9-8.27,4.56s7.43,5.79,7.51,5.82l.06,0v.07s0,2.35.26,4.72c.41,3.91,1.12,4.9,1.64,5,2.29.61,7-4.34,7.35-4.67a.68.68,0,0,1,.22-.26.72.72,0,0,1,.29-.15.31.31,0,0,1,.28,0c.14.08.3.15.45.22l.15.06h0l.06,0c6.43,2.23,7.43,1.83,8.78.88,1.1-.78-.92-7-1.78-9.31l0,0,0,0c.53-.84,1-1.56,1.4-2.18,2.39-3.71,2.65-4.1,2.48-5.45l-.06-.12,0-.1,0,0-.12-.13-.09-.08-.31-.21c-2.19-1.38-9.51-1.23-9.58-1.23h-.06l0,0c-3.33-5.22-5.22-6.6-6.23-6.84A2.36,2.36,0,0,0,307.55,890.93Z"/><path class="cls-10" d="M563.3,996.86l-.06-.14,0-.1,0,0h0a2.08,2.08,0,0,0-.21-.21l-.33-.22c-2.24-1.42-9.64-1.25-9.64-1.25-3.32-5.23-5.24-6.63-6.28-6.87a1.46,1.46,0,0,0-.55,0h-.08a1.08,1.08,0,0,0-.29.13l-.06,0,0,0-.05,0c-1.74,1.36-3.37,9.17-3.37,9.17s-8.23,1.87-8.35,4.64,7.57,5.91,7.57,5.91,0,9.34,2,9.85c2.35.62,7.11-4.36,7.44-4.72a.91.91,0,0,1,.2-.24.93.93,0,0,1,.27-.12.23.23,0,0,1,.2,0,6.63,6.63,0,0,0,.6.29l0,0h0c6.39,2.22,7.48,1.86,8.87.87s-1.75-9.42-1.75-9.42C563.15,998.72,563.51,998.48,563.3,996.86Z"/><path class="cls-11" d="M564.47,996.64l-.06-.14,0-.11,0,0h0l-.21-.21-.33-.22c-2.24-1.41-9.63-1.24-9.63-1.24-3.33-5.24-5.25-6.64-6.29-6.88a1.7,1.7,0,0,0-.55,0l-.07,0a1.34,1.34,0,0,0-.3.12l-.06,0,0,0,0,.05c-1.74,1.37-3.37,9.17-3.37,9.17s-8.23,1.88-8.35,4.65,7.57,5.9,7.57,5.9.05,9.34,2,9.85c2.35.62,7.11-4.36,7.44-4.71a.61.61,0,0,1,.21-.24.64.64,0,0,1,.26-.13.2.2,0,0,1,.2,0l.6.29h0l0,0c6.39,2.21,7.48,1.85,8.87.86s-1.74-9.41-1.74-9.41C564.32,998.49,564.68,998.26,564.47,996.64Z"/><path d="M545.58,1017.74a2.06,2.06,0,0,1-1,0c-1.91-.5-2-9-2-9.87-.77-.32-7.69-3.27-7.57-6s7.56-4.53,8.36-4.72c.17-.78,1.7-7.81,3.38-9.15l0,0,0,0,0,0,0,0a1.27,1.27,0,0,1,.32-.13l.07,0a1.67,1.67,0,0,1,.59,0c1,.24,3,1.63,6.33,6.87.72,0,7.47-.1,9.63,1.26a3,3,0,0,1,.33.23l.09.08a1,1,0,0,1,.14.15l.05.06a.54.54,0,0,0,0,.11l.06.15h0c.19,1.43-.07,1.82-2.5,5.59-.4.61-.86,1.32-1.38,2.14.27.73,3.1,8.49,1.7,9.48s-2.75,1.3-9-.85h0l0,0h0l-.14-.06-.46-.23a.14.14,0,0,0-.11,0h0a1,1,0,0,0-.23.11.68.68,0,0,0-.17.21l0,0C551.71,1013.48,548.07,1017.26,545.58,1017.74Zm1.81-29.84h0l-.07,0a1.09,1.09,0,0,0-.27.11h0l0,0h0l0,0,0,0c-1.69,1.32-3.32,9-3.33,9.11l0,.06h-.06c-.08,0-8.16,1.9-8.27,4.56s7.43,5.79,7.51,5.82l.06,0v.06s0,2.36.26,4.73c.41,3.91,1.12,4.89,1.64,5,2.29.6,7-4.34,7.35-4.68a.87.87,0,0,1,.22-.26.78.78,0,0,1,.29-.14.34.34,0,0,1,.28,0,3.81,3.81,0,0,0,.45.23l.15.06h0l.06,0c6.43,2.23,7.43,1.83,8.78.88,1.1-.78-.92-7-1.78-9.31l0,0,0,0c.53-.84,1-1.56,1.4-2.19,2.39-3.7,2.65-4.09,2.48-5.44l-.06-.12a1,1,0,0,0,0-.1l0,0-.12-.12-.09-.08-.31-.21c-2.19-1.38-9.51-1.23-9.58-1.23h-.06l0,0c-3.33-5.23-5.22-6.6-6.23-6.84A1.78,1.78,0,0,0,547.39,987.9Z"/><path class="cls-10" d="M407.37,969.75l-.12-.28-.1-.21,0-.08v0c-.13-.16-.29-.28-.43-.43l-.66-.44c-4.52-2.85-19.43-2.52-19.43-2.52-6.71-10.55-10.59-13.37-12.67-13.86a3.51,3.51,0,0,0-1.12.06l-.14,0a3.13,3.13,0,0,0-.6.24l-.11.08-.06,0a.63.63,0,0,0-.08.11C368.27,955.23,365,971,365,971s-16.61,3.79-16.84,9.38,15.27,11.91,15.27,11.91.09,18.83,4,19.85c4.74,1.26,14.34-8.79,15-9.5a1.27,1.27,0,0,1,.41-.48,1.36,1.36,0,0,1,.54-.26.41.41,0,0,1,.4,0c.39.22.8.39,1.2.58l.1,0,.08,0c12.89,4.46,15.08,3.74,17.9,1.74s-3.53-19-3.53-19C407.06,973.49,407.79,973,407.37,969.75Z"/><path class="cls-11" d="M409.73,969.29l-.12-.28a2,2,0,0,0-.1-.21l-.05-.08v0a5.66,5.66,0,0,0-.43-.42c-.2-.15-.42-.29-.66-.45-4.52-2.85-19.43-2.51-19.43-2.51-6.71-10.55-10.58-13.38-12.67-13.87a3.51,3.51,0,0,0-1.12.07l-.14,0a2.63,2.63,0,0,0-.6.25l-.11.08-.06,0a.37.37,0,0,0-.08.11c-3.52,2.74-6.8,18.48-6.8,18.48s-16.61,3.79-16.84,9.37,15.27,11.91,15.27,11.91.09,18.83,4,19.86c4.74,1.25,14.34-8.79,15-9.51a1.3,1.3,0,0,1,.4-.48,1.42,1.42,0,0,1,.54-.26.44.44,0,0,1,.4,0c.39.21.8.39,1.2.58l.1,0a.19.19,0,0,1,.08,0c12.89,4.46,15.09,3.75,17.9,1.75s-3.52-19-3.52-19C409.42,973,410.15,972.56,409.73,969.29Z"/><path d="M371.63,1011.85a4.27,4.27,0,0,1-1.92,0c-3.85-1-4.11-18.11-4.12-19.91-1.55-.64-15.5-6.59-15.27-12s15.25-9.14,16.87-9.52c.33-1.57,3.42-15.74,6.81-18.45l.09-.11.09-.07.07-.05.05,0a2.56,2.56,0,0,1,.64-.27l.15,0a3.62,3.62,0,0,1,1.19-.07c2.12.5,6,3.3,12.75,13.87,1.46,0,15.07-.21,19.43,2.54.29.18.5.32.67.45l.19.18a2.46,2.46,0,0,1,.28.28l.08.14a1.47,1.47,0,0,1,.1.22l.14.3v0c.37,2.87-.14,3.66-5.05,11.25-.8,1.25-1.73,2.67-2.78,4.32.55,1.48,6.25,17.12,3.42,19.12-3.05,2.17-5.54,2.62-18.07-1.72l0,0-.1,0-.06,0L387,1002c-.31-.14-.64-.29-.94-.46a.25.25,0,0,0-.22,0l-.05,0h0a1.21,1.21,0,0,0-.46.22,1.07,1.07,0,0,0-.35.42l0,0C384,1003.25,376.65,1010.88,371.63,1011.85Zm3.65-60.17-.1,0-.14,0a2.55,2.55,0,0,0-.54.22l0,0-.08.06,0,0-.05.07-.05,0c-3.42,2.67-6.69,18.21-6.72,18.37l0,.12-.12,0c-.16,0-16.47,3.82-16.69,9.2s15,11.66,15.15,11.72l.12,0v.13c0,.05,0,4.76.53,9.53.83,7.88,2.26,9.87,3.31,10.14,4.6,1.22,14.17-8.75,14.81-9.43a1.65,1.65,0,0,1,.44-.52,1.6,1.6,0,0,1,.6-.29.6.6,0,0,1,.55,0c.3.16.61.31.92.45l.29.13h0l.12,0c13,4.48,15,3.69,17.71,1.76,2.21-1.57-1.84-14.08-3.59-18.76l0-.09.06-.08c1.07-1.69,2-3.14,2.83-4.4,4.82-7.47,5.34-8.27,5-11l-.11-.25-.09-.2a.25.25,0,0,1,0-.07,2.72,2.72,0,0,0-.24-.24l-.18-.17c-.14-.1-.34-.24-.63-.42-4.41-2.78-19.17-2.48-19.32-2.48h-.1l-.06-.09c-6.7-10.53-10.52-13.31-12.55-13.78A3.3,3.3,0,0,0,375.28,951.68Z"/><path class="cls-10" d="M690.38,1044.63l-.12-.28a2,2,0,0,0-.1-.21s0-.06,0-.08l0,0a5.81,5.81,0,0,0-.43-.43c-.19-.14-.41-.29-.66-.44-4.52-2.85-19.43-2.51-19.43-2.51-6.71-10.56-10.58-13.38-12.66-13.87a3.57,3.57,0,0,0-1.13.06l-.14,0a2.81,2.81,0,0,0-.59.24l-.12.08-.05,0-.09.12c-3.52,2.74-6.8,18.47-6.8,18.47s-16.6,3.8-16.84,9.38,15.27,11.91,15.27,11.91.1,18.83,4,19.86c4.74,1.25,14.34-8.79,15-9.51a1.32,1.32,0,0,1,.4-.48,1.4,1.4,0,0,1,.55-.26.42.42,0,0,1,.39,0c.39.22.8.4,1.2.58a.45.45,0,0,0,.11,0l.07,0c12.9,4.46,15.09,3.74,17.9,1.74s-3.52-19-3.52-19C690.07,1048.38,690.81,1047.9,690.38,1044.63Z"/><path class="cls-11" d="M692.75,1044.17l-.13-.28-.09-.2s0-.07,0-.09l0,0a5.7,5.7,0,0,0-.43-.42c-.19-.15-.41-.29-.66-.45-4.52-2.85-19.43-2.51-19.43-2.51-6.71-10.55-10.58-13.38-12.66-13.86a3.3,3.3,0,0,0-1.13.06l-.14,0a2.38,2.38,0,0,0-.59.25l-.12.08,0,0a.64.64,0,0,0-.09.11c-3.51,2.74-6.8,18.48-6.8,18.48s-16.6,3.79-16.84,9.37,15.27,11.91,15.27,11.91.1,18.83,4,19.86c4.74,1.25,14.35-8.79,15-9.5a1.35,1.35,0,0,1,.4-.49,1.4,1.4,0,0,1,.55-.26.42.42,0,0,1,.39,0c.39.21.8.39,1.21.58l.1,0s0,0,.08,0c12.89,4.46,15.08,3.75,17.89,1.75s-3.52-19-3.52-19C692.43,1047.92,693.17,1047.44,692.75,1044.17Z"/><path d="M654.64,1086.73a4.22,4.22,0,0,1-1.91,0c-3.86-1-4.11-18.11-4.13-19.91-1.54-.64-15.49-6.59-15.27-12s15.25-9.14,16.87-9.52c.33-1.57,3.42-15.74,6.82-18.45l.08-.11.09-.07.07,0,0,0a2.63,2.63,0,0,1,.65-.27l.15,0a3.36,3.36,0,0,1,1.19-.06c2.11.49,6,3.29,12.75,13.86,1.46,0,15.06-.21,19.42,2.54.3.19.5.33.68.46l.18.17a2.57,2.57,0,0,1,.28.29l.08.13a1.51,1.51,0,0,1,.11.22l.13.3v0c.37,2.87-.14,3.66-5,11.25l-2.78,4.32c.55,1.48,6.25,17.12,3.42,19.12-3,2.17-5.53,2.62-18.07-1.72l0,0-.09,0-.07,0-.27-.12c-.31-.15-.63-.3-.94-.47a.22.22,0,0,0-.21,0l-.06,0h0a1.21,1.21,0,0,0-.46.22,1.07,1.07,0,0,0-.35.42l0,.05C667,1078.13,659.66,1085.76,654.64,1086.73Zm3.66-60.17-.1,0-.14,0a2.43,2.43,0,0,0-.55.22l0,0-.08.05,0,0a.18.18,0,0,0,0,.07l-.05,0c-3.42,2.67-6.7,18.21-6.73,18.37l0,.12-.11,0c-.17,0-16.47,3.83-16.7,9.2s15,11.66,15.15,11.73l.12,0v.13s0,4.76.54,9.53c.83,7.88,2.25,9.87,3.3,10.15,4.61,1.21,14.17-8.76,14.81-9.43a1.5,1.5,0,0,1,.45-.53,1.62,1.62,0,0,1,.59-.29.59.59,0,0,1,.55,0c.3.16.62.31.92.45l.3.13h0l.12,0c13,4.48,15,3.69,17.7,1.76,2.22-1.57-1.84-14.08-3.59-18.76l0-.09.05-.08c1.08-1.69,2-3.14,2.83-4.4,4.83-7.47,5.35-8.27,5-11l-.11-.26-.09-.2a.18.18,0,0,1-.05-.07,1.81,1.81,0,0,0-.24-.24l-.17-.17-.63-.42c-4.42-2.78-19.17-2.48-19.32-2.48h-.11l-.06-.09c-6.69-10.53-10.52-13.3-12.55-13.78A3.21,3.21,0,0,0,658.3,1026.56Z"/></g><g id="Layer_3" data-name="Layer 3"><rect class="cls-2" x="1061.55" y="352.51" width="107.91" height="29.74" transform="translate(-50.06 223.21) rotate(-11.18)"/></g></svg>
