<svg id="Layer_2" data-name="Layer 2" xmlns="http://www.w3.org/2000/svg" width="1920" height="1080" viewBox="0 0 1920 1080"><defs><style>.cls-1{fill:#9d4873;}.cls-2{fill:#a84263;}.cls-3{fill:#ff73a0;}.cls-4{fill:#e2a39a;}</style></defs><path class="cls-1" d="M0,1080C-24.33,964.81,123.16,813.8,215.14,817s413.36,149,398,263"/><path class="cls-2" d="M1406.83,1080C1378.06,879.1,1527.08,722.54,1660,722.31c133.1-.23,282.86,156.31,254.21,357.63"/><path class="cls-3" d="M625.69,718.51c0-73.43-76.25-133-170.31-133s-170.31,59.53-170.31,133,76.25,39.65,170.31,39.65S625.69,791.93,625.69,718.51Z"/><path class="cls-4" d="M605.47,835.81C582,720.44,717.38,600.94,809.33,604.82s198.5,97.62,182.25,211.48"/></svg>
